%MOIN*%
%OFA0B0*%
%FSLAX44Y44*%
%IPPOS*%
%LPD*%
%ADD10C,0*%
D10*
X00026515Y00019298D02*
X00026515Y00019298D01*
X00026546Y00019297D01*
X00026577Y00019293D01*
X00026607Y00019287D01*
X00026637Y00019279D01*
X00026666Y00019268D01*
X00026694Y00019255D01*
X00026722Y00019239D01*
X00026747Y00019222D01*
X00026772Y00019203D01*
X00026794Y00019182D01*
X00026815Y00019159D01*
X00026834Y00019134D01*
X00026852Y00019109D01*
X00026867Y00019081D01*
X00026880Y00019053D01*
X00026890Y00019024D01*
X00026898Y00018994D01*
X00026904Y00018964D01*
X00026908Y00018933D01*
X00026909Y00018902D01*
X00026904Y00018114D01*
X00026902Y00018084D01*
X00026899Y00018053D01*
X00026892Y00018023D01*
X00026884Y00017993D01*
X00026873Y00017964D01*
X00026860Y00017937D01*
X00026845Y00017910D01*
X00026828Y00017884D01*
X00026809Y00017860D01*
X00026788Y00017838D01*
X00026765Y00017817D01*
X00026741Y00017798D01*
X00026715Y00017781D01*
X00026688Y00017766D01*
X00026660Y00017753D01*
X00026631Y00017742D01*
X00026602Y00017734D01*
X00026571Y00017728D01*
X00026541Y00017724D01*
X00026510Y00017723D01*
X00020265Y00017723D01*
X00020234Y00017724D01*
X00020204Y00017728D01*
X00020174Y00017734D01*
X00020144Y00017742D01*
X00020115Y00017753D01*
X00020087Y00017765D01*
X00020061Y00017780D01*
X00020035Y00017797D01*
X00020011Y00017816D01*
X00019988Y00017837D01*
X00019967Y00017859D01*
X00019948Y00017883D01*
X00019931Y00017909D01*
X00019916Y00017936D01*
X00019902Y00017963D01*
X00019892Y00017992D01*
X00019883Y00018022D01*
X00019877Y00018052D01*
X00019873Y00018082D01*
X00019871Y00018113D01*
X00019863Y00018900D01*
X00019864Y00018931D01*
X00019867Y00018962D01*
X00019873Y00018993D01*
X00019881Y00019023D01*
X00019892Y00019052D01*
X00019905Y00019080D01*
X00019920Y00019108D01*
X00019937Y00019134D01*
X00019956Y00019158D01*
X00019977Y00019181D01*
X00020000Y00019202D01*
X00020024Y00019222D01*
X00020050Y00019239D01*
X00020077Y00019254D01*
X00020105Y00019268D01*
X00020134Y00019278D01*
X00020164Y00019287D01*
X00020195Y00019293D01*
X00020226Y00019297D01*
X00020257Y00019298D01*
X00026515Y00019298D01*
X00006560Y00017723D02*
X00006560Y00017723D01*
X00006529Y00017724D01*
X00006498Y00017728D01*
X00006468Y00017734D01*
X00006439Y00017742D01*
X00006410Y00017753D01*
X00006382Y00017766D01*
X00006355Y00017781D01*
X00006329Y00017798D01*
X00006305Y00017817D01*
X00006282Y00017838D01*
X00006261Y00017860D01*
X00006242Y00017884D01*
X00006225Y00017910D01*
X00006210Y00017937D01*
X00006197Y00017964D01*
X00006186Y00017993D01*
X00006177Y00018023D01*
X00006171Y00018053D01*
X00006168Y00018084D01*
X00006166Y00018114D01*
X00006161Y00018902D01*
X00006162Y00018933D01*
X00006166Y00018964D01*
X00006171Y00018994D01*
X00006180Y00019024D01*
X00006190Y00019053D01*
X00006203Y00019081D01*
X00006218Y00019109D01*
X00006235Y00019134D01*
X00006255Y00019159D01*
X00006276Y00019182D01*
X00006298Y00019203D01*
X00006323Y00019222D01*
X00006348Y00019239D01*
X00006375Y00019255D01*
X00006404Y00019268D01*
X00006433Y00019279D01*
X00006463Y00019287D01*
X00006493Y00019293D01*
X00006524Y00019297D01*
X00006555Y00019298D01*
X00017537Y00019298D01*
X00017569Y00019297D01*
X00017599Y00019293D01*
X00017630Y00019287D01*
X00017660Y00019278D01*
X00017689Y00019268D01*
X00017717Y00019254D01*
X00017744Y00019239D01*
X00017770Y00019222D01*
X00017795Y00019202D01*
X00017817Y00019181D01*
X00017838Y00019158D01*
X00017857Y00019134D01*
X00017875Y00019108D01*
X00017890Y00019080D01*
X00017902Y00019052D01*
X00017913Y00019023D01*
X00017921Y00018993D01*
X00017927Y00018962D01*
X00017930Y00018931D01*
X00017931Y00018900D01*
X00017923Y00018113D01*
X00017921Y00018082D01*
X00017918Y00018052D01*
X00017911Y00018022D01*
X00017903Y00017992D01*
X00017892Y00017963D01*
X00017879Y00017936D01*
X00017864Y00017909D01*
X00017846Y00017883D01*
X00017827Y00017859D01*
X00017806Y00017837D01*
X00017784Y00017816D01*
X00017759Y00017797D01*
X00017734Y00017780D01*
X00017707Y00017765D01*
X00017679Y00017753D01*
X00017650Y00017742D01*
X00017621Y00017734D01*
X00017590Y00017728D01*
X00017560Y00017724D01*
X00017529Y00017723D01*
X00006560Y00017723D01*
X00002106Y00019298D02*
X00002106Y00019298D01*
X00002137Y00019297D01*
X00002167Y00019293D01*
X00002198Y00019287D01*
X00002228Y00019279D01*
X00002257Y00019268D01*
X00002285Y00019255D01*
X00002312Y00019239D01*
X00002338Y00019222D01*
X00002362Y00019203D01*
X00002385Y00019182D01*
X00002406Y00019159D01*
X00002425Y00019134D01*
X00002442Y00019109D01*
X00002457Y00019081D01*
X00002470Y00019053D01*
X00002481Y00019024D01*
X00002489Y00018994D01*
X00002495Y00018964D01*
X00002498Y00018933D01*
X00002499Y00018902D01*
X00002494Y00018114D01*
X00002493Y00018084D01*
X00002489Y00018053D01*
X00002483Y00018023D01*
X00002474Y00017993D01*
X00002464Y00017964D01*
X00002451Y00017937D01*
X00002435Y00017910D01*
X00002418Y00017884D01*
X00002399Y00017860D01*
X00002378Y00017838D01*
X00002355Y00017817D01*
X00002331Y00017798D01*
X00002306Y00017781D01*
X00002279Y00017766D01*
X00002251Y00017753D01*
X00002222Y00017742D01*
X00002192Y00017734D01*
X00002162Y00017728D01*
X00002131Y00017724D01*
X00002101Y00017723D01*
X-00000004Y00017723D01*
X-00000004Y00000007D01*
X00033459Y00000007D01*
X00033459Y00017723D01*
X00030969Y00017723D01*
X00030938Y00017724D01*
X00030908Y00017728D01*
X00030878Y00017734D01*
X00030848Y00017742D01*
X00030819Y00017753D01*
X00030791Y00017766D01*
X00030764Y00017781D01*
X00030739Y00017798D01*
X00030714Y00017817D01*
X00030692Y00017838D01*
X00030671Y00017860D01*
X00030652Y00017884D01*
X00030634Y00017910D01*
X00030619Y00017937D01*
X00030606Y00017964D01*
X00030595Y00017993D01*
X00030587Y00018023D01*
X00030581Y00018053D01*
X00030577Y00018084D01*
X00030576Y00018114D01*
X00030571Y00018902D01*
X00030572Y00018933D01*
X00030575Y00018964D01*
X00030581Y00018994D01*
X00030589Y00019024D01*
X00030600Y00019053D01*
X00030613Y00019081D01*
X00030628Y00019109D01*
X00030645Y00019134D01*
X00030664Y00019159D01*
X00030685Y00019182D01*
X00030708Y00019203D01*
X00030732Y00019222D01*
X00030758Y00019239D01*
X00030785Y00019255D01*
X00030813Y00019268D01*
X00030842Y00019279D01*
X00030872Y00019287D01*
X00030902Y00019293D01*
X00030933Y00019297D01*
X00030964Y00019298D01*
X00033459Y00019298D01*
X00033459Y00037014D01*
X-00000004Y00037014D01*
X-00000004Y00019298D01*
X00002106Y00019298D01*
M02*