%MOIN*%
%OFA0B0*%
%FSLAX46Y46*%
%IPPOS*%
%LPD*%
%ADD10C,0.0039370078740157488*%
%ADD11C,0.048228346456692918*%
%ADD22C,0.0039370078740157488*%
%ADD23C,0.048228346456692918*%
%LPD*%
D10*
G36*
X0000977618Y0000906291D02*
G01*
X0000978573Y0000906149D01*
X0000979510Y0000905914D01*
X0000980420Y0000905589D01*
X0000981293Y0000905176D01*
X0000982121Y0000904679D01*
X0000982897Y0000904104D01*
X0000983613Y0000903455D01*
X0000984261Y0000902740D01*
X0000984837Y0000901964D01*
X0000985333Y0000901135D01*
X0000985746Y0000900262D01*
X0000986072Y0000899353D01*
X0000986306Y0000898416D01*
X0000986448Y0000897460D01*
X0000986496Y0000896496D01*
X0000986496Y0000867952D01*
X0000986448Y0000866988D01*
X0000986306Y0000866032D01*
X0000986072Y0000865095D01*
X0000985746Y0000864186D01*
X0000985333Y0000863313D01*
X0000984837Y0000862484D01*
X0000984261Y0000861708D01*
X0000983613Y0000860993D01*
X0000982897Y0000860344D01*
X0000982121Y0000859769D01*
X0000981293Y0000859272D01*
X0000980420Y0000858859D01*
X0000979510Y0000858534D01*
X0000978573Y0000858299D01*
X0000977618Y0000858157D01*
X0000976653Y0000858110D01*
X0000809330Y0000858110D01*
X0000808365Y0000858157D01*
X0000807410Y0000858299D01*
X0000806473Y0000858534D01*
X0000805564Y0000858859D01*
X0000804690Y0000859272D01*
X0000803862Y0000859769D01*
X0000803086Y0000860344D01*
X0000802370Y0000860993D01*
X0000801722Y0000861708D01*
X0000801146Y0000862484D01*
X0000800650Y0000863313D01*
X0000800237Y0000864186D01*
X0000799911Y0000865095D01*
X0000799677Y0000866032D01*
X0000799535Y0000866988D01*
X0000799488Y0000867952D01*
X0000799488Y0000896496D01*
X0000799535Y0000897460D01*
X0000799677Y0000898416D01*
X0000799911Y0000899353D01*
X0000800237Y0000900262D01*
X0000800650Y0000901135D01*
X0000801146Y0000901964D01*
X0000801722Y0000902740D01*
X0000802370Y0000903455D01*
X0000803086Y0000904104D01*
X0000803862Y0000904679D01*
X0000804690Y0000905176D01*
X0000805564Y0000905589D01*
X0000806473Y0000905914D01*
X0000807410Y0000906149D01*
X0000808365Y0000906291D01*
X0000809330Y0000906338D01*
X0000976653Y0000906338D01*
X0000977618Y0000906291D01*
X0000977618Y0000906291D01*
G37*
D11*
X0000892992Y0000882224D03*
D10*
G36*
X0000977618Y0000783259D02*
G01*
X0000978573Y0000783117D01*
X0000979510Y0000782883D01*
X0000980420Y0000782557D01*
X0000981293Y0000782144D01*
X0000982121Y0000781648D01*
X0000982897Y0000781072D01*
X0000983613Y0000780424D01*
X0000984261Y0000779708D01*
X0000984837Y0000778932D01*
X0000985333Y0000778104D01*
X0000985746Y0000777231D01*
X0000986072Y0000776321D01*
X0000986306Y0000775384D01*
X0000986448Y0000774429D01*
X0000986496Y0000773464D01*
X0000986496Y0000744921D01*
X0000986448Y0000743956D01*
X0000986306Y0000743001D01*
X0000986072Y0000742064D01*
X0000985746Y0000741154D01*
X0000985333Y0000740281D01*
X0000984837Y0000739452D01*
X0000984261Y0000738677D01*
X0000983613Y0000737961D01*
X0000982897Y0000737312D01*
X0000982121Y0000736737D01*
X0000981293Y0000736240D01*
X0000980420Y0000735827D01*
X0000979510Y0000735502D01*
X0000978573Y0000735267D01*
X0000977618Y0000735126D01*
X0000976653Y0000735078D01*
X0000809330Y0000735078D01*
X0000808365Y0000735126D01*
X0000807410Y0000735267D01*
X0000806473Y0000735502D01*
X0000805564Y0000735827D01*
X0000804690Y0000736240D01*
X0000803862Y0000736737D01*
X0000803086Y0000737312D01*
X0000802370Y0000737961D01*
X0000801722Y0000738677D01*
X0000801146Y0000739452D01*
X0000800650Y0000740281D01*
X0000800237Y0000741154D01*
X0000799911Y0000742064D01*
X0000799677Y0000743001D01*
X0000799535Y0000743956D01*
X0000799488Y0000744921D01*
X0000799488Y0000773464D01*
X0000799535Y0000774429D01*
X0000799677Y0000775384D01*
X0000799911Y0000776321D01*
X0000800237Y0000777231D01*
X0000800650Y0000778104D01*
X0000801146Y0000778932D01*
X0000801722Y0000779708D01*
X0000802370Y0000780424D01*
X0000803086Y0000781072D01*
X0000803862Y0000781648D01*
X0000804690Y0000782144D01*
X0000805564Y0000782557D01*
X0000806473Y0000782883D01*
X0000807410Y0000783117D01*
X0000808365Y0000783259D01*
X0000809330Y0000783307D01*
X0000976653Y0000783307D01*
X0000977618Y0000783259D01*
X0000977618Y0000783259D01*
G37*
D11*
X0000892992Y0000759192D03*
G04 next file*
%LPD*%
G04 #@! TF.GenerationSoftware,KiCad,Pcbnew,(6.0.0-rc1-dev-1491-g0a4812be0)*
G04 #@! TF.CreationDate,2019-04-29T13:44:13+02:00
G04 #@! TF.ProjectId,mySensors_door_switch,6d795365-6e73-46f7-9273-5f646f6f725f,1.2*
G04 #@! TF.SameCoordinates,Original*
G04 #@! TF.FileFunction,Paste,Bot*
G04 #@! TF.FilePolarity,Positive*
G04 Gerber Fmt 4.6, Leading zero omitted, Abs format (unit mm)*
G04 Created by KiCad (PCBNEW (6.0.0-rc1-dev-1491-g0a4812be0)) date 2019-04-29 13:44:13*
G04 APERTURE LIST*
G04 APERTURE END LIST*
D22*
G36*
X0000977618Y0002835425D02*
G01*
X0000978573Y0002835283D01*
X0000979510Y0002835048D01*
X0000980420Y0002834723D01*
X0000981293Y0002834310D01*
X0000982121Y0002833813D01*
X0000982897Y0002833238D01*
X0000983613Y0002832589D01*
X0000984261Y0002831873D01*
X0000984837Y0002831098D01*
X0000985333Y0002830269D01*
X0000985746Y0002829396D01*
X0000986072Y0002828487D01*
X0000986306Y0002827550D01*
X0000986448Y0002826594D01*
X0000986496Y0002825629D01*
X0000986496Y0002797086D01*
X0000986448Y0002796121D01*
X0000986306Y0002795166D01*
X0000986072Y0002794229D01*
X0000985746Y0002793320D01*
X0000985333Y0002792446D01*
X0000984837Y0002791618D01*
X0000984261Y0002790842D01*
X0000983613Y0002790126D01*
X0000982897Y0002789478D01*
X0000982121Y0002788902D01*
X0000981293Y0002788406D01*
X0000980420Y0002787993D01*
X0000979510Y0002787667D01*
X0000978573Y0002787433D01*
X0000977618Y0002787291D01*
X0000976653Y0002787244D01*
X0000809330Y0002787244D01*
X0000808365Y0002787291D01*
X0000807410Y0002787433D01*
X0000806473Y0002787667D01*
X0000805564Y0002787993D01*
X0000804690Y0002788406D01*
X0000803862Y0002788902D01*
X0000803086Y0002789478D01*
X0000802370Y0002790126D01*
X0000801722Y0002790842D01*
X0000801146Y0002791618D01*
X0000800650Y0002792446D01*
X0000800237Y0002793320D01*
X0000799911Y0002794229D01*
X0000799677Y0002795166D01*
X0000799535Y0002796121D01*
X0000799488Y0002797086D01*
X0000799488Y0002825629D01*
X0000799535Y0002826594D01*
X0000799677Y0002827550D01*
X0000799911Y0002828487D01*
X0000800237Y0002829396D01*
X0000800650Y0002830269D01*
X0000801146Y0002831098D01*
X0000801722Y0002831873D01*
X0000802370Y0002832589D01*
X0000803086Y0002833238D01*
X0000803862Y0002833813D01*
X0000804690Y0002834310D01*
X0000805564Y0002834723D01*
X0000806473Y0002835048D01*
X0000807410Y0002835283D01*
X0000808365Y0002835425D01*
X0000809330Y0002835472D01*
X0000976653Y0002835472D01*
X0000977618Y0002835425D01*
X0000977618Y0002835425D01*
G37*
D23*
X0000892992Y0002811358D03*
D22*
G36*
X0000977618Y0002712393D02*
G01*
X0000978573Y0002712251D01*
X0000979510Y0002712017D01*
X0000980420Y0002711691D01*
X0000981293Y0002711278D01*
X0000982121Y0002710782D01*
X0000982897Y0002710206D01*
X0000983613Y0002709558D01*
X0000984261Y0002708842D01*
X0000984837Y0002708066D01*
X0000985333Y0002707238D01*
X0000985746Y0002706365D01*
X0000986072Y0002705455D01*
X0000986306Y0002704518D01*
X0000986448Y0002703563D01*
X0000986496Y0002702598D01*
X0000986496Y0002674055D01*
X0000986448Y0002673090D01*
X0000986306Y0002672134D01*
X0000986072Y0002671197D01*
X0000985746Y0002670288D01*
X0000985333Y0002669415D01*
X0000984837Y0002668586D01*
X0000984261Y0002667811D01*
X0000983613Y0002667095D01*
X0000982897Y0002666446D01*
X0000982121Y0002665871D01*
X0000981293Y0002665374D01*
X0000980420Y0002664961D01*
X0000979510Y0002664636D01*
X0000978573Y0002664401D01*
X0000977618Y0002664260D01*
X0000976653Y0002664212D01*
X0000809330Y0002664212D01*
X0000808365Y0002664260D01*
X0000807410Y0002664401D01*
X0000806473Y0002664636D01*
X0000805564Y0002664961D01*
X0000804690Y0002665374D01*
X0000803862Y0002665871D01*
X0000803086Y0002666446D01*
X0000802370Y0002667095D01*
X0000801722Y0002667811D01*
X0000801146Y0002668586D01*
X0000800650Y0002669415D01*
X0000800237Y0002670288D01*
X0000799911Y0002671197D01*
X0000799677Y0002672134D01*
X0000799535Y0002673090D01*
X0000799488Y0002674055D01*
X0000799488Y0002702598D01*
X0000799535Y0002703563D01*
X0000799677Y0002704518D01*
X0000799911Y0002705455D01*
X0000800237Y0002706365D01*
X0000800650Y0002707238D01*
X0000801146Y0002708066D01*
X0000801722Y0002708842D01*
X0000802370Y0002709558D01*
X0000803086Y0002710206D01*
X0000803862Y0002710782D01*
X0000804690Y0002711278D01*
X0000805564Y0002711691D01*
X0000806473Y0002712017D01*
X0000807410Y0002712251D01*
X0000808365Y0002712393D01*
X0000809330Y0002712440D01*
X0000976653Y0002712440D01*
X0000977618Y0002712393D01*
X0000977618Y0002712393D01*
G37*
D23*
X0000892992Y0002688326D03*
M02*