%
M48
METRIC,000.000
T01C0.80
T10C0.20
T11C0.50
T12C0.55
T13C0.60
T14C0.75
T15C0.76
T16C0.85
T17C0.90
T18C1.00
T19C1.02
T20C1.20
T21C1.30
T22C2.70
%
T01
X004940Y030711
X004940Y025712
X011760Y011448
X011760Y006622
X063829Y020828
X063829Y003728
X065828Y020828
X065828Y003728
X067830Y020828
X067830Y003728
X069829Y020828
X069829Y003728
X071830Y020828
X071830Y003728
X073829Y020828
X073829Y003728
X075828Y020828
X075828Y003728
X077830Y020828
X077830Y003728
X037667Y020592
X042547Y020592
X080594Y035283
X080594Y032784
X004940Y079711
X004940Y074712
X011760Y060448
X011760Y055622
X063829Y069828
X063829Y052728
X065828Y069828
X065828Y052728
X067830Y069828
X067830Y052728
X069829Y069828
X069829Y052728
X071830Y069828
X071830Y052728
X073829Y069828
X073829Y052728
X075828Y069828
X075828Y052728
X077830Y069828
X077830Y052728
X037667Y069592
X042547Y069592
X080594Y084283
X080594Y081784
T10
X014269Y028913
X014269Y027002
X015569Y028913
X015569Y027002
X016870Y028913
X016870Y027002
X014269Y077913
X014269Y076002
X015569Y077913
X015569Y076002
X016870Y077913
X016870Y076002
T11
X014490Y004082
X016585Y007384
X021338Y020985
X024460Y002050
X025059Y033225
X027000Y014750
X028968Y017734
X030937Y014877
X032714Y022370
X032714Y020465
X034084Y032784
X036905Y032784
X037604Y015702
X038163Y012723
X039699Y015766
X040235Y007973
X040335Y021100
X044282Y012664
X044744Y010665
X045033Y020782
X045493Y012524
X046293Y022370
X048417Y013233
X048681Y027450
X049224Y024275
X050494Y026180
X051129Y028720
X052654Y003955
X053225Y013289
X053225Y012083
X079839Y041928
X080431Y043360
X080431Y040495
X081864Y043952
X081864Y039903
X083296Y043360
X083296Y040495
X083888Y041928
X000962Y041999
X001554Y043431
X001554Y040569
X002986Y044026
X002986Y039974
X004419Y043431
X004419Y040569
X005011Y041999
X079961Y002999
X080555Y004432
X080555Y001567
X081985Y005024
X081985Y000975
X083418Y004432
X083418Y001567
X084012Y002999
X000962Y002999
X001554Y004432
X001554Y001567
X002986Y005024
X002986Y000975
X004419Y004432
X004419Y001567
X005011Y002999
X014490Y053082
X016585Y056384
X021338Y069985
X024460Y051050
X025059Y082225
X027000Y063750
X028968Y066734
X030937Y063877
X032714Y071370
X032714Y069465
X034084Y081784
X036905Y081784
X037604Y064702
X038163Y061723
X039699Y064766
X040235Y056973
X040335Y070100
X044282Y061664
X044744Y059665
X045033Y069782
X045493Y061524
X046293Y071370
X048417Y062233
X048681Y076450
X049224Y073275
X050494Y075180
X051129Y077720
X052654Y052955
X053225Y062289
X053225Y061083
X079839Y090928
X080431Y092360
X080431Y089495
X081864Y092952
X081864Y088903
X083296Y092360
X083296Y089495
X083888Y090928
X000962Y090999
X001554Y092431
X001554Y089569
X002986Y093026
X002986Y088974
X004419Y092431
X004419Y089569
X005011Y090999
X079961Y051999
X080555Y053432
X080555Y050567
X081985Y054024
X081985Y049975
X083418Y053432
X083418Y050567
X084012Y051999
X000962Y051999
X001554Y053432
X001554Y050567
X002986Y054024
X002986Y049975
X004419Y053432
X004419Y050567
X005011Y051999
T12
X002514Y032088
X001864Y032088
X002514Y024335
X001864Y024335
X002514Y081088
X001864Y081088
X002514Y073335
X001864Y073335
T13
X017474Y032362
X017474Y081362
T14
X045516Y034816
X053136Y034816
X045516Y083816
X053136Y083816
T15
X068793Y028920
X068793Y026380
X071333Y028920
X071333Y026380
X073873Y028920
X073873Y026380
X076413Y028920
X076413Y026380
X068793Y077920
X068793Y075380
X071333Y077920
X071333Y075380
X073873Y077920
X073873Y075380
X076413Y077920
X076413Y075380
T16
X006265Y031938
X005714Y031938
X006265Y024485
X005714Y024485
X006265Y080938
X005714Y080938
X006265Y073485
X005714Y073485
T17
X041226Y042382
X041226Y039842
X033222Y042382
X033222Y039842
X025224Y042382
X025224Y039842
X041226Y091382
X041226Y088842
X033222Y091382
X033222Y088842
X025224Y091382
X025224Y088842
T18
X006426Y017036
X006426Y014536
X065099Y040911
X067639Y040911
X065099Y036086
X067639Y036086
X058750Y016018
X058750Y013480
X058750Y010940
X058750Y008400
X058750Y005860
X058750Y003320
X048173Y041633
X052674Y041633
X006426Y066036
X006426Y063536
X065099Y089911
X067639Y089911
X065099Y085086
X067639Y085086
X058750Y065019
X058750Y062480
X058750Y059940
X058750Y057400
X058750Y054860
X058750Y052320
X048173Y090633
X052674Y090633
T19
X032842Y011701
X032842Y009162
X032842Y006622
X035382Y011701
X035382Y009162
X035382Y006622
X032842Y060702
X032842Y058162
X032842Y055622
X035382Y060702
X035382Y058162
X035382Y055622
T20
X081864Y025418
X081864Y074418
T21
X046923Y039134
X053923Y039134
X046923Y088134
X053923Y088134
T22
X081864Y041928
X002986Y041999
X081985Y002999
X002986Y002999
X081864Y090928
X002986Y090999
X081985Y051999
X002986Y051999
M30