%MOIN*%
%OFA0B0*%
%FSLAX46Y46*%
%IPPOS*%
%LPD*%
%ADD10C,0.0047244094488188976*%
%ADD11C,0.005905511811023622*%
%ADD22C,0.0047244094488188976*%
%ADD23C,0.005905511811023622*%
%LPD*%
D10*
X0000798110Y0000851301D02*
X0000798110Y0000790115D01*
X0000987874Y0000851301D02*
X0000987874Y0000790115D01*
D11*
X0000946681Y0000721638D02*
X0000924184Y0000721638D01*
X0000935433Y0000682268D02*
X0000935433Y0000721638D01*
X0000911061Y0000682268D02*
X0000911061Y0000721638D01*
X0000911061Y0000702890D02*
X0000888563Y0000702890D01*
X0000888563Y0000682268D02*
X0000888563Y0000721638D01*
X0000849193Y0000682268D02*
X0000871691Y0000682268D01*
X0000860442Y0000682268D02*
X0000860442Y0000721638D01*
X0000864191Y0000716014D01*
X0000867941Y0000712264D01*
X0000871691Y0000710389D01*
G04 next file*
%LPD*%
G04 #@! TF.GenerationSoftware,KiCad,Pcbnew,(6.0.0-rc1-dev-1491-g0a4812be0)*
G04 #@! TF.CreationDate,2019-04-29T13:44:13+02:00
G04 #@! TF.ProjectId,mySensors_door_switch,6d795365-6e73-46f7-9273-5f646f6f725f,1.2*
G04 #@! TF.SameCoordinates,Original*
G04 #@! TF.FileFunction,Legend,Bot*
G04 #@! TF.FilePolarity,Positive*
G04 Gerber Fmt 4.6, Leading zero omitted, Abs format (unit mm)*
G04 Created by KiCad (PCBNEW (6.0.0-rc1-dev-1491-g0a4812be0)) date 2019-04-29 13:44:13*
G04 APERTURE LIST*
G04 APERTURE END LIST*
D22*
X0000798110Y0002780435D02*
X0000798110Y0002719249D01*
X0000987874Y0002780435D02*
X0000987874Y0002719249D01*
D23*
X0000946681Y0002650772D02*
X0000924184Y0002650772D01*
X0000935433Y0002611402D02*
X0000935433Y0002650772D01*
X0000911061Y0002611402D02*
X0000911061Y0002650772D01*
X0000911061Y0002632024D02*
X0000888563Y0002632024D01*
X0000888563Y0002611402D02*
X0000888563Y0002650772D01*
X0000849193Y0002611402D02*
X0000871691Y0002611402D01*
X0000860442Y0002611402D02*
X0000860442Y0002650772D01*
X0000864191Y0002645148D01*
X0000867941Y0002641398D01*
X0000871691Y0002639523D01*
M02*