%
M48
METRIC,000.000
T01C0.50
%
T01
X015772Y045267
X014772Y045267
X013772Y045267
X012772Y045267
X011772Y045267
X010772Y045267
X009772Y045267
X008772Y045267
X007772Y045267
X006772Y045267
X005772Y045267
X005416Y048767
X006416Y048767
X007416Y048767
X008416Y048767
X009416Y048767
X010416Y048767
X011416Y048767
X012416Y048767
X013416Y048767
X014416Y048767
X015416Y048767
X016416Y048767
X077772Y045267
X076772Y045267
X075772Y045267
X074772Y045267
X073772Y045267
X072772Y045267
X071772Y045267
X070772Y045267
X069772Y045267
X068772Y045267
X067772Y045267
X067416Y048767
X068416Y048767
X069416Y048767
X070416Y048767
X071416Y048767
X072416Y048767
X073416Y048767
X074416Y048767
X075416Y048767
X076416Y048767
X077416Y048767
X078416Y048767
X050772Y045267
X049772Y045267
X048772Y045267
X047772Y045267
X046772Y045267
X045772Y045267
X044772Y045267
X044416Y048767
X045416Y048767
X046416Y048767
X047416Y048767
X048416Y048767
X049416Y048767
X050416Y048767
X051416Y048767
M30