G04 #@! TF.GenerationSoftware,KiCad,Pcbnew,(6.0.0-rc1-dev-1491-g0a4812be0)*
G04 #@! TF.CreationDate,2019-01-28T15:12:53+01:00
G04 #@! TF.ProjectId,mySensors_door_switch,6d795365-6e73-46f7-9273-5f646f6f725f,1.0*
G04 #@! TF.SameCoordinates,Original*
G04 #@! TF.FileFunction,Legend,Top*
G04 #@! TF.FilePolarity,Positive*
%FSLAX46Y46*%
G04 Gerber Fmt 4.6, Leading zero omitted, Abs format (unit mm)*
G04 Created by KiCad (PCBNEW (6.0.0-rc1-dev-1491-g0a4812be0)) date 2019-01-28 15:12:53*
%MOMM*%
%LPD*%
G04 APERTURE LIST*
%ADD10C,0.150000*%
%ADD11C,0.120000*%
%ADD12C,0.010000*%
%ADD13C,0.160000*%
G04 APERTURE END LIST*
D10*
X137666666Y-108285714D02*
X137904761Y-108952380D01*
X138142857Y-108285714D01*
X138523809Y-108857142D02*
X138571428Y-108904761D01*
X138523809Y-108952380D01*
X138476190Y-108904761D01*
X138523809Y-108857142D01*
X138523809Y-108952380D01*
X139523809Y-108952380D02*
X138952380Y-108952380D01*
X139238095Y-108952380D02*
X139238095Y-107952380D01*
X139142857Y-108095238D01*
X139047619Y-108190476D01*
X138952380Y-108238095D01*
X139952380Y-108857142D02*
X140000000Y-108904761D01*
X139952380Y-108952380D01*
X139904761Y-108904761D01*
X139952380Y-108857142D01*
X139952380Y-108952380D01*
X140619047Y-107952380D02*
X140714285Y-107952380D01*
X140809523Y-108000000D01*
X140857142Y-108047619D01*
X140904761Y-108142857D01*
X140952380Y-108333333D01*
X140952380Y-108571428D01*
X140904761Y-108761904D01*
X140857142Y-108857142D01*
X140809523Y-108904761D01*
X140714285Y-108952380D01*
X140619047Y-108952380D01*
X140523809Y-108904761D01*
X140476190Y-108857142D01*
X140428571Y-108761904D01*
X140380952Y-108571428D01*
X140380952Y-108333333D01*
X140428571Y-108142857D01*
X140476190Y-108047619D01*
X140523809Y-108000000D01*
X140619047Y-107952380D01*
X141428571Y-108904761D02*
X141428571Y-108952380D01*
X141380952Y-109047619D01*
X141333333Y-109095238D01*
X142571428Y-108047619D02*
X142619047Y-108000000D01*
X142714285Y-107952380D01*
X142952380Y-107952380D01*
X143047619Y-108000000D01*
X143095238Y-108047619D01*
X143142857Y-108142857D01*
X143142857Y-108238095D01*
X143095238Y-108380952D01*
X142523809Y-108952380D01*
X143142857Y-108952380D01*
X143761904Y-107952380D02*
X143857142Y-107952380D01*
X143952380Y-108000000D01*
X144000000Y-108047619D01*
X144047619Y-108142857D01*
X144095238Y-108333333D01*
X144095238Y-108571428D01*
X144047619Y-108761904D01*
X144000000Y-108857142D01*
X143952380Y-108904761D01*
X143857142Y-108952380D01*
X143761904Y-108952380D01*
X143666666Y-108904761D01*
X143619047Y-108857142D01*
X143571428Y-108761904D01*
X143523809Y-108571428D01*
X143523809Y-108333333D01*
X143571428Y-108142857D01*
X143619047Y-108047619D01*
X143666666Y-108000000D01*
X143761904Y-107952380D01*
X145047619Y-108952380D02*
X144476190Y-108952380D01*
X144761904Y-108952380D02*
X144761904Y-107952380D01*
X144666666Y-108095238D01*
X144571428Y-108190476D01*
X144476190Y-108238095D01*
X145523809Y-108952380D02*
X145714285Y-108952380D01*
X145809523Y-108904761D01*
X145857142Y-108857142D01*
X145952380Y-108714285D01*
X146000000Y-108523809D01*
X146000000Y-108142857D01*
X145952380Y-108047619D01*
X145904761Y-108000000D01*
X145809523Y-107952380D01*
X145619047Y-107952380D01*
X145523809Y-108000000D01*
X145476190Y-108047619D01*
X145428571Y-108142857D01*
X145428571Y-108380952D01*
X145476190Y-108476190D01*
X145523809Y-108523809D01*
X145619047Y-108571428D01*
X145809523Y-108571428D01*
X145904761Y-108523809D01*
X145952380Y-108476190D01*
X146000000Y-108380952D01*
X146428571Y-108571428D02*
X147190476Y-108571428D01*
X147857142Y-107952380D02*
X147952380Y-107952380D01*
X148047619Y-108000000D01*
X148095238Y-108047619D01*
X148142857Y-108142857D01*
X148190476Y-108333333D01*
X148190476Y-108571428D01*
X148142857Y-108761904D01*
X148095238Y-108857142D01*
X148047619Y-108904761D01*
X147952380Y-108952380D01*
X147857142Y-108952380D01*
X147761904Y-108904761D01*
X147714285Y-108857142D01*
X147666666Y-108761904D01*
X147619047Y-108571428D01*
X147619047Y-108333333D01*
X147666666Y-108142857D01*
X147714285Y-108047619D01*
X147761904Y-108000000D01*
X147857142Y-107952380D01*
X149142857Y-108952380D02*
X148571428Y-108952380D01*
X148857142Y-108952380D02*
X148857142Y-107952380D01*
X148761904Y-108095238D01*
X148666666Y-108190476D01*
X148571428Y-108238095D01*
X149571428Y-108571428D02*
X150333333Y-108571428D01*
X150761904Y-108047619D02*
X150809523Y-108000000D01*
X150904761Y-107952380D01*
X151142857Y-107952380D01*
X151238095Y-108000000D01*
X151285714Y-108047619D01*
X151333333Y-108142857D01*
X151333333Y-108238095D01*
X151285714Y-108380952D01*
X150714285Y-108952380D01*
X151333333Y-108952380D01*
X152190476Y-108285714D02*
X152190476Y-108952380D01*
X151952380Y-107904761D02*
X151714285Y-108619047D01*
X152333333Y-108619047D01*
X149285714Y-96452380D02*
X148714285Y-96452380D01*
X149000000Y-96452380D02*
X149000000Y-95452380D01*
X148904761Y-95595238D01*
X148809523Y-95690476D01*
X148714285Y-95738095D01*
X183285714Y-103333333D02*
X184095238Y-103333333D01*
X184190476Y-103380952D01*
X184238095Y-103428571D01*
X184285714Y-103523809D01*
X184285714Y-103666666D01*
X184238095Y-103761904D01*
X183904761Y-103333333D02*
X183952380Y-103428571D01*
X183952380Y-103619047D01*
X183904761Y-103714285D01*
X183857142Y-103761904D01*
X183761904Y-103809523D01*
X183476190Y-103809523D01*
X183380952Y-103761904D01*
X183333333Y-103714285D01*
X183285714Y-103619047D01*
X183285714Y-103428571D01*
X183333333Y-103333333D01*
X183952380Y-102857142D02*
X183285714Y-102857142D01*
X182952380Y-102857142D02*
X183000000Y-102904761D01*
X183047619Y-102857142D01*
X183000000Y-102809523D01*
X182952380Y-102857142D01*
X183047619Y-102857142D01*
X183285714Y-102523809D02*
X183285714Y-102142857D01*
X182952380Y-102380952D02*
X183809523Y-102380952D01*
X183904761Y-102333333D01*
X183952380Y-102238095D01*
X183952380Y-102142857D01*
X183952380Y-101809523D02*
X182952380Y-101809523D01*
X183952380Y-101380952D02*
X183428571Y-101380952D01*
X183333333Y-101428571D01*
X183285714Y-101523809D01*
X183285714Y-101666666D01*
X183333333Y-101761904D01*
X183380952Y-101809523D01*
X183285714Y-100476190D02*
X183952380Y-100476190D01*
X183285714Y-100904761D02*
X183809523Y-100904761D01*
X183904761Y-100857142D01*
X183952380Y-100761904D01*
X183952380Y-100619047D01*
X183904761Y-100523809D01*
X183857142Y-100476190D01*
X183952380Y-100000000D02*
X182952380Y-100000000D01*
X183333333Y-100000000D02*
X183285714Y-99904761D01*
X183285714Y-99714285D01*
X183333333Y-99619047D01*
X183380952Y-99571428D01*
X183476190Y-99523809D01*
X183761904Y-99523809D01*
X183857142Y-99571428D01*
X183904761Y-99619047D01*
X183952380Y-99714285D01*
X183952380Y-99904761D01*
X183904761Y-100000000D01*
X183857142Y-99095238D02*
X183904761Y-99047619D01*
X183952380Y-99095238D01*
X183904761Y-99142857D01*
X183857142Y-99095238D01*
X183952380Y-99095238D01*
X183904761Y-98190476D02*
X183952380Y-98285714D01*
X183952380Y-98476190D01*
X183904761Y-98571428D01*
X183857142Y-98619047D01*
X183761904Y-98666666D01*
X183476190Y-98666666D01*
X183380952Y-98619047D01*
X183333333Y-98571428D01*
X183285714Y-98476190D01*
X183285714Y-98285714D01*
X183333333Y-98190476D01*
X183952380Y-97619047D02*
X183904761Y-97714285D01*
X183857142Y-97761904D01*
X183761904Y-97809523D01*
X183476190Y-97809523D01*
X183380952Y-97761904D01*
X183333333Y-97714285D01*
X183285714Y-97619047D01*
X183285714Y-97476190D01*
X183333333Y-97380952D01*
X183380952Y-97333333D01*
X183476190Y-97285714D01*
X183761904Y-97285714D01*
X183857142Y-97333333D01*
X183904761Y-97380952D01*
X183952380Y-97476190D01*
X183952380Y-97619047D01*
X183952380Y-96857142D02*
X183285714Y-96857142D01*
X183380952Y-96857142D02*
X183333333Y-96809523D01*
X183285714Y-96714285D01*
X183285714Y-96571428D01*
X183333333Y-96476190D01*
X183428571Y-96428571D01*
X183952380Y-96428571D01*
X183428571Y-96428571D02*
X183333333Y-96380952D01*
X183285714Y-96285714D01*
X183285714Y-96142857D01*
X183333333Y-96047619D01*
X183428571Y-96000000D01*
X183952380Y-96000000D01*
X182904761Y-94809523D02*
X184190476Y-95666666D01*
X183285714Y-94047619D02*
X184095238Y-94047619D01*
X184190476Y-94095238D01*
X184238095Y-94142857D01*
X184285714Y-94238095D01*
X184285714Y-94380952D01*
X184238095Y-94476190D01*
X183904761Y-94047619D02*
X183952380Y-94142857D01*
X183952380Y-94333333D01*
X183904761Y-94428571D01*
X183857142Y-94476190D01*
X183761904Y-94523809D01*
X183476190Y-94523809D01*
X183380952Y-94476190D01*
X183333333Y-94428571D01*
X183285714Y-94333333D01*
X183285714Y-94142857D01*
X183333333Y-94047619D01*
X183904761Y-93619047D02*
X183952380Y-93523809D01*
X183952380Y-93333333D01*
X183904761Y-93238095D01*
X183809523Y-93190476D01*
X183761904Y-93190476D01*
X183666666Y-93238095D01*
X183619047Y-93333333D01*
X183619047Y-93476190D01*
X183571428Y-93571428D01*
X183476190Y-93619047D01*
X183428571Y-93619047D01*
X183333333Y-93571428D01*
X183285714Y-93476190D01*
X183285714Y-93333333D01*
X183333333Y-93238095D01*
X183952380Y-92333333D02*
X183428571Y-92333333D01*
X183333333Y-92380952D01*
X183285714Y-92476190D01*
X183285714Y-92666666D01*
X183333333Y-92761904D01*
X183904761Y-92333333D02*
X183952380Y-92428571D01*
X183952380Y-92666666D01*
X183904761Y-92761904D01*
X183809523Y-92809523D01*
X183714285Y-92809523D01*
X183619047Y-92761904D01*
X183571428Y-92666666D01*
X183571428Y-92428571D01*
X183523809Y-92333333D01*
X183285714Y-91857142D02*
X184285714Y-91857142D01*
X183333333Y-91857142D02*
X183285714Y-91761904D01*
X183285714Y-91571428D01*
X183333333Y-91476190D01*
X183380952Y-91428571D01*
X183476190Y-91380952D01*
X183761904Y-91380952D01*
X183857142Y-91428571D01*
X183904761Y-91476190D01*
X183952380Y-91571428D01*
X183952380Y-91761904D01*
X183904761Y-91857142D01*
X183952380Y-90952380D02*
X183285714Y-90952380D01*
X182952380Y-90952380D02*
X183000000Y-91000000D01*
X183047619Y-90952380D01*
X183000000Y-90904761D01*
X182952380Y-90952380D01*
X183047619Y-90952380D01*
X183285714Y-90476190D02*
X184142857Y-90476190D01*
X184238095Y-90523809D01*
X184285714Y-90619047D01*
X184285714Y-90666666D01*
X182952380Y-90476190D02*
X183000000Y-90523809D01*
X183047619Y-90476190D01*
X183000000Y-90428571D01*
X182952380Y-90476190D01*
X183047619Y-90476190D01*
X183952380Y-89571428D02*
X183428571Y-89571428D01*
X183333333Y-89619047D01*
X183285714Y-89714285D01*
X183285714Y-89904761D01*
X183333333Y-90000000D01*
X183904761Y-89571428D02*
X183952380Y-89666666D01*
X183952380Y-89904761D01*
X183904761Y-90000000D01*
X183809523Y-90047619D01*
X183714285Y-90047619D01*
X183619047Y-90000000D01*
X183571428Y-89904761D01*
X183571428Y-89666666D01*
X183523809Y-89571428D01*
X183904761Y-89142857D02*
X183952380Y-89047619D01*
X183952380Y-88857142D01*
X183904761Y-88761904D01*
X183809523Y-88714285D01*
X183761904Y-88714285D01*
X183666666Y-88761904D01*
X183619047Y-88857142D01*
X183619047Y-89000000D01*
X183571428Y-89095238D01*
X183476190Y-89142857D01*
X183428571Y-89142857D01*
X183333333Y-89095238D01*
X183285714Y-89000000D01*
X183285714Y-88857142D01*
X183333333Y-88761904D01*
X183285714Y-88380952D02*
X183285714Y-87857142D01*
X183952380Y-88380952D01*
X183952380Y-87857142D01*
X183952380Y-87476190D02*
X182952380Y-87476190D01*
X183571428Y-87380952D02*
X183952380Y-87095238D01*
X183285714Y-87095238D02*
X183666666Y-87476190D01*
X183952380Y-86523809D02*
X183904761Y-86619047D01*
X183857142Y-86666666D01*
X183761904Y-86714285D01*
X183476190Y-86714285D01*
X183380952Y-86666666D01*
X183333333Y-86619047D01*
X183285714Y-86523809D01*
X183285714Y-86380952D01*
X183333333Y-86285714D01*
X183380952Y-86238095D01*
X183476190Y-86190476D01*
X183761904Y-86190476D01*
X183857142Y-86238095D01*
X183904761Y-86285714D01*
X183952380Y-86380952D01*
X183952380Y-86523809D01*
X156413495Y-105216200D02*
X156318257Y-105168580D01*
X156175400Y-105168580D01*
X156032542Y-105216200D01*
X155937304Y-105311438D01*
X155889685Y-105406676D01*
X155842066Y-105597152D01*
X155842066Y-105740009D01*
X155889685Y-105930485D01*
X155937304Y-106025723D01*
X156032542Y-106120961D01*
X156175400Y-106168580D01*
X156270638Y-106168580D01*
X156413495Y-106120961D01*
X156461114Y-106073342D01*
X156461114Y-105740009D01*
X156270638Y-105740009D01*
X156889685Y-106168580D02*
X156889685Y-105168580D01*
X157461114Y-106168580D01*
X157461114Y-105168580D01*
X157937304Y-106168580D02*
X157937304Y-105168580D01*
X158175400Y-105168580D01*
X158318257Y-105216200D01*
X158413495Y-105311438D01*
X158461114Y-105406676D01*
X158508733Y-105597152D01*
X158508733Y-105740009D01*
X158461114Y-105930485D01*
X158413495Y-106025723D01*
X158318257Y-106120961D01*
X158175400Y-106168580D01*
X157937304Y-106168580D01*
X155603971Y-100707628D02*
X156365876Y-100707628D01*
X155984923Y-101088580D02*
X155984923Y-100326676D01*
X156746828Y-100088580D02*
X157365876Y-100088580D01*
X157032542Y-100469533D01*
X157175400Y-100469533D01*
X157270638Y-100517152D01*
X157318257Y-100564771D01*
X157365876Y-100660009D01*
X157365876Y-100898104D01*
X157318257Y-100993342D01*
X157270638Y-101040961D01*
X157175400Y-101088580D01*
X156889685Y-101088580D01*
X156794447Y-101040961D01*
X156746828Y-100993342D01*
X157794447Y-100993342D02*
X157842066Y-101040961D01*
X157794447Y-101088580D01*
X157746828Y-101040961D01*
X157794447Y-100993342D01*
X157794447Y-101088580D01*
X158175400Y-100088580D02*
X158794447Y-100088580D01*
X158461114Y-100469533D01*
X158603971Y-100469533D01*
X158699209Y-100517152D01*
X158746828Y-100564771D01*
X158794447Y-100660009D01*
X158794447Y-100898104D01*
X158746828Y-100993342D01*
X158699209Y-101040961D01*
X158603971Y-101088580D01*
X158318257Y-101088580D01*
X158223019Y-101040961D01*
X158175400Y-100993342D01*
X156413495Y-97548580D02*
X156984923Y-97548580D01*
X156699209Y-98548580D02*
X156699209Y-97548580D01*
X157223019Y-97548580D02*
X157889685Y-98548580D01*
X157889685Y-97548580D02*
X157223019Y-98548580D01*
X157008733Y-96008580D02*
X156675400Y-95532390D01*
X156437304Y-96008580D02*
X156437304Y-95008580D01*
X156818257Y-95008580D01*
X156913495Y-95056200D01*
X156961114Y-95103819D01*
X157008733Y-95199057D01*
X157008733Y-95341914D01*
X156961114Y-95437152D01*
X156913495Y-95484771D01*
X156818257Y-95532390D01*
X156437304Y-95532390D01*
X157342066Y-95008580D02*
X158008733Y-96008580D01*
X158008733Y-95008580D02*
X157342066Y-96008580D01*
X156032542Y-93468580D02*
X156032542Y-92468580D01*
X156270638Y-92468580D01*
X156413495Y-92516200D01*
X156508733Y-92611438D01*
X156556352Y-92706676D01*
X156603971Y-92897152D01*
X156603971Y-93040009D01*
X156556352Y-93230485D01*
X156508733Y-93325723D01*
X156413495Y-93420961D01*
X156270638Y-93468580D01*
X156032542Y-93468580D01*
X156889685Y-92468580D02*
X157461114Y-92468580D01*
X157175400Y-93468580D02*
X157175400Y-92468580D01*
X158365876Y-93468580D02*
X158032542Y-92992390D01*
X157794447Y-93468580D02*
X157794447Y-92468580D01*
X158175400Y-92468580D01*
X158270638Y-92516200D01*
X158318257Y-92563819D01*
X158365876Y-92659057D01*
X158365876Y-92801914D01*
X158318257Y-92897152D01*
X158270638Y-92944771D01*
X158175400Y-92992390D01*
X157794447Y-92992390D01*
D11*
X134421000Y-105367936D02*
X134421000Y-106572064D01*
X136241000Y-105367936D02*
X136241000Y-106572064D01*
X124822936Y-107134000D02*
X126027064Y-107134000D01*
X124822936Y-105314000D02*
X126027064Y-105314000D01*
X132696936Y-101038000D02*
X133901064Y-101038000D01*
X132696936Y-99218000D02*
X133901064Y-99218000D01*
X132950936Y-91640200D02*
X134155064Y-91640200D01*
X132950936Y-89820200D02*
X134155064Y-89820200D01*
X135387000Y-94288200D02*
X135387000Y-95748200D01*
X132227000Y-94288200D02*
X132227000Y-96448200D01*
X132227000Y-94288200D02*
X133157000Y-94288200D01*
X135387000Y-94288200D02*
X134457000Y-94288200D01*
X122575000Y-102666000D02*
X122575000Y-101206000D01*
X125735000Y-102666000D02*
X125735000Y-100506000D01*
X125735000Y-102666000D02*
X124805000Y-102666000D01*
X122575000Y-102666000D02*
X123505000Y-102666000D01*
X130103000Y-105621936D02*
X130103000Y-106826064D01*
X131923000Y-105621936D02*
X131923000Y-106826064D01*
X112565064Y-86518200D02*
X111360936Y-86518200D01*
X112565064Y-88338200D02*
X111360936Y-88338200D01*
X111360936Y-84274200D02*
X112565064Y-84274200D01*
X111360936Y-82454200D02*
X112565064Y-82454200D01*
X116629064Y-91090200D02*
X115424936Y-91090200D01*
X116629064Y-92910200D02*
X115424936Y-92910200D01*
X178818000Y-82128975D02*
X179318000Y-82128975D01*
X179068000Y-82378975D02*
X179068000Y-81878975D01*
X180259000Y-76973200D02*
X180827000Y-76973200D01*
X180025000Y-77013200D02*
X181061000Y-77013200D01*
X179866000Y-77053200D02*
X181220000Y-77053200D01*
X179738000Y-77093200D02*
X181348000Y-77093200D01*
X179628000Y-77133200D02*
X181458000Y-77133200D01*
X179532000Y-77173200D02*
X181554000Y-77173200D01*
X179445000Y-77213200D02*
X181641000Y-77213200D01*
X179365000Y-77253200D02*
X181721000Y-77253200D01*
X181583000Y-77293200D02*
X181794000Y-77293200D01*
X179292000Y-77293200D02*
X179503000Y-77293200D01*
X181583000Y-77333200D02*
X181862000Y-77333200D01*
X179224000Y-77333200D02*
X179503000Y-77333200D01*
X181583000Y-77373200D02*
X181926000Y-77373200D01*
X179160000Y-77373200D02*
X179503000Y-77373200D01*
X181583000Y-77413200D02*
X181986000Y-77413200D01*
X179100000Y-77413200D02*
X179503000Y-77413200D01*
X181583000Y-77453200D02*
X182043000Y-77453200D01*
X179043000Y-77453200D02*
X179503000Y-77453200D01*
X181583000Y-77493200D02*
X182097000Y-77493200D01*
X178989000Y-77493200D02*
X179503000Y-77493200D01*
X181583000Y-77533200D02*
X182148000Y-77533200D01*
X178938000Y-77533200D02*
X179503000Y-77533200D01*
X181583000Y-77573200D02*
X182196000Y-77573200D01*
X178890000Y-77573200D02*
X179503000Y-77573200D01*
X181583000Y-77613200D02*
X182242000Y-77613200D01*
X178844000Y-77613200D02*
X179503000Y-77613200D01*
X181583000Y-77653200D02*
X182286000Y-77653200D01*
X178800000Y-77653200D02*
X179503000Y-77653200D01*
X181583000Y-77693200D02*
X182328000Y-77693200D01*
X178758000Y-77693200D02*
X179503000Y-77693200D01*
X181583000Y-77733200D02*
X182369000Y-77733200D01*
X178717000Y-77733200D02*
X179503000Y-77733200D01*
X181583000Y-77773200D02*
X182407000Y-77773200D01*
X178679000Y-77773200D02*
X179503000Y-77773200D01*
X181583000Y-77813200D02*
X182444000Y-77813200D01*
X178642000Y-77813200D02*
X179503000Y-77813200D01*
X181583000Y-77853200D02*
X182480000Y-77853200D01*
X178606000Y-77853200D02*
X179503000Y-77853200D01*
X181583000Y-77893200D02*
X182514000Y-77893200D01*
X178572000Y-77893200D02*
X179503000Y-77893200D01*
X181583000Y-77933200D02*
X182547000Y-77933200D01*
X178539000Y-77933200D02*
X179503000Y-77933200D01*
X181583000Y-77973200D02*
X182578000Y-77973200D01*
X178508000Y-77973200D02*
X179503000Y-77973200D01*
X181583000Y-78013200D02*
X182608000Y-78013200D01*
X178478000Y-78013200D02*
X179503000Y-78013200D01*
X181583000Y-78053200D02*
X182638000Y-78053200D01*
X178448000Y-78053200D02*
X179503000Y-78053200D01*
X181583000Y-78093200D02*
X182665000Y-78093200D01*
X178421000Y-78093200D02*
X179503000Y-78093200D01*
X181583000Y-78133200D02*
X182692000Y-78133200D01*
X178394000Y-78133200D02*
X179503000Y-78133200D01*
X181583000Y-78173200D02*
X182718000Y-78173200D01*
X178368000Y-78173200D02*
X179503000Y-78173200D01*
X181583000Y-78213200D02*
X182743000Y-78213200D01*
X178343000Y-78213200D02*
X179503000Y-78213200D01*
X181583000Y-78253200D02*
X182767000Y-78253200D01*
X178319000Y-78253200D02*
X179503000Y-78253200D01*
X181583000Y-78293200D02*
X182790000Y-78293200D01*
X178296000Y-78293200D02*
X179503000Y-78293200D01*
X181583000Y-78333200D02*
X182811000Y-78333200D01*
X178275000Y-78333200D02*
X179503000Y-78333200D01*
X181583000Y-78373200D02*
X182833000Y-78373200D01*
X178253000Y-78373200D02*
X179503000Y-78373200D01*
X181583000Y-78413200D02*
X182853000Y-78413200D01*
X178233000Y-78413200D02*
X179503000Y-78413200D01*
X181583000Y-78453200D02*
X182872000Y-78453200D01*
X178214000Y-78453200D02*
X179503000Y-78453200D01*
X181583000Y-78493200D02*
X182891000Y-78493200D01*
X178195000Y-78493200D02*
X179503000Y-78493200D01*
X181583000Y-78533200D02*
X182908000Y-78533200D01*
X178178000Y-78533200D02*
X179503000Y-78533200D01*
X181583000Y-78573200D02*
X182925000Y-78573200D01*
X178161000Y-78573200D02*
X179503000Y-78573200D01*
X181583000Y-78613200D02*
X182941000Y-78613200D01*
X178145000Y-78613200D02*
X179503000Y-78613200D01*
X181583000Y-78653200D02*
X182957000Y-78653200D01*
X178129000Y-78653200D02*
X179503000Y-78653200D01*
X181583000Y-78693200D02*
X182971000Y-78693200D01*
X178115000Y-78693200D02*
X179503000Y-78693200D01*
X181583000Y-78733200D02*
X182985000Y-78733200D01*
X178101000Y-78733200D02*
X179503000Y-78733200D01*
X181583000Y-78773200D02*
X182998000Y-78773200D01*
X178088000Y-78773200D02*
X179503000Y-78773200D01*
X181583000Y-78813200D02*
X183011000Y-78813200D01*
X178075000Y-78813200D02*
X179503000Y-78813200D01*
X181583000Y-78853200D02*
X183023000Y-78853200D01*
X178063000Y-78853200D02*
X179503000Y-78853200D01*
X181583000Y-78894200D02*
X183034000Y-78894200D01*
X178052000Y-78894200D02*
X179503000Y-78894200D01*
X181583000Y-78934200D02*
X183044000Y-78934200D01*
X178042000Y-78934200D02*
X179503000Y-78934200D01*
X181583000Y-78974200D02*
X183054000Y-78974200D01*
X178032000Y-78974200D02*
X179503000Y-78974200D01*
X181583000Y-79014200D02*
X183063000Y-79014200D01*
X178023000Y-79014200D02*
X179503000Y-79014200D01*
X181583000Y-79054200D02*
X183071000Y-79054200D01*
X178015000Y-79054200D02*
X179503000Y-79054200D01*
X181583000Y-79094200D02*
X183079000Y-79094200D01*
X178007000Y-79094200D02*
X179503000Y-79094200D01*
X181583000Y-79134200D02*
X183086000Y-79134200D01*
X178000000Y-79134200D02*
X179503000Y-79134200D01*
X181583000Y-79174200D02*
X183093000Y-79174200D01*
X177993000Y-79174200D02*
X179503000Y-79174200D01*
X181583000Y-79214200D02*
X183099000Y-79214200D01*
X177987000Y-79214200D02*
X179503000Y-79214200D01*
X181583000Y-79254200D02*
X183104000Y-79254200D01*
X177982000Y-79254200D02*
X179503000Y-79254200D01*
X181583000Y-79294200D02*
X183108000Y-79294200D01*
X177978000Y-79294200D02*
X179503000Y-79294200D01*
X181583000Y-79334200D02*
X183112000Y-79334200D01*
X177974000Y-79334200D02*
X179503000Y-79334200D01*
X177970000Y-79374200D02*
X183116000Y-79374200D01*
X177967000Y-79414200D02*
X183119000Y-79414200D01*
X177965000Y-79454200D02*
X183121000Y-79454200D01*
X177964000Y-79494200D02*
X183122000Y-79494200D01*
X177963000Y-79534200D02*
X183123000Y-79534200D01*
X177963000Y-79574200D02*
X183123000Y-79574200D01*
X183163000Y-79574200D02*
G75*
G03X183163000Y-79574200I-2620000J0D01*
G01*
X130673000Y-84242200D02*
X130673000Y-86692200D01*
X133893000Y-86042200D02*
X133893000Y-84242200D01*
X116937000Y-75838264D02*
X116937000Y-74634136D01*
X115117000Y-75838264D02*
X115117000Y-74634136D01*
X124769000Y-76920136D02*
X124769000Y-78124264D01*
X126589000Y-76920136D02*
X126589000Y-78124264D01*
X127309000Y-91398136D02*
X127309000Y-92602264D01*
X129129000Y-91398136D02*
X129129000Y-92602264D01*
X111549064Y-78390200D02*
X110344936Y-78390200D01*
X111549064Y-80210200D02*
X110344936Y-80210200D01*
D10*
X104637000Y-79976200D02*
X103237000Y-79976200D01*
X100837000Y-79976200D02*
X100687000Y-79976200D01*
X100687000Y-79976200D02*
X100687000Y-80276200D01*
X100687000Y-80276200D02*
X100237000Y-80276200D01*
X100237000Y-87976200D02*
X100687000Y-87976200D01*
X100687000Y-87976200D02*
X100687000Y-88276200D01*
X100687000Y-88276200D02*
X100837000Y-88276200D01*
X103237000Y-88276200D02*
X104637000Y-88276200D01*
X106812000Y-83051200D02*
X106812000Y-82326200D01*
X106812000Y-82326200D02*
X106387000Y-82326200D01*
X106387000Y-82326200D02*
X106387000Y-81326200D01*
X106387000Y-85926200D02*
X106387000Y-86926200D01*
D11*
X143350064Y-74274000D02*
X142145936Y-74274000D01*
X143350064Y-76094000D02*
X142145936Y-76094000D01*
X149954064Y-74274000D02*
X148749936Y-74274000D01*
X149954064Y-76094000D02*
X148749936Y-76094000D01*
X157066064Y-74274000D02*
X155861936Y-74274000D01*
X157066064Y-76094000D02*
X155861936Y-76094000D01*
X133405000Y-68284136D02*
X133405000Y-69488264D01*
X135225000Y-68284136D02*
X135225000Y-69488264D01*
X149446064Y-88244000D02*
X148241936Y-88244000D01*
X149446064Y-90064000D02*
X148241936Y-90064000D01*
X116850000Y-70584200D02*
X116850000Y-66524200D01*
X113680000Y-70584200D02*
X116850000Y-70584200D01*
X113680000Y-66524200D02*
X113680000Y-70584200D01*
X121422000Y-70584200D02*
X121422000Y-66524200D01*
X118252000Y-70584200D02*
X121422000Y-70584200D01*
X118252000Y-66524200D02*
X118252000Y-70584200D01*
X144874064Y-85196000D02*
X143669936Y-85196000D01*
X144874064Y-87016000D02*
X143669936Y-87016000D01*
X154591936Y-87016000D02*
X155796064Y-87016000D01*
X154591936Y-85196000D02*
X155796064Y-85196000D01*
X148241936Y-91800000D02*
X149446064Y-91800000D01*
X148241936Y-93620000D02*
X149446064Y-93620000D01*
X140556064Y-93620000D02*
X139351936Y-93620000D01*
X140556064Y-91800000D02*
X139351936Y-91800000D01*
X139351936Y-89810000D02*
X140556064Y-89810000D01*
X139351936Y-87990000D02*
X140556064Y-87990000D01*
X132897000Y-78124264D02*
X132897000Y-76920136D01*
X134717000Y-78124264D02*
X134717000Y-76920136D01*
X130653000Y-78124264D02*
X130653000Y-76920136D01*
X128833000Y-78124264D02*
X128833000Y-76920136D01*
X138842000Y-76338000D02*
X137002000Y-76338000D01*
X137002000Y-76338000D02*
X137002000Y-79618000D01*
X137002000Y-79618000D02*
X138842000Y-79618000D01*
X138842000Y-79618000D02*
X138842000Y-76338000D01*
X137922000Y-75158000D02*
X137922000Y-76338000D01*
X137922000Y-80798000D02*
X137922000Y-79618000D01*
X138842000Y-76914000D02*
X137002000Y-76914000D01*
X138842000Y-77034000D02*
X137002000Y-77034000D01*
X138842000Y-76794000D02*
X137002000Y-76794000D01*
X156467462Y-65896200D02*
G75*
G03X154922170Y-71446200I-462J-2990000D01*
G01*
X156466538Y-65896200D02*
G75*
G02X158011830Y-71446200I462J-2990000D01*
G01*
X158967000Y-68886200D02*
G75*
G03X158967000Y-68886200I-2500000J0D01*
G01*
X154922000Y-71446200D02*
X158012000Y-71446200D01*
X147048000Y-71446200D02*
X150138000Y-71446200D01*
X151093000Y-68886200D02*
G75*
G03X151093000Y-68886200I-2500000J0D01*
G01*
X148592538Y-65896200D02*
G75*
G02X150137830Y-71446200I462J-2990000D01*
G01*
X148593462Y-65896200D02*
G75*
G03X147048170Y-71446200I-462J-2990000D01*
G01*
X140465462Y-65896200D02*
G75*
G03X138920170Y-71446200I-462J-2990000D01*
G01*
X140464538Y-65896200D02*
G75*
G02X142009830Y-71446200I462J-2990000D01*
G01*
X142965000Y-68886200D02*
G75*
G03X142965000Y-68886200I-2500000J0D01*
G01*
X138920000Y-71446200D02*
X142010000Y-71446200D01*
X161985000Y-65989200D02*
X177765000Y-65989200D01*
X177765000Y-65989200D02*
X177765000Y-75339200D01*
X177765000Y-75339200D02*
X161985000Y-75339200D01*
X161985000Y-75339200D02*
X161985000Y-65989200D01*
X161735000Y-75589200D02*
X164275000Y-75589200D01*
X161735000Y-75589200D02*
X161735000Y-73049200D01*
X155511000Y-104446000D02*
X152851000Y-104446000D01*
X155511000Y-104446000D02*
X155511000Y-91686000D01*
X155511000Y-91686000D02*
X152851000Y-91686000D01*
X152851000Y-104446000D02*
X152851000Y-91686000D01*
X152851000Y-107046000D02*
X152851000Y-105716000D01*
X154181000Y-107046000D02*
X152851000Y-107046000D01*
D10*
X112178000Y-102567000D02*
X112178000Y-102667000D01*
X116828000Y-102567000D02*
X116828000Y-102767000D01*
X116828000Y-105817000D02*
X116828000Y-105617000D01*
X112178000Y-105817000D02*
X112178000Y-105617000D01*
X112178000Y-102567000D02*
X116828000Y-102567000D01*
X112178000Y-105817000D02*
X116828000Y-105817000D01*
X112178000Y-102667000D02*
X110828000Y-102667000D01*
D11*
X109333000Y-68726264D02*
X109333000Y-67522136D01*
X112053000Y-68726264D02*
X112053000Y-67522136D01*
X125011064Y-97990200D02*
X123806936Y-97990200D01*
X125011064Y-96170200D02*
X123806936Y-96170200D01*
X121001000Y-75838264D02*
X121001000Y-74634136D01*
X119181000Y-75838264D02*
X119181000Y-74634136D01*
X110025064Y-91090200D02*
X108820936Y-91090200D01*
X110025064Y-92910200D02*
X108820936Y-92910200D01*
X122028936Y-91090200D02*
X123233064Y-91090200D01*
X122028936Y-92910200D02*
X123233064Y-92910200D01*
X117710936Y-96170200D02*
X118915064Y-96170200D01*
X117710936Y-97990200D02*
X118915064Y-97990200D01*
X130401000Y-72498200D02*
X130401000Y-72148200D01*
X131291000Y-72498200D02*
X130401000Y-72498200D01*
X131291000Y-72198200D02*
X131291000Y-72498200D01*
X131291000Y-69558200D02*
X131291000Y-65708200D01*
X131291000Y-65708200D02*
X123551000Y-65708200D01*
X123551000Y-65708200D02*
X123551000Y-69558200D01*
X124931000Y-69948200D02*
X129911000Y-69948200D01*
X124441000Y-72498200D02*
X123551000Y-72498200D01*
X124441000Y-72498200D02*
X124441000Y-72148200D01*
X123551000Y-72198200D02*
X123551000Y-72498200D01*
X175143000Y-79554200D02*
X175143000Y-84888200D01*
X175143000Y-84888200D02*
X164475000Y-84888200D01*
X164475000Y-84888200D02*
X164475000Y-79554200D01*
X164475000Y-79554200D02*
X164475000Y-79554200D01*
X174635000Y-82094200D02*
X172349000Y-82094200D01*
X172349000Y-82094200D02*
X172349000Y-79808200D01*
X172349000Y-79808200D02*
X172349000Y-79808200D01*
X175719000Y-79224200D02*
X175719000Y-108424200D01*
X175719000Y-108424200D02*
X160269000Y-108424200D01*
X160269000Y-108424200D02*
X160269000Y-79224200D01*
X160269000Y-79224200D02*
X175719000Y-79224200D01*
X175719000Y-79224200D02*
X175719000Y-79224200D01*
X164475000Y-79554200D02*
X175143000Y-79554200D01*
X175143000Y-79554200D02*
X175143000Y-79554200D01*
D10*
X148659000Y-97213000D02*
X148434000Y-97213000D01*
X148659000Y-104463000D02*
X148334000Y-104463000D01*
X141409000Y-104463000D02*
X141734000Y-104463000D01*
X141409000Y-97213000D02*
X141734000Y-97213000D01*
X148659000Y-97213000D02*
X148659000Y-97538000D01*
X141409000Y-97213000D02*
X141409000Y-97538000D01*
X141409000Y-104463000D02*
X141409000Y-104138000D01*
X148659000Y-104463000D02*
X148659000Y-104138000D01*
X148434000Y-97213000D02*
X148434000Y-95788000D01*
D11*
X117277000Y-86560200D02*
X117277000Y-81160200D01*
X122397000Y-85060200D02*
X122397000Y-81160200D01*
X111085000Y-95470200D02*
X109285000Y-95470200D01*
X109285000Y-98690200D02*
X112235000Y-98690200D01*
X146052000Y-78247000D02*
X152452000Y-78247000D01*
X146052000Y-83297000D02*
X152452000Y-83297000D01*
X146052000Y-83297000D02*
G75*
G02X146052000Y-78247000I0J2525000D01*
G01*
X152452000Y-83297000D02*
G75*
G03X152452000Y-78247000I0J2525000D01*
G01*
D12*
G36*
X168474364Y-93100218D02*
G01*
X168531212Y-93401770D01*
X168950738Y-93574712D01*
X169202384Y-93403595D01*
X169272858Y-93355950D01*
X169336563Y-93313410D01*
X169390526Y-93277915D01*
X169431773Y-93251410D01*
X169457334Y-93235836D01*
X169464295Y-93232478D01*
X169476835Y-93241114D01*
X169503631Y-93264992D01*
X169541680Y-93301059D01*
X169587979Y-93346267D01*
X169639523Y-93397564D01*
X169693309Y-93451901D01*
X169746335Y-93506228D01*
X169795595Y-93557495D01*
X169838087Y-93602651D01*
X169870807Y-93638646D01*
X169890751Y-93662430D01*
X169895519Y-93670390D01*
X169888657Y-93685065D01*
X169869420Y-93717214D01*
X169839830Y-93763692D01*
X169801910Y-93821356D01*
X169757682Y-93887060D01*
X169732054Y-93924536D01*
X169685341Y-93992968D01*
X169643832Y-94054720D01*
X169609540Y-94106719D01*
X169584480Y-94145892D01*
X169570664Y-94169165D01*
X169568588Y-94174055D01*
X169573295Y-94187955D01*
X169586123Y-94220350D01*
X169605138Y-94266685D01*
X169628403Y-94322406D01*
X169653984Y-94382958D01*
X169679945Y-94443786D01*
X169704350Y-94500336D01*
X169725263Y-94548052D01*
X169740749Y-94582381D01*
X169748872Y-94598768D01*
X169749352Y-94599412D01*
X169762107Y-94602541D01*
X169796077Y-94609521D01*
X169847740Y-94619667D01*
X169913576Y-94632292D01*
X169990064Y-94646709D01*
X170034690Y-94655023D01*
X170116421Y-94670584D01*
X170190243Y-94685392D01*
X170252421Y-94698636D01*
X170299222Y-94709505D01*
X170326909Y-94717189D01*
X170332474Y-94719627D01*
X170337926Y-94736130D01*
X170342324Y-94773400D01*
X170345672Y-94827080D01*
X170347974Y-94892812D01*
X170349232Y-94966237D01*
X170349448Y-95042996D01*
X170348627Y-95118732D01*
X170346771Y-95189086D01*
X170343882Y-95249700D01*
X170339965Y-95296216D01*
X170335022Y-95324275D01*
X170332057Y-95330116D01*
X170314334Y-95337117D01*
X170276781Y-95347127D01*
X170224364Y-95358969D01*
X170162052Y-95371467D01*
X170140300Y-95375510D01*
X170035424Y-95394720D01*
X169952580Y-95410191D01*
X169889030Y-95422537D01*
X169842037Y-95432373D01*
X169808863Y-95440314D01*
X169786771Y-95446976D01*
X169773024Y-95452973D01*
X169764884Y-95458919D01*
X169763745Y-95460094D01*
X169752377Y-95479026D01*
X169735035Y-95515869D01*
X169713450Y-95566113D01*
X169689354Y-95625246D01*
X169664479Y-95688756D01*
X169640557Y-95752132D01*
X169619319Y-95810862D01*
X169602497Y-95860435D01*
X169591822Y-95896339D01*
X169589027Y-95914062D01*
X169589260Y-95914683D01*
X169598731Y-95929170D01*
X169620218Y-95961044D01*
X169651463Y-96006989D01*
X169690207Y-96063685D01*
X169734193Y-96127817D01*
X169746719Y-96146042D01*
X169791384Y-96212114D01*
X169830688Y-96272400D01*
X169862488Y-96323435D01*
X169884645Y-96361760D01*
X169895017Y-96383911D01*
X169895519Y-96386632D01*
X169886805Y-96400936D01*
X169862725Y-96429272D01*
X169826376Y-96468596D01*
X169780853Y-96515861D01*
X169729252Y-96568023D01*
X169674667Y-96622035D01*
X169620194Y-96674853D01*
X169568929Y-96723431D01*
X169523967Y-96764723D01*
X169488404Y-96795685D01*
X169465335Y-96813270D01*
X169458954Y-96816141D01*
X169444099Y-96809378D01*
X169413686Y-96791139D01*
X169372668Y-96764497D01*
X169341109Y-96743052D01*
X169283925Y-96703703D01*
X169216206Y-96657371D01*
X169148280Y-96611113D01*
X169111761Y-96586355D01*
X168988152Y-96502747D01*
X168884391Y-96558850D01*
X168837120Y-96583428D01*
X168796923Y-96602531D01*
X168769726Y-96613427D01*
X168762802Y-96614943D01*
X168754477Y-96603749D01*
X168738054Y-96572117D01*
X168714757Y-96522965D01*
X168685814Y-96459210D01*
X168652450Y-96383771D01*
X168615891Y-96299564D01*
X168577364Y-96209508D01*
X168538094Y-96116521D01*
X168499308Y-96023520D01*
X168462230Y-95933423D01*
X168428089Y-95849148D01*
X168398108Y-95773613D01*
X168373516Y-95709734D01*
X168355536Y-95660431D01*
X168345397Y-95628621D01*
X168343766Y-95617696D01*
X168356691Y-95603761D01*
X168384989Y-95581140D01*
X168422746Y-95554533D01*
X168425915Y-95552428D01*
X168523500Y-95474314D01*
X168602186Y-95383182D01*
X168661291Y-95281945D01*
X168700132Y-95173518D01*
X168718028Y-95060814D01*
X168714297Y-94946748D01*
X168688257Y-94834234D01*
X168639225Y-94726185D01*
X168624800Y-94702545D01*
X168549769Y-94607087D01*
X168461130Y-94530432D01*
X168361949Y-94472980D01*
X168255295Y-94435129D01*
X168144236Y-94417278D01*
X168031839Y-94419825D01*
X167921173Y-94443170D01*
X167815306Y-94487710D01*
X167717305Y-94553845D01*
X167686990Y-94580687D01*
X167609838Y-94664712D01*
X167553618Y-94753166D01*
X167515053Y-94852315D01*
X167493574Y-94950503D01*
X167488272Y-95060897D01*
X167505952Y-95171840D01*
X167544819Y-95279581D01*
X167603077Y-95380369D01*
X167678931Y-95470456D01*
X167770583Y-95546092D01*
X167782628Y-95554064D01*
X167820789Y-95580174D01*
X167849799Y-95602795D01*
X167863668Y-95617239D01*
X167863869Y-95617696D01*
X167860892Y-95633321D01*
X167849089Y-95668782D01*
X167829686Y-95721162D01*
X167803912Y-95787545D01*
X167772991Y-95865014D01*
X167738151Y-95950650D01*
X167700617Y-96041537D01*
X167661617Y-96134759D01*
X167622377Y-96227397D01*
X167584124Y-96316535D01*
X167548083Y-96399255D01*
X167515483Y-96472641D01*
X167487548Y-96533775D01*
X167465505Y-96579741D01*
X167450582Y-96607621D01*
X167444572Y-96614943D01*
X167426209Y-96609241D01*
X167391848Y-96593949D01*
X167347416Y-96571799D01*
X167322983Y-96558850D01*
X167219222Y-96502747D01*
X167095613Y-96586355D01*
X167032514Y-96629187D01*
X166963430Y-96676322D01*
X166898693Y-96720703D01*
X166866266Y-96743052D01*
X166820659Y-96773677D01*
X166782040Y-96797947D01*
X166755448Y-96812787D01*
X166746810Y-96815924D01*
X166734239Y-96807461D01*
X166706416Y-96783836D01*
X166666039Y-96747502D01*
X166615805Y-96700911D01*
X166558412Y-96646517D01*
X166522114Y-96611592D01*
X166458610Y-96549196D01*
X166403727Y-96493388D01*
X166359686Y-96446554D01*
X166328705Y-96411082D01*
X166313002Y-96389361D01*
X166311495Y-96384952D01*
X166318486Y-96368185D01*
X166337806Y-96334282D01*
X166367309Y-96286676D01*
X166404855Y-96228799D01*
X166448300Y-96164084D01*
X166460655Y-96146042D01*
X166505673Y-96080467D01*
X166546060Y-96021428D01*
X166579560Y-95972242D01*
X166603914Y-95936228D01*
X166616864Y-95916702D01*
X166618115Y-95914683D01*
X166616244Y-95899122D01*
X166606313Y-95864909D01*
X166590053Y-95816555D01*
X166569195Y-95758571D01*
X166545473Y-95695470D01*
X166520616Y-95631763D01*
X166496358Y-95571961D01*
X166474429Y-95520576D01*
X166456562Y-95482119D01*
X166444487Y-95461102D01*
X166443629Y-95460094D01*
X166436246Y-95454088D01*
X166423775Y-95448148D01*
X166403480Y-95441660D01*
X166372622Y-95434009D01*
X166328466Y-95424580D01*
X166268274Y-95412759D01*
X166189307Y-95397929D01*
X166088830Y-95379477D01*
X166067075Y-95375510D01*
X166002598Y-95363053D01*
X165946389Y-95350866D01*
X165903413Y-95340126D01*
X165878640Y-95332009D01*
X165875318Y-95330116D01*
X165869844Y-95313338D01*
X165865394Y-95275845D01*
X165861972Y-95221994D01*
X165859581Y-95156144D01*
X165858223Y-95082653D01*
X165857901Y-95005880D01*
X165858619Y-94930183D01*
X165860379Y-94859920D01*
X165863184Y-94799450D01*
X165867038Y-94753130D01*
X165871943Y-94725319D01*
X165874900Y-94719627D01*
X165891363Y-94713886D01*
X165928849Y-94704545D01*
X165983625Y-94692415D01*
X166051955Y-94678307D01*
X166130106Y-94663030D01*
X166172684Y-94655023D01*
X166253471Y-94639921D01*
X166325513Y-94626240D01*
X166385289Y-94614667D01*
X166429279Y-94605887D01*
X166453961Y-94600587D01*
X166458023Y-94599412D01*
X166464889Y-94586165D01*
X166479402Y-94554257D01*
X166499629Y-94508247D01*
X166523634Y-94452692D01*
X166549482Y-94392153D01*
X166575240Y-94331186D01*
X166598973Y-94274351D01*
X166618746Y-94226206D01*
X166632624Y-94191310D01*
X166638674Y-94174221D01*
X166638786Y-94173474D01*
X166631928Y-94159993D01*
X166612702Y-94128970D01*
X166583128Y-94083489D01*
X166545227Y-94026632D01*
X166501020Y-93961483D01*
X166475321Y-93924062D01*
X166428493Y-93855447D01*
X166386901Y-93793152D01*
X166352575Y-93740329D01*
X166327543Y-93700127D01*
X166313835Y-93675700D01*
X166311856Y-93670224D01*
X166320366Y-93657478D01*
X166343893Y-93630263D01*
X166379432Y-93591628D01*
X166423977Y-93544623D01*
X166474523Y-93492295D01*
X166528064Y-93437695D01*
X166581595Y-93383870D01*
X166632111Y-93333870D01*
X166676606Y-93290743D01*
X166712075Y-93257539D01*
X166735513Y-93237306D01*
X166743354Y-93232478D01*
X166756120Y-93239267D01*
X166786656Y-93258342D01*
X166831990Y-93287761D01*
X166889156Y-93325581D01*
X166955184Y-93369861D01*
X167004990Y-93403595D01*
X167256636Y-93574712D01*
X167466399Y-93488241D01*
X167676163Y-93401770D01*
X167733011Y-93100218D01*
X167789860Y-92798666D01*
X168417515Y-92798666D01*
X168474364Y-93100218D01*
X168474364Y-93100218D01*
G37*
X168474364Y-93100218D02*
X168531212Y-93401770D01*
X168950738Y-93574712D01*
X169202384Y-93403595D01*
X169272858Y-93355950D01*
X169336563Y-93313410D01*
X169390526Y-93277915D01*
X169431773Y-93251410D01*
X169457334Y-93235836D01*
X169464295Y-93232478D01*
X169476835Y-93241114D01*
X169503631Y-93264992D01*
X169541680Y-93301059D01*
X169587979Y-93346267D01*
X169639523Y-93397564D01*
X169693309Y-93451901D01*
X169746335Y-93506228D01*
X169795595Y-93557495D01*
X169838087Y-93602651D01*
X169870807Y-93638646D01*
X169890751Y-93662430D01*
X169895519Y-93670390D01*
X169888657Y-93685065D01*
X169869420Y-93717214D01*
X169839830Y-93763692D01*
X169801910Y-93821356D01*
X169757682Y-93887060D01*
X169732054Y-93924536D01*
X169685341Y-93992968D01*
X169643832Y-94054720D01*
X169609540Y-94106719D01*
X169584480Y-94145892D01*
X169570664Y-94169165D01*
X169568588Y-94174055D01*
X169573295Y-94187955D01*
X169586123Y-94220350D01*
X169605138Y-94266685D01*
X169628403Y-94322406D01*
X169653984Y-94382958D01*
X169679945Y-94443786D01*
X169704350Y-94500336D01*
X169725263Y-94548052D01*
X169740749Y-94582381D01*
X169748872Y-94598768D01*
X169749352Y-94599412D01*
X169762107Y-94602541D01*
X169796077Y-94609521D01*
X169847740Y-94619667D01*
X169913576Y-94632292D01*
X169990064Y-94646709D01*
X170034690Y-94655023D01*
X170116421Y-94670584D01*
X170190243Y-94685392D01*
X170252421Y-94698636D01*
X170299222Y-94709505D01*
X170326909Y-94717189D01*
X170332474Y-94719627D01*
X170337926Y-94736130D01*
X170342324Y-94773400D01*
X170345672Y-94827080D01*
X170347974Y-94892812D01*
X170349232Y-94966237D01*
X170349448Y-95042996D01*
X170348627Y-95118732D01*
X170346771Y-95189086D01*
X170343882Y-95249700D01*
X170339965Y-95296216D01*
X170335022Y-95324275D01*
X170332057Y-95330116D01*
X170314334Y-95337117D01*
X170276781Y-95347127D01*
X170224364Y-95358969D01*
X170162052Y-95371467D01*
X170140300Y-95375510D01*
X170035424Y-95394720D01*
X169952580Y-95410191D01*
X169889030Y-95422537D01*
X169842037Y-95432373D01*
X169808863Y-95440314D01*
X169786771Y-95446976D01*
X169773024Y-95452973D01*
X169764884Y-95458919D01*
X169763745Y-95460094D01*
X169752377Y-95479026D01*
X169735035Y-95515869D01*
X169713450Y-95566113D01*
X169689354Y-95625246D01*
X169664479Y-95688756D01*
X169640557Y-95752132D01*
X169619319Y-95810862D01*
X169602497Y-95860435D01*
X169591822Y-95896339D01*
X169589027Y-95914062D01*
X169589260Y-95914683D01*
X169598731Y-95929170D01*
X169620218Y-95961044D01*
X169651463Y-96006989D01*
X169690207Y-96063685D01*
X169734193Y-96127817D01*
X169746719Y-96146042D01*
X169791384Y-96212114D01*
X169830688Y-96272400D01*
X169862488Y-96323435D01*
X169884645Y-96361760D01*
X169895017Y-96383911D01*
X169895519Y-96386632D01*
X169886805Y-96400936D01*
X169862725Y-96429272D01*
X169826376Y-96468596D01*
X169780853Y-96515861D01*
X169729252Y-96568023D01*
X169674667Y-96622035D01*
X169620194Y-96674853D01*
X169568929Y-96723431D01*
X169523967Y-96764723D01*
X169488404Y-96795685D01*
X169465335Y-96813270D01*
X169458954Y-96816141D01*
X169444099Y-96809378D01*
X169413686Y-96791139D01*
X169372668Y-96764497D01*
X169341109Y-96743052D01*
X169283925Y-96703703D01*
X169216206Y-96657371D01*
X169148280Y-96611113D01*
X169111761Y-96586355D01*
X168988152Y-96502747D01*
X168884391Y-96558850D01*
X168837120Y-96583428D01*
X168796923Y-96602531D01*
X168769726Y-96613427D01*
X168762802Y-96614943D01*
X168754477Y-96603749D01*
X168738054Y-96572117D01*
X168714757Y-96522965D01*
X168685814Y-96459210D01*
X168652450Y-96383771D01*
X168615891Y-96299564D01*
X168577364Y-96209508D01*
X168538094Y-96116521D01*
X168499308Y-96023520D01*
X168462230Y-95933423D01*
X168428089Y-95849148D01*
X168398108Y-95773613D01*
X168373516Y-95709734D01*
X168355536Y-95660431D01*
X168345397Y-95628621D01*
X168343766Y-95617696D01*
X168356691Y-95603761D01*
X168384989Y-95581140D01*
X168422746Y-95554533D01*
X168425915Y-95552428D01*
X168523500Y-95474314D01*
X168602186Y-95383182D01*
X168661291Y-95281945D01*
X168700132Y-95173518D01*
X168718028Y-95060814D01*
X168714297Y-94946748D01*
X168688257Y-94834234D01*
X168639225Y-94726185D01*
X168624800Y-94702545D01*
X168549769Y-94607087D01*
X168461130Y-94530432D01*
X168361949Y-94472980D01*
X168255295Y-94435129D01*
X168144236Y-94417278D01*
X168031839Y-94419825D01*
X167921173Y-94443170D01*
X167815306Y-94487710D01*
X167717305Y-94553845D01*
X167686990Y-94580687D01*
X167609838Y-94664712D01*
X167553618Y-94753166D01*
X167515053Y-94852315D01*
X167493574Y-94950503D01*
X167488272Y-95060897D01*
X167505952Y-95171840D01*
X167544819Y-95279581D01*
X167603077Y-95380369D01*
X167678931Y-95470456D01*
X167770583Y-95546092D01*
X167782628Y-95554064D01*
X167820789Y-95580174D01*
X167849799Y-95602795D01*
X167863668Y-95617239D01*
X167863869Y-95617696D01*
X167860892Y-95633321D01*
X167849089Y-95668782D01*
X167829686Y-95721162D01*
X167803912Y-95787545D01*
X167772991Y-95865014D01*
X167738151Y-95950650D01*
X167700617Y-96041537D01*
X167661617Y-96134759D01*
X167622377Y-96227397D01*
X167584124Y-96316535D01*
X167548083Y-96399255D01*
X167515483Y-96472641D01*
X167487548Y-96533775D01*
X167465505Y-96579741D01*
X167450582Y-96607621D01*
X167444572Y-96614943D01*
X167426209Y-96609241D01*
X167391848Y-96593949D01*
X167347416Y-96571799D01*
X167322983Y-96558850D01*
X167219222Y-96502747D01*
X167095613Y-96586355D01*
X167032514Y-96629187D01*
X166963430Y-96676322D01*
X166898693Y-96720703D01*
X166866266Y-96743052D01*
X166820659Y-96773677D01*
X166782040Y-96797947D01*
X166755448Y-96812787D01*
X166746810Y-96815924D01*
X166734239Y-96807461D01*
X166706416Y-96783836D01*
X166666039Y-96747502D01*
X166615805Y-96700911D01*
X166558412Y-96646517D01*
X166522114Y-96611592D01*
X166458610Y-96549196D01*
X166403727Y-96493388D01*
X166359686Y-96446554D01*
X166328705Y-96411082D01*
X166313002Y-96389361D01*
X166311495Y-96384952D01*
X166318486Y-96368185D01*
X166337806Y-96334282D01*
X166367309Y-96286676D01*
X166404855Y-96228799D01*
X166448300Y-96164084D01*
X166460655Y-96146042D01*
X166505673Y-96080467D01*
X166546060Y-96021428D01*
X166579560Y-95972242D01*
X166603914Y-95936228D01*
X166616864Y-95916702D01*
X166618115Y-95914683D01*
X166616244Y-95899122D01*
X166606313Y-95864909D01*
X166590053Y-95816555D01*
X166569195Y-95758571D01*
X166545473Y-95695470D01*
X166520616Y-95631763D01*
X166496358Y-95571961D01*
X166474429Y-95520576D01*
X166456562Y-95482119D01*
X166444487Y-95461102D01*
X166443629Y-95460094D01*
X166436246Y-95454088D01*
X166423775Y-95448148D01*
X166403480Y-95441660D01*
X166372622Y-95434009D01*
X166328466Y-95424580D01*
X166268274Y-95412759D01*
X166189307Y-95397929D01*
X166088830Y-95379477D01*
X166067075Y-95375510D01*
X166002598Y-95363053D01*
X165946389Y-95350866D01*
X165903413Y-95340126D01*
X165878640Y-95332009D01*
X165875318Y-95330116D01*
X165869844Y-95313338D01*
X165865394Y-95275845D01*
X165861972Y-95221994D01*
X165859581Y-95156144D01*
X165858223Y-95082653D01*
X165857901Y-95005880D01*
X165858619Y-94930183D01*
X165860379Y-94859920D01*
X165863184Y-94799450D01*
X165867038Y-94753130D01*
X165871943Y-94725319D01*
X165874900Y-94719627D01*
X165891363Y-94713886D01*
X165928849Y-94704545D01*
X165983625Y-94692415D01*
X166051955Y-94678307D01*
X166130106Y-94663030D01*
X166172684Y-94655023D01*
X166253471Y-94639921D01*
X166325513Y-94626240D01*
X166385289Y-94614667D01*
X166429279Y-94605887D01*
X166453961Y-94600587D01*
X166458023Y-94599412D01*
X166464889Y-94586165D01*
X166479402Y-94554257D01*
X166499629Y-94508247D01*
X166523634Y-94452692D01*
X166549482Y-94392153D01*
X166575240Y-94331186D01*
X166598973Y-94274351D01*
X166618746Y-94226206D01*
X166632624Y-94191310D01*
X166638674Y-94174221D01*
X166638786Y-94173474D01*
X166631928Y-94159993D01*
X166612702Y-94128970D01*
X166583128Y-94083489D01*
X166545227Y-94026632D01*
X166501020Y-93961483D01*
X166475321Y-93924062D01*
X166428493Y-93855447D01*
X166386901Y-93793152D01*
X166352575Y-93740329D01*
X166327543Y-93700127D01*
X166313835Y-93675700D01*
X166311856Y-93670224D01*
X166320366Y-93657478D01*
X166343893Y-93630263D01*
X166379432Y-93591628D01*
X166423977Y-93544623D01*
X166474523Y-93492295D01*
X166528064Y-93437695D01*
X166581595Y-93383870D01*
X166632111Y-93333870D01*
X166676606Y-93290743D01*
X166712075Y-93257539D01*
X166735513Y-93237306D01*
X166743354Y-93232478D01*
X166756120Y-93239267D01*
X166786656Y-93258342D01*
X166831990Y-93287761D01*
X166889156Y-93325581D01*
X166955184Y-93369861D01*
X167004990Y-93403595D01*
X167256636Y-93574712D01*
X167466399Y-93488241D01*
X167676163Y-93401770D01*
X167733011Y-93100218D01*
X167789860Y-92798666D01*
X168417515Y-92798666D01*
X168474364Y-93100218D01*
G36*
X169896860Y-97268230D02*
G01*
X169940111Y-97281445D01*
X169967958Y-97298141D01*
X169977029Y-97311345D01*
X169974532Y-97326997D01*
X169958331Y-97351585D01*
X169944632Y-97369000D01*
X169916392Y-97400483D01*
X169895175Y-97413729D01*
X169877088Y-97412864D01*
X169823435Y-97399210D01*
X169784030Y-97399830D01*
X169752032Y-97415304D01*
X169741290Y-97424361D01*
X169706905Y-97456227D01*
X169706905Y-97872379D01*
X169568588Y-97872379D01*
X169568588Y-97268814D01*
X169637747Y-97268814D01*
X169679269Y-97270456D01*
X169700691Y-97276287D01*
X169706902Y-97287661D01*
X169706905Y-97287998D01*
X169709839Y-97299913D01*
X169723104Y-97298359D01*
X169741484Y-97289763D01*
X169779446Y-97273768D01*
X169810272Y-97264145D01*
X169849936Y-97261678D01*
X169896860Y-97268230D01*
X169896860Y-97268230D01*
G37*
X169896860Y-97268230D02*
X169940111Y-97281445D01*
X169967958Y-97298141D01*
X169977029Y-97311345D01*
X169974532Y-97326997D01*
X169958331Y-97351585D01*
X169944632Y-97369000D01*
X169916392Y-97400483D01*
X169895175Y-97413729D01*
X169877088Y-97412864D01*
X169823435Y-97399210D01*
X169784030Y-97399830D01*
X169752032Y-97415304D01*
X169741290Y-97424361D01*
X169706905Y-97456227D01*
X169706905Y-97872379D01*
X169568588Y-97872379D01*
X169568588Y-97268814D01*
X169637747Y-97268814D01*
X169679269Y-97270456D01*
X169700691Y-97276287D01*
X169706902Y-97287661D01*
X169706905Y-97287998D01*
X169709839Y-97299913D01*
X169723104Y-97298359D01*
X169741484Y-97289763D01*
X169779446Y-97273768D01*
X169810272Y-97264145D01*
X169849936Y-97261678D01*
X169896860Y-97268230D01*
G36*
X167343388Y-97279202D02*
G01*
X167374683Y-97294150D01*
X167404991Y-97315741D01*
X167428082Y-97340591D01*
X167444900Y-97372287D01*
X167456394Y-97414414D01*
X167463509Y-97470558D01*
X167467193Y-97544306D01*
X167468392Y-97639244D01*
X167468411Y-97649185D01*
X167468687Y-97872379D01*
X167330370Y-97872379D01*
X167330370Y-97666618D01*
X167330272Y-97590389D01*
X167329591Y-97535139D01*
X167327749Y-97496701D01*
X167324167Y-97470906D01*
X167318268Y-97453584D01*
X167309473Y-97440568D01*
X167297220Y-97427707D01*
X167254353Y-97400073D01*
X167207557Y-97394945D01*
X167162976Y-97412417D01*
X167147472Y-97425421D01*
X167136090Y-97437647D01*
X167127919Y-97450740D01*
X167122426Y-97468815D01*
X167119080Y-97495987D01*
X167117349Y-97536370D01*
X167116703Y-97594079D01*
X167116608Y-97664332D01*
X167116608Y-97872379D01*
X166978291Y-97872379D01*
X166978291Y-97268814D01*
X167047450Y-97268814D01*
X167088972Y-97270456D01*
X167110394Y-97276287D01*
X167116605Y-97287661D01*
X167116608Y-97287998D01*
X167119490Y-97299138D01*
X167132201Y-97297874D01*
X167157474Y-97285634D01*
X167214795Y-97267624D01*
X167280363Y-97265621D01*
X167343388Y-97279202D01*
X167343388Y-97279202D01*
G37*
X167343388Y-97279202D02*
X167374683Y-97294150D01*
X167404991Y-97315741D01*
X167428082Y-97340591D01*
X167444900Y-97372287D01*
X167456394Y-97414414D01*
X167463509Y-97470558D01*
X167467193Y-97544306D01*
X167468392Y-97639244D01*
X167468411Y-97649185D01*
X167468687Y-97872379D01*
X167330370Y-97872379D01*
X167330370Y-97666618D01*
X167330272Y-97590389D01*
X167329591Y-97535139D01*
X167327749Y-97496701D01*
X167324167Y-97470906D01*
X167318268Y-97453584D01*
X167309473Y-97440568D01*
X167297220Y-97427707D01*
X167254353Y-97400073D01*
X167207557Y-97394945D01*
X167162976Y-97412417D01*
X167147472Y-97425421D01*
X167136090Y-97437647D01*
X167127919Y-97450740D01*
X167122426Y-97468815D01*
X167119080Y-97495987D01*
X167117349Y-97536370D01*
X167116703Y-97594079D01*
X167116608Y-97664332D01*
X167116608Y-97872379D01*
X166978291Y-97872379D01*
X166978291Y-97268814D01*
X167047450Y-97268814D01*
X167088972Y-97270456D01*
X167110394Y-97276287D01*
X167116605Y-97287661D01*
X167116608Y-97287998D01*
X167119490Y-97299138D01*
X167132201Y-97297874D01*
X167157474Y-97285634D01*
X167214795Y-97267624D01*
X167280363Y-97265621D01*
X167343388Y-97279202D01*
G36*
X170775298Y-97266657D02*
G01*
X170807496Y-97274479D01*
X170869225Y-97303121D01*
X170922010Y-97346867D01*
X170958541Y-97399317D01*
X170963560Y-97411093D01*
X170970445Y-97441940D01*
X170975264Y-97487571D01*
X170976905Y-97533692D01*
X170976905Y-97620893D01*
X170794578Y-97620893D01*
X170719379Y-97621178D01*
X170666403Y-97622904D01*
X170632725Y-97627381D01*
X170615420Y-97635920D01*
X170611563Y-97649830D01*
X170618229Y-97670422D01*
X170630170Y-97694515D01*
X170663480Y-97734725D01*
X170709768Y-97754758D01*
X170766344Y-97754105D01*
X170830431Y-97732301D01*
X170885817Y-97705393D01*
X170931775Y-97741732D01*
X170977733Y-97778072D01*
X170934496Y-97818019D01*
X170876774Y-97855763D01*
X170805786Y-97878520D01*
X170729429Y-97884888D01*
X170655599Y-97873468D01*
X170643687Y-97869593D01*
X170578799Y-97835706D01*
X170530530Y-97785186D01*
X170497865Y-97716525D01*
X170479785Y-97628214D01*
X170479575Y-97626321D01*
X170477956Y-97530078D01*
X170484500Y-97495742D01*
X170612252Y-97495742D01*
X170623984Y-97501022D01*
X170655838Y-97505067D01*
X170702797Y-97507376D01*
X170732554Y-97507725D01*
X170788048Y-97507506D01*
X170822746Y-97506116D01*
X170841001Y-97502451D01*
X170847166Y-97495410D01*
X170845595Y-97483890D01*
X170844278Y-97479433D01*
X170821782Y-97437555D01*
X170786403Y-97403804D01*
X170755180Y-97388973D01*
X170713701Y-97389868D01*
X170671669Y-97408364D01*
X170636412Y-97438986D01*
X170615254Y-97476262D01*
X170612252Y-97495742D01*
X170484500Y-97495742D01*
X170494090Y-97445429D01*
X170526098Y-97374391D01*
X170572101Y-97318979D01*
X170630221Y-97281209D01*
X170698580Y-97263096D01*
X170775298Y-97266657D01*
X170775298Y-97266657D01*
G37*
X170775298Y-97266657D02*
X170807496Y-97274479D01*
X170869225Y-97303121D01*
X170922010Y-97346867D01*
X170958541Y-97399317D01*
X170963560Y-97411093D01*
X170970445Y-97441940D01*
X170975264Y-97487571D01*
X170976905Y-97533692D01*
X170976905Y-97620893D01*
X170794578Y-97620893D01*
X170719379Y-97621178D01*
X170666403Y-97622904D01*
X170632725Y-97627381D01*
X170615420Y-97635920D01*
X170611563Y-97649830D01*
X170618229Y-97670422D01*
X170630170Y-97694515D01*
X170663480Y-97734725D01*
X170709768Y-97754758D01*
X170766344Y-97754105D01*
X170830431Y-97732301D01*
X170885817Y-97705393D01*
X170931775Y-97741732D01*
X170977733Y-97778072D01*
X170934496Y-97818019D01*
X170876774Y-97855763D01*
X170805786Y-97878520D01*
X170729429Y-97884888D01*
X170655599Y-97873468D01*
X170643687Y-97869593D01*
X170578799Y-97835706D01*
X170530530Y-97785186D01*
X170497865Y-97716525D01*
X170479785Y-97628214D01*
X170479575Y-97626321D01*
X170477956Y-97530078D01*
X170484500Y-97495742D01*
X170612252Y-97495742D01*
X170623984Y-97501022D01*
X170655838Y-97505067D01*
X170702797Y-97507376D01*
X170732554Y-97507725D01*
X170788048Y-97507506D01*
X170822746Y-97506116D01*
X170841001Y-97502451D01*
X170847166Y-97495410D01*
X170845595Y-97483890D01*
X170844278Y-97479433D01*
X170821782Y-97437555D01*
X170786403Y-97403804D01*
X170755180Y-97388973D01*
X170713701Y-97389868D01*
X170671669Y-97408364D01*
X170636412Y-97438986D01*
X170615254Y-97476262D01*
X170612252Y-97495742D01*
X170484500Y-97495742D01*
X170494090Y-97445429D01*
X170526098Y-97374391D01*
X170572101Y-97318979D01*
X170630221Y-97281209D01*
X170698580Y-97263096D01*
X170775298Y-97266657D01*
G36*
X170314626Y-97274080D02*
G01*
X170387480Y-97305030D01*
X170410427Y-97320095D01*
X170439754Y-97343248D01*
X170458164Y-97361453D01*
X170461361Y-97367383D01*
X170452335Y-97380540D01*
X170429237Y-97402867D01*
X170410744Y-97418450D01*
X170360128Y-97459126D01*
X170320160Y-97425495D01*
X170289274Y-97403784D01*
X170259159Y-97396290D01*
X170224692Y-97398120D01*
X170169961Y-97411728D01*
X170132286Y-97439972D01*
X170109391Y-97485633D01*
X170098997Y-97551489D01*
X170098995Y-97551531D01*
X170099894Y-97625139D01*
X170113863Y-97679146D01*
X170141728Y-97715916D01*
X170160725Y-97728368D01*
X170211176Y-97743873D01*
X170265063Y-97743883D01*
X170311946Y-97728838D01*
X170323044Y-97721487D01*
X170350876Y-97702711D01*
X170372636Y-97699634D01*
X170396104Y-97713609D01*
X170422049Y-97738710D01*
X170463116Y-97781080D01*
X170417521Y-97818664D01*
X170347074Y-97861082D01*
X170267633Y-97881985D01*
X170184615Y-97880472D01*
X170130094Y-97866611D01*
X170066370Y-97832335D01*
X170015405Y-97778412D01*
X169992251Y-97740349D01*
X169973499Y-97685736D01*
X169964115Y-97616569D01*
X169964043Y-97541607D01*
X169973224Y-97469609D01*
X169991599Y-97409337D01*
X169994493Y-97403158D01*
X170037352Y-97342551D01*
X170095379Y-97298424D01*
X170163991Y-97271693D01*
X170238601Y-97263273D01*
X170314626Y-97274080D01*
X170314626Y-97274080D01*
G37*
X170314626Y-97274080D02*
X170387480Y-97305030D01*
X170410427Y-97320095D01*
X170439754Y-97343248D01*
X170458164Y-97361453D01*
X170461361Y-97367383D01*
X170452335Y-97380540D01*
X170429237Y-97402867D01*
X170410744Y-97418450D01*
X170360128Y-97459126D01*
X170320160Y-97425495D01*
X170289274Y-97403784D01*
X170259159Y-97396290D01*
X170224692Y-97398120D01*
X170169961Y-97411728D01*
X170132286Y-97439972D01*
X170109391Y-97485633D01*
X170098997Y-97551489D01*
X170098995Y-97551531D01*
X170099894Y-97625139D01*
X170113863Y-97679146D01*
X170141728Y-97715916D01*
X170160725Y-97728368D01*
X170211176Y-97743873D01*
X170265063Y-97743883D01*
X170311946Y-97728838D01*
X170323044Y-97721487D01*
X170350876Y-97702711D01*
X170372636Y-97699634D01*
X170396104Y-97713609D01*
X170422049Y-97738710D01*
X170463116Y-97781080D01*
X170417521Y-97818664D01*
X170347074Y-97861082D01*
X170267633Y-97881985D01*
X170184615Y-97880472D01*
X170130094Y-97866611D01*
X170066370Y-97832335D01*
X170015405Y-97778412D01*
X169992251Y-97740349D01*
X169973499Y-97685736D01*
X169964115Y-97616569D01*
X169964043Y-97541607D01*
X169973224Y-97469609D01*
X169991599Y-97409337D01*
X169994493Y-97403158D01*
X170037352Y-97342551D01*
X170095379Y-97298424D01*
X170163991Y-97271693D01*
X170238601Y-97263273D01*
X170314626Y-97274080D01*
G36*
X169090767Y-97464542D02*
G01*
X169091955Y-97556763D01*
X169096297Y-97626810D01*
X169104958Y-97677581D01*
X169119104Y-97711972D01*
X169139900Y-97732879D01*
X169168510Y-97743200D01*
X169203935Y-97745836D01*
X169241036Y-97742882D01*
X169269218Y-97732089D01*
X169289643Y-97710560D01*
X169303479Y-97675399D01*
X169311891Y-97623710D01*
X169316043Y-97552594D01*
X169317103Y-97464542D01*
X169317103Y-97268814D01*
X169455420Y-97268814D01*
X169455420Y-97872379D01*
X169386262Y-97872379D01*
X169344570Y-97870689D01*
X169323101Y-97864756D01*
X169317103Y-97853493D01*
X169313491Y-97843461D01*
X169299114Y-97845583D01*
X169270136Y-97859780D01*
X169203719Y-97881680D01*
X169133275Y-97880128D01*
X169065777Y-97856347D01*
X169033633Y-97837562D01*
X169009115Y-97817222D01*
X168991204Y-97791773D01*
X168978879Y-97757658D01*
X168971123Y-97711321D01*
X168966916Y-97649207D01*
X168965240Y-97567761D01*
X168965024Y-97504778D01*
X168965024Y-97268814D01*
X169090767Y-97268814D01*
X169090767Y-97464542D01*
X169090767Y-97464542D01*
G37*
X169090767Y-97464542D02*
X169091955Y-97556763D01*
X169096297Y-97626810D01*
X169104958Y-97677581D01*
X169119104Y-97711972D01*
X169139900Y-97732879D01*
X169168510Y-97743200D01*
X169203935Y-97745836D01*
X169241036Y-97742882D01*
X169269218Y-97732089D01*
X169289643Y-97710560D01*
X169303479Y-97675399D01*
X169311891Y-97623710D01*
X169316043Y-97552594D01*
X169317103Y-97464542D01*
X169317103Y-97268814D01*
X169455420Y-97268814D01*
X169455420Y-97872379D01*
X169386262Y-97872379D01*
X169344570Y-97870689D01*
X169323101Y-97864756D01*
X169317103Y-97853493D01*
X169313491Y-97843461D01*
X169299114Y-97845583D01*
X169270136Y-97859780D01*
X169203719Y-97881680D01*
X169133275Y-97880128D01*
X169065777Y-97856347D01*
X169033633Y-97837562D01*
X169009115Y-97817222D01*
X168991204Y-97791773D01*
X168978879Y-97757658D01*
X168971123Y-97711321D01*
X168966916Y-97649207D01*
X168965240Y-97567761D01*
X168965024Y-97504778D01*
X168965024Y-97268814D01*
X169090767Y-97268814D01*
X169090767Y-97464542D01*
G36*
X168708162Y-97276255D02*
G01*
X168771763Y-97310892D01*
X168821523Y-97365572D01*
X168844968Y-97410042D01*
X168855034Y-97449321D01*
X168861556Y-97505316D01*
X168864351Y-97569821D01*
X168863236Y-97634629D01*
X168858026Y-97691534D01*
X168851941Y-97721927D01*
X168831414Y-97763506D01*
X168795863Y-97807668D01*
X168753019Y-97846287D01*
X168710611Y-97871234D01*
X168709577Y-97871630D01*
X168656953Y-97882531D01*
X168594588Y-97882801D01*
X168535324Y-97872876D01*
X168512440Y-97864922D01*
X168453502Y-97831500D01*
X168411290Y-97787711D01*
X168383556Y-97729738D01*
X168368051Y-97653765D01*
X168364543Y-97613971D01*
X168364990Y-97563966D01*
X168499776Y-97563966D01*
X168504317Y-97636932D01*
X168517386Y-97692534D01*
X168538156Y-97728061D01*
X168552952Y-97738220D01*
X168590864Y-97745304D01*
X168635927Y-97743207D01*
X168674887Y-97733012D01*
X168685104Y-97727404D01*
X168712059Y-97694738D01*
X168729851Y-97644745D01*
X168737424Y-97583905D01*
X168733725Y-97518697D01*
X168725457Y-97479453D01*
X168701720Y-97434005D01*
X168664249Y-97405596D01*
X168619120Y-97395773D01*
X168572411Y-97406087D01*
X168536532Y-97431312D01*
X168517677Y-97452125D01*
X168506672Y-97472639D01*
X168501426Y-97500403D01*
X168499849Y-97542962D01*
X168499776Y-97563966D01*
X168364990Y-97563966D01*
X168365494Y-97507780D01*
X168382788Y-97420701D01*
X168416429Y-97352730D01*
X168466418Y-97303864D01*
X168532756Y-97274099D01*
X168547001Y-97270648D01*
X168632610Y-97262545D01*
X168708162Y-97276255D01*
X168708162Y-97276255D01*
G37*
X168708162Y-97276255D02*
X168771763Y-97310892D01*
X168821523Y-97365572D01*
X168844968Y-97410042D01*
X168855034Y-97449321D01*
X168861556Y-97505316D01*
X168864351Y-97569821D01*
X168863236Y-97634629D01*
X168858026Y-97691534D01*
X168851941Y-97721927D01*
X168831414Y-97763506D01*
X168795863Y-97807668D01*
X168753019Y-97846287D01*
X168710611Y-97871234D01*
X168709577Y-97871630D01*
X168656953Y-97882531D01*
X168594588Y-97882801D01*
X168535324Y-97872876D01*
X168512440Y-97864922D01*
X168453502Y-97831500D01*
X168411290Y-97787711D01*
X168383556Y-97729738D01*
X168368051Y-97653765D01*
X168364543Y-97613971D01*
X168364990Y-97563966D01*
X168499776Y-97563966D01*
X168504317Y-97636932D01*
X168517386Y-97692534D01*
X168538156Y-97728061D01*
X168552952Y-97738220D01*
X168590864Y-97745304D01*
X168635927Y-97743207D01*
X168674887Y-97733012D01*
X168685104Y-97727404D01*
X168712059Y-97694738D01*
X168729851Y-97644745D01*
X168737424Y-97583905D01*
X168733725Y-97518697D01*
X168725457Y-97479453D01*
X168701720Y-97434005D01*
X168664249Y-97405596D01*
X168619120Y-97395773D01*
X168572411Y-97406087D01*
X168536532Y-97431312D01*
X168517677Y-97452125D01*
X168506672Y-97472639D01*
X168501426Y-97500403D01*
X168499849Y-97542962D01*
X168499776Y-97563966D01*
X168364990Y-97563966D01*
X168365494Y-97507780D01*
X168382788Y-97420701D01*
X168416429Y-97352730D01*
X168466418Y-97303864D01*
X168532756Y-97274099D01*
X168547001Y-97270648D01*
X168632610Y-97262545D01*
X168708162Y-97276255D01*
G36*
X168111417Y-97266652D02*
G01*
X168159034Y-97275682D01*
X168208434Y-97294570D01*
X168213712Y-97296977D01*
X168251174Y-97316676D01*
X168277117Y-97334981D01*
X168285503Y-97346708D01*
X168277517Y-97365832D01*
X168258120Y-97394050D01*
X168249510Y-97404584D01*
X168214028Y-97446047D01*
X168168285Y-97419058D01*
X168124750Y-97401078D01*
X168074450Y-97391467D01*
X168026212Y-97390860D01*
X167988867Y-97399891D01*
X167979905Y-97405527D01*
X167962837Y-97431371D01*
X167960763Y-97461141D01*
X167973534Y-97484397D01*
X167981088Y-97488908D01*
X168003725Y-97494509D01*
X168043515Y-97501092D01*
X168092566Y-97507383D01*
X168101615Y-97508370D01*
X168180396Y-97521998D01*
X168237536Y-97545146D01*
X168275430Y-97579952D01*
X168296479Y-97628554D01*
X168303035Y-97687918D01*
X168293977Y-97755398D01*
X168264564Y-97808388D01*
X168214678Y-97846983D01*
X168144200Y-97871281D01*
X168065965Y-97880867D01*
X168002166Y-97880752D01*
X167950416Y-97872045D01*
X167915073Y-97860025D01*
X167870417Y-97839080D01*
X167829147Y-97814774D01*
X167814479Y-97804076D01*
X167776757Y-97773284D01*
X167822252Y-97727249D01*
X167867747Y-97681213D01*
X167919472Y-97715443D01*
X167971352Y-97741152D01*
X168026751Y-97754599D01*
X168080005Y-97756018D01*
X168125449Y-97745643D01*
X168157416Y-97723707D01*
X168167738Y-97705198D01*
X168166189Y-97675514D01*
X168140540Y-97652815D01*
X168090860Y-97637140D01*
X168036431Y-97629895D01*
X167952664Y-97616073D01*
X167890433Y-97589996D01*
X167848907Y-97550899D01*
X167827253Y-97498020D01*
X167824253Y-97435326D01*
X167839071Y-97369842D01*
X167872854Y-97320344D01*
X167925905Y-97286608D01*
X167998526Y-97268407D01*
X168052328Y-97264839D01*
X168111417Y-97266652D01*
X168111417Y-97266652D01*
G37*
X168111417Y-97266652D02*
X168159034Y-97275682D01*
X168208434Y-97294570D01*
X168213712Y-97296977D01*
X168251174Y-97316676D01*
X168277117Y-97334981D01*
X168285503Y-97346708D01*
X168277517Y-97365832D01*
X168258120Y-97394050D01*
X168249510Y-97404584D01*
X168214028Y-97446047D01*
X168168285Y-97419058D01*
X168124750Y-97401078D01*
X168074450Y-97391467D01*
X168026212Y-97390860D01*
X167988867Y-97399891D01*
X167979905Y-97405527D01*
X167962837Y-97431371D01*
X167960763Y-97461141D01*
X167973534Y-97484397D01*
X167981088Y-97488908D01*
X168003725Y-97494509D01*
X168043515Y-97501092D01*
X168092566Y-97507383D01*
X168101615Y-97508370D01*
X168180396Y-97521998D01*
X168237536Y-97545146D01*
X168275430Y-97579952D01*
X168296479Y-97628554D01*
X168303035Y-97687918D01*
X168293977Y-97755398D01*
X168264564Y-97808388D01*
X168214678Y-97846983D01*
X168144200Y-97871281D01*
X168065965Y-97880867D01*
X168002166Y-97880752D01*
X167950416Y-97872045D01*
X167915073Y-97860025D01*
X167870417Y-97839080D01*
X167829147Y-97814774D01*
X167814479Y-97804076D01*
X167776757Y-97773284D01*
X167822252Y-97727249D01*
X167867747Y-97681213D01*
X167919472Y-97715443D01*
X167971352Y-97741152D01*
X168026751Y-97754599D01*
X168080005Y-97756018D01*
X168125449Y-97745643D01*
X168157416Y-97723707D01*
X168167738Y-97705198D01*
X168166189Y-97675514D01*
X168140540Y-97652815D01*
X168090860Y-97637140D01*
X168036431Y-97629895D01*
X167952664Y-97616073D01*
X167890433Y-97589996D01*
X167848907Y-97550899D01*
X167827253Y-97498020D01*
X167824253Y-97435326D01*
X167839071Y-97369842D01*
X167872854Y-97320344D01*
X167925905Y-97286608D01*
X167998526Y-97268407D01*
X168052328Y-97264839D01*
X168111417Y-97266652D01*
G36*
X166740701Y-97282814D02*
G01*
X166753232Y-97288714D01*
X166796601Y-97320483D01*
X166837610Y-97366846D01*
X166868232Y-97417896D01*
X166876941Y-97441366D01*
X166884888Y-97483291D01*
X166889626Y-97533957D01*
X166890201Y-97554879D01*
X166890271Y-97620893D01*
X166510317Y-97620893D01*
X166518417Y-97655473D01*
X166538296Y-97696370D01*
X166573053Y-97731714D01*
X166614402Y-97754482D01*
X166640751Y-97759210D01*
X166676484Y-97753473D01*
X166719118Y-97739082D01*
X166733601Y-97732462D01*
X166787160Y-97705713D01*
X166832867Y-97740576D01*
X166859242Y-97764155D01*
X166873276Y-97783617D01*
X166873986Y-97789329D01*
X166861449Y-97803173D01*
X166833972Y-97824212D01*
X166809034Y-97840625D01*
X166741736Y-97870130D01*
X166666290Y-97883484D01*
X166591512Y-97880012D01*
X166531905Y-97861863D01*
X166470459Y-97822984D01*
X166426792Y-97771795D01*
X166399474Y-97705567D01*
X166387078Y-97621571D01*
X166385979Y-97583136D01*
X166390378Y-97495061D01*
X166390918Y-97492499D01*
X166516818Y-97492499D01*
X166520285Y-97500758D01*
X166534537Y-97505313D01*
X166563930Y-97507265D01*
X166612825Y-97507717D01*
X166631652Y-97507725D01*
X166688933Y-97507043D01*
X166725259Y-97504564D01*
X166744796Y-97499643D01*
X166751710Y-97491634D01*
X166751955Y-97489062D01*
X166744064Y-97468623D01*
X166724315Y-97439989D01*
X166715825Y-97429963D01*
X166684306Y-97401608D01*
X166651451Y-97390459D01*
X166633749Y-97389527D01*
X166585861Y-97401181D01*
X166545701Y-97432485D01*
X166520227Y-97477952D01*
X166519775Y-97479433D01*
X166516818Y-97492499D01*
X166390918Y-97492499D01*
X166405008Y-97425710D01*
X166431362Y-97370225D01*
X166463593Y-97330839D01*
X166523183Y-97288131D01*
X166593232Y-97265309D01*
X166667739Y-97263246D01*
X166740701Y-97282814D01*
X166740701Y-97282814D01*
G37*
X166740701Y-97282814D02*
X166753232Y-97288714D01*
X166796601Y-97320483D01*
X166837610Y-97366846D01*
X166868232Y-97417896D01*
X166876941Y-97441366D01*
X166884888Y-97483291D01*
X166889626Y-97533957D01*
X166890201Y-97554879D01*
X166890271Y-97620893D01*
X166510317Y-97620893D01*
X166518417Y-97655473D01*
X166538296Y-97696370D01*
X166573053Y-97731714D01*
X166614402Y-97754482D01*
X166640751Y-97759210D01*
X166676484Y-97753473D01*
X166719118Y-97739082D01*
X166733601Y-97732462D01*
X166787160Y-97705713D01*
X166832867Y-97740576D01*
X166859242Y-97764155D01*
X166873276Y-97783617D01*
X166873986Y-97789329D01*
X166861449Y-97803173D01*
X166833972Y-97824212D01*
X166809034Y-97840625D01*
X166741736Y-97870130D01*
X166666290Y-97883484D01*
X166591512Y-97880012D01*
X166531905Y-97861863D01*
X166470459Y-97822984D01*
X166426792Y-97771795D01*
X166399474Y-97705567D01*
X166387078Y-97621571D01*
X166385979Y-97583136D01*
X166390378Y-97495061D01*
X166390918Y-97492499D01*
X166516818Y-97492499D01*
X166520285Y-97500758D01*
X166534537Y-97505313D01*
X166563930Y-97507265D01*
X166612825Y-97507717D01*
X166631652Y-97507725D01*
X166688933Y-97507043D01*
X166725259Y-97504564D01*
X166744796Y-97499643D01*
X166751710Y-97491634D01*
X166751955Y-97489062D01*
X166744064Y-97468623D01*
X166724315Y-97439989D01*
X166715825Y-97429963D01*
X166684306Y-97401608D01*
X166651451Y-97390459D01*
X166633749Y-97389527D01*
X166585861Y-97401181D01*
X166545701Y-97432485D01*
X166520227Y-97477952D01*
X166519775Y-97479433D01*
X166516818Y-97492499D01*
X166390918Y-97492499D01*
X166405008Y-97425710D01*
X166431362Y-97370225D01*
X166463593Y-97330839D01*
X166523183Y-97288131D01*
X166593232Y-97265309D01*
X166667739Y-97263246D01*
X166740701Y-97282814D01*
G36*
X165559139Y-97275348D02*
G01*
X165624921Y-97304431D01*
X165674860Y-97352993D01*
X165709026Y-97421108D01*
X165727493Y-97508851D01*
X165728817Y-97522551D01*
X165729854Y-97619139D01*
X165716407Y-97703802D01*
X165689292Y-97772421D01*
X165674773Y-97794494D01*
X165624199Y-97841211D01*
X165559791Y-97871468D01*
X165487734Y-97884024D01*
X165414215Y-97877639D01*
X165358328Y-97857972D01*
X165310268Y-97824829D01*
X165270988Y-97781375D01*
X165270308Y-97780358D01*
X165254356Y-97753538D01*
X165243990Y-97726568D01*
X165237712Y-97692532D01*
X165234027Y-97644510D01*
X165232403Y-97605131D01*
X165231728Y-97569419D01*
X165357445Y-97569419D01*
X165358674Y-97604970D01*
X165363134Y-97652294D01*
X165371003Y-97682665D01*
X165385193Y-97704272D01*
X165398483Y-97716894D01*
X165445598Y-97743322D01*
X165494895Y-97746853D01*
X165540807Y-97727839D01*
X165563762Y-97706531D01*
X165580304Y-97685059D01*
X165589979Y-97664513D01*
X165594226Y-97637774D01*
X165594480Y-97597723D01*
X165593172Y-97560838D01*
X165590357Y-97508147D01*
X165585895Y-97473972D01*
X165577852Y-97451680D01*
X165564297Y-97434642D01*
X165553555Y-97424903D01*
X165508623Y-97399323D01*
X165460151Y-97398047D01*
X165419506Y-97413199D01*
X165384833Y-97444842D01*
X165364176Y-97496820D01*
X165357445Y-97569419D01*
X165231728Y-97569419D01*
X165230921Y-97526821D01*
X165233452Y-97468256D01*
X165241038Y-97424207D01*
X165254719Y-97389448D01*
X165275535Y-97358751D01*
X165283253Y-97349636D01*
X165331511Y-97304221D01*
X165383272Y-97277693D01*
X165446572Y-97266579D01*
X165477439Y-97265671D01*
X165559139Y-97275348D01*
X165559139Y-97275348D01*
G37*
X165559139Y-97275348D02*
X165624921Y-97304431D01*
X165674860Y-97352993D01*
X165709026Y-97421108D01*
X165727493Y-97508851D01*
X165728817Y-97522551D01*
X165729854Y-97619139D01*
X165716407Y-97703802D01*
X165689292Y-97772421D01*
X165674773Y-97794494D01*
X165624199Y-97841211D01*
X165559791Y-97871468D01*
X165487734Y-97884024D01*
X165414215Y-97877639D01*
X165358328Y-97857972D01*
X165310268Y-97824829D01*
X165270988Y-97781375D01*
X165270308Y-97780358D01*
X165254356Y-97753538D01*
X165243990Y-97726568D01*
X165237712Y-97692532D01*
X165234027Y-97644510D01*
X165232403Y-97605131D01*
X165231728Y-97569419D01*
X165357445Y-97569419D01*
X165358674Y-97604970D01*
X165363134Y-97652294D01*
X165371003Y-97682665D01*
X165385193Y-97704272D01*
X165398483Y-97716894D01*
X165445598Y-97743322D01*
X165494895Y-97746853D01*
X165540807Y-97727839D01*
X165563762Y-97706531D01*
X165580304Y-97685059D01*
X165589979Y-97664513D01*
X165594226Y-97637774D01*
X165594480Y-97597723D01*
X165593172Y-97560838D01*
X165590357Y-97508147D01*
X165585895Y-97473972D01*
X165577852Y-97451680D01*
X165564297Y-97434642D01*
X165553555Y-97424903D01*
X165508623Y-97399323D01*
X165460151Y-97398047D01*
X165419506Y-97413199D01*
X165384833Y-97444842D01*
X165364176Y-97496820D01*
X165357445Y-97569419D01*
X165231728Y-97569419D01*
X165230921Y-97526821D01*
X165233452Y-97468256D01*
X165241038Y-97424207D01*
X165254719Y-97389448D01*
X165275535Y-97358751D01*
X165283253Y-97349636D01*
X165331511Y-97304221D01*
X165383272Y-97277693D01*
X165446572Y-97266579D01*
X165477439Y-97265671D01*
X165559139Y-97275348D01*
G36*
X170129981Y-98215170D02*
G01*
X170190085Y-98230797D01*
X170240421Y-98263048D01*
X170264793Y-98287140D01*
X170304745Y-98344095D01*
X170327642Y-98410165D01*
X170335508Y-98491382D01*
X170335548Y-98497948D01*
X170335618Y-98563963D01*
X169955664Y-98563963D01*
X169963763Y-98598542D01*
X169978387Y-98629859D01*
X170003981Y-98662491D01*
X170009335Y-98667700D01*
X170055343Y-98695894D01*
X170107810Y-98700675D01*
X170168203Y-98682126D01*
X170178440Y-98677131D01*
X170209839Y-98661945D01*
X170230870Y-98653294D01*
X170234539Y-98652493D01*
X170247348Y-98660263D01*
X170271778Y-98679272D01*
X170284179Y-98689660D01*
X170309876Y-98713521D01*
X170318315Y-98729277D01*
X170312458Y-98743771D01*
X170309328Y-98747734D01*
X170288125Y-98765079D01*
X170253138Y-98786159D01*
X170228737Y-98798465D01*
X170159472Y-98820146D01*
X170082788Y-98827171D01*
X170010165Y-98818847D01*
X169989826Y-98812886D01*
X169926876Y-98779152D01*
X169880215Y-98727245D01*
X169849573Y-98656659D01*
X169834682Y-98566892D01*
X169833047Y-98519953D01*
X169837821Y-98451613D01*
X169958390Y-98451613D01*
X169970052Y-98456665D01*
X170001398Y-98460629D01*
X170046971Y-98462968D01*
X170077846Y-98463369D01*
X170133381Y-98462983D01*
X170168433Y-98461175D01*
X170187662Y-98456973D01*
X170195730Y-98449403D01*
X170197301Y-98438418D01*
X170186521Y-98404581D01*
X170159380Y-98371140D01*
X170123677Y-98345472D01*
X170087960Y-98334972D01*
X170039448Y-98344286D01*
X169997453Y-98371213D01*
X169968336Y-98410027D01*
X169958390Y-98451613D01*
X169837821Y-98451613D01*
X169839999Y-98420436D01*
X169861455Y-98341149D01*
X169897870Y-98281463D01*
X169949697Y-98240749D01*
X170017390Y-98218379D01*
X170054062Y-98214071D01*
X170129981Y-98215170D01*
X170129981Y-98215170D01*
G37*
X170129981Y-98215170D02*
X170190085Y-98230797D01*
X170240421Y-98263048D01*
X170264793Y-98287140D01*
X170304745Y-98344095D01*
X170327642Y-98410165D01*
X170335508Y-98491382D01*
X170335548Y-98497948D01*
X170335618Y-98563963D01*
X169955664Y-98563963D01*
X169963763Y-98598542D01*
X169978387Y-98629859D01*
X170003981Y-98662491D01*
X170009335Y-98667700D01*
X170055343Y-98695894D01*
X170107810Y-98700675D01*
X170168203Y-98682126D01*
X170178440Y-98677131D01*
X170209839Y-98661945D01*
X170230870Y-98653294D01*
X170234539Y-98652493D01*
X170247348Y-98660263D01*
X170271778Y-98679272D01*
X170284179Y-98689660D01*
X170309876Y-98713521D01*
X170318315Y-98729277D01*
X170312458Y-98743771D01*
X170309328Y-98747734D01*
X170288125Y-98765079D01*
X170253138Y-98786159D01*
X170228737Y-98798465D01*
X170159472Y-98820146D01*
X170082788Y-98827171D01*
X170010165Y-98818847D01*
X169989826Y-98812886D01*
X169926876Y-98779152D01*
X169880215Y-98727245D01*
X169849573Y-98656659D01*
X169834682Y-98566892D01*
X169833047Y-98519953D01*
X169837821Y-98451613D01*
X169958390Y-98451613D01*
X169970052Y-98456665D01*
X170001398Y-98460629D01*
X170046971Y-98462968D01*
X170077846Y-98463369D01*
X170133381Y-98462983D01*
X170168433Y-98461175D01*
X170187662Y-98456973D01*
X170195730Y-98449403D01*
X170197301Y-98438418D01*
X170186521Y-98404581D01*
X170159380Y-98371140D01*
X170123677Y-98345472D01*
X170087960Y-98334972D01*
X170039448Y-98344286D01*
X169997453Y-98371213D01*
X169968336Y-98410027D01*
X169958390Y-98451613D01*
X169837821Y-98451613D01*
X169839999Y-98420436D01*
X169861455Y-98341149D01*
X169897870Y-98281463D01*
X169949697Y-98240749D01*
X170017390Y-98218379D01*
X170054062Y-98214071D01*
X170129981Y-98215170D01*
G36*
X169732655Y-98211686D02*
G01*
X169780995Y-98221215D01*
X169808514Y-98235325D01*
X169837464Y-98258768D01*
X169796276Y-98310771D01*
X169770882Y-98342264D01*
X169753638Y-98357628D01*
X169736502Y-98359976D01*
X169711427Y-98352417D01*
X169699657Y-98348141D01*
X169651670Y-98341831D01*
X169607724Y-98355356D01*
X169575460Y-98385910D01*
X169570219Y-98395652D01*
X169564512Y-98421458D01*
X169560106Y-98469017D01*
X169557211Y-98534958D01*
X169556031Y-98615910D01*
X169556014Y-98627426D01*
X169556014Y-98828022D01*
X169417697Y-98828022D01*
X169417697Y-98211883D01*
X169486856Y-98211883D01*
X169526733Y-98212925D01*
X169547507Y-98217558D01*
X169555189Y-98228049D01*
X169556014Y-98237945D01*
X169556014Y-98264006D01*
X169589145Y-98237945D01*
X169627135Y-98220165D01*
X169678170Y-98211374D01*
X169732655Y-98211686D01*
X169732655Y-98211686D01*
G37*
X169732655Y-98211686D02*
X169780995Y-98221215D01*
X169808514Y-98235325D01*
X169837464Y-98258768D01*
X169796276Y-98310771D01*
X169770882Y-98342264D01*
X169753638Y-98357628D01*
X169736502Y-98359976D01*
X169711427Y-98352417D01*
X169699657Y-98348141D01*
X169651670Y-98341831D01*
X169607724Y-98355356D01*
X169575460Y-98385910D01*
X169570219Y-98395652D01*
X169564512Y-98421458D01*
X169560106Y-98469017D01*
X169557211Y-98534958D01*
X169556031Y-98615910D01*
X169556014Y-98627426D01*
X169556014Y-98828022D01*
X169417697Y-98828022D01*
X169417697Y-98211883D01*
X169486856Y-98211883D01*
X169526733Y-98212925D01*
X169547507Y-98217558D01*
X169555189Y-98228049D01*
X169556014Y-98237945D01*
X169556014Y-98264006D01*
X169589145Y-98237945D01*
X169627135Y-98220165D01*
X169678170Y-98211374D01*
X169732655Y-98211686D01*
G36*
X169135811Y-98215617D02*
G01*
X169188811Y-98228490D01*
X169204131Y-98235310D01*
X169233828Y-98253174D01*
X169256620Y-98273293D01*
X169273483Y-98299162D01*
X169285398Y-98334273D01*
X169293342Y-98382120D01*
X169298294Y-98446196D01*
X169301231Y-98529994D01*
X169302347Y-98585968D01*
X169306452Y-98828022D01*
X169236332Y-98828022D01*
X169193793Y-98826238D01*
X169171876Y-98820142D01*
X169166212Y-98809906D01*
X169163221Y-98798837D01*
X169149851Y-98800954D01*
X169131633Y-98809829D01*
X169086024Y-98823433D01*
X169027407Y-98827099D01*
X168965754Y-98821103D01*
X168911038Y-98805721D01*
X168906130Y-98803586D01*
X168856123Y-98768455D01*
X168823156Y-98719619D01*
X168807987Y-98662533D01*
X168809146Y-98642024D01*
X168932908Y-98642024D01*
X168943813Y-98669625D01*
X168976145Y-98689404D01*
X169028310Y-98700019D01*
X169056187Y-98701428D01*
X169102647Y-98697820D01*
X169133529Y-98683797D01*
X169141064Y-98677131D01*
X169161476Y-98640866D01*
X169166212Y-98607973D01*
X169166212Y-98563963D01*
X169104913Y-98563963D01*
X169033656Y-98567595D01*
X168983676Y-98579018D01*
X168952096Y-98599024D01*
X168945026Y-98607943D01*
X168932908Y-98642024D01*
X168809146Y-98642024D01*
X168811371Y-98602656D01*
X168834063Y-98545444D01*
X168865024Y-98506780D01*
X168883776Y-98490064D01*
X168902133Y-98479078D01*
X168926019Y-98472380D01*
X168961357Y-98468526D01*
X169014069Y-98466073D01*
X169034977Y-98465368D01*
X169166212Y-98461079D01*
X169166020Y-98421358D01*
X169160937Y-98379605D01*
X169142562Y-98354358D01*
X169105439Y-98338230D01*
X169104443Y-98337942D01*
X169051810Y-98331600D01*
X169000306Y-98339884D01*
X168962030Y-98360027D01*
X168946672Y-98369973D01*
X168930130Y-98368597D01*
X168904675Y-98354187D01*
X168889728Y-98344017D01*
X168860491Y-98322288D01*
X168842380Y-98306000D01*
X168839474Y-98301337D01*
X168851440Y-98277205D01*
X168886796Y-98248385D01*
X168902153Y-98238661D01*
X168946301Y-98221914D01*
X169005798Y-98212427D01*
X169071887Y-98210295D01*
X169135811Y-98215617D01*
X169135811Y-98215617D01*
G37*
X169135811Y-98215617D02*
X169188811Y-98228490D01*
X169204131Y-98235310D01*
X169233828Y-98253174D01*
X169256620Y-98273293D01*
X169273483Y-98299162D01*
X169285398Y-98334273D01*
X169293342Y-98382120D01*
X169298294Y-98446196D01*
X169301231Y-98529994D01*
X169302347Y-98585968D01*
X169306452Y-98828022D01*
X169236332Y-98828022D01*
X169193793Y-98826238D01*
X169171876Y-98820142D01*
X169166212Y-98809906D01*
X169163221Y-98798837D01*
X169149851Y-98800954D01*
X169131633Y-98809829D01*
X169086024Y-98823433D01*
X169027407Y-98827099D01*
X168965754Y-98821103D01*
X168911038Y-98805721D01*
X168906130Y-98803586D01*
X168856123Y-98768455D01*
X168823156Y-98719619D01*
X168807987Y-98662533D01*
X168809146Y-98642024D01*
X168932908Y-98642024D01*
X168943813Y-98669625D01*
X168976145Y-98689404D01*
X169028310Y-98700019D01*
X169056187Y-98701428D01*
X169102647Y-98697820D01*
X169133529Y-98683797D01*
X169141064Y-98677131D01*
X169161476Y-98640866D01*
X169166212Y-98607973D01*
X169166212Y-98563963D01*
X169104913Y-98563963D01*
X169033656Y-98567595D01*
X168983676Y-98579018D01*
X168952096Y-98599024D01*
X168945026Y-98607943D01*
X168932908Y-98642024D01*
X168809146Y-98642024D01*
X168811371Y-98602656D01*
X168834063Y-98545444D01*
X168865024Y-98506780D01*
X168883776Y-98490064D01*
X168902133Y-98479078D01*
X168926019Y-98472380D01*
X168961357Y-98468526D01*
X169014069Y-98466073D01*
X169034977Y-98465368D01*
X169166212Y-98461079D01*
X169166020Y-98421358D01*
X169160937Y-98379605D01*
X169142562Y-98354358D01*
X169105439Y-98338230D01*
X169104443Y-98337942D01*
X169051810Y-98331600D01*
X169000306Y-98339884D01*
X168962030Y-98360027D01*
X168946672Y-98369973D01*
X168930130Y-98368597D01*
X168904675Y-98354187D01*
X168889728Y-98344017D01*
X168860491Y-98322288D01*
X168842380Y-98306000D01*
X168839474Y-98301337D01*
X168851440Y-98277205D01*
X168886796Y-98248385D01*
X168902153Y-98238661D01*
X168946301Y-98221914D01*
X169005798Y-98212427D01*
X169071887Y-98210295D01*
X169135811Y-98215617D01*
G36*
X168378924Y-98214437D02*
G01*
X168428655Y-98218171D01*
X168558691Y-98607973D01*
X168579078Y-98538814D01*
X168591346Y-98496074D01*
X168607485Y-98438315D01*
X168624912Y-98374825D01*
X168634126Y-98340770D01*
X168668788Y-98211883D01*
X168811791Y-98211883D01*
X168769046Y-98347057D01*
X168747996Y-98413542D01*
X168722567Y-98493739D01*
X168696010Y-98577393D01*
X168672302Y-98651982D01*
X168618302Y-98821735D01*
X168559998Y-98825528D01*
X168501695Y-98829322D01*
X168470079Y-98724934D01*
X168450582Y-98660089D01*
X168429304Y-98588600D01*
X168410708Y-98525463D01*
X168409974Y-98522950D01*
X168396084Y-98480169D01*
X168383829Y-98450979D01*
X168375246Y-98439941D01*
X168373482Y-98441218D01*
X168367291Y-98458330D01*
X168355528Y-98494987D01*
X168339625Y-98546578D01*
X168321014Y-98608494D01*
X168310943Y-98642552D01*
X168256407Y-98828022D01*
X168140664Y-98828022D01*
X168048137Y-98535671D01*
X168022144Y-98453662D01*
X167998466Y-98379187D01*
X167978220Y-98315744D01*
X167962526Y-98266832D01*
X167952502Y-98235949D01*
X167949455Y-98226926D01*
X167951867Y-98217687D01*
X167970808Y-98213641D01*
X168010223Y-98214046D01*
X168016393Y-98214352D01*
X168089486Y-98218171D01*
X168137357Y-98394210D01*
X168154953Y-98458411D01*
X168170677Y-98514849D01*
X168183146Y-98558622D01*
X168190974Y-98584830D01*
X168192420Y-98589103D01*
X168198414Y-98584190D01*
X168210501Y-98558732D01*
X168227293Y-98516197D01*
X168247403Y-98460050D01*
X168264403Y-98409330D01*
X168329194Y-98210704D01*
X168378924Y-98214437D01*
X168378924Y-98214437D01*
G37*
X168378924Y-98214437D02*
X168428655Y-98218171D01*
X168558691Y-98607973D01*
X168579078Y-98538814D01*
X168591346Y-98496074D01*
X168607485Y-98438315D01*
X168624912Y-98374825D01*
X168634126Y-98340770D01*
X168668788Y-98211883D01*
X168811791Y-98211883D01*
X168769046Y-98347057D01*
X168747996Y-98413542D01*
X168722567Y-98493739D01*
X168696010Y-98577393D01*
X168672302Y-98651982D01*
X168618302Y-98821735D01*
X168559998Y-98825528D01*
X168501695Y-98829322D01*
X168470079Y-98724934D01*
X168450582Y-98660089D01*
X168429304Y-98588600D01*
X168410708Y-98525463D01*
X168409974Y-98522950D01*
X168396084Y-98480169D01*
X168383829Y-98450979D01*
X168375246Y-98439941D01*
X168373482Y-98441218D01*
X168367291Y-98458330D01*
X168355528Y-98494987D01*
X168339625Y-98546578D01*
X168321014Y-98608494D01*
X168310943Y-98642552D01*
X168256407Y-98828022D01*
X168140664Y-98828022D01*
X168048137Y-98535671D01*
X168022144Y-98453662D01*
X167998466Y-98379187D01*
X167978220Y-98315744D01*
X167962526Y-98266832D01*
X167952502Y-98235949D01*
X167949455Y-98226926D01*
X167951867Y-98217687D01*
X167970808Y-98213641D01*
X168010223Y-98214046D01*
X168016393Y-98214352D01*
X168089486Y-98218171D01*
X168137357Y-98394210D01*
X168154953Y-98458411D01*
X168170677Y-98514849D01*
X168183146Y-98558622D01*
X168190974Y-98584830D01*
X168192420Y-98589103D01*
X168198414Y-98584190D01*
X168210501Y-98558732D01*
X168227293Y-98516197D01*
X168247403Y-98460050D01*
X168264403Y-98409330D01*
X168329194Y-98210704D01*
X168378924Y-98214437D01*
G36*
X167896212Y-98828022D02*
G01*
X167827054Y-98828022D01*
X167786912Y-98826845D01*
X167766006Y-98821972D01*
X167758478Y-98811386D01*
X167757895Y-98804229D01*
X167756626Y-98789876D01*
X167748621Y-98787123D01*
X167727585Y-98795971D01*
X167711227Y-98804229D01*
X167648423Y-98823797D01*
X167580152Y-98824929D01*
X167524648Y-98810335D01*
X167472962Y-98775077D01*
X167433562Y-98723035D01*
X167411987Y-98661650D01*
X167411438Y-98658218D01*
X167408233Y-98620771D01*
X167406639Y-98567013D01*
X167406767Y-98526355D01*
X167544121Y-98526355D01*
X167547303Y-98580394D01*
X167554541Y-98624935D01*
X167564340Y-98650088D01*
X167601411Y-98684460D01*
X167645426Y-98696782D01*
X167690816Y-98686818D01*
X167729603Y-98657095D01*
X167744292Y-98637105D01*
X167752881Y-98613250D01*
X167756904Y-98578430D01*
X167757895Y-98526130D01*
X167756122Y-98474339D01*
X167751437Y-98428834D01*
X167744797Y-98398381D01*
X167743690Y-98395652D01*
X167716909Y-98363200D01*
X167677821Y-98345383D01*
X167634085Y-98342506D01*
X167593362Y-98354874D01*
X167563313Y-98382793D01*
X167560196Y-98388348D01*
X167550439Y-98422222D01*
X167545123Y-98470928D01*
X167544121Y-98526355D01*
X167406767Y-98526355D01*
X167406832Y-98505740D01*
X167407736Y-98472763D01*
X167413886Y-98391181D01*
X167426667Y-98329930D01*
X167447929Y-98284649D01*
X167479522Y-98250979D01*
X167510193Y-98231214D01*
X167553046Y-98217320D01*
X167606344Y-98212554D01*
X167660920Y-98216436D01*
X167707608Y-98228482D01*
X167732276Y-98242893D01*
X167757895Y-98266078D01*
X167757895Y-97972973D01*
X167896212Y-97972973D01*
X167896212Y-98828022D01*
X167896212Y-98828022D01*
G37*
X167896212Y-98828022D02*
X167827054Y-98828022D01*
X167786912Y-98826845D01*
X167766006Y-98821972D01*
X167758478Y-98811386D01*
X167757895Y-98804229D01*
X167756626Y-98789876D01*
X167748621Y-98787123D01*
X167727585Y-98795971D01*
X167711227Y-98804229D01*
X167648423Y-98823797D01*
X167580152Y-98824929D01*
X167524648Y-98810335D01*
X167472962Y-98775077D01*
X167433562Y-98723035D01*
X167411987Y-98661650D01*
X167411438Y-98658218D01*
X167408233Y-98620771D01*
X167406639Y-98567013D01*
X167406767Y-98526355D01*
X167544121Y-98526355D01*
X167547303Y-98580394D01*
X167554541Y-98624935D01*
X167564340Y-98650088D01*
X167601411Y-98684460D01*
X167645426Y-98696782D01*
X167690816Y-98686818D01*
X167729603Y-98657095D01*
X167744292Y-98637105D01*
X167752881Y-98613250D01*
X167756904Y-98578430D01*
X167757895Y-98526130D01*
X167756122Y-98474339D01*
X167751437Y-98428834D01*
X167744797Y-98398381D01*
X167743690Y-98395652D01*
X167716909Y-98363200D01*
X167677821Y-98345383D01*
X167634085Y-98342506D01*
X167593362Y-98354874D01*
X167563313Y-98382793D01*
X167560196Y-98388348D01*
X167550439Y-98422222D01*
X167545123Y-98470928D01*
X167544121Y-98526355D01*
X167406767Y-98526355D01*
X167406832Y-98505740D01*
X167407736Y-98472763D01*
X167413886Y-98391181D01*
X167426667Y-98329930D01*
X167447929Y-98284649D01*
X167479522Y-98250979D01*
X167510193Y-98231214D01*
X167553046Y-98217320D01*
X167606344Y-98212554D01*
X167660920Y-98216436D01*
X167707608Y-98228482D01*
X167732276Y-98242893D01*
X167757895Y-98266078D01*
X167757895Y-97972973D01*
X167896212Y-97972973D01*
X167896212Y-98828022D01*
G36*
X167104044Y-98213220D02*
G01*
X167122861Y-98218860D01*
X167128927Y-98231253D01*
X167129182Y-98236847D01*
X167130271Y-98252430D01*
X167137768Y-98254876D01*
X167158019Y-98244193D01*
X167170049Y-98236894D01*
X167208000Y-98221263D01*
X167253328Y-98213534D01*
X167300856Y-98212940D01*
X167345405Y-98218713D01*
X167381798Y-98230084D01*
X167404857Y-98246288D01*
X167409404Y-98266555D01*
X167407109Y-98272043D01*
X167390380Y-98294826D01*
X167364437Y-98322847D01*
X167359745Y-98327377D01*
X167335017Y-98348205D01*
X167313682Y-98354935D01*
X167283845Y-98350238D01*
X167271892Y-98347117D01*
X167234695Y-98339621D01*
X167208541Y-98342992D01*
X167186454Y-98354881D01*
X167166222Y-98370835D01*
X167151321Y-98390900D01*
X167140966Y-98418902D01*
X167134371Y-98458667D01*
X167130751Y-98514023D01*
X167129322Y-98588794D01*
X167129182Y-98633940D01*
X167129182Y-98828022D01*
X167003440Y-98828022D01*
X167003440Y-98211883D01*
X167066311Y-98211883D01*
X167104044Y-98213220D01*
X167104044Y-98213220D01*
G37*
X167104044Y-98213220D02*
X167122861Y-98218860D01*
X167128927Y-98231253D01*
X167129182Y-98236847D01*
X167130271Y-98252430D01*
X167137768Y-98254876D01*
X167158019Y-98244193D01*
X167170049Y-98236894D01*
X167208000Y-98221263D01*
X167253328Y-98213534D01*
X167300856Y-98212940D01*
X167345405Y-98218713D01*
X167381798Y-98230084D01*
X167404857Y-98246288D01*
X167409404Y-98266555D01*
X167407109Y-98272043D01*
X167390380Y-98294826D01*
X167364437Y-98322847D01*
X167359745Y-98327377D01*
X167335017Y-98348205D01*
X167313682Y-98354935D01*
X167283845Y-98350238D01*
X167271892Y-98347117D01*
X167234695Y-98339621D01*
X167208541Y-98342992D01*
X167186454Y-98354881D01*
X167166222Y-98370835D01*
X167151321Y-98390900D01*
X167140966Y-98418902D01*
X167134371Y-98458667D01*
X167130751Y-98514023D01*
X167129322Y-98588794D01*
X167129182Y-98633940D01*
X167129182Y-98828022D01*
X167003440Y-98828022D01*
X167003440Y-98211883D01*
X167066311Y-98211883D01*
X167104044Y-98213220D01*
G36*
X166713190Y-98216755D02*
G01*
X166772345Y-98232539D01*
X166817377Y-98261148D01*
X166849154Y-98298619D01*
X166859034Y-98314611D01*
X166866327Y-98331363D01*
X166871426Y-98352792D01*
X166874721Y-98382816D01*
X166876603Y-98425354D01*
X166877463Y-98484322D01*
X166877693Y-98563640D01*
X166877697Y-98584684D01*
X166877697Y-98828022D01*
X166817341Y-98828022D01*
X166778843Y-98825326D01*
X166750377Y-98818495D01*
X166743245Y-98814283D01*
X166723748Y-98807013D01*
X166703834Y-98814283D01*
X166671047Y-98823360D01*
X166623422Y-98827013D01*
X166570636Y-98825428D01*
X166522364Y-98818789D01*
X166494182Y-98810272D01*
X166439647Y-98775263D01*
X166405565Y-98726679D01*
X166390243Y-98662082D01*
X166390101Y-98660423D01*
X166391445Y-98631766D01*
X166513044Y-98631766D01*
X166523674Y-98664361D01*
X166540990Y-98682705D01*
X166575748Y-98696579D01*
X166621627Y-98702117D01*
X166668412Y-98699391D01*
X166705886Y-98688474D01*
X166716385Y-98681469D01*
X166734732Y-98649104D01*
X166739380Y-98612311D01*
X166739380Y-98563963D01*
X166669818Y-98563963D01*
X166603733Y-98569050D01*
X166553636Y-98583463D01*
X166522471Y-98605929D01*
X166513044Y-98631766D01*
X166391445Y-98631766D01*
X166393413Y-98589847D01*
X166416690Y-98534045D01*
X166460452Y-98491847D01*
X166466501Y-98488008D01*
X166492493Y-98475509D01*
X166524665Y-98467940D01*
X166569640Y-98464261D01*
X166623069Y-98463416D01*
X166739380Y-98463369D01*
X166739380Y-98414611D01*
X166734447Y-98376781D01*
X166721857Y-98351436D01*
X166720383Y-98350087D01*
X166692366Y-98339000D01*
X166650074Y-98334703D01*
X166603336Y-98336815D01*
X166561982Y-98344956D01*
X166537443Y-98357165D01*
X166524147Y-98366946D01*
X166510106Y-98368813D01*
X166490729Y-98360800D01*
X166461424Y-98340939D01*
X166417597Y-98307263D01*
X166413575Y-98304109D01*
X166415636Y-98292436D01*
X166432832Y-98273022D01*
X166458967Y-98251448D01*
X166487848Y-98233296D01*
X166496922Y-98229009D01*
X166530020Y-98220456D01*
X166578520Y-98214355D01*
X166632705Y-98211908D01*
X166635239Y-98211903D01*
X166713190Y-98216755D01*
X166713190Y-98216755D01*
G37*
X166713190Y-98216755D02*
X166772345Y-98232539D01*
X166817377Y-98261148D01*
X166849154Y-98298619D01*
X166859034Y-98314611D01*
X166866327Y-98331363D01*
X166871426Y-98352792D01*
X166874721Y-98382816D01*
X166876603Y-98425354D01*
X166877463Y-98484322D01*
X166877693Y-98563640D01*
X166877697Y-98584684D01*
X166877697Y-98828022D01*
X166817341Y-98828022D01*
X166778843Y-98825326D01*
X166750377Y-98818495D01*
X166743245Y-98814283D01*
X166723748Y-98807013D01*
X166703834Y-98814283D01*
X166671047Y-98823360D01*
X166623422Y-98827013D01*
X166570636Y-98825428D01*
X166522364Y-98818789D01*
X166494182Y-98810272D01*
X166439647Y-98775263D01*
X166405565Y-98726679D01*
X166390243Y-98662082D01*
X166390101Y-98660423D01*
X166391445Y-98631766D01*
X166513044Y-98631766D01*
X166523674Y-98664361D01*
X166540990Y-98682705D01*
X166575748Y-98696579D01*
X166621627Y-98702117D01*
X166668412Y-98699391D01*
X166705886Y-98688474D01*
X166716385Y-98681469D01*
X166734732Y-98649104D01*
X166739380Y-98612311D01*
X166739380Y-98563963D01*
X166669818Y-98563963D01*
X166603733Y-98569050D01*
X166553636Y-98583463D01*
X166522471Y-98605929D01*
X166513044Y-98631766D01*
X166391445Y-98631766D01*
X166393413Y-98589847D01*
X166416690Y-98534045D01*
X166460452Y-98491847D01*
X166466501Y-98488008D01*
X166492493Y-98475509D01*
X166524665Y-98467940D01*
X166569640Y-98464261D01*
X166623069Y-98463416D01*
X166739380Y-98463369D01*
X166739380Y-98414611D01*
X166734447Y-98376781D01*
X166721857Y-98351436D01*
X166720383Y-98350087D01*
X166692366Y-98339000D01*
X166650074Y-98334703D01*
X166603336Y-98336815D01*
X166561982Y-98344956D01*
X166537443Y-98357165D01*
X166524147Y-98366946D01*
X166510106Y-98368813D01*
X166490729Y-98360800D01*
X166461424Y-98340939D01*
X166417597Y-98307263D01*
X166413575Y-98304109D01*
X166415636Y-98292436D01*
X166432832Y-98273022D01*
X166458967Y-98251448D01*
X166487848Y-98233296D01*
X166496922Y-98229009D01*
X166530020Y-98220456D01*
X166578520Y-98214355D01*
X166632705Y-98211908D01*
X166635239Y-98211903D01*
X166713190Y-98216755D01*
G36*
X166188641Y-97279384D02*
G01*
X166215153Y-97292482D01*
X166247847Y-97315306D01*
X166271675Y-97340196D01*
X166287994Y-97371449D01*
X166298160Y-97413366D01*
X166303528Y-97470244D01*
X166305456Y-97546384D01*
X166305569Y-97579117D01*
X166305239Y-97650856D01*
X166303873Y-97702127D01*
X166300900Y-97737604D01*
X166295751Y-97761963D01*
X166287857Y-97779880D01*
X166279643Y-97792102D01*
X166227213Y-97844105D01*
X166165470Y-97875384D01*
X166098864Y-97884792D01*
X166031842Y-97871180D01*
X166010608Y-97861554D01*
X165959776Y-97835059D01*
X165959776Y-98250252D01*
X165996875Y-98231068D01*
X166045757Y-98216225D01*
X166105839Y-98212422D01*
X166165836Y-98219443D01*
X166211144Y-98235213D01*
X166248725Y-98265247D01*
X166280836Y-98308224D01*
X166283250Y-98312636D01*
X166293433Y-98333421D01*
X166300870Y-98354370D01*
X166305989Y-98379748D01*
X166309219Y-98413818D01*
X166310987Y-98460841D01*
X166311723Y-98525082D01*
X166311856Y-98597376D01*
X166311856Y-98828022D01*
X166173539Y-98828022D01*
X166173539Y-98402733D01*
X166134851Y-98370179D01*
X166094662Y-98344140D01*
X166056603Y-98339405D01*
X166018334Y-98351589D01*
X165997938Y-98363520D01*
X165982758Y-98380513D01*
X165971962Y-98406195D01*
X165964717Y-98444191D01*
X165960192Y-98498126D01*
X165957556Y-98571625D01*
X165956628Y-98620547D01*
X165953489Y-98821735D01*
X165887474Y-98825536D01*
X165821460Y-98829336D01*
X165821460Y-97580850D01*
X165959776Y-97580850D01*
X165963303Y-97650454D01*
X165975185Y-97698769D01*
X165997380Y-97728831D01*
X166031841Y-97743671D01*
X166066658Y-97746636D01*
X166106071Y-97743228D01*
X166132229Y-97729817D01*
X166148586Y-97712096D01*
X166161463Y-97693035D01*
X166169128Y-97671801D01*
X166172539Y-97642049D01*
X166172651Y-97597436D01*
X166171503Y-97560080D01*
X166168868Y-97503804D01*
X166164944Y-97466858D01*
X166158337Y-97443423D01*
X166147651Y-97427680D01*
X166137567Y-97418580D01*
X166095430Y-97398737D01*
X166045560Y-97395532D01*
X166016924Y-97402368D01*
X165988572Y-97426664D01*
X165969791Y-97473928D01*
X165960688Y-97543824D01*
X165959776Y-97580850D01*
X165821460Y-97580850D01*
X165821460Y-97268814D01*
X165890618Y-97268814D01*
X165932140Y-97270456D01*
X165953562Y-97276287D01*
X165959774Y-97287661D01*
X165959776Y-97287998D01*
X165962658Y-97299138D01*
X165975370Y-97297873D01*
X166000643Y-97285633D01*
X166059531Y-97266907D01*
X166125785Y-97264939D01*
X166188641Y-97279384D01*
X166188641Y-97279384D01*
G37*
X166188641Y-97279384D02*
X166215153Y-97292482D01*
X166247847Y-97315306D01*
X166271675Y-97340196D01*
X166287994Y-97371449D01*
X166298160Y-97413366D01*
X166303528Y-97470244D01*
X166305456Y-97546384D01*
X166305569Y-97579117D01*
X166305239Y-97650856D01*
X166303873Y-97702127D01*
X166300900Y-97737604D01*
X166295751Y-97761963D01*
X166287857Y-97779880D01*
X166279643Y-97792102D01*
X166227213Y-97844105D01*
X166165470Y-97875384D01*
X166098864Y-97884792D01*
X166031842Y-97871180D01*
X166010608Y-97861554D01*
X165959776Y-97835059D01*
X165959776Y-98250252D01*
X165996875Y-98231068D01*
X166045757Y-98216225D01*
X166105839Y-98212422D01*
X166165836Y-98219443D01*
X166211144Y-98235213D01*
X166248725Y-98265247D01*
X166280836Y-98308224D01*
X166283250Y-98312636D01*
X166293433Y-98333421D01*
X166300870Y-98354370D01*
X166305989Y-98379748D01*
X166309219Y-98413818D01*
X166310987Y-98460841D01*
X166311723Y-98525082D01*
X166311856Y-98597376D01*
X166311856Y-98828022D01*
X166173539Y-98828022D01*
X166173539Y-98402733D01*
X166134851Y-98370179D01*
X166094662Y-98344140D01*
X166056603Y-98339405D01*
X166018334Y-98351589D01*
X165997938Y-98363520D01*
X165982758Y-98380513D01*
X165971962Y-98406195D01*
X165964717Y-98444191D01*
X165960192Y-98498126D01*
X165957556Y-98571625D01*
X165956628Y-98620547D01*
X165953489Y-98821735D01*
X165887474Y-98825536D01*
X165821460Y-98829336D01*
X165821460Y-97580850D01*
X165959776Y-97580850D01*
X165963303Y-97650454D01*
X165975185Y-97698769D01*
X165997380Y-97728831D01*
X166031841Y-97743671D01*
X166066658Y-97746636D01*
X166106071Y-97743228D01*
X166132229Y-97729817D01*
X166148586Y-97712096D01*
X166161463Y-97693035D01*
X166169128Y-97671801D01*
X166172539Y-97642049D01*
X166172651Y-97597436D01*
X166171503Y-97560080D01*
X166168868Y-97503804D01*
X166164944Y-97466858D01*
X166158337Y-97443423D01*
X166147651Y-97427680D01*
X166137567Y-97418580D01*
X166095430Y-97398737D01*
X166045560Y-97395532D01*
X166016924Y-97402368D01*
X165988572Y-97426664D01*
X165969791Y-97473928D01*
X165960688Y-97543824D01*
X165959776Y-97580850D01*
X165821460Y-97580850D01*
X165821460Y-97268814D01*
X165890618Y-97268814D01*
X165932140Y-97270456D01*
X165953562Y-97276287D01*
X165959774Y-97287661D01*
X165959776Y-97287998D01*
X165962658Y-97299138D01*
X165975370Y-97297873D01*
X166000643Y-97285633D01*
X166059531Y-97266907D01*
X166125785Y-97264939D01*
X166188641Y-97279384D01*
D10*
X137603380Y-106136666D02*
X137127190Y-106470000D01*
X137603380Y-106708095D02*
X136603380Y-106708095D01*
X136603380Y-106327142D01*
X136651000Y-106231904D01*
X136698619Y-106184285D01*
X136793857Y-106136666D01*
X136936714Y-106136666D01*
X137031952Y-106184285D01*
X137079571Y-106231904D01*
X137127190Y-106327142D01*
X137127190Y-106708095D01*
X137603380Y-105660476D02*
X137603380Y-105470000D01*
X137555761Y-105374761D01*
X137508142Y-105327142D01*
X137365285Y-105231904D01*
X137174809Y-105184285D01*
X136793857Y-105184285D01*
X136698619Y-105231904D01*
X136651000Y-105279523D01*
X136603380Y-105374761D01*
X136603380Y-105565238D01*
X136651000Y-105660476D01*
X136698619Y-105708095D01*
X136793857Y-105755714D01*
X137031952Y-105755714D01*
X137127190Y-105708095D01*
X137174809Y-105660476D01*
X137222428Y-105565238D01*
X137222428Y-105374761D01*
X137174809Y-105279523D01*
X137127190Y-105231904D01*
X137031952Y-105184285D01*
X125258333Y-104856380D02*
X124925000Y-104380190D01*
X124686904Y-104856380D02*
X124686904Y-103856380D01*
X125067857Y-103856380D01*
X125163095Y-103904000D01*
X125210714Y-103951619D01*
X125258333Y-104046857D01*
X125258333Y-104189714D01*
X125210714Y-104284952D01*
X125163095Y-104332571D01*
X125067857Y-104380190D01*
X124686904Y-104380190D01*
X125829761Y-104284952D02*
X125734523Y-104237333D01*
X125686904Y-104189714D01*
X125639285Y-104094476D01*
X125639285Y-104046857D01*
X125686904Y-103951619D01*
X125734523Y-103904000D01*
X125829761Y-103856380D01*
X126020238Y-103856380D01*
X126115476Y-103904000D01*
X126163095Y-103951619D01*
X126210714Y-104046857D01*
X126210714Y-104094476D01*
X126163095Y-104189714D01*
X126115476Y-104237333D01*
X126020238Y-104284952D01*
X125829761Y-104284952D01*
X125734523Y-104332571D01*
X125686904Y-104380190D01*
X125639285Y-104475428D01*
X125639285Y-104665904D01*
X125686904Y-104761142D01*
X125734523Y-104808761D01*
X125829761Y-104856380D01*
X126020238Y-104856380D01*
X126115476Y-104808761D01*
X126163095Y-104761142D01*
X126210714Y-104665904D01*
X126210714Y-104475428D01*
X126163095Y-104380190D01*
X126115476Y-104332571D01*
X126020238Y-104284952D01*
X133132333Y-98760380D02*
X132799000Y-98284190D01*
X132560904Y-98760380D02*
X132560904Y-97760380D01*
X132941857Y-97760380D01*
X133037095Y-97808000D01*
X133084714Y-97855619D01*
X133132333Y-97950857D01*
X133132333Y-98093714D01*
X133084714Y-98188952D01*
X133037095Y-98236571D01*
X132941857Y-98284190D01*
X132560904Y-98284190D01*
X133465666Y-97760380D02*
X134132333Y-97760380D01*
X133703761Y-98760380D01*
X133386333Y-89362580D02*
X133053000Y-88886390D01*
X132814904Y-89362580D02*
X132814904Y-88362580D01*
X133195857Y-88362580D01*
X133291095Y-88410200D01*
X133338714Y-88457819D01*
X133386333Y-88553057D01*
X133386333Y-88695914D01*
X133338714Y-88791152D01*
X133291095Y-88838771D01*
X133195857Y-88886390D01*
X132814904Y-88886390D01*
X134243476Y-88362580D02*
X134053000Y-88362580D01*
X133957761Y-88410200D01*
X133910142Y-88457819D01*
X133814904Y-88600676D01*
X133767285Y-88791152D01*
X133767285Y-89172104D01*
X133814904Y-89267342D01*
X133862523Y-89314961D01*
X133957761Y-89362580D01*
X134148238Y-89362580D01*
X134243476Y-89314961D01*
X134291095Y-89267342D01*
X134338714Y-89172104D01*
X134338714Y-88934009D01*
X134291095Y-88838771D01*
X134243476Y-88791152D01*
X134148238Y-88743533D01*
X133957761Y-88743533D01*
X133862523Y-88791152D01*
X133814904Y-88838771D01*
X133767285Y-88934009D01*
X136556761Y-95797619D02*
X136461523Y-95750000D01*
X136366285Y-95654761D01*
X136223428Y-95511904D01*
X136128190Y-95464285D01*
X136032952Y-95464285D01*
X136080571Y-95702380D02*
X135985333Y-95654761D01*
X135890095Y-95559523D01*
X135842476Y-95369047D01*
X135842476Y-95035714D01*
X135890095Y-94845238D01*
X135985333Y-94750000D01*
X136080571Y-94702380D01*
X136271047Y-94702380D01*
X136366285Y-94750000D01*
X136461523Y-94845238D01*
X136509142Y-95035714D01*
X136509142Y-95369047D01*
X136461523Y-95559523D01*
X136366285Y-95654761D01*
X136271047Y-95702380D01*
X136080571Y-95702380D01*
X136890095Y-94797619D02*
X136937714Y-94750000D01*
X137032952Y-94702380D01*
X137271047Y-94702380D01*
X137366285Y-94750000D01*
X137413904Y-94797619D01*
X137461523Y-94892857D01*
X137461523Y-94988095D01*
X137413904Y-95130952D01*
X136842476Y-95702380D01*
X137461523Y-95702380D01*
X124110761Y-99861619D02*
X124015523Y-99814000D01*
X123920285Y-99718761D01*
X123777428Y-99575904D01*
X123682190Y-99528285D01*
X123586952Y-99528285D01*
X123634571Y-99766380D02*
X123539333Y-99718761D01*
X123444095Y-99623523D01*
X123396476Y-99433047D01*
X123396476Y-99099714D01*
X123444095Y-98909238D01*
X123539333Y-98814000D01*
X123634571Y-98766380D01*
X123825047Y-98766380D01*
X123920285Y-98814000D01*
X124015523Y-98909238D01*
X124063142Y-99099714D01*
X124063142Y-99433047D01*
X124015523Y-99623523D01*
X123920285Y-99718761D01*
X123825047Y-99766380D01*
X123634571Y-99766380D01*
X125015523Y-99766380D02*
X124444095Y-99766380D01*
X124729809Y-99766380D02*
X124729809Y-98766380D01*
X124634571Y-98909238D01*
X124539333Y-99004476D01*
X124444095Y-99052095D01*
X133190142Y-106390666D02*
X133237761Y-106438285D01*
X133285380Y-106581142D01*
X133285380Y-106676380D01*
X133237761Y-106819238D01*
X133142523Y-106914476D01*
X133047285Y-106962095D01*
X132856809Y-107009714D01*
X132713952Y-107009714D01*
X132523476Y-106962095D01*
X132428238Y-106914476D01*
X132333000Y-106819238D01*
X132285380Y-106676380D01*
X132285380Y-106581142D01*
X132333000Y-106438285D01*
X132380619Y-106390666D01*
X132285380Y-106057333D02*
X132285380Y-105390666D01*
X133285380Y-105819238D01*
X111320142Y-86102580D02*
X110986809Y-85626390D01*
X110748714Y-86102580D02*
X110748714Y-85102580D01*
X111129666Y-85102580D01*
X111224904Y-85150200D01*
X111272523Y-85197819D01*
X111320142Y-85293057D01*
X111320142Y-85435914D01*
X111272523Y-85531152D01*
X111224904Y-85578771D01*
X111129666Y-85626390D01*
X110748714Y-85626390D01*
X112272523Y-86102580D02*
X111701095Y-86102580D01*
X111986809Y-86102580D02*
X111986809Y-85102580D01*
X111891571Y-85245438D01*
X111796333Y-85340676D01*
X111701095Y-85388295D01*
X112605857Y-85102580D02*
X113272523Y-85102580D01*
X112843952Y-86102580D01*
X111320142Y-81996580D02*
X110986809Y-81520390D01*
X110748714Y-81996580D02*
X110748714Y-80996580D01*
X111129666Y-80996580D01*
X111224904Y-81044200D01*
X111272523Y-81091819D01*
X111320142Y-81187057D01*
X111320142Y-81329914D01*
X111272523Y-81425152D01*
X111224904Y-81472771D01*
X111129666Y-81520390D01*
X110748714Y-81520390D01*
X112272523Y-81996580D02*
X111701095Y-81996580D01*
X111986809Y-81996580D02*
X111986809Y-80996580D01*
X111891571Y-81139438D01*
X111796333Y-81234676D01*
X111701095Y-81282295D01*
X112605857Y-80996580D02*
X113224904Y-80996580D01*
X112891571Y-81377533D01*
X113034428Y-81377533D01*
X113129666Y-81425152D01*
X113177285Y-81472771D01*
X113224904Y-81568009D01*
X113224904Y-81806104D01*
X113177285Y-81901342D01*
X113129666Y-81948961D01*
X113034428Y-81996580D01*
X112748714Y-81996580D01*
X112653476Y-81948961D01*
X112605857Y-81901342D01*
X115860333Y-90325342D02*
X115812714Y-90372961D01*
X115669857Y-90420580D01*
X115574619Y-90420580D01*
X115431761Y-90372961D01*
X115336523Y-90277723D01*
X115288904Y-90182485D01*
X115241285Y-89992009D01*
X115241285Y-89849152D01*
X115288904Y-89658676D01*
X115336523Y-89563438D01*
X115431761Y-89468200D01*
X115574619Y-89420580D01*
X115669857Y-89420580D01*
X115812714Y-89468200D01*
X115860333Y-89515819D01*
X116336523Y-90420580D02*
X116527000Y-90420580D01*
X116622238Y-90372961D01*
X116669857Y-90325342D01*
X116765095Y-90182485D01*
X116812714Y-89992009D01*
X116812714Y-89611057D01*
X116765095Y-89515819D01*
X116717476Y-89468200D01*
X116622238Y-89420580D01*
X116431761Y-89420580D01*
X116336523Y-89468200D01*
X116288904Y-89515819D01*
X116241285Y-89611057D01*
X116241285Y-89849152D01*
X116288904Y-89944390D01*
X116336523Y-89992009D01*
X116431761Y-90039628D01*
X116622238Y-90039628D01*
X116717476Y-89992009D01*
X116765095Y-89944390D01*
X116812714Y-89849152D01*
X177150142Y-79740866D02*
X177197761Y-79788485D01*
X177245380Y-79931342D01*
X177245380Y-80026580D01*
X177197761Y-80169438D01*
X177102523Y-80264676D01*
X177007285Y-80312295D01*
X176816809Y-80359914D01*
X176673952Y-80359914D01*
X176483476Y-80312295D01*
X176388238Y-80264676D01*
X176293000Y-80169438D01*
X176245380Y-80026580D01*
X176245380Y-79931342D01*
X176293000Y-79788485D01*
X176340619Y-79740866D01*
X177245380Y-78788485D02*
X177245380Y-79359914D01*
X177245380Y-79074200D02*
X176245380Y-79074200D01*
X176388238Y-79169438D01*
X176483476Y-79264676D01*
X176531095Y-79359914D01*
X128835380Y-85904104D02*
X129644904Y-85904104D01*
X129740142Y-85856485D01*
X129787761Y-85808866D01*
X129835380Y-85713628D01*
X129835380Y-85523152D01*
X129787761Y-85427914D01*
X129740142Y-85380295D01*
X129644904Y-85332676D01*
X128835380Y-85332676D01*
X128835380Y-84427914D02*
X128835380Y-84618390D01*
X128883000Y-84713628D01*
X128930619Y-84761247D01*
X129073476Y-84856485D01*
X129263952Y-84904104D01*
X129644904Y-84904104D01*
X129740142Y-84856485D01*
X129787761Y-84808866D01*
X129835380Y-84713628D01*
X129835380Y-84523152D01*
X129787761Y-84427914D01*
X129740142Y-84380295D01*
X129644904Y-84332676D01*
X129406809Y-84332676D01*
X129311571Y-84380295D01*
X129263952Y-84427914D01*
X129216333Y-84523152D01*
X129216333Y-84713628D01*
X129263952Y-84808866D01*
X129311571Y-84856485D01*
X129406809Y-84904104D01*
X114701380Y-75879057D02*
X114225190Y-76212390D01*
X114701380Y-76450485D02*
X113701380Y-76450485D01*
X113701380Y-76069533D01*
X113749000Y-75974295D01*
X113796619Y-75926676D01*
X113891857Y-75879057D01*
X114034714Y-75879057D01*
X114129952Y-75926676D01*
X114177571Y-75974295D01*
X114225190Y-76069533D01*
X114225190Y-76450485D01*
X114701380Y-74926676D02*
X114701380Y-75498104D01*
X114701380Y-75212390D02*
X113701380Y-75212390D01*
X113844238Y-75307628D01*
X113939476Y-75402866D01*
X113987095Y-75498104D01*
X113796619Y-74545723D02*
X113749000Y-74498104D01*
X113701380Y-74402866D01*
X113701380Y-74164771D01*
X113749000Y-74069533D01*
X113796619Y-74021914D01*
X113891857Y-73974295D01*
X113987095Y-73974295D01*
X114129952Y-74021914D01*
X114701380Y-74593342D01*
X114701380Y-73974295D01*
X124004142Y-77688866D02*
X124051761Y-77736485D01*
X124099380Y-77879342D01*
X124099380Y-77974580D01*
X124051761Y-78117438D01*
X123956523Y-78212676D01*
X123861285Y-78260295D01*
X123670809Y-78307914D01*
X123527952Y-78307914D01*
X123337476Y-78260295D01*
X123242238Y-78212676D01*
X123147000Y-78117438D01*
X123099380Y-77974580D01*
X123099380Y-77879342D01*
X123147000Y-77736485D01*
X123194619Y-77688866D01*
X123527952Y-77117438D02*
X123480333Y-77212676D01*
X123432714Y-77260295D01*
X123337476Y-77307914D01*
X123289857Y-77307914D01*
X123194619Y-77260295D01*
X123147000Y-77212676D01*
X123099380Y-77117438D01*
X123099380Y-76926961D01*
X123147000Y-76831723D01*
X123194619Y-76784104D01*
X123289857Y-76736485D01*
X123337476Y-76736485D01*
X123432714Y-76784104D01*
X123480333Y-76831723D01*
X123527952Y-76926961D01*
X123527952Y-77117438D01*
X123575571Y-77212676D01*
X123623190Y-77260295D01*
X123718428Y-77307914D01*
X123908904Y-77307914D01*
X124004142Y-77260295D01*
X124051761Y-77212676D01*
X124099380Y-77117438D01*
X124099380Y-76926961D01*
X124051761Y-76831723D01*
X124004142Y-76784104D01*
X123908904Y-76736485D01*
X123718428Y-76736485D01*
X123623190Y-76784104D01*
X123575571Y-76831723D01*
X123527952Y-76926961D01*
X126544142Y-92643057D02*
X126591761Y-92690676D01*
X126639380Y-92833533D01*
X126639380Y-92928771D01*
X126591761Y-93071628D01*
X126496523Y-93166866D01*
X126401285Y-93214485D01*
X126210809Y-93262104D01*
X126067952Y-93262104D01*
X125877476Y-93214485D01*
X125782238Y-93166866D01*
X125687000Y-93071628D01*
X125639380Y-92928771D01*
X125639380Y-92833533D01*
X125687000Y-92690676D01*
X125734619Y-92643057D01*
X126639380Y-91690676D02*
X126639380Y-92262104D01*
X126639380Y-91976390D02*
X125639380Y-91976390D01*
X125782238Y-92071628D01*
X125877476Y-92166866D01*
X125925095Y-92262104D01*
X126639380Y-90738295D02*
X126639380Y-91309723D01*
X126639380Y-91024009D02*
X125639380Y-91024009D01*
X125782238Y-91119247D01*
X125877476Y-91214485D01*
X125925095Y-91309723D01*
X110304142Y-77827142D02*
X110256523Y-77874761D01*
X110113666Y-77922380D01*
X110018428Y-77922380D01*
X109875571Y-77874761D01*
X109780333Y-77779523D01*
X109732714Y-77684285D01*
X109685095Y-77493809D01*
X109685095Y-77350952D01*
X109732714Y-77160476D01*
X109780333Y-77065238D01*
X109875571Y-76970000D01*
X110018428Y-76922380D01*
X110113666Y-76922380D01*
X110256523Y-76970000D01*
X110304142Y-77017619D01*
X111256523Y-77922380D02*
X110685095Y-77922380D01*
X110970809Y-77922380D02*
X110970809Y-76922380D01*
X110875571Y-77065238D01*
X110780333Y-77160476D01*
X110685095Y-77208095D01*
X111875571Y-76922380D02*
X111970809Y-76922380D01*
X112066047Y-76970000D01*
X112113666Y-77017619D01*
X112161285Y-77112857D01*
X112208904Y-77303333D01*
X112208904Y-77541428D01*
X112161285Y-77731904D01*
X112113666Y-77827142D01*
X112066047Y-77874761D01*
X111970809Y-77922380D01*
X111875571Y-77922380D01*
X111780333Y-77874761D01*
X111732714Y-77827142D01*
X111685095Y-77731904D01*
X111637476Y-77541428D01*
X111637476Y-77303333D01*
X111685095Y-77112857D01*
X111732714Y-77017619D01*
X111780333Y-76970000D01*
X111875571Y-76922380D01*
X102423380Y-84459533D02*
X103137666Y-84459533D01*
X103280523Y-84507152D01*
X103375761Y-84602390D01*
X103423380Y-84745247D01*
X103423380Y-84840485D01*
X102756714Y-83554771D02*
X103423380Y-83554771D01*
X102375761Y-83792866D02*
X103090047Y-84030961D01*
X103090047Y-83411914D01*
X142581333Y-73858380D02*
X142248000Y-73382190D01*
X142009904Y-73858380D02*
X142009904Y-72858380D01*
X142390857Y-72858380D01*
X142486095Y-72906000D01*
X142533714Y-72953619D01*
X142581333Y-73048857D01*
X142581333Y-73191714D01*
X142533714Y-73286952D01*
X142486095Y-73334571D01*
X142390857Y-73382190D01*
X142009904Y-73382190D01*
X143486095Y-72858380D02*
X143009904Y-72858380D01*
X142962285Y-73334571D01*
X143009904Y-73286952D01*
X143105142Y-73239333D01*
X143343238Y-73239333D01*
X143438476Y-73286952D01*
X143486095Y-73334571D01*
X143533714Y-73429809D01*
X143533714Y-73667904D01*
X143486095Y-73763142D01*
X143438476Y-73810761D01*
X143343238Y-73858380D01*
X143105142Y-73858380D01*
X143009904Y-73810761D01*
X142962285Y-73763142D01*
X149185333Y-73858380D02*
X148852000Y-73382190D01*
X148613904Y-73858380D02*
X148613904Y-72858380D01*
X148994857Y-72858380D01*
X149090095Y-72906000D01*
X149137714Y-72953619D01*
X149185333Y-73048857D01*
X149185333Y-73191714D01*
X149137714Y-73286952D01*
X149090095Y-73334571D01*
X148994857Y-73382190D01*
X148613904Y-73382190D01*
X149518666Y-72858380D02*
X150137714Y-72858380D01*
X149804380Y-73239333D01*
X149947238Y-73239333D01*
X150042476Y-73286952D01*
X150090095Y-73334571D01*
X150137714Y-73429809D01*
X150137714Y-73667904D01*
X150090095Y-73763142D01*
X150042476Y-73810761D01*
X149947238Y-73858380D01*
X149661523Y-73858380D01*
X149566285Y-73810761D01*
X149518666Y-73763142D01*
X156297333Y-73858380D02*
X155964000Y-73382190D01*
X155725904Y-73858380D02*
X155725904Y-72858380D01*
X156106857Y-72858380D01*
X156202095Y-72906000D01*
X156249714Y-72953619D01*
X156297333Y-73048857D01*
X156297333Y-73191714D01*
X156249714Y-73286952D01*
X156202095Y-73334571D01*
X156106857Y-73382190D01*
X155725904Y-73382190D01*
X156678285Y-72953619D02*
X156725904Y-72906000D01*
X156821142Y-72858380D01*
X157059238Y-72858380D01*
X157154476Y-72906000D01*
X157202095Y-72953619D01*
X157249714Y-73048857D01*
X157249714Y-73144095D01*
X157202095Y-73286952D01*
X156630666Y-73858380D01*
X157249714Y-73858380D01*
X134148333Y-72894580D02*
X133815000Y-72418390D01*
X133576904Y-72894580D02*
X133576904Y-71894580D01*
X133957857Y-71894580D01*
X134053095Y-71942200D01*
X134100714Y-71989819D01*
X134148333Y-72085057D01*
X134148333Y-72227914D01*
X134100714Y-72323152D01*
X134053095Y-72370771D01*
X133957857Y-72418390D01*
X133576904Y-72418390D01*
X135100714Y-72894580D02*
X134529285Y-72894580D01*
X134815000Y-72894580D02*
X134815000Y-71894580D01*
X134719761Y-72037438D01*
X134624523Y-72132676D01*
X134529285Y-72180295D01*
X148677333Y-87574380D02*
X148344000Y-87098190D01*
X148105904Y-87574380D02*
X148105904Y-86574380D01*
X148486857Y-86574380D01*
X148582095Y-86622000D01*
X148629714Y-86669619D01*
X148677333Y-86764857D01*
X148677333Y-86907714D01*
X148629714Y-87002952D01*
X148582095Y-87050571D01*
X148486857Y-87098190D01*
X148105904Y-87098190D01*
X149534476Y-86907714D02*
X149534476Y-87574380D01*
X149296380Y-86526761D02*
X149058285Y-87241047D01*
X149677333Y-87241047D01*
X113437380Y-68862295D02*
X112437380Y-68862295D01*
X112437380Y-68624200D01*
X112485000Y-68481342D01*
X112580238Y-68386104D01*
X112675476Y-68338485D01*
X112865952Y-68290866D01*
X113008809Y-68290866D01*
X113199285Y-68338485D01*
X113294523Y-68386104D01*
X113389761Y-68481342D01*
X113437380Y-68624200D01*
X113437380Y-68862295D01*
X112437380Y-67433723D02*
X112437380Y-67624200D01*
X112485000Y-67719438D01*
X112532619Y-67767057D01*
X112675476Y-67862295D01*
X112865952Y-67909914D01*
X113246904Y-67909914D01*
X113342142Y-67862295D01*
X113389761Y-67814676D01*
X113437380Y-67719438D01*
X113437380Y-67528961D01*
X113389761Y-67433723D01*
X113342142Y-67386104D01*
X113246904Y-67338485D01*
X113008809Y-67338485D01*
X112913571Y-67386104D01*
X112865952Y-67433723D01*
X112818333Y-67528961D01*
X112818333Y-67719438D01*
X112865952Y-67814676D01*
X112913571Y-67862295D01*
X113008809Y-67909914D01*
X118009380Y-68862295D02*
X117009380Y-68862295D01*
X117009380Y-68624200D01*
X117057000Y-68481342D01*
X117152238Y-68386104D01*
X117247476Y-68338485D01*
X117437952Y-68290866D01*
X117580809Y-68290866D01*
X117771285Y-68338485D01*
X117866523Y-68386104D01*
X117961761Y-68481342D01*
X118009380Y-68624200D01*
X118009380Y-68862295D01*
X117009380Y-67386104D02*
X117009380Y-67862295D01*
X117485571Y-67909914D01*
X117437952Y-67862295D01*
X117390333Y-67767057D01*
X117390333Y-67528961D01*
X117437952Y-67433723D01*
X117485571Y-67386104D01*
X117580809Y-67338485D01*
X117818904Y-67338485D01*
X117914142Y-67386104D01*
X117961761Y-67433723D01*
X118009380Y-67528961D01*
X118009380Y-67767057D01*
X117961761Y-67862295D01*
X117914142Y-67909914D01*
X144105333Y-88283142D02*
X144057714Y-88330761D01*
X143914857Y-88378380D01*
X143819619Y-88378380D01*
X143676761Y-88330761D01*
X143581523Y-88235523D01*
X143533904Y-88140285D01*
X143486285Y-87949809D01*
X143486285Y-87806952D01*
X143533904Y-87616476D01*
X143581523Y-87521238D01*
X143676761Y-87426000D01*
X143819619Y-87378380D01*
X143914857Y-87378380D01*
X144057714Y-87426000D01*
X144105333Y-87473619D01*
X145010095Y-87378380D02*
X144533904Y-87378380D01*
X144486285Y-87854571D01*
X144533904Y-87806952D01*
X144629142Y-87759333D01*
X144867238Y-87759333D01*
X144962476Y-87806952D01*
X145010095Y-87854571D01*
X145057714Y-87949809D01*
X145057714Y-88187904D01*
X145010095Y-88283142D01*
X144962476Y-88330761D01*
X144867238Y-88378380D01*
X144629142Y-88378380D01*
X144533904Y-88330761D01*
X144486285Y-88283142D01*
X155027333Y-84643142D02*
X154979714Y-84690761D01*
X154836857Y-84738380D01*
X154741619Y-84738380D01*
X154598761Y-84690761D01*
X154503523Y-84595523D01*
X154455904Y-84500285D01*
X154408285Y-84309809D01*
X154408285Y-84166952D01*
X154455904Y-83976476D01*
X154503523Y-83881238D01*
X154598761Y-83786000D01*
X154741619Y-83738380D01*
X154836857Y-83738380D01*
X154979714Y-83786000D01*
X155027333Y-83833619D01*
X155884476Y-83738380D02*
X155694000Y-83738380D01*
X155598761Y-83786000D01*
X155551142Y-83833619D01*
X155455904Y-83976476D01*
X155408285Y-84166952D01*
X155408285Y-84547904D01*
X155455904Y-84643142D01*
X155503523Y-84690761D01*
X155598761Y-84738380D01*
X155789238Y-84738380D01*
X155884476Y-84690761D01*
X155932095Y-84643142D01*
X155979714Y-84547904D01*
X155979714Y-84309809D01*
X155932095Y-84214571D01*
X155884476Y-84166952D01*
X155789238Y-84119333D01*
X155598761Y-84119333D01*
X155503523Y-84166952D01*
X155455904Y-84214571D01*
X155408285Y-84309809D01*
X148677333Y-94845142D02*
X148629714Y-94892761D01*
X148486857Y-94940380D01*
X148391619Y-94940380D01*
X148248761Y-94892761D01*
X148153523Y-94797523D01*
X148105904Y-94702285D01*
X148058285Y-94511809D01*
X148058285Y-94368952D01*
X148105904Y-94178476D01*
X148153523Y-94083238D01*
X148248761Y-93988000D01*
X148391619Y-93940380D01*
X148486857Y-93940380D01*
X148629714Y-93988000D01*
X148677333Y-94035619D01*
X149058285Y-94035619D02*
X149105904Y-93988000D01*
X149201142Y-93940380D01*
X149439238Y-93940380D01*
X149534476Y-93988000D01*
X149582095Y-94035619D01*
X149629714Y-94130857D01*
X149629714Y-94226095D01*
X149582095Y-94368952D01*
X149010666Y-94940380D01*
X149629714Y-94940380D01*
X139787333Y-94845142D02*
X139739714Y-94892761D01*
X139596857Y-94940380D01*
X139501619Y-94940380D01*
X139358761Y-94892761D01*
X139263523Y-94797523D01*
X139215904Y-94702285D01*
X139168285Y-94511809D01*
X139168285Y-94368952D01*
X139215904Y-94178476D01*
X139263523Y-94083238D01*
X139358761Y-93988000D01*
X139501619Y-93940380D01*
X139596857Y-93940380D01*
X139739714Y-93988000D01*
X139787333Y-94035619D01*
X140120666Y-93940380D02*
X140739714Y-93940380D01*
X140406380Y-94321333D01*
X140549238Y-94321333D01*
X140644476Y-94368952D01*
X140692095Y-94416571D01*
X140739714Y-94511809D01*
X140739714Y-94749904D01*
X140692095Y-94845142D01*
X140644476Y-94892761D01*
X140549238Y-94940380D01*
X140263523Y-94940380D01*
X140168285Y-94892761D01*
X140120666Y-94845142D01*
X139787333Y-91035142D02*
X139739714Y-91082761D01*
X139596857Y-91130380D01*
X139501619Y-91130380D01*
X139358761Y-91082761D01*
X139263523Y-90987523D01*
X139215904Y-90892285D01*
X139168285Y-90701809D01*
X139168285Y-90558952D01*
X139215904Y-90368476D01*
X139263523Y-90273238D01*
X139358761Y-90178000D01*
X139501619Y-90130380D01*
X139596857Y-90130380D01*
X139739714Y-90178000D01*
X139787333Y-90225619D01*
X140644476Y-90463714D02*
X140644476Y-91130380D01*
X140406380Y-90082761D02*
X140168285Y-90797047D01*
X140787333Y-90797047D01*
X132132142Y-78165057D02*
X132179761Y-78212676D01*
X132227380Y-78355533D01*
X132227380Y-78450771D01*
X132179761Y-78593628D01*
X132084523Y-78688866D01*
X131989285Y-78736485D01*
X131798809Y-78784104D01*
X131655952Y-78784104D01*
X131465476Y-78736485D01*
X131370238Y-78688866D01*
X131275000Y-78593628D01*
X131227380Y-78450771D01*
X131227380Y-78355533D01*
X131275000Y-78212676D01*
X131322619Y-78165057D01*
X132227380Y-77212676D02*
X132227380Y-77784104D01*
X132227380Y-77498390D02*
X131227380Y-77498390D01*
X131370238Y-77593628D01*
X131465476Y-77688866D01*
X131513095Y-77784104D01*
X131227380Y-76879342D02*
X131227380Y-76260295D01*
X131608333Y-76593628D01*
X131608333Y-76450771D01*
X131655952Y-76355533D01*
X131703571Y-76307914D01*
X131798809Y-76260295D01*
X132036904Y-76260295D01*
X132132142Y-76307914D01*
X132179761Y-76355533D01*
X132227380Y-76450771D01*
X132227380Y-76736485D01*
X132179761Y-76831723D01*
X132132142Y-76879342D01*
X128280142Y-78165057D02*
X128327761Y-78212676D01*
X128375380Y-78355533D01*
X128375380Y-78450771D01*
X128327761Y-78593628D01*
X128232523Y-78688866D01*
X128137285Y-78736485D01*
X127946809Y-78784104D01*
X127803952Y-78784104D01*
X127613476Y-78736485D01*
X127518238Y-78688866D01*
X127423000Y-78593628D01*
X127375380Y-78450771D01*
X127375380Y-78355533D01*
X127423000Y-78212676D01*
X127470619Y-78165057D01*
X128375380Y-77212676D02*
X128375380Y-77784104D01*
X128375380Y-77498390D02*
X127375380Y-77498390D01*
X127518238Y-77593628D01*
X127613476Y-77688866D01*
X127661095Y-77784104D01*
X127470619Y-76831723D02*
X127423000Y-76784104D01*
X127375380Y-76688866D01*
X127375380Y-76450771D01*
X127423000Y-76355533D01*
X127470619Y-76307914D01*
X127565857Y-76260295D01*
X127661095Y-76260295D01*
X127803952Y-76307914D01*
X128375380Y-76879342D01*
X128375380Y-76260295D01*
X136342380Y-78716095D02*
X135342380Y-78716095D01*
X135342380Y-78478000D01*
X135390000Y-78335142D01*
X135485238Y-78239904D01*
X135580476Y-78192285D01*
X135770952Y-78144666D01*
X135913809Y-78144666D01*
X136104285Y-78192285D01*
X136199523Y-78239904D01*
X136294761Y-78335142D01*
X136342380Y-78478000D01*
X136342380Y-78716095D01*
X136342380Y-77192285D02*
X136342380Y-77763714D01*
X136342380Y-77478000D02*
X135342380Y-77478000D01*
X135485238Y-77573238D01*
X135580476Y-77668476D01*
X135628095Y-77763714D01*
X140124380Y-74429904D02*
X139124380Y-74429904D01*
X140124380Y-73858476D02*
X139552952Y-74287047D01*
X139124380Y-73858476D02*
X139695809Y-74429904D01*
X155728904Y-72894580D02*
X155728904Y-71894580D01*
X155967000Y-71894580D01*
X156109857Y-71942200D01*
X156205095Y-72037438D01*
X156252714Y-72132676D01*
X156300333Y-72323152D01*
X156300333Y-72466009D01*
X156252714Y-72656485D01*
X156205095Y-72751723D01*
X156109857Y-72846961D01*
X155967000Y-72894580D01*
X155728904Y-72894580D01*
X156681285Y-71989819D02*
X156728904Y-71942200D01*
X156824142Y-71894580D01*
X157062238Y-71894580D01*
X157157476Y-71942200D01*
X157205095Y-71989819D01*
X157252714Y-72085057D01*
X157252714Y-72180295D01*
X157205095Y-72323152D01*
X156633666Y-72894580D01*
X157252714Y-72894580D01*
X147854904Y-72894580D02*
X147854904Y-71894580D01*
X148093000Y-71894580D01*
X148235857Y-71942200D01*
X148331095Y-72037438D01*
X148378714Y-72132676D01*
X148426333Y-72323152D01*
X148426333Y-72466009D01*
X148378714Y-72656485D01*
X148331095Y-72751723D01*
X148235857Y-72846961D01*
X148093000Y-72894580D01*
X147854904Y-72894580D01*
X148759666Y-71894580D02*
X149378714Y-71894580D01*
X149045380Y-72275533D01*
X149188238Y-72275533D01*
X149283476Y-72323152D01*
X149331095Y-72370771D01*
X149378714Y-72466009D01*
X149378714Y-72704104D01*
X149331095Y-72799342D01*
X149283476Y-72846961D01*
X149188238Y-72894580D01*
X148902523Y-72894580D01*
X148807285Y-72846961D01*
X148759666Y-72799342D01*
X139726904Y-72894580D02*
X139726904Y-71894580D01*
X139965000Y-71894580D01*
X140107857Y-71942200D01*
X140203095Y-72037438D01*
X140250714Y-72132676D01*
X140298333Y-72323152D01*
X140298333Y-72466009D01*
X140250714Y-72656485D01*
X140203095Y-72751723D01*
X140107857Y-72846961D01*
X139965000Y-72894580D01*
X139726904Y-72894580D01*
X141155476Y-72227914D02*
X141155476Y-72894580D01*
X140917380Y-71846961D02*
X140679285Y-72561247D01*
X141298333Y-72561247D01*
X178892142Y-88483866D02*
X179368333Y-88483866D01*
X178796904Y-88769580D02*
X179130238Y-87769580D01*
X179463571Y-88769580D01*
X179796904Y-88769580D02*
X179796904Y-87769580D01*
X180368333Y-88769580D01*
X180368333Y-87769580D01*
X180701666Y-87769580D02*
X181273095Y-87769580D01*
X180987380Y-88769580D02*
X180987380Y-87769580D01*
X163191666Y-73418580D02*
X163191666Y-74132866D01*
X163144047Y-74275723D01*
X163048809Y-74370961D01*
X162905952Y-74418580D01*
X162810714Y-74418580D01*
X163620238Y-73513819D02*
X163667857Y-73466200D01*
X163763095Y-73418580D01*
X164001190Y-73418580D01*
X164096428Y-73466200D01*
X164144047Y-73513819D01*
X164191666Y-73609057D01*
X164191666Y-73704295D01*
X164144047Y-73847152D01*
X163572619Y-74418580D01*
X164191666Y-74418580D01*
X155666666Y-89952380D02*
X155666666Y-90666666D01*
X155619047Y-90809523D01*
X155523809Y-90904761D01*
X155380952Y-90952380D01*
X155285714Y-90952380D01*
X156666666Y-90952380D02*
X156095238Y-90952380D01*
X156380952Y-90952380D02*
X156380952Y-89952380D01*
X156285714Y-90095238D01*
X156190476Y-90190476D01*
X156095238Y-90238095D01*
X114407761Y-102189619D02*
X114312523Y-102142000D01*
X114217285Y-102046761D01*
X114074428Y-101903904D01*
X113979190Y-101856285D01*
X113883952Y-101856285D01*
X113931571Y-102094380D02*
X113836333Y-102046761D01*
X113741095Y-101951523D01*
X113693476Y-101761047D01*
X113693476Y-101427714D01*
X113741095Y-101237238D01*
X113836333Y-101142000D01*
X113931571Y-101094380D01*
X114122047Y-101094380D01*
X114217285Y-101142000D01*
X114312523Y-101237238D01*
X114360142Y-101427714D01*
X114360142Y-101761047D01*
X114312523Y-101951523D01*
X114217285Y-102046761D01*
X114122047Y-102094380D01*
X113931571Y-102094380D01*
X114693476Y-101094380D02*
X115312523Y-101094380D01*
X114979190Y-101475333D01*
X115122047Y-101475333D01*
X115217285Y-101522952D01*
X115264904Y-101570571D01*
X115312523Y-101665809D01*
X115312523Y-101903904D01*
X115264904Y-101999142D01*
X115217285Y-102046761D01*
X115122047Y-102094380D01*
X114836333Y-102094380D01*
X114741095Y-102046761D01*
X114693476Y-101999142D01*
X108865380Y-68767057D02*
X108389190Y-69100390D01*
X108865380Y-69338485D02*
X107865380Y-69338485D01*
X107865380Y-68957533D01*
X107913000Y-68862295D01*
X107960619Y-68814676D01*
X108055857Y-68767057D01*
X108198714Y-68767057D01*
X108293952Y-68814676D01*
X108341571Y-68862295D01*
X108389190Y-68957533D01*
X108389190Y-69338485D01*
X108865380Y-67814676D02*
X108865380Y-68386104D01*
X108865380Y-68100390D02*
X107865380Y-68100390D01*
X108008238Y-68195628D01*
X108103476Y-68290866D01*
X108151095Y-68386104D01*
X107865380Y-67195628D02*
X107865380Y-67100390D01*
X107913000Y-67005152D01*
X107960619Y-66957533D01*
X108055857Y-66909914D01*
X108246333Y-66862295D01*
X108484428Y-66862295D01*
X108674904Y-66909914D01*
X108770142Y-66957533D01*
X108817761Y-67005152D01*
X108865380Y-67100390D01*
X108865380Y-67195628D01*
X108817761Y-67290866D01*
X108770142Y-67338485D01*
X108674904Y-67386104D01*
X108484428Y-67433723D01*
X108246333Y-67433723D01*
X108055857Y-67386104D01*
X107960619Y-67338485D01*
X107913000Y-67290866D01*
X107865380Y-67195628D01*
X123766142Y-95500580D02*
X123432809Y-95024390D01*
X123194714Y-95500580D02*
X123194714Y-94500580D01*
X123575666Y-94500580D01*
X123670904Y-94548200D01*
X123718523Y-94595819D01*
X123766142Y-94691057D01*
X123766142Y-94833914D01*
X123718523Y-94929152D01*
X123670904Y-94976771D01*
X123575666Y-95024390D01*
X123194714Y-95024390D01*
X124718523Y-95500580D02*
X124147095Y-95500580D01*
X124432809Y-95500580D02*
X124432809Y-94500580D01*
X124337571Y-94643438D01*
X124242333Y-94738676D01*
X124147095Y-94786295D01*
X125289952Y-94929152D02*
X125194714Y-94881533D01*
X125147095Y-94833914D01*
X125099476Y-94738676D01*
X125099476Y-94691057D01*
X125147095Y-94595819D01*
X125194714Y-94548200D01*
X125289952Y-94500580D01*
X125480428Y-94500580D01*
X125575666Y-94548200D01*
X125623285Y-94595819D01*
X125670904Y-94691057D01*
X125670904Y-94738676D01*
X125623285Y-94833914D01*
X125575666Y-94881533D01*
X125480428Y-94929152D01*
X125289952Y-94929152D01*
X125194714Y-94976771D01*
X125147095Y-95024390D01*
X125099476Y-95119628D01*
X125099476Y-95310104D01*
X125147095Y-95405342D01*
X125194714Y-95452961D01*
X125289952Y-95500580D01*
X125480428Y-95500580D01*
X125575666Y-95452961D01*
X125623285Y-95405342D01*
X125670904Y-95310104D01*
X125670904Y-95119628D01*
X125623285Y-95024390D01*
X125575666Y-94976771D01*
X125480428Y-94929152D01*
X118723380Y-75879057D02*
X118247190Y-76212390D01*
X118723380Y-76450485D02*
X117723380Y-76450485D01*
X117723380Y-76069533D01*
X117771000Y-75974295D01*
X117818619Y-75926676D01*
X117913857Y-75879057D01*
X118056714Y-75879057D01*
X118151952Y-75926676D01*
X118199571Y-75974295D01*
X118247190Y-76069533D01*
X118247190Y-76450485D01*
X118723380Y-74926676D02*
X118723380Y-75498104D01*
X118723380Y-75212390D02*
X117723380Y-75212390D01*
X117866238Y-75307628D01*
X117961476Y-75402866D01*
X118009095Y-75498104D01*
X117723380Y-74021914D02*
X117723380Y-74498104D01*
X118199571Y-74545723D01*
X118151952Y-74498104D01*
X118104333Y-74402866D01*
X118104333Y-74164771D01*
X118151952Y-74069533D01*
X118199571Y-74021914D01*
X118294809Y-73974295D01*
X118532904Y-73974295D01*
X118628142Y-74021914D01*
X118675761Y-74069533D01*
X118723380Y-74164771D01*
X118723380Y-74402866D01*
X118675761Y-74498104D01*
X118628142Y-74545723D01*
X108780142Y-90420580D02*
X108446809Y-89944390D01*
X108208714Y-90420580D02*
X108208714Y-89420580D01*
X108589666Y-89420580D01*
X108684904Y-89468200D01*
X108732523Y-89515819D01*
X108780142Y-89611057D01*
X108780142Y-89753914D01*
X108732523Y-89849152D01*
X108684904Y-89896771D01*
X108589666Y-89944390D01*
X108208714Y-89944390D01*
X109732523Y-90420580D02*
X109161095Y-90420580D01*
X109446809Y-90420580D02*
X109446809Y-89420580D01*
X109351571Y-89563438D01*
X109256333Y-89658676D01*
X109161095Y-89706295D01*
X110589666Y-89420580D02*
X110399190Y-89420580D01*
X110303952Y-89468200D01*
X110256333Y-89515819D01*
X110161095Y-89658676D01*
X110113476Y-89849152D01*
X110113476Y-90230104D01*
X110161095Y-90325342D01*
X110208714Y-90372961D01*
X110303952Y-90420580D01*
X110494428Y-90420580D01*
X110589666Y-90372961D01*
X110637285Y-90325342D01*
X110684904Y-90230104D01*
X110684904Y-89992009D01*
X110637285Y-89896771D01*
X110589666Y-89849152D01*
X110494428Y-89801533D01*
X110303952Y-89801533D01*
X110208714Y-89849152D01*
X110161095Y-89896771D01*
X110113476Y-89992009D01*
X121988142Y-90420580D02*
X121654809Y-89944390D01*
X121416714Y-90420580D02*
X121416714Y-89420580D01*
X121797666Y-89420580D01*
X121892904Y-89468200D01*
X121940523Y-89515819D01*
X121988142Y-89611057D01*
X121988142Y-89753914D01*
X121940523Y-89849152D01*
X121892904Y-89896771D01*
X121797666Y-89944390D01*
X121416714Y-89944390D01*
X122940523Y-90420580D02*
X122369095Y-90420580D01*
X122654809Y-90420580D02*
X122654809Y-89420580D01*
X122559571Y-89563438D01*
X122464333Y-89658676D01*
X122369095Y-89706295D01*
X123892904Y-90420580D02*
X123321476Y-90420580D01*
X123607190Y-90420580D02*
X123607190Y-89420580D01*
X123511952Y-89563438D01*
X123416714Y-89658676D01*
X123321476Y-89706295D01*
X117670142Y-95500580D02*
X117336809Y-95024390D01*
X117098714Y-95500580D02*
X117098714Y-94500580D01*
X117479666Y-94500580D01*
X117574904Y-94548200D01*
X117622523Y-94595819D01*
X117670142Y-94691057D01*
X117670142Y-94833914D01*
X117622523Y-94929152D01*
X117574904Y-94976771D01*
X117479666Y-95024390D01*
X117098714Y-95024390D01*
X118622523Y-95500580D02*
X118051095Y-95500580D01*
X118336809Y-95500580D02*
X118336809Y-94500580D01*
X118241571Y-94643438D01*
X118146333Y-94738676D01*
X118051095Y-94786295D01*
X119479666Y-94833914D02*
X119479666Y-95500580D01*
X119241571Y-94452961D02*
X119003476Y-95167247D01*
X119622523Y-95167247D01*
X126087666Y-71282961D02*
X126230523Y-71330580D01*
X126468619Y-71330580D01*
X126563857Y-71282961D01*
X126611476Y-71235342D01*
X126659095Y-71140104D01*
X126659095Y-71044866D01*
X126611476Y-70949628D01*
X126563857Y-70902009D01*
X126468619Y-70854390D01*
X126278142Y-70806771D01*
X126182904Y-70759152D01*
X126135285Y-70711533D01*
X126087666Y-70616295D01*
X126087666Y-70521057D01*
X126135285Y-70425819D01*
X126182904Y-70378200D01*
X126278142Y-70330580D01*
X126516238Y-70330580D01*
X126659095Y-70378200D01*
X126992428Y-70330580D02*
X127230523Y-71330580D01*
X127421000Y-70616295D01*
X127611476Y-71330580D01*
X127849571Y-70330580D01*
X128182904Y-70425819D02*
X128230523Y-70378200D01*
X128325761Y-70330580D01*
X128563857Y-70330580D01*
X128659095Y-70378200D01*
X128706714Y-70425819D01*
X128754333Y-70521057D01*
X128754333Y-70616295D01*
X128706714Y-70759152D01*
X128135285Y-71330580D01*
X128754333Y-71330580D01*
X172161095Y-77228580D02*
X172161095Y-78038104D01*
X172208714Y-78133342D01*
X172256333Y-78180961D01*
X172351571Y-78228580D01*
X172542047Y-78228580D01*
X172637285Y-78180961D01*
X172684904Y-78133342D01*
X172732523Y-78038104D01*
X172732523Y-77228580D01*
X173732523Y-78228580D02*
X173161095Y-78228580D01*
X173446809Y-78228580D02*
X173446809Y-77228580D01*
X173351571Y-77371438D01*
X173256333Y-77466676D01*
X173161095Y-77514295D01*
D13*
X167233476Y-103245904D02*
X167233476Y-103893523D01*
X167271571Y-103969714D01*
X167309666Y-104007809D01*
X167385857Y-104045904D01*
X167538238Y-104045904D01*
X167614428Y-104007809D01*
X167652523Y-103969714D01*
X167690619Y-103893523D01*
X167690619Y-103245904D01*
X168033476Y-103322095D02*
X168071571Y-103284000D01*
X168147761Y-103245904D01*
X168338238Y-103245904D01*
X168414428Y-103284000D01*
X168452523Y-103322095D01*
X168490619Y-103398285D01*
X168490619Y-103474476D01*
X168452523Y-103588761D01*
X167995380Y-104045904D01*
X168490619Y-104045904D01*
D10*
X144472095Y-100290380D02*
X144472095Y-101099904D01*
X144519714Y-101195142D01*
X144567333Y-101242761D01*
X144662571Y-101290380D01*
X144853047Y-101290380D01*
X144948285Y-101242761D01*
X144995904Y-101195142D01*
X145043523Y-101099904D01*
X145043523Y-100290380D01*
X145424476Y-100290380D02*
X146043523Y-100290380D01*
X145710190Y-100671333D01*
X145853047Y-100671333D01*
X145948285Y-100718952D01*
X145995904Y-100766571D01*
X146043523Y-100861809D01*
X146043523Y-101099904D01*
X145995904Y-101195142D01*
X145948285Y-101242761D01*
X145853047Y-101290380D01*
X145567333Y-101290380D01*
X145472095Y-101242761D01*
X145424476Y-101195142D01*
X115889380Y-83872104D02*
X116698904Y-83872104D01*
X116794142Y-83824485D01*
X116841761Y-83776866D01*
X116889380Y-83681628D01*
X116889380Y-83491152D01*
X116841761Y-83395914D01*
X116794142Y-83348295D01*
X116698904Y-83300676D01*
X115889380Y-83300676D01*
X115889380Y-82348295D02*
X115889380Y-82824485D01*
X116365571Y-82872104D01*
X116317952Y-82824485D01*
X116270333Y-82729247D01*
X116270333Y-82491152D01*
X116317952Y-82395914D01*
X116365571Y-82348295D01*
X116460809Y-82300676D01*
X116698904Y-82300676D01*
X116794142Y-82348295D01*
X116841761Y-82395914D01*
X116889380Y-82491152D01*
X116889380Y-82729247D01*
X116841761Y-82824485D01*
X116794142Y-82872104D01*
X109423095Y-99432580D02*
X109423095Y-100242104D01*
X109470714Y-100337342D01*
X109518333Y-100384961D01*
X109613571Y-100432580D01*
X109804047Y-100432580D01*
X109899285Y-100384961D01*
X109946904Y-100337342D01*
X109994523Y-100242104D01*
X109994523Y-99432580D01*
X110899285Y-99765914D02*
X110899285Y-100432580D01*
X110661190Y-99384961D02*
X110423095Y-100099247D01*
X111042142Y-100099247D01*
X148775809Y-77223190D02*
X148775809Y-77699380D01*
X148442476Y-76699380D02*
X148775809Y-77223190D01*
X149109142Y-76699380D01*
X149966285Y-77699380D02*
X149394857Y-77699380D01*
X149680571Y-77699380D02*
X149680571Y-76699380D01*
X149585333Y-76842238D01*
X149490095Y-76937476D01*
X149394857Y-76985095D01*
M02*
