G04 #@! TF.GenerationSoftware,KiCad,Pcbnew,(6.0.0-rc1-dev-1491-g0a4812be0)*
G04 #@! TF.CreationDate,2019-01-24T14:08:08+01:00
G04 #@! TF.ProjectId,mySensors_door_switch,6d795365-6e73-46f7-9273-5f646f6f725f,rev?*
G04 #@! TF.SameCoordinates,Original*
G04 #@! TF.FileFunction,Soldermask,Bot*
G04 #@! TF.FilePolarity,Negative*
%FSLAX46Y46*%
G04 Gerber Fmt 4.6, Leading zero omitted, Abs format (unit mm)*
G04 Created by KiCad (PCBNEW (6.0.0-rc1-dev-1491-g0a4812be0)) date 2019-01-24 14:08:08*
%MOMM*%
%LPD*%
G04 APERTURE LIST*
%ADD10C,0.100000*%
G04 APERTURE END LIST*
D10*
X128813000Y-70064000D02*
G75*
G03X128813000Y-70064000I-1143000J0D01*
G01*
X122809000Y-67564000D02*
G75*
G03X122809000Y-67564000I-889000J0D01*
G01*
X127309000Y-67564000D02*
G75*
G03X127309000Y-67564000I-889000J0D01*
G01*
X121813000Y-70064000D02*
G75*
G03X121813000Y-70064000I-1143000J0D01*
G01*
G36*
X179272694Y-103487860D02*
G01*
X179538437Y-103540719D01*
X180039087Y-103748095D01*
X180219357Y-103868548D01*
X180489663Y-104049161D01*
X180872839Y-104432337D01*
X180872841Y-104432340D01*
X181173905Y-104882913D01*
X181307363Y-105205109D01*
X181381281Y-105383564D01*
X181487000Y-105915049D01*
X181487000Y-106456951D01*
X181451186Y-106637000D01*
X181381281Y-106988437D01*
X181173905Y-107489087D01*
X180883636Y-107923504D01*
X180872839Y-107939663D01*
X180489663Y-108322839D01*
X180489660Y-108322841D01*
X180039087Y-108623905D01*
X179538437Y-108831281D01*
X179272693Y-108884141D01*
X179006951Y-108937000D01*
X178465049Y-108937000D01*
X178199307Y-108884141D01*
X177933563Y-108831281D01*
X177432913Y-108623905D01*
X176982340Y-108322841D01*
X176982337Y-108322839D01*
X176599161Y-107939663D01*
X176588364Y-107923504D01*
X176298095Y-107489087D01*
X176090719Y-106988437D01*
X176020814Y-106637000D01*
X175985000Y-106456951D01*
X175985000Y-105915049D01*
X176090719Y-105383564D01*
X176164637Y-105205109D01*
X176298095Y-104882913D01*
X176599159Y-104432340D01*
X176599161Y-104432337D01*
X176982337Y-104049161D01*
X177252643Y-103868548D01*
X177432913Y-103748095D01*
X177933563Y-103540719D01*
X178199306Y-103487860D01*
X178465049Y-103435000D01*
X179006951Y-103435000D01*
X179272694Y-103487860D01*
X179272694Y-103487860D01*
G37*
G36*
X100272694Y-103487860D02*
G01*
X100538437Y-103540719D01*
X101039087Y-103748095D01*
X101219357Y-103868548D01*
X101489663Y-104049161D01*
X101872839Y-104432337D01*
X101872841Y-104432340D01*
X102173905Y-104882913D01*
X102307363Y-105205109D01*
X102381281Y-105383564D01*
X102487000Y-105915049D01*
X102487000Y-106456951D01*
X102451186Y-106637000D01*
X102381281Y-106988437D01*
X102173905Y-107489087D01*
X101883636Y-107923504D01*
X101872839Y-107939663D01*
X101489663Y-108322839D01*
X101489660Y-108322841D01*
X101039087Y-108623905D01*
X100538437Y-108831281D01*
X100272693Y-108884141D01*
X100006951Y-108937000D01*
X99465049Y-108937000D01*
X99199307Y-108884141D01*
X98933563Y-108831281D01*
X98432913Y-108623905D01*
X97982340Y-108322841D01*
X97982337Y-108322839D01*
X97599161Y-107939663D01*
X97588364Y-107923504D01*
X97298095Y-107489087D01*
X97090719Y-106988437D01*
X97020814Y-106637000D01*
X96985000Y-106456951D01*
X96985000Y-105915049D01*
X97090719Y-105383564D01*
X97164637Y-105205109D01*
X97298095Y-104882913D01*
X97599159Y-104432340D01*
X97599161Y-104432337D01*
X97982337Y-104049161D01*
X98252643Y-103868548D01*
X98432913Y-103748095D01*
X98933563Y-103540719D01*
X99199306Y-103487860D01*
X99465049Y-103435000D01*
X100006951Y-103435000D01*
X100272694Y-103487860D01*
X100272694Y-103487860D01*
G37*
G36*
X151831000Y-105803000D02*
G01*
X150029000Y-105803000D01*
X150029000Y-104001000D01*
X151831000Y-104001000D01*
X151831000Y-105803000D01*
X151831000Y-105803000D01*
G37*
G36*
X158582600Y-104350006D02*
G01*
X158585002Y-104374392D01*
X158592115Y-104397841D01*
X158603666Y-104419452D01*
X158619212Y-104438394D01*
X158638154Y-104453940D01*
X158659765Y-104465491D01*
X158683214Y-104472604D01*
X158707600Y-104475006D01*
X158731986Y-104472604D01*
X158755435Y-104465491D01*
X158777046Y-104453940D01*
X158795988Y-104438394D01*
X158811534Y-104419452D01*
X158823085Y-104397842D01*
X158832798Y-104374392D01*
X158857492Y-104314775D01*
X158957584Y-104164977D01*
X158957586Y-104164974D01*
X159084974Y-104037586D01*
X159139729Y-104001000D01*
X159234775Y-103937492D01*
X159401221Y-103868548D01*
X159401222Y-103868548D01*
X159401224Y-103868547D01*
X159577918Y-103833400D01*
X159758082Y-103833400D01*
X159934776Y-103868547D01*
X159934778Y-103868548D01*
X159934779Y-103868548D01*
X160101225Y-103937492D01*
X160196271Y-104001000D01*
X160251026Y-104037586D01*
X160378414Y-104164974D01*
X160378416Y-104164977D01*
X160478508Y-104314775D01*
X160533897Y-104448496D01*
X160551475Y-104490933D01*
X160552513Y-104494355D01*
X160564063Y-104515967D01*
X160579608Y-104534909D01*
X160598549Y-104550456D01*
X160620160Y-104562008D01*
X160643608Y-104569122D01*
X160667995Y-104571525D01*
X160692381Y-104569124D01*
X160715830Y-104562012D01*
X160737442Y-104550462D01*
X160756384Y-104534917D01*
X160771931Y-104515976D01*
X160783483Y-104494365D01*
X160784522Y-104490940D01*
X160808796Y-104432337D01*
X160857492Y-104314775D01*
X160957584Y-104164977D01*
X160957586Y-104164974D01*
X161084974Y-104037586D01*
X161139729Y-104001000D01*
X161234775Y-103937492D01*
X161401221Y-103868548D01*
X161401222Y-103868548D01*
X161401224Y-103868547D01*
X161577918Y-103833400D01*
X161758082Y-103833400D01*
X161934776Y-103868547D01*
X161934778Y-103868548D01*
X161934779Y-103868548D01*
X162101225Y-103937492D01*
X162196271Y-104001000D01*
X162251026Y-104037586D01*
X162378414Y-104164974D01*
X162378416Y-104164977D01*
X162478508Y-104314775D01*
X162533897Y-104448496D01*
X162551475Y-104490933D01*
X162552513Y-104494355D01*
X162564063Y-104515967D01*
X162579608Y-104534909D01*
X162598549Y-104550456D01*
X162620160Y-104562008D01*
X162643608Y-104569122D01*
X162667995Y-104571525D01*
X162692381Y-104569124D01*
X162715830Y-104562012D01*
X162737442Y-104550462D01*
X162756384Y-104534917D01*
X162771931Y-104515976D01*
X162783483Y-104494365D01*
X162784522Y-104490940D01*
X162808796Y-104432337D01*
X162857492Y-104314775D01*
X162957584Y-104164977D01*
X162957586Y-104164974D01*
X163084974Y-104037586D01*
X163139729Y-104001000D01*
X163234775Y-103937492D01*
X163401221Y-103868548D01*
X163401222Y-103868548D01*
X163401224Y-103868547D01*
X163577918Y-103833400D01*
X163758082Y-103833400D01*
X163934776Y-103868547D01*
X163934778Y-103868548D01*
X163934779Y-103868548D01*
X164101225Y-103937492D01*
X164196271Y-104001000D01*
X164251026Y-104037586D01*
X164378414Y-104164974D01*
X164378416Y-104164977D01*
X164478508Y-104314775D01*
X164533897Y-104448496D01*
X164551475Y-104490933D01*
X164552513Y-104494355D01*
X164564063Y-104515967D01*
X164579608Y-104534909D01*
X164598549Y-104550456D01*
X164620160Y-104562008D01*
X164643608Y-104569122D01*
X164667995Y-104571525D01*
X164692381Y-104569124D01*
X164715830Y-104562012D01*
X164737442Y-104550462D01*
X164756384Y-104534917D01*
X164771931Y-104515976D01*
X164783483Y-104494365D01*
X164784522Y-104490940D01*
X164808796Y-104432337D01*
X164857492Y-104314775D01*
X164957584Y-104164977D01*
X164957586Y-104164974D01*
X165084974Y-104037586D01*
X165139729Y-104001000D01*
X165234775Y-103937492D01*
X165401221Y-103868548D01*
X165401222Y-103868548D01*
X165401224Y-103868547D01*
X165577918Y-103833400D01*
X165758082Y-103833400D01*
X165934776Y-103868547D01*
X165934778Y-103868548D01*
X165934779Y-103868548D01*
X166101225Y-103937492D01*
X166196271Y-104001000D01*
X166251026Y-104037586D01*
X166378414Y-104164974D01*
X166378416Y-104164977D01*
X166478508Y-104314775D01*
X166533897Y-104448496D01*
X166551475Y-104490933D01*
X166552513Y-104494355D01*
X166564063Y-104515967D01*
X166579608Y-104534909D01*
X166598549Y-104550456D01*
X166620160Y-104562008D01*
X166643608Y-104569122D01*
X166667995Y-104571525D01*
X166692381Y-104569124D01*
X166715830Y-104562012D01*
X166737442Y-104550462D01*
X166756384Y-104534917D01*
X166771931Y-104515976D01*
X166783483Y-104494365D01*
X166784522Y-104490940D01*
X166808796Y-104432337D01*
X166857492Y-104314775D01*
X166957584Y-104164977D01*
X166957586Y-104164974D01*
X167084974Y-104037586D01*
X167139729Y-104001000D01*
X167234775Y-103937492D01*
X167401221Y-103868548D01*
X167401222Y-103868548D01*
X167401224Y-103868547D01*
X167577918Y-103833400D01*
X167758082Y-103833400D01*
X167934776Y-103868547D01*
X167934778Y-103868548D01*
X167934779Y-103868548D01*
X168101225Y-103937492D01*
X168196271Y-104001000D01*
X168251026Y-104037586D01*
X168378414Y-104164974D01*
X168378416Y-104164977D01*
X168478508Y-104314775D01*
X168533897Y-104448496D01*
X168551475Y-104490933D01*
X168552513Y-104494355D01*
X168564063Y-104515967D01*
X168579608Y-104534909D01*
X168598549Y-104550456D01*
X168620160Y-104562008D01*
X168643608Y-104569122D01*
X168667995Y-104571525D01*
X168692381Y-104569124D01*
X168715830Y-104562012D01*
X168737442Y-104550462D01*
X168756384Y-104534917D01*
X168771931Y-104515976D01*
X168783483Y-104494365D01*
X168784522Y-104490940D01*
X168808796Y-104432337D01*
X168857492Y-104314775D01*
X168957584Y-104164977D01*
X168957586Y-104164974D01*
X169084974Y-104037586D01*
X169139729Y-104001000D01*
X169234775Y-103937492D01*
X169401221Y-103868548D01*
X169401222Y-103868548D01*
X169401224Y-103868547D01*
X169577918Y-103833400D01*
X169758082Y-103833400D01*
X169934776Y-103868547D01*
X169934778Y-103868548D01*
X169934779Y-103868548D01*
X170101225Y-103937492D01*
X170196271Y-104001000D01*
X170251026Y-104037586D01*
X170378414Y-104164974D01*
X170378416Y-104164977D01*
X170478508Y-104314775D01*
X170533897Y-104448496D01*
X170551475Y-104490933D01*
X170552513Y-104494355D01*
X170564063Y-104515967D01*
X170579608Y-104534909D01*
X170598549Y-104550456D01*
X170620160Y-104562008D01*
X170643608Y-104569122D01*
X170667995Y-104571525D01*
X170692381Y-104569124D01*
X170715830Y-104562012D01*
X170737442Y-104550462D01*
X170756384Y-104534917D01*
X170771931Y-104515976D01*
X170783483Y-104494365D01*
X170784522Y-104490940D01*
X170808796Y-104432337D01*
X170857492Y-104314775D01*
X170957584Y-104164977D01*
X170957586Y-104164974D01*
X171084974Y-104037586D01*
X171139729Y-104001000D01*
X171234775Y-103937492D01*
X171401221Y-103868548D01*
X171401222Y-103868548D01*
X171401224Y-103868547D01*
X171577918Y-103833400D01*
X171758082Y-103833400D01*
X171934776Y-103868547D01*
X171934778Y-103868548D01*
X171934779Y-103868548D01*
X172101225Y-103937492D01*
X172196271Y-104001000D01*
X172251026Y-104037586D01*
X172378414Y-104164974D01*
X172378416Y-104164977D01*
X172478508Y-104314775D01*
X172547452Y-104481221D01*
X172547453Y-104481224D01*
X172582600Y-104657918D01*
X172582600Y-104838082D01*
X172549386Y-105005060D01*
X172547452Y-105014779D01*
X172478508Y-105181225D01*
X172478507Y-105181226D01*
X172378414Y-105331026D01*
X172251026Y-105458414D01*
X172251023Y-105458416D01*
X172101225Y-105558508D01*
X171934779Y-105627452D01*
X171934778Y-105627452D01*
X171934776Y-105627453D01*
X171758082Y-105662600D01*
X171577918Y-105662600D01*
X171401224Y-105627453D01*
X171401222Y-105627452D01*
X171401221Y-105627452D01*
X171234775Y-105558508D01*
X171084977Y-105458416D01*
X171084974Y-105458414D01*
X170957586Y-105331026D01*
X170857493Y-105181226D01*
X170857492Y-105181225D01*
X170792117Y-105023396D01*
X170784525Y-105005067D01*
X170783487Y-105001645D01*
X170771937Y-104980033D01*
X170756392Y-104961091D01*
X170737451Y-104945544D01*
X170715840Y-104933992D01*
X170692392Y-104926878D01*
X170668005Y-104924475D01*
X170643619Y-104926876D01*
X170620170Y-104933988D01*
X170598558Y-104945538D01*
X170579616Y-104961083D01*
X170564069Y-104980024D01*
X170552517Y-105001635D01*
X170551478Y-105005060D01*
X170536340Y-105041605D01*
X170478508Y-105181225D01*
X170478507Y-105181226D01*
X170378414Y-105331026D01*
X170251026Y-105458414D01*
X170251023Y-105458416D01*
X170101225Y-105558508D01*
X169934779Y-105627452D01*
X169934778Y-105627452D01*
X169934776Y-105627453D01*
X169758082Y-105662600D01*
X169577918Y-105662600D01*
X169401224Y-105627453D01*
X169401222Y-105627452D01*
X169401221Y-105627452D01*
X169234775Y-105558508D01*
X169084977Y-105458416D01*
X169084974Y-105458414D01*
X168957586Y-105331026D01*
X168857493Y-105181226D01*
X168857492Y-105181225D01*
X168792117Y-105023396D01*
X168784525Y-105005067D01*
X168783487Y-105001645D01*
X168771937Y-104980033D01*
X168756392Y-104961091D01*
X168737451Y-104945544D01*
X168715840Y-104933992D01*
X168692392Y-104926878D01*
X168668005Y-104924475D01*
X168643619Y-104926876D01*
X168620170Y-104933988D01*
X168598558Y-104945538D01*
X168579616Y-104961083D01*
X168564069Y-104980024D01*
X168552517Y-105001635D01*
X168551478Y-105005060D01*
X168536340Y-105041605D01*
X168478508Y-105181225D01*
X168478507Y-105181226D01*
X168378414Y-105331026D01*
X168251026Y-105458414D01*
X168251023Y-105458416D01*
X168101225Y-105558508D01*
X167934779Y-105627452D01*
X167934778Y-105627452D01*
X167934776Y-105627453D01*
X167758082Y-105662600D01*
X167577918Y-105662600D01*
X167401224Y-105627453D01*
X167401222Y-105627452D01*
X167401221Y-105627452D01*
X167234775Y-105558508D01*
X167084977Y-105458416D01*
X167084974Y-105458414D01*
X166957586Y-105331026D01*
X166857493Y-105181226D01*
X166857492Y-105181225D01*
X166792117Y-105023396D01*
X166784525Y-105005067D01*
X166783487Y-105001645D01*
X166771937Y-104980033D01*
X166756392Y-104961091D01*
X166737451Y-104945544D01*
X166715840Y-104933992D01*
X166692392Y-104926878D01*
X166668005Y-104924475D01*
X166643619Y-104926876D01*
X166620170Y-104933988D01*
X166598558Y-104945538D01*
X166579616Y-104961083D01*
X166564069Y-104980024D01*
X166552517Y-105001635D01*
X166551478Y-105005060D01*
X166536340Y-105041605D01*
X166478508Y-105181225D01*
X166478507Y-105181226D01*
X166378414Y-105331026D01*
X166251026Y-105458414D01*
X166251023Y-105458416D01*
X166101225Y-105558508D01*
X165934779Y-105627452D01*
X165934778Y-105627452D01*
X165934776Y-105627453D01*
X165758082Y-105662600D01*
X165577918Y-105662600D01*
X165401224Y-105627453D01*
X165401222Y-105627452D01*
X165401221Y-105627452D01*
X165234775Y-105558508D01*
X165084977Y-105458416D01*
X165084974Y-105458414D01*
X164957586Y-105331026D01*
X164857493Y-105181226D01*
X164857492Y-105181225D01*
X164792117Y-105023396D01*
X164784525Y-105005067D01*
X164783487Y-105001645D01*
X164771937Y-104980033D01*
X164756392Y-104961091D01*
X164737451Y-104945544D01*
X164715840Y-104933992D01*
X164692392Y-104926878D01*
X164668005Y-104924475D01*
X164643619Y-104926876D01*
X164620170Y-104933988D01*
X164598558Y-104945538D01*
X164579616Y-104961083D01*
X164564069Y-104980024D01*
X164552517Y-105001635D01*
X164551478Y-105005060D01*
X164536340Y-105041605D01*
X164478508Y-105181225D01*
X164478507Y-105181226D01*
X164378414Y-105331026D01*
X164251026Y-105458414D01*
X164251023Y-105458416D01*
X164101225Y-105558508D01*
X163934779Y-105627452D01*
X163934778Y-105627452D01*
X163934776Y-105627453D01*
X163758082Y-105662600D01*
X163577918Y-105662600D01*
X163401224Y-105627453D01*
X163401222Y-105627452D01*
X163401221Y-105627452D01*
X163234775Y-105558508D01*
X163084977Y-105458416D01*
X163084974Y-105458414D01*
X162957586Y-105331026D01*
X162857493Y-105181226D01*
X162857492Y-105181225D01*
X162792117Y-105023396D01*
X162784525Y-105005067D01*
X162783487Y-105001645D01*
X162771937Y-104980033D01*
X162756392Y-104961091D01*
X162737451Y-104945544D01*
X162715840Y-104933992D01*
X162692392Y-104926878D01*
X162668005Y-104924475D01*
X162643619Y-104926876D01*
X162620170Y-104933988D01*
X162598558Y-104945538D01*
X162579616Y-104961083D01*
X162564069Y-104980024D01*
X162552517Y-105001635D01*
X162551478Y-105005060D01*
X162536340Y-105041605D01*
X162478508Y-105181225D01*
X162478507Y-105181226D01*
X162378414Y-105331026D01*
X162251026Y-105458414D01*
X162251023Y-105458416D01*
X162101225Y-105558508D01*
X161934779Y-105627452D01*
X161934778Y-105627452D01*
X161934776Y-105627453D01*
X161758082Y-105662600D01*
X161577918Y-105662600D01*
X161401224Y-105627453D01*
X161401222Y-105627452D01*
X161401221Y-105627452D01*
X161234775Y-105558508D01*
X161084977Y-105458416D01*
X161084974Y-105458414D01*
X160957586Y-105331026D01*
X160857493Y-105181226D01*
X160857492Y-105181225D01*
X160792117Y-105023396D01*
X160784525Y-105005067D01*
X160783487Y-105001645D01*
X160771937Y-104980033D01*
X160756392Y-104961091D01*
X160737451Y-104945544D01*
X160715840Y-104933992D01*
X160692392Y-104926878D01*
X160668005Y-104924475D01*
X160643619Y-104926876D01*
X160620170Y-104933988D01*
X160598558Y-104945538D01*
X160579616Y-104961083D01*
X160564069Y-104980024D01*
X160552517Y-105001635D01*
X160551478Y-105005060D01*
X160536340Y-105041605D01*
X160478508Y-105181225D01*
X160478507Y-105181226D01*
X160378414Y-105331026D01*
X160251026Y-105458414D01*
X160251023Y-105458416D01*
X160101225Y-105558508D01*
X159934779Y-105627452D01*
X159934778Y-105627452D01*
X159934776Y-105627453D01*
X159758082Y-105662600D01*
X159577918Y-105662600D01*
X159401224Y-105627453D01*
X159401222Y-105627452D01*
X159401221Y-105627452D01*
X159234775Y-105558508D01*
X159084977Y-105458416D01*
X159084974Y-105458414D01*
X158957586Y-105331026D01*
X158857493Y-105181226D01*
X158857492Y-105181225D01*
X158823083Y-105098155D01*
X158811534Y-105076547D01*
X158795988Y-105057605D01*
X158777046Y-105042060D01*
X158755435Y-105030509D01*
X158731986Y-105023396D01*
X158707600Y-105020994D01*
X158683213Y-105023396D01*
X158659764Y-105030509D01*
X158638153Y-105042060D01*
X158619211Y-105057606D01*
X158603666Y-105076548D01*
X158592115Y-105098159D01*
X158585002Y-105121608D01*
X158582600Y-105145994D01*
X158582600Y-105799000D01*
X156753400Y-105799000D01*
X156753400Y-103697000D01*
X158582600Y-103697000D01*
X158582600Y-104350006D01*
X158582600Y-104350006D01*
G37*
G36*
X126806443Y-103291519D02*
G01*
X126872627Y-103298037D01*
X126985853Y-103332384D01*
X127042467Y-103349557D01*
X127181087Y-103423652D01*
X127198991Y-103433222D01*
X127201157Y-103435000D01*
X127336186Y-103545814D01*
X127419448Y-103647271D01*
X127448778Y-103683009D01*
X127448779Y-103683011D01*
X127532443Y-103839533D01*
X127532443Y-103839534D01*
X127583963Y-104009373D01*
X127601359Y-104186000D01*
X127583963Y-104362627D01*
X127552760Y-104465491D01*
X127532443Y-104532467D01*
X127499195Y-104594668D01*
X127448778Y-104688991D01*
X127431791Y-104709689D01*
X127336186Y-104826186D01*
X127263714Y-104885661D01*
X127198991Y-104938778D01*
X127198989Y-104938779D01*
X127042467Y-105022443D01*
X127015876Y-105030509D01*
X126872627Y-105073963D01*
X126806443Y-105080481D01*
X126740260Y-105087000D01*
X126651740Y-105087000D01*
X126585557Y-105080481D01*
X126519373Y-105073963D01*
X126376124Y-105030509D01*
X126349533Y-105022443D01*
X126193011Y-104938779D01*
X126193009Y-104938778D01*
X126128286Y-104885661D01*
X126055814Y-104826186D01*
X125960209Y-104709689D01*
X125943222Y-104688991D01*
X125892805Y-104594668D01*
X125859557Y-104532467D01*
X125839240Y-104465491D01*
X125808037Y-104362627D01*
X125790641Y-104186000D01*
X125808037Y-104009373D01*
X125859557Y-103839534D01*
X125859557Y-103839533D01*
X125943221Y-103683011D01*
X125943222Y-103683009D01*
X125972552Y-103647271D01*
X126055814Y-103545814D01*
X126190843Y-103435000D01*
X126193009Y-103433222D01*
X126210913Y-103423652D01*
X126349533Y-103349557D01*
X126406147Y-103332384D01*
X126519373Y-103298037D01*
X126585557Y-103291519D01*
X126651740Y-103285000D01*
X126740260Y-103285000D01*
X126806443Y-103291519D01*
X126806443Y-103291519D01*
G37*
G36*
X130137000Y-105087000D02*
G01*
X128335000Y-105087000D01*
X128335000Y-103285000D01*
X130137000Y-103285000D01*
X130137000Y-105087000D01*
X130137000Y-105087000D01*
G37*
G36*
X151040442Y-101467518D02*
G01*
X151106627Y-101474037D01*
X151219853Y-101508384D01*
X151276467Y-101525557D01*
X151415087Y-101599652D01*
X151432991Y-101609222D01*
X151468729Y-101638552D01*
X151570186Y-101721814D01*
X151653448Y-101823271D01*
X151682778Y-101859009D01*
X151682779Y-101859011D01*
X151766443Y-102015533D01*
X151766443Y-102015534D01*
X151817963Y-102185373D01*
X151835359Y-102362000D01*
X151817963Y-102538627D01*
X151783616Y-102651853D01*
X151766443Y-102708467D01*
X151692348Y-102847087D01*
X151682778Y-102864991D01*
X151653448Y-102900729D01*
X151570186Y-103002186D01*
X151468729Y-103085448D01*
X151432991Y-103114778D01*
X151432989Y-103114779D01*
X151276467Y-103198443D01*
X151219853Y-103215616D01*
X151106627Y-103249963D01*
X151040442Y-103256482D01*
X150974260Y-103263000D01*
X150885740Y-103263000D01*
X150819558Y-103256482D01*
X150753373Y-103249963D01*
X150640147Y-103215616D01*
X150583533Y-103198443D01*
X150427011Y-103114779D01*
X150427009Y-103114778D01*
X150391271Y-103085448D01*
X150289814Y-103002186D01*
X150206552Y-102900729D01*
X150177222Y-102864991D01*
X150167652Y-102847087D01*
X150093557Y-102708467D01*
X150076384Y-102651853D01*
X150042037Y-102538627D01*
X150024641Y-102362000D01*
X150042037Y-102185373D01*
X150093557Y-102015534D01*
X150093557Y-102015533D01*
X150177221Y-101859011D01*
X150177222Y-101859009D01*
X150206552Y-101823271D01*
X150289814Y-101721814D01*
X150391271Y-101638552D01*
X150427009Y-101609222D01*
X150444913Y-101599652D01*
X150583533Y-101525557D01*
X150640147Y-101508384D01*
X150753373Y-101474037D01*
X150819558Y-101467518D01*
X150885740Y-101461000D01*
X150974260Y-101461000D01*
X151040442Y-101467518D01*
X151040442Y-101467518D01*
G37*
G36*
X151040442Y-98927518D02*
G01*
X151106627Y-98934037D01*
X151219853Y-98968384D01*
X151276467Y-98985557D01*
X151415087Y-99059652D01*
X151432991Y-99069222D01*
X151468729Y-99098552D01*
X151570186Y-99181814D01*
X151653448Y-99283271D01*
X151682778Y-99319009D01*
X151682779Y-99319011D01*
X151766443Y-99475533D01*
X151766443Y-99475534D01*
X151817963Y-99645373D01*
X151835359Y-99822000D01*
X151817963Y-99998627D01*
X151783616Y-100111853D01*
X151766443Y-100168467D01*
X151692348Y-100307087D01*
X151682778Y-100324991D01*
X151653448Y-100360729D01*
X151570186Y-100462186D01*
X151468729Y-100545448D01*
X151432991Y-100574778D01*
X151432989Y-100574779D01*
X151276467Y-100658443D01*
X151219853Y-100675616D01*
X151106627Y-100709963D01*
X151040443Y-100716481D01*
X150974260Y-100723000D01*
X150885740Y-100723000D01*
X150819558Y-100716482D01*
X150753373Y-100709963D01*
X150640147Y-100675616D01*
X150583533Y-100658443D01*
X150427011Y-100574779D01*
X150427009Y-100574778D01*
X150391271Y-100545448D01*
X150289814Y-100462186D01*
X150206552Y-100360729D01*
X150177222Y-100324991D01*
X150167652Y-100307087D01*
X150093557Y-100168467D01*
X150076384Y-100111853D01*
X150042037Y-99998627D01*
X150024641Y-99822000D01*
X150042037Y-99645373D01*
X150093557Y-99475534D01*
X150093557Y-99475533D01*
X150177221Y-99319011D01*
X150177222Y-99319009D01*
X150206552Y-99283271D01*
X150289814Y-99181814D01*
X150391271Y-99098552D01*
X150427009Y-99069222D01*
X150444913Y-99059652D01*
X150583533Y-98985557D01*
X150640147Y-98968384D01*
X150753373Y-98934037D01*
X150819557Y-98927519D01*
X150885740Y-98921000D01*
X150974260Y-98921000D01*
X151040442Y-98927518D01*
X151040442Y-98927518D01*
G37*
G36*
X151040442Y-96387518D02*
G01*
X151106627Y-96394037D01*
X151219853Y-96428384D01*
X151276467Y-96445557D01*
X151415087Y-96519652D01*
X151432991Y-96529222D01*
X151468729Y-96558552D01*
X151570186Y-96641814D01*
X151653448Y-96743271D01*
X151682778Y-96779009D01*
X151682779Y-96779011D01*
X151766443Y-96935533D01*
X151766443Y-96935534D01*
X151817963Y-97105373D01*
X151835359Y-97282000D01*
X151817963Y-97458627D01*
X151783616Y-97571853D01*
X151766443Y-97628467D01*
X151692348Y-97767087D01*
X151682778Y-97784991D01*
X151653448Y-97820729D01*
X151570186Y-97922186D01*
X151468729Y-98005448D01*
X151432991Y-98034778D01*
X151432989Y-98034779D01*
X151276467Y-98118443D01*
X151219853Y-98135616D01*
X151106627Y-98169963D01*
X151040442Y-98176482D01*
X150974260Y-98183000D01*
X150885740Y-98183000D01*
X150819557Y-98176481D01*
X150753373Y-98169963D01*
X150640147Y-98135616D01*
X150583533Y-98118443D01*
X150427011Y-98034779D01*
X150427009Y-98034778D01*
X150391271Y-98005448D01*
X150289814Y-97922186D01*
X150206552Y-97820729D01*
X150177222Y-97784991D01*
X150167652Y-97767087D01*
X150093557Y-97628467D01*
X150076384Y-97571853D01*
X150042037Y-97458627D01*
X150024641Y-97282000D01*
X150042037Y-97105373D01*
X150093557Y-96935534D01*
X150093557Y-96935533D01*
X150177221Y-96779011D01*
X150177222Y-96779009D01*
X150206552Y-96743271D01*
X150289814Y-96641814D01*
X150391271Y-96558552D01*
X150427009Y-96529222D01*
X150444913Y-96519652D01*
X150583533Y-96445557D01*
X150640147Y-96428384D01*
X150753373Y-96394037D01*
X150819558Y-96387518D01*
X150885740Y-96381000D01*
X150974260Y-96381000D01*
X151040442Y-96387518D01*
X151040442Y-96387518D01*
G37*
G36*
X151040443Y-93847519D02*
G01*
X151106627Y-93854037D01*
X151219853Y-93888384D01*
X151276467Y-93905557D01*
X151415087Y-93979652D01*
X151432991Y-93989222D01*
X151468729Y-94018552D01*
X151570186Y-94101814D01*
X151653448Y-94203271D01*
X151682778Y-94239009D01*
X151682779Y-94239011D01*
X151766443Y-94395533D01*
X151783616Y-94452147D01*
X151817963Y-94565373D01*
X151835359Y-94742000D01*
X151817963Y-94918627D01*
X151783616Y-95031853D01*
X151766443Y-95088467D01*
X151692348Y-95227087D01*
X151682778Y-95244991D01*
X151653448Y-95280729D01*
X151570186Y-95382186D01*
X151468729Y-95465448D01*
X151432991Y-95494778D01*
X151432989Y-95494779D01*
X151276467Y-95578443D01*
X151219853Y-95595616D01*
X151106627Y-95629963D01*
X151040442Y-95636482D01*
X150974260Y-95643000D01*
X150885740Y-95643000D01*
X150819558Y-95636482D01*
X150753373Y-95629963D01*
X150640147Y-95595616D01*
X150583533Y-95578443D01*
X150427011Y-95494779D01*
X150427009Y-95494778D01*
X150391271Y-95465448D01*
X150289814Y-95382186D01*
X150206552Y-95280729D01*
X150177222Y-95244991D01*
X150167652Y-95227087D01*
X150093557Y-95088467D01*
X150076384Y-95031853D01*
X150042037Y-94918627D01*
X150024641Y-94742000D01*
X150042037Y-94565373D01*
X150076384Y-94452147D01*
X150093557Y-94395533D01*
X150177221Y-94239011D01*
X150177222Y-94239009D01*
X150206552Y-94203271D01*
X150289814Y-94101814D01*
X150391271Y-94018552D01*
X150427009Y-93989222D01*
X150444913Y-93979652D01*
X150583533Y-93905557D01*
X150640147Y-93888384D01*
X150753373Y-93854037D01*
X150819557Y-93847519D01*
X150885740Y-93841000D01*
X150974260Y-93841000D01*
X151040443Y-93847519D01*
X151040443Y-93847519D01*
G37*
G36*
X102343444Y-93105375D02*
G01*
X102380259Y-93116542D01*
X102414182Y-93134675D01*
X102443920Y-93159080D01*
X102468325Y-93188818D01*
X102486458Y-93222741D01*
X102497625Y-93259556D01*
X102502000Y-93303977D01*
X102502000Y-94225023D01*
X102497625Y-94269444D01*
X102486458Y-94306259D01*
X102468325Y-94340182D01*
X102443920Y-94369920D01*
X102414182Y-94394325D01*
X102380259Y-94412458D01*
X102343444Y-94423625D01*
X102299023Y-94428000D01*
X97852977Y-94428000D01*
X97808556Y-94423625D01*
X97771741Y-94412458D01*
X97737818Y-94394325D01*
X97708080Y-94369920D01*
X97683675Y-94340182D01*
X97665542Y-94306259D01*
X97654375Y-94269444D01*
X97650000Y-94225023D01*
X97650000Y-93303977D01*
X97654375Y-93259556D01*
X97665542Y-93222741D01*
X97683675Y-93188818D01*
X97708080Y-93159080D01*
X97737818Y-93134675D01*
X97771741Y-93116542D01*
X97808556Y-93105375D01*
X97852977Y-93101000D01*
X102299023Y-93101000D01*
X102343444Y-93105375D01*
X102343444Y-93105375D01*
G37*
G36*
X151040443Y-91307519D02*
G01*
X151106627Y-91314037D01*
X151219853Y-91348384D01*
X151276467Y-91365557D01*
X151415087Y-91439652D01*
X151432991Y-91449222D01*
X151468729Y-91478552D01*
X151570186Y-91561814D01*
X151653448Y-91663271D01*
X151682778Y-91699009D01*
X151682779Y-91699011D01*
X151766443Y-91855533D01*
X151766443Y-91855534D01*
X151817963Y-92025373D01*
X151835359Y-92202000D01*
X151817963Y-92378627D01*
X151787497Y-92479060D01*
X151766443Y-92548467D01*
X151692348Y-92687087D01*
X151682778Y-92704991D01*
X151653448Y-92740729D01*
X151570186Y-92842186D01*
X151468729Y-92925448D01*
X151432991Y-92954778D01*
X151432989Y-92954779D01*
X151276467Y-93038443D01*
X151219853Y-93055616D01*
X151106627Y-93089963D01*
X151040443Y-93096481D01*
X150974260Y-93103000D01*
X150885740Y-93103000D01*
X150819557Y-93096481D01*
X150753373Y-93089963D01*
X150640147Y-93055616D01*
X150583533Y-93038443D01*
X150427011Y-92954779D01*
X150427009Y-92954778D01*
X150391271Y-92925448D01*
X150289814Y-92842186D01*
X150206552Y-92740729D01*
X150177222Y-92704991D01*
X150167652Y-92687087D01*
X150093557Y-92548467D01*
X150072503Y-92479060D01*
X150042037Y-92378627D01*
X150024641Y-92202000D01*
X150042037Y-92025373D01*
X150093557Y-91855534D01*
X150093557Y-91855533D01*
X150177221Y-91699011D01*
X150177222Y-91699009D01*
X150206552Y-91663271D01*
X150289814Y-91561814D01*
X150391271Y-91478552D01*
X150427009Y-91449222D01*
X150444913Y-91439652D01*
X150583533Y-91365557D01*
X150640147Y-91348384D01*
X150753373Y-91314037D01*
X150819557Y-91307519D01*
X150885740Y-91301000D01*
X150974260Y-91301000D01*
X151040443Y-91307519D01*
X151040443Y-91307519D01*
G37*
G36*
X177010905Y-88886789D02*
G01*
X177309350Y-88946153D01*
X177637122Y-89081921D01*
X177932109Y-89279025D01*
X178182975Y-89529891D01*
X178380079Y-89824878D01*
X178515847Y-90152650D01*
X178585060Y-90500611D01*
X178585060Y-90855389D01*
X178515847Y-91203350D01*
X178380079Y-91531122D01*
X178182975Y-91826109D01*
X177932109Y-92076975D01*
X177637122Y-92274079D01*
X177309350Y-92409847D01*
X177010905Y-92469211D01*
X176961390Y-92479060D01*
X176606610Y-92479060D01*
X176557095Y-92469211D01*
X176258650Y-92409847D01*
X175930878Y-92274079D01*
X175635891Y-92076975D01*
X175385025Y-91826109D01*
X175187921Y-91531122D01*
X175052153Y-91203350D01*
X174982940Y-90855389D01*
X174982940Y-90500611D01*
X175052153Y-90152650D01*
X175187921Y-89824878D01*
X175385025Y-89529891D01*
X175635891Y-89279025D01*
X175930878Y-89081921D01*
X176258650Y-88946153D01*
X176557095Y-88886789D01*
X176606610Y-88876940D01*
X176961390Y-88876940D01*
X177010905Y-88886789D01*
X177010905Y-88886789D01*
G37*
G36*
X102343444Y-89980375D02*
G01*
X102380259Y-89991542D01*
X102414182Y-90009675D01*
X102443920Y-90034080D01*
X102468325Y-90063818D01*
X102486458Y-90097741D01*
X102497625Y-90134556D01*
X102502000Y-90178977D01*
X102502000Y-91100023D01*
X102497625Y-91144444D01*
X102486458Y-91181259D01*
X102468325Y-91215182D01*
X102443920Y-91244920D01*
X102414182Y-91269325D01*
X102380259Y-91287458D01*
X102343444Y-91298625D01*
X102299023Y-91303000D01*
X97852977Y-91303000D01*
X97808556Y-91298625D01*
X97771741Y-91287458D01*
X97737818Y-91269325D01*
X97708080Y-91244920D01*
X97683675Y-91215182D01*
X97665542Y-91181259D01*
X97654375Y-91144444D01*
X97650000Y-91100023D01*
X97650000Y-90178977D01*
X97654375Y-90134556D01*
X97665542Y-90097741D01*
X97683675Y-90063818D01*
X97708080Y-90034080D01*
X97737818Y-90009675D01*
X97771741Y-89991542D01*
X97808556Y-89980375D01*
X97852977Y-89976000D01*
X102299023Y-89976000D01*
X102343444Y-89980375D01*
X102343444Y-89980375D01*
G37*
G36*
X157934776Y-86768547D02*
G01*
X157934778Y-86768548D01*
X157934779Y-86768548D01*
X158101225Y-86837492D01*
X158249004Y-86936235D01*
X158251026Y-86937586D01*
X158378414Y-87064974D01*
X158378416Y-87064977D01*
X158478508Y-87214775D01*
X158517833Y-87309714D01*
X158551475Y-87390933D01*
X158552513Y-87394355D01*
X158564063Y-87415967D01*
X158579608Y-87434909D01*
X158598549Y-87450456D01*
X158620160Y-87462008D01*
X158643608Y-87469122D01*
X158667995Y-87471525D01*
X158692381Y-87469124D01*
X158715830Y-87462012D01*
X158737442Y-87450462D01*
X158756384Y-87434917D01*
X158771931Y-87415976D01*
X158783483Y-87394365D01*
X158784522Y-87390940D01*
X158818167Y-87309714D01*
X158857492Y-87214775D01*
X158957584Y-87064977D01*
X158957586Y-87064974D01*
X159084974Y-86937586D01*
X159086996Y-86936235D01*
X159234775Y-86837492D01*
X159401221Y-86768548D01*
X159401222Y-86768548D01*
X159401224Y-86768547D01*
X159577918Y-86733400D01*
X159758082Y-86733400D01*
X159934776Y-86768547D01*
X159934778Y-86768548D01*
X159934779Y-86768548D01*
X160101225Y-86837492D01*
X160249004Y-86936235D01*
X160251026Y-86937586D01*
X160378414Y-87064974D01*
X160378416Y-87064977D01*
X160478508Y-87214775D01*
X160517833Y-87309714D01*
X160551475Y-87390933D01*
X160552513Y-87394355D01*
X160564063Y-87415967D01*
X160579608Y-87434909D01*
X160598549Y-87450456D01*
X160620160Y-87462008D01*
X160643608Y-87469122D01*
X160667995Y-87471525D01*
X160692381Y-87469124D01*
X160715830Y-87462012D01*
X160737442Y-87450462D01*
X160756384Y-87434917D01*
X160771931Y-87415976D01*
X160783483Y-87394365D01*
X160784522Y-87390940D01*
X160818167Y-87309714D01*
X160857492Y-87214775D01*
X160957584Y-87064977D01*
X160957586Y-87064974D01*
X161084974Y-86937586D01*
X161086996Y-86936235D01*
X161234775Y-86837492D01*
X161401221Y-86768548D01*
X161401222Y-86768548D01*
X161401224Y-86768547D01*
X161577918Y-86733400D01*
X161758082Y-86733400D01*
X161934776Y-86768547D01*
X161934778Y-86768548D01*
X161934779Y-86768548D01*
X162101225Y-86837492D01*
X162249004Y-86936235D01*
X162251026Y-86937586D01*
X162378414Y-87064974D01*
X162378416Y-87064977D01*
X162478508Y-87214775D01*
X162517833Y-87309714D01*
X162551475Y-87390933D01*
X162552513Y-87394355D01*
X162564063Y-87415967D01*
X162579608Y-87434909D01*
X162598549Y-87450456D01*
X162620160Y-87462008D01*
X162643608Y-87469122D01*
X162667995Y-87471525D01*
X162692381Y-87469124D01*
X162715830Y-87462012D01*
X162737442Y-87450462D01*
X162756384Y-87434917D01*
X162771931Y-87415976D01*
X162783483Y-87394365D01*
X162784522Y-87390940D01*
X162818167Y-87309714D01*
X162857492Y-87214775D01*
X162957584Y-87064977D01*
X162957586Y-87064974D01*
X163084974Y-86937586D01*
X163086996Y-86936235D01*
X163234775Y-86837492D01*
X163401221Y-86768548D01*
X163401222Y-86768548D01*
X163401224Y-86768547D01*
X163577918Y-86733400D01*
X163758082Y-86733400D01*
X163934776Y-86768547D01*
X163934778Y-86768548D01*
X163934779Y-86768548D01*
X164101225Y-86837492D01*
X164249004Y-86936235D01*
X164251026Y-86937586D01*
X164378414Y-87064974D01*
X164378416Y-87064977D01*
X164478508Y-87214775D01*
X164517833Y-87309714D01*
X164551475Y-87390933D01*
X164552513Y-87394355D01*
X164564063Y-87415967D01*
X164579608Y-87434909D01*
X164598549Y-87450456D01*
X164620160Y-87462008D01*
X164643608Y-87469122D01*
X164667995Y-87471525D01*
X164692381Y-87469124D01*
X164715830Y-87462012D01*
X164737442Y-87450462D01*
X164756384Y-87434917D01*
X164771931Y-87415976D01*
X164783483Y-87394365D01*
X164784522Y-87390940D01*
X164818167Y-87309714D01*
X164857492Y-87214775D01*
X164957584Y-87064977D01*
X164957586Y-87064974D01*
X165084974Y-86937586D01*
X165086996Y-86936235D01*
X165234775Y-86837492D01*
X165401221Y-86768548D01*
X165401222Y-86768548D01*
X165401224Y-86768547D01*
X165577918Y-86733400D01*
X165758082Y-86733400D01*
X165934776Y-86768547D01*
X165934778Y-86768548D01*
X165934779Y-86768548D01*
X166101225Y-86837492D01*
X166249004Y-86936235D01*
X166251026Y-86937586D01*
X166378414Y-87064974D01*
X166378416Y-87064977D01*
X166478508Y-87214775D01*
X166517833Y-87309714D01*
X166551475Y-87390933D01*
X166552513Y-87394355D01*
X166564063Y-87415967D01*
X166579608Y-87434909D01*
X166598549Y-87450456D01*
X166620160Y-87462008D01*
X166643608Y-87469122D01*
X166667995Y-87471525D01*
X166692381Y-87469124D01*
X166715830Y-87462012D01*
X166737442Y-87450462D01*
X166756384Y-87434917D01*
X166771931Y-87415976D01*
X166783483Y-87394365D01*
X166784522Y-87390940D01*
X166818167Y-87309714D01*
X166857492Y-87214775D01*
X166957584Y-87064977D01*
X166957586Y-87064974D01*
X167084974Y-86937586D01*
X167086996Y-86936235D01*
X167234775Y-86837492D01*
X167401221Y-86768548D01*
X167401222Y-86768548D01*
X167401224Y-86768547D01*
X167577918Y-86733400D01*
X167758082Y-86733400D01*
X167934776Y-86768547D01*
X167934778Y-86768548D01*
X167934779Y-86768548D01*
X168101225Y-86837492D01*
X168249004Y-86936235D01*
X168251026Y-86937586D01*
X168378414Y-87064974D01*
X168378416Y-87064977D01*
X168478508Y-87214775D01*
X168517833Y-87309714D01*
X168551475Y-87390933D01*
X168552513Y-87394355D01*
X168564063Y-87415967D01*
X168579608Y-87434909D01*
X168598549Y-87450456D01*
X168620160Y-87462008D01*
X168643608Y-87469122D01*
X168667995Y-87471525D01*
X168692381Y-87469124D01*
X168715830Y-87462012D01*
X168737442Y-87450462D01*
X168756384Y-87434917D01*
X168771931Y-87415976D01*
X168783483Y-87394365D01*
X168784522Y-87390940D01*
X168818167Y-87309714D01*
X168857492Y-87214775D01*
X168957584Y-87064977D01*
X168957586Y-87064974D01*
X169084974Y-86937586D01*
X169086996Y-86936235D01*
X169234775Y-86837492D01*
X169401221Y-86768548D01*
X169401222Y-86768548D01*
X169401224Y-86768547D01*
X169577918Y-86733400D01*
X169758082Y-86733400D01*
X169934776Y-86768547D01*
X169934778Y-86768548D01*
X169934779Y-86768548D01*
X170101225Y-86837492D01*
X170249004Y-86936235D01*
X170251026Y-86937586D01*
X170378414Y-87064974D01*
X170378416Y-87064977D01*
X170478508Y-87214775D01*
X170517833Y-87309714D01*
X170551475Y-87390933D01*
X170552513Y-87394355D01*
X170564063Y-87415967D01*
X170579608Y-87434909D01*
X170598549Y-87450456D01*
X170620160Y-87462008D01*
X170643608Y-87469122D01*
X170667995Y-87471525D01*
X170692381Y-87469124D01*
X170715830Y-87462012D01*
X170737442Y-87450462D01*
X170756384Y-87434917D01*
X170771931Y-87415976D01*
X170783483Y-87394365D01*
X170784522Y-87390940D01*
X170818167Y-87309714D01*
X170857492Y-87214775D01*
X170957584Y-87064977D01*
X170957586Y-87064974D01*
X171084974Y-86937586D01*
X171086996Y-86936235D01*
X171234775Y-86837492D01*
X171401221Y-86768548D01*
X171401222Y-86768548D01*
X171401224Y-86768547D01*
X171577918Y-86733400D01*
X171758082Y-86733400D01*
X171934776Y-86768547D01*
X171934778Y-86768548D01*
X171934779Y-86768548D01*
X172101225Y-86837492D01*
X172249004Y-86936235D01*
X172251026Y-86937586D01*
X172378414Y-87064974D01*
X172378416Y-87064977D01*
X172478508Y-87214775D01*
X172547452Y-87381221D01*
X172547453Y-87381224D01*
X172582600Y-87557918D01*
X172582600Y-87738082D01*
X172549386Y-87905060D01*
X172547452Y-87914779D01*
X172478508Y-88081225D01*
X172478507Y-88081226D01*
X172378414Y-88231026D01*
X172251026Y-88358414D01*
X172251023Y-88358416D01*
X172101225Y-88458508D01*
X171934779Y-88527452D01*
X171934778Y-88527452D01*
X171934776Y-88527453D01*
X171758082Y-88562600D01*
X171577918Y-88562600D01*
X171401224Y-88527453D01*
X171401222Y-88527452D01*
X171401221Y-88527452D01*
X171234775Y-88458508D01*
X171084977Y-88358416D01*
X171084974Y-88358414D01*
X170957586Y-88231026D01*
X170857493Y-88081226D01*
X170857492Y-88081225D01*
X170788548Y-87914779D01*
X170788547Y-87914776D01*
X170784525Y-87905067D01*
X170783487Y-87901645D01*
X170771937Y-87880033D01*
X170756392Y-87861091D01*
X170737451Y-87845544D01*
X170715840Y-87833992D01*
X170692392Y-87826878D01*
X170668005Y-87824475D01*
X170643619Y-87826876D01*
X170620170Y-87833988D01*
X170598558Y-87845538D01*
X170579616Y-87861083D01*
X170564069Y-87880024D01*
X170552517Y-87901635D01*
X170551478Y-87905060D01*
X170547453Y-87914776D01*
X170547452Y-87914779D01*
X170478508Y-88081225D01*
X170478507Y-88081226D01*
X170378414Y-88231026D01*
X170251026Y-88358414D01*
X170251023Y-88358416D01*
X170101225Y-88458508D01*
X169934779Y-88527452D01*
X169934778Y-88527452D01*
X169934776Y-88527453D01*
X169758082Y-88562600D01*
X169577918Y-88562600D01*
X169401224Y-88527453D01*
X169401222Y-88527452D01*
X169401221Y-88527452D01*
X169234775Y-88458508D01*
X169084977Y-88358416D01*
X169084974Y-88358414D01*
X168957586Y-88231026D01*
X168857493Y-88081226D01*
X168857492Y-88081225D01*
X168788548Y-87914779D01*
X168788547Y-87914776D01*
X168784525Y-87905067D01*
X168783487Y-87901645D01*
X168771937Y-87880033D01*
X168756392Y-87861091D01*
X168737451Y-87845544D01*
X168715840Y-87833992D01*
X168692392Y-87826878D01*
X168668005Y-87824475D01*
X168643619Y-87826876D01*
X168620170Y-87833988D01*
X168598558Y-87845538D01*
X168579616Y-87861083D01*
X168564069Y-87880024D01*
X168552517Y-87901635D01*
X168551478Y-87905060D01*
X168547453Y-87914776D01*
X168547452Y-87914779D01*
X168478508Y-88081225D01*
X168478507Y-88081226D01*
X168378414Y-88231026D01*
X168251026Y-88358414D01*
X168251023Y-88358416D01*
X168101225Y-88458508D01*
X167934779Y-88527452D01*
X167934778Y-88527452D01*
X167934776Y-88527453D01*
X167758082Y-88562600D01*
X167577918Y-88562600D01*
X167401224Y-88527453D01*
X167401222Y-88527452D01*
X167401221Y-88527452D01*
X167234775Y-88458508D01*
X167084977Y-88358416D01*
X167084974Y-88358414D01*
X166957586Y-88231026D01*
X166857493Y-88081226D01*
X166857492Y-88081225D01*
X166788548Y-87914779D01*
X166788547Y-87914776D01*
X166784525Y-87905067D01*
X166783487Y-87901645D01*
X166771937Y-87880033D01*
X166756392Y-87861091D01*
X166737451Y-87845544D01*
X166715840Y-87833992D01*
X166692392Y-87826878D01*
X166668005Y-87824475D01*
X166643619Y-87826876D01*
X166620170Y-87833988D01*
X166598558Y-87845538D01*
X166579616Y-87861083D01*
X166564069Y-87880024D01*
X166552517Y-87901635D01*
X166551478Y-87905060D01*
X166547453Y-87914776D01*
X166547452Y-87914779D01*
X166478508Y-88081225D01*
X166478507Y-88081226D01*
X166378414Y-88231026D01*
X166251026Y-88358414D01*
X166251023Y-88358416D01*
X166101225Y-88458508D01*
X165934779Y-88527452D01*
X165934778Y-88527452D01*
X165934776Y-88527453D01*
X165758082Y-88562600D01*
X165577918Y-88562600D01*
X165401224Y-88527453D01*
X165401222Y-88527452D01*
X165401221Y-88527452D01*
X165234775Y-88458508D01*
X165084977Y-88358416D01*
X165084974Y-88358414D01*
X164957586Y-88231026D01*
X164857493Y-88081226D01*
X164857492Y-88081225D01*
X164788548Y-87914779D01*
X164788547Y-87914776D01*
X164784525Y-87905067D01*
X164783487Y-87901645D01*
X164771937Y-87880033D01*
X164756392Y-87861091D01*
X164737451Y-87845544D01*
X164715840Y-87833992D01*
X164692392Y-87826878D01*
X164668005Y-87824475D01*
X164643619Y-87826876D01*
X164620170Y-87833988D01*
X164598558Y-87845538D01*
X164579616Y-87861083D01*
X164564069Y-87880024D01*
X164552517Y-87901635D01*
X164551478Y-87905060D01*
X164547453Y-87914776D01*
X164547452Y-87914779D01*
X164478508Y-88081225D01*
X164478507Y-88081226D01*
X164378414Y-88231026D01*
X164251026Y-88358414D01*
X164251023Y-88358416D01*
X164101225Y-88458508D01*
X163934779Y-88527452D01*
X163934778Y-88527452D01*
X163934776Y-88527453D01*
X163758082Y-88562600D01*
X163577918Y-88562600D01*
X163401224Y-88527453D01*
X163401222Y-88527452D01*
X163401221Y-88527452D01*
X163234775Y-88458508D01*
X163084977Y-88358416D01*
X163084974Y-88358414D01*
X162957586Y-88231026D01*
X162857493Y-88081226D01*
X162857492Y-88081225D01*
X162788548Y-87914779D01*
X162788547Y-87914776D01*
X162784525Y-87905067D01*
X162783487Y-87901645D01*
X162771937Y-87880033D01*
X162756392Y-87861091D01*
X162737451Y-87845544D01*
X162715840Y-87833992D01*
X162692392Y-87826878D01*
X162668005Y-87824475D01*
X162643619Y-87826876D01*
X162620170Y-87833988D01*
X162598558Y-87845538D01*
X162579616Y-87861083D01*
X162564069Y-87880024D01*
X162552517Y-87901635D01*
X162551478Y-87905060D01*
X162547453Y-87914776D01*
X162547452Y-87914779D01*
X162478508Y-88081225D01*
X162478507Y-88081226D01*
X162378414Y-88231026D01*
X162251026Y-88358414D01*
X162251023Y-88358416D01*
X162101225Y-88458508D01*
X161934779Y-88527452D01*
X161934778Y-88527452D01*
X161934776Y-88527453D01*
X161758082Y-88562600D01*
X161577918Y-88562600D01*
X161401224Y-88527453D01*
X161401222Y-88527452D01*
X161401221Y-88527452D01*
X161234775Y-88458508D01*
X161084977Y-88358416D01*
X161084974Y-88358414D01*
X160957586Y-88231026D01*
X160857493Y-88081226D01*
X160857492Y-88081225D01*
X160788548Y-87914779D01*
X160788547Y-87914776D01*
X160784525Y-87905067D01*
X160783487Y-87901645D01*
X160771937Y-87880033D01*
X160756392Y-87861091D01*
X160737451Y-87845544D01*
X160715840Y-87833992D01*
X160692392Y-87826878D01*
X160668005Y-87824475D01*
X160643619Y-87826876D01*
X160620170Y-87833988D01*
X160598558Y-87845538D01*
X160579616Y-87861083D01*
X160564069Y-87880024D01*
X160552517Y-87901635D01*
X160551478Y-87905060D01*
X160547453Y-87914776D01*
X160547452Y-87914779D01*
X160478508Y-88081225D01*
X160478507Y-88081226D01*
X160378414Y-88231026D01*
X160251026Y-88358414D01*
X160251023Y-88358416D01*
X160101225Y-88458508D01*
X159934779Y-88527452D01*
X159934778Y-88527452D01*
X159934776Y-88527453D01*
X159758082Y-88562600D01*
X159577918Y-88562600D01*
X159401224Y-88527453D01*
X159401222Y-88527452D01*
X159401221Y-88527452D01*
X159234775Y-88458508D01*
X159084977Y-88358416D01*
X159084974Y-88358414D01*
X158957586Y-88231026D01*
X158857493Y-88081226D01*
X158857492Y-88081225D01*
X158788548Y-87914779D01*
X158788547Y-87914776D01*
X158784525Y-87905067D01*
X158783487Y-87901645D01*
X158771937Y-87880033D01*
X158756392Y-87861091D01*
X158737451Y-87845544D01*
X158715840Y-87833992D01*
X158692392Y-87826878D01*
X158668005Y-87824475D01*
X158643619Y-87826876D01*
X158620170Y-87833988D01*
X158598558Y-87845538D01*
X158579616Y-87861083D01*
X158564069Y-87880024D01*
X158552517Y-87901635D01*
X158551478Y-87905060D01*
X158547453Y-87914776D01*
X158547452Y-87914779D01*
X158478508Y-88081225D01*
X158478507Y-88081226D01*
X158378414Y-88231026D01*
X158251026Y-88358414D01*
X158251023Y-88358416D01*
X158101225Y-88458508D01*
X157934779Y-88527452D01*
X157934778Y-88527452D01*
X157934776Y-88527453D01*
X157758082Y-88562600D01*
X157577918Y-88562600D01*
X157401224Y-88527453D01*
X157401222Y-88527452D01*
X157401221Y-88527452D01*
X157234775Y-88458508D01*
X157084977Y-88358416D01*
X157084974Y-88358414D01*
X156957586Y-88231026D01*
X156857493Y-88081226D01*
X156857492Y-88081225D01*
X156788548Y-87914779D01*
X156786615Y-87905060D01*
X156753400Y-87738082D01*
X156753400Y-87557918D01*
X156788547Y-87381224D01*
X156788548Y-87381221D01*
X156857492Y-87214775D01*
X156957584Y-87064977D01*
X156957586Y-87064974D01*
X157084974Y-86937586D01*
X157086996Y-86936235D01*
X157234775Y-86837492D01*
X157401221Y-86768548D01*
X157401222Y-86768548D01*
X157401224Y-86768547D01*
X157577918Y-86733400D01*
X157758082Y-86733400D01*
X157934776Y-86768547D01*
X157934776Y-86768547D01*
G37*
G36*
X99233714Y-86570058D02*
G01*
X99233717Y-86570059D01*
X99351719Y-86605854D01*
X99351721Y-86605855D01*
X99460471Y-86663983D01*
X99555790Y-86742210D01*
X99634017Y-86837529D01*
X99692145Y-86946279D01*
X99727942Y-87064286D01*
X99740028Y-87187000D01*
X99727942Y-87309714D01*
X99727941Y-87309717D01*
X99702264Y-87394365D01*
X99692145Y-87427721D01*
X99634017Y-87536471D01*
X99555790Y-87631790D01*
X99460471Y-87710017D01*
X99460469Y-87710018D01*
X99351719Y-87768146D01*
X99255683Y-87797278D01*
X99233714Y-87803942D01*
X99141747Y-87813000D01*
X98430253Y-87813000D01*
X98338286Y-87803942D01*
X98316317Y-87797278D01*
X98220281Y-87768146D01*
X98111531Y-87710018D01*
X98111529Y-87710017D01*
X98016210Y-87631790D01*
X97937983Y-87536471D01*
X97879855Y-87427721D01*
X97869737Y-87394365D01*
X97844059Y-87309717D01*
X97844058Y-87309714D01*
X97831972Y-87187000D01*
X97844058Y-87064286D01*
X97879855Y-86946279D01*
X97937983Y-86837529D01*
X98016210Y-86742210D01*
X98111529Y-86663983D01*
X98220279Y-86605855D01*
X98220281Y-86605854D01*
X98338283Y-86570059D01*
X98338286Y-86570058D01*
X98430253Y-86561000D01*
X99141747Y-86561000D01*
X99233714Y-86570058D01*
X99233714Y-86570058D01*
G37*
G36*
X101624413Y-85367525D02*
G01*
X101699456Y-85390290D01*
X101709425Y-85393314D01*
X101787774Y-85435193D01*
X101856448Y-85491552D01*
X101912807Y-85560226D01*
X101954686Y-85638575D01*
X101954687Y-85638579D01*
X101980475Y-85723587D01*
X101989182Y-85812000D01*
X101980475Y-85900413D01*
X101957710Y-85975456D01*
X101954686Y-85985425D01*
X101926191Y-86038735D01*
X101912807Y-86063775D01*
X101887496Y-86094615D01*
X101863850Y-86123429D01*
X101850239Y-86143798D01*
X101840862Y-86166437D01*
X101836081Y-86190471D01*
X101836081Y-86214975D01*
X101840861Y-86239008D01*
X101850238Y-86261648D01*
X101863852Y-86282022D01*
X101881179Y-86299350D01*
X101901553Y-86312964D01*
X101924192Y-86322341D01*
X101948226Y-86327122D01*
X101972730Y-86327122D01*
X101996763Y-86322342D01*
X102005212Y-86318843D01*
X102012599Y-86316602D01*
X102012601Y-86316601D01*
X102158878Y-86272229D01*
X102158881Y-86272228D01*
X102272882Y-86261000D01*
X102899118Y-86261000D01*
X103013119Y-86272228D01*
X103013122Y-86272229D01*
X103159399Y-86316601D01*
X103159401Y-86316602D01*
X103294210Y-86388659D01*
X103412369Y-86485631D01*
X103509341Y-86603790D01*
X103509342Y-86603792D01*
X103581399Y-86738601D01*
X103590483Y-86768547D01*
X103625772Y-86884881D01*
X103640754Y-87037000D01*
X103625772Y-87189119D01*
X103581398Y-87335401D01*
X103509341Y-87470210D01*
X103412369Y-87588369D01*
X103294210Y-87685341D01*
X103248043Y-87710018D01*
X103159399Y-87757399D01*
X103040352Y-87793511D01*
X103013119Y-87801772D01*
X102899118Y-87813000D01*
X102272882Y-87813000D01*
X102158881Y-87801772D01*
X102131648Y-87793511D01*
X102012601Y-87757399D01*
X101923957Y-87710018D01*
X101877790Y-87685341D01*
X101759631Y-87588369D01*
X101662659Y-87470210D01*
X101590602Y-87335401D01*
X101546228Y-87189119D01*
X101531246Y-87037000D01*
X101546228Y-86884881D01*
X101581517Y-86768547D01*
X101590601Y-86738601D01*
X101662658Y-86603792D01*
X101662659Y-86603790D01*
X101759632Y-86485630D01*
X101796105Y-86455696D01*
X101813432Y-86438369D01*
X101827046Y-86417994D01*
X101836423Y-86395355D01*
X101841203Y-86371322D01*
X101841203Y-86346817D01*
X101836422Y-86322784D01*
X101827044Y-86300145D01*
X101813430Y-86279771D01*
X101796103Y-86262444D01*
X101775728Y-86248830D01*
X101753089Y-86239453D01*
X101729056Y-86234673D01*
X101704551Y-86234673D01*
X101680524Y-86239453D01*
X101659489Y-86245833D01*
X101624411Y-86256475D01*
X101558158Y-86263000D01*
X101513842Y-86263000D01*
X101447587Y-86256475D01*
X101372544Y-86233710D01*
X101362575Y-86230686D01*
X101284226Y-86188807D01*
X101215552Y-86132448D01*
X101159193Y-86063774D01*
X101117314Y-85985425D01*
X101114290Y-85975456D01*
X101091525Y-85900413D01*
X101082818Y-85812000D01*
X101091525Y-85723587D01*
X101117313Y-85638579D01*
X101117314Y-85638575D01*
X101159193Y-85560226D01*
X101215552Y-85491552D01*
X101284226Y-85435193D01*
X101362575Y-85393314D01*
X101372544Y-85390290D01*
X101447587Y-85367525D01*
X101513842Y-85361000D01*
X101558158Y-85361000D01*
X101624413Y-85367525D01*
X101624413Y-85367525D01*
G37*
G36*
X152103025Y-82776590D02*
G01*
X152254012Y-82822392D01*
X152393165Y-82896770D01*
X152515133Y-82996867D01*
X152615230Y-83118835D01*
X152689608Y-83257988D01*
X152735410Y-83408975D01*
X152750875Y-83566000D01*
X152735410Y-83723025D01*
X152689608Y-83874012D01*
X152615230Y-84013165D01*
X152515133Y-84135133D01*
X152393165Y-84235230D01*
X152254012Y-84309608D01*
X152103025Y-84355410D01*
X151985346Y-84367000D01*
X151906654Y-84367000D01*
X151788975Y-84355410D01*
X151637988Y-84309608D01*
X151498835Y-84235230D01*
X151376867Y-84135133D01*
X151276770Y-84013165D01*
X151202392Y-83874012D01*
X151156590Y-83723025D01*
X151141125Y-83566000D01*
X151156590Y-83408975D01*
X151202392Y-83257988D01*
X151276770Y-83118835D01*
X151376867Y-82996867D01*
X151498835Y-82896770D01*
X151637988Y-82822392D01*
X151788975Y-82776590D01*
X151906654Y-82765000D01*
X151985346Y-82765000D01*
X152103025Y-82776590D01*
X152103025Y-82776590D01*
G37*
G36*
X165525142Y-81768242D02*
G01*
X165673102Y-81829530D01*
X165806258Y-81918502D01*
X165919498Y-82031742D01*
X166008470Y-82164898D01*
X166069758Y-82312858D01*
X166101000Y-82469925D01*
X166101000Y-82630075D01*
X166069758Y-82787142D01*
X166024348Y-82896770D01*
X166008471Y-82935100D01*
X165920861Y-83066219D01*
X165919498Y-83068258D01*
X165806258Y-83181498D01*
X165673102Y-83270470D01*
X165525142Y-83331758D01*
X165368075Y-83363000D01*
X165207925Y-83363000D01*
X165050858Y-83331758D01*
X164902898Y-83270470D01*
X164769742Y-83181498D01*
X164656502Y-83068258D01*
X164655140Y-83066219D01*
X164567529Y-82935100D01*
X164551652Y-82896770D01*
X164506242Y-82787142D01*
X164475000Y-82630075D01*
X164475000Y-82469925D01*
X164506242Y-82312858D01*
X164567530Y-82164898D01*
X164656502Y-82031742D01*
X164769742Y-81918502D01*
X164902898Y-81829530D01*
X165050858Y-81768242D01*
X165207925Y-81737000D01*
X165368075Y-81737000D01*
X165525142Y-81768242D01*
X165525142Y-81768242D01*
G37*
G36*
X170605142Y-81768242D02*
G01*
X170753102Y-81829530D01*
X170886258Y-81918502D01*
X170999498Y-82031742D01*
X171088470Y-82164898D01*
X171149758Y-82312858D01*
X171181000Y-82469925D01*
X171181000Y-82630075D01*
X171149758Y-82787142D01*
X171104348Y-82896770D01*
X171088471Y-82935100D01*
X171000861Y-83066219D01*
X170999498Y-83068258D01*
X170886258Y-83181498D01*
X170753102Y-83270470D01*
X170605142Y-83331758D01*
X170448075Y-83363000D01*
X170287925Y-83363000D01*
X170130858Y-83331758D01*
X169982898Y-83270470D01*
X169849742Y-83181498D01*
X169736502Y-83068258D01*
X169735140Y-83066219D01*
X169647529Y-82935100D01*
X169631652Y-82896770D01*
X169586242Y-82787142D01*
X169555000Y-82630075D01*
X169555000Y-82469925D01*
X169586242Y-82312858D01*
X169647530Y-82164898D01*
X169736502Y-82031742D01*
X169849742Y-81918502D01*
X169982898Y-81829530D01*
X170130858Y-81768242D01*
X170287925Y-81737000D01*
X170448075Y-81737000D01*
X170605142Y-81768242D01*
X170605142Y-81768242D01*
G37*
G36*
X168065142Y-81768242D02*
G01*
X168213102Y-81829530D01*
X168346258Y-81918502D01*
X168459498Y-82031742D01*
X168548470Y-82164898D01*
X168609758Y-82312858D01*
X168641000Y-82469925D01*
X168641000Y-82630075D01*
X168609758Y-82787142D01*
X168564348Y-82896770D01*
X168548471Y-82935100D01*
X168460861Y-83066219D01*
X168459498Y-83068258D01*
X168346258Y-83181498D01*
X168213102Y-83270470D01*
X168065142Y-83331758D01*
X167908075Y-83363000D01*
X167747925Y-83363000D01*
X167590858Y-83331758D01*
X167442898Y-83270470D01*
X167309742Y-83181498D01*
X167196502Y-83068258D01*
X167195140Y-83066219D01*
X167107529Y-82935100D01*
X167091652Y-82896770D01*
X167046242Y-82787142D01*
X167015000Y-82630075D01*
X167015000Y-82469925D01*
X167046242Y-82312858D01*
X167107530Y-82164898D01*
X167196502Y-82031742D01*
X167309742Y-81918502D01*
X167442898Y-81829530D01*
X167590858Y-81768242D01*
X167747925Y-81737000D01*
X167908075Y-81737000D01*
X168065142Y-81768242D01*
X168065142Y-81768242D01*
G37*
G36*
X162985142Y-81768242D02*
G01*
X163133102Y-81829530D01*
X163266258Y-81918502D01*
X163379498Y-82031742D01*
X163468470Y-82164898D01*
X163529758Y-82312858D01*
X163561000Y-82469925D01*
X163561000Y-82630075D01*
X163529758Y-82787142D01*
X163484348Y-82896770D01*
X163468471Y-82935100D01*
X163380861Y-83066219D01*
X163379498Y-83068258D01*
X163266258Y-83181498D01*
X163133102Y-83270470D01*
X162985142Y-83331758D01*
X162828075Y-83363000D01*
X162667925Y-83363000D01*
X162510858Y-83331758D01*
X162362898Y-83270470D01*
X162229742Y-83181498D01*
X162116502Y-83068258D01*
X162115140Y-83066219D01*
X162027529Y-82935100D01*
X162011652Y-82896770D01*
X161966242Y-82787142D01*
X161935000Y-82630075D01*
X161935000Y-82469925D01*
X161966242Y-82312858D01*
X162027530Y-82164898D01*
X162116502Y-82031742D01*
X162229742Y-81918502D01*
X162362898Y-81829530D01*
X162510858Y-81768242D01*
X162667925Y-81737000D01*
X162828075Y-81737000D01*
X162985142Y-81768242D01*
X162985142Y-81768242D01*
G37*
G36*
X138717643Y-81525781D02*
G01*
X138863415Y-81586162D01*
X138994611Y-81673824D01*
X139106176Y-81785389D01*
X139193838Y-81916585D01*
X139254219Y-82062357D01*
X139285000Y-82217107D01*
X139285000Y-82374893D01*
X139254219Y-82529643D01*
X139193838Y-82675415D01*
X139106176Y-82806611D01*
X138994611Y-82918176D01*
X138863415Y-83005838D01*
X138717643Y-83066219D01*
X138562893Y-83097000D01*
X138405107Y-83097000D01*
X138250357Y-83066219D01*
X138104585Y-83005838D01*
X137973389Y-82918176D01*
X137861824Y-82806611D01*
X137774162Y-82675415D01*
X137713781Y-82529643D01*
X137683000Y-82374893D01*
X137683000Y-82217107D01*
X137713781Y-82062357D01*
X137774162Y-81916585D01*
X137861824Y-81785389D01*
X137973389Y-81673824D01*
X138104585Y-81586162D01*
X138250357Y-81525781D01*
X138405107Y-81495000D01*
X138562893Y-81495000D01*
X138717643Y-81525781D01*
X138717643Y-81525781D01*
G37*
G36*
X143597643Y-81525781D02*
G01*
X143743415Y-81586162D01*
X143874611Y-81673824D01*
X143986176Y-81785389D01*
X144073838Y-81916585D01*
X144134219Y-82062357D01*
X144165000Y-82217107D01*
X144165000Y-82374893D01*
X144134219Y-82529643D01*
X144073838Y-82675415D01*
X143986176Y-82806611D01*
X143874611Y-82918176D01*
X143743415Y-83005838D01*
X143597643Y-83066219D01*
X143442893Y-83097000D01*
X143285107Y-83097000D01*
X143130357Y-83066219D01*
X142984585Y-83005838D01*
X142853389Y-82918176D01*
X142741824Y-82806611D01*
X142654162Y-82675415D01*
X142593781Y-82529643D01*
X142563000Y-82374893D01*
X142563000Y-82217107D01*
X142593781Y-82062357D01*
X142654162Y-81916585D01*
X142741824Y-81785389D01*
X142853389Y-81673824D01*
X142984585Y-81586162D01*
X143130357Y-81525781D01*
X143285107Y-81495000D01*
X143442893Y-81495000D01*
X143597643Y-81525781D01*
X143597643Y-81525781D01*
G37*
G36*
X103013119Y-78822228D02*
G01*
X103013122Y-78822229D01*
X103159399Y-78866601D01*
X103159401Y-78866602D01*
X103294210Y-78938659D01*
X103412369Y-79035631D01*
X103509341Y-79153790D01*
X103509342Y-79153792D01*
X103581399Y-79288601D01*
X103589189Y-79314283D01*
X103625772Y-79434881D01*
X103640754Y-79587000D01*
X103625772Y-79739119D01*
X103625771Y-79739122D01*
X103582494Y-79881790D01*
X103581398Y-79885401D01*
X103509341Y-80020210D01*
X103412369Y-80138369D01*
X103294210Y-80235341D01*
X103294208Y-80235342D01*
X103159399Y-80307399D01*
X103102509Y-80324656D01*
X103013119Y-80351772D01*
X102899118Y-80363000D01*
X102272882Y-80363000D01*
X102158881Y-80351772D01*
X102069491Y-80324656D01*
X102012601Y-80307399D01*
X102012599Y-80307398D01*
X102005208Y-80305156D01*
X101996754Y-80301655D01*
X101972721Y-80296877D01*
X101948216Y-80296879D01*
X101924183Y-80301662D01*
X101901545Y-80311041D01*
X101881172Y-80324656D01*
X101863846Y-80341985D01*
X101850234Y-80362361D01*
X101840858Y-80385001D01*
X101836080Y-80409034D01*
X101836082Y-80433539D01*
X101840865Y-80457572D01*
X101850244Y-80480210D01*
X101863850Y-80500571D01*
X101886571Y-80528257D01*
X101912807Y-80560225D01*
X101926191Y-80585265D01*
X101954686Y-80638575D01*
X101954687Y-80638579D01*
X101980475Y-80723587D01*
X101989182Y-80812000D01*
X101980475Y-80900413D01*
X101957710Y-80975456D01*
X101954686Y-80985425D01*
X101912807Y-81063774D01*
X101856448Y-81132448D01*
X101787774Y-81188807D01*
X101709425Y-81230686D01*
X101699456Y-81233710D01*
X101624413Y-81256475D01*
X101558158Y-81263000D01*
X101513842Y-81263000D01*
X101447587Y-81256475D01*
X101372544Y-81233710D01*
X101362575Y-81230686D01*
X101284226Y-81188807D01*
X101215552Y-81132448D01*
X101159193Y-81063774D01*
X101117314Y-80985425D01*
X101114290Y-80975456D01*
X101091525Y-80900413D01*
X101082818Y-80812000D01*
X101091525Y-80723587D01*
X101117313Y-80638579D01*
X101117314Y-80638575D01*
X101159193Y-80560226D01*
X101215552Y-80491552D01*
X101284226Y-80435193D01*
X101362575Y-80393314D01*
X101375719Y-80389327D01*
X101447587Y-80367525D01*
X101513842Y-80361000D01*
X101558158Y-80361000D01*
X101624411Y-80367525D01*
X101659489Y-80378167D01*
X101680524Y-80384547D01*
X101704551Y-80389327D01*
X101729055Y-80389327D01*
X101753089Y-80384547D01*
X101775728Y-80375170D01*
X101796103Y-80361556D01*
X101813430Y-80344230D01*
X101827044Y-80323855D01*
X101836422Y-80301216D01*
X101841203Y-80277183D01*
X101841203Y-80252679D01*
X101836423Y-80228645D01*
X101827046Y-80206006D01*
X101813432Y-80185631D01*
X101796105Y-80168304D01*
X101759632Y-80138370D01*
X101662659Y-80020210D01*
X101590602Y-79885401D01*
X101589507Y-79881790D01*
X101546229Y-79739122D01*
X101546228Y-79739119D01*
X101531246Y-79587000D01*
X101546228Y-79434881D01*
X101582811Y-79314283D01*
X101590601Y-79288601D01*
X101662658Y-79153792D01*
X101662659Y-79153790D01*
X101759631Y-79035631D01*
X101877790Y-78938659D01*
X102012599Y-78866602D01*
X102012601Y-78866601D01*
X102158878Y-78822229D01*
X102158881Y-78822228D01*
X102272882Y-78811000D01*
X102899118Y-78811000D01*
X103013119Y-78822228D01*
X103013119Y-78822228D01*
G37*
G36*
X178143000Y-80861000D02*
G01*
X176441000Y-80861000D01*
X176441000Y-79159000D01*
X178143000Y-79159000D01*
X178143000Y-80861000D01*
X178143000Y-80861000D01*
G37*
G36*
X162985142Y-79228242D02*
G01*
X163099583Y-79275646D01*
X163130860Y-79288601D01*
X163133102Y-79289530D01*
X163266258Y-79378502D01*
X163379498Y-79491742D01*
X163468470Y-79624898D01*
X163529758Y-79772858D01*
X163561000Y-79929925D01*
X163561000Y-80090075D01*
X163529758Y-80247142D01*
X163468470Y-80395102D01*
X163379498Y-80528258D01*
X163266258Y-80641498D01*
X163133102Y-80730470D01*
X162985142Y-80791758D01*
X162828075Y-80823000D01*
X162667925Y-80823000D01*
X162510858Y-80791758D01*
X162362898Y-80730470D01*
X162229742Y-80641498D01*
X162116502Y-80528258D01*
X162027530Y-80395102D01*
X161966242Y-80247142D01*
X161935000Y-80090075D01*
X161935000Y-79929925D01*
X161966242Y-79772858D01*
X162027530Y-79624898D01*
X162116502Y-79491742D01*
X162229742Y-79378502D01*
X162362898Y-79289530D01*
X162365141Y-79288601D01*
X162396417Y-79275646D01*
X162510858Y-79228242D01*
X162667925Y-79197000D01*
X162828075Y-79197000D01*
X162985142Y-79228242D01*
X162985142Y-79228242D01*
G37*
G36*
X165525142Y-79228242D02*
G01*
X165639583Y-79275646D01*
X165670860Y-79288601D01*
X165673102Y-79289530D01*
X165806258Y-79378502D01*
X165919498Y-79491742D01*
X166008470Y-79624898D01*
X166069758Y-79772858D01*
X166101000Y-79929925D01*
X166101000Y-80090075D01*
X166069758Y-80247142D01*
X166008470Y-80395102D01*
X165919498Y-80528258D01*
X165806258Y-80641498D01*
X165673102Y-80730470D01*
X165525142Y-80791758D01*
X165368075Y-80823000D01*
X165207925Y-80823000D01*
X165050858Y-80791758D01*
X164902898Y-80730470D01*
X164769742Y-80641498D01*
X164656502Y-80528258D01*
X164567530Y-80395102D01*
X164506242Y-80247142D01*
X164475000Y-80090075D01*
X164475000Y-79929925D01*
X164506242Y-79772858D01*
X164567530Y-79624898D01*
X164656502Y-79491742D01*
X164769742Y-79378502D01*
X164902898Y-79289530D01*
X164905141Y-79288601D01*
X164936417Y-79275646D01*
X165050858Y-79228242D01*
X165207925Y-79197000D01*
X165368075Y-79197000D01*
X165525142Y-79228242D01*
X165525142Y-79228242D01*
G37*
G36*
X168065142Y-79228242D02*
G01*
X168179583Y-79275646D01*
X168210860Y-79288601D01*
X168213102Y-79289530D01*
X168346258Y-79378502D01*
X168459498Y-79491742D01*
X168548470Y-79624898D01*
X168609758Y-79772858D01*
X168641000Y-79929925D01*
X168641000Y-80090075D01*
X168609758Y-80247142D01*
X168548470Y-80395102D01*
X168459498Y-80528258D01*
X168346258Y-80641498D01*
X168213102Y-80730470D01*
X168065142Y-80791758D01*
X167908075Y-80823000D01*
X167747925Y-80823000D01*
X167590858Y-80791758D01*
X167442898Y-80730470D01*
X167309742Y-80641498D01*
X167196502Y-80528258D01*
X167107530Y-80395102D01*
X167046242Y-80247142D01*
X167015000Y-80090075D01*
X167015000Y-79929925D01*
X167046242Y-79772858D01*
X167107530Y-79624898D01*
X167196502Y-79491742D01*
X167309742Y-79378502D01*
X167442898Y-79289530D01*
X167445141Y-79288601D01*
X167476417Y-79275646D01*
X167590858Y-79228242D01*
X167747925Y-79197000D01*
X167908075Y-79197000D01*
X168065142Y-79228242D01*
X168065142Y-79228242D01*
G37*
G36*
X171181000Y-80823000D02*
G01*
X169555000Y-80823000D01*
X169555000Y-79197000D01*
X171181000Y-79197000D01*
X171181000Y-80823000D01*
X171181000Y-80823000D01*
G37*
G36*
X99233714Y-78820058D02*
G01*
X99240871Y-78822229D01*
X99351719Y-78855854D01*
X99351721Y-78855855D01*
X99460471Y-78913983D01*
X99555790Y-78992210D01*
X99634017Y-79087529D01*
X99692145Y-79196279D01*
X99727942Y-79314286D01*
X99740028Y-79437000D01*
X99727942Y-79559714D01*
X99692145Y-79677721D01*
X99634017Y-79786471D01*
X99555790Y-79881790D01*
X99460471Y-79960017D01*
X99460469Y-79960018D01*
X99351719Y-80018146D01*
X99255683Y-80047278D01*
X99233714Y-80053942D01*
X99141747Y-80063000D01*
X98430253Y-80063000D01*
X98338286Y-80053942D01*
X98316317Y-80047278D01*
X98220281Y-80018146D01*
X98111531Y-79960018D01*
X98111529Y-79960017D01*
X98016210Y-79881790D01*
X97937983Y-79786471D01*
X97879855Y-79677721D01*
X97844058Y-79559714D01*
X97831972Y-79437000D01*
X97844058Y-79314286D01*
X97879855Y-79196279D01*
X97937983Y-79087529D01*
X98016210Y-78992210D01*
X98111529Y-78913983D01*
X98220279Y-78855855D01*
X98220281Y-78855854D01*
X98331129Y-78822229D01*
X98338286Y-78820058D01*
X98430253Y-78811000D01*
X99141747Y-78811000D01*
X99233714Y-78820058D01*
X99233714Y-78820058D01*
G37*
G36*
X177540228Y-76691703D02*
G01*
X177695100Y-76755853D01*
X177834481Y-76848985D01*
X177953015Y-76967519D01*
X178046147Y-77106900D01*
X178110297Y-77261772D01*
X178143000Y-77426184D01*
X178143000Y-77593816D01*
X178110297Y-77758228D01*
X178046147Y-77913100D01*
X177953015Y-78052481D01*
X177834481Y-78171015D01*
X177695100Y-78264147D01*
X177540228Y-78328297D01*
X177375816Y-78361000D01*
X177208184Y-78361000D01*
X177043772Y-78328297D01*
X176888900Y-78264147D01*
X176749519Y-78171015D01*
X176630985Y-78052481D01*
X176537853Y-77913100D01*
X176473703Y-77758228D01*
X176441000Y-77593816D01*
X176441000Y-77426184D01*
X176473703Y-77261772D01*
X176537853Y-77106900D01*
X176630985Y-76967519D01*
X176749519Y-76848985D01*
X176888900Y-76755853D01*
X177043772Y-76691703D01*
X177208184Y-76659000D01*
X177375816Y-76659000D01*
X177540228Y-76691703D01*
X177540228Y-76691703D01*
G37*
G36*
X152747000Y-76747000D02*
G01*
X151145000Y-76747000D01*
X151145000Y-75145000D01*
X152747000Y-75145000D01*
X152747000Y-76747000D01*
X152747000Y-76747000D01*
G37*
G36*
X99424442Y-74035518D02*
G01*
X99490627Y-74042037D01*
X99603853Y-74076384D01*
X99660467Y-74093557D01*
X99799087Y-74167652D01*
X99816991Y-74177222D01*
X99852729Y-74206552D01*
X99954186Y-74289814D01*
X100037448Y-74391271D01*
X100066778Y-74427009D01*
X100066779Y-74427011D01*
X100150443Y-74583533D01*
X100150443Y-74583534D01*
X100201963Y-74753373D01*
X100219359Y-74930000D01*
X100201963Y-75106627D01*
X100167616Y-75219853D01*
X100150443Y-75276467D01*
X100076348Y-75415087D01*
X100066778Y-75432991D01*
X100037448Y-75468729D01*
X99954186Y-75570186D01*
X99852729Y-75653448D01*
X99816991Y-75682778D01*
X99816989Y-75682779D01*
X99660467Y-75766443D01*
X99603853Y-75783616D01*
X99490627Y-75817963D01*
X99424442Y-75824482D01*
X99358260Y-75831000D01*
X99269740Y-75831000D01*
X99203558Y-75824482D01*
X99137373Y-75817963D01*
X99024147Y-75783616D01*
X98967533Y-75766443D01*
X98811011Y-75682779D01*
X98811009Y-75682778D01*
X98775271Y-75653448D01*
X98673814Y-75570186D01*
X98590552Y-75468729D01*
X98561222Y-75432991D01*
X98551652Y-75415087D01*
X98477557Y-75276467D01*
X98460384Y-75219853D01*
X98426037Y-75106627D01*
X98408641Y-74930000D01*
X98426037Y-74753373D01*
X98477557Y-74583534D01*
X98477557Y-74583533D01*
X98561221Y-74427011D01*
X98561222Y-74427009D01*
X98590552Y-74391271D01*
X98673814Y-74289814D01*
X98775271Y-74206552D01*
X98811009Y-74177222D01*
X98828913Y-74167652D01*
X98967533Y-74093557D01*
X99024147Y-74076384D01*
X99137373Y-74042037D01*
X99203558Y-74035518D01*
X99269740Y-74029000D01*
X99358260Y-74029000D01*
X99424442Y-74035518D01*
X99424442Y-74035518D01*
G37*
G36*
X100215000Y-73291000D02*
G01*
X98413000Y-73291000D01*
X98413000Y-71489000D01*
X100215000Y-71489000D01*
X100215000Y-73291000D01*
X100215000Y-73291000D01*
G37*
G36*
X164998600Y-72034600D02*
G01*
X163169400Y-72034600D01*
X163169400Y-70205400D01*
X164998600Y-70205400D01*
X164998600Y-72034600D01*
X164998600Y-72034600D01*
G37*
G36*
X166803294Y-70218633D02*
G01*
X166975694Y-70270931D01*
X166975696Y-70270932D01*
X167134583Y-70355859D01*
X167273849Y-70470151D01*
X167387965Y-70609202D01*
X167388140Y-70609416D01*
X167473069Y-70768306D01*
X167525367Y-70940706D01*
X167543025Y-71120000D01*
X167525367Y-71299294D01*
X167473069Y-71471694D01*
X167473068Y-71471696D01*
X167388141Y-71630583D01*
X167273849Y-71769849D01*
X167134583Y-71884141D01*
X166975696Y-71969068D01*
X166975694Y-71969069D01*
X166803294Y-72021367D01*
X166668931Y-72034600D01*
X166579069Y-72034600D01*
X166444706Y-72021367D01*
X166272306Y-71969069D01*
X166272304Y-71969068D01*
X166113417Y-71884141D01*
X165974151Y-71769849D01*
X165859859Y-71630583D01*
X165774932Y-71471696D01*
X165774931Y-71471694D01*
X165722633Y-71299294D01*
X165704975Y-71120000D01*
X165722633Y-70940706D01*
X165774931Y-70768306D01*
X165859860Y-70609416D01*
X165860036Y-70609202D01*
X165974151Y-70470151D01*
X166113417Y-70355859D01*
X166272304Y-70270932D01*
X166272306Y-70270931D01*
X166444706Y-70218633D01*
X166579069Y-70205400D01*
X166668931Y-70205400D01*
X166803294Y-70218633D01*
X166803294Y-70218633D01*
G37*
G36*
X169343294Y-70218633D02*
G01*
X169515694Y-70270931D01*
X169515696Y-70270932D01*
X169674583Y-70355859D01*
X169813849Y-70470151D01*
X169927965Y-70609202D01*
X169928140Y-70609416D01*
X170013069Y-70768306D01*
X170065367Y-70940706D01*
X170083025Y-71120000D01*
X170065367Y-71299294D01*
X170013069Y-71471694D01*
X170013068Y-71471696D01*
X169928141Y-71630583D01*
X169813849Y-71769849D01*
X169674583Y-71884141D01*
X169515696Y-71969068D01*
X169515694Y-71969069D01*
X169343294Y-72021367D01*
X169208931Y-72034600D01*
X169119069Y-72034600D01*
X168984706Y-72021367D01*
X168812306Y-71969069D01*
X168812304Y-71969068D01*
X168653417Y-71884141D01*
X168514151Y-71769849D01*
X168399859Y-71630583D01*
X168314932Y-71471696D01*
X168314931Y-71471694D01*
X168262633Y-71299294D01*
X168244975Y-71120000D01*
X168262633Y-70940706D01*
X168314931Y-70768306D01*
X168399860Y-70609416D01*
X168400036Y-70609202D01*
X168514151Y-70470151D01*
X168653417Y-70355859D01*
X168812304Y-70270932D01*
X168812306Y-70270931D01*
X168984706Y-70218633D01*
X169119069Y-70205400D01*
X169208931Y-70205400D01*
X169343294Y-70218633D01*
X169343294Y-70218633D01*
G37*
G36*
X128005734Y-68957232D02*
G01*
X128215202Y-69043996D01*
X128403723Y-69169962D01*
X128564038Y-69330277D01*
X128690004Y-69518798D01*
X128776768Y-69728266D01*
X128821000Y-69950635D01*
X128821000Y-70177365D01*
X128776768Y-70399734D01*
X128690004Y-70609202D01*
X128564038Y-70797723D01*
X128403723Y-70958038D01*
X128215202Y-71084004D01*
X128005734Y-71170768D01*
X127783365Y-71215000D01*
X127556635Y-71215000D01*
X127334266Y-71170768D01*
X127124798Y-71084004D01*
X126936277Y-70958038D01*
X126775962Y-70797723D01*
X126649996Y-70609202D01*
X126563232Y-70399734D01*
X126519000Y-70177365D01*
X126519000Y-69950635D01*
X126563232Y-69728266D01*
X126649996Y-69518798D01*
X126775962Y-69330277D01*
X126936277Y-69169962D01*
X127124798Y-69043996D01*
X127334266Y-68957232D01*
X127556635Y-68913000D01*
X127783365Y-68913000D01*
X128005734Y-68957232D01*
X128005734Y-68957232D01*
G37*
G36*
X121005734Y-68957232D02*
G01*
X121215202Y-69043996D01*
X121403723Y-69169962D01*
X121564038Y-69330277D01*
X121690004Y-69518798D01*
X121776768Y-69728266D01*
X121821000Y-69950635D01*
X121821000Y-70177365D01*
X121776768Y-70399734D01*
X121690004Y-70609202D01*
X121564038Y-70797723D01*
X121403723Y-70958038D01*
X121215202Y-71084004D01*
X121005734Y-71170768D01*
X120783365Y-71215000D01*
X120556635Y-71215000D01*
X120334266Y-71170768D01*
X120124798Y-71084004D01*
X119936277Y-70958038D01*
X119775962Y-70797723D01*
X119649996Y-70609202D01*
X119563232Y-70399734D01*
X119519000Y-70177365D01*
X119519000Y-69950635D01*
X119563232Y-69728266D01*
X119649996Y-69518798D01*
X119775962Y-69330277D01*
X119936277Y-69169962D01*
X120124798Y-69043996D01*
X120334266Y-68957232D01*
X120556635Y-68913000D01*
X120783365Y-68913000D01*
X121005734Y-68957232D01*
X121005734Y-68957232D01*
G37*
G36*
X154167000Y-70293000D02*
G01*
X152265000Y-70293000D01*
X152265000Y-68391000D01*
X154167000Y-68391000D01*
X154167000Y-70293000D01*
X154167000Y-70293000D01*
G37*
G36*
X146293000Y-70293000D02*
G01*
X144391000Y-70293000D01*
X144391000Y-68391000D01*
X146293000Y-68391000D01*
X146293000Y-70293000D01*
X146293000Y-70293000D01*
G37*
G36*
X138165000Y-70293000D02*
G01*
X136263000Y-70293000D01*
X136263000Y-68391000D01*
X138165000Y-68391000D01*
X138165000Y-70293000D01*
X138165000Y-70293000D01*
G37*
G36*
X100272694Y-64487860D02*
G01*
X100538437Y-64540719D01*
X101039087Y-64748095D01*
X101226774Y-64873504D01*
X101489663Y-65049161D01*
X101872839Y-65432337D01*
X101872841Y-65432340D01*
X102173905Y-65882913D01*
X102368014Y-66351534D01*
X102381281Y-66383564D01*
X102487000Y-66915049D01*
X102487000Y-67456951D01*
X102451186Y-67637000D01*
X102381281Y-67988437D01*
X102173905Y-68489087D01*
X101890655Y-68913000D01*
X101872839Y-68939663D01*
X101489663Y-69322839D01*
X101489660Y-69322841D01*
X101039087Y-69623905D01*
X100538437Y-69831281D01*
X100272694Y-69884140D01*
X100006951Y-69937000D01*
X99465049Y-69937000D01*
X99199306Y-69884140D01*
X98933563Y-69831281D01*
X98432913Y-69623905D01*
X97982340Y-69322841D01*
X97982337Y-69322839D01*
X97599161Y-68939663D01*
X97581345Y-68913000D01*
X97298095Y-68489087D01*
X97090719Y-67988437D01*
X97020814Y-67637000D01*
X96985000Y-67456951D01*
X96985000Y-66915049D01*
X97090719Y-66383564D01*
X97103986Y-66351534D01*
X97298095Y-65882913D01*
X97599159Y-65432340D01*
X97599161Y-65432337D01*
X97982337Y-65049161D01*
X98245226Y-64873504D01*
X98432913Y-64748095D01*
X98933563Y-64540719D01*
X99199306Y-64487860D01*
X99465049Y-64435000D01*
X100006951Y-64435000D01*
X100272694Y-64487860D01*
X100272694Y-64487860D01*
G37*
G36*
X179272694Y-64487860D02*
G01*
X179538437Y-64540719D01*
X180039087Y-64748095D01*
X180226774Y-64873504D01*
X180489663Y-65049161D01*
X180872839Y-65432337D01*
X180872841Y-65432340D01*
X181173905Y-65882913D01*
X181368014Y-66351534D01*
X181381281Y-66383564D01*
X181487000Y-66915049D01*
X181487000Y-67456951D01*
X181451186Y-67637000D01*
X181381281Y-67988437D01*
X181173905Y-68489087D01*
X180890655Y-68913000D01*
X180872839Y-68939663D01*
X180489663Y-69322839D01*
X180489660Y-69322841D01*
X180039087Y-69623905D01*
X179538437Y-69831281D01*
X179272694Y-69884140D01*
X179006951Y-69937000D01*
X178465049Y-69937000D01*
X178199306Y-69884140D01*
X177933563Y-69831281D01*
X177432913Y-69623905D01*
X176982340Y-69322841D01*
X176982337Y-69322839D01*
X176599161Y-68939663D01*
X176581345Y-68913000D01*
X176298095Y-68489087D01*
X176090719Y-67988437D01*
X176020814Y-67637000D01*
X175985000Y-67456951D01*
X175985000Y-66915049D01*
X176090719Y-66383564D01*
X176103986Y-66351534D01*
X176298095Y-65882913D01*
X176599159Y-65432340D01*
X176599161Y-65432337D01*
X176982337Y-65049161D01*
X177245226Y-64873504D01*
X177432913Y-64748095D01*
X177933563Y-64540719D01*
X178199306Y-64487860D01*
X178465049Y-64435000D01*
X179006951Y-64435000D01*
X179272694Y-64487860D01*
X179272694Y-64487860D01*
G37*
G36*
X166803294Y-67678633D02*
G01*
X166975694Y-67730931D01*
X166975696Y-67730932D01*
X167134583Y-67815859D01*
X167273849Y-67930151D01*
X167388141Y-68069417D01*
X167424990Y-68138357D01*
X167473069Y-68228306D01*
X167525367Y-68400706D01*
X167543025Y-68580000D01*
X167525367Y-68759294D01*
X167475553Y-68923504D01*
X167473068Y-68931696D01*
X167388141Y-69090583D01*
X167273849Y-69229849D01*
X167134583Y-69344141D01*
X166984001Y-69424629D01*
X166975694Y-69429069D01*
X166803294Y-69481367D01*
X166668931Y-69494600D01*
X166579069Y-69494600D01*
X166444706Y-69481367D01*
X166272306Y-69429069D01*
X166263999Y-69424629D01*
X166113417Y-69344141D01*
X165974151Y-69229849D01*
X165859859Y-69090583D01*
X165774932Y-68931696D01*
X165772447Y-68923504D01*
X165722633Y-68759294D01*
X165704975Y-68580000D01*
X165722633Y-68400706D01*
X165774931Y-68228306D01*
X165823010Y-68138357D01*
X165859859Y-68069417D01*
X165974151Y-67930151D01*
X166113417Y-67815859D01*
X166272304Y-67730932D01*
X166272306Y-67730931D01*
X166444706Y-67678633D01*
X166579069Y-67665400D01*
X166668931Y-67665400D01*
X166803294Y-67678633D01*
X166803294Y-67678633D01*
G37*
G36*
X164263294Y-67678633D02*
G01*
X164435694Y-67730931D01*
X164435696Y-67730932D01*
X164594583Y-67815859D01*
X164733849Y-67930151D01*
X164848141Y-68069417D01*
X164884990Y-68138357D01*
X164933069Y-68228306D01*
X164985367Y-68400706D01*
X165003025Y-68580000D01*
X164985367Y-68759294D01*
X164935553Y-68923504D01*
X164933068Y-68931696D01*
X164848141Y-69090583D01*
X164733849Y-69229849D01*
X164594583Y-69344141D01*
X164444001Y-69424629D01*
X164435694Y-69429069D01*
X164263294Y-69481367D01*
X164128931Y-69494600D01*
X164039069Y-69494600D01*
X163904706Y-69481367D01*
X163732306Y-69429069D01*
X163723999Y-69424629D01*
X163573417Y-69344141D01*
X163434151Y-69229849D01*
X163319859Y-69090583D01*
X163234932Y-68931696D01*
X163232447Y-68923504D01*
X163182633Y-68759294D01*
X163164975Y-68580000D01*
X163182633Y-68400706D01*
X163234931Y-68228306D01*
X163283010Y-68138357D01*
X163319859Y-68069417D01*
X163434151Y-67930151D01*
X163573417Y-67815859D01*
X163732304Y-67730932D01*
X163732306Y-67730931D01*
X163904706Y-67678633D01*
X164039069Y-67665400D01*
X164128931Y-67665400D01*
X164263294Y-67678633D01*
X164263294Y-67678633D01*
G37*
G36*
X169343294Y-67678633D02*
G01*
X169515694Y-67730931D01*
X169515696Y-67730932D01*
X169674583Y-67815859D01*
X169813849Y-67930151D01*
X169928141Y-68069417D01*
X169964990Y-68138357D01*
X170013069Y-68228306D01*
X170065367Y-68400706D01*
X170083025Y-68580000D01*
X170065367Y-68759294D01*
X170015553Y-68923504D01*
X170013068Y-68931696D01*
X169928141Y-69090583D01*
X169813849Y-69229849D01*
X169674583Y-69344141D01*
X169524001Y-69424629D01*
X169515694Y-69429069D01*
X169343294Y-69481367D01*
X169208931Y-69494600D01*
X169119069Y-69494600D01*
X168984706Y-69481367D01*
X168812306Y-69429069D01*
X168803999Y-69424629D01*
X168653417Y-69344141D01*
X168514151Y-69229849D01*
X168399859Y-69090583D01*
X168314932Y-68931696D01*
X168312447Y-68923504D01*
X168262633Y-68759294D01*
X168244975Y-68580000D01*
X168262633Y-68400706D01*
X168314931Y-68228306D01*
X168363010Y-68138357D01*
X168399859Y-68069417D01*
X168514151Y-67930151D01*
X168653417Y-67815859D01*
X168812304Y-67730932D01*
X168812306Y-67730931D01*
X168984706Y-67678633D01*
X169119069Y-67665400D01*
X169208931Y-67665400D01*
X169343294Y-67678633D01*
X169343294Y-67678633D01*
G37*
G36*
X122182812Y-66697624D02*
G01*
X122346784Y-66765544D01*
X122494354Y-66864147D01*
X122619853Y-66989646D01*
X122718456Y-67137216D01*
X122786376Y-67301188D01*
X122821000Y-67475259D01*
X122821000Y-67652741D01*
X122786376Y-67826812D01*
X122718456Y-67990784D01*
X122619853Y-68138354D01*
X122494354Y-68263853D01*
X122346784Y-68362456D01*
X122182812Y-68430376D01*
X122008741Y-68465000D01*
X121831259Y-68465000D01*
X121657188Y-68430376D01*
X121493216Y-68362456D01*
X121345646Y-68263853D01*
X121220147Y-68138354D01*
X121121544Y-67990784D01*
X121053624Y-67826812D01*
X121019000Y-67652741D01*
X121019000Y-67475259D01*
X121053624Y-67301188D01*
X121121544Y-67137216D01*
X121220147Y-66989646D01*
X121345646Y-66864147D01*
X121493216Y-66765544D01*
X121657188Y-66697624D01*
X121831259Y-66663000D01*
X122008741Y-66663000D01*
X122182812Y-66697624D01*
X122182812Y-66697624D01*
G37*
G36*
X126682812Y-66697624D02*
G01*
X126846784Y-66765544D01*
X126994354Y-66864147D01*
X127119853Y-66989646D01*
X127218456Y-67137216D01*
X127286376Y-67301188D01*
X127321000Y-67475259D01*
X127321000Y-67652741D01*
X127286376Y-67826812D01*
X127218456Y-67990784D01*
X127119853Y-68138354D01*
X126994354Y-68263853D01*
X126846784Y-68362456D01*
X126682812Y-68430376D01*
X126508741Y-68465000D01*
X126331259Y-68465000D01*
X126157188Y-68430376D01*
X125993216Y-68362456D01*
X125845646Y-68263853D01*
X125720147Y-68138354D01*
X125621544Y-67990784D01*
X125553624Y-67826812D01*
X125519000Y-67652741D01*
X125519000Y-67475259D01*
X125553624Y-67301188D01*
X125621544Y-67137216D01*
X125720147Y-66989646D01*
X125845646Y-66864147D01*
X125993216Y-66765544D01*
X126157188Y-66697624D01*
X126331259Y-66663000D01*
X126508741Y-66663000D01*
X126682812Y-66697624D01*
X126682812Y-66697624D01*
G37*
G36*
X137491396Y-65887546D02*
G01*
X137664466Y-65959234D01*
X137820230Y-66063312D01*
X137952688Y-66195770D01*
X138056766Y-66351534D01*
X138128454Y-66524604D01*
X138165000Y-66708333D01*
X138165000Y-66895667D01*
X138128454Y-67079396D01*
X138056766Y-67252466D01*
X137952688Y-67408230D01*
X137820230Y-67540688D01*
X137664466Y-67644766D01*
X137491396Y-67716454D01*
X137307667Y-67753000D01*
X137120333Y-67753000D01*
X136936604Y-67716454D01*
X136763534Y-67644766D01*
X136607770Y-67540688D01*
X136475312Y-67408230D01*
X136371234Y-67252466D01*
X136299546Y-67079396D01*
X136263000Y-66895667D01*
X136263000Y-66708333D01*
X136299546Y-66524604D01*
X136371234Y-66351534D01*
X136475312Y-66195770D01*
X136607770Y-66063312D01*
X136763534Y-65959234D01*
X136936604Y-65887546D01*
X137120333Y-65851000D01*
X137307667Y-65851000D01*
X137491396Y-65887546D01*
X137491396Y-65887546D01*
G37*
G36*
X145619396Y-65887546D02*
G01*
X145792466Y-65959234D01*
X145948230Y-66063312D01*
X146080688Y-66195770D01*
X146184766Y-66351534D01*
X146256454Y-66524604D01*
X146293000Y-66708333D01*
X146293000Y-66895667D01*
X146256454Y-67079396D01*
X146184766Y-67252466D01*
X146080688Y-67408230D01*
X145948230Y-67540688D01*
X145792466Y-67644766D01*
X145619396Y-67716454D01*
X145435667Y-67753000D01*
X145248333Y-67753000D01*
X145064604Y-67716454D01*
X144891534Y-67644766D01*
X144735770Y-67540688D01*
X144603312Y-67408230D01*
X144499234Y-67252466D01*
X144427546Y-67079396D01*
X144391000Y-66895667D01*
X144391000Y-66708333D01*
X144427546Y-66524604D01*
X144499234Y-66351534D01*
X144603312Y-66195770D01*
X144735770Y-66063312D01*
X144891534Y-65959234D01*
X145064604Y-65887546D01*
X145248333Y-65851000D01*
X145435667Y-65851000D01*
X145619396Y-65887546D01*
X145619396Y-65887546D01*
G37*
G36*
X153493396Y-65887546D02*
G01*
X153666466Y-65959234D01*
X153822230Y-66063312D01*
X153954688Y-66195770D01*
X154058766Y-66351534D01*
X154130454Y-66524604D01*
X154167000Y-66708333D01*
X154167000Y-66895667D01*
X154130454Y-67079396D01*
X154058766Y-67252466D01*
X153954688Y-67408230D01*
X153822230Y-67540688D01*
X153666466Y-67644766D01*
X153493396Y-67716454D01*
X153309667Y-67753000D01*
X153122333Y-67753000D01*
X152938604Y-67716454D01*
X152765534Y-67644766D01*
X152609770Y-67540688D01*
X152477312Y-67408230D01*
X152373234Y-67252466D01*
X152301546Y-67079396D01*
X152265000Y-66895667D01*
X152265000Y-66708333D01*
X152301546Y-66524604D01*
X152373234Y-66351534D01*
X152477312Y-66195770D01*
X152609770Y-66063312D01*
X152765534Y-65959234D01*
X152938604Y-65887546D01*
X153122333Y-65851000D01*
X153309667Y-65851000D01*
X153493396Y-65887546D01*
X153493396Y-65887546D01*
G37*
M02*
