G04 #@! TF.GenerationSoftware,KiCad,Pcbnew,(6.0.0-rc1-dev-1491-g0a4812be0)*
G04 #@! TF.CreationDate,2019-04-29T14:54:42+02:00
G04 #@! TF.ProjectId,mySensors_door_switch,6d795365-6e73-46f7-9273-5f646f6f725f,1.2*
G04 #@! TF.SameCoordinates,Original*
G04 #@! TF.FileFunction,Legend,Top*
G04 #@! TF.FilePolarity,Positive*
%FSLAX46Y46*%
G04 Gerber Fmt 4.6, Leading zero omitted, Abs format (unit mm)*
G04 Created by KiCad (PCBNEW (6.0.0-rc1-dev-1491-g0a4812be0)) date 2019-04-29 14:54:42*
%MOMM*%
%LPD*%
G04 APERTURE LIST*
%ADD10C,0.150000*%
%ADD11C,0.120000*%
%ADD12C,0.010000*%
%ADD13C,0.160000*%
G04 APERTURE END LIST*
D10*
X169148333Y-101576714D02*
X169386428Y-102243380D01*
X169624523Y-101576714D01*
X170005476Y-102148142D02*
X170053095Y-102195761D01*
X170005476Y-102243380D01*
X169957857Y-102195761D01*
X170005476Y-102148142D01*
X170005476Y-102243380D01*
X171005476Y-102243380D02*
X170434047Y-102243380D01*
X170719761Y-102243380D02*
X170719761Y-101243380D01*
X170624523Y-101386238D01*
X170529285Y-101481476D01*
X170434047Y-101529095D01*
X171434047Y-102148142D02*
X171481666Y-102195761D01*
X171434047Y-102243380D01*
X171386428Y-102195761D01*
X171434047Y-102148142D01*
X171434047Y-102243380D01*
X171862619Y-101338619D02*
X171910238Y-101291000D01*
X172005476Y-101243380D01*
X172243571Y-101243380D01*
X172338809Y-101291000D01*
X172386428Y-101338619D01*
X172434047Y-101433857D01*
X172434047Y-101529095D01*
X172386428Y-101671952D01*
X171815000Y-102243380D01*
X172434047Y-102243380D01*
X165957857Y-102988619D02*
X166005476Y-102941000D01*
X166100714Y-102893380D01*
X166338809Y-102893380D01*
X166434047Y-102941000D01*
X166481666Y-102988619D01*
X166529285Y-103083857D01*
X166529285Y-103179095D01*
X166481666Y-103321952D01*
X165910238Y-103893380D01*
X166529285Y-103893380D01*
X167148333Y-102893380D02*
X167243571Y-102893380D01*
X167338809Y-102941000D01*
X167386428Y-102988619D01*
X167434047Y-103083857D01*
X167481666Y-103274333D01*
X167481666Y-103512428D01*
X167434047Y-103702904D01*
X167386428Y-103798142D01*
X167338809Y-103845761D01*
X167243571Y-103893380D01*
X167148333Y-103893380D01*
X167053095Y-103845761D01*
X167005476Y-103798142D01*
X166957857Y-103702904D01*
X166910238Y-103512428D01*
X166910238Y-103274333D01*
X166957857Y-103083857D01*
X167005476Y-102988619D01*
X167053095Y-102941000D01*
X167148333Y-102893380D01*
X168434047Y-103893380D02*
X167862619Y-103893380D01*
X168148333Y-103893380D02*
X168148333Y-102893380D01*
X168053095Y-103036238D01*
X167957857Y-103131476D01*
X167862619Y-103179095D01*
X168910238Y-103893380D02*
X169100714Y-103893380D01*
X169195952Y-103845761D01*
X169243571Y-103798142D01*
X169338809Y-103655285D01*
X169386428Y-103464809D01*
X169386428Y-103083857D01*
X169338809Y-102988619D01*
X169291190Y-102941000D01*
X169195952Y-102893380D01*
X169005476Y-102893380D01*
X168910238Y-102941000D01*
X168862619Y-102988619D01*
X168815000Y-103083857D01*
X168815000Y-103321952D01*
X168862619Y-103417190D01*
X168910238Y-103464809D01*
X169005476Y-103512428D01*
X169195952Y-103512428D01*
X169291190Y-103464809D01*
X169338809Y-103417190D01*
X169386428Y-103321952D01*
X169815000Y-103512428D02*
X170576904Y-103512428D01*
X171243571Y-102893380D02*
X171338809Y-102893380D01*
X171434047Y-102941000D01*
X171481666Y-102988619D01*
X171529285Y-103083857D01*
X171576904Y-103274333D01*
X171576904Y-103512428D01*
X171529285Y-103702904D01*
X171481666Y-103798142D01*
X171434047Y-103845761D01*
X171338809Y-103893380D01*
X171243571Y-103893380D01*
X171148333Y-103845761D01*
X171100714Y-103798142D01*
X171053095Y-103702904D01*
X171005476Y-103512428D01*
X171005476Y-103274333D01*
X171053095Y-103083857D01*
X171100714Y-102988619D01*
X171148333Y-102941000D01*
X171243571Y-102893380D01*
X172434047Y-103226714D02*
X172434047Y-103893380D01*
X172195952Y-102845761D02*
X171957857Y-103560047D01*
X172576904Y-103560047D01*
X172957857Y-103512428D02*
X173719761Y-103512428D01*
X174148333Y-102988619D02*
X174195952Y-102941000D01*
X174291190Y-102893380D01*
X174529285Y-102893380D01*
X174624523Y-102941000D01*
X174672142Y-102988619D01*
X174719761Y-103083857D01*
X174719761Y-103179095D01*
X174672142Y-103321952D01*
X174100714Y-103893380D01*
X174719761Y-103893380D01*
X175195952Y-103893380D02*
X175386428Y-103893380D01*
X175481666Y-103845761D01*
X175529285Y-103798142D01*
X175624523Y-103655285D01*
X175672142Y-103464809D01*
X175672142Y-103083857D01*
X175624523Y-102988619D01*
X175576904Y-102941000D01*
X175481666Y-102893380D01*
X175291190Y-102893380D01*
X175195952Y-102941000D01*
X175148333Y-102988619D01*
X175100714Y-103083857D01*
X175100714Y-103321952D01*
X175148333Y-103417190D01*
X175195952Y-103464809D01*
X175291190Y-103512428D01*
X175481666Y-103512428D01*
X175576904Y-103464809D01*
X175624523Y-103417190D01*
X175672142Y-103321952D01*
X151606214Y-94876880D02*
X151034785Y-94876880D01*
X151320500Y-94876880D02*
X151320500Y-93876880D01*
X151225261Y-94019738D01*
X151130023Y-94114976D01*
X151034785Y-94162595D01*
X183285714Y-103333333D02*
X184095238Y-103333333D01*
X184190476Y-103380952D01*
X184238095Y-103428571D01*
X184285714Y-103523809D01*
X184285714Y-103666666D01*
X184238095Y-103761904D01*
X183904761Y-103333333D02*
X183952380Y-103428571D01*
X183952380Y-103619047D01*
X183904761Y-103714285D01*
X183857142Y-103761904D01*
X183761904Y-103809523D01*
X183476190Y-103809523D01*
X183380952Y-103761904D01*
X183333333Y-103714285D01*
X183285714Y-103619047D01*
X183285714Y-103428571D01*
X183333333Y-103333333D01*
X183952380Y-102857142D02*
X183285714Y-102857142D01*
X182952380Y-102857142D02*
X183000000Y-102904761D01*
X183047619Y-102857142D01*
X183000000Y-102809523D01*
X182952380Y-102857142D01*
X183047619Y-102857142D01*
X183285714Y-102523809D02*
X183285714Y-102142857D01*
X182952380Y-102380952D02*
X183809523Y-102380952D01*
X183904761Y-102333333D01*
X183952380Y-102238095D01*
X183952380Y-102142857D01*
X183952380Y-101809523D02*
X182952380Y-101809523D01*
X183952380Y-101380952D02*
X183428571Y-101380952D01*
X183333333Y-101428571D01*
X183285714Y-101523809D01*
X183285714Y-101666666D01*
X183333333Y-101761904D01*
X183380952Y-101809523D01*
X183285714Y-100476190D02*
X183952380Y-100476190D01*
X183285714Y-100904761D02*
X183809523Y-100904761D01*
X183904761Y-100857142D01*
X183952380Y-100761904D01*
X183952380Y-100619047D01*
X183904761Y-100523809D01*
X183857142Y-100476190D01*
X183952380Y-100000000D02*
X182952380Y-100000000D01*
X183333333Y-100000000D02*
X183285714Y-99904761D01*
X183285714Y-99714285D01*
X183333333Y-99619047D01*
X183380952Y-99571428D01*
X183476190Y-99523809D01*
X183761904Y-99523809D01*
X183857142Y-99571428D01*
X183904761Y-99619047D01*
X183952380Y-99714285D01*
X183952380Y-99904761D01*
X183904761Y-100000000D01*
X183857142Y-99095238D02*
X183904761Y-99047619D01*
X183952380Y-99095238D01*
X183904761Y-99142857D01*
X183857142Y-99095238D01*
X183952380Y-99095238D01*
X183904761Y-98190476D02*
X183952380Y-98285714D01*
X183952380Y-98476190D01*
X183904761Y-98571428D01*
X183857142Y-98619047D01*
X183761904Y-98666666D01*
X183476190Y-98666666D01*
X183380952Y-98619047D01*
X183333333Y-98571428D01*
X183285714Y-98476190D01*
X183285714Y-98285714D01*
X183333333Y-98190476D01*
X183952380Y-97619047D02*
X183904761Y-97714285D01*
X183857142Y-97761904D01*
X183761904Y-97809523D01*
X183476190Y-97809523D01*
X183380952Y-97761904D01*
X183333333Y-97714285D01*
X183285714Y-97619047D01*
X183285714Y-97476190D01*
X183333333Y-97380952D01*
X183380952Y-97333333D01*
X183476190Y-97285714D01*
X183761904Y-97285714D01*
X183857142Y-97333333D01*
X183904761Y-97380952D01*
X183952380Y-97476190D01*
X183952380Y-97619047D01*
X183952380Y-96857142D02*
X183285714Y-96857142D01*
X183380952Y-96857142D02*
X183333333Y-96809523D01*
X183285714Y-96714285D01*
X183285714Y-96571428D01*
X183333333Y-96476190D01*
X183428571Y-96428571D01*
X183952380Y-96428571D01*
X183428571Y-96428571D02*
X183333333Y-96380952D01*
X183285714Y-96285714D01*
X183285714Y-96142857D01*
X183333333Y-96047619D01*
X183428571Y-96000000D01*
X183952380Y-96000000D01*
X182904761Y-94809523D02*
X184190476Y-95666666D01*
X183285714Y-94047619D02*
X184095238Y-94047619D01*
X184190476Y-94095238D01*
X184238095Y-94142857D01*
X184285714Y-94238095D01*
X184285714Y-94380952D01*
X184238095Y-94476190D01*
X183904761Y-94047619D02*
X183952380Y-94142857D01*
X183952380Y-94333333D01*
X183904761Y-94428571D01*
X183857142Y-94476190D01*
X183761904Y-94523809D01*
X183476190Y-94523809D01*
X183380952Y-94476190D01*
X183333333Y-94428571D01*
X183285714Y-94333333D01*
X183285714Y-94142857D01*
X183333333Y-94047619D01*
X183904761Y-93619047D02*
X183952380Y-93523809D01*
X183952380Y-93333333D01*
X183904761Y-93238095D01*
X183809523Y-93190476D01*
X183761904Y-93190476D01*
X183666666Y-93238095D01*
X183619047Y-93333333D01*
X183619047Y-93476190D01*
X183571428Y-93571428D01*
X183476190Y-93619047D01*
X183428571Y-93619047D01*
X183333333Y-93571428D01*
X183285714Y-93476190D01*
X183285714Y-93333333D01*
X183333333Y-93238095D01*
X183952380Y-92333333D02*
X183428571Y-92333333D01*
X183333333Y-92380952D01*
X183285714Y-92476190D01*
X183285714Y-92666666D01*
X183333333Y-92761904D01*
X183904761Y-92333333D02*
X183952380Y-92428571D01*
X183952380Y-92666666D01*
X183904761Y-92761904D01*
X183809523Y-92809523D01*
X183714285Y-92809523D01*
X183619047Y-92761904D01*
X183571428Y-92666666D01*
X183571428Y-92428571D01*
X183523809Y-92333333D01*
X183285714Y-91857142D02*
X184285714Y-91857142D01*
X183333333Y-91857142D02*
X183285714Y-91761904D01*
X183285714Y-91571428D01*
X183333333Y-91476190D01*
X183380952Y-91428571D01*
X183476190Y-91380952D01*
X183761904Y-91380952D01*
X183857142Y-91428571D01*
X183904761Y-91476190D01*
X183952380Y-91571428D01*
X183952380Y-91761904D01*
X183904761Y-91857142D01*
X183952380Y-90952380D02*
X183285714Y-90952380D01*
X182952380Y-90952380D02*
X183000000Y-91000000D01*
X183047619Y-90952380D01*
X183000000Y-90904761D01*
X182952380Y-90952380D01*
X183047619Y-90952380D01*
X183285714Y-90476190D02*
X184142857Y-90476190D01*
X184238095Y-90523809D01*
X184285714Y-90619047D01*
X184285714Y-90666666D01*
X182952380Y-90476190D02*
X183000000Y-90523809D01*
X183047619Y-90476190D01*
X183000000Y-90428571D01*
X182952380Y-90476190D01*
X183047619Y-90476190D01*
X183952380Y-89571428D02*
X183428571Y-89571428D01*
X183333333Y-89619047D01*
X183285714Y-89714285D01*
X183285714Y-89904761D01*
X183333333Y-90000000D01*
X183904761Y-89571428D02*
X183952380Y-89666666D01*
X183952380Y-89904761D01*
X183904761Y-90000000D01*
X183809523Y-90047619D01*
X183714285Y-90047619D01*
X183619047Y-90000000D01*
X183571428Y-89904761D01*
X183571428Y-89666666D01*
X183523809Y-89571428D01*
X183904761Y-89142857D02*
X183952380Y-89047619D01*
X183952380Y-88857142D01*
X183904761Y-88761904D01*
X183809523Y-88714285D01*
X183761904Y-88714285D01*
X183666666Y-88761904D01*
X183619047Y-88857142D01*
X183619047Y-89000000D01*
X183571428Y-89095238D01*
X183476190Y-89142857D01*
X183428571Y-89142857D01*
X183333333Y-89095238D01*
X183285714Y-89000000D01*
X183285714Y-88857142D01*
X183333333Y-88761904D01*
X183285714Y-88380952D02*
X183285714Y-87857142D01*
X183952380Y-88380952D01*
X183952380Y-87857142D01*
X183952380Y-87476190D02*
X182952380Y-87476190D01*
X183571428Y-87380952D02*
X183952380Y-87095238D01*
X183285714Y-87095238D02*
X183666666Y-87476190D01*
X183952380Y-86523809D02*
X183904761Y-86619047D01*
X183857142Y-86666666D01*
X183761904Y-86714285D01*
X183476190Y-86714285D01*
X183380952Y-86666666D01*
X183333333Y-86619047D01*
X183285714Y-86523809D01*
X183285714Y-86380952D01*
X183333333Y-86285714D01*
X183380952Y-86238095D01*
X183476190Y-86190476D01*
X183761904Y-86190476D01*
X183857142Y-86238095D01*
X183904761Y-86285714D01*
X183952380Y-86380952D01*
X183952380Y-86523809D01*
X160585400Y-106019523D02*
X160547304Y-106095714D01*
X160547304Y-106210000D01*
X160585400Y-106324285D01*
X160661590Y-106400476D01*
X160737780Y-106438571D01*
X160890161Y-106476666D01*
X161004447Y-106476666D01*
X161156828Y-106438571D01*
X161233019Y-106400476D01*
X161309209Y-106324285D01*
X161347304Y-106210000D01*
X161347304Y-106133809D01*
X161309209Y-106019523D01*
X161271114Y-105981428D01*
X161004447Y-105981428D01*
X161004447Y-106133809D01*
X161347304Y-105638571D02*
X160547304Y-105638571D01*
X161347304Y-105181428D01*
X160547304Y-105181428D01*
X161347304Y-104800476D02*
X160547304Y-104800476D01*
X160547304Y-104610000D01*
X160585400Y-104495714D01*
X160661590Y-104419523D01*
X160737780Y-104381428D01*
X160890161Y-104343333D01*
X161004447Y-104343333D01*
X161156828Y-104381428D01*
X161233019Y-104419523D01*
X161309209Y-104495714D01*
X161347304Y-104610000D01*
X161347304Y-104800476D01*
X161042542Y-102909342D02*
X161042542Y-102299819D01*
X161347304Y-102604580D02*
X160737780Y-102604580D01*
X160547304Y-101995057D02*
X160547304Y-101499819D01*
X160852066Y-101766485D01*
X160852066Y-101652200D01*
X160890161Y-101576009D01*
X160928257Y-101537914D01*
X161004447Y-101499819D01*
X161194923Y-101499819D01*
X161271114Y-101537914D01*
X161309209Y-101576009D01*
X161347304Y-101652200D01*
X161347304Y-101880771D01*
X161309209Y-101956961D01*
X161271114Y-101995057D01*
X161271114Y-101156961D02*
X161309209Y-101118866D01*
X161347304Y-101156961D01*
X161309209Y-101195057D01*
X161271114Y-101156961D01*
X161347304Y-101156961D01*
X160547304Y-100852200D02*
X160547304Y-100356961D01*
X160852066Y-100623628D01*
X160852066Y-100509342D01*
X160890161Y-100433152D01*
X160928257Y-100395057D01*
X161004447Y-100356961D01*
X161194923Y-100356961D01*
X161271114Y-100395057D01*
X161309209Y-100433152D01*
X161347304Y-100509342D01*
X161347304Y-100737914D01*
X161309209Y-100814104D01*
X161271114Y-100852200D01*
X160547304Y-99721723D02*
X160547304Y-99264580D01*
X161347304Y-99493152D02*
X160547304Y-99493152D01*
X160547304Y-99074104D02*
X161347304Y-98540771D01*
X160547304Y-98540771D02*
X161347304Y-99074104D01*
X161347304Y-96705533D02*
X160966352Y-96972200D01*
X161347304Y-97162676D02*
X160547304Y-97162676D01*
X160547304Y-96857914D01*
X160585400Y-96781723D01*
X160623495Y-96743628D01*
X160699685Y-96705533D01*
X160813971Y-96705533D01*
X160890161Y-96743628D01*
X160928257Y-96781723D01*
X160966352Y-96857914D01*
X160966352Y-97162676D01*
X160547304Y-96438866D02*
X161347304Y-95905533D01*
X160547304Y-95905533D02*
X161347304Y-96438866D01*
X161347304Y-94946485D02*
X160547304Y-94946485D01*
X160547304Y-94756009D01*
X160585400Y-94641723D01*
X160661590Y-94565533D01*
X160737780Y-94527438D01*
X160890161Y-94489342D01*
X161004447Y-94489342D01*
X161156828Y-94527438D01*
X161233019Y-94565533D01*
X161309209Y-94641723D01*
X161347304Y-94756009D01*
X161347304Y-94946485D01*
X160547304Y-94260771D02*
X160547304Y-93803628D01*
X161347304Y-94032200D02*
X160547304Y-94032200D01*
X161347304Y-93079819D02*
X160966352Y-93346485D01*
X161347304Y-93536961D02*
X160547304Y-93536961D01*
X160547304Y-93232200D01*
X160585400Y-93156009D01*
X160623495Y-93117914D01*
X160699685Y-93079819D01*
X160813971Y-93079819D01*
X160890161Y-93117914D01*
X160928257Y-93156009D01*
X160966352Y-93232200D01*
X160966352Y-93536961D01*
D11*
X163770000Y-73914000D02*
X163770000Y-72584000D01*
X163770000Y-72584000D02*
X165100000Y-72584000D01*
X166370000Y-72584000D02*
X168970000Y-72584000D01*
X168970000Y-75244000D02*
X168970000Y-72584000D01*
X166370000Y-75244000D02*
X168970000Y-75244000D01*
X166370000Y-75244000D02*
X166370000Y-72584000D01*
X163770000Y-69088000D02*
X163770000Y-67758000D01*
X163770000Y-67758000D02*
X165100000Y-67758000D01*
X166370000Y-67758000D02*
X168970000Y-67758000D01*
X168970000Y-70418000D02*
X168970000Y-67758000D01*
X166370000Y-70418000D02*
X168970000Y-70418000D01*
X166370000Y-70418000D02*
X166370000Y-67758000D01*
X109176000Y-90114000D02*
X107926000Y-90114000D01*
X109176000Y-91364000D02*
X109176000Y-90114000D01*
X103676000Y-97264000D02*
X103676000Y-94214000D01*
X106626000Y-97264000D02*
X103676000Y-97264000D01*
X106626000Y-98014000D02*
X106626000Y-97264000D01*
X103676000Y-91164000D02*
X103676000Y-94214000D01*
X106626000Y-91164000D02*
X103676000Y-91164000D01*
X106626000Y-90414000D02*
X106626000Y-91164000D01*
X108876000Y-98014000D02*
X108876000Y-96214000D01*
X108126000Y-98014000D02*
X108876000Y-98014000D01*
X108126000Y-96214000D02*
X108126000Y-98014000D01*
X108876000Y-96214000D02*
X108126000Y-96214000D01*
X108876000Y-92214000D02*
X108876000Y-90414000D01*
X108126000Y-92214000D02*
X108876000Y-92214000D01*
X108126000Y-90414000D02*
X108126000Y-92214000D01*
X108876000Y-90414000D02*
X108126000Y-90414000D01*
X108876000Y-94714000D02*
X108876000Y-93714000D01*
X108126000Y-94714000D02*
X108876000Y-94714000D01*
X108126000Y-93714000D02*
X108126000Y-94714000D01*
X108876000Y-93714000D02*
X108126000Y-93714000D01*
X108886000Y-98024000D02*
X108886000Y-90404000D01*
X102916000Y-98024000D02*
X108886000Y-98024000D01*
X102916000Y-90404000D02*
X102916000Y-98024000D01*
X108886000Y-90404000D02*
X102916000Y-90404000D01*
X125134000Y-102565000D02*
X125134000Y-101615000D01*
X127734000Y-102565000D02*
X125134000Y-102565000D01*
X125134000Y-100315000D02*
X125134000Y-99515000D01*
X123750000Y-80764748D02*
X123750000Y-81287252D01*
X125170000Y-80764748D02*
X125170000Y-81287252D01*
X133402000Y-81272748D02*
X133402000Y-81795252D01*
X134822000Y-81272748D02*
X134822000Y-81795252D01*
X148201748Y-91642000D02*
X148724252Y-91642000D01*
X148201748Y-90222000D02*
X148724252Y-90222000D01*
X148201748Y-89483000D02*
X148724252Y-89483000D01*
X148201748Y-88063000D02*
X148724252Y-88063000D01*
X141784000Y-105783748D02*
X141784000Y-106306252D01*
X143204000Y-105783748D02*
X143204000Y-106306252D01*
X143943000Y-105783748D02*
X143943000Y-106306252D01*
X145363000Y-105783748D02*
X145363000Y-106306252D01*
X146102000Y-105783748D02*
X146102000Y-106306252D01*
X147522000Y-105783748D02*
X147522000Y-106306252D01*
X153976000Y-99052748D02*
X153976000Y-99575252D01*
X155396000Y-99052748D02*
X155396000Y-99575252D01*
X154293500Y-94798248D02*
X154293500Y-95320752D01*
X155713500Y-94798248D02*
X155713500Y-95320752D01*
X153722000Y-105910748D02*
X153722000Y-106433252D01*
X155142000Y-105910748D02*
X155142000Y-106433252D01*
X110288000Y-95242748D02*
X110288000Y-95765252D01*
X111708000Y-95242748D02*
X111708000Y-95765252D01*
X129973000Y-86225748D02*
X129973000Y-86748252D01*
X131393000Y-86225748D02*
X131393000Y-86748252D01*
X131818748Y-76148000D02*
X132341252Y-76148000D01*
X131818748Y-74728000D02*
X132341252Y-74728000D01*
X157682000Y-69095252D02*
X157682000Y-68572748D01*
X156262000Y-69095252D02*
X156262000Y-68572748D01*
X112701000Y-88003748D02*
X112701000Y-88526252D01*
X114121000Y-88003748D02*
X114121000Y-88526252D01*
D10*
X150212000Y-94927000D02*
X150212000Y-93502000D01*
X150437000Y-102177000D02*
X150437000Y-101852000D01*
X143187000Y-102177000D02*
X143187000Y-101852000D01*
X143187000Y-94927000D02*
X143187000Y-95252000D01*
X150437000Y-94927000D02*
X150437000Y-95252000D01*
X143187000Y-94927000D02*
X143512000Y-94927000D01*
X143187000Y-102177000D02*
X143512000Y-102177000D01*
X150437000Y-102177000D02*
X150112000Y-102177000D01*
X150437000Y-94927000D02*
X150212000Y-94927000D01*
D11*
X126090000Y-86265936D02*
X126090000Y-87470064D01*
X127910000Y-86265936D02*
X127910000Y-87470064D01*
X108234064Y-72427000D02*
X107029936Y-72427000D01*
X108234064Y-75147000D02*
X107029936Y-75147000D01*
X123857936Y-76094000D02*
X125062064Y-76094000D01*
X123857936Y-74274000D02*
X125062064Y-74274000D01*
X111146000Y-78836436D02*
X111146000Y-80040564D01*
X109326000Y-78836436D02*
X109326000Y-80040564D01*
X139286064Y-74528000D02*
X138081936Y-74528000D01*
X139286064Y-76348000D02*
X138081936Y-76348000D01*
X150093000Y-105950936D02*
X150093000Y-107155064D01*
X151913000Y-105950936D02*
X151913000Y-107155064D01*
X121772000Y-105315936D02*
X121772000Y-106520064D01*
X123592000Y-105315936D02*
X123592000Y-106520064D01*
X120086000Y-101725000D02*
X120086000Y-100265000D01*
X123246000Y-101725000D02*
X123246000Y-99565000D01*
X123246000Y-101725000D02*
X122316000Y-101725000D01*
X120086000Y-101725000D02*
X121016000Y-101725000D01*
X117877000Y-88805936D02*
X117877000Y-90010064D01*
X116057000Y-88805936D02*
X116057000Y-90010064D01*
X114956000Y-74833564D02*
X114956000Y-73629436D01*
X113136000Y-74833564D02*
X113136000Y-73629436D01*
X139286064Y-83926000D02*
X138081936Y-83926000D01*
X139286064Y-85746000D02*
X138081936Y-85746000D01*
X178869000Y-78520775D02*
X179369000Y-78520775D01*
X179119000Y-78770775D02*
X179119000Y-78270775D01*
X180310000Y-73365000D02*
X180878000Y-73365000D01*
X180076000Y-73405000D02*
X181112000Y-73405000D01*
X179917000Y-73445000D02*
X181271000Y-73445000D01*
X179789000Y-73485000D02*
X181399000Y-73485000D01*
X179679000Y-73525000D02*
X181509000Y-73525000D01*
X179583000Y-73565000D02*
X181605000Y-73565000D01*
X179496000Y-73605000D02*
X181692000Y-73605000D01*
X179416000Y-73645000D02*
X181772000Y-73645000D01*
X181634000Y-73685000D02*
X181845000Y-73685000D01*
X179343000Y-73685000D02*
X179554000Y-73685000D01*
X181634000Y-73725000D02*
X181913000Y-73725000D01*
X179275000Y-73725000D02*
X179554000Y-73725000D01*
X181634000Y-73765000D02*
X181977000Y-73765000D01*
X179211000Y-73765000D02*
X179554000Y-73765000D01*
X181634000Y-73805000D02*
X182037000Y-73805000D01*
X179151000Y-73805000D02*
X179554000Y-73805000D01*
X181634000Y-73845000D02*
X182094000Y-73845000D01*
X179094000Y-73845000D02*
X179554000Y-73845000D01*
X181634000Y-73885000D02*
X182148000Y-73885000D01*
X179040000Y-73885000D02*
X179554000Y-73885000D01*
X181634000Y-73925000D02*
X182199000Y-73925000D01*
X178989000Y-73925000D02*
X179554000Y-73925000D01*
X181634000Y-73965000D02*
X182247000Y-73965000D01*
X178941000Y-73965000D02*
X179554000Y-73965000D01*
X181634000Y-74005000D02*
X182293000Y-74005000D01*
X178895000Y-74005000D02*
X179554000Y-74005000D01*
X181634000Y-74045000D02*
X182337000Y-74045000D01*
X178851000Y-74045000D02*
X179554000Y-74045000D01*
X181634000Y-74085000D02*
X182379000Y-74085000D01*
X178809000Y-74085000D02*
X179554000Y-74085000D01*
X181634000Y-74125000D02*
X182420000Y-74125000D01*
X178768000Y-74125000D02*
X179554000Y-74125000D01*
X181634000Y-74165000D02*
X182458000Y-74165000D01*
X178730000Y-74165000D02*
X179554000Y-74165000D01*
X181634000Y-74205000D02*
X182495000Y-74205000D01*
X178693000Y-74205000D02*
X179554000Y-74205000D01*
X181634000Y-74245000D02*
X182531000Y-74245000D01*
X178657000Y-74245000D02*
X179554000Y-74245000D01*
X181634000Y-74285000D02*
X182565000Y-74285000D01*
X178623000Y-74285000D02*
X179554000Y-74285000D01*
X181634000Y-74325000D02*
X182598000Y-74325000D01*
X178590000Y-74325000D02*
X179554000Y-74325000D01*
X181634000Y-74365000D02*
X182629000Y-74365000D01*
X178559000Y-74365000D02*
X179554000Y-74365000D01*
X181634000Y-74405000D02*
X182659000Y-74405000D01*
X178529000Y-74405000D02*
X179554000Y-74405000D01*
X181634000Y-74445000D02*
X182689000Y-74445000D01*
X178499000Y-74445000D02*
X179554000Y-74445000D01*
X181634000Y-74485000D02*
X182716000Y-74485000D01*
X178472000Y-74485000D02*
X179554000Y-74485000D01*
X181634000Y-74525000D02*
X182743000Y-74525000D01*
X178445000Y-74525000D02*
X179554000Y-74525000D01*
X181634000Y-74565000D02*
X182769000Y-74565000D01*
X178419000Y-74565000D02*
X179554000Y-74565000D01*
X181634000Y-74605000D02*
X182794000Y-74605000D01*
X178394000Y-74605000D02*
X179554000Y-74605000D01*
X181634000Y-74645000D02*
X182818000Y-74645000D01*
X178370000Y-74645000D02*
X179554000Y-74645000D01*
X181634000Y-74685000D02*
X182841000Y-74685000D01*
X178347000Y-74685000D02*
X179554000Y-74685000D01*
X181634000Y-74725000D02*
X182862000Y-74725000D01*
X178326000Y-74725000D02*
X179554000Y-74725000D01*
X181634000Y-74765000D02*
X182884000Y-74765000D01*
X178304000Y-74765000D02*
X179554000Y-74765000D01*
X181634000Y-74805000D02*
X182904000Y-74805000D01*
X178284000Y-74805000D02*
X179554000Y-74805000D01*
X181634000Y-74845000D02*
X182923000Y-74845000D01*
X178265000Y-74845000D02*
X179554000Y-74845000D01*
X181634000Y-74885000D02*
X182942000Y-74885000D01*
X178246000Y-74885000D02*
X179554000Y-74885000D01*
X181634000Y-74925000D02*
X182959000Y-74925000D01*
X178229000Y-74925000D02*
X179554000Y-74925000D01*
X181634000Y-74965000D02*
X182976000Y-74965000D01*
X178212000Y-74965000D02*
X179554000Y-74965000D01*
X181634000Y-75005000D02*
X182992000Y-75005000D01*
X178196000Y-75005000D02*
X179554000Y-75005000D01*
X181634000Y-75045000D02*
X183008000Y-75045000D01*
X178180000Y-75045000D02*
X179554000Y-75045000D01*
X181634000Y-75085000D02*
X183022000Y-75085000D01*
X178166000Y-75085000D02*
X179554000Y-75085000D01*
X181634000Y-75125000D02*
X183036000Y-75125000D01*
X178152000Y-75125000D02*
X179554000Y-75125000D01*
X181634000Y-75165000D02*
X183049000Y-75165000D01*
X178139000Y-75165000D02*
X179554000Y-75165000D01*
X181634000Y-75205000D02*
X183062000Y-75205000D01*
X178126000Y-75205000D02*
X179554000Y-75205000D01*
X181634000Y-75245000D02*
X183074000Y-75245000D01*
X178114000Y-75245000D02*
X179554000Y-75245000D01*
X181634000Y-75286000D02*
X183085000Y-75286000D01*
X178103000Y-75286000D02*
X179554000Y-75286000D01*
X181634000Y-75326000D02*
X183095000Y-75326000D01*
X178093000Y-75326000D02*
X179554000Y-75326000D01*
X181634000Y-75366000D02*
X183105000Y-75366000D01*
X178083000Y-75366000D02*
X179554000Y-75366000D01*
X181634000Y-75406000D02*
X183114000Y-75406000D01*
X178074000Y-75406000D02*
X179554000Y-75406000D01*
X181634000Y-75446000D02*
X183122000Y-75446000D01*
X178066000Y-75446000D02*
X179554000Y-75446000D01*
X181634000Y-75486000D02*
X183130000Y-75486000D01*
X178058000Y-75486000D02*
X179554000Y-75486000D01*
X181634000Y-75526000D02*
X183137000Y-75526000D01*
X178051000Y-75526000D02*
X179554000Y-75526000D01*
X181634000Y-75566000D02*
X183144000Y-75566000D01*
X178044000Y-75566000D02*
X179554000Y-75566000D01*
X181634000Y-75606000D02*
X183150000Y-75606000D01*
X178038000Y-75606000D02*
X179554000Y-75606000D01*
X181634000Y-75646000D02*
X183155000Y-75646000D01*
X178033000Y-75646000D02*
X179554000Y-75646000D01*
X181634000Y-75686000D02*
X183159000Y-75686000D01*
X178029000Y-75686000D02*
X179554000Y-75686000D01*
X181634000Y-75726000D02*
X183163000Y-75726000D01*
X178025000Y-75726000D02*
X179554000Y-75726000D01*
X178021000Y-75766000D02*
X183167000Y-75766000D01*
X178018000Y-75806000D02*
X183170000Y-75806000D01*
X178016000Y-75846000D02*
X183172000Y-75846000D01*
X178015000Y-75886000D02*
X183173000Y-75886000D01*
X178014000Y-75926000D02*
X183174000Y-75926000D01*
X178014000Y-75966000D02*
X183174000Y-75966000D01*
X183214000Y-75966000D02*
G75*
G03X183214000Y-75966000I-2620000J0D01*
G01*
X129932000Y-79416000D02*
X127482000Y-79416000D01*
X128132000Y-82636000D02*
X129932000Y-82636000D01*
X115475936Y-95906000D02*
X116680064Y-95906000D01*
X115475936Y-94086000D02*
X116680064Y-94086000D01*
X144304936Y-85746000D02*
X145509064Y-85746000D01*
X144304936Y-83926000D02*
X145509064Y-83926000D01*
D10*
X106540000Y-83588000D02*
X106540000Y-84588000D01*
X106540000Y-79988000D02*
X106540000Y-78988000D01*
X106965000Y-79988000D02*
X106540000Y-79988000D01*
X106965000Y-80713000D02*
X106965000Y-79988000D01*
X103390000Y-85938000D02*
X104790000Y-85938000D01*
X100840000Y-85938000D02*
X100990000Y-85938000D01*
X100840000Y-85638000D02*
X100840000Y-85938000D01*
X100390000Y-85638000D02*
X100840000Y-85638000D01*
X100840000Y-77938000D02*
X100390000Y-77938000D01*
X100840000Y-77638000D02*
X100840000Y-77938000D01*
X100990000Y-77638000D02*
X100840000Y-77638000D01*
X104790000Y-77638000D02*
X103390000Y-77638000D01*
D11*
X125328000Y-105351936D02*
X125328000Y-106556064D01*
X127148000Y-105351936D02*
X127148000Y-106556064D01*
X142461064Y-80243000D02*
X141256936Y-80243000D01*
X142461064Y-82063000D02*
X141256936Y-82063000D01*
X151035936Y-79650000D02*
X152240064Y-79650000D01*
X151035936Y-77830000D02*
X152240064Y-77830000D01*
X121063936Y-95906000D02*
X122268064Y-95906000D01*
X121063936Y-94086000D02*
X122268064Y-94086000D01*
X113853000Y-70786000D02*
X113853000Y-66726000D01*
X110683000Y-70786000D02*
X113853000Y-70786000D01*
X110683000Y-66726000D02*
X110683000Y-70786000D01*
X118425000Y-70786000D02*
X118425000Y-66726000D01*
X115255000Y-70786000D02*
X118425000Y-70786000D01*
X115255000Y-66726000D02*
X115255000Y-70786000D01*
X119994000Y-80931936D02*
X119994000Y-82136064D01*
X121814000Y-80931936D02*
X121814000Y-82136064D01*
X147687000Y-74264000D02*
X147687000Y-76104000D01*
X147687000Y-76104000D02*
X150967000Y-76104000D01*
X150967000Y-76104000D02*
X150967000Y-74264000D01*
X150967000Y-74264000D02*
X147687000Y-74264000D01*
X146507000Y-75184000D02*
X147687000Y-75184000D01*
X152147000Y-75184000D02*
X150967000Y-75184000D01*
X148263000Y-74264000D02*
X148263000Y-76104000D01*
X148383000Y-74264000D02*
X148383000Y-76104000D01*
X148143000Y-74264000D02*
X148143000Y-76104000D01*
X141227462Y-65896200D02*
G75*
G03X139682170Y-71446200I-462J-2990000D01*
G01*
X141226538Y-65896200D02*
G75*
G02X142771830Y-71446200I462J-2990000D01*
G01*
X143727000Y-68886200D02*
G75*
G03X143727000Y-68886200I-2500000J0D01*
G01*
X139682000Y-71446200D02*
X142772000Y-71446200D01*
X131678000Y-71446200D02*
X134768000Y-71446200D01*
X135723000Y-68886200D02*
G75*
G03X135723000Y-68886200I-2500000J0D01*
G01*
X133222538Y-65896200D02*
G75*
G02X134767830Y-71446200I462J-2990000D01*
G01*
X133223462Y-65896200D02*
G75*
G03X131678170Y-71446200I-462J-2990000D01*
G01*
X125225462Y-65896200D02*
G75*
G03X123680170Y-71446200I-462J-2990000D01*
G01*
X125224538Y-65896200D02*
G75*
G02X126769830Y-71446200I462J-2990000D01*
G01*
X127725000Y-68886200D02*
G75*
G03X127725000Y-68886200I-2500000J0D01*
G01*
X123680000Y-71446200D02*
X126770000Y-71446200D01*
X129437000Y-108728000D02*
X129437000Y-92948000D01*
X129437000Y-92948000D02*
X138787000Y-92948000D01*
X138787000Y-92948000D02*
X138787000Y-108728000D01*
X138787000Y-108728000D02*
X129437000Y-108728000D01*
X139037000Y-108978000D02*
X139037000Y-106438000D01*
X139037000Y-108978000D02*
X136497000Y-108978000D01*
X160080000Y-105410000D02*
X157420000Y-105410000D01*
X160080000Y-105410000D02*
X160080000Y-92650000D01*
X160080000Y-92650000D02*
X157420000Y-92650000D01*
X157420000Y-105410000D02*
X157420000Y-92650000D01*
X157420000Y-108010000D02*
X157420000Y-106680000D01*
X158750000Y-108010000D02*
X157420000Y-108010000D01*
D10*
X117641000Y-108051000D02*
X117641000Y-107951000D01*
X112991000Y-108051000D02*
X112991000Y-107851000D01*
X112991000Y-104801000D02*
X112991000Y-105001000D01*
X117641000Y-104801000D02*
X117641000Y-105001000D01*
X117641000Y-108051000D02*
X112991000Y-108051000D01*
X117641000Y-104801000D02*
X112991000Y-104801000D01*
X117641000Y-107951000D02*
X118991000Y-107951000D01*
D11*
X108564000Y-101505936D02*
X108564000Y-102710064D01*
X110384000Y-101505936D02*
X110384000Y-102710064D01*
X118766000Y-74833564D02*
X118766000Y-73629436D01*
X116946000Y-74833564D02*
X116946000Y-73629436D01*
X109326000Y-85757936D02*
X109326000Y-86962064D01*
X111146000Y-85757936D02*
X111146000Y-86962064D01*
X153404000Y-72486000D02*
X153404000Y-72136000D01*
X154294000Y-72486000D02*
X153404000Y-72486000D01*
X154294000Y-72186000D02*
X154294000Y-72486000D01*
X154294000Y-69546000D02*
X154294000Y-65696000D01*
X154294000Y-65696000D02*
X146554000Y-65696000D01*
X146554000Y-65696000D02*
X146554000Y-69546000D01*
X147934000Y-69936000D02*
X152914000Y-69936000D01*
X147444000Y-72486000D02*
X146554000Y-72486000D01*
X147444000Y-72486000D02*
X147444000Y-72136000D01*
X146554000Y-72186000D02*
X146554000Y-72486000D01*
X177937000Y-79808200D02*
X177937000Y-85142200D01*
X177937000Y-85142200D02*
X167269000Y-85142200D01*
X167269000Y-85142200D02*
X167269000Y-79808200D01*
X167269000Y-79808200D02*
X167269000Y-79808200D01*
X177429000Y-82348200D02*
X175143000Y-82348200D01*
X175143000Y-82348200D02*
X175143000Y-80062200D01*
X175143000Y-80062200D02*
X175143000Y-80062200D01*
X178513000Y-79478200D02*
X178513000Y-108678200D01*
X178513000Y-108678200D02*
X163063000Y-108678200D01*
X163063000Y-108678200D02*
X163063000Y-79478200D01*
X163063000Y-79478200D02*
X178513000Y-79478200D01*
X178513000Y-79478200D02*
X178513000Y-79478200D01*
X167269000Y-79808200D02*
X177937000Y-79808200D01*
X177937000Y-79808200D02*
X177937000Y-79808200D01*
X118130000Y-83992000D02*
X118130000Y-80092000D01*
X113010000Y-85492000D02*
X113010000Y-80092000D01*
X115910000Y-100722000D02*
X115910000Y-98922000D01*
X112690000Y-98922000D02*
X112690000Y-101872000D01*
X136908000Y-86883000D02*
X143308000Y-86883000D01*
X136908000Y-91933000D02*
X143308000Y-91933000D01*
X136908000Y-91933000D02*
G75*
G02X136908000Y-86883000I0J2525000D01*
G01*
X143308000Y-91933000D02*
G75*
G03X143308000Y-86883000I0J2525000D01*
G01*
D12*
G36*
X171315964Y-92918576D02*
G01*
X171391513Y-93319322D01*
X171949041Y-93549154D01*
X172283465Y-93321748D01*
X172377122Y-93258431D01*
X172461782Y-93201896D01*
X172533495Y-93154727D01*
X172588311Y-93119502D01*
X172622280Y-93098805D01*
X172631530Y-93094342D01*
X172648195Y-93105820D01*
X172683806Y-93137551D01*
X172734371Y-93185483D01*
X172795900Y-93245562D01*
X172864399Y-93313733D01*
X172935879Y-93385945D01*
X173006347Y-93458142D01*
X173071811Y-93526273D01*
X173128280Y-93586283D01*
X173171763Y-93634119D01*
X173198268Y-93665727D01*
X173204605Y-93676305D01*
X173195486Y-93695806D01*
X173169920Y-93738531D01*
X173130597Y-93800298D01*
X173080203Y-93876931D01*
X173021427Y-93964248D01*
X172987368Y-94014052D01*
X172925289Y-94104993D01*
X172870126Y-94187059D01*
X172824554Y-94256163D01*
X172791250Y-94308222D01*
X172772890Y-94339150D01*
X172770131Y-94345650D01*
X172776385Y-94364121D01*
X172793434Y-94407172D01*
X172818703Y-94468749D01*
X172849622Y-94542799D01*
X172883618Y-94623270D01*
X172918118Y-94704107D01*
X172950551Y-94779258D01*
X172978343Y-94842671D01*
X172998923Y-94888293D01*
X173009719Y-94910069D01*
X173010356Y-94910926D01*
X173027307Y-94915084D01*
X173072451Y-94924361D01*
X173141110Y-94937844D01*
X173228602Y-94954621D01*
X173330250Y-94973781D01*
X173389556Y-94984830D01*
X173498172Y-95005510D01*
X173596277Y-95025189D01*
X173678909Y-95042789D01*
X173741104Y-95057233D01*
X173777899Y-95067446D01*
X173785296Y-95070686D01*
X173792540Y-95092617D01*
X173798385Y-95142147D01*
X173802835Y-95213485D01*
X173805893Y-95300839D01*
X173807565Y-95398417D01*
X173807853Y-95500426D01*
X173806761Y-95601075D01*
X173804294Y-95694572D01*
X173800456Y-95775125D01*
X173795250Y-95836942D01*
X173788681Y-95874230D01*
X173784741Y-95881993D01*
X173761188Y-95891298D01*
X173711282Y-95904600D01*
X173641623Y-95920337D01*
X173558813Y-95936946D01*
X173529905Y-95942319D01*
X173390531Y-95967848D01*
X173280436Y-95988408D01*
X173195982Y-96004815D01*
X173133530Y-96017887D01*
X173089444Y-96028441D01*
X173060085Y-96037294D01*
X173041815Y-96045263D01*
X173030998Y-96053165D01*
X173029485Y-96054727D01*
X173014377Y-96079886D01*
X172991329Y-96128850D01*
X172962644Y-96195621D01*
X172930622Y-96274205D01*
X172897565Y-96358607D01*
X172865773Y-96442830D01*
X172837549Y-96520879D01*
X172815193Y-96586759D01*
X172801007Y-96634473D01*
X172797293Y-96658027D01*
X172797602Y-96658852D01*
X172810189Y-96678104D01*
X172838744Y-96720463D01*
X172880267Y-96781521D01*
X172931756Y-96856868D01*
X172990211Y-96942096D01*
X173006858Y-96966315D01*
X173066215Y-97054123D01*
X173118447Y-97134238D01*
X173160708Y-97202062D01*
X173190153Y-97252993D01*
X173203937Y-97282431D01*
X173204605Y-97286048D01*
X173193024Y-97305057D01*
X173161024Y-97342714D01*
X173112718Y-97394973D01*
X173052220Y-97457786D01*
X172983644Y-97527106D01*
X172911104Y-97598885D01*
X172838712Y-97669077D01*
X172770584Y-97733635D01*
X172710832Y-97788510D01*
X172663571Y-97829656D01*
X172632913Y-97853026D01*
X172624432Y-97856842D01*
X172604691Y-97847855D01*
X172564274Y-97823616D01*
X172509763Y-97788209D01*
X172467823Y-97759711D01*
X172391829Y-97707418D01*
X172301834Y-97645845D01*
X172211564Y-97584370D01*
X172163032Y-97551469D01*
X171998762Y-97440359D01*
X171860869Y-97514916D01*
X171798049Y-97547578D01*
X171744629Y-97572966D01*
X171708484Y-97587446D01*
X171699284Y-97589460D01*
X171688221Y-97574584D01*
X171666394Y-97532547D01*
X171635434Y-97467227D01*
X171596970Y-97382500D01*
X171552632Y-97282245D01*
X171504047Y-97170339D01*
X171452846Y-97050659D01*
X171400659Y-96927084D01*
X171349113Y-96803491D01*
X171299840Y-96683757D01*
X171254467Y-96571759D01*
X171214625Y-96471377D01*
X171181942Y-96386486D01*
X171158049Y-96320965D01*
X171144574Y-96278690D01*
X171142406Y-96264172D01*
X171159583Y-96245653D01*
X171197190Y-96215590D01*
X171247366Y-96180232D01*
X171251578Y-96177434D01*
X171381264Y-96073625D01*
X171485834Y-95952515D01*
X171564381Y-95817976D01*
X171615999Y-95673882D01*
X171639782Y-95524105D01*
X171634823Y-95372517D01*
X171600217Y-95222992D01*
X171535057Y-95079400D01*
X171515886Y-95047984D01*
X171416174Y-94921125D01*
X171298377Y-94819255D01*
X171166571Y-94742904D01*
X171024833Y-94692602D01*
X170877242Y-94668879D01*
X170727873Y-94672265D01*
X170580803Y-94703288D01*
X170440111Y-94762480D01*
X170309873Y-94850369D01*
X170269586Y-94886042D01*
X170167055Y-94997706D01*
X170092341Y-95115257D01*
X170041090Y-95247020D01*
X170012546Y-95377507D01*
X170005500Y-95524216D01*
X170028996Y-95671653D01*
X170080649Y-95814834D01*
X170158071Y-95948777D01*
X170258875Y-96068498D01*
X170380676Y-96169014D01*
X170396684Y-96179609D01*
X170447398Y-96214306D01*
X170485950Y-96244370D01*
X170504381Y-96263565D01*
X170504649Y-96264172D01*
X170500692Y-96284936D01*
X170485007Y-96332062D01*
X170459222Y-96401673D01*
X170424969Y-96489893D01*
X170383877Y-96592844D01*
X170337576Y-96706650D01*
X170287696Y-96827435D01*
X170235867Y-96951321D01*
X170183719Y-97074432D01*
X170132882Y-97192891D01*
X170084987Y-97302823D01*
X170041662Y-97400349D01*
X170004538Y-97481593D01*
X169975244Y-97542679D01*
X169955412Y-97579730D01*
X169947426Y-97589460D01*
X169923021Y-97581883D01*
X169877358Y-97561560D01*
X169818310Y-97532125D01*
X169785840Y-97514916D01*
X169647947Y-97440359D01*
X169483677Y-97551469D01*
X169399821Y-97608390D01*
X169308013Y-97671030D01*
X169221980Y-97730011D01*
X169178887Y-97759711D01*
X169118277Y-97800410D01*
X169066955Y-97832663D01*
X169031615Y-97852384D01*
X169020137Y-97856554D01*
X169003430Y-97845307D01*
X168966454Y-97813911D01*
X168912795Y-97765624D01*
X168846038Y-97703708D01*
X168769766Y-97631421D01*
X168721527Y-97585008D01*
X168637133Y-97502087D01*
X168564197Y-97427920D01*
X168505669Y-97365680D01*
X168464497Y-97318541D01*
X168443628Y-97289673D01*
X168441626Y-97283815D01*
X168450917Y-97261532D01*
X168476591Y-97216477D01*
X168515800Y-97153211D01*
X168565697Y-97076295D01*
X168623433Y-96990292D01*
X168639851Y-96966315D01*
X168699677Y-96879170D01*
X168753350Y-96800710D01*
X168797870Y-96735345D01*
X168830235Y-96687484D01*
X168847445Y-96661535D01*
X168849107Y-96658852D01*
X168846621Y-96638172D01*
X168833423Y-96592704D01*
X168811814Y-96528444D01*
X168784096Y-96451387D01*
X168752570Y-96367529D01*
X168719537Y-96282866D01*
X168687299Y-96203392D01*
X168658157Y-96135104D01*
X168634412Y-96083997D01*
X168618365Y-96056067D01*
X168617225Y-96054727D01*
X168607412Y-96046745D01*
X168590839Y-96038851D01*
X168563868Y-96030229D01*
X168522861Y-96020062D01*
X168464180Y-96007531D01*
X168384187Y-95991821D01*
X168279245Y-95972113D01*
X168145715Y-95947592D01*
X168116804Y-95942319D01*
X168031118Y-95925764D01*
X167956418Y-95909569D01*
X167899306Y-95895296D01*
X167866383Y-95884508D01*
X167861969Y-95881993D01*
X167854694Y-95859696D01*
X167848781Y-95809869D01*
X167844234Y-95738304D01*
X167841055Y-95650793D01*
X167839251Y-95553128D01*
X167838823Y-95451101D01*
X167839777Y-95350503D01*
X167842116Y-95257127D01*
X167845844Y-95176765D01*
X167850966Y-95115209D01*
X167857484Y-95078250D01*
X167861414Y-95070686D01*
X167883292Y-95063056D01*
X167933109Y-95050642D01*
X168005903Y-95034522D01*
X168096711Y-95015773D01*
X168200569Y-94995471D01*
X168257154Y-94984830D01*
X168364514Y-94964760D01*
X168460254Y-94946580D01*
X168539694Y-94931199D01*
X168598154Y-94919531D01*
X168630955Y-94912488D01*
X168636354Y-94910926D01*
X168645478Y-94893322D01*
X168664765Y-94850918D01*
X168691645Y-94789772D01*
X168723546Y-94715943D01*
X168757898Y-94635489D01*
X168792129Y-94554468D01*
X168823669Y-94478937D01*
X168849946Y-94414955D01*
X168868389Y-94368580D01*
X168876429Y-94345869D01*
X168876578Y-94344876D01*
X168867465Y-94326961D01*
X168841914Y-94285733D01*
X168802612Y-94225291D01*
X168752243Y-94149731D01*
X168693494Y-94063152D01*
X168659342Y-94013421D01*
X168597110Y-93922236D01*
X168541836Y-93839449D01*
X168496218Y-93769249D01*
X168462952Y-93715824D01*
X168444736Y-93683361D01*
X168442105Y-93676083D01*
X168453414Y-93659145D01*
X168484681Y-93622978D01*
X168531910Y-93571635D01*
X168591108Y-93509167D01*
X168658281Y-93439626D01*
X168729434Y-93367065D01*
X168800574Y-93295535D01*
X168867707Y-93229087D01*
X168926839Y-93171774D01*
X168973975Y-93127647D01*
X169005123Y-93100759D01*
X169015543Y-93094342D01*
X169032509Y-93103365D01*
X169073089Y-93128715D01*
X169133337Y-93167810D01*
X169209307Y-93218071D01*
X169297054Y-93276917D01*
X169363244Y-93321748D01*
X169697668Y-93549154D01*
X169976433Y-93434238D01*
X170255197Y-93319322D01*
X170330746Y-92918576D01*
X170406294Y-92517829D01*
X171240415Y-92517829D01*
X171315964Y-92918576D01*
X171315964Y-92918576D01*
G37*
X171315964Y-92918576D02*
X171391513Y-93319322D01*
X171949041Y-93549154D01*
X172283465Y-93321748D01*
X172377122Y-93258431D01*
X172461782Y-93201896D01*
X172533495Y-93154727D01*
X172588311Y-93119502D01*
X172622280Y-93098805D01*
X172631530Y-93094342D01*
X172648195Y-93105820D01*
X172683806Y-93137551D01*
X172734371Y-93185483D01*
X172795900Y-93245562D01*
X172864399Y-93313733D01*
X172935879Y-93385945D01*
X173006347Y-93458142D01*
X173071811Y-93526273D01*
X173128280Y-93586283D01*
X173171763Y-93634119D01*
X173198268Y-93665727D01*
X173204605Y-93676305D01*
X173195486Y-93695806D01*
X173169920Y-93738531D01*
X173130597Y-93800298D01*
X173080203Y-93876931D01*
X173021427Y-93964248D01*
X172987368Y-94014052D01*
X172925289Y-94104993D01*
X172870126Y-94187059D01*
X172824554Y-94256163D01*
X172791250Y-94308222D01*
X172772890Y-94339150D01*
X172770131Y-94345650D01*
X172776385Y-94364121D01*
X172793434Y-94407172D01*
X172818703Y-94468749D01*
X172849622Y-94542799D01*
X172883618Y-94623270D01*
X172918118Y-94704107D01*
X172950551Y-94779258D01*
X172978343Y-94842671D01*
X172998923Y-94888293D01*
X173009719Y-94910069D01*
X173010356Y-94910926D01*
X173027307Y-94915084D01*
X173072451Y-94924361D01*
X173141110Y-94937844D01*
X173228602Y-94954621D01*
X173330250Y-94973781D01*
X173389556Y-94984830D01*
X173498172Y-95005510D01*
X173596277Y-95025189D01*
X173678909Y-95042789D01*
X173741104Y-95057233D01*
X173777899Y-95067446D01*
X173785296Y-95070686D01*
X173792540Y-95092617D01*
X173798385Y-95142147D01*
X173802835Y-95213485D01*
X173805893Y-95300839D01*
X173807565Y-95398417D01*
X173807853Y-95500426D01*
X173806761Y-95601075D01*
X173804294Y-95694572D01*
X173800456Y-95775125D01*
X173795250Y-95836942D01*
X173788681Y-95874230D01*
X173784741Y-95881993D01*
X173761188Y-95891298D01*
X173711282Y-95904600D01*
X173641623Y-95920337D01*
X173558813Y-95936946D01*
X173529905Y-95942319D01*
X173390531Y-95967848D01*
X173280436Y-95988408D01*
X173195982Y-96004815D01*
X173133530Y-96017887D01*
X173089444Y-96028441D01*
X173060085Y-96037294D01*
X173041815Y-96045263D01*
X173030998Y-96053165D01*
X173029485Y-96054727D01*
X173014377Y-96079886D01*
X172991329Y-96128850D01*
X172962644Y-96195621D01*
X172930622Y-96274205D01*
X172897565Y-96358607D01*
X172865773Y-96442830D01*
X172837549Y-96520879D01*
X172815193Y-96586759D01*
X172801007Y-96634473D01*
X172797293Y-96658027D01*
X172797602Y-96658852D01*
X172810189Y-96678104D01*
X172838744Y-96720463D01*
X172880267Y-96781521D01*
X172931756Y-96856868D01*
X172990211Y-96942096D01*
X173006858Y-96966315D01*
X173066215Y-97054123D01*
X173118447Y-97134238D01*
X173160708Y-97202062D01*
X173190153Y-97252993D01*
X173203937Y-97282431D01*
X173204605Y-97286048D01*
X173193024Y-97305057D01*
X173161024Y-97342714D01*
X173112718Y-97394973D01*
X173052220Y-97457786D01*
X172983644Y-97527106D01*
X172911104Y-97598885D01*
X172838712Y-97669077D01*
X172770584Y-97733635D01*
X172710832Y-97788510D01*
X172663571Y-97829656D01*
X172632913Y-97853026D01*
X172624432Y-97856842D01*
X172604691Y-97847855D01*
X172564274Y-97823616D01*
X172509763Y-97788209D01*
X172467823Y-97759711D01*
X172391829Y-97707418D01*
X172301834Y-97645845D01*
X172211564Y-97584370D01*
X172163032Y-97551469D01*
X171998762Y-97440359D01*
X171860869Y-97514916D01*
X171798049Y-97547578D01*
X171744629Y-97572966D01*
X171708484Y-97587446D01*
X171699284Y-97589460D01*
X171688221Y-97574584D01*
X171666394Y-97532547D01*
X171635434Y-97467227D01*
X171596970Y-97382500D01*
X171552632Y-97282245D01*
X171504047Y-97170339D01*
X171452846Y-97050659D01*
X171400659Y-96927084D01*
X171349113Y-96803491D01*
X171299840Y-96683757D01*
X171254467Y-96571759D01*
X171214625Y-96471377D01*
X171181942Y-96386486D01*
X171158049Y-96320965D01*
X171144574Y-96278690D01*
X171142406Y-96264172D01*
X171159583Y-96245653D01*
X171197190Y-96215590D01*
X171247366Y-96180232D01*
X171251578Y-96177434D01*
X171381264Y-96073625D01*
X171485834Y-95952515D01*
X171564381Y-95817976D01*
X171615999Y-95673882D01*
X171639782Y-95524105D01*
X171634823Y-95372517D01*
X171600217Y-95222992D01*
X171535057Y-95079400D01*
X171515886Y-95047984D01*
X171416174Y-94921125D01*
X171298377Y-94819255D01*
X171166571Y-94742904D01*
X171024833Y-94692602D01*
X170877242Y-94668879D01*
X170727873Y-94672265D01*
X170580803Y-94703288D01*
X170440111Y-94762480D01*
X170309873Y-94850369D01*
X170269586Y-94886042D01*
X170167055Y-94997706D01*
X170092341Y-95115257D01*
X170041090Y-95247020D01*
X170012546Y-95377507D01*
X170005500Y-95524216D01*
X170028996Y-95671653D01*
X170080649Y-95814834D01*
X170158071Y-95948777D01*
X170258875Y-96068498D01*
X170380676Y-96169014D01*
X170396684Y-96179609D01*
X170447398Y-96214306D01*
X170485950Y-96244370D01*
X170504381Y-96263565D01*
X170504649Y-96264172D01*
X170500692Y-96284936D01*
X170485007Y-96332062D01*
X170459222Y-96401673D01*
X170424969Y-96489893D01*
X170383877Y-96592844D01*
X170337576Y-96706650D01*
X170287696Y-96827435D01*
X170235867Y-96951321D01*
X170183719Y-97074432D01*
X170132882Y-97192891D01*
X170084987Y-97302823D01*
X170041662Y-97400349D01*
X170004538Y-97481593D01*
X169975244Y-97542679D01*
X169955412Y-97579730D01*
X169947426Y-97589460D01*
X169923021Y-97581883D01*
X169877358Y-97561560D01*
X169818310Y-97532125D01*
X169785840Y-97514916D01*
X169647947Y-97440359D01*
X169483677Y-97551469D01*
X169399821Y-97608390D01*
X169308013Y-97671030D01*
X169221980Y-97730011D01*
X169178887Y-97759711D01*
X169118277Y-97800410D01*
X169066955Y-97832663D01*
X169031615Y-97852384D01*
X169020137Y-97856554D01*
X169003430Y-97845307D01*
X168966454Y-97813911D01*
X168912795Y-97765624D01*
X168846038Y-97703708D01*
X168769766Y-97631421D01*
X168721527Y-97585008D01*
X168637133Y-97502087D01*
X168564197Y-97427920D01*
X168505669Y-97365680D01*
X168464497Y-97318541D01*
X168443628Y-97289673D01*
X168441626Y-97283815D01*
X168450917Y-97261532D01*
X168476591Y-97216477D01*
X168515800Y-97153211D01*
X168565697Y-97076295D01*
X168623433Y-96990292D01*
X168639851Y-96966315D01*
X168699677Y-96879170D01*
X168753350Y-96800710D01*
X168797870Y-96735345D01*
X168830235Y-96687484D01*
X168847445Y-96661535D01*
X168849107Y-96658852D01*
X168846621Y-96638172D01*
X168833423Y-96592704D01*
X168811814Y-96528444D01*
X168784096Y-96451387D01*
X168752570Y-96367529D01*
X168719537Y-96282866D01*
X168687299Y-96203392D01*
X168658157Y-96135104D01*
X168634412Y-96083997D01*
X168618365Y-96056067D01*
X168617225Y-96054727D01*
X168607412Y-96046745D01*
X168590839Y-96038851D01*
X168563868Y-96030229D01*
X168522861Y-96020062D01*
X168464180Y-96007531D01*
X168384187Y-95991821D01*
X168279245Y-95972113D01*
X168145715Y-95947592D01*
X168116804Y-95942319D01*
X168031118Y-95925764D01*
X167956418Y-95909569D01*
X167899306Y-95895296D01*
X167866383Y-95884508D01*
X167861969Y-95881993D01*
X167854694Y-95859696D01*
X167848781Y-95809869D01*
X167844234Y-95738304D01*
X167841055Y-95650793D01*
X167839251Y-95553128D01*
X167838823Y-95451101D01*
X167839777Y-95350503D01*
X167842116Y-95257127D01*
X167845844Y-95176765D01*
X167850966Y-95115209D01*
X167857484Y-95078250D01*
X167861414Y-95070686D01*
X167883292Y-95063056D01*
X167933109Y-95050642D01*
X168005903Y-95034522D01*
X168096711Y-95015773D01*
X168200569Y-94995471D01*
X168257154Y-94984830D01*
X168364514Y-94964760D01*
X168460254Y-94946580D01*
X168539694Y-94931199D01*
X168598154Y-94919531D01*
X168630955Y-94912488D01*
X168636354Y-94910926D01*
X168645478Y-94893322D01*
X168664765Y-94850918D01*
X168691645Y-94789772D01*
X168723546Y-94715943D01*
X168757898Y-94635489D01*
X168792129Y-94554468D01*
X168823669Y-94478937D01*
X168849946Y-94414955D01*
X168868389Y-94368580D01*
X168876429Y-94345869D01*
X168876578Y-94344876D01*
X168867465Y-94326961D01*
X168841914Y-94285733D01*
X168802612Y-94225291D01*
X168752243Y-94149731D01*
X168693494Y-94063152D01*
X168659342Y-94013421D01*
X168597110Y-93922236D01*
X168541836Y-93839449D01*
X168496218Y-93769249D01*
X168462952Y-93715824D01*
X168444736Y-93683361D01*
X168442105Y-93676083D01*
X168453414Y-93659145D01*
X168484681Y-93622978D01*
X168531910Y-93571635D01*
X168591108Y-93509167D01*
X168658281Y-93439626D01*
X168729434Y-93367065D01*
X168800574Y-93295535D01*
X168867707Y-93229087D01*
X168926839Y-93171774D01*
X168973975Y-93127647D01*
X169005123Y-93100759D01*
X169015543Y-93094342D01*
X169032509Y-93103365D01*
X169073089Y-93128715D01*
X169133337Y-93167810D01*
X169209307Y-93218071D01*
X169297054Y-93276917D01*
X169363244Y-93321748D01*
X169697668Y-93549154D01*
X169976433Y-93434238D01*
X170255197Y-93319322D01*
X170330746Y-92918576D01*
X170406294Y-92517829D01*
X171240415Y-92517829D01*
X171315964Y-92918576D01*
G36*
X173206388Y-98457645D02*
G01*
X173263865Y-98475206D01*
X173300872Y-98497395D01*
X173312927Y-98514942D01*
X173309609Y-98535742D01*
X173288079Y-98568419D01*
X173269874Y-98591562D01*
X173232344Y-98633402D01*
X173204148Y-98651005D01*
X173180111Y-98649856D01*
X173108808Y-98631710D01*
X173056442Y-98632534D01*
X173013918Y-98653098D01*
X172999642Y-98665134D01*
X172953947Y-98707483D01*
X172953947Y-99260526D01*
X172770131Y-99260526D01*
X172770131Y-98458421D01*
X172862039Y-98458421D01*
X172917219Y-98460603D01*
X172945688Y-98468351D01*
X172953943Y-98483468D01*
X172953947Y-98483916D01*
X172957845Y-98499749D01*
X172975474Y-98497684D01*
X172999901Y-98486261D01*
X173050350Y-98465005D01*
X173091316Y-98452216D01*
X173144028Y-98448938D01*
X173206388Y-98457645D01*
X173206388Y-98457645D01*
G37*
X173206388Y-98457645D02*
X173263865Y-98475206D01*
X173300872Y-98497395D01*
X173312927Y-98514942D01*
X173309609Y-98535742D01*
X173288079Y-98568419D01*
X173269874Y-98591562D01*
X173232344Y-98633402D01*
X173204148Y-98651005D01*
X173180111Y-98649856D01*
X173108808Y-98631710D01*
X173056442Y-98632534D01*
X173013918Y-98653098D01*
X172999642Y-98665134D01*
X172953947Y-98707483D01*
X172953947Y-99260526D01*
X172770131Y-99260526D01*
X172770131Y-98458421D01*
X172862039Y-98458421D01*
X172917219Y-98460603D01*
X172945688Y-98468351D01*
X172953943Y-98483468D01*
X172953947Y-98483916D01*
X172957845Y-98499749D01*
X172975474Y-98497684D01*
X172999901Y-98486261D01*
X173050350Y-98465005D01*
X173091316Y-98452216D01*
X173144028Y-98448938D01*
X173206388Y-98457645D01*
G36*
X169812957Y-98472226D02*
G01*
X169854546Y-98492090D01*
X169894825Y-98520784D01*
X169925510Y-98553809D01*
X169947861Y-98595931D01*
X169963136Y-98651915D01*
X169972592Y-98726528D01*
X169977487Y-98824535D01*
X169979081Y-98950702D01*
X169979106Y-98963914D01*
X169979473Y-99260526D01*
X169795657Y-99260526D01*
X169795657Y-98987081D01*
X169795527Y-98885777D01*
X169794621Y-98812353D01*
X169792173Y-98761271D01*
X169787414Y-98726990D01*
X169779574Y-98703971D01*
X169767885Y-98686673D01*
X169751602Y-98669581D01*
X169694634Y-98632857D01*
X169632445Y-98626042D01*
X169573199Y-98649261D01*
X169552595Y-98666543D01*
X169537470Y-98682791D01*
X169526610Y-98700191D01*
X169519310Y-98724212D01*
X169514863Y-98760322D01*
X169512564Y-98813988D01*
X169511704Y-98890680D01*
X169511578Y-98984043D01*
X169511578Y-99260526D01*
X169327763Y-99260526D01*
X169327763Y-98458421D01*
X169419671Y-98458421D01*
X169474851Y-98460603D01*
X169503320Y-98468351D01*
X169511575Y-98483468D01*
X169511578Y-98483916D01*
X169515408Y-98498720D01*
X169532301Y-98497040D01*
X169565888Y-98480773D01*
X169642063Y-98456840D01*
X169729200Y-98454178D01*
X169812957Y-98472226D01*
X169812957Y-98472226D01*
G37*
X169812957Y-98472226D02*
X169854546Y-98492090D01*
X169894825Y-98520784D01*
X169925510Y-98553809D01*
X169947861Y-98595931D01*
X169963136Y-98651915D01*
X169972592Y-98726528D01*
X169977487Y-98824535D01*
X169979081Y-98950702D01*
X169979106Y-98963914D01*
X169979473Y-99260526D01*
X169795657Y-99260526D01*
X169795657Y-98987081D01*
X169795527Y-98885777D01*
X169794621Y-98812353D01*
X169792173Y-98761271D01*
X169787414Y-98726990D01*
X169779574Y-98703971D01*
X169767885Y-98686673D01*
X169751602Y-98669581D01*
X169694634Y-98632857D01*
X169632445Y-98626042D01*
X169573199Y-98649261D01*
X169552595Y-98666543D01*
X169537470Y-98682791D01*
X169526610Y-98700191D01*
X169519310Y-98724212D01*
X169514863Y-98760322D01*
X169512564Y-98813988D01*
X169511704Y-98890680D01*
X169511578Y-98984043D01*
X169511578Y-99260526D01*
X169327763Y-99260526D01*
X169327763Y-98458421D01*
X169419671Y-98458421D01*
X169474851Y-98460603D01*
X169503320Y-98468351D01*
X169511575Y-98483468D01*
X169511578Y-98483916D01*
X169515408Y-98498720D01*
X169532301Y-98497040D01*
X169565888Y-98480773D01*
X169642063Y-98456840D01*
X169729200Y-98454178D01*
X169812957Y-98472226D01*
G36*
X174373784Y-98455554D02*
G01*
X174416574Y-98465949D01*
X174498609Y-98504013D01*
X174568757Y-98562149D01*
X174617305Y-98631852D01*
X174623975Y-98647502D01*
X174633124Y-98688496D01*
X174639529Y-98749138D01*
X174641710Y-98810430D01*
X174641710Y-98926316D01*
X174399407Y-98926316D01*
X174299471Y-98926693D01*
X174229069Y-98928987D01*
X174184313Y-98934938D01*
X174161315Y-98946285D01*
X174156189Y-98964771D01*
X174165048Y-98992136D01*
X174180917Y-99024155D01*
X174225184Y-99077592D01*
X174286699Y-99104215D01*
X174361885Y-99103347D01*
X174447053Y-99074371D01*
X174520659Y-99038611D01*
X174581734Y-99086904D01*
X174642810Y-99135197D01*
X174585351Y-99188285D01*
X174508641Y-99238445D01*
X174414302Y-99268688D01*
X174312827Y-99277151D01*
X174214711Y-99261974D01*
X174198881Y-99256824D01*
X174112647Y-99211791D01*
X174048501Y-99144652D01*
X174005091Y-99053405D01*
X173981064Y-98936044D01*
X173980784Y-98933529D01*
X173978633Y-98805627D01*
X173987329Y-98759997D01*
X174157105Y-98759997D01*
X174172697Y-98767013D01*
X174215029Y-98772388D01*
X174277434Y-98775457D01*
X174316981Y-98775921D01*
X174390728Y-98775630D01*
X174436840Y-98773783D01*
X174461100Y-98768912D01*
X174469294Y-98759555D01*
X174467206Y-98744245D01*
X174465455Y-98738322D01*
X174435560Y-98682668D01*
X174388542Y-98637815D01*
X174347049Y-98618105D01*
X174291926Y-98619295D01*
X174236068Y-98643875D01*
X174189212Y-98684570D01*
X174161094Y-98734108D01*
X174157105Y-98759997D01*
X173987329Y-98759997D01*
X174000074Y-98693133D01*
X174042611Y-98598727D01*
X174103747Y-98525088D01*
X174180985Y-98474893D01*
X174271830Y-98450822D01*
X174373784Y-98455554D01*
X174373784Y-98455554D01*
G37*
X174373784Y-98455554D02*
X174416574Y-98465949D01*
X174498609Y-98504013D01*
X174568757Y-98562149D01*
X174617305Y-98631852D01*
X174623975Y-98647502D01*
X174633124Y-98688496D01*
X174639529Y-98749138D01*
X174641710Y-98810430D01*
X174641710Y-98926316D01*
X174399407Y-98926316D01*
X174299471Y-98926693D01*
X174229069Y-98928987D01*
X174184313Y-98934938D01*
X174161315Y-98946285D01*
X174156189Y-98964771D01*
X174165048Y-98992136D01*
X174180917Y-99024155D01*
X174225184Y-99077592D01*
X174286699Y-99104215D01*
X174361885Y-99103347D01*
X174447053Y-99074371D01*
X174520659Y-99038611D01*
X174581734Y-99086904D01*
X174642810Y-99135197D01*
X174585351Y-99188285D01*
X174508641Y-99238445D01*
X174414302Y-99268688D01*
X174312827Y-99277151D01*
X174214711Y-99261974D01*
X174198881Y-99256824D01*
X174112647Y-99211791D01*
X174048501Y-99144652D01*
X174005091Y-99053405D01*
X173981064Y-98936044D01*
X173980784Y-98933529D01*
X173978633Y-98805627D01*
X173987329Y-98759997D01*
X174157105Y-98759997D01*
X174172697Y-98767013D01*
X174215029Y-98772388D01*
X174277434Y-98775457D01*
X174316981Y-98775921D01*
X174390728Y-98775630D01*
X174436840Y-98773783D01*
X174461100Y-98768912D01*
X174469294Y-98759555D01*
X174467206Y-98744245D01*
X174465455Y-98738322D01*
X174435560Y-98682668D01*
X174388542Y-98637815D01*
X174347049Y-98618105D01*
X174291926Y-98619295D01*
X174236068Y-98643875D01*
X174189212Y-98684570D01*
X174161094Y-98734108D01*
X174157105Y-98759997D01*
X173987329Y-98759997D01*
X174000074Y-98693133D01*
X174042611Y-98598727D01*
X174103747Y-98525088D01*
X174180985Y-98474893D01*
X174271830Y-98450822D01*
X174373784Y-98455554D01*
G36*
X173761576Y-98465419D02*
G01*
X173858395Y-98506549D01*
X173888890Y-98526571D01*
X173927865Y-98557340D01*
X173952331Y-98581533D01*
X173956578Y-98589413D01*
X173944584Y-98606899D01*
X173913887Y-98636570D01*
X173889312Y-98657279D01*
X173822046Y-98711336D01*
X173768930Y-98666642D01*
X173727884Y-98637789D01*
X173687863Y-98627829D01*
X173642059Y-98630261D01*
X173569324Y-98648345D01*
X173519256Y-98685881D01*
X173488829Y-98746562D01*
X173475017Y-98834081D01*
X173475013Y-98834136D01*
X173476208Y-98931958D01*
X173494772Y-99003730D01*
X173531804Y-99052595D01*
X173557050Y-99069143D01*
X173624097Y-99089749D01*
X173695709Y-99089762D01*
X173758015Y-99069768D01*
X173772763Y-99060000D01*
X173809750Y-99035047D01*
X173838668Y-99030958D01*
X173869856Y-99049530D01*
X173904336Y-99082887D01*
X173958912Y-99139196D01*
X173898318Y-99189142D01*
X173804698Y-99245513D01*
X173699125Y-99273293D01*
X173588798Y-99271282D01*
X173516343Y-99252862D01*
X173431656Y-99207310D01*
X173363927Y-99135650D01*
X173333157Y-99085066D01*
X173308236Y-99012488D01*
X173295766Y-98920569D01*
X173295670Y-98820948D01*
X173307870Y-98725267D01*
X173332290Y-98645169D01*
X173336136Y-98636956D01*
X173393093Y-98556413D01*
X173470209Y-98497771D01*
X173561390Y-98462247D01*
X173660543Y-98451057D01*
X173761576Y-98465419D01*
X173761576Y-98465419D01*
G37*
X173761576Y-98465419D02*
X173858395Y-98506549D01*
X173888890Y-98526571D01*
X173927865Y-98557340D01*
X173952331Y-98581533D01*
X173956578Y-98589413D01*
X173944584Y-98606899D01*
X173913887Y-98636570D01*
X173889312Y-98657279D01*
X173822046Y-98711336D01*
X173768930Y-98666642D01*
X173727884Y-98637789D01*
X173687863Y-98627829D01*
X173642059Y-98630261D01*
X173569324Y-98648345D01*
X173519256Y-98685881D01*
X173488829Y-98746562D01*
X173475017Y-98834081D01*
X173475013Y-98834136D01*
X173476208Y-98931958D01*
X173494772Y-99003730D01*
X173531804Y-99052595D01*
X173557050Y-99069143D01*
X173624097Y-99089749D01*
X173695709Y-99089762D01*
X173758015Y-99069768D01*
X173772763Y-99060000D01*
X173809750Y-99035047D01*
X173838668Y-99030958D01*
X173869856Y-99049530D01*
X173904336Y-99082887D01*
X173958912Y-99139196D01*
X173898318Y-99189142D01*
X173804698Y-99245513D01*
X173699125Y-99273293D01*
X173588798Y-99271282D01*
X173516343Y-99252862D01*
X173431656Y-99207310D01*
X173363927Y-99135650D01*
X173333157Y-99085066D01*
X173308236Y-99012488D01*
X173295766Y-98920569D01*
X173295670Y-98820948D01*
X173307870Y-98725267D01*
X173332290Y-98645169D01*
X173336136Y-98636956D01*
X173393093Y-98556413D01*
X173470209Y-98497771D01*
X173561390Y-98462247D01*
X173660543Y-98451057D01*
X173761576Y-98465419D01*
G36*
X172135131Y-98718533D02*
G01*
X172136710Y-98841089D01*
X172142481Y-98934179D01*
X172153991Y-99001651D01*
X172172790Y-99047355D01*
X172200426Y-99075139D01*
X172238448Y-99088854D01*
X172285526Y-99092358D01*
X172334832Y-99088432D01*
X172372283Y-99074089D01*
X172399428Y-99045478D01*
X172417815Y-98998751D01*
X172428993Y-98930058D01*
X172434511Y-98835550D01*
X172435921Y-98718533D01*
X172435921Y-98458421D01*
X172619736Y-98458421D01*
X172619736Y-99260526D01*
X172527828Y-99260526D01*
X172472422Y-99258281D01*
X172443891Y-99250396D01*
X172435921Y-99235428D01*
X172431120Y-99222097D01*
X172412014Y-99224917D01*
X172373504Y-99243783D01*
X172285239Y-99272887D01*
X172191623Y-99270825D01*
X172101921Y-99239221D01*
X172059204Y-99214257D01*
X172026621Y-99187226D01*
X172002817Y-99153405D01*
X171986439Y-99108068D01*
X171976131Y-99046489D01*
X171970541Y-98963943D01*
X171968312Y-98855705D01*
X171968026Y-98772004D01*
X171968026Y-98458421D01*
X172135131Y-98458421D01*
X172135131Y-98718533D01*
X172135131Y-98718533D01*
G37*
X172135131Y-98718533D02*
X172136710Y-98841089D01*
X172142481Y-98934179D01*
X172153991Y-99001651D01*
X172172790Y-99047355D01*
X172200426Y-99075139D01*
X172238448Y-99088854D01*
X172285526Y-99092358D01*
X172334832Y-99088432D01*
X172372283Y-99074089D01*
X172399428Y-99045478D01*
X172417815Y-98998751D01*
X172428993Y-98930058D01*
X172434511Y-98835550D01*
X172435921Y-98718533D01*
X172435921Y-98458421D01*
X172619736Y-98458421D01*
X172619736Y-99260526D01*
X172527828Y-99260526D01*
X172472422Y-99258281D01*
X172443891Y-99250396D01*
X172435921Y-99235428D01*
X172431120Y-99222097D01*
X172412014Y-99224917D01*
X172373504Y-99243783D01*
X172285239Y-99272887D01*
X172191623Y-99270825D01*
X172101921Y-99239221D01*
X172059204Y-99214257D01*
X172026621Y-99187226D01*
X172002817Y-99153405D01*
X171986439Y-99108068D01*
X171976131Y-99046489D01*
X171970541Y-98963943D01*
X171968312Y-98855705D01*
X171968026Y-98772004D01*
X171968026Y-98458421D01*
X172135131Y-98458421D01*
X172135131Y-98718533D01*
G36*
X171626669Y-98468310D02*
G01*
X171711192Y-98514340D01*
X171777321Y-98587006D01*
X171808478Y-98646106D01*
X171821855Y-98698305D01*
X171830522Y-98772719D01*
X171834237Y-98858442D01*
X171832754Y-98944569D01*
X171825831Y-99020193D01*
X171817745Y-99060584D01*
X171790465Y-99115840D01*
X171743220Y-99174530D01*
X171686282Y-99225852D01*
X171629924Y-99259005D01*
X171628550Y-99259531D01*
X171558616Y-99274018D01*
X171475737Y-99274377D01*
X171396977Y-99261188D01*
X171366566Y-99250617D01*
X171288239Y-99206201D01*
X171232143Y-99148007D01*
X171195286Y-99070965D01*
X171174680Y-98970001D01*
X171170018Y-98917116D01*
X171170613Y-98850663D01*
X171349736Y-98850663D01*
X171355770Y-98947630D01*
X171373138Y-99021523D01*
X171400740Y-99068736D01*
X171420404Y-99082237D01*
X171470787Y-99091651D01*
X171530673Y-99088864D01*
X171582449Y-99075316D01*
X171596027Y-99067862D01*
X171631849Y-99024451D01*
X171655493Y-98958014D01*
X171665558Y-98877161D01*
X171660642Y-98790502D01*
X171649655Y-98738349D01*
X171618109Y-98677951D01*
X171568311Y-98640197D01*
X171508337Y-98627143D01*
X171446264Y-98640849D01*
X171398582Y-98674372D01*
X171373525Y-98702031D01*
X171358900Y-98729294D01*
X171351929Y-98766190D01*
X171349833Y-98822750D01*
X171349736Y-98850663D01*
X171170613Y-98850663D01*
X171171282Y-98775994D01*
X171194265Y-98660271D01*
X171238972Y-98569941D01*
X171305405Y-98505000D01*
X171393565Y-98465445D01*
X171412495Y-98460858D01*
X171526266Y-98450090D01*
X171626669Y-98468310D01*
X171626669Y-98468310D01*
G37*
X171626669Y-98468310D02*
X171711192Y-98514340D01*
X171777321Y-98587006D01*
X171808478Y-98646106D01*
X171821855Y-98698305D01*
X171830522Y-98772719D01*
X171834237Y-98858442D01*
X171832754Y-98944569D01*
X171825831Y-99020193D01*
X171817745Y-99060584D01*
X171790465Y-99115840D01*
X171743220Y-99174530D01*
X171686282Y-99225852D01*
X171629924Y-99259005D01*
X171628550Y-99259531D01*
X171558616Y-99274018D01*
X171475737Y-99274377D01*
X171396977Y-99261188D01*
X171366566Y-99250617D01*
X171288239Y-99206201D01*
X171232143Y-99148007D01*
X171195286Y-99070965D01*
X171174680Y-98970001D01*
X171170018Y-98917116D01*
X171170613Y-98850663D01*
X171349736Y-98850663D01*
X171355770Y-98947630D01*
X171373138Y-99021523D01*
X171400740Y-99068736D01*
X171420404Y-99082237D01*
X171470787Y-99091651D01*
X171530673Y-99088864D01*
X171582449Y-99075316D01*
X171596027Y-99067862D01*
X171631849Y-99024451D01*
X171655493Y-98958014D01*
X171665558Y-98877161D01*
X171660642Y-98790502D01*
X171649655Y-98738349D01*
X171618109Y-98677951D01*
X171568311Y-98640197D01*
X171508337Y-98627143D01*
X171446264Y-98640849D01*
X171398582Y-98674372D01*
X171373525Y-98702031D01*
X171358900Y-98729294D01*
X171351929Y-98766190D01*
X171349833Y-98822750D01*
X171349736Y-98850663D01*
X171170613Y-98850663D01*
X171171282Y-98775994D01*
X171194265Y-98660271D01*
X171238972Y-98569941D01*
X171305405Y-98505000D01*
X171393565Y-98465445D01*
X171412495Y-98460858D01*
X171526266Y-98450090D01*
X171626669Y-98468310D01*
G36*
X170833628Y-98455547D02*
G01*
X170896908Y-98467548D01*
X170962557Y-98492648D01*
X170969572Y-98495848D01*
X171019356Y-98522026D01*
X171053834Y-98546353D01*
X171064978Y-98561937D01*
X171054366Y-98587353D01*
X171028588Y-98624853D01*
X171017146Y-98638852D01*
X170969992Y-98693954D01*
X170909201Y-98658086D01*
X170851347Y-98634192D01*
X170784500Y-98621420D01*
X170720394Y-98620613D01*
X170670764Y-98632615D01*
X170658854Y-98640105D01*
X170636172Y-98674450D01*
X170633416Y-98714013D01*
X170650388Y-98744920D01*
X170660427Y-98750913D01*
X170690510Y-98758357D01*
X170743389Y-98767106D01*
X170808575Y-98775467D01*
X170820600Y-98776778D01*
X170925297Y-98794888D01*
X171001232Y-98825651D01*
X171051592Y-98871907D01*
X171079564Y-98936497D01*
X171088278Y-99015387D01*
X171076240Y-99105065D01*
X171037151Y-99175486D01*
X170970855Y-99226777D01*
X170877194Y-99259067D01*
X170773223Y-99271807D01*
X170688438Y-99271654D01*
X170619665Y-99260083D01*
X170572697Y-99244109D01*
X170513350Y-99216275D01*
X170458506Y-99183973D01*
X170439013Y-99169755D01*
X170388881Y-99128835D01*
X170509803Y-99006477D01*
X170578543Y-99051967D01*
X170647488Y-99086133D01*
X170721111Y-99104004D01*
X170791883Y-99105889D01*
X170852274Y-99092101D01*
X170894757Y-99062949D01*
X170908474Y-99038352D01*
X170906417Y-98998904D01*
X170872330Y-98968737D01*
X170806308Y-98947906D01*
X170733974Y-98938279D01*
X170622652Y-98919910D01*
X170539952Y-98885254D01*
X170484765Y-98833297D01*
X170455988Y-98763023D01*
X170452001Y-98679707D01*
X170471693Y-98592681D01*
X170516589Y-98526902D01*
X170587091Y-98482068D01*
X170683601Y-98457879D01*
X170755100Y-98453137D01*
X170833628Y-98455547D01*
X170833628Y-98455547D01*
G37*
X170833628Y-98455547D02*
X170896908Y-98467548D01*
X170962557Y-98492648D01*
X170969572Y-98495848D01*
X171019356Y-98522026D01*
X171053834Y-98546353D01*
X171064978Y-98561937D01*
X171054366Y-98587353D01*
X171028588Y-98624853D01*
X171017146Y-98638852D01*
X170969992Y-98693954D01*
X170909201Y-98658086D01*
X170851347Y-98634192D01*
X170784500Y-98621420D01*
X170720394Y-98620613D01*
X170670764Y-98632615D01*
X170658854Y-98640105D01*
X170636172Y-98674450D01*
X170633416Y-98714013D01*
X170650388Y-98744920D01*
X170660427Y-98750913D01*
X170690510Y-98758357D01*
X170743389Y-98767106D01*
X170808575Y-98775467D01*
X170820600Y-98776778D01*
X170925297Y-98794888D01*
X171001232Y-98825651D01*
X171051592Y-98871907D01*
X171079564Y-98936497D01*
X171088278Y-99015387D01*
X171076240Y-99105065D01*
X171037151Y-99175486D01*
X170970855Y-99226777D01*
X170877194Y-99259067D01*
X170773223Y-99271807D01*
X170688438Y-99271654D01*
X170619665Y-99260083D01*
X170572697Y-99244109D01*
X170513350Y-99216275D01*
X170458506Y-99183973D01*
X170439013Y-99169755D01*
X170388881Y-99128835D01*
X170509803Y-99006477D01*
X170578543Y-99051967D01*
X170647488Y-99086133D01*
X170721111Y-99104004D01*
X170791883Y-99105889D01*
X170852274Y-99092101D01*
X170894757Y-99062949D01*
X170908474Y-99038352D01*
X170906417Y-98998904D01*
X170872330Y-98968737D01*
X170806308Y-98947906D01*
X170733974Y-98938279D01*
X170622652Y-98919910D01*
X170539952Y-98885254D01*
X170484765Y-98833297D01*
X170455988Y-98763023D01*
X170452001Y-98679707D01*
X170471693Y-98592681D01*
X170516589Y-98526902D01*
X170587091Y-98482068D01*
X170683601Y-98457879D01*
X170755100Y-98453137D01*
X170833628Y-98455547D01*
G36*
X169012018Y-98477027D02*
G01*
X169028670Y-98484866D01*
X169086305Y-98527086D01*
X169140805Y-98588700D01*
X169181499Y-98656543D01*
X169193074Y-98687734D01*
X169203634Y-98743449D01*
X169209931Y-98810781D01*
X169210696Y-98838585D01*
X169210789Y-98926316D01*
X168705850Y-98926316D01*
X168716613Y-98972270D01*
X168743033Y-99026620D01*
X168789222Y-99073591D01*
X168844172Y-99103848D01*
X168879189Y-99110131D01*
X168926677Y-99102506D01*
X168983335Y-99083383D01*
X169002582Y-99074584D01*
X169073759Y-99039036D01*
X169134502Y-99085367D01*
X169169552Y-99116703D01*
X169188202Y-99142567D01*
X169189147Y-99150158D01*
X169172485Y-99168556D01*
X169135970Y-99196515D01*
X169102828Y-99218327D01*
X169013393Y-99257537D01*
X168913129Y-99275285D01*
X168813754Y-99270670D01*
X168734539Y-99246551D01*
X168652880Y-99194884D01*
X168594849Y-99126856D01*
X168558546Y-99038843D01*
X168542072Y-98927216D01*
X168540611Y-98876138D01*
X168546457Y-98759091D01*
X168547175Y-98755686D01*
X168714489Y-98755686D01*
X168719097Y-98766662D01*
X168738036Y-98772715D01*
X168777098Y-98775310D01*
X168842077Y-98775910D01*
X168867097Y-98775921D01*
X168943221Y-98775014D01*
X168991496Y-98771720D01*
X169017460Y-98765181D01*
X169026648Y-98754537D01*
X169026973Y-98751119D01*
X169016487Y-98723956D01*
X168990242Y-98685903D01*
X168978959Y-98672579D01*
X168937072Y-98634896D01*
X168893409Y-98620080D01*
X168869885Y-98618842D01*
X168806243Y-98634329D01*
X168752873Y-98675930D01*
X168719019Y-98736353D01*
X168718419Y-98738322D01*
X168714489Y-98755686D01*
X168547175Y-98755686D01*
X168565899Y-98666928D01*
X168600922Y-98593190D01*
X168643756Y-98540848D01*
X168722948Y-98484092D01*
X168816040Y-98453762D01*
X168915055Y-98451021D01*
X169012018Y-98477027D01*
X169012018Y-98477027D01*
G37*
X169012018Y-98477027D02*
X169028670Y-98484866D01*
X169086305Y-98527086D01*
X169140805Y-98588700D01*
X169181499Y-98656543D01*
X169193074Y-98687734D01*
X169203634Y-98743449D01*
X169209931Y-98810781D01*
X169210696Y-98838585D01*
X169210789Y-98926316D01*
X168705850Y-98926316D01*
X168716613Y-98972270D01*
X168743033Y-99026620D01*
X168789222Y-99073591D01*
X168844172Y-99103848D01*
X168879189Y-99110131D01*
X168926677Y-99102506D01*
X168983335Y-99083383D01*
X169002582Y-99074584D01*
X169073759Y-99039036D01*
X169134502Y-99085367D01*
X169169552Y-99116703D01*
X169188202Y-99142567D01*
X169189147Y-99150158D01*
X169172485Y-99168556D01*
X169135970Y-99196515D01*
X169102828Y-99218327D01*
X169013393Y-99257537D01*
X168913129Y-99275285D01*
X168813754Y-99270670D01*
X168734539Y-99246551D01*
X168652880Y-99194884D01*
X168594849Y-99126856D01*
X168558546Y-99038843D01*
X168542072Y-98927216D01*
X168540611Y-98876138D01*
X168546457Y-98759091D01*
X168547175Y-98755686D01*
X168714489Y-98755686D01*
X168719097Y-98766662D01*
X168738036Y-98772715D01*
X168777098Y-98775310D01*
X168842077Y-98775910D01*
X168867097Y-98775921D01*
X168943221Y-98775014D01*
X168991496Y-98771720D01*
X169017460Y-98765181D01*
X169026648Y-98754537D01*
X169026973Y-98751119D01*
X169016487Y-98723956D01*
X168990242Y-98685903D01*
X168978959Y-98672579D01*
X168937072Y-98634896D01*
X168893409Y-98620080D01*
X168869885Y-98618842D01*
X168806243Y-98634329D01*
X168752873Y-98675930D01*
X168719019Y-98736353D01*
X168718419Y-98738322D01*
X168714489Y-98755686D01*
X168547175Y-98755686D01*
X168565899Y-98666928D01*
X168600922Y-98593190D01*
X168643756Y-98540848D01*
X168722948Y-98484092D01*
X168816040Y-98453762D01*
X168915055Y-98451021D01*
X169012018Y-98477027D01*
G36*
X167441784Y-98467104D02*
G01*
X167529205Y-98505754D01*
X167595570Y-98570290D01*
X167640976Y-98660812D01*
X167665518Y-98777418D01*
X167667277Y-98795624D01*
X167668656Y-98923984D01*
X167650784Y-99036496D01*
X167614750Y-99127688D01*
X167595455Y-99157022D01*
X167528245Y-99219106D01*
X167442650Y-99259316D01*
X167346890Y-99276003D01*
X167249187Y-99267517D01*
X167174917Y-99241380D01*
X167111047Y-99197335D01*
X167058846Y-99139587D01*
X167057943Y-99138236D01*
X167036744Y-99102593D01*
X167022967Y-99066752D01*
X167014624Y-99021519D01*
X167009727Y-98957701D01*
X167007569Y-98905368D01*
X167006671Y-98857910D01*
X167173743Y-98857910D01*
X167175376Y-98905154D01*
X167181304Y-98968046D01*
X167191761Y-99008407D01*
X167210619Y-99037122D01*
X167228281Y-99053896D01*
X167290894Y-99089016D01*
X167356408Y-99093710D01*
X167417421Y-99068440D01*
X167447928Y-99040124D01*
X167469911Y-99011589D01*
X167482769Y-98984284D01*
X167488412Y-98948750D01*
X167488751Y-98895524D01*
X167487012Y-98846506D01*
X167483271Y-98776482D01*
X167477341Y-98731064D01*
X167466653Y-98701440D01*
X167448639Y-98678797D01*
X167434363Y-98665855D01*
X167374651Y-98631860D01*
X167310234Y-98630165D01*
X167256219Y-98650301D01*
X167210140Y-98692352D01*
X167182689Y-98761428D01*
X167173743Y-98857910D01*
X167006671Y-98857910D01*
X167005599Y-98801299D01*
X167008964Y-98723468D01*
X167019045Y-98664930D01*
X167037226Y-98618737D01*
X167064890Y-98577942D01*
X167075146Y-98565828D01*
X167139278Y-98505474D01*
X167208066Y-98470220D01*
X167292189Y-98455450D01*
X167333209Y-98454243D01*
X167441784Y-98467104D01*
X167441784Y-98467104D01*
G37*
X167441784Y-98467104D02*
X167529205Y-98505754D01*
X167595570Y-98570290D01*
X167640976Y-98660812D01*
X167665518Y-98777418D01*
X167667277Y-98795624D01*
X167668656Y-98923984D01*
X167650784Y-99036496D01*
X167614750Y-99127688D01*
X167595455Y-99157022D01*
X167528245Y-99219106D01*
X167442650Y-99259316D01*
X167346890Y-99276003D01*
X167249187Y-99267517D01*
X167174917Y-99241380D01*
X167111047Y-99197335D01*
X167058846Y-99139587D01*
X167057943Y-99138236D01*
X167036744Y-99102593D01*
X167022967Y-99066752D01*
X167014624Y-99021519D01*
X167009727Y-98957701D01*
X167007569Y-98905368D01*
X167006671Y-98857910D01*
X167173743Y-98857910D01*
X167175376Y-98905154D01*
X167181304Y-98968046D01*
X167191761Y-99008407D01*
X167210619Y-99037122D01*
X167228281Y-99053896D01*
X167290894Y-99089016D01*
X167356408Y-99093710D01*
X167417421Y-99068440D01*
X167447928Y-99040124D01*
X167469911Y-99011589D01*
X167482769Y-98984284D01*
X167488412Y-98948750D01*
X167488751Y-98895524D01*
X167487012Y-98846506D01*
X167483271Y-98776482D01*
X167477341Y-98731064D01*
X167466653Y-98701440D01*
X167448639Y-98678797D01*
X167434363Y-98665855D01*
X167374651Y-98631860D01*
X167310234Y-98630165D01*
X167256219Y-98650301D01*
X167210140Y-98692352D01*
X167182689Y-98761428D01*
X167173743Y-98857910D01*
X167006671Y-98857910D01*
X167005599Y-98801299D01*
X167008964Y-98723468D01*
X167019045Y-98664930D01*
X167037226Y-98618737D01*
X167064890Y-98577942D01*
X167075146Y-98565828D01*
X167139278Y-98505474D01*
X167208066Y-98470220D01*
X167292189Y-98455450D01*
X167333209Y-98454243D01*
X167441784Y-98467104D01*
G36*
X173516193Y-99716078D02*
G01*
X173596068Y-99736845D01*
X173662962Y-99779705D01*
X173695351Y-99811723D01*
X173748445Y-99887413D01*
X173778873Y-99975216D01*
X173789327Y-100083150D01*
X173789380Y-100091875D01*
X173789473Y-100179605D01*
X173284534Y-100179605D01*
X173295298Y-100225559D01*
X173314732Y-100267178D01*
X173348745Y-100310544D01*
X173355860Y-100317467D01*
X173417003Y-100354935D01*
X173486729Y-100361289D01*
X173566987Y-100336638D01*
X173580592Y-100330000D01*
X173622319Y-100309819D01*
X173650268Y-100298321D01*
X173655145Y-100297258D01*
X173672168Y-100307583D01*
X173704633Y-100332845D01*
X173721114Y-100346650D01*
X173755264Y-100378361D01*
X173766478Y-100399299D01*
X173758695Y-100418560D01*
X173754535Y-100423827D01*
X173726357Y-100446878D01*
X173679862Y-100474892D01*
X173647434Y-100491246D01*
X173555385Y-100520059D01*
X173453476Y-100529395D01*
X173356963Y-100518332D01*
X173329934Y-100510412D01*
X173246276Y-100465581D01*
X173184266Y-100396598D01*
X173143545Y-100302794D01*
X173123755Y-100183498D01*
X173121582Y-100121118D01*
X173127926Y-100030298D01*
X173288157Y-100030298D01*
X173303655Y-100037012D01*
X173345312Y-100042280D01*
X173405876Y-100045389D01*
X173446907Y-100045921D01*
X173520711Y-100045408D01*
X173567293Y-100043006D01*
X173592848Y-100037422D01*
X173603569Y-100027361D01*
X173605657Y-100012763D01*
X173591331Y-99967796D01*
X173555262Y-99923353D01*
X173507815Y-99889242D01*
X173460349Y-99875288D01*
X173395879Y-99887666D01*
X173340070Y-99923452D01*
X173301374Y-99975033D01*
X173288157Y-100030298D01*
X173127926Y-100030298D01*
X173130821Y-99988866D01*
X173159336Y-99883498D01*
X173207729Y-99804178D01*
X173276604Y-99750071D01*
X173366565Y-99720343D01*
X173415300Y-99714618D01*
X173516193Y-99716078D01*
X173516193Y-99716078D01*
G37*
X173516193Y-99716078D02*
X173596068Y-99736845D01*
X173662962Y-99779705D01*
X173695351Y-99811723D01*
X173748445Y-99887413D01*
X173778873Y-99975216D01*
X173789327Y-100083150D01*
X173789380Y-100091875D01*
X173789473Y-100179605D01*
X173284534Y-100179605D01*
X173295298Y-100225559D01*
X173314732Y-100267178D01*
X173348745Y-100310544D01*
X173355860Y-100317467D01*
X173417003Y-100354935D01*
X173486729Y-100361289D01*
X173566987Y-100336638D01*
X173580592Y-100330000D01*
X173622319Y-100309819D01*
X173650268Y-100298321D01*
X173655145Y-100297258D01*
X173672168Y-100307583D01*
X173704633Y-100332845D01*
X173721114Y-100346650D01*
X173755264Y-100378361D01*
X173766478Y-100399299D01*
X173758695Y-100418560D01*
X173754535Y-100423827D01*
X173726357Y-100446878D01*
X173679862Y-100474892D01*
X173647434Y-100491246D01*
X173555385Y-100520059D01*
X173453476Y-100529395D01*
X173356963Y-100518332D01*
X173329934Y-100510412D01*
X173246276Y-100465581D01*
X173184266Y-100396598D01*
X173143545Y-100302794D01*
X173123755Y-100183498D01*
X173121582Y-100121118D01*
X173127926Y-100030298D01*
X173288157Y-100030298D01*
X173303655Y-100037012D01*
X173345312Y-100042280D01*
X173405876Y-100045389D01*
X173446907Y-100045921D01*
X173520711Y-100045408D01*
X173567293Y-100043006D01*
X173592848Y-100037422D01*
X173603569Y-100027361D01*
X173605657Y-100012763D01*
X173591331Y-99967796D01*
X173555262Y-99923353D01*
X173507815Y-99889242D01*
X173460349Y-99875288D01*
X173395879Y-99887666D01*
X173340070Y-99923452D01*
X173301374Y-99975033D01*
X173288157Y-100030298D01*
X173127926Y-100030298D01*
X173130821Y-99988866D01*
X173159336Y-99883498D01*
X173207729Y-99804178D01*
X173276604Y-99750071D01*
X173366565Y-99720343D01*
X173415300Y-99714618D01*
X173516193Y-99716078D01*
G36*
X172988167Y-99711447D02*
G01*
X173052408Y-99724112D01*
X173088980Y-99742864D01*
X173127453Y-99774017D01*
X173072717Y-99843127D01*
X173038969Y-99884979D01*
X173016053Y-99905398D01*
X172993279Y-99908517D01*
X172959956Y-99898472D01*
X172944314Y-99892789D01*
X172880542Y-99884404D01*
X172822140Y-99902378D01*
X172779264Y-99942982D01*
X172772299Y-99955929D01*
X172764713Y-99990224D01*
X172758859Y-100053427D01*
X172755011Y-100141060D01*
X172753443Y-100248640D01*
X172753421Y-100263944D01*
X172753421Y-100530526D01*
X172569605Y-100530526D01*
X172569605Y-99711710D01*
X172661513Y-99711710D01*
X172714507Y-99713094D01*
X172742115Y-99719252D01*
X172752324Y-99733194D01*
X172753421Y-99746344D01*
X172753421Y-99780978D01*
X172797450Y-99746344D01*
X172847937Y-99722716D01*
X172915760Y-99711033D01*
X172988167Y-99711447D01*
X172988167Y-99711447D01*
G37*
X172988167Y-99711447D02*
X173052408Y-99724112D01*
X173088980Y-99742864D01*
X173127453Y-99774017D01*
X173072717Y-99843127D01*
X173038969Y-99884979D01*
X173016053Y-99905398D01*
X172993279Y-99908517D01*
X172959956Y-99898472D01*
X172944314Y-99892789D01*
X172880542Y-99884404D01*
X172822140Y-99902378D01*
X172779264Y-99942982D01*
X172772299Y-99955929D01*
X172764713Y-99990224D01*
X172758859Y-100053427D01*
X172755011Y-100141060D01*
X172753443Y-100248640D01*
X172753421Y-100263944D01*
X172753421Y-100530526D01*
X172569605Y-100530526D01*
X172569605Y-99711710D01*
X172661513Y-99711710D01*
X172714507Y-99713094D01*
X172742115Y-99719252D01*
X172752324Y-99733194D01*
X172753421Y-99746344D01*
X172753421Y-99780978D01*
X172797450Y-99746344D01*
X172847937Y-99722716D01*
X172915760Y-99711033D01*
X172988167Y-99711447D01*
G36*
X172194992Y-99716673D02*
G01*
X172265427Y-99733780D01*
X172285787Y-99742844D01*
X172325253Y-99766583D01*
X172355541Y-99793321D01*
X172377952Y-99827699D01*
X172393786Y-99874360D01*
X172404343Y-99937946D01*
X172410924Y-100023099D01*
X172414828Y-100134462D01*
X172416310Y-100208849D01*
X172421765Y-100530526D01*
X172328580Y-100530526D01*
X172272047Y-100528156D01*
X172242922Y-100520055D01*
X172235394Y-100506451D01*
X172231420Y-100491741D01*
X172213652Y-100494554D01*
X172189440Y-100506348D01*
X172128828Y-100524427D01*
X172050929Y-100529299D01*
X171968995Y-100521330D01*
X171896281Y-100500889D01*
X171889759Y-100498051D01*
X171823302Y-100451365D01*
X171779491Y-100386464D01*
X171759332Y-100310600D01*
X171760872Y-100283344D01*
X171925345Y-100283344D01*
X171939837Y-100320024D01*
X171982805Y-100346309D01*
X172052129Y-100360417D01*
X172089177Y-100362290D01*
X172150919Y-100357494D01*
X172191960Y-100338858D01*
X172201973Y-100330000D01*
X172229100Y-100281806D01*
X172235394Y-100238092D01*
X172235394Y-100179605D01*
X172153930Y-100179605D01*
X172059234Y-100184432D01*
X171992813Y-100199613D01*
X171950846Y-100226200D01*
X171941449Y-100238052D01*
X171925345Y-100283344D01*
X171760872Y-100283344D01*
X171763829Y-100231026D01*
X171793985Y-100154995D01*
X171835131Y-100103612D01*
X171860052Y-100081397D01*
X171884448Y-100066798D01*
X171916191Y-100057897D01*
X171963152Y-100052775D01*
X172033204Y-100049515D01*
X172060990Y-100048577D01*
X172235394Y-100042879D01*
X172235138Y-99990091D01*
X172228384Y-99934603D01*
X172203964Y-99901052D01*
X172154630Y-99879618D01*
X172153306Y-99879236D01*
X172083360Y-99870808D01*
X172014914Y-99881816D01*
X171964047Y-99908585D01*
X171943637Y-99921803D01*
X171921654Y-99919974D01*
X171887826Y-99900824D01*
X171867961Y-99887308D01*
X171829106Y-99858432D01*
X171805038Y-99836786D01*
X171801176Y-99830589D01*
X171817079Y-99798519D01*
X171864065Y-99760219D01*
X171884473Y-99747297D01*
X171943143Y-99725041D01*
X172022212Y-99712432D01*
X172110041Y-99709600D01*
X172194992Y-99716673D01*
X172194992Y-99716673D01*
G37*
X172194992Y-99716673D02*
X172265427Y-99733780D01*
X172285787Y-99742844D01*
X172325253Y-99766583D01*
X172355541Y-99793321D01*
X172377952Y-99827699D01*
X172393786Y-99874360D01*
X172404343Y-99937946D01*
X172410924Y-100023099D01*
X172414828Y-100134462D01*
X172416310Y-100208849D01*
X172421765Y-100530526D01*
X172328580Y-100530526D01*
X172272047Y-100528156D01*
X172242922Y-100520055D01*
X172235394Y-100506451D01*
X172231420Y-100491741D01*
X172213652Y-100494554D01*
X172189440Y-100506348D01*
X172128828Y-100524427D01*
X172050929Y-100529299D01*
X171968995Y-100521330D01*
X171896281Y-100500889D01*
X171889759Y-100498051D01*
X171823302Y-100451365D01*
X171779491Y-100386464D01*
X171759332Y-100310600D01*
X171760872Y-100283344D01*
X171925345Y-100283344D01*
X171939837Y-100320024D01*
X171982805Y-100346309D01*
X172052129Y-100360417D01*
X172089177Y-100362290D01*
X172150919Y-100357494D01*
X172191960Y-100338858D01*
X172201973Y-100330000D01*
X172229100Y-100281806D01*
X172235394Y-100238092D01*
X172235394Y-100179605D01*
X172153930Y-100179605D01*
X172059234Y-100184432D01*
X171992813Y-100199613D01*
X171950846Y-100226200D01*
X171941449Y-100238052D01*
X171925345Y-100283344D01*
X171760872Y-100283344D01*
X171763829Y-100231026D01*
X171793985Y-100154995D01*
X171835131Y-100103612D01*
X171860052Y-100081397D01*
X171884448Y-100066798D01*
X171916191Y-100057897D01*
X171963152Y-100052775D01*
X172033204Y-100049515D01*
X172060990Y-100048577D01*
X172235394Y-100042879D01*
X172235138Y-99990091D01*
X172228384Y-99934603D01*
X172203964Y-99901052D01*
X172154630Y-99879618D01*
X172153306Y-99879236D01*
X172083360Y-99870808D01*
X172014914Y-99881816D01*
X171964047Y-99908585D01*
X171943637Y-99921803D01*
X171921654Y-99919974D01*
X171887826Y-99900824D01*
X171867961Y-99887308D01*
X171829106Y-99858432D01*
X171805038Y-99836786D01*
X171801176Y-99830589D01*
X171817079Y-99798519D01*
X171864065Y-99760219D01*
X171884473Y-99747297D01*
X171943143Y-99725041D01*
X172022212Y-99712432D01*
X172110041Y-99709600D01*
X172194992Y-99716673D01*
G36*
X171189130Y-99715104D02*
G01*
X171255220Y-99720066D01*
X171341626Y-99979079D01*
X171428031Y-100238092D01*
X171455124Y-100146184D01*
X171471428Y-100089384D01*
X171492875Y-100012625D01*
X171516035Y-99928251D01*
X171528280Y-99882993D01*
X171574344Y-99711710D01*
X171764387Y-99711710D01*
X171707582Y-99891349D01*
X171679607Y-99979704D01*
X171645813Y-100086281D01*
X171610520Y-100197454D01*
X171579013Y-100296579D01*
X171507250Y-100522171D01*
X171352286Y-100532253D01*
X171310270Y-100393528D01*
X171284359Y-100307351D01*
X171256083Y-100212347D01*
X171231369Y-100128441D01*
X171230394Y-100125102D01*
X171211935Y-100068248D01*
X171195649Y-100029456D01*
X171184242Y-100014787D01*
X171181898Y-100016483D01*
X171173671Y-100039225D01*
X171158038Y-100087940D01*
X171136904Y-100156502D01*
X171112170Y-100238785D01*
X171098787Y-100284046D01*
X171026311Y-100530526D01*
X170872495Y-100530526D01*
X170749531Y-100142006D01*
X170714988Y-100033022D01*
X170683521Y-99934048D01*
X170656616Y-99849736D01*
X170635759Y-99784734D01*
X170622438Y-99743692D01*
X170618388Y-99731701D01*
X170621594Y-99719423D01*
X170646765Y-99714046D01*
X170699146Y-99714584D01*
X170707345Y-99714990D01*
X170804482Y-99720066D01*
X170868100Y-99954013D01*
X170891484Y-100039333D01*
X170912381Y-100114335D01*
X170928951Y-100172507D01*
X170939354Y-100207337D01*
X170941276Y-100213016D01*
X170949241Y-100206486D01*
X170965304Y-100172654D01*
X170987621Y-100116127D01*
X171014345Y-100041510D01*
X171036937Y-99974107D01*
X171123041Y-99710143D01*
X171189130Y-99715104D01*
X171189130Y-99715104D01*
G37*
X171189130Y-99715104D02*
X171255220Y-99720066D01*
X171341626Y-99979079D01*
X171428031Y-100238092D01*
X171455124Y-100146184D01*
X171471428Y-100089384D01*
X171492875Y-100012625D01*
X171516035Y-99928251D01*
X171528280Y-99882993D01*
X171574344Y-99711710D01*
X171764387Y-99711710D01*
X171707582Y-99891349D01*
X171679607Y-99979704D01*
X171645813Y-100086281D01*
X171610520Y-100197454D01*
X171579013Y-100296579D01*
X171507250Y-100522171D01*
X171352286Y-100532253D01*
X171310270Y-100393528D01*
X171284359Y-100307351D01*
X171256083Y-100212347D01*
X171231369Y-100128441D01*
X171230394Y-100125102D01*
X171211935Y-100068248D01*
X171195649Y-100029456D01*
X171184242Y-100014787D01*
X171181898Y-100016483D01*
X171173671Y-100039225D01*
X171158038Y-100087940D01*
X171136904Y-100156502D01*
X171112170Y-100238785D01*
X171098787Y-100284046D01*
X171026311Y-100530526D01*
X170872495Y-100530526D01*
X170749531Y-100142006D01*
X170714988Y-100033022D01*
X170683521Y-99934048D01*
X170656616Y-99849736D01*
X170635759Y-99784734D01*
X170622438Y-99743692D01*
X170618388Y-99731701D01*
X170621594Y-99719423D01*
X170646765Y-99714046D01*
X170699146Y-99714584D01*
X170707345Y-99714990D01*
X170804482Y-99720066D01*
X170868100Y-99954013D01*
X170891484Y-100039333D01*
X170912381Y-100114335D01*
X170928951Y-100172507D01*
X170939354Y-100207337D01*
X170941276Y-100213016D01*
X170949241Y-100206486D01*
X170965304Y-100172654D01*
X170987621Y-100116127D01*
X171014345Y-100041510D01*
X171036937Y-99974107D01*
X171123041Y-99710143D01*
X171189130Y-99715104D01*
G36*
X170547631Y-100530526D02*
G01*
X170455723Y-100530526D01*
X170402377Y-100528962D01*
X170374593Y-100522485D01*
X170364590Y-100508418D01*
X170363815Y-100498906D01*
X170362128Y-100479832D01*
X170351490Y-100476174D01*
X170323535Y-100487932D01*
X170301795Y-100498906D01*
X170218332Y-100524911D01*
X170127604Y-100526416D01*
X170053842Y-100507021D01*
X169985154Y-100460165D01*
X169932794Y-100391004D01*
X169904122Y-100309427D01*
X169903392Y-100304866D01*
X169899132Y-100255101D01*
X169897014Y-100183659D01*
X169897184Y-100129626D01*
X170079720Y-100129626D01*
X170083949Y-100201441D01*
X170093568Y-100260634D01*
X170106590Y-100294060D01*
X170155856Y-100339740D01*
X170214350Y-100356115D01*
X170274671Y-100342873D01*
X170326217Y-100303373D01*
X170345738Y-100276807D01*
X170357152Y-100245106D01*
X170362498Y-100198832D01*
X170363815Y-100129328D01*
X170361458Y-100060499D01*
X170355233Y-100000026D01*
X170346408Y-99959556D01*
X170344937Y-99955929D01*
X170309347Y-99912802D01*
X170257400Y-99889124D01*
X170199278Y-99885301D01*
X170145160Y-99901738D01*
X170105226Y-99938840D01*
X170101083Y-99946222D01*
X170088116Y-99991239D01*
X170081052Y-100055967D01*
X170079720Y-100129626D01*
X169897184Y-100129626D01*
X169897271Y-100102230D01*
X169898472Y-100058405D01*
X169906645Y-99949988D01*
X169923630Y-99868588D01*
X169951887Y-99808412D01*
X169993872Y-99763666D01*
X170034632Y-99737400D01*
X170091581Y-99718935D01*
X170162411Y-99712602D01*
X170234941Y-99717760D01*
X170296986Y-99733769D01*
X170329768Y-99752920D01*
X170363815Y-99783732D01*
X170363815Y-99394210D01*
X170547631Y-99394210D01*
X170547631Y-100530526D01*
X170547631Y-100530526D01*
G37*
X170547631Y-100530526D02*
X170455723Y-100530526D01*
X170402377Y-100528962D01*
X170374593Y-100522485D01*
X170364590Y-100508418D01*
X170363815Y-100498906D01*
X170362128Y-100479832D01*
X170351490Y-100476174D01*
X170323535Y-100487932D01*
X170301795Y-100498906D01*
X170218332Y-100524911D01*
X170127604Y-100526416D01*
X170053842Y-100507021D01*
X169985154Y-100460165D01*
X169932794Y-100391004D01*
X169904122Y-100309427D01*
X169903392Y-100304866D01*
X169899132Y-100255101D01*
X169897014Y-100183659D01*
X169897184Y-100129626D01*
X170079720Y-100129626D01*
X170083949Y-100201441D01*
X170093568Y-100260634D01*
X170106590Y-100294060D01*
X170155856Y-100339740D01*
X170214350Y-100356115D01*
X170274671Y-100342873D01*
X170326217Y-100303373D01*
X170345738Y-100276807D01*
X170357152Y-100245106D01*
X170362498Y-100198832D01*
X170363815Y-100129328D01*
X170361458Y-100060499D01*
X170355233Y-100000026D01*
X170346408Y-99959556D01*
X170344937Y-99955929D01*
X170309347Y-99912802D01*
X170257400Y-99889124D01*
X170199278Y-99885301D01*
X170145160Y-99901738D01*
X170105226Y-99938840D01*
X170101083Y-99946222D01*
X170088116Y-99991239D01*
X170081052Y-100055967D01*
X170079720Y-100129626D01*
X169897184Y-100129626D01*
X169897271Y-100102230D01*
X169898472Y-100058405D01*
X169906645Y-99949988D01*
X169923630Y-99868588D01*
X169951887Y-99808412D01*
X169993872Y-99763666D01*
X170034632Y-99737400D01*
X170091581Y-99718935D01*
X170162411Y-99712602D01*
X170234941Y-99717760D01*
X170296986Y-99733769D01*
X170329768Y-99752920D01*
X170363815Y-99783732D01*
X170363815Y-99394210D01*
X170547631Y-99394210D01*
X170547631Y-100530526D01*
G36*
X169494881Y-99713486D02*
G01*
X169519888Y-99720982D01*
X169527950Y-99737451D01*
X169528289Y-99744886D01*
X169529736Y-99765594D01*
X169539698Y-99768845D01*
X169566612Y-99754648D01*
X169582598Y-99744948D01*
X169633033Y-99724175D01*
X169693272Y-99713904D01*
X169756434Y-99713114D01*
X169815637Y-99720786D01*
X169864002Y-99735898D01*
X169894646Y-99757432D01*
X169900689Y-99784366D01*
X169897639Y-99791660D01*
X169875406Y-99821937D01*
X169840930Y-99859175D01*
X169834694Y-99865195D01*
X169801833Y-99892875D01*
X169773480Y-99901818D01*
X169733827Y-99895576D01*
X169717942Y-99891429D01*
X169668509Y-99881467D01*
X169633752Y-99885947D01*
X169604400Y-99901746D01*
X169577513Y-99922949D01*
X169557710Y-99949614D01*
X169543948Y-99986827D01*
X169535184Y-100039673D01*
X169530374Y-100113237D01*
X169528474Y-100212605D01*
X169528289Y-100272601D01*
X169528289Y-100530526D01*
X169361184Y-100530526D01*
X169361184Y-99711710D01*
X169444736Y-99711710D01*
X169494881Y-99713486D01*
X169494881Y-99713486D01*
G37*
X169494881Y-99713486D02*
X169519888Y-99720982D01*
X169527950Y-99737451D01*
X169528289Y-99744886D01*
X169529736Y-99765594D01*
X169539698Y-99768845D01*
X169566612Y-99754648D01*
X169582598Y-99744948D01*
X169633033Y-99724175D01*
X169693272Y-99713904D01*
X169756434Y-99713114D01*
X169815637Y-99720786D01*
X169864002Y-99735898D01*
X169894646Y-99757432D01*
X169900689Y-99784366D01*
X169897639Y-99791660D01*
X169875406Y-99821937D01*
X169840930Y-99859175D01*
X169834694Y-99865195D01*
X169801833Y-99892875D01*
X169773480Y-99901818D01*
X169733827Y-99895576D01*
X169717942Y-99891429D01*
X169668509Y-99881467D01*
X169633752Y-99885947D01*
X169604400Y-99901746D01*
X169577513Y-99922949D01*
X169557710Y-99949614D01*
X169543948Y-99986827D01*
X169535184Y-100039673D01*
X169530374Y-100113237D01*
X169528474Y-100212605D01*
X169528289Y-100272601D01*
X169528289Y-100530526D01*
X169361184Y-100530526D01*
X169361184Y-99711710D01*
X169444736Y-99711710D01*
X169494881Y-99713486D01*
G36*
X168975457Y-99718184D02*
G01*
X169054070Y-99739160D01*
X169113916Y-99777180D01*
X169156147Y-99826978D01*
X169169275Y-99848230D01*
X169178968Y-99870492D01*
X169185744Y-99898970D01*
X169190123Y-99938871D01*
X169192624Y-99995401D01*
X169193768Y-100073767D01*
X169194072Y-100179176D01*
X169194078Y-100207142D01*
X169194078Y-100530526D01*
X169113868Y-100530526D01*
X169062706Y-100526943D01*
X169024877Y-100517866D01*
X169015399Y-100512268D01*
X168989488Y-100502606D01*
X168963024Y-100512268D01*
X168919452Y-100524330D01*
X168856160Y-100529185D01*
X168786010Y-100527078D01*
X168721860Y-100518256D01*
X168684407Y-100506937D01*
X168611933Y-100460412D01*
X168566640Y-100395846D01*
X168546278Y-100310000D01*
X168546088Y-100307796D01*
X168547875Y-100269713D01*
X168709473Y-100269713D01*
X168723601Y-100313030D01*
X168746612Y-100337408D01*
X168792804Y-100355845D01*
X168853775Y-100363205D01*
X168915949Y-100359583D01*
X168965751Y-100345074D01*
X168979703Y-100335765D01*
X169004085Y-100292753D01*
X169010263Y-100243857D01*
X169010263Y-100179605D01*
X168917818Y-100179605D01*
X168829995Y-100186366D01*
X168763418Y-100205520D01*
X168722002Y-100235376D01*
X168709473Y-100269713D01*
X168547875Y-100269713D01*
X168550490Y-100214004D01*
X168581424Y-100139847D01*
X168639581Y-100083767D01*
X168647620Y-100078665D01*
X168682163Y-100062055D01*
X168724918Y-100051996D01*
X168784686Y-100047107D01*
X168855690Y-100045983D01*
X169010263Y-100045921D01*
X169010263Y-99981125D01*
X169003706Y-99930850D01*
X168986975Y-99897169D01*
X168985016Y-99895376D01*
X168947783Y-99880642D01*
X168891580Y-99874931D01*
X168829467Y-99877737D01*
X168774510Y-99888556D01*
X168741899Y-99904782D01*
X168724228Y-99917780D01*
X168705569Y-99920262D01*
X168679819Y-99909613D01*
X168640873Y-99883218D01*
X168582630Y-99838465D01*
X168577284Y-99834273D01*
X168580023Y-99818760D01*
X168602876Y-99792960D01*
X168637609Y-99764289D01*
X168675990Y-99740166D01*
X168688048Y-99734470D01*
X168732034Y-99723103D01*
X168796487Y-99714995D01*
X168868497Y-99711743D01*
X168871864Y-99711736D01*
X168975457Y-99718184D01*
X168975457Y-99718184D01*
G37*
X168975457Y-99718184D02*
X169054070Y-99739160D01*
X169113916Y-99777180D01*
X169156147Y-99826978D01*
X169169275Y-99848230D01*
X169178968Y-99870492D01*
X169185744Y-99898970D01*
X169190123Y-99938871D01*
X169192624Y-99995401D01*
X169193768Y-100073767D01*
X169194072Y-100179176D01*
X169194078Y-100207142D01*
X169194078Y-100530526D01*
X169113868Y-100530526D01*
X169062706Y-100526943D01*
X169024877Y-100517866D01*
X169015399Y-100512268D01*
X168989488Y-100502606D01*
X168963024Y-100512268D01*
X168919452Y-100524330D01*
X168856160Y-100529185D01*
X168786010Y-100527078D01*
X168721860Y-100518256D01*
X168684407Y-100506937D01*
X168611933Y-100460412D01*
X168566640Y-100395846D01*
X168546278Y-100310000D01*
X168546088Y-100307796D01*
X168547875Y-100269713D01*
X168709473Y-100269713D01*
X168723601Y-100313030D01*
X168746612Y-100337408D01*
X168792804Y-100355845D01*
X168853775Y-100363205D01*
X168915949Y-100359583D01*
X168965751Y-100345074D01*
X168979703Y-100335765D01*
X169004085Y-100292753D01*
X169010263Y-100243857D01*
X169010263Y-100179605D01*
X168917818Y-100179605D01*
X168829995Y-100186366D01*
X168763418Y-100205520D01*
X168722002Y-100235376D01*
X168709473Y-100269713D01*
X168547875Y-100269713D01*
X168550490Y-100214004D01*
X168581424Y-100139847D01*
X168639581Y-100083767D01*
X168647620Y-100078665D01*
X168682163Y-100062055D01*
X168724918Y-100051996D01*
X168784686Y-100047107D01*
X168855690Y-100045983D01*
X169010263Y-100045921D01*
X169010263Y-99981125D01*
X169003706Y-99930850D01*
X168986975Y-99897169D01*
X168985016Y-99895376D01*
X168947783Y-99880642D01*
X168891580Y-99874931D01*
X168829467Y-99877737D01*
X168774510Y-99888556D01*
X168741899Y-99904782D01*
X168724228Y-99917780D01*
X168705569Y-99920262D01*
X168679819Y-99909613D01*
X168640873Y-99883218D01*
X168582630Y-99838465D01*
X168577284Y-99834273D01*
X168580023Y-99818760D01*
X168602876Y-99792960D01*
X168637609Y-99764289D01*
X168675990Y-99740166D01*
X168688048Y-99734470D01*
X168732034Y-99723103D01*
X168796487Y-99714995D01*
X168868497Y-99711743D01*
X168871864Y-99711736D01*
X168975457Y-99718184D01*
G36*
X168278360Y-98472468D02*
G01*
X168313592Y-98489874D01*
X168357040Y-98520206D01*
X168388706Y-98553283D01*
X168410394Y-98594817D01*
X168423903Y-98650522D01*
X168431038Y-98726111D01*
X168433600Y-98827296D01*
X168433750Y-98870797D01*
X168433312Y-98966135D01*
X168431496Y-99034271D01*
X168427545Y-99081418D01*
X168420702Y-99113790D01*
X168410211Y-99137600D01*
X168399296Y-99153843D01*
X168329619Y-99222952D01*
X168247566Y-99264521D01*
X168159050Y-99277023D01*
X168069981Y-99258934D01*
X168041763Y-99246142D01*
X167974210Y-99210931D01*
X167974210Y-99762700D01*
X168023512Y-99737205D01*
X168088473Y-99717480D01*
X168168320Y-99712427D01*
X168248052Y-99721756D01*
X168308265Y-99742714D01*
X168358208Y-99782627D01*
X168400881Y-99839741D01*
X168404090Y-99845605D01*
X168417622Y-99873227D01*
X168427505Y-99901068D01*
X168434309Y-99934794D01*
X168438601Y-99980071D01*
X168440951Y-100042562D01*
X168441928Y-100127935D01*
X168442105Y-100224010D01*
X168442105Y-100530526D01*
X168258289Y-100530526D01*
X168258289Y-99965339D01*
X168206875Y-99922077D01*
X168153466Y-99887472D01*
X168102888Y-99881180D01*
X168052030Y-99897372D01*
X168024925Y-99913227D01*
X168004751Y-99935810D01*
X167990403Y-99969940D01*
X167980776Y-100020434D01*
X167974763Y-100092111D01*
X167971260Y-100189788D01*
X167970026Y-100254802D01*
X167965855Y-100522171D01*
X167878125Y-100527222D01*
X167790394Y-100532273D01*
X167790394Y-98873101D01*
X167974210Y-98873101D01*
X167978896Y-98965600D01*
X167994688Y-99029809D01*
X168024183Y-99069759D01*
X168069980Y-99089480D01*
X168116250Y-99093421D01*
X168168628Y-99088892D01*
X168203390Y-99071069D01*
X168225128Y-99047519D01*
X168242240Y-99022189D01*
X168252427Y-98993969D01*
X168256960Y-98954431D01*
X168257109Y-98895142D01*
X168255584Y-98845498D01*
X168252081Y-98770710D01*
X168246867Y-98721611D01*
X168238087Y-98690467D01*
X168223886Y-98669545D01*
X168210484Y-98657452D01*
X168154487Y-98631081D01*
X168088211Y-98626822D01*
X168050156Y-98635906D01*
X168012477Y-98668196D01*
X167987519Y-98731006D01*
X167975422Y-98823894D01*
X167974210Y-98873101D01*
X167790394Y-98873101D01*
X167790394Y-98458421D01*
X167882302Y-98458421D01*
X167937483Y-98460603D01*
X167965952Y-98468351D01*
X167974206Y-98483468D01*
X167974210Y-98483916D01*
X167978040Y-98498720D01*
X167994933Y-98497039D01*
X168028519Y-98480772D01*
X168106778Y-98455887D01*
X168194827Y-98453271D01*
X168278360Y-98472468D01*
X168278360Y-98472468D01*
G37*
X168278360Y-98472468D02*
X168313592Y-98489874D01*
X168357040Y-98520206D01*
X168388706Y-98553283D01*
X168410394Y-98594817D01*
X168423903Y-98650522D01*
X168431038Y-98726111D01*
X168433600Y-98827296D01*
X168433750Y-98870797D01*
X168433312Y-98966135D01*
X168431496Y-99034271D01*
X168427545Y-99081418D01*
X168420702Y-99113790D01*
X168410211Y-99137600D01*
X168399296Y-99153843D01*
X168329619Y-99222952D01*
X168247566Y-99264521D01*
X168159050Y-99277023D01*
X168069981Y-99258934D01*
X168041763Y-99246142D01*
X167974210Y-99210931D01*
X167974210Y-99762700D01*
X168023512Y-99737205D01*
X168088473Y-99717480D01*
X168168320Y-99712427D01*
X168248052Y-99721756D01*
X168308265Y-99742714D01*
X168358208Y-99782627D01*
X168400881Y-99839741D01*
X168404090Y-99845605D01*
X168417622Y-99873227D01*
X168427505Y-99901068D01*
X168434309Y-99934794D01*
X168438601Y-99980071D01*
X168440951Y-100042562D01*
X168441928Y-100127935D01*
X168442105Y-100224010D01*
X168442105Y-100530526D01*
X168258289Y-100530526D01*
X168258289Y-99965339D01*
X168206875Y-99922077D01*
X168153466Y-99887472D01*
X168102888Y-99881180D01*
X168052030Y-99897372D01*
X168024925Y-99913227D01*
X168004751Y-99935810D01*
X167990403Y-99969940D01*
X167980776Y-100020434D01*
X167974763Y-100092111D01*
X167971260Y-100189788D01*
X167970026Y-100254802D01*
X167965855Y-100522171D01*
X167878125Y-100527222D01*
X167790394Y-100532273D01*
X167790394Y-98873101D01*
X167974210Y-98873101D01*
X167978896Y-98965600D01*
X167994688Y-99029809D01*
X168024183Y-99069759D01*
X168069980Y-99089480D01*
X168116250Y-99093421D01*
X168168628Y-99088892D01*
X168203390Y-99071069D01*
X168225128Y-99047519D01*
X168242240Y-99022189D01*
X168252427Y-98993969D01*
X168256960Y-98954431D01*
X168257109Y-98895142D01*
X168255584Y-98845498D01*
X168252081Y-98770710D01*
X168246867Y-98721611D01*
X168238087Y-98690467D01*
X168223886Y-98669545D01*
X168210484Y-98657452D01*
X168154487Y-98631081D01*
X168088211Y-98626822D01*
X168050156Y-98635906D01*
X168012477Y-98668196D01*
X167987519Y-98731006D01*
X167975422Y-98823894D01*
X167974210Y-98873101D01*
X167790394Y-98873101D01*
X167790394Y-98458421D01*
X167882302Y-98458421D01*
X167937483Y-98460603D01*
X167965952Y-98468351D01*
X167974206Y-98483468D01*
X167974210Y-98483916D01*
X167978040Y-98498720D01*
X167994933Y-98497039D01*
X168028519Y-98480772D01*
X168106778Y-98455887D01*
X168194827Y-98453271D01*
X168278360Y-98472468D01*
D10*
X162710761Y-75247333D02*
X162758380Y-75104476D01*
X162758380Y-74866380D01*
X162710761Y-74771142D01*
X162663142Y-74723523D01*
X162567904Y-74675904D01*
X162472666Y-74675904D01*
X162377428Y-74723523D01*
X162329809Y-74771142D01*
X162282190Y-74866380D01*
X162234571Y-75056857D01*
X162186952Y-75152095D01*
X162139333Y-75199714D01*
X162044095Y-75247333D01*
X161948857Y-75247333D01*
X161853619Y-75199714D01*
X161806000Y-75152095D01*
X161758380Y-75056857D01*
X161758380Y-74818761D01*
X161806000Y-74675904D01*
X161758380Y-74342571D02*
X162758380Y-74104476D01*
X162044095Y-73914000D01*
X162758380Y-73723523D01*
X161758380Y-73485428D01*
X162758380Y-72580666D02*
X162758380Y-73152095D01*
X162758380Y-72866380D02*
X161758380Y-72866380D01*
X161901238Y-72961619D01*
X161996476Y-73056857D01*
X162044095Y-73152095D01*
X162734761Y-70421333D02*
X162782380Y-70278476D01*
X162782380Y-70040380D01*
X162734761Y-69945142D01*
X162687142Y-69897523D01*
X162591904Y-69849904D01*
X162496666Y-69849904D01*
X162401428Y-69897523D01*
X162353809Y-69945142D01*
X162306190Y-70040380D01*
X162258571Y-70230857D01*
X162210952Y-70326095D01*
X162163333Y-70373714D01*
X162068095Y-70421333D01*
X161972857Y-70421333D01*
X161877619Y-70373714D01*
X161830000Y-70326095D01*
X161782380Y-70230857D01*
X161782380Y-69992761D01*
X161830000Y-69849904D01*
X161782380Y-69516571D02*
X162782380Y-69278476D01*
X162068095Y-69088000D01*
X162782380Y-68897523D01*
X161782380Y-68659428D01*
X161782380Y-68373714D02*
X161782380Y-67754666D01*
X162163333Y-68088000D01*
X162163333Y-67945142D01*
X162210952Y-67849904D01*
X162258571Y-67802285D01*
X162353809Y-67754666D01*
X162591904Y-67754666D01*
X162687142Y-67802285D01*
X162734761Y-67849904D01*
X162782380Y-67945142D01*
X162782380Y-68230857D01*
X162734761Y-68326095D01*
X162687142Y-68373714D01*
X109434380Y-91265333D02*
X110148666Y-91265333D01*
X110291523Y-91312952D01*
X110386761Y-91408190D01*
X110434380Y-91551047D01*
X110434380Y-91646285D01*
X109434380Y-90884380D02*
X109434380Y-90265333D01*
X109815333Y-90598666D01*
X109815333Y-90455809D01*
X109862952Y-90360571D01*
X109910571Y-90312952D01*
X110005809Y-90265333D01*
X110243904Y-90265333D01*
X110339142Y-90312952D01*
X110386761Y-90360571D01*
X110434380Y-90455809D01*
X110434380Y-90741523D01*
X110386761Y-90836761D01*
X110339142Y-90884380D01*
X125888761Y-98972619D02*
X125793523Y-98925000D01*
X125698285Y-98829761D01*
X125555428Y-98686904D01*
X125460190Y-98639285D01*
X125364952Y-98639285D01*
X125412571Y-98877380D02*
X125317333Y-98829761D01*
X125222095Y-98734523D01*
X125174476Y-98544047D01*
X125174476Y-98210714D01*
X125222095Y-98020238D01*
X125317333Y-97925000D01*
X125412571Y-97877380D01*
X125603047Y-97877380D01*
X125698285Y-97925000D01*
X125793523Y-98020238D01*
X125841142Y-98210714D01*
X125841142Y-98544047D01*
X125793523Y-98734523D01*
X125698285Y-98829761D01*
X125603047Y-98877380D01*
X125412571Y-98877380D01*
X126222095Y-97972619D02*
X126269714Y-97925000D01*
X126364952Y-97877380D01*
X126603047Y-97877380D01*
X126698285Y-97925000D01*
X126745904Y-97972619D01*
X126793523Y-98067857D01*
X126793523Y-98163095D01*
X126745904Y-98305952D01*
X126174476Y-98877380D01*
X126793523Y-98877380D01*
X123039142Y-81668857D02*
X123086761Y-81716476D01*
X123134380Y-81859333D01*
X123134380Y-81954571D01*
X123086761Y-82097428D01*
X122991523Y-82192666D01*
X122896285Y-82240285D01*
X122705809Y-82287904D01*
X122562952Y-82287904D01*
X122372476Y-82240285D01*
X122277238Y-82192666D01*
X122182000Y-82097428D01*
X122134380Y-81954571D01*
X122134380Y-81859333D01*
X122182000Y-81716476D01*
X122229619Y-81668857D01*
X123134380Y-80716476D02*
X123134380Y-81287904D01*
X123134380Y-81002190D02*
X122134380Y-81002190D01*
X122277238Y-81097428D01*
X122372476Y-81192666D01*
X122420095Y-81287904D01*
X122134380Y-79811714D02*
X122134380Y-80287904D01*
X122610571Y-80335523D01*
X122562952Y-80287904D01*
X122515333Y-80192666D01*
X122515333Y-79954571D01*
X122562952Y-79859333D01*
X122610571Y-79811714D01*
X122705809Y-79764095D01*
X122943904Y-79764095D01*
X123039142Y-79811714D01*
X123086761Y-79859333D01*
X123134380Y-79954571D01*
X123134380Y-80192666D01*
X123086761Y-80287904D01*
X123039142Y-80335523D01*
X132691142Y-82176857D02*
X132738761Y-82224476D01*
X132786380Y-82367333D01*
X132786380Y-82462571D01*
X132738761Y-82605428D01*
X132643523Y-82700666D01*
X132548285Y-82748285D01*
X132357809Y-82795904D01*
X132214952Y-82795904D01*
X132024476Y-82748285D01*
X131929238Y-82700666D01*
X131834000Y-82605428D01*
X131786380Y-82462571D01*
X131786380Y-82367333D01*
X131834000Y-82224476D01*
X131881619Y-82176857D01*
X132786380Y-81224476D02*
X132786380Y-81795904D01*
X132786380Y-81510190D02*
X131786380Y-81510190D01*
X131929238Y-81605428D01*
X132024476Y-81700666D01*
X132072095Y-81795904D01*
X131786380Y-80367333D02*
X131786380Y-80557809D01*
X131834000Y-80653047D01*
X131881619Y-80700666D01*
X132024476Y-80795904D01*
X132214952Y-80843523D01*
X132595904Y-80843523D01*
X132691142Y-80795904D01*
X132738761Y-80748285D01*
X132786380Y-80653047D01*
X132786380Y-80462571D01*
X132738761Y-80367333D01*
X132691142Y-80319714D01*
X132595904Y-80272095D01*
X132357809Y-80272095D01*
X132262571Y-80319714D01*
X132214952Y-80367333D01*
X132167333Y-80462571D01*
X132167333Y-80653047D01*
X132214952Y-80748285D01*
X132262571Y-80795904D01*
X132357809Y-80843523D01*
X151090333Y-91289142D02*
X151042714Y-91336761D01*
X150899857Y-91384380D01*
X150804619Y-91384380D01*
X150661761Y-91336761D01*
X150566523Y-91241523D01*
X150518904Y-91146285D01*
X150471285Y-90955809D01*
X150471285Y-90812952D01*
X150518904Y-90622476D01*
X150566523Y-90527238D01*
X150661761Y-90432000D01*
X150804619Y-90384380D01*
X150899857Y-90384380D01*
X151042714Y-90432000D01*
X151090333Y-90479619D01*
X151471285Y-90479619D02*
X151518904Y-90432000D01*
X151614142Y-90384380D01*
X151852238Y-90384380D01*
X151947476Y-90432000D01*
X151995095Y-90479619D01*
X152042714Y-90574857D01*
X152042714Y-90670095D01*
X151995095Y-90812952D01*
X151423666Y-91384380D01*
X152042714Y-91384380D01*
X151090333Y-89130142D02*
X151042714Y-89177761D01*
X150899857Y-89225380D01*
X150804619Y-89225380D01*
X150661761Y-89177761D01*
X150566523Y-89082523D01*
X150518904Y-88987285D01*
X150471285Y-88796809D01*
X150471285Y-88653952D01*
X150518904Y-88463476D01*
X150566523Y-88368238D01*
X150661761Y-88273000D01*
X150804619Y-88225380D01*
X150899857Y-88225380D01*
X151042714Y-88273000D01*
X151090333Y-88320619D01*
X151423666Y-88225380D02*
X152042714Y-88225380D01*
X151709380Y-88606333D01*
X151852238Y-88606333D01*
X151947476Y-88653952D01*
X151995095Y-88701571D01*
X152042714Y-88796809D01*
X152042714Y-89034904D01*
X151995095Y-89130142D01*
X151947476Y-89177761D01*
X151852238Y-89225380D01*
X151566523Y-89225380D01*
X151471285Y-89177761D01*
X151423666Y-89130142D01*
X141073142Y-106211666D02*
X141120761Y-106259285D01*
X141168380Y-106402142D01*
X141168380Y-106497380D01*
X141120761Y-106640238D01*
X141025523Y-106735476D01*
X140930285Y-106783095D01*
X140739809Y-106830714D01*
X140596952Y-106830714D01*
X140406476Y-106783095D01*
X140311238Y-106735476D01*
X140216000Y-106640238D01*
X140168380Y-106497380D01*
X140168380Y-106402142D01*
X140216000Y-106259285D01*
X140263619Y-106211666D01*
X140501714Y-105354523D02*
X141168380Y-105354523D01*
X140120761Y-105592619D02*
X140835047Y-105830714D01*
X140835047Y-105211666D01*
X148613833Y-106211642D02*
X148566214Y-106259261D01*
X148423357Y-106306880D01*
X148328119Y-106306880D01*
X148185261Y-106259261D01*
X148090023Y-106164023D01*
X148042404Y-106068785D01*
X147994785Y-105878309D01*
X147994785Y-105735452D01*
X148042404Y-105544976D01*
X148090023Y-105449738D01*
X148185261Y-105354500D01*
X148328119Y-105306880D01*
X148423357Y-105306880D01*
X148566214Y-105354500D01*
X148613833Y-105402119D01*
X149518595Y-105306880D02*
X149042404Y-105306880D01*
X148994785Y-105783071D01*
X149042404Y-105735452D01*
X149137642Y-105687833D01*
X149375738Y-105687833D01*
X149470976Y-105735452D01*
X149518595Y-105783071D01*
X149566214Y-105878309D01*
X149566214Y-106116404D01*
X149518595Y-106211642D01*
X149470976Y-106259261D01*
X149375738Y-106306880D01*
X149137642Y-106306880D01*
X149042404Y-106259261D01*
X148994785Y-106211642D01*
X148613833Y-107481642D02*
X148566214Y-107529261D01*
X148423357Y-107576880D01*
X148328119Y-107576880D01*
X148185261Y-107529261D01*
X148090023Y-107434023D01*
X148042404Y-107338785D01*
X147994785Y-107148309D01*
X147994785Y-107005452D01*
X148042404Y-106814976D01*
X148090023Y-106719738D01*
X148185261Y-106624500D01*
X148328119Y-106576880D01*
X148423357Y-106576880D01*
X148566214Y-106624500D01*
X148613833Y-106672119D01*
X149470976Y-106576880D02*
X149280500Y-106576880D01*
X149185261Y-106624500D01*
X149137642Y-106672119D01*
X149042404Y-106814976D01*
X148994785Y-107005452D01*
X148994785Y-107386404D01*
X149042404Y-107481642D01*
X149090023Y-107529261D01*
X149185261Y-107576880D01*
X149375738Y-107576880D01*
X149470976Y-107529261D01*
X149518595Y-107481642D01*
X149566214Y-107386404D01*
X149566214Y-107148309D01*
X149518595Y-107053071D01*
X149470976Y-107005452D01*
X149375738Y-106957833D01*
X149185261Y-106957833D01*
X149090023Y-107005452D01*
X149042404Y-107053071D01*
X148994785Y-107148309D01*
X154455833Y-102211142D02*
X154408214Y-102258761D01*
X154265357Y-102306380D01*
X154170119Y-102306380D01*
X154027261Y-102258761D01*
X153932023Y-102163523D01*
X153884404Y-102068285D01*
X153836785Y-101877809D01*
X153836785Y-101734952D01*
X153884404Y-101544476D01*
X153932023Y-101449238D01*
X154027261Y-101354000D01*
X154170119Y-101306380D01*
X154265357Y-101306380D01*
X154408214Y-101354000D01*
X154455833Y-101401619D01*
X154789166Y-101306380D02*
X155455833Y-101306380D01*
X155027261Y-102306380D01*
X154836833Y-92940142D02*
X154789214Y-92987761D01*
X154646357Y-93035380D01*
X154551119Y-93035380D01*
X154408261Y-92987761D01*
X154313023Y-92892523D01*
X154265404Y-92797285D01*
X154217785Y-92606809D01*
X154217785Y-92463952D01*
X154265404Y-92273476D01*
X154313023Y-92178238D01*
X154408261Y-92083000D01*
X154551119Y-92035380D01*
X154646357Y-92035380D01*
X154789214Y-92083000D01*
X154836833Y-92130619D01*
X155408261Y-92463952D02*
X155313023Y-92416333D01*
X155265404Y-92368714D01*
X155217785Y-92273476D01*
X155217785Y-92225857D01*
X155265404Y-92130619D01*
X155313023Y-92083000D01*
X155408261Y-92035380D01*
X155598738Y-92035380D01*
X155693976Y-92083000D01*
X155741595Y-92130619D01*
X155789214Y-92225857D01*
X155789214Y-92273476D01*
X155741595Y-92368714D01*
X155693976Y-92416333D01*
X155598738Y-92463952D01*
X155408261Y-92463952D01*
X155313023Y-92511571D01*
X155265404Y-92559190D01*
X155217785Y-92654428D01*
X155217785Y-92844904D01*
X155265404Y-92940142D01*
X155313023Y-92987761D01*
X155408261Y-93035380D01*
X155598738Y-93035380D01*
X155693976Y-92987761D01*
X155741595Y-92940142D01*
X155789214Y-92844904D01*
X155789214Y-92654428D01*
X155741595Y-92559190D01*
X155693976Y-92511571D01*
X155598738Y-92463952D01*
X153789142Y-103989142D02*
X153741523Y-104036761D01*
X153598666Y-104084380D01*
X153503428Y-104084380D01*
X153360571Y-104036761D01*
X153265333Y-103941523D01*
X153217714Y-103846285D01*
X153170095Y-103655809D01*
X153170095Y-103512952D01*
X153217714Y-103322476D01*
X153265333Y-103227238D01*
X153360571Y-103132000D01*
X153503428Y-103084380D01*
X153598666Y-103084380D01*
X153741523Y-103132000D01*
X153789142Y-103179619D01*
X154741523Y-104084380D02*
X154170095Y-104084380D01*
X154455809Y-104084380D02*
X154455809Y-103084380D01*
X154360571Y-103227238D01*
X154265333Y-103322476D01*
X154170095Y-103370095D01*
X155693904Y-104084380D02*
X155122476Y-104084380D01*
X155408190Y-104084380D02*
X155408190Y-103084380D01*
X155312952Y-103227238D01*
X155217714Y-103322476D01*
X155122476Y-103370095D01*
X113005142Y-96146857D02*
X113052761Y-96194476D01*
X113100380Y-96337333D01*
X113100380Y-96432571D01*
X113052761Y-96575428D01*
X112957523Y-96670666D01*
X112862285Y-96718285D01*
X112671809Y-96765904D01*
X112528952Y-96765904D01*
X112338476Y-96718285D01*
X112243238Y-96670666D01*
X112148000Y-96575428D01*
X112100380Y-96432571D01*
X112100380Y-96337333D01*
X112148000Y-96194476D01*
X112195619Y-96146857D01*
X113100380Y-95194476D02*
X113100380Y-95765904D01*
X113100380Y-95480190D02*
X112100380Y-95480190D01*
X112243238Y-95575428D01*
X112338476Y-95670666D01*
X112386095Y-95765904D01*
X112100380Y-94861142D02*
X112100380Y-94242095D01*
X112481333Y-94575428D01*
X112481333Y-94432571D01*
X112528952Y-94337333D01*
X112576571Y-94289714D01*
X112671809Y-94242095D01*
X112909904Y-94242095D01*
X113005142Y-94289714D01*
X113052761Y-94337333D01*
X113100380Y-94432571D01*
X113100380Y-94718285D01*
X113052761Y-94813523D01*
X113005142Y-94861142D01*
X129389142Y-87129857D02*
X129436761Y-87177476D01*
X129484380Y-87320333D01*
X129484380Y-87415571D01*
X129436761Y-87558428D01*
X129341523Y-87653666D01*
X129246285Y-87701285D01*
X129055809Y-87748904D01*
X128912952Y-87748904D01*
X128722476Y-87701285D01*
X128627238Y-87653666D01*
X128532000Y-87558428D01*
X128484380Y-87415571D01*
X128484380Y-87320333D01*
X128532000Y-87177476D01*
X128579619Y-87129857D01*
X129484380Y-86177476D02*
X129484380Y-86748904D01*
X129484380Y-86463190D02*
X128484380Y-86463190D01*
X128627238Y-86558428D01*
X128722476Y-86653666D01*
X128770095Y-86748904D01*
X128484380Y-85844142D02*
X128484380Y-85177476D01*
X129484380Y-85606047D01*
X131913333Y-74070380D02*
X131580000Y-73594190D01*
X131341904Y-74070380D02*
X131341904Y-73070380D01*
X131722857Y-73070380D01*
X131818095Y-73118000D01*
X131865714Y-73165619D01*
X131913333Y-73260857D01*
X131913333Y-73403714D01*
X131865714Y-73498952D01*
X131818095Y-73546571D01*
X131722857Y-73594190D01*
X131341904Y-73594190D01*
X132389523Y-74070380D02*
X132580000Y-74070380D01*
X132675238Y-74022761D01*
X132722857Y-73975142D01*
X132818095Y-73832285D01*
X132865714Y-73641809D01*
X132865714Y-73260857D01*
X132818095Y-73165619D01*
X132770476Y-73118000D01*
X132675238Y-73070380D01*
X132484761Y-73070380D01*
X132389523Y-73118000D01*
X132341904Y-73165619D01*
X132294285Y-73260857D01*
X132294285Y-73498952D01*
X132341904Y-73594190D01*
X132389523Y-73641809D01*
X132484761Y-73689428D01*
X132675238Y-73689428D01*
X132770476Y-73641809D01*
X132818095Y-73594190D01*
X132865714Y-73498952D01*
X159202380Y-69000666D02*
X158726190Y-69334000D01*
X159202380Y-69572095D02*
X158202380Y-69572095D01*
X158202380Y-69191142D01*
X158250000Y-69095904D01*
X158297619Y-69048285D01*
X158392857Y-69000666D01*
X158535714Y-69000666D01*
X158630952Y-69048285D01*
X158678571Y-69095904D01*
X158726190Y-69191142D01*
X158726190Y-69572095D01*
X158297619Y-68619714D02*
X158250000Y-68572095D01*
X158202380Y-68476857D01*
X158202380Y-68238761D01*
X158250000Y-68143523D01*
X158297619Y-68095904D01*
X158392857Y-68048285D01*
X158488095Y-68048285D01*
X158630952Y-68095904D01*
X159202380Y-68667333D01*
X159202380Y-68048285D01*
X112641142Y-91892380D02*
X112307809Y-91416190D01*
X112069714Y-91892380D02*
X112069714Y-90892380D01*
X112450666Y-90892380D01*
X112545904Y-90940000D01*
X112593523Y-90987619D01*
X112641142Y-91082857D01*
X112641142Y-91225714D01*
X112593523Y-91320952D01*
X112545904Y-91368571D01*
X112450666Y-91416190D01*
X112069714Y-91416190D01*
X113593523Y-91892380D02*
X113022095Y-91892380D01*
X113307809Y-91892380D02*
X113307809Y-90892380D01*
X113212571Y-91035238D01*
X113117333Y-91130476D01*
X113022095Y-91178095D01*
X114164952Y-91320952D02*
X114069714Y-91273333D01*
X114022095Y-91225714D01*
X113974476Y-91130476D01*
X113974476Y-91082857D01*
X114022095Y-90987619D01*
X114069714Y-90940000D01*
X114164952Y-90892380D01*
X114355428Y-90892380D01*
X114450666Y-90940000D01*
X114498285Y-90987619D01*
X114545904Y-91082857D01*
X114545904Y-91130476D01*
X114498285Y-91225714D01*
X114450666Y-91273333D01*
X114355428Y-91320952D01*
X114164952Y-91320952D01*
X114069714Y-91368571D01*
X114022095Y-91416190D01*
X113974476Y-91511428D01*
X113974476Y-91701904D01*
X114022095Y-91797142D01*
X114069714Y-91844761D01*
X114164952Y-91892380D01*
X114355428Y-91892380D01*
X114450666Y-91844761D01*
X114498285Y-91797142D01*
X114545904Y-91701904D01*
X114545904Y-91511428D01*
X114498285Y-91416190D01*
X114450666Y-91368571D01*
X114355428Y-91320952D01*
D13*
X163474476Y-103701904D02*
X163474476Y-104349523D01*
X163512571Y-104425714D01*
X163550666Y-104463809D01*
X163626857Y-104501904D01*
X163779238Y-104501904D01*
X163855428Y-104463809D01*
X163893523Y-104425714D01*
X163931619Y-104349523D01*
X163931619Y-103701904D01*
X164236380Y-103701904D02*
X164731619Y-103701904D01*
X164464952Y-104006666D01*
X164579238Y-104006666D01*
X164655428Y-104044761D01*
X164693523Y-104082857D01*
X164731619Y-104159047D01*
X164731619Y-104349523D01*
X164693523Y-104425714D01*
X164655428Y-104463809D01*
X164579238Y-104501904D01*
X164350666Y-104501904D01*
X164274476Y-104463809D01*
X164236380Y-104425714D01*
D10*
X150495095Y-92162380D02*
X150495095Y-92971904D01*
X150542714Y-93067142D01*
X150590333Y-93114761D01*
X150685571Y-93162380D01*
X150876047Y-93162380D01*
X150971285Y-93114761D01*
X151018904Y-93067142D01*
X151066523Y-92971904D01*
X151066523Y-92162380D01*
X151495095Y-92257619D02*
X151542714Y-92210000D01*
X151637952Y-92162380D01*
X151876047Y-92162380D01*
X151971285Y-92210000D01*
X152018904Y-92257619D01*
X152066523Y-92352857D01*
X152066523Y-92448095D01*
X152018904Y-92590952D01*
X151447476Y-93162380D01*
X152066523Y-93162380D01*
X125674380Y-87510857D02*
X125198190Y-87844190D01*
X125674380Y-88082285D02*
X124674380Y-88082285D01*
X124674380Y-87701333D01*
X124722000Y-87606095D01*
X124769619Y-87558476D01*
X124864857Y-87510857D01*
X125007714Y-87510857D01*
X125102952Y-87558476D01*
X125150571Y-87606095D01*
X125198190Y-87701333D01*
X125198190Y-88082285D01*
X125674380Y-86558476D02*
X125674380Y-87129904D01*
X125674380Y-86844190D02*
X124674380Y-86844190D01*
X124817238Y-86939428D01*
X124912476Y-87034666D01*
X124960095Y-87129904D01*
X125674380Y-86082285D02*
X125674380Y-85891809D01*
X125626761Y-85796571D01*
X125579142Y-85748952D01*
X125436285Y-85653714D01*
X125245809Y-85606095D01*
X124864857Y-85606095D01*
X124769619Y-85653714D01*
X124722000Y-85701333D01*
X124674380Y-85796571D01*
X124674380Y-85987047D01*
X124722000Y-86082285D01*
X124769619Y-86129904D01*
X124864857Y-86177523D01*
X125102952Y-86177523D01*
X125198190Y-86129904D01*
X125245809Y-86082285D01*
X125293428Y-85987047D01*
X125293428Y-85796571D01*
X125245809Y-85701333D01*
X125198190Y-85653714D01*
X125102952Y-85606095D01*
X106989142Y-71699380D02*
X106655809Y-71223190D01*
X106417714Y-71699380D02*
X106417714Y-70699380D01*
X106798666Y-70699380D01*
X106893904Y-70747000D01*
X106941523Y-70794619D01*
X106989142Y-70889857D01*
X106989142Y-71032714D01*
X106941523Y-71127952D01*
X106893904Y-71175571D01*
X106798666Y-71223190D01*
X106417714Y-71223190D01*
X107941523Y-71699380D02*
X107370095Y-71699380D01*
X107655809Y-71699380D02*
X107655809Y-70699380D01*
X107560571Y-70842238D01*
X107465333Y-70937476D01*
X107370095Y-70985095D01*
X108893904Y-71699380D02*
X108322476Y-71699380D01*
X108608190Y-71699380D02*
X108608190Y-70699380D01*
X108512952Y-70842238D01*
X108417714Y-70937476D01*
X108322476Y-70985095D01*
X123817142Y-73816380D02*
X123483809Y-73340190D01*
X123245714Y-73816380D02*
X123245714Y-72816380D01*
X123626666Y-72816380D01*
X123721904Y-72864000D01*
X123769523Y-72911619D01*
X123817142Y-73006857D01*
X123817142Y-73149714D01*
X123769523Y-73244952D01*
X123721904Y-73292571D01*
X123626666Y-73340190D01*
X123245714Y-73340190D01*
X124769523Y-73816380D02*
X124198095Y-73816380D01*
X124483809Y-73816380D02*
X124483809Y-72816380D01*
X124388571Y-72959238D01*
X124293333Y-73054476D01*
X124198095Y-73102095D01*
X125388571Y-72816380D02*
X125483809Y-72816380D01*
X125579047Y-72864000D01*
X125626666Y-72911619D01*
X125674285Y-73006857D01*
X125721904Y-73197333D01*
X125721904Y-73435428D01*
X125674285Y-73625904D01*
X125626666Y-73721142D01*
X125579047Y-73768761D01*
X125483809Y-73816380D01*
X125388571Y-73816380D01*
X125293333Y-73768761D01*
X125245714Y-73721142D01*
X125198095Y-73625904D01*
X125150476Y-73435428D01*
X125150476Y-73197333D01*
X125198095Y-73006857D01*
X125245714Y-72911619D01*
X125293333Y-72864000D01*
X125388571Y-72816380D01*
X108815142Y-80081357D02*
X108862761Y-80128976D01*
X108910380Y-80271833D01*
X108910380Y-80367071D01*
X108862761Y-80509928D01*
X108767523Y-80605166D01*
X108672285Y-80652785D01*
X108481809Y-80700404D01*
X108338952Y-80700404D01*
X108148476Y-80652785D01*
X108053238Y-80605166D01*
X107958000Y-80509928D01*
X107910380Y-80367071D01*
X107910380Y-80271833D01*
X107958000Y-80128976D01*
X108005619Y-80081357D01*
X108910380Y-79128976D02*
X108910380Y-79700404D01*
X108910380Y-79414690D02*
X107910380Y-79414690D01*
X108053238Y-79509928D01*
X108148476Y-79605166D01*
X108196095Y-79700404D01*
X108243714Y-78271833D02*
X108910380Y-78271833D01*
X107862761Y-78509928D02*
X108577047Y-78748023D01*
X108577047Y-78128976D01*
X138517333Y-74112380D02*
X138184000Y-73636190D01*
X137945904Y-74112380D02*
X137945904Y-73112380D01*
X138326857Y-73112380D01*
X138422095Y-73160000D01*
X138469714Y-73207619D01*
X138517333Y-73302857D01*
X138517333Y-73445714D01*
X138469714Y-73540952D01*
X138422095Y-73588571D01*
X138326857Y-73636190D01*
X137945904Y-73636190D01*
X139088761Y-73540952D02*
X138993523Y-73493333D01*
X138945904Y-73445714D01*
X138898285Y-73350476D01*
X138898285Y-73302857D01*
X138945904Y-73207619D01*
X138993523Y-73160000D01*
X139088761Y-73112380D01*
X139279238Y-73112380D01*
X139374476Y-73160000D01*
X139422095Y-73207619D01*
X139469714Y-73302857D01*
X139469714Y-73350476D01*
X139422095Y-73445714D01*
X139374476Y-73493333D01*
X139279238Y-73540952D01*
X139088761Y-73540952D01*
X138993523Y-73588571D01*
X138945904Y-73636190D01*
X138898285Y-73731428D01*
X138898285Y-73921904D01*
X138945904Y-74017142D01*
X138993523Y-74064761D01*
X139088761Y-74112380D01*
X139279238Y-74112380D01*
X139374476Y-74064761D01*
X139422095Y-74017142D01*
X139469714Y-73921904D01*
X139469714Y-73731428D01*
X139422095Y-73636190D01*
X139374476Y-73588571D01*
X139279238Y-73540952D01*
X153296880Y-108243666D02*
X152820690Y-108577000D01*
X153296880Y-108815095D02*
X152296880Y-108815095D01*
X152296880Y-108434142D01*
X152344500Y-108338904D01*
X152392119Y-108291285D01*
X152487357Y-108243666D01*
X152630214Y-108243666D01*
X152725452Y-108291285D01*
X152773071Y-108338904D01*
X152820690Y-108434142D01*
X152820690Y-108815095D01*
X152296880Y-107910333D02*
X152296880Y-107243666D01*
X153296880Y-107672238D01*
X121102380Y-106084666D02*
X120626190Y-106418000D01*
X121102380Y-106656095D02*
X120102380Y-106656095D01*
X120102380Y-106275142D01*
X120150000Y-106179904D01*
X120197619Y-106132285D01*
X120292857Y-106084666D01*
X120435714Y-106084666D01*
X120530952Y-106132285D01*
X120578571Y-106179904D01*
X120626190Y-106275142D01*
X120626190Y-106656095D01*
X120102380Y-105227523D02*
X120102380Y-105418000D01*
X120150000Y-105513238D01*
X120197619Y-105560857D01*
X120340476Y-105656095D01*
X120530952Y-105703714D01*
X120911904Y-105703714D01*
X121007142Y-105656095D01*
X121054761Y-105608476D01*
X121102380Y-105513238D01*
X121102380Y-105322761D01*
X121054761Y-105227523D01*
X121007142Y-105179904D01*
X120911904Y-105132285D01*
X120673809Y-105132285D01*
X120578571Y-105179904D01*
X120530952Y-105227523D01*
X120483333Y-105322761D01*
X120483333Y-105513238D01*
X120530952Y-105608476D01*
X120578571Y-105656095D01*
X120673809Y-105703714D01*
X121570761Y-98972619D02*
X121475523Y-98925000D01*
X121380285Y-98829761D01*
X121237428Y-98686904D01*
X121142190Y-98639285D01*
X121046952Y-98639285D01*
X121094571Y-98877380D02*
X120999333Y-98829761D01*
X120904095Y-98734523D01*
X120856476Y-98544047D01*
X120856476Y-98210714D01*
X120904095Y-98020238D01*
X120999333Y-97925000D01*
X121094571Y-97877380D01*
X121285047Y-97877380D01*
X121380285Y-97925000D01*
X121475523Y-98020238D01*
X121523142Y-98210714D01*
X121523142Y-98544047D01*
X121475523Y-98734523D01*
X121380285Y-98829761D01*
X121285047Y-98877380D01*
X121094571Y-98877380D01*
X122475523Y-98877380D02*
X121904095Y-98877380D01*
X122189809Y-98877380D02*
X122189809Y-97877380D01*
X122094571Y-98020238D01*
X121999333Y-98115476D01*
X121904095Y-98163095D01*
X119578380Y-90050857D02*
X119102190Y-90384190D01*
X119578380Y-90622285D02*
X118578380Y-90622285D01*
X118578380Y-90241333D01*
X118626000Y-90146095D01*
X118673619Y-90098476D01*
X118768857Y-90050857D01*
X118911714Y-90050857D01*
X119006952Y-90098476D01*
X119054571Y-90146095D01*
X119102190Y-90241333D01*
X119102190Y-90622285D01*
X119578380Y-89098476D02*
X119578380Y-89669904D01*
X119578380Y-89384190D02*
X118578380Y-89384190D01*
X118721238Y-89479428D01*
X118816476Y-89574666D01*
X118864095Y-89669904D01*
X118578380Y-88765142D02*
X118578380Y-88098476D01*
X119578380Y-88527047D01*
X112678380Y-74874357D02*
X112202190Y-75207690D01*
X112678380Y-75445785D02*
X111678380Y-75445785D01*
X111678380Y-75064833D01*
X111726000Y-74969595D01*
X111773619Y-74921976D01*
X111868857Y-74874357D01*
X112011714Y-74874357D01*
X112106952Y-74921976D01*
X112154571Y-74969595D01*
X112202190Y-75064833D01*
X112202190Y-75445785D01*
X112678380Y-73921976D02*
X112678380Y-74493404D01*
X112678380Y-74207690D02*
X111678380Y-74207690D01*
X111821238Y-74302928D01*
X111916476Y-74398166D01*
X111964095Y-74493404D01*
X111678380Y-73588642D02*
X111678380Y-72969595D01*
X112059333Y-73302928D01*
X112059333Y-73160071D01*
X112106952Y-73064833D01*
X112154571Y-73017214D01*
X112249809Y-72969595D01*
X112487904Y-72969595D01*
X112583142Y-73017214D01*
X112630761Y-73064833D01*
X112678380Y-73160071D01*
X112678380Y-73445785D01*
X112630761Y-73541023D01*
X112583142Y-73588642D01*
X138517333Y-83415142D02*
X138469714Y-83462761D01*
X138326857Y-83510380D01*
X138231619Y-83510380D01*
X138088761Y-83462761D01*
X137993523Y-83367523D01*
X137945904Y-83272285D01*
X137898285Y-83081809D01*
X137898285Y-82938952D01*
X137945904Y-82748476D01*
X137993523Y-82653238D01*
X138088761Y-82558000D01*
X138231619Y-82510380D01*
X138326857Y-82510380D01*
X138469714Y-82558000D01*
X138517333Y-82605619D01*
X138993523Y-83510380D02*
X139184000Y-83510380D01*
X139279238Y-83462761D01*
X139326857Y-83415142D01*
X139422095Y-83272285D01*
X139469714Y-83081809D01*
X139469714Y-82700857D01*
X139422095Y-82605619D01*
X139374476Y-82558000D01*
X139279238Y-82510380D01*
X139088761Y-82510380D01*
X138993523Y-82558000D01*
X138945904Y-82605619D01*
X138898285Y-82700857D01*
X138898285Y-82938952D01*
X138945904Y-83034190D01*
X138993523Y-83081809D01*
X139088761Y-83129428D01*
X139279238Y-83129428D01*
X139374476Y-83081809D01*
X139422095Y-83034190D01*
X139469714Y-82938952D01*
X180478333Y-72694942D02*
X180430714Y-72742561D01*
X180287857Y-72790180D01*
X180192619Y-72790180D01*
X180049761Y-72742561D01*
X179954523Y-72647323D01*
X179906904Y-72552085D01*
X179859285Y-72361609D01*
X179859285Y-72218752D01*
X179906904Y-72028276D01*
X179954523Y-71933038D01*
X180049761Y-71837800D01*
X180192619Y-71790180D01*
X180287857Y-71790180D01*
X180430714Y-71837800D01*
X180478333Y-71885419D01*
X181430714Y-72790180D02*
X180859285Y-72790180D01*
X181145000Y-72790180D02*
X181145000Y-71790180D01*
X181049761Y-71933038D01*
X180954523Y-72028276D01*
X180859285Y-72075895D01*
X128270095Y-77578380D02*
X128270095Y-78387904D01*
X128317714Y-78483142D01*
X128365333Y-78530761D01*
X128460571Y-78578380D01*
X128651047Y-78578380D01*
X128746285Y-78530761D01*
X128793904Y-78483142D01*
X128841523Y-78387904D01*
X128841523Y-77578380D01*
X129746285Y-77578380D02*
X129555809Y-77578380D01*
X129460571Y-77626000D01*
X129412952Y-77673619D01*
X129317714Y-77816476D01*
X129270095Y-78006952D01*
X129270095Y-78387904D01*
X129317714Y-78483142D01*
X129365333Y-78530761D01*
X129460571Y-78578380D01*
X129651047Y-78578380D01*
X129746285Y-78530761D01*
X129793904Y-78483142D01*
X129841523Y-78387904D01*
X129841523Y-78149809D01*
X129793904Y-78054571D01*
X129746285Y-78006952D01*
X129651047Y-77959333D01*
X129460571Y-77959333D01*
X129365333Y-78006952D01*
X129317714Y-78054571D01*
X129270095Y-78149809D01*
X115435142Y-93670380D02*
X115101809Y-93194190D01*
X114863714Y-93670380D02*
X114863714Y-92670380D01*
X115244666Y-92670380D01*
X115339904Y-92718000D01*
X115387523Y-92765619D01*
X115435142Y-92860857D01*
X115435142Y-93003714D01*
X115387523Y-93098952D01*
X115339904Y-93146571D01*
X115244666Y-93194190D01*
X114863714Y-93194190D01*
X116387523Y-93670380D02*
X115816095Y-93670380D01*
X116101809Y-93670380D02*
X116101809Y-92670380D01*
X116006571Y-92813238D01*
X115911333Y-92908476D01*
X115816095Y-92956095D01*
X116768476Y-92765619D02*
X116816095Y-92718000D01*
X116911333Y-92670380D01*
X117149428Y-92670380D01*
X117244666Y-92718000D01*
X117292285Y-92765619D01*
X117339904Y-92860857D01*
X117339904Y-92956095D01*
X117292285Y-93098952D01*
X116720857Y-93670380D01*
X117339904Y-93670380D01*
X144264142Y-83415142D02*
X144216523Y-83462761D01*
X144073666Y-83510380D01*
X143978428Y-83510380D01*
X143835571Y-83462761D01*
X143740333Y-83367523D01*
X143692714Y-83272285D01*
X143645095Y-83081809D01*
X143645095Y-82938952D01*
X143692714Y-82748476D01*
X143740333Y-82653238D01*
X143835571Y-82558000D01*
X143978428Y-82510380D01*
X144073666Y-82510380D01*
X144216523Y-82558000D01*
X144264142Y-82605619D01*
X145216523Y-83510380D02*
X144645095Y-83510380D01*
X144930809Y-83510380D02*
X144930809Y-82510380D01*
X144835571Y-82653238D01*
X144740333Y-82748476D01*
X144645095Y-82796095D01*
X145835571Y-82510380D02*
X145930809Y-82510380D01*
X146026047Y-82558000D01*
X146073666Y-82605619D01*
X146121285Y-82700857D01*
X146168904Y-82891333D01*
X146168904Y-83129428D01*
X146121285Y-83319904D01*
X146073666Y-83415142D01*
X146026047Y-83462761D01*
X145930809Y-83510380D01*
X145835571Y-83510380D01*
X145740333Y-83462761D01*
X145692714Y-83415142D01*
X145645095Y-83319904D01*
X145597476Y-83129428D01*
X145597476Y-82891333D01*
X145645095Y-82700857D01*
X145692714Y-82605619D01*
X145740333Y-82558000D01*
X145835571Y-82510380D01*
X102576380Y-82121333D02*
X103290666Y-82121333D01*
X103433523Y-82168952D01*
X103528761Y-82264190D01*
X103576380Y-82407047D01*
X103576380Y-82502285D01*
X102909714Y-81216571D02*
X103576380Y-81216571D01*
X102528761Y-81454666D02*
X103243047Y-81692761D01*
X103243047Y-81073714D01*
X124912380Y-106120666D02*
X124436190Y-106454000D01*
X124912380Y-106692095D02*
X123912380Y-106692095D01*
X123912380Y-106311142D01*
X123960000Y-106215904D01*
X124007619Y-106168285D01*
X124102857Y-106120666D01*
X124245714Y-106120666D01*
X124340952Y-106168285D01*
X124388571Y-106215904D01*
X124436190Y-106311142D01*
X124436190Y-106692095D01*
X123912380Y-105215904D02*
X123912380Y-105692095D01*
X124388571Y-105739714D01*
X124340952Y-105692095D01*
X124293333Y-105596857D01*
X124293333Y-105358761D01*
X124340952Y-105263523D01*
X124388571Y-105215904D01*
X124483809Y-105168285D01*
X124721904Y-105168285D01*
X124817142Y-105215904D01*
X124864761Y-105263523D01*
X124912380Y-105358761D01*
X124912380Y-105596857D01*
X124864761Y-105692095D01*
X124817142Y-105739714D01*
X141692333Y-79573380D02*
X141359000Y-79097190D01*
X141120904Y-79573380D02*
X141120904Y-78573380D01*
X141501857Y-78573380D01*
X141597095Y-78621000D01*
X141644714Y-78668619D01*
X141692333Y-78763857D01*
X141692333Y-78906714D01*
X141644714Y-79001952D01*
X141597095Y-79049571D01*
X141501857Y-79097190D01*
X141120904Y-79097190D01*
X142025666Y-78573380D02*
X142644714Y-78573380D01*
X142311380Y-78954333D01*
X142454238Y-78954333D01*
X142549476Y-79001952D01*
X142597095Y-79049571D01*
X142644714Y-79144809D01*
X142644714Y-79382904D01*
X142597095Y-79478142D01*
X142549476Y-79525761D01*
X142454238Y-79573380D01*
X142168523Y-79573380D01*
X142073285Y-79525761D01*
X142025666Y-79478142D01*
X151471333Y-77414380D02*
X151138000Y-76938190D01*
X150899904Y-77414380D02*
X150899904Y-76414380D01*
X151280857Y-76414380D01*
X151376095Y-76462000D01*
X151423714Y-76509619D01*
X151471333Y-76604857D01*
X151471333Y-76747714D01*
X151423714Y-76842952D01*
X151376095Y-76890571D01*
X151280857Y-76938190D01*
X150899904Y-76938190D01*
X152423714Y-77414380D02*
X151852285Y-77414380D01*
X152138000Y-77414380D02*
X152138000Y-76414380D01*
X152042761Y-76557238D01*
X151947523Y-76652476D01*
X151852285Y-76700095D01*
X121499333Y-93670380D02*
X121166000Y-93194190D01*
X120927904Y-93670380D02*
X120927904Y-92670380D01*
X121308857Y-92670380D01*
X121404095Y-92718000D01*
X121451714Y-92765619D01*
X121499333Y-92860857D01*
X121499333Y-93003714D01*
X121451714Y-93098952D01*
X121404095Y-93146571D01*
X121308857Y-93194190D01*
X120927904Y-93194190D01*
X122356476Y-93003714D02*
X122356476Y-93670380D01*
X122118380Y-92622761D02*
X121880285Y-93337047D01*
X122499333Y-93337047D01*
X110440380Y-69064095D02*
X109440380Y-69064095D01*
X109440380Y-68826000D01*
X109488000Y-68683142D01*
X109583238Y-68587904D01*
X109678476Y-68540285D01*
X109868952Y-68492666D01*
X110011809Y-68492666D01*
X110202285Y-68540285D01*
X110297523Y-68587904D01*
X110392761Y-68683142D01*
X110440380Y-68826000D01*
X110440380Y-69064095D01*
X109440380Y-67635523D02*
X109440380Y-67826000D01*
X109488000Y-67921238D01*
X109535619Y-67968857D01*
X109678476Y-68064095D01*
X109868952Y-68111714D01*
X110249904Y-68111714D01*
X110345142Y-68064095D01*
X110392761Y-68016476D01*
X110440380Y-67921238D01*
X110440380Y-67730761D01*
X110392761Y-67635523D01*
X110345142Y-67587904D01*
X110249904Y-67540285D01*
X110011809Y-67540285D01*
X109916571Y-67587904D01*
X109868952Y-67635523D01*
X109821333Y-67730761D01*
X109821333Y-67921238D01*
X109868952Y-68016476D01*
X109916571Y-68064095D01*
X110011809Y-68111714D01*
X115012380Y-69064095D02*
X114012380Y-69064095D01*
X114012380Y-68826000D01*
X114060000Y-68683142D01*
X114155238Y-68587904D01*
X114250476Y-68540285D01*
X114440952Y-68492666D01*
X114583809Y-68492666D01*
X114774285Y-68540285D01*
X114869523Y-68587904D01*
X114964761Y-68683142D01*
X115012380Y-68826000D01*
X115012380Y-69064095D01*
X114012380Y-67587904D02*
X114012380Y-68064095D01*
X114488571Y-68111714D01*
X114440952Y-68064095D01*
X114393333Y-67968857D01*
X114393333Y-67730761D01*
X114440952Y-67635523D01*
X114488571Y-67587904D01*
X114583809Y-67540285D01*
X114821904Y-67540285D01*
X114917142Y-67587904D01*
X114964761Y-67635523D01*
X115012380Y-67730761D01*
X115012380Y-67968857D01*
X114964761Y-68064095D01*
X114917142Y-68111714D01*
X119483142Y-82176857D02*
X119530761Y-82224476D01*
X119578380Y-82367333D01*
X119578380Y-82462571D01*
X119530761Y-82605428D01*
X119435523Y-82700666D01*
X119340285Y-82748285D01*
X119149809Y-82795904D01*
X119006952Y-82795904D01*
X118816476Y-82748285D01*
X118721238Y-82700666D01*
X118626000Y-82605428D01*
X118578380Y-82462571D01*
X118578380Y-82367333D01*
X118626000Y-82224476D01*
X118673619Y-82176857D01*
X119578380Y-81224476D02*
X119578380Y-81795904D01*
X119578380Y-81510190D02*
X118578380Y-81510190D01*
X118721238Y-81605428D01*
X118816476Y-81700666D01*
X118864095Y-81795904D01*
X118673619Y-80843523D02*
X118626000Y-80795904D01*
X118578380Y-80700666D01*
X118578380Y-80462571D01*
X118626000Y-80367333D01*
X118673619Y-80319714D01*
X118768857Y-80272095D01*
X118864095Y-80272095D01*
X119006952Y-80319714D01*
X119578380Y-80891142D01*
X119578380Y-80272095D01*
X148588904Y-73858380D02*
X148588904Y-72858380D01*
X148827000Y-72858380D01*
X148969857Y-72906000D01*
X149065095Y-73001238D01*
X149112714Y-73096476D01*
X149160333Y-73286952D01*
X149160333Y-73429809D01*
X149112714Y-73620285D01*
X149065095Y-73715523D01*
X148969857Y-73810761D01*
X148827000Y-73858380D01*
X148588904Y-73858380D01*
X150112714Y-73858380D02*
X149541285Y-73858380D01*
X149827000Y-73858380D02*
X149827000Y-72858380D01*
X149731761Y-73001238D01*
X149636523Y-73096476D01*
X149541285Y-73144095D01*
X145255095Y-73886380D02*
X145255095Y-72886380D01*
X145826523Y-73886380D02*
X145397952Y-73314952D01*
X145826523Y-72886380D02*
X145255095Y-73457809D01*
X144295904Y-67508380D02*
X144295904Y-66508380D01*
X144534000Y-66508380D01*
X144676857Y-66556000D01*
X144772095Y-66651238D01*
X144819714Y-66746476D01*
X144867333Y-66936952D01*
X144867333Y-67079809D01*
X144819714Y-67270285D01*
X144772095Y-67365523D01*
X144676857Y-67460761D01*
X144534000Y-67508380D01*
X144295904Y-67508380D01*
X145248285Y-66603619D02*
X145295904Y-66556000D01*
X145391142Y-66508380D01*
X145629238Y-66508380D01*
X145724476Y-66556000D01*
X145772095Y-66603619D01*
X145819714Y-66698857D01*
X145819714Y-66794095D01*
X145772095Y-66936952D01*
X145200666Y-67508380D01*
X145819714Y-67508380D01*
X136291904Y-67508380D02*
X136291904Y-66508380D01*
X136530000Y-66508380D01*
X136672857Y-66556000D01*
X136768095Y-66651238D01*
X136815714Y-66746476D01*
X136863333Y-66936952D01*
X136863333Y-67079809D01*
X136815714Y-67270285D01*
X136768095Y-67365523D01*
X136672857Y-67460761D01*
X136530000Y-67508380D01*
X136291904Y-67508380D01*
X137196666Y-66508380D02*
X137815714Y-66508380D01*
X137482380Y-66889333D01*
X137625238Y-66889333D01*
X137720476Y-66936952D01*
X137768095Y-66984571D01*
X137815714Y-67079809D01*
X137815714Y-67317904D01*
X137768095Y-67413142D01*
X137720476Y-67460761D01*
X137625238Y-67508380D01*
X137339523Y-67508380D01*
X137244285Y-67460761D01*
X137196666Y-67413142D01*
X128293904Y-67508380D02*
X128293904Y-66508380D01*
X128532000Y-66508380D01*
X128674857Y-66556000D01*
X128770095Y-66651238D01*
X128817714Y-66746476D01*
X128865333Y-66936952D01*
X128865333Y-67079809D01*
X128817714Y-67270285D01*
X128770095Y-67365523D01*
X128674857Y-67460761D01*
X128532000Y-67508380D01*
X128293904Y-67508380D01*
X129722476Y-66841714D02*
X129722476Y-67508380D01*
X129484380Y-66460761D02*
X129246285Y-67175047D01*
X129865333Y-67175047D01*
X180721142Y-81573666D02*
X181197333Y-81573666D01*
X180625904Y-81859380D02*
X180959238Y-80859380D01*
X181292571Y-81859380D01*
X181625904Y-81859380D02*
X181625904Y-80859380D01*
X182197333Y-81859380D01*
X182197333Y-80859380D01*
X182530666Y-80859380D02*
X183102095Y-80859380D01*
X182816380Y-81859380D02*
X182816380Y-80859380D01*
X136866380Y-107521333D02*
X137580666Y-107521333D01*
X137723523Y-107568952D01*
X137818761Y-107664190D01*
X137866380Y-107807047D01*
X137866380Y-107902285D01*
X136961619Y-107092761D02*
X136914000Y-107045142D01*
X136866380Y-106949904D01*
X136866380Y-106711809D01*
X136914000Y-106616571D01*
X136961619Y-106568952D01*
X137056857Y-106521333D01*
X137152095Y-106521333D01*
X137294952Y-106568952D01*
X137866380Y-107140380D01*
X137866380Y-106521333D01*
X160956666Y-108418380D02*
X160956666Y-109132666D01*
X160909047Y-109275523D01*
X160813809Y-109370761D01*
X160670952Y-109418380D01*
X160575714Y-109418380D01*
X161956666Y-109418380D02*
X161385238Y-109418380D01*
X161670952Y-109418380D02*
X161670952Y-108418380D01*
X161575714Y-108561238D01*
X161480476Y-108656476D01*
X161385238Y-108704095D01*
X115220761Y-104433619D02*
X115125523Y-104386000D01*
X115030285Y-104290761D01*
X114887428Y-104147904D01*
X114792190Y-104100285D01*
X114696952Y-104100285D01*
X114744571Y-104338380D02*
X114649333Y-104290761D01*
X114554095Y-104195523D01*
X114506476Y-104005047D01*
X114506476Y-103671714D01*
X114554095Y-103481238D01*
X114649333Y-103386000D01*
X114744571Y-103338380D01*
X114935047Y-103338380D01*
X115030285Y-103386000D01*
X115125523Y-103481238D01*
X115173142Y-103671714D01*
X115173142Y-104005047D01*
X115125523Y-104195523D01*
X115030285Y-104290761D01*
X114935047Y-104338380D01*
X114744571Y-104338380D01*
X115506476Y-103338380D02*
X116125523Y-103338380D01*
X115792190Y-103719333D01*
X115935047Y-103719333D01*
X116030285Y-103766952D01*
X116077904Y-103814571D01*
X116125523Y-103909809D01*
X116125523Y-104147904D01*
X116077904Y-104243142D01*
X116030285Y-104290761D01*
X115935047Y-104338380D01*
X115649333Y-104338380D01*
X115554095Y-104290761D01*
X115506476Y-104243142D01*
X108148380Y-102750857D02*
X107672190Y-103084190D01*
X108148380Y-103322285D02*
X107148380Y-103322285D01*
X107148380Y-102941333D01*
X107196000Y-102846095D01*
X107243619Y-102798476D01*
X107338857Y-102750857D01*
X107481714Y-102750857D01*
X107576952Y-102798476D01*
X107624571Y-102846095D01*
X107672190Y-102941333D01*
X107672190Y-103322285D01*
X108148380Y-101798476D02*
X108148380Y-102369904D01*
X108148380Y-102084190D02*
X107148380Y-102084190D01*
X107291238Y-102179428D01*
X107386476Y-102274666D01*
X107434095Y-102369904D01*
X107148380Y-100893714D02*
X107148380Y-101369904D01*
X107624571Y-101417523D01*
X107576952Y-101369904D01*
X107529333Y-101274666D01*
X107529333Y-101036571D01*
X107576952Y-100941333D01*
X107624571Y-100893714D01*
X107719809Y-100846095D01*
X107957904Y-100846095D01*
X108053142Y-100893714D01*
X108100761Y-100941333D01*
X108148380Y-101036571D01*
X108148380Y-101274666D01*
X108100761Y-101369904D01*
X108053142Y-101417523D01*
X116530380Y-74874357D02*
X116054190Y-75207690D01*
X116530380Y-75445785D02*
X115530380Y-75445785D01*
X115530380Y-75064833D01*
X115578000Y-74969595D01*
X115625619Y-74921976D01*
X115720857Y-74874357D01*
X115863714Y-74874357D01*
X115958952Y-74921976D01*
X116006571Y-74969595D01*
X116054190Y-75064833D01*
X116054190Y-75445785D01*
X116530380Y-73921976D02*
X116530380Y-74493404D01*
X116530380Y-74207690D02*
X115530380Y-74207690D01*
X115673238Y-74302928D01*
X115768476Y-74398166D01*
X115816095Y-74493404D01*
X115530380Y-73064833D02*
X115530380Y-73255309D01*
X115578000Y-73350547D01*
X115625619Y-73398166D01*
X115768476Y-73493404D01*
X115958952Y-73541023D01*
X116339904Y-73541023D01*
X116435142Y-73493404D01*
X116482761Y-73445785D01*
X116530380Y-73350547D01*
X116530380Y-73160071D01*
X116482761Y-73064833D01*
X116435142Y-73017214D01*
X116339904Y-72969595D01*
X116101809Y-72969595D01*
X116006571Y-73017214D01*
X115958952Y-73064833D01*
X115911333Y-73160071D01*
X115911333Y-73350547D01*
X115958952Y-73445785D01*
X116006571Y-73493404D01*
X116101809Y-73541023D01*
X108910380Y-87002857D02*
X108434190Y-87336190D01*
X108910380Y-87574285D02*
X107910380Y-87574285D01*
X107910380Y-87193333D01*
X107958000Y-87098095D01*
X108005619Y-87050476D01*
X108100857Y-87002857D01*
X108243714Y-87002857D01*
X108338952Y-87050476D01*
X108386571Y-87098095D01*
X108434190Y-87193333D01*
X108434190Y-87574285D01*
X108910380Y-86050476D02*
X108910380Y-86621904D01*
X108910380Y-86336190D02*
X107910380Y-86336190D01*
X108053238Y-86431428D01*
X108148476Y-86526666D01*
X108196095Y-86621904D01*
X108243714Y-85193333D02*
X108910380Y-85193333D01*
X107862761Y-85431428D02*
X108577047Y-85669523D01*
X108577047Y-85050476D01*
X149090666Y-71270761D02*
X149233523Y-71318380D01*
X149471619Y-71318380D01*
X149566857Y-71270761D01*
X149614476Y-71223142D01*
X149662095Y-71127904D01*
X149662095Y-71032666D01*
X149614476Y-70937428D01*
X149566857Y-70889809D01*
X149471619Y-70842190D01*
X149281142Y-70794571D01*
X149185904Y-70746952D01*
X149138285Y-70699333D01*
X149090666Y-70604095D01*
X149090666Y-70508857D01*
X149138285Y-70413619D01*
X149185904Y-70366000D01*
X149281142Y-70318380D01*
X149519238Y-70318380D01*
X149662095Y-70366000D01*
X149995428Y-70318380D02*
X150233523Y-71318380D01*
X150424000Y-70604095D01*
X150614476Y-71318380D01*
X150852571Y-70318380D01*
X151185904Y-70413619D02*
X151233523Y-70366000D01*
X151328761Y-70318380D01*
X151566857Y-70318380D01*
X151662095Y-70366000D01*
X151709714Y-70413619D01*
X151757333Y-70508857D01*
X151757333Y-70604095D01*
X151709714Y-70746952D01*
X151138285Y-71318380D01*
X151757333Y-71318380D01*
X174955095Y-77482580D02*
X174955095Y-78292104D01*
X175002714Y-78387342D01*
X175050333Y-78434961D01*
X175145571Y-78482580D01*
X175336047Y-78482580D01*
X175431285Y-78434961D01*
X175478904Y-78387342D01*
X175526523Y-78292104D01*
X175526523Y-77482580D01*
X176526523Y-78482580D02*
X175955095Y-78482580D01*
X176240809Y-78482580D02*
X176240809Y-77482580D01*
X176145571Y-77625438D01*
X176050333Y-77720676D01*
X175955095Y-77768295D01*
X111622380Y-82803904D02*
X112431904Y-82803904D01*
X112527142Y-82756285D01*
X112574761Y-82708666D01*
X112622380Y-82613428D01*
X112622380Y-82422952D01*
X112574761Y-82327714D01*
X112527142Y-82280095D01*
X112431904Y-82232476D01*
X111622380Y-82232476D01*
X111622380Y-81280095D02*
X111622380Y-81756285D01*
X112098571Y-81803904D01*
X112050952Y-81756285D01*
X112003333Y-81661047D01*
X112003333Y-81422952D01*
X112050952Y-81327714D01*
X112098571Y-81280095D01*
X112193809Y-81232476D01*
X112431904Y-81232476D01*
X112527142Y-81280095D01*
X112574761Y-81327714D01*
X112622380Y-81422952D01*
X112622380Y-81661047D01*
X112574761Y-81756285D01*
X112527142Y-81803904D01*
X111212380Y-101853904D02*
X112021904Y-101853904D01*
X112117142Y-101806285D01*
X112164761Y-101758666D01*
X112212380Y-101663428D01*
X112212380Y-101472952D01*
X112164761Y-101377714D01*
X112117142Y-101330095D01*
X112021904Y-101282476D01*
X111212380Y-101282476D01*
X111545714Y-100377714D02*
X112212380Y-100377714D01*
X111164761Y-100615809D02*
X111879047Y-100853904D01*
X111879047Y-100234857D01*
X133508809Y-91543190D02*
X133508809Y-92019380D01*
X133175476Y-91019380D02*
X133508809Y-91543190D01*
X133842142Y-91019380D01*
X134699285Y-92019380D02*
X134127857Y-92019380D01*
X134413571Y-92019380D02*
X134413571Y-91019380D01*
X134318333Y-91162238D01*
X134223095Y-91257476D01*
X134127857Y-91305095D01*
M02*
