M48
; DRILL file {KiCad 5.1.0-unknown-078fdb9~94~ubuntu16.04.1} date nie, 21 kwi 2019, 00:44:30
; FORMAT={-:-/ absolute / inch / decimal}
; #@! TF.CreationDate,2019-04-21T00:44:30+02:00
; #@! TF.GenerationSoftware,Kicad,Pcbnew,5.1.0-unknown-078fdb9~94~ubuntu16.04.1
; #@! TF.FileFunction,Plated,1,2,PTH
FMAT,2
INCH
T1C0.0079
T2C0.0157
T3C0.0197
T4C0.0217
T5C0.0236
T6C0.0295
T7C0.0300
T8C0.0315
T9C0.0335
T10C0.0354
T11C0.0394
T12C0.0400
T13C0.0472
T14C0.0512
T15C0.1063
%
G90
G05
T1
X4.4988Y-3.1924
X4.4988Y-3.2676
X4.55Y-3.1924
X4.55Y-3.2676
X4.6012Y-3.1924
X4.6012Y-3.2676
T2
X4.48Y-4.135
X4.5763Y-3.9442
X4.62Y-3.3938
X4.6694Y-3.5158
X4.735Y-2.685
X4.745Y-2.765
X4.755Y-2.85
X4.83Y-3.22
X4.83Y-3.33
X4.85Y-3.58
X4.88Y-3.62
X4.9082Y-4.0518
X4.9539Y-3.8539
X5.0Y-3.95
X5.03Y-3.0
X5.05Y-3.9
X5.205Y-3.735
X5.26Y-3.785
X5.2609Y-3.0308
X5.34Y-3.93
X5.37Y-4.04
X5.375Y-3.775
X5.38Y-3.84
X5.3857Y-4.1407
X5.395Y-3.105
X5.4154Y-3.9632
X5.42Y-3.74
X5.49Y-4.22
X5.4937Y-4.0361
X5.5298Y-3.9894
X5.5628Y-3.936
X5.6205Y-3.894
X5.73Y-3.8
X5.765Y-4.125
X5.83Y-4.07
X5.84Y-3.07
X5.87Y-4.12
X5.88Y-3.12
X5.92Y-3.17
X6.04Y-3.97
X6.1Y-3.02
X6.16Y-2.995
X6.8376Y-2.96
X6.9Y-3.04
X6.92Y-2.96
X6.94Y-2.64
X7.1Y-3.78
X7.1Y-3.86
X7.1Y-3.94
X7.1Y-4.02
X7.18Y-2.86
X7.18Y-2.98
T3
X3.9749Y-2.6772
X3.9982Y-2.6208
X3.9982Y-2.7335
X4.0546Y-2.5974
X4.0546Y-2.7569
X4.111Y-2.6208
X4.111Y-2.7335
X4.1343Y-2.6772
X7.0851Y-4.2126
X7.1085Y-4.1562
X7.1085Y-4.269
X7.1648Y-4.1329
X7.1648Y-4.2923
X7.2212Y-4.1562
X7.2212Y-4.269
X7.2446Y-4.2126
X7.0803Y-2.68
X7.1036Y-2.6236
X7.1036Y-2.7364
X7.16Y-2.6003
X7.16Y-2.7597
X7.2164Y-2.6236
X7.2164Y-2.7364
X7.2397Y-2.68
X3.9749Y-4.2126
X3.9982Y-4.1562
X3.9982Y-4.269
X4.0546Y-4.1329
X4.0546Y-4.2923
X4.111Y-4.1562
X4.111Y-4.269
X4.1343Y-4.2126
T5
X4.421Y-3.062
X4.6782Y-3.3718
T6
X6.06Y-2.93
X6.06Y-3.23
T7
X6.5354Y-3.1821
X6.5354Y-3.2821
X6.6354Y-3.1821
X6.6354Y-3.2821
X6.7354Y-3.1821
X6.7354Y-3.2821
X6.8354Y-3.1821
X6.8354Y-3.2821
T8
X7.108Y-3.0836
X7.108Y-3.1821
X5.39Y-3.52
X5.5821Y-3.52
X6.34Y-3.5007
X6.34Y-4.1739
X6.4187Y-3.5007
X6.4187Y-4.1739
X6.4975Y-3.5007
X6.4975Y-4.1739
X6.5762Y-3.5007
X6.5762Y-4.1739
X6.655Y-3.5007
X6.655Y-4.1739
X6.7337Y-3.5007
X6.7337Y-4.1739
X6.8124Y-3.5007
X6.8124Y-4.1739
X6.8912Y-3.5007
X6.8912Y-4.1739
T10
X5.5601Y-2.6621
X5.5601Y-2.7621
X5.245Y-2.6621
X5.245Y-2.7621
X4.9301Y-2.6621
X4.9301Y-2.7621
T11
X6.12Y-3.67
X6.12Y-3.77
X6.12Y-3.87
X6.12Y-3.97
X6.12Y-4.07
X6.12Y-4.17
X4.11Y-3.62
X4.11Y-3.7184
X6.04Y-3.42
X6.14Y-3.42
X5.8336Y-2.6916
X6.0108Y-2.6916
T12
X6.588Y-2.7321
X6.588Y-2.8321
X6.688Y-2.7321
X6.688Y-2.8321
X6.788Y-2.7321
X6.788Y-2.8321
T13
X7.088Y-3.6021
T14
X5.7844Y-2.79
X6.06Y-2.79
T15
X4.0546Y-2.6772
X7.1648Y-4.2126
X7.16Y-2.68
X4.0546Y-4.2126
T4
G00X4.036Y-3.0674
M15
G01X4.0104Y-3.0674
M16
G05
G00X4.036Y-3.3726
M15
G01X4.0104Y-3.3726
M16
G05
T9
G00X4.1837Y-3.0733
M15
G01X4.162Y-3.0733
M16
G05
G00X4.1837Y-3.3667
M15
G01X4.162Y-3.3667
M16
G05
T0
M30
