G04 #@! TF.GenerationSoftware,KiCad,Pcbnew,(6.0.0-rc1-dev-1491-g0a4812be0)*
G04 #@! TF.CreationDate,2019-04-18T08:34:58+02:00
G04 #@! TF.ProjectId,mySensors_door_switch,6d795365-6e73-46f7-9273-5f646f6f725f,1.2*
G04 #@! TF.SameCoordinates,Original*
G04 #@! TF.FileFunction,Soldermask,Bot*
G04 #@! TF.FilePolarity,Negative*
%FSLAX46Y46*%
G04 Gerber Fmt 4.6, Leading zero omitted, Abs format (unit mm)*
G04 Created by KiCad (PCBNEW (6.0.0-rc1-dev-1491-g0a4812be0)) date 2019-04-18 08:34:58*
%MOMM*%
%LPD*%
G04 APERTURE LIST*
%ADD10C,0.100000*%
G04 APERTURE END LIST*
D10*
X155067000Y-70866000D02*
G75*
G03X155067000Y-70866000I-1143000J0D01*
G01*
X149063000Y-68366000D02*
G75*
G03X149063000Y-68366000I-889000J0D01*
G01*
X153563000Y-68366000D02*
G75*
G03X153563000Y-68366000I-889000J0D01*
G01*
X148067000Y-70866000D02*
G75*
G03X148067000Y-70866000I-1143000J0D01*
G01*
G36*
X182408771Y-104279000D02*
G01*
X182789437Y-104354719D01*
X183290087Y-104562095D01*
X183477774Y-104687504D01*
X183740663Y-104863161D01*
X184123839Y-105246337D01*
X184123841Y-105246340D01*
X184424905Y-105696913D01*
X184632281Y-106197563D01*
X184670879Y-106391608D01*
X184738000Y-106729049D01*
X184738000Y-107270951D01*
X184702186Y-107451000D01*
X184632281Y-107802437D01*
X184424905Y-108303087D01*
X184134636Y-108737504D01*
X184123839Y-108753663D01*
X183740663Y-109136839D01*
X183740660Y-109136841D01*
X183290087Y-109437905D01*
X182789437Y-109645281D01*
X182523693Y-109698141D01*
X182257951Y-109751000D01*
X181716049Y-109751000D01*
X181450307Y-109698141D01*
X181184563Y-109645281D01*
X180683913Y-109437905D01*
X180233340Y-109136841D01*
X180233337Y-109136839D01*
X179850161Y-108753663D01*
X179839364Y-108737504D01*
X179549095Y-108303087D01*
X179341719Y-107802437D01*
X179271814Y-107451000D01*
X179236000Y-107270951D01*
X179236000Y-106729049D01*
X179303121Y-106391608D01*
X179341719Y-106197563D01*
X179549095Y-105696913D01*
X179850159Y-105246340D01*
X179850161Y-105246337D01*
X180233337Y-104863161D01*
X180496226Y-104687504D01*
X180683913Y-104562095D01*
X181184563Y-104354719D01*
X181565229Y-104279000D01*
X181716049Y-104249000D01*
X182257951Y-104249000D01*
X182408771Y-104279000D01*
X182408771Y-104279000D01*
G37*
G36*
X103408771Y-104279000D02*
G01*
X103789437Y-104354719D01*
X104290087Y-104562095D01*
X104477774Y-104687504D01*
X104740663Y-104863161D01*
X105123839Y-105246337D01*
X105123841Y-105246340D01*
X105424905Y-105696913D01*
X105632281Y-106197563D01*
X105670879Y-106391608D01*
X105738000Y-106729049D01*
X105738000Y-107270951D01*
X105702186Y-107451000D01*
X105632281Y-107802437D01*
X105424905Y-108303087D01*
X105134636Y-108737504D01*
X105123839Y-108753663D01*
X104740663Y-109136839D01*
X104740660Y-109136841D01*
X104290087Y-109437905D01*
X103789437Y-109645281D01*
X103523693Y-109698141D01*
X103257951Y-109751000D01*
X102716049Y-109751000D01*
X102450307Y-109698141D01*
X102184563Y-109645281D01*
X101683913Y-109437905D01*
X101233340Y-109136841D01*
X101233337Y-109136839D01*
X100850161Y-108753663D01*
X100839364Y-108737504D01*
X100549095Y-108303087D01*
X100341719Y-107802437D01*
X100271814Y-107451000D01*
X100236000Y-107270951D01*
X100236000Y-106729049D01*
X100303121Y-106391608D01*
X100341719Y-106197563D01*
X100549095Y-105696913D01*
X100850159Y-105246340D01*
X100850161Y-105246337D01*
X101233337Y-104863161D01*
X101496226Y-104687504D01*
X101683913Y-104562095D01*
X102184563Y-104354719D01*
X102565229Y-104279000D01*
X102716049Y-104249000D01*
X103257951Y-104249000D01*
X103408771Y-104279000D01*
X103408771Y-104279000D01*
G37*
G36*
X161950600Y-105620006D02*
G01*
X161953002Y-105644392D01*
X161960115Y-105667841D01*
X161971666Y-105689452D01*
X161987212Y-105708394D01*
X162006154Y-105723940D01*
X162027765Y-105735491D01*
X162051214Y-105742604D01*
X162075600Y-105745006D01*
X162099986Y-105742604D01*
X162123435Y-105735491D01*
X162145046Y-105723940D01*
X162163988Y-105708394D01*
X162179534Y-105689452D01*
X162191085Y-105667842D01*
X162213996Y-105612529D01*
X162225492Y-105584775D01*
X162325584Y-105434977D01*
X162325586Y-105434974D01*
X162452974Y-105307586D01*
X162544635Y-105246340D01*
X162602775Y-105207492D01*
X162769221Y-105138548D01*
X162769222Y-105138548D01*
X162769224Y-105138547D01*
X162945918Y-105103400D01*
X163126082Y-105103400D01*
X163302776Y-105138547D01*
X163302778Y-105138548D01*
X163302779Y-105138548D01*
X163469225Y-105207492D01*
X163527365Y-105246340D01*
X163619026Y-105307586D01*
X163746414Y-105434974D01*
X163746416Y-105434977D01*
X163846508Y-105584775D01*
X163903137Y-105721490D01*
X163919475Y-105760933D01*
X163920513Y-105764355D01*
X163932063Y-105785967D01*
X163947608Y-105804909D01*
X163966549Y-105820456D01*
X163988160Y-105832008D01*
X164011608Y-105839122D01*
X164035995Y-105841525D01*
X164060381Y-105839124D01*
X164083830Y-105832012D01*
X164105442Y-105820462D01*
X164124384Y-105804917D01*
X164139931Y-105785976D01*
X164151483Y-105764365D01*
X164152522Y-105760940D01*
X164179043Y-105696913D01*
X164225492Y-105584775D01*
X164325584Y-105434977D01*
X164325586Y-105434974D01*
X164452974Y-105307586D01*
X164544635Y-105246340D01*
X164602775Y-105207492D01*
X164769221Y-105138548D01*
X164769222Y-105138548D01*
X164769224Y-105138547D01*
X164945918Y-105103400D01*
X165126082Y-105103400D01*
X165302776Y-105138547D01*
X165302778Y-105138548D01*
X165302779Y-105138548D01*
X165469225Y-105207492D01*
X165527365Y-105246340D01*
X165619026Y-105307586D01*
X165746414Y-105434974D01*
X165746416Y-105434977D01*
X165846508Y-105584775D01*
X165903137Y-105721490D01*
X165919475Y-105760933D01*
X165920513Y-105764355D01*
X165932063Y-105785967D01*
X165947608Y-105804909D01*
X165966549Y-105820456D01*
X165988160Y-105832008D01*
X166011608Y-105839122D01*
X166035995Y-105841525D01*
X166060381Y-105839124D01*
X166083830Y-105832012D01*
X166105442Y-105820462D01*
X166124384Y-105804917D01*
X166139931Y-105785976D01*
X166151483Y-105764365D01*
X166152522Y-105760940D01*
X166179043Y-105696913D01*
X166225492Y-105584775D01*
X166325584Y-105434977D01*
X166325586Y-105434974D01*
X166452974Y-105307586D01*
X166544635Y-105246340D01*
X166602775Y-105207492D01*
X166769221Y-105138548D01*
X166769222Y-105138548D01*
X166769224Y-105138547D01*
X166945918Y-105103400D01*
X167126082Y-105103400D01*
X167302776Y-105138547D01*
X167302778Y-105138548D01*
X167302779Y-105138548D01*
X167469225Y-105207492D01*
X167527365Y-105246340D01*
X167619026Y-105307586D01*
X167746414Y-105434974D01*
X167746416Y-105434977D01*
X167846508Y-105584775D01*
X167903137Y-105721490D01*
X167919475Y-105760933D01*
X167920513Y-105764355D01*
X167932063Y-105785967D01*
X167947608Y-105804909D01*
X167966549Y-105820456D01*
X167988160Y-105832008D01*
X168011608Y-105839122D01*
X168035995Y-105841525D01*
X168060381Y-105839124D01*
X168083830Y-105832012D01*
X168105442Y-105820462D01*
X168124384Y-105804917D01*
X168139931Y-105785976D01*
X168151483Y-105764365D01*
X168152522Y-105760940D01*
X168179043Y-105696913D01*
X168225492Y-105584775D01*
X168325584Y-105434977D01*
X168325586Y-105434974D01*
X168452974Y-105307586D01*
X168544635Y-105246340D01*
X168602775Y-105207492D01*
X168769221Y-105138548D01*
X168769222Y-105138548D01*
X168769224Y-105138547D01*
X168945918Y-105103400D01*
X169126082Y-105103400D01*
X169302776Y-105138547D01*
X169302778Y-105138548D01*
X169302779Y-105138548D01*
X169469225Y-105207492D01*
X169527365Y-105246340D01*
X169619026Y-105307586D01*
X169746414Y-105434974D01*
X169746416Y-105434977D01*
X169846508Y-105584775D01*
X169903137Y-105721490D01*
X169919475Y-105760933D01*
X169920513Y-105764355D01*
X169932063Y-105785967D01*
X169947608Y-105804909D01*
X169966549Y-105820456D01*
X169988160Y-105832008D01*
X170011608Y-105839122D01*
X170035995Y-105841525D01*
X170060381Y-105839124D01*
X170083830Y-105832012D01*
X170105442Y-105820462D01*
X170124384Y-105804917D01*
X170139931Y-105785976D01*
X170151483Y-105764365D01*
X170152522Y-105760940D01*
X170179043Y-105696913D01*
X170225492Y-105584775D01*
X170325584Y-105434977D01*
X170325586Y-105434974D01*
X170452974Y-105307586D01*
X170544635Y-105246340D01*
X170602775Y-105207492D01*
X170769221Y-105138548D01*
X170769222Y-105138548D01*
X170769224Y-105138547D01*
X170945918Y-105103400D01*
X171126082Y-105103400D01*
X171302776Y-105138547D01*
X171302778Y-105138548D01*
X171302779Y-105138548D01*
X171469225Y-105207492D01*
X171527365Y-105246340D01*
X171619026Y-105307586D01*
X171746414Y-105434974D01*
X171746416Y-105434977D01*
X171846508Y-105584775D01*
X171903137Y-105721490D01*
X171919475Y-105760933D01*
X171920513Y-105764355D01*
X171932063Y-105785967D01*
X171947608Y-105804909D01*
X171966549Y-105820456D01*
X171988160Y-105832008D01*
X172011608Y-105839122D01*
X172035995Y-105841525D01*
X172060381Y-105839124D01*
X172083830Y-105832012D01*
X172105442Y-105820462D01*
X172124384Y-105804917D01*
X172139931Y-105785976D01*
X172151483Y-105764365D01*
X172152522Y-105760940D01*
X172179043Y-105696913D01*
X172225492Y-105584775D01*
X172325584Y-105434977D01*
X172325586Y-105434974D01*
X172452974Y-105307586D01*
X172544635Y-105246340D01*
X172602775Y-105207492D01*
X172769221Y-105138548D01*
X172769222Y-105138548D01*
X172769224Y-105138547D01*
X172945918Y-105103400D01*
X173126082Y-105103400D01*
X173302776Y-105138547D01*
X173302778Y-105138548D01*
X173302779Y-105138548D01*
X173469225Y-105207492D01*
X173527365Y-105246340D01*
X173619026Y-105307586D01*
X173746414Y-105434974D01*
X173746416Y-105434977D01*
X173846508Y-105584775D01*
X173903137Y-105721490D01*
X173919475Y-105760933D01*
X173920513Y-105764355D01*
X173932063Y-105785967D01*
X173947608Y-105804909D01*
X173966549Y-105820456D01*
X173988160Y-105832008D01*
X174011608Y-105839122D01*
X174035995Y-105841525D01*
X174060381Y-105839124D01*
X174083830Y-105832012D01*
X174105442Y-105820462D01*
X174124384Y-105804917D01*
X174139931Y-105785976D01*
X174151483Y-105764365D01*
X174152522Y-105760940D01*
X174179043Y-105696913D01*
X174225492Y-105584775D01*
X174325584Y-105434977D01*
X174325586Y-105434974D01*
X174452974Y-105307586D01*
X174544635Y-105246340D01*
X174602775Y-105207492D01*
X174769221Y-105138548D01*
X174769222Y-105138548D01*
X174769224Y-105138547D01*
X174945918Y-105103400D01*
X175126082Y-105103400D01*
X175302776Y-105138547D01*
X175302778Y-105138548D01*
X175302779Y-105138548D01*
X175469225Y-105207492D01*
X175527365Y-105246340D01*
X175619026Y-105307586D01*
X175746414Y-105434974D01*
X175746416Y-105434977D01*
X175846508Y-105584775D01*
X175915452Y-105751221D01*
X175915453Y-105751224D01*
X175950600Y-105927918D01*
X175950600Y-106108082D01*
X175917386Y-106275060D01*
X175915452Y-106284779D01*
X175846508Y-106451225D01*
X175846507Y-106451226D01*
X175746414Y-106601026D01*
X175619026Y-106728414D01*
X175619023Y-106728416D01*
X175469225Y-106828508D01*
X175302779Y-106897452D01*
X175302778Y-106897452D01*
X175302776Y-106897453D01*
X175126082Y-106932600D01*
X174945918Y-106932600D01*
X174769224Y-106897453D01*
X174769222Y-106897452D01*
X174769221Y-106897452D01*
X174602775Y-106828508D01*
X174452977Y-106728416D01*
X174452974Y-106728414D01*
X174325586Y-106601026D01*
X174225493Y-106451226D01*
X174225492Y-106451225D01*
X174156548Y-106284779D01*
X174156547Y-106284776D01*
X174152525Y-106275067D01*
X174151487Y-106271645D01*
X174139937Y-106250033D01*
X174124392Y-106231091D01*
X174105451Y-106215544D01*
X174083840Y-106203992D01*
X174060392Y-106196878D01*
X174036005Y-106194475D01*
X174011619Y-106196876D01*
X173988170Y-106203988D01*
X173966558Y-106215538D01*
X173947616Y-106231083D01*
X173932069Y-106250024D01*
X173920517Y-106271635D01*
X173919478Y-106275060D01*
X173904152Y-106312060D01*
X173846508Y-106451225D01*
X173846507Y-106451226D01*
X173746414Y-106601026D01*
X173619026Y-106728414D01*
X173619023Y-106728416D01*
X173469225Y-106828508D01*
X173302779Y-106897452D01*
X173302778Y-106897452D01*
X173302776Y-106897453D01*
X173126082Y-106932600D01*
X172945918Y-106932600D01*
X172769224Y-106897453D01*
X172769222Y-106897452D01*
X172769221Y-106897452D01*
X172602775Y-106828508D01*
X172452977Y-106728416D01*
X172452974Y-106728414D01*
X172325586Y-106601026D01*
X172225493Y-106451226D01*
X172225492Y-106451225D01*
X172156548Y-106284779D01*
X172156547Y-106284776D01*
X172152525Y-106275067D01*
X172151487Y-106271645D01*
X172139937Y-106250033D01*
X172124392Y-106231091D01*
X172105451Y-106215544D01*
X172083840Y-106203992D01*
X172060392Y-106196878D01*
X172036005Y-106194475D01*
X172011619Y-106196876D01*
X171988170Y-106203988D01*
X171966558Y-106215538D01*
X171947616Y-106231083D01*
X171932069Y-106250024D01*
X171920517Y-106271635D01*
X171919478Y-106275060D01*
X171904152Y-106312060D01*
X171846508Y-106451225D01*
X171846507Y-106451226D01*
X171746414Y-106601026D01*
X171619026Y-106728414D01*
X171619023Y-106728416D01*
X171469225Y-106828508D01*
X171302779Y-106897452D01*
X171302778Y-106897452D01*
X171302776Y-106897453D01*
X171126082Y-106932600D01*
X170945918Y-106932600D01*
X170769224Y-106897453D01*
X170769222Y-106897452D01*
X170769221Y-106897452D01*
X170602775Y-106828508D01*
X170452977Y-106728416D01*
X170452974Y-106728414D01*
X170325586Y-106601026D01*
X170225493Y-106451226D01*
X170225492Y-106451225D01*
X170156548Y-106284779D01*
X170156547Y-106284776D01*
X170152525Y-106275067D01*
X170151487Y-106271645D01*
X170139937Y-106250033D01*
X170124392Y-106231091D01*
X170105451Y-106215544D01*
X170083840Y-106203992D01*
X170060392Y-106196878D01*
X170036005Y-106194475D01*
X170011619Y-106196876D01*
X169988170Y-106203988D01*
X169966558Y-106215538D01*
X169947616Y-106231083D01*
X169932069Y-106250024D01*
X169920517Y-106271635D01*
X169919478Y-106275060D01*
X169904152Y-106312060D01*
X169846508Y-106451225D01*
X169846507Y-106451226D01*
X169746414Y-106601026D01*
X169619026Y-106728414D01*
X169619023Y-106728416D01*
X169469225Y-106828508D01*
X169302779Y-106897452D01*
X169302778Y-106897452D01*
X169302776Y-106897453D01*
X169126082Y-106932600D01*
X168945918Y-106932600D01*
X168769224Y-106897453D01*
X168769222Y-106897452D01*
X168769221Y-106897452D01*
X168602775Y-106828508D01*
X168452977Y-106728416D01*
X168452974Y-106728414D01*
X168325586Y-106601026D01*
X168225493Y-106451226D01*
X168225492Y-106451225D01*
X168156548Y-106284779D01*
X168156547Y-106284776D01*
X168152525Y-106275067D01*
X168151487Y-106271645D01*
X168139937Y-106250033D01*
X168124392Y-106231091D01*
X168105451Y-106215544D01*
X168083840Y-106203992D01*
X168060392Y-106196878D01*
X168036005Y-106194475D01*
X168011619Y-106196876D01*
X167988170Y-106203988D01*
X167966558Y-106215538D01*
X167947616Y-106231083D01*
X167932069Y-106250024D01*
X167920517Y-106271635D01*
X167919478Y-106275060D01*
X167904152Y-106312060D01*
X167846508Y-106451225D01*
X167846507Y-106451226D01*
X167746414Y-106601026D01*
X167619026Y-106728414D01*
X167619023Y-106728416D01*
X167469225Y-106828508D01*
X167302779Y-106897452D01*
X167302778Y-106897452D01*
X167302776Y-106897453D01*
X167126082Y-106932600D01*
X166945918Y-106932600D01*
X166769224Y-106897453D01*
X166769222Y-106897452D01*
X166769221Y-106897452D01*
X166602775Y-106828508D01*
X166452977Y-106728416D01*
X166452974Y-106728414D01*
X166325586Y-106601026D01*
X166225493Y-106451226D01*
X166225492Y-106451225D01*
X166156548Y-106284779D01*
X166156547Y-106284776D01*
X166152525Y-106275067D01*
X166151487Y-106271645D01*
X166139937Y-106250033D01*
X166124392Y-106231091D01*
X166105451Y-106215544D01*
X166083840Y-106203992D01*
X166060392Y-106196878D01*
X166036005Y-106194475D01*
X166011619Y-106196876D01*
X165988170Y-106203988D01*
X165966558Y-106215538D01*
X165947616Y-106231083D01*
X165932069Y-106250024D01*
X165920517Y-106271635D01*
X165919478Y-106275060D01*
X165904152Y-106312060D01*
X165846508Y-106451225D01*
X165846507Y-106451226D01*
X165746414Y-106601026D01*
X165619026Y-106728414D01*
X165619023Y-106728416D01*
X165469225Y-106828508D01*
X165302779Y-106897452D01*
X165302778Y-106897452D01*
X165302776Y-106897453D01*
X165126082Y-106932600D01*
X164945918Y-106932600D01*
X164769224Y-106897453D01*
X164769222Y-106897452D01*
X164769221Y-106897452D01*
X164602775Y-106828508D01*
X164452977Y-106728416D01*
X164452974Y-106728414D01*
X164325586Y-106601026D01*
X164225493Y-106451226D01*
X164225492Y-106451225D01*
X164156548Y-106284779D01*
X164156547Y-106284776D01*
X164152525Y-106275067D01*
X164151487Y-106271645D01*
X164139937Y-106250033D01*
X164124392Y-106231091D01*
X164105451Y-106215544D01*
X164083840Y-106203992D01*
X164060392Y-106196878D01*
X164036005Y-106194475D01*
X164011619Y-106196876D01*
X163988170Y-106203988D01*
X163966558Y-106215538D01*
X163947616Y-106231083D01*
X163932069Y-106250024D01*
X163920517Y-106271635D01*
X163919478Y-106275060D01*
X163904152Y-106312060D01*
X163846508Y-106451225D01*
X163846507Y-106451226D01*
X163746414Y-106601026D01*
X163619026Y-106728414D01*
X163619023Y-106728416D01*
X163469225Y-106828508D01*
X163302779Y-106897452D01*
X163302778Y-106897452D01*
X163302776Y-106897453D01*
X163126082Y-106932600D01*
X162945918Y-106932600D01*
X162769224Y-106897453D01*
X162769222Y-106897452D01*
X162769221Y-106897452D01*
X162602775Y-106828508D01*
X162452977Y-106728416D01*
X162452974Y-106728414D01*
X162325586Y-106601026D01*
X162225493Y-106451226D01*
X162225492Y-106451225D01*
X162191083Y-106368155D01*
X162179534Y-106346547D01*
X162163988Y-106327605D01*
X162145046Y-106312060D01*
X162123435Y-106300509D01*
X162099986Y-106293396D01*
X162075600Y-106290994D01*
X162051213Y-106293396D01*
X162027764Y-106300509D01*
X162006153Y-106312060D01*
X161987211Y-106327606D01*
X161971666Y-106346548D01*
X161960115Y-106368159D01*
X161953002Y-106391608D01*
X161950600Y-106415994D01*
X161950600Y-107069000D01*
X160121400Y-107069000D01*
X160121400Y-104967000D01*
X161950600Y-104967000D01*
X161950600Y-105620006D01*
X161950600Y-105620006D01*
G37*
G36*
X156349000Y-106819000D02*
G01*
X154547000Y-106819000D01*
X154547000Y-105017000D01*
X156349000Y-105017000D01*
X156349000Y-106819000D01*
X156349000Y-106819000D01*
G37*
G36*
X155558442Y-102483518D02*
G01*
X155624627Y-102490037D01*
X155737853Y-102524384D01*
X155794467Y-102541557D01*
X155933087Y-102615652D01*
X155950991Y-102625222D01*
X155986729Y-102654552D01*
X156088186Y-102737814D01*
X156171448Y-102839271D01*
X156200778Y-102875009D01*
X156200779Y-102875011D01*
X156284443Y-103031533D01*
X156284443Y-103031534D01*
X156335963Y-103201373D01*
X156353359Y-103378000D01*
X156335963Y-103554627D01*
X156301616Y-103667853D01*
X156284443Y-103724467D01*
X156210348Y-103863087D01*
X156200778Y-103880991D01*
X156171448Y-103916729D01*
X156088186Y-104018186D01*
X155986729Y-104101448D01*
X155950991Y-104130778D01*
X155950989Y-104130779D01*
X155794467Y-104214443D01*
X155737853Y-104231616D01*
X155624627Y-104265963D01*
X155558442Y-104272482D01*
X155492260Y-104279000D01*
X155403740Y-104279000D01*
X155337558Y-104272482D01*
X155271373Y-104265963D01*
X155158147Y-104231616D01*
X155101533Y-104214443D01*
X154945011Y-104130779D01*
X154945009Y-104130778D01*
X154909271Y-104101448D01*
X154807814Y-104018186D01*
X154724552Y-103916729D01*
X154695222Y-103880991D01*
X154685652Y-103863087D01*
X154611557Y-103724467D01*
X154594384Y-103667853D01*
X154560037Y-103554627D01*
X154542641Y-103378000D01*
X154560037Y-103201373D01*
X154611557Y-103031534D01*
X154611557Y-103031533D01*
X154695221Y-102875011D01*
X154695222Y-102875009D01*
X154724552Y-102839271D01*
X154807814Y-102737814D01*
X154909271Y-102654552D01*
X154945009Y-102625222D01*
X154962913Y-102615652D01*
X155101533Y-102541557D01*
X155158147Y-102524384D01*
X155271373Y-102490037D01*
X155337558Y-102483518D01*
X155403740Y-102477000D01*
X155492260Y-102477000D01*
X155558442Y-102483518D01*
X155558442Y-102483518D01*
G37*
G36*
X155558443Y-99943519D02*
G01*
X155624627Y-99950037D01*
X155737853Y-99984384D01*
X155794467Y-100001557D01*
X155933087Y-100075652D01*
X155950991Y-100085222D01*
X155986729Y-100114552D01*
X156088186Y-100197814D01*
X156171448Y-100299271D01*
X156200778Y-100335009D01*
X156200779Y-100335011D01*
X156284443Y-100491533D01*
X156284443Y-100491534D01*
X156335963Y-100661373D01*
X156353359Y-100838000D01*
X156335963Y-101014627D01*
X156301616Y-101127853D01*
X156284443Y-101184467D01*
X156210348Y-101323087D01*
X156200778Y-101340991D01*
X156171448Y-101376729D01*
X156088186Y-101478186D01*
X155986729Y-101561448D01*
X155950991Y-101590778D01*
X155950989Y-101590779D01*
X155794467Y-101674443D01*
X155737853Y-101691616D01*
X155624627Y-101725963D01*
X155558443Y-101732481D01*
X155492260Y-101739000D01*
X155403740Y-101739000D01*
X155337557Y-101732481D01*
X155271373Y-101725963D01*
X155158147Y-101691616D01*
X155101533Y-101674443D01*
X154945011Y-101590779D01*
X154945009Y-101590778D01*
X154909271Y-101561448D01*
X154807814Y-101478186D01*
X154724552Y-101376729D01*
X154695222Y-101340991D01*
X154685652Y-101323087D01*
X154611557Y-101184467D01*
X154594384Y-101127853D01*
X154560037Y-101014627D01*
X154542641Y-100838000D01*
X154560037Y-100661373D01*
X154611557Y-100491534D01*
X154611557Y-100491533D01*
X154695221Y-100335011D01*
X154695222Y-100335009D01*
X154724552Y-100299271D01*
X154807814Y-100197814D01*
X154909271Y-100114552D01*
X154945009Y-100085222D01*
X154962913Y-100075652D01*
X155101533Y-100001557D01*
X155158147Y-99984384D01*
X155271373Y-99950037D01*
X155337557Y-99943519D01*
X155403740Y-99937000D01*
X155492260Y-99937000D01*
X155558443Y-99943519D01*
X155558443Y-99943519D01*
G37*
G36*
X155558442Y-97403518D02*
G01*
X155624627Y-97410037D01*
X155737853Y-97444384D01*
X155794467Y-97461557D01*
X155933087Y-97535652D01*
X155950991Y-97545222D01*
X155986729Y-97574552D01*
X156088186Y-97657814D01*
X156171448Y-97759271D01*
X156200778Y-97795009D01*
X156200779Y-97795011D01*
X156284443Y-97951533D01*
X156284443Y-97951534D01*
X156335963Y-98121373D01*
X156353359Y-98298000D01*
X156335963Y-98474627D01*
X156301616Y-98587853D01*
X156284443Y-98644467D01*
X156210348Y-98783087D01*
X156200778Y-98800991D01*
X156171448Y-98836729D01*
X156088186Y-98938186D01*
X155986729Y-99021448D01*
X155950991Y-99050778D01*
X155950989Y-99050779D01*
X155794467Y-99134443D01*
X155737853Y-99151616D01*
X155624627Y-99185963D01*
X155558443Y-99192481D01*
X155492260Y-99199000D01*
X155403740Y-99199000D01*
X155337557Y-99192481D01*
X155271373Y-99185963D01*
X155158147Y-99151616D01*
X155101533Y-99134443D01*
X154945011Y-99050779D01*
X154945009Y-99050778D01*
X154909271Y-99021448D01*
X154807814Y-98938186D01*
X154724552Y-98836729D01*
X154695222Y-98800991D01*
X154685652Y-98783087D01*
X154611557Y-98644467D01*
X154594384Y-98587853D01*
X154560037Y-98474627D01*
X154542641Y-98298000D01*
X154560037Y-98121373D01*
X154611557Y-97951534D01*
X154611557Y-97951533D01*
X154695221Y-97795011D01*
X154695222Y-97795009D01*
X154724552Y-97759271D01*
X154807814Y-97657814D01*
X154909271Y-97574552D01*
X154945009Y-97545222D01*
X154962913Y-97535652D01*
X155101533Y-97461557D01*
X155158147Y-97444384D01*
X155271373Y-97410037D01*
X155337558Y-97403518D01*
X155403740Y-97397000D01*
X155492260Y-97397000D01*
X155558442Y-97403518D01*
X155558442Y-97403518D01*
G37*
G36*
X155558443Y-94863519D02*
G01*
X155624627Y-94870037D01*
X155737853Y-94904384D01*
X155794467Y-94921557D01*
X155849533Y-94950991D01*
X155950991Y-95005222D01*
X155986729Y-95034552D01*
X156088186Y-95117814D01*
X156171448Y-95219271D01*
X156200778Y-95255009D01*
X156200779Y-95255011D01*
X156284443Y-95411533D01*
X156284443Y-95411534D01*
X156335963Y-95581373D01*
X156353359Y-95758000D01*
X156335963Y-95934627D01*
X156301616Y-96047853D01*
X156284443Y-96104467D01*
X156210348Y-96243087D01*
X156200778Y-96260991D01*
X156171448Y-96296729D01*
X156088186Y-96398186D01*
X155986729Y-96481448D01*
X155950991Y-96510778D01*
X155950989Y-96510779D01*
X155794467Y-96594443D01*
X155737853Y-96611616D01*
X155624627Y-96645963D01*
X155558443Y-96652481D01*
X155492260Y-96659000D01*
X155403740Y-96659000D01*
X155337558Y-96652482D01*
X155271373Y-96645963D01*
X155158147Y-96611616D01*
X155101533Y-96594443D01*
X154945011Y-96510779D01*
X154945009Y-96510778D01*
X154909271Y-96481448D01*
X154807814Y-96398186D01*
X154724552Y-96296729D01*
X154695222Y-96260991D01*
X154685652Y-96243087D01*
X154611557Y-96104467D01*
X154594384Y-96047853D01*
X154560037Y-95934627D01*
X154542641Y-95758000D01*
X154560037Y-95581373D01*
X154611557Y-95411534D01*
X154611557Y-95411533D01*
X154695221Y-95255011D01*
X154695222Y-95255009D01*
X154724552Y-95219271D01*
X154807814Y-95117814D01*
X154909271Y-95034552D01*
X154945009Y-95005222D01*
X155046467Y-94950991D01*
X155101533Y-94921557D01*
X155158147Y-94904384D01*
X155271373Y-94870037D01*
X155337558Y-94863518D01*
X155403740Y-94857000D01*
X155492260Y-94857000D01*
X155558443Y-94863519D01*
X155558443Y-94863519D01*
G37*
G36*
X104654443Y-93553519D02*
G01*
X104720627Y-93560037D01*
X104833853Y-93594384D01*
X104890467Y-93611557D01*
X105029087Y-93685652D01*
X105046991Y-93695222D01*
X105078388Y-93720989D01*
X105184186Y-93807814D01*
X105267448Y-93909271D01*
X105296778Y-93945009D01*
X105296779Y-93945011D01*
X105380443Y-94101533D01*
X105380443Y-94101534D01*
X105431963Y-94271373D01*
X105449359Y-94448000D01*
X105431963Y-94624627D01*
X105397616Y-94737853D01*
X105380443Y-94794467D01*
X105347018Y-94857000D01*
X105296778Y-94950991D01*
X105267448Y-94986729D01*
X105184186Y-95088186D01*
X105082729Y-95171448D01*
X105046991Y-95200778D01*
X105046989Y-95200779D01*
X104890467Y-95284443D01*
X104833853Y-95301616D01*
X104720627Y-95335963D01*
X104654443Y-95342481D01*
X104588260Y-95349000D01*
X104199740Y-95349000D01*
X104133557Y-95342481D01*
X104067373Y-95335963D01*
X103954147Y-95301616D01*
X103897533Y-95284443D01*
X103741011Y-95200779D01*
X103741009Y-95200778D01*
X103705271Y-95171448D01*
X103603814Y-95088186D01*
X103520552Y-94986729D01*
X103491222Y-94950991D01*
X103440982Y-94857000D01*
X103407557Y-94794467D01*
X103390384Y-94737853D01*
X103356037Y-94624627D01*
X103338641Y-94448000D01*
X103356037Y-94271373D01*
X103407557Y-94101534D01*
X103407557Y-94101533D01*
X103491221Y-93945011D01*
X103491222Y-93945009D01*
X103520552Y-93909271D01*
X103603814Y-93807814D01*
X103709612Y-93720989D01*
X103741009Y-93695222D01*
X103758913Y-93685652D01*
X103897533Y-93611557D01*
X103954147Y-93594384D01*
X104067373Y-93560037D01*
X104133557Y-93553519D01*
X104199740Y-93547000D01*
X104588260Y-93547000D01*
X104654443Y-93553519D01*
X104654443Y-93553519D01*
G37*
G36*
X155558442Y-92323518D02*
G01*
X155624627Y-92330037D01*
X155709609Y-92355816D01*
X155794467Y-92381557D01*
X155933087Y-92455652D01*
X155950991Y-92465222D01*
X155986729Y-92494552D01*
X156088186Y-92577814D01*
X156139475Y-92640311D01*
X156200778Y-92715009D01*
X156200779Y-92715011D01*
X156284443Y-92871533D01*
X156284443Y-92871534D01*
X156335963Y-93041373D01*
X156353359Y-93218000D01*
X156335963Y-93394627D01*
X156301616Y-93507853D01*
X156284443Y-93564467D01*
X156259272Y-93611557D01*
X156200778Y-93720991D01*
X156171448Y-93756729D01*
X156088186Y-93858186D01*
X155986729Y-93941448D01*
X155950991Y-93970778D01*
X155950989Y-93970779D01*
X155794467Y-94054443D01*
X155737853Y-94071616D01*
X155624627Y-94105963D01*
X155558442Y-94112482D01*
X155492260Y-94119000D01*
X155403740Y-94119000D01*
X155337558Y-94112482D01*
X155271373Y-94105963D01*
X155158147Y-94071616D01*
X155101533Y-94054443D01*
X154945011Y-93970779D01*
X154945009Y-93970778D01*
X154909271Y-93941448D01*
X154807814Y-93858186D01*
X154724552Y-93756729D01*
X154695222Y-93720991D01*
X154636728Y-93611557D01*
X154611557Y-93564467D01*
X154594384Y-93507853D01*
X154560037Y-93394627D01*
X154542641Y-93218000D01*
X154560037Y-93041373D01*
X154611557Y-92871534D01*
X154611557Y-92871533D01*
X154695221Y-92715011D01*
X154695222Y-92715009D01*
X154756525Y-92640311D01*
X154807814Y-92577814D01*
X154909271Y-92494552D01*
X154945009Y-92465222D01*
X154962913Y-92455652D01*
X155101533Y-92381557D01*
X155186391Y-92355816D01*
X155271373Y-92330037D01*
X155337558Y-92323518D01*
X155403740Y-92317000D01*
X155492260Y-92317000D01*
X155558442Y-92323518D01*
X155558442Y-92323518D01*
G37*
G36*
X130029444Y-92089375D02*
G01*
X130066259Y-92100542D01*
X130100182Y-92118675D01*
X130129920Y-92143080D01*
X130154325Y-92172818D01*
X130172458Y-92206741D01*
X130183625Y-92243556D01*
X130188000Y-92287977D01*
X130188000Y-93209023D01*
X130183625Y-93253444D01*
X130172458Y-93290259D01*
X130154325Y-93324182D01*
X130129920Y-93353920D01*
X130100182Y-93378325D01*
X130066259Y-93396458D01*
X130029444Y-93407625D01*
X129985023Y-93412000D01*
X125538977Y-93412000D01*
X125494556Y-93407625D01*
X125457741Y-93396458D01*
X125423818Y-93378325D01*
X125394080Y-93353920D01*
X125369675Y-93324182D01*
X125351542Y-93290259D01*
X125340375Y-93253444D01*
X125336000Y-93209023D01*
X125336000Y-92287977D01*
X125340375Y-92243556D01*
X125351542Y-92206741D01*
X125369675Y-92172818D01*
X125394080Y-92143080D01*
X125423818Y-92118675D01*
X125457741Y-92100542D01*
X125494556Y-92089375D01*
X125538977Y-92085000D01*
X129985023Y-92085000D01*
X130029444Y-92089375D01*
X130029444Y-92089375D01*
G37*
G36*
X180261905Y-89700989D02*
G01*
X180560350Y-89760353D01*
X180888122Y-89896121D01*
X181183109Y-90093225D01*
X181433975Y-90344091D01*
X181631079Y-90639078D01*
X181766847Y-90966850D01*
X181836060Y-91314811D01*
X181836060Y-91669589D01*
X181766847Y-92017550D01*
X181631079Y-92345322D01*
X181433975Y-92640309D01*
X181183109Y-92891175D01*
X180888122Y-93088279D01*
X180560350Y-93224047D01*
X180261905Y-93283411D01*
X180212390Y-93293260D01*
X179857610Y-93293260D01*
X179808095Y-93283411D01*
X179509650Y-93224047D01*
X179181878Y-93088279D01*
X178886891Y-92891175D01*
X178636025Y-92640309D01*
X178438921Y-92345322D01*
X178303153Y-92017550D01*
X178233940Y-91669589D01*
X178233940Y-91314811D01*
X178303153Y-90966850D01*
X178438921Y-90639078D01*
X178636025Y-90344091D01*
X178886891Y-90093225D01*
X179181878Y-89896121D01*
X179509650Y-89760353D01*
X179808095Y-89700989D01*
X179857610Y-89691140D01*
X180212390Y-89691140D01*
X180261905Y-89700989D01*
X180261905Y-89700989D01*
G37*
G36*
X105302600Y-91050989D02*
G01*
X105335649Y-91061014D01*
X105366106Y-91077294D01*
X105392799Y-91099201D01*
X105414706Y-91125894D01*
X105430986Y-91156351D01*
X105441011Y-91189400D01*
X105445000Y-91229904D01*
X105445000Y-92666096D01*
X105441011Y-92706600D01*
X105430986Y-92739649D01*
X105414706Y-92770106D01*
X105392799Y-92796799D01*
X105366106Y-92818706D01*
X105335649Y-92834986D01*
X105302600Y-92845011D01*
X105262096Y-92849000D01*
X103525904Y-92849000D01*
X103485400Y-92845011D01*
X103452351Y-92834986D01*
X103421894Y-92818706D01*
X103395201Y-92796799D01*
X103373294Y-92770106D01*
X103357014Y-92739649D01*
X103346989Y-92706600D01*
X103343000Y-92666096D01*
X103343000Y-91229904D01*
X103346989Y-91189400D01*
X103357014Y-91156351D01*
X103373294Y-91125894D01*
X103395201Y-91099201D01*
X103421894Y-91077294D01*
X103452351Y-91061014D01*
X103485400Y-91050989D01*
X103525904Y-91047000D01*
X105262096Y-91047000D01*
X105302600Y-91050989D01*
X105302600Y-91050989D01*
G37*
G36*
X130029444Y-88964375D02*
G01*
X130066259Y-88975542D01*
X130100182Y-88993675D01*
X130129920Y-89018080D01*
X130154325Y-89047818D01*
X130172458Y-89081741D01*
X130183625Y-89118556D01*
X130188000Y-89162977D01*
X130188000Y-90084023D01*
X130183625Y-90128444D01*
X130172458Y-90165259D01*
X130154325Y-90199182D01*
X130129920Y-90228920D01*
X130100182Y-90253325D01*
X130066259Y-90271458D01*
X130029444Y-90282625D01*
X129985023Y-90287000D01*
X125538977Y-90287000D01*
X125494556Y-90282625D01*
X125457741Y-90271458D01*
X125423818Y-90253325D01*
X125394080Y-90228920D01*
X125369675Y-90199182D01*
X125351542Y-90165259D01*
X125340375Y-90128444D01*
X125336000Y-90084023D01*
X125336000Y-89162977D01*
X125340375Y-89118556D01*
X125351542Y-89081741D01*
X125369675Y-89047818D01*
X125394080Y-89018080D01*
X125423818Y-88993675D01*
X125457741Y-88975542D01*
X125494556Y-88964375D01*
X125538977Y-88960000D01*
X129985023Y-88960000D01*
X130029444Y-88964375D01*
X130029444Y-88964375D01*
G37*
G36*
X161302776Y-88038547D02*
G01*
X161302778Y-88038548D01*
X161302779Y-88038548D01*
X161469225Y-88107492D01*
X161469226Y-88107493D01*
X161619026Y-88207586D01*
X161746414Y-88334974D01*
X161746416Y-88334977D01*
X161846508Y-88484775D01*
X161903137Y-88621490D01*
X161919475Y-88660933D01*
X161920513Y-88664355D01*
X161932063Y-88685967D01*
X161947608Y-88704909D01*
X161966549Y-88720456D01*
X161988160Y-88732008D01*
X162011608Y-88739122D01*
X162035995Y-88741525D01*
X162060381Y-88739124D01*
X162083830Y-88732012D01*
X162105442Y-88720462D01*
X162124384Y-88704917D01*
X162139931Y-88685976D01*
X162151483Y-88664365D01*
X162152522Y-88660940D01*
X162175516Y-88605428D01*
X162225492Y-88484775D01*
X162325584Y-88334977D01*
X162325586Y-88334974D01*
X162452974Y-88207586D01*
X162602774Y-88107493D01*
X162602775Y-88107492D01*
X162769221Y-88038548D01*
X162769222Y-88038548D01*
X162769224Y-88038547D01*
X162945918Y-88003400D01*
X163126082Y-88003400D01*
X163302776Y-88038547D01*
X163302778Y-88038548D01*
X163302779Y-88038548D01*
X163469225Y-88107492D01*
X163469226Y-88107493D01*
X163619026Y-88207586D01*
X163746414Y-88334974D01*
X163746416Y-88334977D01*
X163846508Y-88484775D01*
X163903137Y-88621490D01*
X163919475Y-88660933D01*
X163920513Y-88664355D01*
X163932063Y-88685967D01*
X163947608Y-88704909D01*
X163966549Y-88720456D01*
X163988160Y-88732008D01*
X164011608Y-88739122D01*
X164035995Y-88741525D01*
X164060381Y-88739124D01*
X164083830Y-88732012D01*
X164105442Y-88720462D01*
X164124384Y-88704917D01*
X164139931Y-88685976D01*
X164151483Y-88664365D01*
X164152522Y-88660940D01*
X164175516Y-88605428D01*
X164225492Y-88484775D01*
X164325584Y-88334977D01*
X164325586Y-88334974D01*
X164452974Y-88207586D01*
X164602774Y-88107493D01*
X164602775Y-88107492D01*
X164769221Y-88038548D01*
X164769222Y-88038548D01*
X164769224Y-88038547D01*
X164945918Y-88003400D01*
X165126082Y-88003400D01*
X165302776Y-88038547D01*
X165302778Y-88038548D01*
X165302779Y-88038548D01*
X165469225Y-88107492D01*
X165469226Y-88107493D01*
X165619026Y-88207586D01*
X165746414Y-88334974D01*
X165746416Y-88334977D01*
X165846508Y-88484775D01*
X165903137Y-88621490D01*
X165919475Y-88660933D01*
X165920513Y-88664355D01*
X165932063Y-88685967D01*
X165947608Y-88704909D01*
X165966549Y-88720456D01*
X165988160Y-88732008D01*
X166011608Y-88739122D01*
X166035995Y-88741525D01*
X166060381Y-88739124D01*
X166083830Y-88732012D01*
X166105442Y-88720462D01*
X166124384Y-88704917D01*
X166139931Y-88685976D01*
X166151483Y-88664365D01*
X166152522Y-88660940D01*
X166175516Y-88605428D01*
X166225492Y-88484775D01*
X166325584Y-88334977D01*
X166325586Y-88334974D01*
X166452974Y-88207586D01*
X166602774Y-88107493D01*
X166602775Y-88107492D01*
X166769221Y-88038548D01*
X166769222Y-88038548D01*
X166769224Y-88038547D01*
X166945918Y-88003400D01*
X167126082Y-88003400D01*
X167302776Y-88038547D01*
X167302778Y-88038548D01*
X167302779Y-88038548D01*
X167469225Y-88107492D01*
X167469226Y-88107493D01*
X167619026Y-88207586D01*
X167746414Y-88334974D01*
X167746416Y-88334977D01*
X167846508Y-88484775D01*
X167903137Y-88621490D01*
X167919475Y-88660933D01*
X167920513Y-88664355D01*
X167932063Y-88685967D01*
X167947608Y-88704909D01*
X167966549Y-88720456D01*
X167988160Y-88732008D01*
X168011608Y-88739122D01*
X168035995Y-88741525D01*
X168060381Y-88739124D01*
X168083830Y-88732012D01*
X168105442Y-88720462D01*
X168124384Y-88704917D01*
X168139931Y-88685976D01*
X168151483Y-88664365D01*
X168152522Y-88660940D01*
X168175516Y-88605428D01*
X168225492Y-88484775D01*
X168325584Y-88334977D01*
X168325586Y-88334974D01*
X168452974Y-88207586D01*
X168602774Y-88107493D01*
X168602775Y-88107492D01*
X168769221Y-88038548D01*
X168769222Y-88038548D01*
X168769224Y-88038547D01*
X168945918Y-88003400D01*
X169126082Y-88003400D01*
X169302776Y-88038547D01*
X169302778Y-88038548D01*
X169302779Y-88038548D01*
X169469225Y-88107492D01*
X169469226Y-88107493D01*
X169619026Y-88207586D01*
X169746414Y-88334974D01*
X169746416Y-88334977D01*
X169846508Y-88484775D01*
X169903137Y-88621490D01*
X169919475Y-88660933D01*
X169920513Y-88664355D01*
X169932063Y-88685967D01*
X169947608Y-88704909D01*
X169966549Y-88720456D01*
X169988160Y-88732008D01*
X170011608Y-88739122D01*
X170035995Y-88741525D01*
X170060381Y-88739124D01*
X170083830Y-88732012D01*
X170105442Y-88720462D01*
X170124384Y-88704917D01*
X170139931Y-88685976D01*
X170151483Y-88664365D01*
X170152522Y-88660940D01*
X170175516Y-88605428D01*
X170225492Y-88484775D01*
X170325584Y-88334977D01*
X170325586Y-88334974D01*
X170452974Y-88207586D01*
X170602774Y-88107493D01*
X170602775Y-88107492D01*
X170769221Y-88038548D01*
X170769222Y-88038548D01*
X170769224Y-88038547D01*
X170945918Y-88003400D01*
X171126082Y-88003400D01*
X171302776Y-88038547D01*
X171302778Y-88038548D01*
X171302779Y-88038548D01*
X171469225Y-88107492D01*
X171469226Y-88107493D01*
X171619026Y-88207586D01*
X171746414Y-88334974D01*
X171746416Y-88334977D01*
X171846508Y-88484775D01*
X171903137Y-88621490D01*
X171919475Y-88660933D01*
X171920513Y-88664355D01*
X171932063Y-88685967D01*
X171947608Y-88704909D01*
X171966549Y-88720456D01*
X171988160Y-88732008D01*
X172011608Y-88739122D01*
X172035995Y-88741525D01*
X172060381Y-88739124D01*
X172083830Y-88732012D01*
X172105442Y-88720462D01*
X172124384Y-88704917D01*
X172139931Y-88685976D01*
X172151483Y-88664365D01*
X172152522Y-88660940D01*
X172175516Y-88605428D01*
X172225492Y-88484775D01*
X172325584Y-88334977D01*
X172325586Y-88334974D01*
X172452974Y-88207586D01*
X172602774Y-88107493D01*
X172602775Y-88107492D01*
X172769221Y-88038548D01*
X172769222Y-88038548D01*
X172769224Y-88038547D01*
X172945918Y-88003400D01*
X173126082Y-88003400D01*
X173302776Y-88038547D01*
X173302778Y-88038548D01*
X173302779Y-88038548D01*
X173469225Y-88107492D01*
X173469226Y-88107493D01*
X173619026Y-88207586D01*
X173746414Y-88334974D01*
X173746416Y-88334977D01*
X173846508Y-88484775D01*
X173903137Y-88621490D01*
X173919475Y-88660933D01*
X173920513Y-88664355D01*
X173932063Y-88685967D01*
X173947608Y-88704909D01*
X173966549Y-88720456D01*
X173988160Y-88732008D01*
X174011608Y-88739122D01*
X174035995Y-88741525D01*
X174060381Y-88739124D01*
X174083830Y-88732012D01*
X174105442Y-88720462D01*
X174124384Y-88704917D01*
X174139931Y-88685976D01*
X174151483Y-88664365D01*
X174152522Y-88660940D01*
X174175516Y-88605428D01*
X174225492Y-88484775D01*
X174325584Y-88334977D01*
X174325586Y-88334974D01*
X174452974Y-88207586D01*
X174602774Y-88107493D01*
X174602775Y-88107492D01*
X174769221Y-88038548D01*
X174769222Y-88038548D01*
X174769224Y-88038547D01*
X174945918Y-88003400D01*
X175126082Y-88003400D01*
X175302776Y-88038547D01*
X175302778Y-88038548D01*
X175302779Y-88038548D01*
X175469225Y-88107492D01*
X175469226Y-88107493D01*
X175619026Y-88207586D01*
X175746414Y-88334974D01*
X175746416Y-88334977D01*
X175846508Y-88484775D01*
X175915452Y-88651221D01*
X175915453Y-88651224D01*
X175950600Y-88827918D01*
X175950600Y-89008082D01*
X175917386Y-89175060D01*
X175915452Y-89184779D01*
X175846508Y-89351225D01*
X175846507Y-89351226D01*
X175746414Y-89501026D01*
X175619026Y-89628414D01*
X175619023Y-89628416D01*
X175469225Y-89728508D01*
X175302779Y-89797452D01*
X175302778Y-89797452D01*
X175302776Y-89797453D01*
X175126082Y-89832600D01*
X174945918Y-89832600D01*
X174769224Y-89797453D01*
X174769222Y-89797452D01*
X174769221Y-89797452D01*
X174602775Y-89728508D01*
X174452977Y-89628416D01*
X174452974Y-89628414D01*
X174325586Y-89501026D01*
X174225493Y-89351226D01*
X174225492Y-89351225D01*
X174156548Y-89184779D01*
X174156547Y-89184776D01*
X174152525Y-89175067D01*
X174151487Y-89171645D01*
X174139937Y-89150033D01*
X174124392Y-89131091D01*
X174105451Y-89115544D01*
X174083840Y-89103992D01*
X174060392Y-89096878D01*
X174036005Y-89094475D01*
X174011619Y-89096876D01*
X173988170Y-89103988D01*
X173966558Y-89115538D01*
X173947616Y-89131083D01*
X173932069Y-89150024D01*
X173920517Y-89171635D01*
X173919478Y-89175060D01*
X173915453Y-89184776D01*
X173915452Y-89184779D01*
X173846508Y-89351225D01*
X173846507Y-89351226D01*
X173746414Y-89501026D01*
X173619026Y-89628414D01*
X173619023Y-89628416D01*
X173469225Y-89728508D01*
X173302779Y-89797452D01*
X173302778Y-89797452D01*
X173302776Y-89797453D01*
X173126082Y-89832600D01*
X172945918Y-89832600D01*
X172769224Y-89797453D01*
X172769222Y-89797452D01*
X172769221Y-89797452D01*
X172602775Y-89728508D01*
X172452977Y-89628416D01*
X172452974Y-89628414D01*
X172325586Y-89501026D01*
X172225493Y-89351226D01*
X172225492Y-89351225D01*
X172156548Y-89184779D01*
X172156547Y-89184776D01*
X172152525Y-89175067D01*
X172151487Y-89171645D01*
X172139937Y-89150033D01*
X172124392Y-89131091D01*
X172105451Y-89115544D01*
X172083840Y-89103992D01*
X172060392Y-89096878D01*
X172036005Y-89094475D01*
X172011619Y-89096876D01*
X171988170Y-89103988D01*
X171966558Y-89115538D01*
X171947616Y-89131083D01*
X171932069Y-89150024D01*
X171920517Y-89171635D01*
X171919478Y-89175060D01*
X171915453Y-89184776D01*
X171915452Y-89184779D01*
X171846508Y-89351225D01*
X171846507Y-89351226D01*
X171746414Y-89501026D01*
X171619026Y-89628414D01*
X171619023Y-89628416D01*
X171469225Y-89728508D01*
X171302779Y-89797452D01*
X171302778Y-89797452D01*
X171302776Y-89797453D01*
X171126082Y-89832600D01*
X170945918Y-89832600D01*
X170769224Y-89797453D01*
X170769222Y-89797452D01*
X170769221Y-89797452D01*
X170602775Y-89728508D01*
X170452977Y-89628416D01*
X170452974Y-89628414D01*
X170325586Y-89501026D01*
X170225493Y-89351226D01*
X170225492Y-89351225D01*
X170156548Y-89184779D01*
X170156547Y-89184776D01*
X170152525Y-89175067D01*
X170151487Y-89171645D01*
X170139937Y-89150033D01*
X170124392Y-89131091D01*
X170105451Y-89115544D01*
X170083840Y-89103992D01*
X170060392Y-89096878D01*
X170036005Y-89094475D01*
X170011619Y-89096876D01*
X169988170Y-89103988D01*
X169966558Y-89115538D01*
X169947616Y-89131083D01*
X169932069Y-89150024D01*
X169920517Y-89171635D01*
X169919478Y-89175060D01*
X169915453Y-89184776D01*
X169915452Y-89184779D01*
X169846508Y-89351225D01*
X169846507Y-89351226D01*
X169746414Y-89501026D01*
X169619026Y-89628414D01*
X169619023Y-89628416D01*
X169469225Y-89728508D01*
X169302779Y-89797452D01*
X169302778Y-89797452D01*
X169302776Y-89797453D01*
X169126082Y-89832600D01*
X168945918Y-89832600D01*
X168769224Y-89797453D01*
X168769222Y-89797452D01*
X168769221Y-89797452D01*
X168602775Y-89728508D01*
X168452977Y-89628416D01*
X168452974Y-89628414D01*
X168325586Y-89501026D01*
X168225493Y-89351226D01*
X168225492Y-89351225D01*
X168156548Y-89184779D01*
X168156547Y-89184776D01*
X168152525Y-89175067D01*
X168151487Y-89171645D01*
X168139937Y-89150033D01*
X168124392Y-89131091D01*
X168105451Y-89115544D01*
X168083840Y-89103992D01*
X168060392Y-89096878D01*
X168036005Y-89094475D01*
X168011619Y-89096876D01*
X167988170Y-89103988D01*
X167966558Y-89115538D01*
X167947616Y-89131083D01*
X167932069Y-89150024D01*
X167920517Y-89171635D01*
X167919478Y-89175060D01*
X167915453Y-89184776D01*
X167915452Y-89184779D01*
X167846508Y-89351225D01*
X167846507Y-89351226D01*
X167746414Y-89501026D01*
X167619026Y-89628414D01*
X167619023Y-89628416D01*
X167469225Y-89728508D01*
X167302779Y-89797452D01*
X167302778Y-89797452D01*
X167302776Y-89797453D01*
X167126082Y-89832600D01*
X166945918Y-89832600D01*
X166769224Y-89797453D01*
X166769222Y-89797452D01*
X166769221Y-89797452D01*
X166602775Y-89728508D01*
X166452977Y-89628416D01*
X166452974Y-89628414D01*
X166325586Y-89501026D01*
X166225493Y-89351226D01*
X166225492Y-89351225D01*
X166156548Y-89184779D01*
X166156547Y-89184776D01*
X166152525Y-89175067D01*
X166151487Y-89171645D01*
X166139937Y-89150033D01*
X166124392Y-89131091D01*
X166105451Y-89115544D01*
X166083840Y-89103992D01*
X166060392Y-89096878D01*
X166036005Y-89094475D01*
X166011619Y-89096876D01*
X165988170Y-89103988D01*
X165966558Y-89115538D01*
X165947616Y-89131083D01*
X165932069Y-89150024D01*
X165920517Y-89171635D01*
X165919478Y-89175060D01*
X165915453Y-89184776D01*
X165915452Y-89184779D01*
X165846508Y-89351225D01*
X165846507Y-89351226D01*
X165746414Y-89501026D01*
X165619026Y-89628414D01*
X165619023Y-89628416D01*
X165469225Y-89728508D01*
X165302779Y-89797452D01*
X165302778Y-89797452D01*
X165302776Y-89797453D01*
X165126082Y-89832600D01*
X164945918Y-89832600D01*
X164769224Y-89797453D01*
X164769222Y-89797452D01*
X164769221Y-89797452D01*
X164602775Y-89728508D01*
X164452977Y-89628416D01*
X164452974Y-89628414D01*
X164325586Y-89501026D01*
X164225493Y-89351226D01*
X164225492Y-89351225D01*
X164156548Y-89184779D01*
X164156547Y-89184776D01*
X164152525Y-89175067D01*
X164151487Y-89171645D01*
X164139937Y-89150033D01*
X164124392Y-89131091D01*
X164105451Y-89115544D01*
X164083840Y-89103992D01*
X164060392Y-89096878D01*
X164036005Y-89094475D01*
X164011619Y-89096876D01*
X163988170Y-89103988D01*
X163966558Y-89115538D01*
X163947616Y-89131083D01*
X163932069Y-89150024D01*
X163920517Y-89171635D01*
X163919478Y-89175060D01*
X163915453Y-89184776D01*
X163915452Y-89184779D01*
X163846508Y-89351225D01*
X163846507Y-89351226D01*
X163746414Y-89501026D01*
X163619026Y-89628414D01*
X163619023Y-89628416D01*
X163469225Y-89728508D01*
X163302779Y-89797452D01*
X163302778Y-89797452D01*
X163302776Y-89797453D01*
X163126082Y-89832600D01*
X162945918Y-89832600D01*
X162769224Y-89797453D01*
X162769222Y-89797452D01*
X162769221Y-89797452D01*
X162602775Y-89728508D01*
X162452977Y-89628416D01*
X162452974Y-89628414D01*
X162325586Y-89501026D01*
X162225493Y-89351226D01*
X162225492Y-89351225D01*
X162156548Y-89184779D01*
X162156547Y-89184776D01*
X162152525Y-89175067D01*
X162151487Y-89171645D01*
X162139937Y-89150033D01*
X162124392Y-89131091D01*
X162105451Y-89115544D01*
X162083840Y-89103992D01*
X162060392Y-89096878D01*
X162036005Y-89094475D01*
X162011619Y-89096876D01*
X161988170Y-89103988D01*
X161966558Y-89115538D01*
X161947616Y-89131083D01*
X161932069Y-89150024D01*
X161920517Y-89171635D01*
X161919478Y-89175060D01*
X161915453Y-89184776D01*
X161915452Y-89184779D01*
X161846508Y-89351225D01*
X161846507Y-89351226D01*
X161746414Y-89501026D01*
X161619026Y-89628414D01*
X161619023Y-89628416D01*
X161469225Y-89728508D01*
X161302779Y-89797452D01*
X161302778Y-89797452D01*
X161302776Y-89797453D01*
X161126082Y-89832600D01*
X160945918Y-89832600D01*
X160769224Y-89797453D01*
X160769222Y-89797452D01*
X160769221Y-89797452D01*
X160602775Y-89728508D01*
X160452977Y-89628416D01*
X160452974Y-89628414D01*
X160325586Y-89501026D01*
X160225493Y-89351226D01*
X160225492Y-89351225D01*
X160156548Y-89184779D01*
X160154615Y-89175060D01*
X160121400Y-89008082D01*
X160121400Y-88827918D01*
X160156547Y-88651224D01*
X160156548Y-88651221D01*
X160225492Y-88484775D01*
X160325584Y-88334977D01*
X160325586Y-88334974D01*
X160452974Y-88207586D01*
X160602774Y-88107493D01*
X160602775Y-88107492D01*
X160769221Y-88038548D01*
X160769222Y-88038548D01*
X160769224Y-88038547D01*
X160945918Y-88003400D01*
X161126082Y-88003400D01*
X161302776Y-88038547D01*
X161302776Y-88038547D01*
G37*
G36*
X154317000Y-87769000D02*
G01*
X152515000Y-87769000D01*
X152515000Y-85967000D01*
X154317000Y-85967000D01*
X154317000Y-87769000D01*
X154317000Y-87769000D01*
G37*
G36*
X156066443Y-85973519D02*
G01*
X156132627Y-85980037D01*
X156239541Y-86012469D01*
X156302467Y-86031557D01*
X156441087Y-86105652D01*
X156458991Y-86115222D01*
X156494729Y-86144552D01*
X156596186Y-86227814D01*
X156646399Y-86289000D01*
X156708778Y-86365009D01*
X156708779Y-86365011D01*
X156792443Y-86521533D01*
X156792443Y-86521534D01*
X156843963Y-86691373D01*
X156861359Y-86868000D01*
X156843963Y-87044627D01*
X156809616Y-87157853D01*
X156792443Y-87214467D01*
X156718348Y-87353087D01*
X156708778Y-87370991D01*
X156679448Y-87406729D01*
X156596186Y-87508186D01*
X156494729Y-87591448D01*
X156458991Y-87620778D01*
X156458989Y-87620779D01*
X156302467Y-87704443D01*
X156245853Y-87721616D01*
X156132627Y-87755963D01*
X156066442Y-87762482D01*
X156000260Y-87769000D01*
X155911740Y-87769000D01*
X155845558Y-87762482D01*
X155779373Y-87755963D01*
X155666147Y-87721616D01*
X155609533Y-87704443D01*
X155453011Y-87620779D01*
X155453009Y-87620778D01*
X155417271Y-87591448D01*
X155315814Y-87508186D01*
X155232552Y-87406729D01*
X155203222Y-87370991D01*
X155193652Y-87353087D01*
X155119557Y-87214467D01*
X155102384Y-87157853D01*
X155068037Y-87044627D01*
X155050641Y-86868000D01*
X155068037Y-86691373D01*
X155119557Y-86521534D01*
X155119557Y-86521533D01*
X155203221Y-86365011D01*
X155203222Y-86365009D01*
X155265601Y-86289000D01*
X155315814Y-86227814D01*
X155417271Y-86144552D01*
X155453009Y-86115222D01*
X155470913Y-86105652D01*
X155609533Y-86031557D01*
X155672459Y-86012469D01*
X155779373Y-85980037D01*
X155845557Y-85973519D01*
X155911740Y-85967000D01*
X156000260Y-85967000D01*
X156066443Y-85973519D01*
X156066443Y-85973519D01*
G37*
G36*
X102637714Y-85046058D02*
G01*
X102637717Y-85046059D01*
X102755719Y-85081854D01*
X102755721Y-85081855D01*
X102864471Y-85139983D01*
X102959790Y-85218210D01*
X103038017Y-85313529D01*
X103096145Y-85422279D01*
X103131942Y-85540286D01*
X103144028Y-85663000D01*
X103131942Y-85785714D01*
X103096145Y-85903721D01*
X103038017Y-86012471D01*
X102959790Y-86107790D01*
X102864471Y-86186017D01*
X102864469Y-86186018D01*
X102755719Y-86244146D01*
X102659683Y-86273278D01*
X102637714Y-86279942D01*
X102545747Y-86289000D01*
X101834253Y-86289000D01*
X101742286Y-86279942D01*
X101720317Y-86273278D01*
X101624281Y-86244146D01*
X101515531Y-86186018D01*
X101515529Y-86186017D01*
X101420210Y-86107790D01*
X101341983Y-86012471D01*
X101283855Y-85903721D01*
X101248058Y-85785714D01*
X101235972Y-85663000D01*
X101248058Y-85540286D01*
X101283855Y-85422279D01*
X101341983Y-85313529D01*
X101420210Y-85218210D01*
X101515529Y-85139983D01*
X101624279Y-85081855D01*
X101624281Y-85081854D01*
X101742283Y-85046059D01*
X101742286Y-85046058D01*
X101834253Y-85037000D01*
X102545747Y-85037000D01*
X102637714Y-85046058D01*
X102637714Y-85046058D01*
G37*
G36*
X105028413Y-83843525D02*
G01*
X105103456Y-83866290D01*
X105113425Y-83869314D01*
X105191774Y-83911193D01*
X105260448Y-83967552D01*
X105316807Y-84036226D01*
X105358686Y-84114575D01*
X105358687Y-84114579D01*
X105384475Y-84199587D01*
X105393182Y-84288000D01*
X105384475Y-84376413D01*
X105361710Y-84451456D01*
X105358686Y-84461425D01*
X105330191Y-84514735D01*
X105316807Y-84539775D01*
X105291496Y-84570615D01*
X105267850Y-84599429D01*
X105254239Y-84619798D01*
X105244862Y-84642437D01*
X105240081Y-84666471D01*
X105240081Y-84690975D01*
X105244861Y-84715008D01*
X105254238Y-84737648D01*
X105267852Y-84758022D01*
X105285179Y-84775350D01*
X105305553Y-84788964D01*
X105328192Y-84798341D01*
X105352226Y-84803122D01*
X105376730Y-84803122D01*
X105400763Y-84798342D01*
X105409212Y-84794843D01*
X105416599Y-84792602D01*
X105416601Y-84792601D01*
X105562878Y-84748229D01*
X105562881Y-84748228D01*
X105676882Y-84737000D01*
X106303118Y-84737000D01*
X106417119Y-84748228D01*
X106417122Y-84748229D01*
X106563399Y-84792601D01*
X106563401Y-84792602D01*
X106698210Y-84864659D01*
X106816369Y-84961631D01*
X106913341Y-85079790D01*
X106913342Y-85079792D01*
X106985399Y-85214601D01*
X107015408Y-85313529D01*
X107029772Y-85360881D01*
X107044754Y-85513000D01*
X107029772Y-85665119D01*
X106985398Y-85811401D01*
X106913341Y-85946210D01*
X106816369Y-86064369D01*
X106698210Y-86161341D01*
X106652043Y-86186018D01*
X106563399Y-86233399D01*
X106444352Y-86269511D01*
X106417119Y-86277772D01*
X106303118Y-86289000D01*
X105676882Y-86289000D01*
X105562881Y-86277772D01*
X105535648Y-86269511D01*
X105416601Y-86233399D01*
X105327957Y-86186018D01*
X105281790Y-86161341D01*
X105163631Y-86064369D01*
X105066659Y-85946210D01*
X104994602Y-85811401D01*
X104950228Y-85665119D01*
X104935246Y-85513000D01*
X104950228Y-85360881D01*
X104964592Y-85313529D01*
X104994601Y-85214601D01*
X105066658Y-85079792D01*
X105066659Y-85079790D01*
X105163632Y-84961630D01*
X105200105Y-84931696D01*
X105217432Y-84914369D01*
X105231046Y-84893994D01*
X105240423Y-84871355D01*
X105245203Y-84847322D01*
X105245203Y-84822817D01*
X105240422Y-84798784D01*
X105231044Y-84776145D01*
X105217430Y-84755771D01*
X105200103Y-84738444D01*
X105179728Y-84724830D01*
X105157089Y-84715453D01*
X105133056Y-84710673D01*
X105108551Y-84710673D01*
X105084524Y-84715453D01*
X105063489Y-84721833D01*
X105028411Y-84732475D01*
X104962158Y-84739000D01*
X104917842Y-84739000D01*
X104851587Y-84732475D01*
X104776544Y-84709710D01*
X104766575Y-84706686D01*
X104688226Y-84664807D01*
X104619552Y-84608448D01*
X104563193Y-84539774D01*
X104521314Y-84461425D01*
X104518290Y-84451456D01*
X104495525Y-84376413D01*
X104486818Y-84288000D01*
X104495525Y-84199587D01*
X104521313Y-84114579D01*
X104521314Y-84114575D01*
X104563193Y-84036226D01*
X104619552Y-83967552D01*
X104688226Y-83911193D01*
X104766575Y-83869314D01*
X104776544Y-83866290D01*
X104851587Y-83843525D01*
X104917842Y-83837000D01*
X104962158Y-83837000D01*
X105028413Y-83843525D01*
X105028413Y-83843525D01*
G37*
G36*
X171316142Y-82582442D02*
G01*
X171464102Y-82643730D01*
X171597258Y-82732702D01*
X171710498Y-82845942D01*
X171799470Y-82979098D01*
X171860758Y-83127058D01*
X171892000Y-83284125D01*
X171892000Y-83444275D01*
X171860758Y-83601342D01*
X171799470Y-83749302D01*
X171710498Y-83882458D01*
X171597258Y-83995698D01*
X171464102Y-84084670D01*
X171316142Y-84145958D01*
X171159075Y-84177200D01*
X170998925Y-84177200D01*
X170841858Y-84145958D01*
X170693898Y-84084670D01*
X170560742Y-83995698D01*
X170447502Y-83882458D01*
X170358530Y-83749302D01*
X170297242Y-83601342D01*
X170266000Y-83444275D01*
X170266000Y-83284125D01*
X170297242Y-83127058D01*
X170358530Y-82979098D01*
X170447502Y-82845942D01*
X170560742Y-82732702D01*
X170693898Y-82643730D01*
X170841858Y-82582442D01*
X170998925Y-82551200D01*
X171159075Y-82551200D01*
X171316142Y-82582442D01*
X171316142Y-82582442D01*
G37*
G36*
X173856142Y-82582442D02*
G01*
X174004102Y-82643730D01*
X174137258Y-82732702D01*
X174250498Y-82845942D01*
X174339470Y-82979098D01*
X174400758Y-83127058D01*
X174432000Y-83284125D01*
X174432000Y-83444275D01*
X174400758Y-83601342D01*
X174339470Y-83749302D01*
X174250498Y-83882458D01*
X174137258Y-83995698D01*
X174004102Y-84084670D01*
X173856142Y-84145958D01*
X173699075Y-84177200D01*
X173538925Y-84177200D01*
X173381858Y-84145958D01*
X173233898Y-84084670D01*
X173100742Y-83995698D01*
X172987502Y-83882458D01*
X172898530Y-83749302D01*
X172837242Y-83601342D01*
X172806000Y-83444275D01*
X172806000Y-83284125D01*
X172837242Y-83127058D01*
X172898530Y-82979098D01*
X172987502Y-82845942D01*
X173100742Y-82732702D01*
X173233898Y-82643730D01*
X173381858Y-82582442D01*
X173538925Y-82551200D01*
X173699075Y-82551200D01*
X173856142Y-82582442D01*
X173856142Y-82582442D01*
G37*
G36*
X168776142Y-82582442D02*
G01*
X168924102Y-82643730D01*
X169057258Y-82732702D01*
X169170498Y-82845942D01*
X169259470Y-82979098D01*
X169320758Y-83127058D01*
X169352000Y-83284125D01*
X169352000Y-83444275D01*
X169320758Y-83601342D01*
X169259470Y-83749302D01*
X169170498Y-83882458D01*
X169057258Y-83995698D01*
X168924102Y-84084670D01*
X168776142Y-84145958D01*
X168619075Y-84177200D01*
X168458925Y-84177200D01*
X168301858Y-84145958D01*
X168153898Y-84084670D01*
X168020742Y-83995698D01*
X167907502Y-83882458D01*
X167818530Y-83749302D01*
X167757242Y-83601342D01*
X167726000Y-83444275D01*
X167726000Y-83284125D01*
X167757242Y-83127058D01*
X167818530Y-82979098D01*
X167907502Y-82845942D01*
X168020742Y-82732702D01*
X168153898Y-82643730D01*
X168301858Y-82582442D01*
X168458925Y-82551200D01*
X168619075Y-82551200D01*
X168776142Y-82582442D01*
X168776142Y-82582442D01*
G37*
G36*
X166236142Y-82582442D02*
G01*
X166384102Y-82643730D01*
X166517258Y-82732702D01*
X166630498Y-82845942D01*
X166719470Y-82979098D01*
X166780758Y-83127058D01*
X166812000Y-83284125D01*
X166812000Y-83444275D01*
X166780758Y-83601342D01*
X166719470Y-83749302D01*
X166630498Y-83882458D01*
X166517258Y-83995698D01*
X166384102Y-84084670D01*
X166236142Y-84145958D01*
X166079075Y-84177200D01*
X165918925Y-84177200D01*
X165761858Y-84145958D01*
X165613898Y-84084670D01*
X165480742Y-83995698D01*
X165367502Y-83882458D01*
X165278530Y-83749302D01*
X165217242Y-83601342D01*
X165186000Y-83444275D01*
X165186000Y-83284125D01*
X165217242Y-83127058D01*
X165278530Y-82979098D01*
X165367502Y-82845942D01*
X165480742Y-82732702D01*
X165613898Y-82643730D01*
X165761858Y-82582442D01*
X165918925Y-82551200D01*
X166079075Y-82551200D01*
X166236142Y-82582442D01*
X166236142Y-82582442D01*
G37*
G36*
X154725000Y-82843000D02*
G01*
X153123000Y-82843000D01*
X153123000Y-81241000D01*
X154725000Y-81241000D01*
X154725000Y-82843000D01*
X154725000Y-82843000D01*
G37*
G36*
X142727643Y-80763781D02*
G01*
X142873415Y-80824162D01*
X143004611Y-80911824D01*
X143116176Y-81023389D01*
X143203838Y-81154585D01*
X143264219Y-81300357D01*
X143295000Y-81455107D01*
X143295000Y-81612893D01*
X143264219Y-81767643D01*
X143203838Y-81913415D01*
X143116176Y-82044611D01*
X143004611Y-82156176D01*
X142873415Y-82243838D01*
X142727643Y-82304219D01*
X142572893Y-82335000D01*
X142415107Y-82335000D01*
X142260357Y-82304219D01*
X142114585Y-82243838D01*
X141983389Y-82156176D01*
X141871824Y-82044611D01*
X141784162Y-81913415D01*
X141723781Y-81767643D01*
X141693000Y-81612893D01*
X141693000Y-81455107D01*
X141723781Y-81300357D01*
X141784162Y-81154585D01*
X141871824Y-81023389D01*
X141983389Y-80911824D01*
X142114585Y-80824162D01*
X142260357Y-80763781D01*
X142415107Y-80733000D01*
X142572893Y-80733000D01*
X142727643Y-80763781D01*
X142727643Y-80763781D01*
G37*
G36*
X147607643Y-80763781D02*
G01*
X147753415Y-80824162D01*
X147884611Y-80911824D01*
X147996176Y-81023389D01*
X148083838Y-81154585D01*
X148144219Y-81300357D01*
X148175000Y-81455107D01*
X148175000Y-81612893D01*
X148144219Y-81767643D01*
X148083838Y-81913415D01*
X147996176Y-82044611D01*
X147884611Y-82156176D01*
X147753415Y-82243838D01*
X147607643Y-82304219D01*
X147452893Y-82335000D01*
X147295107Y-82335000D01*
X147140357Y-82304219D01*
X146994585Y-82243838D01*
X146863389Y-82156176D01*
X146751824Y-82044611D01*
X146664162Y-81913415D01*
X146603781Y-81767643D01*
X146573000Y-81612893D01*
X146573000Y-81455107D01*
X146603781Y-81300357D01*
X146664162Y-81154585D01*
X146751824Y-81023389D01*
X146863389Y-80911824D01*
X146994585Y-80824162D01*
X147140357Y-80763781D01*
X147295107Y-80733000D01*
X147452893Y-80733000D01*
X147607643Y-80763781D01*
X147607643Y-80763781D01*
G37*
G36*
X181394000Y-81675200D02*
G01*
X179692000Y-81675200D01*
X179692000Y-79973200D01*
X181394000Y-79973200D01*
X181394000Y-81675200D01*
X181394000Y-81675200D01*
G37*
G36*
X168776142Y-80042442D02*
G01*
X168924102Y-80103730D01*
X169057258Y-80192702D01*
X169170498Y-80305942D01*
X169259470Y-80439098D01*
X169320758Y-80587058D01*
X169352000Y-80744125D01*
X169352000Y-80904275D01*
X169320758Y-81061342D01*
X169259470Y-81209302D01*
X169170498Y-81342458D01*
X169057258Y-81455698D01*
X168924102Y-81544670D01*
X168776142Y-81605958D01*
X168619075Y-81637200D01*
X168458925Y-81637200D01*
X168301858Y-81605958D01*
X168153898Y-81544670D01*
X168020742Y-81455698D01*
X167907502Y-81342458D01*
X167818530Y-81209302D01*
X167757242Y-81061342D01*
X167726000Y-80904275D01*
X167726000Y-80744125D01*
X167757242Y-80587058D01*
X167818530Y-80439098D01*
X167907502Y-80305942D01*
X168020742Y-80192702D01*
X168153898Y-80103730D01*
X168301858Y-80042442D01*
X168458925Y-80011200D01*
X168619075Y-80011200D01*
X168776142Y-80042442D01*
X168776142Y-80042442D01*
G37*
G36*
X166236142Y-80042442D02*
G01*
X166384102Y-80103730D01*
X166517258Y-80192702D01*
X166630498Y-80305942D01*
X166719470Y-80439098D01*
X166780758Y-80587058D01*
X166812000Y-80744125D01*
X166812000Y-80904275D01*
X166780758Y-81061342D01*
X166719470Y-81209302D01*
X166630498Y-81342458D01*
X166517258Y-81455698D01*
X166384102Y-81544670D01*
X166236142Y-81605958D01*
X166079075Y-81637200D01*
X165918925Y-81637200D01*
X165761858Y-81605958D01*
X165613898Y-81544670D01*
X165480742Y-81455698D01*
X165367502Y-81342458D01*
X165278530Y-81209302D01*
X165217242Y-81061342D01*
X165186000Y-80904275D01*
X165186000Y-80744125D01*
X165217242Y-80587058D01*
X165278530Y-80439098D01*
X165367502Y-80305942D01*
X165480742Y-80192702D01*
X165613898Y-80103730D01*
X165761858Y-80042442D01*
X165918925Y-80011200D01*
X166079075Y-80011200D01*
X166236142Y-80042442D01*
X166236142Y-80042442D01*
G37*
G36*
X171316142Y-80042442D02*
G01*
X171464102Y-80103730D01*
X171597258Y-80192702D01*
X171710498Y-80305942D01*
X171799470Y-80439098D01*
X171860758Y-80587058D01*
X171892000Y-80744125D01*
X171892000Y-80904275D01*
X171860758Y-81061342D01*
X171799470Y-81209302D01*
X171710498Y-81342458D01*
X171597258Y-81455698D01*
X171464102Y-81544670D01*
X171316142Y-81605958D01*
X171159075Y-81637200D01*
X170998925Y-81637200D01*
X170841858Y-81605958D01*
X170693898Y-81544670D01*
X170560742Y-81455698D01*
X170447502Y-81342458D01*
X170358530Y-81209302D01*
X170297242Y-81061342D01*
X170266000Y-80904275D01*
X170266000Y-80744125D01*
X170297242Y-80587058D01*
X170358530Y-80439098D01*
X170447502Y-80305942D01*
X170560742Y-80192702D01*
X170693898Y-80103730D01*
X170841858Y-80042442D01*
X170998925Y-80011200D01*
X171159075Y-80011200D01*
X171316142Y-80042442D01*
X171316142Y-80042442D01*
G37*
G36*
X174432000Y-81637200D02*
G01*
X172806000Y-81637200D01*
X172806000Y-80011200D01*
X174432000Y-80011200D01*
X174432000Y-81637200D01*
X174432000Y-81637200D01*
G37*
G36*
X106417119Y-77298228D02*
G01*
X106417122Y-77298229D01*
X106563399Y-77342601D01*
X106563401Y-77342602D01*
X106698210Y-77414659D01*
X106816369Y-77511631D01*
X106913341Y-77629790D01*
X106936052Y-77672279D01*
X106985399Y-77764601D01*
X106993189Y-77790283D01*
X107029772Y-77910881D01*
X107044754Y-78063000D01*
X107029772Y-78215119D01*
X107029771Y-78215122D01*
X106986494Y-78357790D01*
X106985398Y-78361401D01*
X106913341Y-78496210D01*
X106816369Y-78614369D01*
X106698210Y-78711341D01*
X106698208Y-78711342D01*
X106563399Y-78783399D01*
X106506509Y-78800656D01*
X106417119Y-78827772D01*
X106303118Y-78839000D01*
X105676882Y-78839000D01*
X105562881Y-78827772D01*
X105473491Y-78800656D01*
X105416601Y-78783399D01*
X105416599Y-78783398D01*
X105409208Y-78781156D01*
X105400754Y-78777655D01*
X105376721Y-78772877D01*
X105352216Y-78772879D01*
X105328183Y-78777662D01*
X105305545Y-78787041D01*
X105285172Y-78800656D01*
X105267846Y-78817985D01*
X105254234Y-78838361D01*
X105244858Y-78861001D01*
X105240080Y-78885034D01*
X105240082Y-78909539D01*
X105244865Y-78933572D01*
X105254244Y-78956210D01*
X105267850Y-78976571D01*
X105291496Y-79005385D01*
X105316807Y-79036225D01*
X105330191Y-79061265D01*
X105358686Y-79114575D01*
X105358687Y-79114579D01*
X105384475Y-79199587D01*
X105393182Y-79288000D01*
X105384475Y-79376413D01*
X105361710Y-79451456D01*
X105358686Y-79461425D01*
X105316807Y-79539774D01*
X105260448Y-79608448D01*
X105191774Y-79664807D01*
X105113425Y-79706686D01*
X105103456Y-79709710D01*
X105028413Y-79732475D01*
X104962158Y-79739000D01*
X104917842Y-79739000D01*
X104851587Y-79732475D01*
X104776544Y-79709710D01*
X104766575Y-79706686D01*
X104688226Y-79664807D01*
X104619552Y-79608448D01*
X104563193Y-79539774D01*
X104521314Y-79461425D01*
X104518290Y-79451456D01*
X104495525Y-79376413D01*
X104486818Y-79288000D01*
X104495525Y-79199587D01*
X104521313Y-79114579D01*
X104521314Y-79114575D01*
X104563193Y-79036226D01*
X104619552Y-78967552D01*
X104688226Y-78911193D01*
X104766575Y-78869314D01*
X104779719Y-78865327D01*
X104851587Y-78843525D01*
X104917842Y-78837000D01*
X104962158Y-78837000D01*
X105028411Y-78843525D01*
X105063489Y-78854167D01*
X105084524Y-78860547D01*
X105108551Y-78865327D01*
X105133055Y-78865327D01*
X105157089Y-78860547D01*
X105179728Y-78851170D01*
X105200103Y-78837556D01*
X105217430Y-78820230D01*
X105231044Y-78799855D01*
X105240422Y-78777216D01*
X105245203Y-78753183D01*
X105245203Y-78728679D01*
X105240423Y-78704645D01*
X105231046Y-78682006D01*
X105217432Y-78661631D01*
X105200105Y-78644304D01*
X105163632Y-78614370D01*
X105066659Y-78496210D01*
X104994602Y-78361401D01*
X104993507Y-78357790D01*
X104950229Y-78215122D01*
X104950228Y-78215119D01*
X104935246Y-78063000D01*
X104950228Y-77910881D01*
X104986811Y-77790283D01*
X104994601Y-77764601D01*
X105043948Y-77672279D01*
X105066659Y-77629790D01*
X105163631Y-77511631D01*
X105281790Y-77414659D01*
X105416599Y-77342602D01*
X105416601Y-77342601D01*
X105562878Y-77298229D01*
X105562881Y-77298228D01*
X105676882Y-77287000D01*
X106303118Y-77287000D01*
X106417119Y-77298228D01*
X106417119Y-77298228D01*
G37*
G36*
X180791228Y-77505903D02*
G01*
X180946100Y-77570053D01*
X181085481Y-77663185D01*
X181204015Y-77781719D01*
X181297147Y-77921100D01*
X181361297Y-78075972D01*
X181394000Y-78240384D01*
X181394000Y-78408016D01*
X181361297Y-78572428D01*
X181297147Y-78727300D01*
X181204015Y-78866681D01*
X181085481Y-78985215D01*
X180946100Y-79078347D01*
X180791228Y-79142497D01*
X180626816Y-79175200D01*
X180459184Y-79175200D01*
X180294772Y-79142497D01*
X180139900Y-79078347D01*
X180000519Y-78985215D01*
X179881985Y-78866681D01*
X179788853Y-78727300D01*
X179724703Y-78572428D01*
X179692000Y-78408016D01*
X179692000Y-78240384D01*
X179724703Y-78075972D01*
X179788853Y-77921100D01*
X179881985Y-77781719D01*
X180000519Y-77663185D01*
X180139900Y-77570053D01*
X180294772Y-77505903D01*
X180459184Y-77473200D01*
X180626816Y-77473200D01*
X180791228Y-77505903D01*
X180791228Y-77505903D01*
G37*
G36*
X102637714Y-77296058D02*
G01*
X102644871Y-77298229D01*
X102755719Y-77331854D01*
X102755721Y-77331855D01*
X102864471Y-77389983D01*
X102959790Y-77468210D01*
X103038017Y-77563529D01*
X103096145Y-77672279D01*
X103131942Y-77790286D01*
X103144028Y-77913000D01*
X103131942Y-78035714D01*
X103096145Y-78153721D01*
X103038017Y-78262471D01*
X102959790Y-78357790D01*
X102864471Y-78436017D01*
X102864469Y-78436018D01*
X102755719Y-78494146D01*
X102659683Y-78523278D01*
X102637714Y-78529942D01*
X102545747Y-78539000D01*
X101834253Y-78539000D01*
X101742286Y-78529942D01*
X101720317Y-78523278D01*
X101624281Y-78494146D01*
X101515531Y-78436018D01*
X101515529Y-78436017D01*
X101420210Y-78357790D01*
X101341983Y-78262471D01*
X101283855Y-78153721D01*
X101248058Y-78035714D01*
X101235972Y-77913000D01*
X101248058Y-77790286D01*
X101283855Y-77672279D01*
X101341983Y-77563529D01*
X101420210Y-77468210D01*
X101515529Y-77389983D01*
X101624279Y-77331855D01*
X101624281Y-77331854D01*
X101735129Y-77298229D01*
X101742286Y-77296058D01*
X101834253Y-77287000D01*
X102545747Y-77287000D01*
X102637714Y-77296058D01*
X102637714Y-77296058D01*
G37*
G36*
X154081025Y-73632590D02*
G01*
X154232012Y-73678392D01*
X154371165Y-73752770D01*
X154493133Y-73852867D01*
X154593230Y-73974835D01*
X154667608Y-74113988D01*
X154713410Y-74264975D01*
X154728875Y-74422000D01*
X154713410Y-74579025D01*
X154667608Y-74730012D01*
X154593230Y-74869165D01*
X154493133Y-74991133D01*
X154371165Y-75091230D01*
X154232012Y-75165608D01*
X154081025Y-75211410D01*
X153963346Y-75223000D01*
X153884654Y-75223000D01*
X153766975Y-75211410D01*
X153615988Y-75165608D01*
X153476835Y-75091230D01*
X153354867Y-74991133D01*
X153254770Y-74869165D01*
X153180392Y-74730012D01*
X153134590Y-74579025D01*
X153119125Y-74422000D01*
X153134590Y-74264975D01*
X153180392Y-74113988D01*
X153254770Y-73974835D01*
X153354867Y-73852867D01*
X153476835Y-73752770D01*
X153615988Y-73678392D01*
X153766975Y-73632590D01*
X153884654Y-73621000D01*
X153963346Y-73621000D01*
X154081025Y-73632590D01*
X154081025Y-73632590D01*
G37*
G36*
X170054294Y-71032833D02*
G01*
X170226694Y-71085131D01*
X170226696Y-71085132D01*
X170385583Y-71170059D01*
X170385585Y-71170060D01*
X170385584Y-71170060D01*
X170524849Y-71284351D01*
X170639140Y-71423616D01*
X170724069Y-71582506D01*
X170776367Y-71754906D01*
X170794025Y-71934200D01*
X170776367Y-72113494D01*
X170724069Y-72285894D01*
X170724068Y-72285896D01*
X170639141Y-72444783D01*
X170524849Y-72584049D01*
X170385583Y-72698341D01*
X170226696Y-72783268D01*
X170226694Y-72783269D01*
X170054294Y-72835567D01*
X169919931Y-72848800D01*
X169830069Y-72848800D01*
X169695706Y-72835567D01*
X169523306Y-72783269D01*
X169523304Y-72783268D01*
X169364417Y-72698341D01*
X169225151Y-72584049D01*
X169110859Y-72444783D01*
X169025932Y-72285896D01*
X169025931Y-72285894D01*
X168973633Y-72113494D01*
X168955975Y-71934200D01*
X168973633Y-71754906D01*
X169025931Y-71582506D01*
X169110860Y-71423616D01*
X169225151Y-71284351D01*
X169364416Y-71170060D01*
X169364415Y-71170060D01*
X169364417Y-71170059D01*
X169523304Y-71085132D01*
X169523306Y-71085131D01*
X169695706Y-71032833D01*
X169830069Y-71019600D01*
X169919931Y-71019600D01*
X170054294Y-71032833D01*
X170054294Y-71032833D01*
G37*
G36*
X172594294Y-71032833D02*
G01*
X172766694Y-71085131D01*
X172766696Y-71085132D01*
X172925583Y-71170059D01*
X172925585Y-71170060D01*
X172925584Y-71170060D01*
X173064849Y-71284351D01*
X173179140Y-71423616D01*
X173264069Y-71582506D01*
X173316367Y-71754906D01*
X173334025Y-71934200D01*
X173316367Y-72113494D01*
X173264069Y-72285894D01*
X173264068Y-72285896D01*
X173179141Y-72444783D01*
X173064849Y-72584049D01*
X172925583Y-72698341D01*
X172766696Y-72783268D01*
X172766694Y-72783269D01*
X172594294Y-72835567D01*
X172459931Y-72848800D01*
X172370069Y-72848800D01*
X172235706Y-72835567D01*
X172063306Y-72783269D01*
X172063304Y-72783268D01*
X171904417Y-72698341D01*
X171765151Y-72584049D01*
X171650859Y-72444783D01*
X171565932Y-72285896D01*
X171565931Y-72285894D01*
X171513633Y-72113494D01*
X171495975Y-71934200D01*
X171513633Y-71754906D01*
X171565931Y-71582506D01*
X171650860Y-71423616D01*
X171765151Y-71284351D01*
X171904416Y-71170060D01*
X171904415Y-71170060D01*
X171904417Y-71170059D01*
X172063304Y-71085132D01*
X172063306Y-71085131D01*
X172235706Y-71032833D01*
X172370069Y-71019600D01*
X172459931Y-71019600D01*
X172594294Y-71032833D01*
X172594294Y-71032833D01*
G37*
G36*
X168249600Y-72848800D02*
G01*
X166420400Y-72848800D01*
X166420400Y-71019600D01*
X168249600Y-71019600D01*
X168249600Y-72848800D01*
X168249600Y-72848800D01*
G37*
G36*
X154259734Y-69759232D02*
G01*
X154469202Y-69845996D01*
X154657723Y-69971962D01*
X154818038Y-70132277D01*
X154944004Y-70320798D01*
X155030768Y-70530266D01*
X155075000Y-70752635D01*
X155075000Y-70979365D01*
X155030768Y-71201734D01*
X154944004Y-71411202D01*
X154818038Y-71599723D01*
X154657723Y-71760038D01*
X154469202Y-71886004D01*
X154259734Y-71972768D01*
X154037365Y-72017000D01*
X153810635Y-72017000D01*
X153588266Y-71972768D01*
X153378798Y-71886004D01*
X153190277Y-71760038D01*
X153029962Y-71599723D01*
X152903996Y-71411202D01*
X152817232Y-71201734D01*
X152773000Y-70979365D01*
X152773000Y-70752635D01*
X152817232Y-70530266D01*
X152903996Y-70320798D01*
X153029962Y-70132277D01*
X153190277Y-69971962D01*
X153378798Y-69845996D01*
X153588266Y-69759232D01*
X153810635Y-69715000D01*
X154037365Y-69715000D01*
X154259734Y-69759232D01*
X154259734Y-69759232D01*
G37*
G36*
X147259734Y-69759232D02*
G01*
X147469202Y-69845996D01*
X147657723Y-69971962D01*
X147818038Y-70132277D01*
X147944004Y-70320798D01*
X148030768Y-70530266D01*
X148075000Y-70752635D01*
X148075000Y-70979365D01*
X148030768Y-71201734D01*
X147944004Y-71411202D01*
X147818038Y-71599723D01*
X147657723Y-71760038D01*
X147469202Y-71886004D01*
X147259734Y-71972768D01*
X147037365Y-72017000D01*
X146810635Y-72017000D01*
X146588266Y-71972768D01*
X146378798Y-71886004D01*
X146190277Y-71760038D01*
X146029962Y-71599723D01*
X145903996Y-71411202D01*
X145817232Y-71201734D01*
X145773000Y-70979365D01*
X145773000Y-70752635D01*
X145817232Y-70530266D01*
X145903996Y-70320798D01*
X146029962Y-70132277D01*
X146190277Y-69971962D01*
X146378798Y-69845996D01*
X146588266Y-69759232D01*
X146810635Y-69715000D01*
X147037365Y-69715000D01*
X147259734Y-69759232D01*
X147259734Y-69759232D01*
G37*
G36*
X126176000Y-71107200D02*
G01*
X124274000Y-71107200D01*
X124274000Y-69205200D01*
X126176000Y-69205200D01*
X126176000Y-71107200D01*
X126176000Y-71107200D01*
G37*
G36*
X142178000Y-71107200D02*
G01*
X140276000Y-71107200D01*
X140276000Y-69205200D01*
X142178000Y-69205200D01*
X142178000Y-71107200D01*
X142178000Y-71107200D01*
G37*
G36*
X134174000Y-71107200D02*
G01*
X132272000Y-71107200D01*
X132272000Y-69205200D01*
X134174000Y-69205200D01*
X134174000Y-71107200D01*
X134174000Y-71107200D01*
G37*
G36*
X182305473Y-65354919D02*
G01*
X182666437Y-65426719D01*
X183167087Y-65634095D01*
X183465324Y-65833371D01*
X183617663Y-65935161D01*
X184000839Y-66318337D01*
X184000841Y-66318340D01*
X184301905Y-66768913D01*
X184509281Y-67269563D01*
X184509281Y-67269564D01*
X184615000Y-67801049D01*
X184615000Y-68342951D01*
X184574784Y-68545131D01*
X184509281Y-68874437D01*
X184301905Y-69375087D01*
X184011636Y-69809504D01*
X184000839Y-69825663D01*
X183617663Y-70208839D01*
X183617660Y-70208841D01*
X183167087Y-70509905D01*
X182666437Y-70717281D01*
X182495914Y-70751200D01*
X182134951Y-70823000D01*
X181593049Y-70823000D01*
X181232086Y-70751200D01*
X181061563Y-70717281D01*
X180560913Y-70509905D01*
X180110340Y-70208841D01*
X180110337Y-70208839D01*
X179727161Y-69825663D01*
X179716364Y-69809504D01*
X179426095Y-69375087D01*
X179218719Y-68874437D01*
X179153216Y-68545131D01*
X179113000Y-68342951D01*
X179113000Y-67801049D01*
X179218719Y-67269564D01*
X179218719Y-67269563D01*
X179426095Y-66768913D01*
X179727159Y-66318340D01*
X179727161Y-66318337D01*
X180110337Y-65935161D01*
X180262676Y-65833371D01*
X180560913Y-65634095D01*
X181061563Y-65426719D01*
X181422527Y-65354919D01*
X181593049Y-65321000D01*
X182134951Y-65321000D01*
X182305473Y-65354919D01*
X182305473Y-65354919D01*
G37*
G36*
X103523694Y-65302060D02*
G01*
X103789437Y-65354919D01*
X104290087Y-65562295D01*
X104585230Y-65759504D01*
X104740663Y-65863361D01*
X105123839Y-66246537D01*
X105123841Y-66246540D01*
X105424905Y-66697113D01*
X105619014Y-67165734D01*
X105632281Y-67197764D01*
X105738000Y-67729249D01*
X105738000Y-68271151D01*
X105702186Y-68451200D01*
X105632281Y-68802637D01*
X105424905Y-69303287D01*
X105134636Y-69737704D01*
X105123839Y-69753863D01*
X104740663Y-70137039D01*
X104740660Y-70137041D01*
X104290087Y-70438105D01*
X103789437Y-70645481D01*
X103523694Y-70698340D01*
X103257951Y-70751200D01*
X102716049Y-70751200D01*
X102450306Y-70698340D01*
X102184563Y-70645481D01*
X101683913Y-70438105D01*
X101233340Y-70137041D01*
X101233337Y-70137039D01*
X100850161Y-69753863D01*
X100839364Y-69737704D01*
X100549095Y-69303287D01*
X100341719Y-68802637D01*
X100271814Y-68451200D01*
X100236000Y-68271151D01*
X100236000Y-67729249D01*
X100341719Y-67197764D01*
X100354986Y-67165734D01*
X100549095Y-66697113D01*
X100850159Y-66246540D01*
X100850161Y-66246537D01*
X101233337Y-65863361D01*
X101388770Y-65759504D01*
X101683913Y-65562295D01*
X102184563Y-65354919D01*
X102450306Y-65302060D01*
X102716049Y-65249200D01*
X103257951Y-65249200D01*
X103523694Y-65302060D01*
X103523694Y-65302060D01*
G37*
G36*
X172594294Y-68492833D02*
G01*
X172766694Y-68545131D01*
X172766696Y-68545132D01*
X172925583Y-68630059D01*
X173064849Y-68744351D01*
X173179141Y-68883617D01*
X173209469Y-68940357D01*
X173264069Y-69042506D01*
X173316367Y-69214906D01*
X173334025Y-69394200D01*
X173316367Y-69573494D01*
X173272676Y-69717520D01*
X173264068Y-69745896D01*
X173179141Y-69904783D01*
X173064849Y-70044049D01*
X172925583Y-70158341D01*
X172775001Y-70238829D01*
X172766694Y-70243269D01*
X172594294Y-70295567D01*
X172459931Y-70308800D01*
X172370069Y-70308800D01*
X172235706Y-70295567D01*
X172063306Y-70243269D01*
X172054999Y-70238829D01*
X171904417Y-70158341D01*
X171765151Y-70044049D01*
X171650859Y-69904783D01*
X171565932Y-69745896D01*
X171557324Y-69717520D01*
X171513633Y-69573494D01*
X171495975Y-69394200D01*
X171513633Y-69214906D01*
X171565931Y-69042506D01*
X171620531Y-68940357D01*
X171650859Y-68883617D01*
X171765151Y-68744351D01*
X171904417Y-68630059D01*
X172063304Y-68545132D01*
X172063306Y-68545131D01*
X172235706Y-68492833D01*
X172370069Y-68479600D01*
X172459931Y-68479600D01*
X172594294Y-68492833D01*
X172594294Y-68492833D01*
G37*
G36*
X170054294Y-68492833D02*
G01*
X170226694Y-68545131D01*
X170226696Y-68545132D01*
X170385583Y-68630059D01*
X170524849Y-68744351D01*
X170639141Y-68883617D01*
X170669469Y-68940357D01*
X170724069Y-69042506D01*
X170776367Y-69214906D01*
X170794025Y-69394200D01*
X170776367Y-69573494D01*
X170732676Y-69717520D01*
X170724068Y-69745896D01*
X170639141Y-69904783D01*
X170524849Y-70044049D01*
X170385583Y-70158341D01*
X170235001Y-70238829D01*
X170226694Y-70243269D01*
X170054294Y-70295567D01*
X169919931Y-70308800D01*
X169830069Y-70308800D01*
X169695706Y-70295567D01*
X169523306Y-70243269D01*
X169514999Y-70238829D01*
X169364417Y-70158341D01*
X169225151Y-70044049D01*
X169110859Y-69904783D01*
X169025932Y-69745896D01*
X169017324Y-69717520D01*
X168973633Y-69573494D01*
X168955975Y-69394200D01*
X168973633Y-69214906D01*
X169025931Y-69042506D01*
X169080531Y-68940357D01*
X169110859Y-68883617D01*
X169225151Y-68744351D01*
X169364417Y-68630059D01*
X169523304Y-68545132D01*
X169523306Y-68545131D01*
X169695706Y-68492833D01*
X169830069Y-68479600D01*
X169919931Y-68479600D01*
X170054294Y-68492833D01*
X170054294Y-68492833D01*
G37*
G36*
X167514294Y-68492833D02*
G01*
X167686694Y-68545131D01*
X167686696Y-68545132D01*
X167845583Y-68630059D01*
X167984849Y-68744351D01*
X168099141Y-68883617D01*
X168129469Y-68940357D01*
X168184069Y-69042506D01*
X168236367Y-69214906D01*
X168254025Y-69394200D01*
X168236367Y-69573494D01*
X168192676Y-69717520D01*
X168184068Y-69745896D01*
X168099141Y-69904783D01*
X167984849Y-70044049D01*
X167845583Y-70158341D01*
X167695001Y-70238829D01*
X167686694Y-70243269D01*
X167514294Y-70295567D01*
X167379931Y-70308800D01*
X167290069Y-70308800D01*
X167155706Y-70295567D01*
X166983306Y-70243269D01*
X166974999Y-70238829D01*
X166824417Y-70158341D01*
X166685151Y-70044049D01*
X166570859Y-69904783D01*
X166485932Y-69745896D01*
X166477324Y-69717520D01*
X166433633Y-69573494D01*
X166415975Y-69394200D01*
X166433633Y-69214906D01*
X166485931Y-69042506D01*
X166540531Y-68940357D01*
X166570859Y-68883617D01*
X166685151Y-68744351D01*
X166824417Y-68630059D01*
X166983304Y-68545132D01*
X166983306Y-68545131D01*
X167155706Y-68492833D01*
X167290069Y-68479600D01*
X167379931Y-68479600D01*
X167514294Y-68492833D01*
X167514294Y-68492833D01*
G37*
G36*
X152936812Y-67499624D02*
G01*
X153100784Y-67567544D01*
X153248354Y-67666147D01*
X153373853Y-67791646D01*
X153472456Y-67939216D01*
X153540376Y-68103188D01*
X153575000Y-68277259D01*
X153575000Y-68454741D01*
X153540376Y-68628812D01*
X153472456Y-68792784D01*
X153373853Y-68940354D01*
X153248354Y-69065853D01*
X153100784Y-69164456D01*
X152936812Y-69232376D01*
X152762741Y-69267000D01*
X152585259Y-69267000D01*
X152411188Y-69232376D01*
X152247216Y-69164456D01*
X152099646Y-69065853D01*
X151974147Y-68940354D01*
X151875544Y-68792784D01*
X151807624Y-68628812D01*
X151773000Y-68454741D01*
X151773000Y-68277259D01*
X151807624Y-68103188D01*
X151875544Y-67939216D01*
X151974147Y-67791646D01*
X152099646Y-67666147D01*
X152247216Y-67567544D01*
X152411188Y-67499624D01*
X152585259Y-67465000D01*
X152762741Y-67465000D01*
X152936812Y-67499624D01*
X152936812Y-67499624D01*
G37*
G36*
X148436812Y-67499624D02*
G01*
X148600784Y-67567544D01*
X148748354Y-67666147D01*
X148873853Y-67791646D01*
X148972456Y-67939216D01*
X149040376Y-68103188D01*
X149075000Y-68277259D01*
X149075000Y-68454741D01*
X149040376Y-68628812D01*
X148972456Y-68792784D01*
X148873853Y-68940354D01*
X148748354Y-69065853D01*
X148600784Y-69164456D01*
X148436812Y-69232376D01*
X148262741Y-69267000D01*
X148085259Y-69267000D01*
X147911188Y-69232376D01*
X147747216Y-69164456D01*
X147599646Y-69065853D01*
X147474147Y-68940354D01*
X147375544Y-68792784D01*
X147307624Y-68628812D01*
X147273000Y-68454741D01*
X147273000Y-68277259D01*
X147307624Y-68103188D01*
X147375544Y-67939216D01*
X147474147Y-67791646D01*
X147599646Y-67666147D01*
X147747216Y-67567544D01*
X147911188Y-67499624D01*
X148085259Y-67465000D01*
X148262741Y-67465000D01*
X148436812Y-67499624D01*
X148436812Y-67499624D01*
G37*
G36*
X125502396Y-66701746D02*
G01*
X125675466Y-66773434D01*
X125831230Y-66877512D01*
X125963688Y-67009970D01*
X126067766Y-67165734D01*
X126139454Y-67338804D01*
X126176000Y-67522533D01*
X126176000Y-67709867D01*
X126139454Y-67893596D01*
X126067766Y-68066666D01*
X125963688Y-68222430D01*
X125831230Y-68354888D01*
X125675466Y-68458966D01*
X125502396Y-68530654D01*
X125318667Y-68567200D01*
X125131333Y-68567200D01*
X124947604Y-68530654D01*
X124774534Y-68458966D01*
X124618770Y-68354888D01*
X124486312Y-68222430D01*
X124382234Y-68066666D01*
X124310546Y-67893596D01*
X124274000Y-67709867D01*
X124274000Y-67522533D01*
X124310546Y-67338804D01*
X124382234Y-67165734D01*
X124486312Y-67009970D01*
X124618770Y-66877512D01*
X124774534Y-66773434D01*
X124947604Y-66701746D01*
X125131333Y-66665200D01*
X125318667Y-66665200D01*
X125502396Y-66701746D01*
X125502396Y-66701746D01*
G37*
G36*
X133500396Y-66701746D02*
G01*
X133673466Y-66773434D01*
X133829230Y-66877512D01*
X133961688Y-67009970D01*
X134065766Y-67165734D01*
X134137454Y-67338804D01*
X134174000Y-67522533D01*
X134174000Y-67709867D01*
X134137454Y-67893596D01*
X134065766Y-68066666D01*
X133961688Y-68222430D01*
X133829230Y-68354888D01*
X133673466Y-68458966D01*
X133500396Y-68530654D01*
X133316667Y-68567200D01*
X133129333Y-68567200D01*
X132945604Y-68530654D01*
X132772534Y-68458966D01*
X132616770Y-68354888D01*
X132484312Y-68222430D01*
X132380234Y-68066666D01*
X132308546Y-67893596D01*
X132272000Y-67709867D01*
X132272000Y-67522533D01*
X132308546Y-67338804D01*
X132380234Y-67165734D01*
X132484312Y-67009970D01*
X132616770Y-66877512D01*
X132772534Y-66773434D01*
X132945604Y-66701746D01*
X133129333Y-66665200D01*
X133316667Y-66665200D01*
X133500396Y-66701746D01*
X133500396Y-66701746D01*
G37*
G36*
X141504396Y-66701746D02*
G01*
X141677466Y-66773434D01*
X141833230Y-66877512D01*
X141965688Y-67009970D01*
X142069766Y-67165734D01*
X142141454Y-67338804D01*
X142178000Y-67522533D01*
X142178000Y-67709867D01*
X142141454Y-67893596D01*
X142069766Y-68066666D01*
X141965688Y-68222430D01*
X141833230Y-68354888D01*
X141677466Y-68458966D01*
X141504396Y-68530654D01*
X141320667Y-68567200D01*
X141133333Y-68567200D01*
X140949604Y-68530654D01*
X140776534Y-68458966D01*
X140620770Y-68354888D01*
X140488312Y-68222430D01*
X140384234Y-68066666D01*
X140312546Y-67893596D01*
X140276000Y-67709867D01*
X140276000Y-67522533D01*
X140312546Y-67338804D01*
X140384234Y-67165734D01*
X140488312Y-67009970D01*
X140620770Y-66877512D01*
X140776534Y-66773434D01*
X140949604Y-66701746D01*
X141133333Y-66665200D01*
X141320667Y-66665200D01*
X141504396Y-66701746D01*
X141504396Y-66701746D01*
G37*
M02*
