M48
; DRILL file {KiCad (6.0.0-rc1-dev-1491-g0a4812be0)} date 2019-04-29 14:19:06
; FORMAT={-:-/ absolute / inch / decimal}
; #@! TF.CreationDate,2019-04-29T14:19:06+02:00
; #@! TF.GenerationSoftware,Kicad,Pcbnew,(6.0.0-rc1-dev-1491-g0a4812be0)
; #@! TF.FileFunction,Plated,1,2,PTH
FMAT,2
INCH
T1C0.0079
T2C0.0197
T3C0.0217
T4C0.0236
T5C0.0295
T6C0.0300
T7C0.0315
T8C0.0335
T9C0.0354
T10C0.0394
T11C0.0400
T12C0.0472
T13C0.0512
T14C0.1063
%
G90
G05
T1
X4.4988Y-3.1924
X4.4988Y-3.2676
X4.55Y-3.1924
X4.55Y-3.2676
X4.6012Y-3.1924
X4.6012Y-3.2676
T2
X4.5075Y-4.17
X4.59Y-4.04
X4.7771Y-3.5045
X4.9Y-4.25
X4.9236Y-3.0226
X5.0Y-3.75
X5.0775Y-3.6325
X5.155Y-3.745
X5.225Y-3.45
X5.225Y-3.525
X5.2789Y-3.04
X5.39Y-3.04
X5.4175Y-3.7125
X5.4395Y-3.8298
X5.5Y-3.71
X5.5211Y-4.0168
X5.525Y-3.5
X5.6804Y-3.8321
X5.6986Y-3.9108
X5.71Y-3.5125
X5.7281Y-3.8376
X5.7596Y-3.45
X5.8432Y-3.8097
X5.8536Y-3.25
X5.875Y-3.375
X5.925Y-3.3
X5.95Y-3.2
X6.01Y-4.175
X6.0325Y-3.8075
X6.0325Y-3.855
X7.0803Y-2.68
X7.1036Y-2.6236
X7.1036Y-2.7364
X7.16Y-2.6003
X7.16Y-2.7597
X7.2164Y-2.6236
X7.2164Y-2.7364
X7.2397Y-2.68
X3.9749Y-2.6772
X3.9982Y-2.6208
X3.9982Y-2.7335
X4.0546Y-2.5974
X4.0546Y-2.7569
X4.111Y-2.6208
X4.111Y-2.7335
X4.1343Y-2.6772
X7.0851Y-4.2126
X7.1085Y-4.1562
X7.1085Y-4.269
X7.1648Y-4.1329
X7.1648Y-4.2923
X7.2212Y-4.1562
X7.2212Y-4.269
X7.2446Y-4.2126
X3.9749Y-4.2126
X3.9982Y-4.1562
X3.9982Y-4.269
X4.0546Y-4.1329
X4.0546Y-4.2923
X4.111Y-4.1562
X4.111Y-4.269
X4.1343Y-4.2126
T4
X4.625Y-3.0566
T5
X5.729Y-2.96
X6.029Y-2.96
T6
X6.6454Y-3.1921
X6.6454Y-3.2921
X6.7454Y-3.1921
X6.7454Y-3.2921
X6.8454Y-3.1921
X6.8454Y-3.2921
X6.9454Y-3.1921
X6.9454Y-3.2921
T7
X4.4Y-3.88
X4.4Y-4.07
X6.45Y-3.5107
X6.45Y-4.1839
X6.5287Y-3.5107
X6.5287Y-4.1839
X6.6075Y-3.5107
X6.6075Y-4.1839
X6.6862Y-3.5107
X6.6862Y-4.1839
X6.765Y-3.5107
X6.765Y-4.1839
X6.8437Y-3.5107
X6.8437Y-4.1839
X6.9224Y-3.5107
X6.9224Y-4.1839
X7.0012Y-3.5107
X7.0012Y-4.1839
X5.42Y-3.52
X5.6121Y-3.52
X7.11Y-2.9416
X7.11Y-3.04
T9
X5.5601Y-2.6621
X5.5601Y-2.7621
X5.245Y-2.6621
X5.245Y-2.7621
X4.9301Y-2.6621
X4.9301Y-2.7621
T10
X4.19Y-3.66
X4.19Y-3.7584
X6.5Y-2.72
X6.6Y-2.72
X6.5Y-2.91
X6.6Y-2.91
X6.25Y-3.7
X6.25Y-3.8
X6.25Y-3.9
X6.25Y-4.0
X6.25Y-4.1
X6.25Y-4.2
X5.8336Y-2.6916
X6.0108Y-2.6916
T11
X5.23Y-3.87
X5.23Y-3.97
X5.23Y-4.07
X5.33Y-3.87
X5.33Y-3.97
X5.33Y-4.07
T12
X7.16Y-3.33
T13
X5.7844Y-2.79
X6.06Y-2.79
T14
X7.16Y-2.68
X4.0546Y-2.6772
X7.1648Y-4.2126
X4.0546Y-4.2126
T3
G00X4.036Y-3.0674
M15
G01X4.0104Y-3.0674
M16
G05
G00X4.036Y-3.3726
M15
G01X4.0104Y-3.3726
M16
G05
T8
G00X4.1837Y-3.0733
M15
G01X4.162Y-3.0733
M16
G05
G00X4.1837Y-3.3667
M15
G01X4.162Y-3.3667
M16
G05
T0
M30
