G04 #@! TF.GenerationSoftware,KiCad,Pcbnew,5.1.0-unknown-078fdb9~94~ubuntu16.04.1*
G04 #@! TF.CreationDate,2019-04-21T00:44:34+02:00*
G04 #@! TF.ProjectId,mySensors_door_switch,6d795365-6e73-46f7-9273-5f646f6f725f,1.2*
G04 #@! TF.SameCoordinates,Original*
G04 #@! TF.FileFunction,Paste,Bot*
G04 #@! TF.FilePolarity,Positive*
%FSLAX46Y46*%
G04 Gerber Fmt 4.6, Leading zero omitted, Abs format (unit mm)*
G04 Created by KiCad (PCBNEW 5.1.0-unknown-078fdb9~94~ubuntu16.04.1) date 2019-04-21 00:44:34*
%MOMM*%
%LPD*%
G04 APERTURE LIST*
%ADD10C,0.100000*%
%ADD11C,1.225000*%
G04 APERTURE END LIST*
D10*
G36*
X129911504Y-89012204D02*
G01*
X129935773Y-89015804D01*
X129959571Y-89021765D01*
X129982671Y-89030030D01*
X130004849Y-89040520D01*
X130025893Y-89053133D01*
X130045598Y-89067747D01*
X130063777Y-89084223D01*
X130080253Y-89102402D01*
X130094867Y-89122107D01*
X130107480Y-89143151D01*
X130117970Y-89165329D01*
X130126235Y-89188429D01*
X130132196Y-89212227D01*
X130135796Y-89236496D01*
X130137000Y-89261000D01*
X130137000Y-89986000D01*
X130135796Y-90010504D01*
X130132196Y-90034773D01*
X130126235Y-90058571D01*
X130117970Y-90081671D01*
X130107480Y-90103849D01*
X130094867Y-90124893D01*
X130080253Y-90144598D01*
X130063777Y-90162777D01*
X130045598Y-90179253D01*
X130025893Y-90193867D01*
X130004849Y-90206480D01*
X129982671Y-90216970D01*
X129959571Y-90225235D01*
X129935773Y-90231196D01*
X129911504Y-90234796D01*
X129887000Y-90236000D01*
X125637000Y-90236000D01*
X125612496Y-90234796D01*
X125588227Y-90231196D01*
X125564429Y-90225235D01*
X125541329Y-90216970D01*
X125519151Y-90206480D01*
X125498107Y-90193867D01*
X125478402Y-90179253D01*
X125460223Y-90162777D01*
X125443747Y-90144598D01*
X125429133Y-90124893D01*
X125416520Y-90103849D01*
X125406030Y-90081671D01*
X125397765Y-90058571D01*
X125391804Y-90034773D01*
X125388204Y-90010504D01*
X125387000Y-89986000D01*
X125387000Y-89261000D01*
X125388204Y-89236496D01*
X125391804Y-89212227D01*
X125397765Y-89188429D01*
X125406030Y-89165329D01*
X125416520Y-89143151D01*
X125429133Y-89122107D01*
X125443747Y-89102402D01*
X125460223Y-89084223D01*
X125478402Y-89067747D01*
X125498107Y-89053133D01*
X125519151Y-89040520D01*
X125541329Y-89030030D01*
X125564429Y-89021765D01*
X125588227Y-89015804D01*
X125612496Y-89012204D01*
X125637000Y-89011000D01*
X129887000Y-89011000D01*
X129911504Y-89012204D01*
X129911504Y-89012204D01*
G37*
D11*
X127762000Y-89623500D03*
D10*
G36*
X129911504Y-92137204D02*
G01*
X129935773Y-92140804D01*
X129959571Y-92146765D01*
X129982671Y-92155030D01*
X130004849Y-92165520D01*
X130025893Y-92178133D01*
X130045598Y-92192747D01*
X130063777Y-92209223D01*
X130080253Y-92227402D01*
X130094867Y-92247107D01*
X130107480Y-92268151D01*
X130117970Y-92290329D01*
X130126235Y-92313429D01*
X130132196Y-92337227D01*
X130135796Y-92361496D01*
X130137000Y-92386000D01*
X130137000Y-93111000D01*
X130135796Y-93135504D01*
X130132196Y-93159773D01*
X130126235Y-93183571D01*
X130117970Y-93206671D01*
X130107480Y-93228849D01*
X130094867Y-93249893D01*
X130080253Y-93269598D01*
X130063777Y-93287777D01*
X130045598Y-93304253D01*
X130025893Y-93318867D01*
X130004849Y-93331480D01*
X129982671Y-93341970D01*
X129959571Y-93350235D01*
X129935773Y-93356196D01*
X129911504Y-93359796D01*
X129887000Y-93361000D01*
X125637000Y-93361000D01*
X125612496Y-93359796D01*
X125588227Y-93356196D01*
X125564429Y-93350235D01*
X125541329Y-93341970D01*
X125519151Y-93331480D01*
X125498107Y-93318867D01*
X125478402Y-93304253D01*
X125460223Y-93287777D01*
X125443747Y-93269598D01*
X125429133Y-93249893D01*
X125416520Y-93228849D01*
X125406030Y-93206671D01*
X125397765Y-93183571D01*
X125391804Y-93159773D01*
X125388204Y-93135504D01*
X125387000Y-93111000D01*
X125387000Y-92386000D01*
X125388204Y-92361496D01*
X125391804Y-92337227D01*
X125397765Y-92313429D01*
X125406030Y-92290329D01*
X125416520Y-92268151D01*
X125429133Y-92247107D01*
X125443747Y-92227402D01*
X125460223Y-92209223D01*
X125478402Y-92192747D01*
X125498107Y-92178133D01*
X125519151Y-92165520D01*
X125541329Y-92155030D01*
X125564429Y-92146765D01*
X125588227Y-92140804D01*
X125612496Y-92137204D01*
X125637000Y-92136000D01*
X129887000Y-92136000D01*
X129911504Y-92137204D01*
X129911504Y-92137204D01*
G37*
D11*
X127762000Y-92748500D03*
M02*
