G04 #@! TF.GenerationSoftware,KiCad,Pcbnew,5.1.0-unknown-9bfce26~94~ubuntu16.04.1*
G04 #@! TF.CreationDate,2019-03-28T22:01:40+01:00*
G04 #@! TF.ProjectId,mySensors_door_switch,6d795365-6e73-46f7-9273-5f646f6f725f,1.0*
G04 #@! TF.SameCoordinates,Original*
G04 #@! TF.FileFunction,Soldermask,Bot*
G04 #@! TF.FilePolarity,Negative*
%FSLAX46Y46*%
G04 Gerber Fmt 4.6, Leading zero omitted, Abs format (unit mm)*
G04 Created by KiCad (PCBNEW 5.1.0-unknown-9bfce26~94~ubuntu16.04.1) date 2019-03-28 22:01:40*
%MOMM*%
%LPD*%
G04 APERTURE LIST*
%ADD10C,0.100000*%
G04 APERTURE END LIST*
D10*
X155067000Y-70866000D02*
G75*
G03X155067000Y-70866000I-1143000J0D01*
G01*
X149063000Y-68366000D02*
G75*
G03X149063000Y-68366000I-889000J0D01*
G01*
X153563000Y-68366000D02*
G75*
G03X153563000Y-68366000I-889000J0D01*
G01*
X148067000Y-70866000D02*
G75*
G03X148067000Y-70866000I-1143000J0D01*
G01*
G36*
X182408771Y-104279000D02*
G01*
X182789437Y-104354719D01*
X183290087Y-104562095D01*
X183470561Y-104682684D01*
X183740660Y-104863158D01*
X184123842Y-105246340D01*
X184304316Y-105516439D01*
X184424905Y-105696913D01*
X184632281Y-106197563D01*
X184635857Y-106215540D01*
X184738000Y-106729049D01*
X184738000Y-107270951D01*
X184702186Y-107451000D01*
X184632281Y-107802437D01*
X184424905Y-108303087D01*
X184368521Y-108387471D01*
X184123842Y-108753660D01*
X183740660Y-109136842D01*
X183477774Y-109312496D01*
X183290087Y-109437905D01*
X182789437Y-109645281D01*
X182523693Y-109698141D01*
X182257951Y-109751000D01*
X181716049Y-109751000D01*
X181450307Y-109698141D01*
X181184563Y-109645281D01*
X180683913Y-109437905D01*
X180496226Y-109312496D01*
X180233340Y-109136842D01*
X179850158Y-108753660D01*
X179605479Y-108387471D01*
X179549095Y-108303087D01*
X179341719Y-107802437D01*
X179271814Y-107451000D01*
X179236000Y-107270951D01*
X179236000Y-106729049D01*
X179338143Y-106215540D01*
X179341719Y-106197563D01*
X179549095Y-105696913D01*
X179669684Y-105516439D01*
X179850158Y-105246340D01*
X180233340Y-104863158D01*
X180503439Y-104682684D01*
X180683913Y-104562095D01*
X181184563Y-104354719D01*
X181565229Y-104279000D01*
X181716049Y-104249000D01*
X182257951Y-104249000D01*
X182408771Y-104279000D01*
X182408771Y-104279000D01*
G37*
G36*
X103408771Y-104279000D02*
G01*
X103789437Y-104354719D01*
X104290087Y-104562095D01*
X104470561Y-104682684D01*
X104740660Y-104863158D01*
X105123842Y-105246340D01*
X105304316Y-105516439D01*
X105424905Y-105696913D01*
X105632281Y-106197563D01*
X105635857Y-106215540D01*
X105738000Y-106729049D01*
X105738000Y-107270951D01*
X105702186Y-107451000D01*
X105632281Y-107802437D01*
X105424905Y-108303087D01*
X105368521Y-108387471D01*
X105123842Y-108753660D01*
X104740660Y-109136842D01*
X104477774Y-109312496D01*
X104290087Y-109437905D01*
X103789437Y-109645281D01*
X103523693Y-109698141D01*
X103257951Y-109751000D01*
X102716049Y-109751000D01*
X102450307Y-109698141D01*
X102184563Y-109645281D01*
X101683913Y-109437905D01*
X101496226Y-109312496D01*
X101233340Y-109136842D01*
X100850158Y-108753660D01*
X100605479Y-108387471D01*
X100549095Y-108303087D01*
X100341719Y-107802437D01*
X100271814Y-107451000D01*
X100236000Y-107270951D01*
X100236000Y-106729049D01*
X100338143Y-106215540D01*
X100341719Y-106197563D01*
X100549095Y-105696913D01*
X100669684Y-105516439D01*
X100850158Y-105246340D01*
X101233340Y-104863158D01*
X101503439Y-104682684D01*
X101683913Y-104562095D01*
X102184563Y-104354719D01*
X102565229Y-104279000D01*
X102716049Y-104249000D01*
X103257951Y-104249000D01*
X103408771Y-104279000D01*
X103408771Y-104279000D01*
G37*
G36*
X161950600Y-105620009D02*
G01*
X161953002Y-105644395D01*
X161960115Y-105667844D01*
X161971666Y-105689455D01*
X161987211Y-105708397D01*
X162006153Y-105723942D01*
X162027764Y-105735493D01*
X162051213Y-105742606D01*
X162075599Y-105745008D01*
X162099985Y-105742606D01*
X162123434Y-105735493D01*
X162145045Y-105723942D01*
X162163987Y-105708397D01*
X162179532Y-105689455D01*
X162191083Y-105667844D01*
X162225491Y-105584776D01*
X162325583Y-105434978D01*
X162452978Y-105307583D01*
X162602776Y-105207491D01*
X162769222Y-105138547D01*
X162945918Y-105103400D01*
X163126082Y-105103400D01*
X163302778Y-105138547D01*
X163469224Y-105207491D01*
X163619022Y-105307583D01*
X163746417Y-105434978D01*
X163846509Y-105584776D01*
X163919472Y-105760924D01*
X163920514Y-105764360D01*
X163932064Y-105785971D01*
X163947609Y-105804914D01*
X163966550Y-105820460D01*
X163988160Y-105832012D01*
X164011609Y-105839126D01*
X164035995Y-105841529D01*
X164060381Y-105839128D01*
X164083830Y-105832016D01*
X164105441Y-105820466D01*
X164124384Y-105804921D01*
X164139930Y-105785980D01*
X164151482Y-105764370D01*
X164152525Y-105760932D01*
X164225491Y-105584776D01*
X164325583Y-105434978D01*
X164452978Y-105307583D01*
X164602776Y-105207491D01*
X164769222Y-105138547D01*
X164945918Y-105103400D01*
X165126082Y-105103400D01*
X165302778Y-105138547D01*
X165469224Y-105207491D01*
X165619022Y-105307583D01*
X165746417Y-105434978D01*
X165846509Y-105584776D01*
X165919472Y-105760924D01*
X165920514Y-105764360D01*
X165932064Y-105785971D01*
X165947609Y-105804914D01*
X165966550Y-105820460D01*
X165988160Y-105832012D01*
X166011609Y-105839126D01*
X166035995Y-105841529D01*
X166060381Y-105839128D01*
X166083830Y-105832016D01*
X166105441Y-105820466D01*
X166124384Y-105804921D01*
X166139930Y-105785980D01*
X166151482Y-105764370D01*
X166152525Y-105760932D01*
X166225491Y-105584776D01*
X166325583Y-105434978D01*
X166452978Y-105307583D01*
X166602776Y-105207491D01*
X166769222Y-105138547D01*
X166945918Y-105103400D01*
X167126082Y-105103400D01*
X167302778Y-105138547D01*
X167469224Y-105207491D01*
X167619022Y-105307583D01*
X167746417Y-105434978D01*
X167846509Y-105584776D01*
X167919472Y-105760924D01*
X167920514Y-105764360D01*
X167932064Y-105785971D01*
X167947609Y-105804914D01*
X167966550Y-105820460D01*
X167988160Y-105832012D01*
X168011609Y-105839126D01*
X168035995Y-105841529D01*
X168060381Y-105839128D01*
X168083830Y-105832016D01*
X168105441Y-105820466D01*
X168124384Y-105804921D01*
X168139930Y-105785980D01*
X168151482Y-105764370D01*
X168152525Y-105760932D01*
X168225491Y-105584776D01*
X168325583Y-105434978D01*
X168452978Y-105307583D01*
X168602776Y-105207491D01*
X168769222Y-105138547D01*
X168945918Y-105103400D01*
X169126082Y-105103400D01*
X169302778Y-105138547D01*
X169469224Y-105207491D01*
X169619022Y-105307583D01*
X169746417Y-105434978D01*
X169846509Y-105584776D01*
X169919472Y-105760924D01*
X169920514Y-105764360D01*
X169932064Y-105785971D01*
X169947609Y-105804914D01*
X169966550Y-105820460D01*
X169988160Y-105832012D01*
X170011609Y-105839126D01*
X170035995Y-105841529D01*
X170060381Y-105839128D01*
X170083830Y-105832016D01*
X170105441Y-105820466D01*
X170124384Y-105804921D01*
X170139930Y-105785980D01*
X170151482Y-105764370D01*
X170152525Y-105760932D01*
X170225491Y-105584776D01*
X170325583Y-105434978D01*
X170452978Y-105307583D01*
X170602776Y-105207491D01*
X170769222Y-105138547D01*
X170945918Y-105103400D01*
X171126082Y-105103400D01*
X171302778Y-105138547D01*
X171469224Y-105207491D01*
X171619022Y-105307583D01*
X171746417Y-105434978D01*
X171846509Y-105584776D01*
X171919472Y-105760924D01*
X171920514Y-105764360D01*
X171932064Y-105785971D01*
X171947609Y-105804914D01*
X171966550Y-105820460D01*
X171988160Y-105832012D01*
X172011609Y-105839126D01*
X172035995Y-105841529D01*
X172060381Y-105839128D01*
X172083830Y-105832016D01*
X172105441Y-105820466D01*
X172124384Y-105804921D01*
X172139930Y-105785980D01*
X172151482Y-105764370D01*
X172152525Y-105760932D01*
X172225491Y-105584776D01*
X172325583Y-105434978D01*
X172452978Y-105307583D01*
X172602776Y-105207491D01*
X172769222Y-105138547D01*
X172945918Y-105103400D01*
X173126082Y-105103400D01*
X173302778Y-105138547D01*
X173469224Y-105207491D01*
X173619022Y-105307583D01*
X173746417Y-105434978D01*
X173846509Y-105584776D01*
X173919472Y-105760924D01*
X173920514Y-105764360D01*
X173932064Y-105785971D01*
X173947609Y-105804914D01*
X173966550Y-105820460D01*
X173988160Y-105832012D01*
X174011609Y-105839126D01*
X174035995Y-105841529D01*
X174060381Y-105839128D01*
X174083830Y-105832016D01*
X174105441Y-105820466D01*
X174124384Y-105804921D01*
X174139930Y-105785980D01*
X174151482Y-105764370D01*
X174152525Y-105760932D01*
X174225491Y-105584776D01*
X174325583Y-105434978D01*
X174452978Y-105307583D01*
X174602776Y-105207491D01*
X174769222Y-105138547D01*
X174945918Y-105103400D01*
X175126082Y-105103400D01*
X175302778Y-105138547D01*
X175469224Y-105207491D01*
X175619022Y-105307583D01*
X175746417Y-105434978D01*
X175846509Y-105584776D01*
X175915453Y-105751222D01*
X175950600Y-105927918D01*
X175950600Y-106108082D01*
X175915453Y-106284778D01*
X175846509Y-106451224D01*
X175746417Y-106601022D01*
X175619022Y-106728417D01*
X175469224Y-106828509D01*
X175302778Y-106897453D01*
X175126082Y-106932600D01*
X174945918Y-106932600D01*
X174769222Y-106897453D01*
X174602776Y-106828509D01*
X174452978Y-106728417D01*
X174325583Y-106601022D01*
X174225491Y-106451224D01*
X174152528Y-106275076D01*
X174151486Y-106271640D01*
X174139936Y-106250029D01*
X174124391Y-106231086D01*
X174105450Y-106215540D01*
X174083840Y-106203988D01*
X174060391Y-106196874D01*
X174036005Y-106194471D01*
X174011619Y-106196872D01*
X173988170Y-106203984D01*
X173966559Y-106215534D01*
X173947616Y-106231079D01*
X173932070Y-106250020D01*
X173920518Y-106271630D01*
X173919475Y-106275068D01*
X173846509Y-106451224D01*
X173746417Y-106601022D01*
X173619022Y-106728417D01*
X173469224Y-106828509D01*
X173302778Y-106897453D01*
X173126082Y-106932600D01*
X172945918Y-106932600D01*
X172769222Y-106897453D01*
X172602776Y-106828509D01*
X172452978Y-106728417D01*
X172325583Y-106601022D01*
X172225491Y-106451224D01*
X172152528Y-106275076D01*
X172151486Y-106271640D01*
X172139936Y-106250029D01*
X172124391Y-106231086D01*
X172105450Y-106215540D01*
X172083840Y-106203988D01*
X172060391Y-106196874D01*
X172036005Y-106194471D01*
X172011619Y-106196872D01*
X171988170Y-106203984D01*
X171966559Y-106215534D01*
X171947616Y-106231079D01*
X171932070Y-106250020D01*
X171920518Y-106271630D01*
X171919475Y-106275068D01*
X171846509Y-106451224D01*
X171746417Y-106601022D01*
X171619022Y-106728417D01*
X171469224Y-106828509D01*
X171302778Y-106897453D01*
X171126082Y-106932600D01*
X170945918Y-106932600D01*
X170769222Y-106897453D01*
X170602776Y-106828509D01*
X170452978Y-106728417D01*
X170325583Y-106601022D01*
X170225491Y-106451224D01*
X170152528Y-106275076D01*
X170151486Y-106271640D01*
X170139936Y-106250029D01*
X170124391Y-106231086D01*
X170105450Y-106215540D01*
X170083840Y-106203988D01*
X170060391Y-106196874D01*
X170036005Y-106194471D01*
X170011619Y-106196872D01*
X169988170Y-106203984D01*
X169966559Y-106215534D01*
X169947616Y-106231079D01*
X169932070Y-106250020D01*
X169920518Y-106271630D01*
X169919475Y-106275068D01*
X169846509Y-106451224D01*
X169746417Y-106601022D01*
X169619022Y-106728417D01*
X169469224Y-106828509D01*
X169302778Y-106897453D01*
X169126082Y-106932600D01*
X168945918Y-106932600D01*
X168769222Y-106897453D01*
X168602776Y-106828509D01*
X168452978Y-106728417D01*
X168325583Y-106601022D01*
X168225491Y-106451224D01*
X168152528Y-106275076D01*
X168151486Y-106271640D01*
X168139936Y-106250029D01*
X168124391Y-106231086D01*
X168105450Y-106215540D01*
X168083840Y-106203988D01*
X168060391Y-106196874D01*
X168036005Y-106194471D01*
X168011619Y-106196872D01*
X167988170Y-106203984D01*
X167966559Y-106215534D01*
X167947616Y-106231079D01*
X167932070Y-106250020D01*
X167920518Y-106271630D01*
X167919475Y-106275068D01*
X167846509Y-106451224D01*
X167746417Y-106601022D01*
X167619022Y-106728417D01*
X167469224Y-106828509D01*
X167302778Y-106897453D01*
X167126082Y-106932600D01*
X166945918Y-106932600D01*
X166769222Y-106897453D01*
X166602776Y-106828509D01*
X166452978Y-106728417D01*
X166325583Y-106601022D01*
X166225491Y-106451224D01*
X166152528Y-106275076D01*
X166151486Y-106271640D01*
X166139936Y-106250029D01*
X166124391Y-106231086D01*
X166105450Y-106215540D01*
X166083840Y-106203988D01*
X166060391Y-106196874D01*
X166036005Y-106194471D01*
X166011619Y-106196872D01*
X165988170Y-106203984D01*
X165966559Y-106215534D01*
X165947616Y-106231079D01*
X165932070Y-106250020D01*
X165920518Y-106271630D01*
X165919475Y-106275068D01*
X165846509Y-106451224D01*
X165746417Y-106601022D01*
X165619022Y-106728417D01*
X165469224Y-106828509D01*
X165302778Y-106897453D01*
X165126082Y-106932600D01*
X164945918Y-106932600D01*
X164769222Y-106897453D01*
X164602776Y-106828509D01*
X164452978Y-106728417D01*
X164325583Y-106601022D01*
X164225491Y-106451224D01*
X164152528Y-106275076D01*
X164151486Y-106271640D01*
X164139936Y-106250029D01*
X164124391Y-106231086D01*
X164105450Y-106215540D01*
X164083840Y-106203988D01*
X164060391Y-106196874D01*
X164036005Y-106194471D01*
X164011619Y-106196872D01*
X163988170Y-106203984D01*
X163966559Y-106215534D01*
X163947616Y-106231079D01*
X163932070Y-106250020D01*
X163920518Y-106271630D01*
X163919475Y-106275068D01*
X163846509Y-106451224D01*
X163746417Y-106601022D01*
X163619022Y-106728417D01*
X163469224Y-106828509D01*
X163302778Y-106897453D01*
X163126082Y-106932600D01*
X162945918Y-106932600D01*
X162769222Y-106897453D01*
X162602776Y-106828509D01*
X162452978Y-106728417D01*
X162325583Y-106601022D01*
X162225491Y-106451224D01*
X162191083Y-106368156D01*
X162179532Y-106346545D01*
X162163987Y-106327603D01*
X162145045Y-106312058D01*
X162123434Y-106300507D01*
X162099985Y-106293394D01*
X162075599Y-106290992D01*
X162051213Y-106293394D01*
X162027764Y-106300507D01*
X162006153Y-106312058D01*
X161987211Y-106327603D01*
X161971666Y-106346545D01*
X161960115Y-106368156D01*
X161953002Y-106391605D01*
X161950600Y-106415991D01*
X161950600Y-107069000D01*
X160121400Y-107069000D01*
X160121400Y-104967000D01*
X161950600Y-104967000D01*
X161950600Y-105620009D01*
X161950600Y-105620009D01*
G37*
G36*
X156349000Y-106819000D02*
G01*
X154547000Y-106819000D01*
X154547000Y-105017000D01*
X156349000Y-105017000D01*
X156349000Y-106819000D01*
X156349000Y-106819000D01*
G37*
G36*
X155558442Y-102483518D02*
G01*
X155624627Y-102490037D01*
X155794466Y-102541557D01*
X155950991Y-102625222D01*
X155986729Y-102654552D01*
X156088186Y-102737814D01*
X156171448Y-102839271D01*
X156200778Y-102875009D01*
X156284443Y-103031534D01*
X156335963Y-103201373D01*
X156353359Y-103378000D01*
X156335963Y-103554627D01*
X156284443Y-103724466D01*
X156200778Y-103880991D01*
X156171448Y-103916729D01*
X156088186Y-104018186D01*
X155986729Y-104101448D01*
X155950991Y-104130778D01*
X155794466Y-104214443D01*
X155624627Y-104265963D01*
X155558442Y-104272482D01*
X155492260Y-104279000D01*
X155403740Y-104279000D01*
X155337558Y-104272482D01*
X155271373Y-104265963D01*
X155101534Y-104214443D01*
X154945009Y-104130778D01*
X154909271Y-104101448D01*
X154807814Y-104018186D01*
X154724552Y-103916729D01*
X154695222Y-103880991D01*
X154611557Y-103724466D01*
X154560037Y-103554627D01*
X154542641Y-103378000D01*
X154560037Y-103201373D01*
X154611557Y-103031534D01*
X154695222Y-102875009D01*
X154724552Y-102839271D01*
X154807814Y-102737814D01*
X154909271Y-102654552D01*
X154945009Y-102625222D01*
X155101534Y-102541557D01*
X155271373Y-102490037D01*
X155337558Y-102483518D01*
X155403740Y-102477000D01*
X155492260Y-102477000D01*
X155558442Y-102483518D01*
X155558442Y-102483518D01*
G37*
G36*
X155558443Y-99943519D02*
G01*
X155624627Y-99950037D01*
X155794466Y-100001557D01*
X155950991Y-100085222D01*
X155986729Y-100114552D01*
X156088186Y-100197814D01*
X156171448Y-100299271D01*
X156200778Y-100335009D01*
X156284443Y-100491534D01*
X156335963Y-100661373D01*
X156353359Y-100838000D01*
X156335963Y-101014627D01*
X156284443Y-101184466D01*
X156200778Y-101340991D01*
X156171448Y-101376729D01*
X156088186Y-101478186D01*
X155986729Y-101561448D01*
X155950991Y-101590778D01*
X155794466Y-101674443D01*
X155624627Y-101725963D01*
X155558443Y-101732481D01*
X155492260Y-101739000D01*
X155403740Y-101739000D01*
X155337557Y-101732481D01*
X155271373Y-101725963D01*
X155101534Y-101674443D01*
X154945009Y-101590778D01*
X154909271Y-101561448D01*
X154807814Y-101478186D01*
X154724552Y-101376729D01*
X154695222Y-101340991D01*
X154611557Y-101184466D01*
X154560037Y-101014627D01*
X154542641Y-100838000D01*
X154560037Y-100661373D01*
X154611557Y-100491534D01*
X154695222Y-100335009D01*
X154724552Y-100299271D01*
X154807814Y-100197814D01*
X154909271Y-100114552D01*
X154945009Y-100085222D01*
X155101534Y-100001557D01*
X155271373Y-99950037D01*
X155337557Y-99943519D01*
X155403740Y-99937000D01*
X155492260Y-99937000D01*
X155558443Y-99943519D01*
X155558443Y-99943519D01*
G37*
G36*
X155558442Y-97403518D02*
G01*
X155624627Y-97410037D01*
X155794466Y-97461557D01*
X155950991Y-97545222D01*
X155986729Y-97574552D01*
X156088186Y-97657814D01*
X156171448Y-97759271D01*
X156200778Y-97795009D01*
X156284443Y-97951534D01*
X156335963Y-98121373D01*
X156353359Y-98298000D01*
X156335963Y-98474627D01*
X156284443Y-98644466D01*
X156200778Y-98800991D01*
X156171448Y-98836729D01*
X156088186Y-98938186D01*
X155986729Y-99021448D01*
X155950991Y-99050778D01*
X155794466Y-99134443D01*
X155624627Y-99185963D01*
X155558443Y-99192481D01*
X155492260Y-99199000D01*
X155403740Y-99199000D01*
X155337557Y-99192481D01*
X155271373Y-99185963D01*
X155101534Y-99134443D01*
X154945009Y-99050778D01*
X154909271Y-99021448D01*
X154807814Y-98938186D01*
X154724552Y-98836729D01*
X154695222Y-98800991D01*
X154611557Y-98644466D01*
X154560037Y-98474627D01*
X154542641Y-98298000D01*
X154560037Y-98121373D01*
X154611557Y-97951534D01*
X154695222Y-97795009D01*
X154724552Y-97759271D01*
X154807814Y-97657814D01*
X154909271Y-97574552D01*
X154945009Y-97545222D01*
X155101534Y-97461557D01*
X155271373Y-97410037D01*
X155337558Y-97403518D01*
X155403740Y-97397000D01*
X155492260Y-97397000D01*
X155558442Y-97403518D01*
X155558442Y-97403518D01*
G37*
G36*
X155558443Y-94863519D02*
G01*
X155624627Y-94870037D01*
X155794466Y-94921557D01*
X155950991Y-95005222D01*
X155986729Y-95034552D01*
X156088186Y-95117814D01*
X156171448Y-95219271D01*
X156200778Y-95255009D01*
X156284443Y-95411534D01*
X156335963Y-95581373D01*
X156353359Y-95758000D01*
X156335963Y-95934627D01*
X156284443Y-96104466D01*
X156200778Y-96260991D01*
X156171448Y-96296729D01*
X156088186Y-96398186D01*
X155986729Y-96481448D01*
X155950991Y-96510778D01*
X155794466Y-96594443D01*
X155624627Y-96645963D01*
X155558443Y-96652481D01*
X155492260Y-96659000D01*
X155403740Y-96659000D01*
X155337558Y-96652482D01*
X155271373Y-96645963D01*
X155101534Y-96594443D01*
X154945009Y-96510778D01*
X154909271Y-96481448D01*
X154807814Y-96398186D01*
X154724552Y-96296729D01*
X154695222Y-96260991D01*
X154611557Y-96104466D01*
X154560037Y-95934627D01*
X154542641Y-95758000D01*
X154560037Y-95581373D01*
X154611557Y-95411534D01*
X154695222Y-95255009D01*
X154724552Y-95219271D01*
X154807814Y-95117814D01*
X154909271Y-95034552D01*
X154945009Y-95005222D01*
X155101534Y-94921557D01*
X155271373Y-94870037D01*
X155337558Y-94863518D01*
X155403740Y-94857000D01*
X155492260Y-94857000D01*
X155558443Y-94863519D01*
X155558443Y-94863519D01*
G37*
G36*
X104654443Y-93553519D02*
G01*
X104720627Y-93560037D01*
X104890466Y-93611557D01*
X105046991Y-93695222D01*
X105078388Y-93720989D01*
X105184186Y-93807814D01*
X105267448Y-93909271D01*
X105296778Y-93945009D01*
X105380443Y-94101534D01*
X105431963Y-94271373D01*
X105449359Y-94448000D01*
X105431963Y-94624627D01*
X105380443Y-94794466D01*
X105296778Y-94950991D01*
X105267448Y-94986729D01*
X105184186Y-95088186D01*
X105082729Y-95171448D01*
X105046991Y-95200778D01*
X104890466Y-95284443D01*
X104720627Y-95335963D01*
X104654443Y-95342481D01*
X104588260Y-95349000D01*
X104199740Y-95349000D01*
X104133557Y-95342481D01*
X104067373Y-95335963D01*
X103897534Y-95284443D01*
X103741009Y-95200778D01*
X103705271Y-95171448D01*
X103603814Y-95088186D01*
X103520552Y-94986729D01*
X103491222Y-94950991D01*
X103407557Y-94794466D01*
X103356037Y-94624627D01*
X103338641Y-94448000D01*
X103356037Y-94271373D01*
X103407557Y-94101534D01*
X103491222Y-93945009D01*
X103520552Y-93909271D01*
X103603814Y-93807814D01*
X103709612Y-93720989D01*
X103741009Y-93695222D01*
X103897534Y-93611557D01*
X104067373Y-93560037D01*
X104133557Y-93553519D01*
X104199740Y-93547000D01*
X104588260Y-93547000D01*
X104654443Y-93553519D01*
X104654443Y-93553519D01*
G37*
G36*
X155558442Y-92323518D02*
G01*
X155624627Y-92330037D01*
X155794466Y-92381557D01*
X155950991Y-92465222D01*
X155986729Y-92494552D01*
X156088186Y-92577814D01*
X156160637Y-92666097D01*
X156200778Y-92715009D01*
X156200779Y-92715011D01*
X156269677Y-92843908D01*
X156284443Y-92871534D01*
X156335963Y-93041373D01*
X156353359Y-93218000D01*
X156335963Y-93394627D01*
X156284443Y-93564466D01*
X156200778Y-93720991D01*
X156171448Y-93756729D01*
X156088186Y-93858186D01*
X155986729Y-93941448D01*
X155950991Y-93970778D01*
X155794466Y-94054443D01*
X155624627Y-94105963D01*
X155558442Y-94112482D01*
X155492260Y-94119000D01*
X155403740Y-94119000D01*
X155337558Y-94112482D01*
X155271373Y-94105963D01*
X155101534Y-94054443D01*
X154945009Y-93970778D01*
X154909271Y-93941448D01*
X154807814Y-93858186D01*
X154724552Y-93756729D01*
X154695222Y-93720991D01*
X154611557Y-93564466D01*
X154560037Y-93394627D01*
X154542641Y-93218000D01*
X154560037Y-93041373D01*
X154611557Y-92871534D01*
X154626324Y-92843908D01*
X154695221Y-92715011D01*
X154695222Y-92715009D01*
X154735363Y-92666097D01*
X154807814Y-92577814D01*
X154909271Y-92494552D01*
X154945009Y-92465222D01*
X155101534Y-92381557D01*
X155271373Y-92330037D01*
X155337558Y-92323518D01*
X155403740Y-92317000D01*
X155492260Y-92317000D01*
X155558442Y-92323518D01*
X155558442Y-92323518D01*
G37*
G36*
X130029444Y-92089375D02*
G01*
X130066261Y-92100543D01*
X130100183Y-92118675D01*
X130129920Y-92143080D01*
X130154325Y-92172817D01*
X130172457Y-92206739D01*
X130183625Y-92243556D01*
X130188000Y-92287977D01*
X130188000Y-93209023D01*
X130183625Y-93253444D01*
X130172457Y-93290261D01*
X130154325Y-93324183D01*
X130129920Y-93353920D01*
X130100183Y-93378325D01*
X130066261Y-93396457D01*
X130029444Y-93407625D01*
X129985023Y-93412000D01*
X125538977Y-93412000D01*
X125494556Y-93407625D01*
X125457739Y-93396457D01*
X125423817Y-93378325D01*
X125394080Y-93353920D01*
X125369675Y-93324183D01*
X125351543Y-93290261D01*
X125340375Y-93253444D01*
X125336000Y-93209023D01*
X125336000Y-92287977D01*
X125340375Y-92243556D01*
X125351543Y-92206739D01*
X125369675Y-92172817D01*
X125394080Y-92143080D01*
X125423817Y-92118675D01*
X125457739Y-92100543D01*
X125494556Y-92089375D01*
X125538977Y-92085000D01*
X129985023Y-92085000D01*
X130029444Y-92089375D01*
X130029444Y-92089375D01*
G37*
G36*
X180261905Y-89700989D02*
G01*
X180560350Y-89760353D01*
X180888122Y-89896121D01*
X181183109Y-90093225D01*
X181433975Y-90344091D01*
X181631079Y-90639078D01*
X181766847Y-90966850D01*
X181836060Y-91314811D01*
X181836060Y-91669589D01*
X181766847Y-92017550D01*
X181631079Y-92345322D01*
X181433975Y-92640309D01*
X181183109Y-92891175D01*
X180888122Y-93088279D01*
X180560350Y-93224047D01*
X180261905Y-93283411D01*
X180212390Y-93293260D01*
X179857610Y-93293260D01*
X179808095Y-93283411D01*
X179509650Y-93224047D01*
X179181878Y-93088279D01*
X178886891Y-92891175D01*
X178636025Y-92640309D01*
X178438921Y-92345322D01*
X178303153Y-92017550D01*
X178233940Y-91669589D01*
X178233940Y-91314811D01*
X178303153Y-90966850D01*
X178438921Y-90639078D01*
X178636025Y-90344091D01*
X178886891Y-90093225D01*
X179181878Y-89896121D01*
X179509650Y-89760353D01*
X179808095Y-89700989D01*
X179857610Y-89691140D01*
X180212390Y-89691140D01*
X180261905Y-89700989D01*
X180261905Y-89700989D01*
G37*
G36*
X105302600Y-91050989D02*
G01*
X105335652Y-91061015D01*
X105366103Y-91077292D01*
X105392799Y-91099201D01*
X105414708Y-91125897D01*
X105430985Y-91156348D01*
X105441011Y-91189400D01*
X105445000Y-91229903D01*
X105445000Y-92666097D01*
X105441011Y-92706600D01*
X105430985Y-92739652D01*
X105414708Y-92770103D01*
X105392799Y-92796799D01*
X105366103Y-92818708D01*
X105335652Y-92834985D01*
X105302600Y-92845011D01*
X105262097Y-92849000D01*
X103525903Y-92849000D01*
X103485400Y-92845011D01*
X103452348Y-92834985D01*
X103421897Y-92818708D01*
X103395201Y-92796799D01*
X103373292Y-92770103D01*
X103357015Y-92739652D01*
X103346989Y-92706600D01*
X103343000Y-92666097D01*
X103343000Y-91229903D01*
X103346989Y-91189400D01*
X103357015Y-91156348D01*
X103373292Y-91125897D01*
X103395201Y-91099201D01*
X103421897Y-91077292D01*
X103452348Y-91061015D01*
X103485400Y-91050989D01*
X103525903Y-91047000D01*
X105262097Y-91047000D01*
X105302600Y-91050989D01*
X105302600Y-91050989D01*
G37*
G36*
X130029444Y-88964375D02*
G01*
X130066261Y-88975543D01*
X130100183Y-88993675D01*
X130129920Y-89018080D01*
X130154325Y-89047817D01*
X130172457Y-89081739D01*
X130183625Y-89118556D01*
X130188000Y-89162977D01*
X130188000Y-90084023D01*
X130183625Y-90128444D01*
X130172457Y-90165261D01*
X130154325Y-90199183D01*
X130129920Y-90228920D01*
X130100183Y-90253325D01*
X130066261Y-90271457D01*
X130029444Y-90282625D01*
X129985023Y-90287000D01*
X125538977Y-90287000D01*
X125494556Y-90282625D01*
X125457739Y-90271457D01*
X125423817Y-90253325D01*
X125394080Y-90228920D01*
X125369675Y-90199183D01*
X125351543Y-90165261D01*
X125340375Y-90128444D01*
X125336000Y-90084023D01*
X125336000Y-89162977D01*
X125340375Y-89118556D01*
X125351543Y-89081739D01*
X125369675Y-89047817D01*
X125394080Y-89018080D01*
X125423817Y-88993675D01*
X125457739Y-88975543D01*
X125494556Y-88964375D01*
X125538977Y-88960000D01*
X129985023Y-88960000D01*
X130029444Y-88964375D01*
X130029444Y-88964375D01*
G37*
G36*
X161302778Y-88038547D02*
G01*
X161469224Y-88107491D01*
X161619022Y-88207583D01*
X161746417Y-88334978D01*
X161846509Y-88484776D01*
X161919472Y-88660924D01*
X161920514Y-88664360D01*
X161932064Y-88685971D01*
X161947609Y-88704914D01*
X161966550Y-88720460D01*
X161988160Y-88732012D01*
X162011609Y-88739126D01*
X162035995Y-88741529D01*
X162060381Y-88739128D01*
X162083830Y-88732016D01*
X162105441Y-88720466D01*
X162124384Y-88704921D01*
X162139930Y-88685980D01*
X162151482Y-88664370D01*
X162152525Y-88660932D01*
X162225491Y-88484776D01*
X162325583Y-88334978D01*
X162452978Y-88207583D01*
X162602776Y-88107491D01*
X162769222Y-88038547D01*
X162945918Y-88003400D01*
X163126082Y-88003400D01*
X163302778Y-88038547D01*
X163469224Y-88107491D01*
X163619022Y-88207583D01*
X163746417Y-88334978D01*
X163846509Y-88484776D01*
X163919472Y-88660924D01*
X163920514Y-88664360D01*
X163932064Y-88685971D01*
X163947609Y-88704914D01*
X163966550Y-88720460D01*
X163988160Y-88732012D01*
X164011609Y-88739126D01*
X164035995Y-88741529D01*
X164060381Y-88739128D01*
X164083830Y-88732016D01*
X164105441Y-88720466D01*
X164124384Y-88704921D01*
X164139930Y-88685980D01*
X164151482Y-88664370D01*
X164152525Y-88660932D01*
X164225491Y-88484776D01*
X164325583Y-88334978D01*
X164452978Y-88207583D01*
X164602776Y-88107491D01*
X164769222Y-88038547D01*
X164945918Y-88003400D01*
X165126082Y-88003400D01*
X165302778Y-88038547D01*
X165469224Y-88107491D01*
X165619022Y-88207583D01*
X165746417Y-88334978D01*
X165846509Y-88484776D01*
X165919472Y-88660924D01*
X165920514Y-88664360D01*
X165932064Y-88685971D01*
X165947609Y-88704914D01*
X165966550Y-88720460D01*
X165988160Y-88732012D01*
X166011609Y-88739126D01*
X166035995Y-88741529D01*
X166060381Y-88739128D01*
X166083830Y-88732016D01*
X166105441Y-88720466D01*
X166124384Y-88704921D01*
X166139930Y-88685980D01*
X166151482Y-88664370D01*
X166152525Y-88660932D01*
X166225491Y-88484776D01*
X166325583Y-88334978D01*
X166452978Y-88207583D01*
X166602776Y-88107491D01*
X166769222Y-88038547D01*
X166945918Y-88003400D01*
X167126082Y-88003400D01*
X167302778Y-88038547D01*
X167469224Y-88107491D01*
X167619022Y-88207583D01*
X167746417Y-88334978D01*
X167846509Y-88484776D01*
X167919472Y-88660924D01*
X167920514Y-88664360D01*
X167932064Y-88685971D01*
X167947609Y-88704914D01*
X167966550Y-88720460D01*
X167988160Y-88732012D01*
X168011609Y-88739126D01*
X168035995Y-88741529D01*
X168060381Y-88739128D01*
X168083830Y-88732016D01*
X168105441Y-88720466D01*
X168124384Y-88704921D01*
X168139930Y-88685980D01*
X168151482Y-88664370D01*
X168152525Y-88660932D01*
X168225491Y-88484776D01*
X168325583Y-88334978D01*
X168452978Y-88207583D01*
X168602776Y-88107491D01*
X168769222Y-88038547D01*
X168945918Y-88003400D01*
X169126082Y-88003400D01*
X169302778Y-88038547D01*
X169469224Y-88107491D01*
X169619022Y-88207583D01*
X169746417Y-88334978D01*
X169846509Y-88484776D01*
X169919472Y-88660924D01*
X169920514Y-88664360D01*
X169932064Y-88685971D01*
X169947609Y-88704914D01*
X169966550Y-88720460D01*
X169988160Y-88732012D01*
X170011609Y-88739126D01*
X170035995Y-88741529D01*
X170060381Y-88739128D01*
X170083830Y-88732016D01*
X170105441Y-88720466D01*
X170124384Y-88704921D01*
X170139930Y-88685980D01*
X170151482Y-88664370D01*
X170152525Y-88660932D01*
X170225491Y-88484776D01*
X170325583Y-88334978D01*
X170452978Y-88207583D01*
X170602776Y-88107491D01*
X170769222Y-88038547D01*
X170945918Y-88003400D01*
X171126082Y-88003400D01*
X171302778Y-88038547D01*
X171469224Y-88107491D01*
X171619022Y-88207583D01*
X171746417Y-88334978D01*
X171846509Y-88484776D01*
X171919472Y-88660924D01*
X171920514Y-88664360D01*
X171932064Y-88685971D01*
X171947609Y-88704914D01*
X171966550Y-88720460D01*
X171988160Y-88732012D01*
X172011609Y-88739126D01*
X172035995Y-88741529D01*
X172060381Y-88739128D01*
X172083830Y-88732016D01*
X172105441Y-88720466D01*
X172124384Y-88704921D01*
X172139930Y-88685980D01*
X172151482Y-88664370D01*
X172152525Y-88660932D01*
X172225491Y-88484776D01*
X172325583Y-88334978D01*
X172452978Y-88207583D01*
X172602776Y-88107491D01*
X172769222Y-88038547D01*
X172945918Y-88003400D01*
X173126082Y-88003400D01*
X173302778Y-88038547D01*
X173469224Y-88107491D01*
X173619022Y-88207583D01*
X173746417Y-88334978D01*
X173846509Y-88484776D01*
X173919472Y-88660924D01*
X173920514Y-88664360D01*
X173932064Y-88685971D01*
X173947609Y-88704914D01*
X173966550Y-88720460D01*
X173988160Y-88732012D01*
X174011609Y-88739126D01*
X174035995Y-88741529D01*
X174060381Y-88739128D01*
X174083830Y-88732016D01*
X174105441Y-88720466D01*
X174124384Y-88704921D01*
X174139930Y-88685980D01*
X174151482Y-88664370D01*
X174152525Y-88660932D01*
X174225491Y-88484776D01*
X174325583Y-88334978D01*
X174452978Y-88207583D01*
X174602776Y-88107491D01*
X174769222Y-88038547D01*
X174945918Y-88003400D01*
X175126082Y-88003400D01*
X175302778Y-88038547D01*
X175469224Y-88107491D01*
X175619022Y-88207583D01*
X175746417Y-88334978D01*
X175846509Y-88484776D01*
X175915453Y-88651222D01*
X175950600Y-88827918D01*
X175950600Y-89008082D01*
X175915453Y-89184778D01*
X175846509Y-89351224D01*
X175746417Y-89501022D01*
X175619022Y-89628417D01*
X175469224Y-89728509D01*
X175302778Y-89797453D01*
X175126082Y-89832600D01*
X174945918Y-89832600D01*
X174769222Y-89797453D01*
X174602776Y-89728509D01*
X174452978Y-89628417D01*
X174325583Y-89501022D01*
X174225491Y-89351224D01*
X174152528Y-89175076D01*
X174151486Y-89171640D01*
X174139936Y-89150029D01*
X174124391Y-89131086D01*
X174105450Y-89115540D01*
X174083840Y-89103988D01*
X174060391Y-89096874D01*
X174036005Y-89094471D01*
X174011619Y-89096872D01*
X173988170Y-89103984D01*
X173966559Y-89115534D01*
X173947616Y-89131079D01*
X173932070Y-89150020D01*
X173920518Y-89171630D01*
X173919475Y-89175068D01*
X173846509Y-89351224D01*
X173746417Y-89501022D01*
X173619022Y-89628417D01*
X173469224Y-89728509D01*
X173302778Y-89797453D01*
X173126082Y-89832600D01*
X172945918Y-89832600D01*
X172769222Y-89797453D01*
X172602776Y-89728509D01*
X172452978Y-89628417D01*
X172325583Y-89501022D01*
X172225491Y-89351224D01*
X172152528Y-89175076D01*
X172151486Y-89171640D01*
X172139936Y-89150029D01*
X172124391Y-89131086D01*
X172105450Y-89115540D01*
X172083840Y-89103988D01*
X172060391Y-89096874D01*
X172036005Y-89094471D01*
X172011619Y-89096872D01*
X171988170Y-89103984D01*
X171966559Y-89115534D01*
X171947616Y-89131079D01*
X171932070Y-89150020D01*
X171920518Y-89171630D01*
X171919475Y-89175068D01*
X171846509Y-89351224D01*
X171746417Y-89501022D01*
X171619022Y-89628417D01*
X171469224Y-89728509D01*
X171302778Y-89797453D01*
X171126082Y-89832600D01*
X170945918Y-89832600D01*
X170769222Y-89797453D01*
X170602776Y-89728509D01*
X170452978Y-89628417D01*
X170325583Y-89501022D01*
X170225491Y-89351224D01*
X170152528Y-89175076D01*
X170151486Y-89171640D01*
X170139936Y-89150029D01*
X170124391Y-89131086D01*
X170105450Y-89115540D01*
X170083840Y-89103988D01*
X170060391Y-89096874D01*
X170036005Y-89094471D01*
X170011619Y-89096872D01*
X169988170Y-89103984D01*
X169966559Y-89115534D01*
X169947616Y-89131079D01*
X169932070Y-89150020D01*
X169920518Y-89171630D01*
X169919475Y-89175068D01*
X169846509Y-89351224D01*
X169746417Y-89501022D01*
X169619022Y-89628417D01*
X169469224Y-89728509D01*
X169302778Y-89797453D01*
X169126082Y-89832600D01*
X168945918Y-89832600D01*
X168769222Y-89797453D01*
X168602776Y-89728509D01*
X168452978Y-89628417D01*
X168325583Y-89501022D01*
X168225491Y-89351224D01*
X168152528Y-89175076D01*
X168151486Y-89171640D01*
X168139936Y-89150029D01*
X168124391Y-89131086D01*
X168105450Y-89115540D01*
X168083840Y-89103988D01*
X168060391Y-89096874D01*
X168036005Y-89094471D01*
X168011619Y-89096872D01*
X167988170Y-89103984D01*
X167966559Y-89115534D01*
X167947616Y-89131079D01*
X167932070Y-89150020D01*
X167920518Y-89171630D01*
X167919475Y-89175068D01*
X167846509Y-89351224D01*
X167746417Y-89501022D01*
X167619022Y-89628417D01*
X167469224Y-89728509D01*
X167302778Y-89797453D01*
X167126082Y-89832600D01*
X166945918Y-89832600D01*
X166769222Y-89797453D01*
X166602776Y-89728509D01*
X166452978Y-89628417D01*
X166325583Y-89501022D01*
X166225491Y-89351224D01*
X166152528Y-89175076D01*
X166151486Y-89171640D01*
X166139936Y-89150029D01*
X166124391Y-89131086D01*
X166105450Y-89115540D01*
X166083840Y-89103988D01*
X166060391Y-89096874D01*
X166036005Y-89094471D01*
X166011619Y-89096872D01*
X165988170Y-89103984D01*
X165966559Y-89115534D01*
X165947616Y-89131079D01*
X165932070Y-89150020D01*
X165920518Y-89171630D01*
X165919475Y-89175068D01*
X165846509Y-89351224D01*
X165746417Y-89501022D01*
X165619022Y-89628417D01*
X165469224Y-89728509D01*
X165302778Y-89797453D01*
X165126082Y-89832600D01*
X164945918Y-89832600D01*
X164769222Y-89797453D01*
X164602776Y-89728509D01*
X164452978Y-89628417D01*
X164325583Y-89501022D01*
X164225491Y-89351224D01*
X164152528Y-89175076D01*
X164151486Y-89171640D01*
X164139936Y-89150029D01*
X164124391Y-89131086D01*
X164105450Y-89115540D01*
X164083840Y-89103988D01*
X164060391Y-89096874D01*
X164036005Y-89094471D01*
X164011619Y-89096872D01*
X163988170Y-89103984D01*
X163966559Y-89115534D01*
X163947616Y-89131079D01*
X163932070Y-89150020D01*
X163920518Y-89171630D01*
X163919475Y-89175068D01*
X163846509Y-89351224D01*
X163746417Y-89501022D01*
X163619022Y-89628417D01*
X163469224Y-89728509D01*
X163302778Y-89797453D01*
X163126082Y-89832600D01*
X162945918Y-89832600D01*
X162769222Y-89797453D01*
X162602776Y-89728509D01*
X162452978Y-89628417D01*
X162325583Y-89501022D01*
X162225491Y-89351224D01*
X162152528Y-89175076D01*
X162151486Y-89171640D01*
X162139936Y-89150029D01*
X162124391Y-89131086D01*
X162105450Y-89115540D01*
X162083840Y-89103988D01*
X162060391Y-89096874D01*
X162036005Y-89094471D01*
X162011619Y-89096872D01*
X161988170Y-89103984D01*
X161966559Y-89115534D01*
X161947616Y-89131079D01*
X161932070Y-89150020D01*
X161920518Y-89171630D01*
X161919475Y-89175068D01*
X161846509Y-89351224D01*
X161746417Y-89501022D01*
X161619022Y-89628417D01*
X161469224Y-89728509D01*
X161302778Y-89797453D01*
X161126082Y-89832600D01*
X160945918Y-89832600D01*
X160769222Y-89797453D01*
X160602776Y-89728509D01*
X160452978Y-89628417D01*
X160325583Y-89501022D01*
X160225491Y-89351224D01*
X160156547Y-89184778D01*
X160121400Y-89008082D01*
X160121400Y-88827918D01*
X160156547Y-88651222D01*
X160225491Y-88484776D01*
X160325583Y-88334978D01*
X160452978Y-88207583D01*
X160602776Y-88107491D01*
X160769222Y-88038547D01*
X160945918Y-88003400D01*
X161126082Y-88003400D01*
X161302778Y-88038547D01*
X161302778Y-88038547D01*
G37*
G36*
X154317000Y-87769000D02*
G01*
X152515000Y-87769000D01*
X152515000Y-85967000D01*
X154317000Y-85967000D01*
X154317000Y-87769000D01*
X154317000Y-87769000D01*
G37*
G36*
X156066443Y-85973519D02*
G01*
X156132627Y-85980037D01*
X156302466Y-86031557D01*
X156458991Y-86115222D01*
X156494729Y-86144552D01*
X156596186Y-86227814D01*
X156646399Y-86289000D01*
X156708778Y-86365009D01*
X156792443Y-86521534D01*
X156843963Y-86691373D01*
X156861359Y-86868000D01*
X156843963Y-87044627D01*
X156792443Y-87214466D01*
X156708778Y-87370991D01*
X156679448Y-87406729D01*
X156596186Y-87508186D01*
X156494729Y-87591448D01*
X156458991Y-87620778D01*
X156302466Y-87704443D01*
X156132627Y-87755963D01*
X156066442Y-87762482D01*
X156000260Y-87769000D01*
X155911740Y-87769000D01*
X155845558Y-87762482D01*
X155779373Y-87755963D01*
X155609534Y-87704443D01*
X155453009Y-87620778D01*
X155417271Y-87591448D01*
X155315814Y-87508186D01*
X155232552Y-87406729D01*
X155203222Y-87370991D01*
X155119557Y-87214466D01*
X155068037Y-87044627D01*
X155050641Y-86868000D01*
X155068037Y-86691373D01*
X155119557Y-86521534D01*
X155203222Y-86365009D01*
X155265601Y-86289000D01*
X155315814Y-86227814D01*
X155417271Y-86144552D01*
X155453009Y-86115222D01*
X155609534Y-86031557D01*
X155779373Y-85980037D01*
X155845557Y-85973519D01*
X155911740Y-85967000D01*
X156000260Y-85967000D01*
X156066443Y-85973519D01*
X156066443Y-85973519D01*
G37*
G36*
X102637715Y-85046058D02*
G01*
X102733753Y-85075191D01*
X102748935Y-85079796D01*
X102755722Y-85081855D01*
X102864468Y-85139981D01*
X102959790Y-85218210D01*
X103038019Y-85313532D01*
X103096145Y-85422278D01*
X103131942Y-85540285D01*
X103144028Y-85663000D01*
X103131942Y-85785715D01*
X103096145Y-85903722D01*
X103038019Y-86012468D01*
X102959790Y-86107790D01*
X102864468Y-86186019D01*
X102755722Y-86244145D01*
X102637715Y-86279942D01*
X102545746Y-86289000D01*
X101834254Y-86289000D01*
X101742285Y-86279942D01*
X101624278Y-86244145D01*
X101515532Y-86186019D01*
X101420210Y-86107790D01*
X101341981Y-86012468D01*
X101283855Y-85903722D01*
X101248058Y-85785715D01*
X101235972Y-85663000D01*
X101248058Y-85540285D01*
X101283855Y-85422278D01*
X101341981Y-85313532D01*
X101420210Y-85218210D01*
X101515532Y-85139981D01*
X101624278Y-85081855D01*
X101631066Y-85079796D01*
X101646247Y-85075191D01*
X101742285Y-85046058D01*
X101834254Y-85037000D01*
X102545746Y-85037000D01*
X102637715Y-85046058D01*
X102637715Y-85046058D01*
G37*
G36*
X105028410Y-83843525D02*
G01*
X105113426Y-83869314D01*
X105191775Y-83911193D01*
X105260449Y-83967551D01*
X105316807Y-84036225D01*
X105358686Y-84114574D01*
X105384475Y-84199590D01*
X105393182Y-84288000D01*
X105384475Y-84376410D01*
X105358686Y-84461426D01*
X105316807Y-84539775D01*
X105267851Y-84599428D01*
X105254238Y-84619802D01*
X105244860Y-84642441D01*
X105240080Y-84666474D01*
X105240080Y-84690978D01*
X105244861Y-84715012D01*
X105254238Y-84737650D01*
X105267852Y-84758025D01*
X105285179Y-84775352D01*
X105305553Y-84788965D01*
X105328192Y-84798343D01*
X105352225Y-84803123D01*
X105376729Y-84803123D01*
X105400763Y-84798342D01*
X105409216Y-84794841D01*
X105562879Y-84748228D01*
X105676882Y-84737000D01*
X106303118Y-84737000D01*
X106417121Y-84748228D01*
X106546671Y-84787527D01*
X106551413Y-84788965D01*
X106563402Y-84792602D01*
X106698204Y-84864655D01*
X106698207Y-84864657D01*
X106698208Y-84864658D01*
X106733956Y-84893996D01*
X106816369Y-84961631D01*
X106913345Y-85079796D01*
X106985398Y-85214598D01*
X107029772Y-85360879D01*
X107044754Y-85513000D01*
X107029772Y-85665121D01*
X106985398Y-85811402D01*
X106913345Y-85946204D01*
X106913343Y-85946207D01*
X106913342Y-85946208D01*
X106816369Y-86064369D01*
X106698204Y-86161345D01*
X106563402Y-86233398D01*
X106417121Y-86277772D01*
X106303118Y-86289000D01*
X105676882Y-86289000D01*
X105562879Y-86277772D01*
X105416598Y-86233398D01*
X105281796Y-86161345D01*
X105163631Y-86064369D01*
X105066658Y-85946208D01*
X105066657Y-85946207D01*
X105066655Y-85946204D01*
X104994602Y-85811402D01*
X104950228Y-85665121D01*
X104935246Y-85513000D01*
X104950228Y-85360879D01*
X104994602Y-85214598D01*
X105066655Y-85079796D01*
X105163633Y-84961629D01*
X105200105Y-84931697D01*
X105217432Y-84914370D01*
X105231046Y-84893996D01*
X105240423Y-84871357D01*
X105245204Y-84847324D01*
X105245204Y-84822820D01*
X105240424Y-84798787D01*
X105231047Y-84776148D01*
X105217433Y-84755773D01*
X105200106Y-84738446D01*
X105179732Y-84724832D01*
X105157093Y-84715455D01*
X105133060Y-84710674D01*
X105108556Y-84710674D01*
X105084523Y-84715454D01*
X105028412Y-84732475D01*
X104962158Y-84739000D01*
X104917842Y-84739000D01*
X104851590Y-84732475D01*
X104766574Y-84706686D01*
X104688225Y-84664807D01*
X104619551Y-84608449D01*
X104563193Y-84539775D01*
X104521314Y-84461426D01*
X104495525Y-84376410D01*
X104486818Y-84288000D01*
X104495525Y-84199590D01*
X104521314Y-84114574D01*
X104563193Y-84036225D01*
X104619551Y-83967551D01*
X104688225Y-83911193D01*
X104766574Y-83869314D01*
X104851590Y-83843525D01*
X104917842Y-83837000D01*
X104962158Y-83837000D01*
X105028410Y-83843525D01*
X105028410Y-83843525D01*
G37*
G36*
X171316142Y-82582442D02*
G01*
X171464101Y-82643729D01*
X171597255Y-82732699D01*
X171710501Y-82845945D01*
X171799471Y-82979099D01*
X171860758Y-83127058D01*
X171892000Y-83284125D01*
X171892000Y-83444275D01*
X171860758Y-83601342D01*
X171799471Y-83749301D01*
X171710501Y-83882455D01*
X171597255Y-83995701D01*
X171464101Y-84084671D01*
X171316142Y-84145958D01*
X171159075Y-84177200D01*
X170998925Y-84177200D01*
X170841858Y-84145958D01*
X170693899Y-84084671D01*
X170560745Y-83995701D01*
X170447499Y-83882455D01*
X170358529Y-83749301D01*
X170297242Y-83601342D01*
X170266000Y-83444275D01*
X170266000Y-83284125D01*
X170297242Y-83127058D01*
X170358529Y-82979099D01*
X170447499Y-82845945D01*
X170560745Y-82732699D01*
X170693899Y-82643729D01*
X170841858Y-82582442D01*
X170998925Y-82551200D01*
X171159075Y-82551200D01*
X171316142Y-82582442D01*
X171316142Y-82582442D01*
G37*
G36*
X173856142Y-82582442D02*
G01*
X174004101Y-82643729D01*
X174137255Y-82732699D01*
X174250501Y-82845945D01*
X174339471Y-82979099D01*
X174400758Y-83127058D01*
X174432000Y-83284125D01*
X174432000Y-83444275D01*
X174400758Y-83601342D01*
X174339471Y-83749301D01*
X174250501Y-83882455D01*
X174137255Y-83995701D01*
X174004101Y-84084671D01*
X173856142Y-84145958D01*
X173699075Y-84177200D01*
X173538925Y-84177200D01*
X173381858Y-84145958D01*
X173233899Y-84084671D01*
X173100745Y-83995701D01*
X172987499Y-83882455D01*
X172898529Y-83749301D01*
X172837242Y-83601342D01*
X172806000Y-83444275D01*
X172806000Y-83284125D01*
X172837242Y-83127058D01*
X172898529Y-82979099D01*
X172987499Y-82845945D01*
X173100745Y-82732699D01*
X173233899Y-82643729D01*
X173381858Y-82582442D01*
X173538925Y-82551200D01*
X173699075Y-82551200D01*
X173856142Y-82582442D01*
X173856142Y-82582442D01*
G37*
G36*
X168776142Y-82582442D02*
G01*
X168924101Y-82643729D01*
X169057255Y-82732699D01*
X169170501Y-82845945D01*
X169259471Y-82979099D01*
X169320758Y-83127058D01*
X169352000Y-83284125D01*
X169352000Y-83444275D01*
X169320758Y-83601342D01*
X169259471Y-83749301D01*
X169170501Y-83882455D01*
X169057255Y-83995701D01*
X168924101Y-84084671D01*
X168776142Y-84145958D01*
X168619075Y-84177200D01*
X168458925Y-84177200D01*
X168301858Y-84145958D01*
X168153899Y-84084671D01*
X168020745Y-83995701D01*
X167907499Y-83882455D01*
X167818529Y-83749301D01*
X167757242Y-83601342D01*
X167726000Y-83444275D01*
X167726000Y-83284125D01*
X167757242Y-83127058D01*
X167818529Y-82979099D01*
X167907499Y-82845945D01*
X168020745Y-82732699D01*
X168153899Y-82643729D01*
X168301858Y-82582442D01*
X168458925Y-82551200D01*
X168619075Y-82551200D01*
X168776142Y-82582442D01*
X168776142Y-82582442D01*
G37*
G36*
X166236142Y-82582442D02*
G01*
X166384101Y-82643729D01*
X166517255Y-82732699D01*
X166630501Y-82845945D01*
X166719471Y-82979099D01*
X166780758Y-83127058D01*
X166812000Y-83284125D01*
X166812000Y-83444275D01*
X166780758Y-83601342D01*
X166719471Y-83749301D01*
X166630501Y-83882455D01*
X166517255Y-83995701D01*
X166384101Y-84084671D01*
X166236142Y-84145958D01*
X166079075Y-84177200D01*
X165918925Y-84177200D01*
X165761858Y-84145958D01*
X165613899Y-84084671D01*
X165480745Y-83995701D01*
X165367499Y-83882455D01*
X165278529Y-83749301D01*
X165217242Y-83601342D01*
X165186000Y-83444275D01*
X165186000Y-83284125D01*
X165217242Y-83127058D01*
X165278529Y-82979099D01*
X165367499Y-82845945D01*
X165480745Y-82732699D01*
X165613899Y-82643729D01*
X165761858Y-82582442D01*
X165918925Y-82551200D01*
X166079075Y-82551200D01*
X166236142Y-82582442D01*
X166236142Y-82582442D01*
G37*
G36*
X154725000Y-82843000D02*
G01*
X153123000Y-82843000D01*
X153123000Y-81241000D01*
X154725000Y-81241000D01*
X154725000Y-82843000D01*
X154725000Y-82843000D01*
G37*
G36*
X142727642Y-80763781D02*
G01*
X142873414Y-80824162D01*
X142873416Y-80824163D01*
X143004608Y-80911822D01*
X143116178Y-81023392D01*
X143203837Y-81154584D01*
X143203838Y-81154586D01*
X143264219Y-81300358D01*
X143295000Y-81455107D01*
X143295000Y-81612893D01*
X143264219Y-81767642D01*
X143203838Y-81913414D01*
X143203837Y-81913416D01*
X143116178Y-82044608D01*
X143004608Y-82156178D01*
X142873416Y-82243837D01*
X142873415Y-82243838D01*
X142873414Y-82243838D01*
X142727642Y-82304219D01*
X142572893Y-82335000D01*
X142415107Y-82335000D01*
X142260358Y-82304219D01*
X142114586Y-82243838D01*
X142114585Y-82243838D01*
X142114584Y-82243837D01*
X141983392Y-82156178D01*
X141871822Y-82044608D01*
X141784163Y-81913416D01*
X141784162Y-81913414D01*
X141723781Y-81767642D01*
X141693000Y-81612893D01*
X141693000Y-81455107D01*
X141723781Y-81300358D01*
X141784162Y-81154586D01*
X141784163Y-81154584D01*
X141871822Y-81023392D01*
X141983392Y-80911822D01*
X142114584Y-80824163D01*
X142114586Y-80824162D01*
X142260358Y-80763781D01*
X142415107Y-80733000D01*
X142572893Y-80733000D01*
X142727642Y-80763781D01*
X142727642Y-80763781D01*
G37*
G36*
X147607642Y-80763781D02*
G01*
X147753414Y-80824162D01*
X147753416Y-80824163D01*
X147884608Y-80911822D01*
X147996178Y-81023392D01*
X148083837Y-81154584D01*
X148083838Y-81154586D01*
X148144219Y-81300358D01*
X148175000Y-81455107D01*
X148175000Y-81612893D01*
X148144219Y-81767642D01*
X148083838Y-81913414D01*
X148083837Y-81913416D01*
X147996178Y-82044608D01*
X147884608Y-82156178D01*
X147753416Y-82243837D01*
X147753415Y-82243838D01*
X147753414Y-82243838D01*
X147607642Y-82304219D01*
X147452893Y-82335000D01*
X147295107Y-82335000D01*
X147140358Y-82304219D01*
X146994586Y-82243838D01*
X146994585Y-82243838D01*
X146994584Y-82243837D01*
X146863392Y-82156178D01*
X146751822Y-82044608D01*
X146664163Y-81913416D01*
X146664162Y-81913414D01*
X146603781Y-81767642D01*
X146573000Y-81612893D01*
X146573000Y-81455107D01*
X146603781Y-81300358D01*
X146664162Y-81154586D01*
X146664163Y-81154584D01*
X146751822Y-81023392D01*
X146863392Y-80911822D01*
X146994584Y-80824163D01*
X146994586Y-80824162D01*
X147140358Y-80763781D01*
X147295107Y-80733000D01*
X147452893Y-80733000D01*
X147607642Y-80763781D01*
X147607642Y-80763781D01*
G37*
G36*
X181394000Y-81675200D02*
G01*
X179692000Y-81675200D01*
X179692000Y-79973200D01*
X181394000Y-79973200D01*
X181394000Y-81675200D01*
X181394000Y-81675200D01*
G37*
G36*
X168776142Y-80042442D02*
G01*
X168924101Y-80103729D01*
X169057255Y-80192699D01*
X169170501Y-80305945D01*
X169259471Y-80439099D01*
X169320758Y-80587058D01*
X169352000Y-80744125D01*
X169352000Y-80904275D01*
X169320758Y-81061342D01*
X169259471Y-81209301D01*
X169170501Y-81342455D01*
X169057255Y-81455701D01*
X168924101Y-81544671D01*
X168776142Y-81605958D01*
X168619075Y-81637200D01*
X168458925Y-81637200D01*
X168301858Y-81605958D01*
X168153899Y-81544671D01*
X168020745Y-81455701D01*
X167907499Y-81342455D01*
X167818529Y-81209301D01*
X167757242Y-81061342D01*
X167726000Y-80904275D01*
X167726000Y-80744125D01*
X167757242Y-80587058D01*
X167818529Y-80439099D01*
X167907499Y-80305945D01*
X168020745Y-80192699D01*
X168153899Y-80103729D01*
X168301858Y-80042442D01*
X168458925Y-80011200D01*
X168619075Y-80011200D01*
X168776142Y-80042442D01*
X168776142Y-80042442D01*
G37*
G36*
X166236142Y-80042442D02*
G01*
X166384101Y-80103729D01*
X166517255Y-80192699D01*
X166630501Y-80305945D01*
X166719471Y-80439099D01*
X166780758Y-80587058D01*
X166812000Y-80744125D01*
X166812000Y-80904275D01*
X166780758Y-81061342D01*
X166719471Y-81209301D01*
X166630501Y-81342455D01*
X166517255Y-81455701D01*
X166384101Y-81544671D01*
X166236142Y-81605958D01*
X166079075Y-81637200D01*
X165918925Y-81637200D01*
X165761858Y-81605958D01*
X165613899Y-81544671D01*
X165480745Y-81455701D01*
X165367499Y-81342455D01*
X165278529Y-81209301D01*
X165217242Y-81061342D01*
X165186000Y-80904275D01*
X165186000Y-80744125D01*
X165217242Y-80587058D01*
X165278529Y-80439099D01*
X165367499Y-80305945D01*
X165480745Y-80192699D01*
X165613899Y-80103729D01*
X165761858Y-80042442D01*
X165918925Y-80011200D01*
X166079075Y-80011200D01*
X166236142Y-80042442D01*
X166236142Y-80042442D01*
G37*
G36*
X171316142Y-80042442D02*
G01*
X171464101Y-80103729D01*
X171597255Y-80192699D01*
X171710501Y-80305945D01*
X171799471Y-80439099D01*
X171860758Y-80587058D01*
X171892000Y-80744125D01*
X171892000Y-80904275D01*
X171860758Y-81061342D01*
X171799471Y-81209301D01*
X171710501Y-81342455D01*
X171597255Y-81455701D01*
X171464101Y-81544671D01*
X171316142Y-81605958D01*
X171159075Y-81637200D01*
X170998925Y-81637200D01*
X170841858Y-81605958D01*
X170693899Y-81544671D01*
X170560745Y-81455701D01*
X170447499Y-81342455D01*
X170358529Y-81209301D01*
X170297242Y-81061342D01*
X170266000Y-80904275D01*
X170266000Y-80744125D01*
X170297242Y-80587058D01*
X170358529Y-80439099D01*
X170447499Y-80305945D01*
X170560745Y-80192699D01*
X170693899Y-80103729D01*
X170841858Y-80042442D01*
X170998925Y-80011200D01*
X171159075Y-80011200D01*
X171316142Y-80042442D01*
X171316142Y-80042442D01*
G37*
G36*
X174432000Y-81637200D02*
G01*
X172806000Y-81637200D01*
X172806000Y-80011200D01*
X174432000Y-80011200D01*
X174432000Y-81637200D01*
X174432000Y-81637200D01*
G37*
G36*
X106417121Y-77298228D02*
G01*
X106563402Y-77342602D01*
X106698204Y-77414655D01*
X106698207Y-77414657D01*
X106698208Y-77414658D01*
X106816369Y-77511631D01*
X106858963Y-77563531D01*
X106913345Y-77629796D01*
X106985398Y-77764598D01*
X107029772Y-77910879D01*
X107044754Y-78063000D01*
X107029772Y-78215121D01*
X106985398Y-78361402D01*
X106913345Y-78496204D01*
X106913343Y-78496207D01*
X106913342Y-78496208D01*
X106816369Y-78614369D01*
X106706371Y-78704643D01*
X106698204Y-78711345D01*
X106563402Y-78783398D01*
X106417121Y-78827772D01*
X106303118Y-78839000D01*
X105676882Y-78839000D01*
X105562879Y-78827772D01*
X105409210Y-78781157D01*
X105400751Y-78777654D01*
X105376717Y-78772876D01*
X105352213Y-78772878D01*
X105328180Y-78777661D01*
X105305542Y-78787041D01*
X105285169Y-78800656D01*
X105267844Y-78817985D01*
X105254232Y-78838361D01*
X105244857Y-78861000D01*
X105240079Y-78885034D01*
X105240081Y-78909538D01*
X105244864Y-78933571D01*
X105254244Y-78956209D01*
X105267851Y-78976572D01*
X105316807Y-79036225D01*
X105358686Y-79114574D01*
X105384475Y-79199590D01*
X105393182Y-79288000D01*
X105384475Y-79376410D01*
X105358686Y-79461426D01*
X105316807Y-79539775D01*
X105260449Y-79608449D01*
X105191775Y-79664807D01*
X105113426Y-79706686D01*
X105028410Y-79732475D01*
X104962158Y-79739000D01*
X104917842Y-79739000D01*
X104851590Y-79732475D01*
X104766574Y-79706686D01*
X104688225Y-79664807D01*
X104619551Y-79608449D01*
X104563193Y-79539775D01*
X104521314Y-79461426D01*
X104495525Y-79376410D01*
X104486818Y-79288000D01*
X104495525Y-79199590D01*
X104521314Y-79114574D01*
X104563193Y-79036225D01*
X104619551Y-78967551D01*
X104688225Y-78911193D01*
X104766574Y-78869314D01*
X104851590Y-78843525D01*
X104917842Y-78837000D01*
X104962158Y-78837000D01*
X105028412Y-78843525D01*
X105084523Y-78860546D01*
X105108556Y-78865326D01*
X105133060Y-78865326D01*
X105157093Y-78860545D01*
X105179732Y-78851168D01*
X105200106Y-78837554D01*
X105217433Y-78820227D01*
X105231047Y-78799852D01*
X105240424Y-78777213D01*
X105245204Y-78753180D01*
X105245204Y-78728676D01*
X105240423Y-78704643D01*
X105231046Y-78682004D01*
X105217432Y-78661630D01*
X105200105Y-78644303D01*
X105163633Y-78614371D01*
X105129212Y-78572429D01*
X105066658Y-78496208D01*
X105066657Y-78496207D01*
X105066655Y-78496204D01*
X104994602Y-78361402D01*
X104950228Y-78215121D01*
X104935246Y-78063000D01*
X104950228Y-77910879D01*
X104994602Y-77764598D01*
X105066655Y-77629796D01*
X105121038Y-77563531D01*
X105163631Y-77511631D01*
X105281792Y-77414658D01*
X105281793Y-77414657D01*
X105281796Y-77414655D01*
X105416598Y-77342602D01*
X105562879Y-77298228D01*
X105676882Y-77287000D01*
X106303118Y-77287000D01*
X106417121Y-77298228D01*
X106417121Y-77298228D01*
G37*
G36*
X180791228Y-77505903D02*
G01*
X180946100Y-77570053D01*
X181085481Y-77663185D01*
X181204015Y-77781719D01*
X181297147Y-77921100D01*
X181361297Y-78075972D01*
X181394000Y-78240384D01*
X181394000Y-78408016D01*
X181361297Y-78572428D01*
X181297147Y-78727300D01*
X181204015Y-78866681D01*
X181085481Y-78985215D01*
X180946100Y-79078347D01*
X180791228Y-79142497D01*
X180626816Y-79175200D01*
X180459184Y-79175200D01*
X180294772Y-79142497D01*
X180139900Y-79078347D01*
X180000519Y-78985215D01*
X179881985Y-78866681D01*
X179788853Y-78727300D01*
X179724703Y-78572428D01*
X179692000Y-78408016D01*
X179692000Y-78240384D01*
X179724703Y-78075972D01*
X179788853Y-77921100D01*
X179881985Y-77781719D01*
X180000519Y-77663185D01*
X180139900Y-77570053D01*
X180294772Y-77505903D01*
X180459184Y-77473200D01*
X180626816Y-77473200D01*
X180791228Y-77505903D01*
X180791228Y-77505903D01*
G37*
G36*
X102637715Y-77296058D02*
G01*
X102755722Y-77331855D01*
X102864468Y-77389981D01*
X102959790Y-77468210D01*
X103038019Y-77563532D01*
X103096145Y-77672278D01*
X103131942Y-77790285D01*
X103144028Y-77913000D01*
X103131942Y-78035715D01*
X103096145Y-78153722D01*
X103038019Y-78262468D01*
X102959790Y-78357790D01*
X102864468Y-78436019D01*
X102755722Y-78494145D01*
X102755719Y-78494146D01*
X102748921Y-78496208D01*
X102637715Y-78529942D01*
X102545746Y-78539000D01*
X101834254Y-78539000D01*
X101742285Y-78529942D01*
X101631079Y-78496208D01*
X101624281Y-78494146D01*
X101624278Y-78494145D01*
X101515532Y-78436019D01*
X101420210Y-78357790D01*
X101341981Y-78262468D01*
X101283855Y-78153722D01*
X101248058Y-78035715D01*
X101235972Y-77913000D01*
X101248058Y-77790285D01*
X101283855Y-77672278D01*
X101341981Y-77563532D01*
X101420210Y-77468210D01*
X101515532Y-77389981D01*
X101624278Y-77331855D01*
X101742285Y-77296058D01*
X101834254Y-77287000D01*
X102545746Y-77287000D01*
X102637715Y-77296058D01*
X102637715Y-77296058D01*
G37*
G36*
X154002571Y-73624863D02*
G01*
X154081023Y-73632590D01*
X154181682Y-73663125D01*
X154232013Y-73678392D01*
X154371165Y-73752771D01*
X154493133Y-73852867D01*
X154593229Y-73974835D01*
X154667608Y-74113987D01*
X154667608Y-74113988D01*
X154713410Y-74264977D01*
X154728875Y-74422000D01*
X154713410Y-74579023D01*
X154682875Y-74679682D01*
X154667608Y-74730013D01*
X154593229Y-74869165D01*
X154493133Y-74991133D01*
X154371165Y-75091229D01*
X154232013Y-75165608D01*
X154181682Y-75180875D01*
X154081023Y-75211410D01*
X154002571Y-75219137D01*
X153963346Y-75223000D01*
X153884654Y-75223000D01*
X153845429Y-75219137D01*
X153766977Y-75211410D01*
X153666318Y-75180875D01*
X153615987Y-75165608D01*
X153476835Y-75091229D01*
X153354867Y-74991133D01*
X153254771Y-74869165D01*
X153180392Y-74730013D01*
X153165125Y-74679682D01*
X153134590Y-74579023D01*
X153119125Y-74422000D01*
X153134590Y-74264977D01*
X153180392Y-74113988D01*
X153180392Y-74113987D01*
X153254771Y-73974835D01*
X153354867Y-73852867D01*
X153476835Y-73752771D01*
X153615987Y-73678392D01*
X153666318Y-73663125D01*
X153766977Y-73632590D01*
X153845429Y-73624863D01*
X153884654Y-73621000D01*
X153963346Y-73621000D01*
X154002571Y-73624863D01*
X154002571Y-73624863D01*
G37*
G36*
X170054294Y-71032833D02*
G01*
X170226695Y-71085131D01*
X170385583Y-71170058D01*
X170524849Y-71284351D01*
X170639142Y-71423617D01*
X170724069Y-71582505D01*
X170776367Y-71754906D01*
X170794025Y-71934200D01*
X170776367Y-72113494D01*
X170724069Y-72285895D01*
X170639142Y-72444783D01*
X170524849Y-72584049D01*
X170385583Y-72698342D01*
X170226695Y-72783269D01*
X170054294Y-72835567D01*
X169919931Y-72848800D01*
X169830069Y-72848800D01*
X169695706Y-72835567D01*
X169523305Y-72783269D01*
X169364417Y-72698342D01*
X169225151Y-72584049D01*
X169110858Y-72444783D01*
X169025931Y-72285895D01*
X168973633Y-72113494D01*
X168955975Y-71934200D01*
X168973633Y-71754906D01*
X169025931Y-71582505D01*
X169110858Y-71423617D01*
X169225151Y-71284351D01*
X169364417Y-71170058D01*
X169523305Y-71085131D01*
X169695706Y-71032833D01*
X169830069Y-71019600D01*
X169919931Y-71019600D01*
X170054294Y-71032833D01*
X170054294Y-71032833D01*
G37*
G36*
X172594294Y-71032833D02*
G01*
X172766695Y-71085131D01*
X172925583Y-71170058D01*
X173064849Y-71284351D01*
X173179142Y-71423617D01*
X173264069Y-71582505D01*
X173316367Y-71754906D01*
X173334025Y-71934200D01*
X173316367Y-72113494D01*
X173264069Y-72285895D01*
X173179142Y-72444783D01*
X173064849Y-72584049D01*
X172925583Y-72698342D01*
X172766695Y-72783269D01*
X172594294Y-72835567D01*
X172459931Y-72848800D01*
X172370069Y-72848800D01*
X172235706Y-72835567D01*
X172063305Y-72783269D01*
X171904417Y-72698342D01*
X171765151Y-72584049D01*
X171650858Y-72444783D01*
X171565931Y-72285895D01*
X171513633Y-72113494D01*
X171495975Y-71934200D01*
X171513633Y-71754906D01*
X171565931Y-71582505D01*
X171650858Y-71423617D01*
X171765151Y-71284351D01*
X171904417Y-71170058D01*
X172063305Y-71085131D01*
X172235706Y-71032833D01*
X172370069Y-71019600D01*
X172459931Y-71019600D01*
X172594294Y-71032833D01*
X172594294Y-71032833D01*
G37*
G36*
X168249600Y-72848800D02*
G01*
X166420400Y-72848800D01*
X166420400Y-71019600D01*
X168249600Y-71019600D01*
X168249600Y-72848800D01*
X168249600Y-72848800D01*
G37*
G36*
X154148549Y-69737116D02*
G01*
X154259734Y-69759232D01*
X154469203Y-69845997D01*
X154657720Y-69971960D01*
X154818040Y-70132280D01*
X154944003Y-70320797D01*
X155030768Y-70530266D01*
X155052884Y-70641451D01*
X155074715Y-70751200D01*
X155075000Y-70752636D01*
X155075000Y-70979364D01*
X155030768Y-71201734D01*
X154944003Y-71411203D01*
X154818040Y-71599720D01*
X154657720Y-71760040D01*
X154469203Y-71886003D01*
X154259734Y-71972768D01*
X154148549Y-71994884D01*
X154037365Y-72017000D01*
X153810635Y-72017000D01*
X153699451Y-71994884D01*
X153588266Y-71972768D01*
X153378797Y-71886003D01*
X153190280Y-71760040D01*
X153029960Y-71599720D01*
X152903997Y-71411203D01*
X152817232Y-71201734D01*
X152773000Y-70979364D01*
X152773000Y-70752636D01*
X152773286Y-70751200D01*
X152795116Y-70641451D01*
X152817232Y-70530266D01*
X152903997Y-70320797D01*
X153029960Y-70132280D01*
X153190280Y-69971960D01*
X153378797Y-69845997D01*
X153588266Y-69759232D01*
X153699451Y-69737116D01*
X153810635Y-69715000D01*
X154037365Y-69715000D01*
X154148549Y-69737116D01*
X154148549Y-69737116D01*
G37*
G36*
X147148549Y-69737116D02*
G01*
X147259734Y-69759232D01*
X147469203Y-69845997D01*
X147657720Y-69971960D01*
X147818040Y-70132280D01*
X147944003Y-70320797D01*
X148030768Y-70530266D01*
X148052884Y-70641451D01*
X148074715Y-70751200D01*
X148075000Y-70752636D01*
X148075000Y-70979364D01*
X148030768Y-71201734D01*
X147944003Y-71411203D01*
X147818040Y-71599720D01*
X147657720Y-71760040D01*
X147469203Y-71886003D01*
X147259734Y-71972768D01*
X147148549Y-71994884D01*
X147037365Y-72017000D01*
X146810635Y-72017000D01*
X146699451Y-71994884D01*
X146588266Y-71972768D01*
X146378797Y-71886003D01*
X146190280Y-71760040D01*
X146029960Y-71599720D01*
X145903997Y-71411203D01*
X145817232Y-71201734D01*
X145773000Y-70979364D01*
X145773000Y-70752636D01*
X145773286Y-70751200D01*
X145795116Y-70641451D01*
X145817232Y-70530266D01*
X145903997Y-70320797D01*
X146029960Y-70132280D01*
X146190280Y-69971960D01*
X146378797Y-69845997D01*
X146588266Y-69759232D01*
X146699451Y-69737116D01*
X146810635Y-69715000D01*
X147037365Y-69715000D01*
X147148549Y-69737116D01*
X147148549Y-69737116D01*
G37*
G36*
X126176000Y-71107200D02*
G01*
X124274000Y-71107200D01*
X124274000Y-69205200D01*
X126176000Y-69205200D01*
X126176000Y-71107200D01*
X126176000Y-71107200D01*
G37*
G36*
X142178000Y-71107200D02*
G01*
X140276000Y-71107200D01*
X140276000Y-69205200D01*
X142178000Y-69205200D01*
X142178000Y-71107200D01*
X142178000Y-71107200D01*
G37*
G36*
X134304000Y-71107200D02*
G01*
X132402000Y-71107200D01*
X132402000Y-69205200D01*
X134304000Y-69205200D01*
X134304000Y-71107200D01*
X134304000Y-71107200D01*
G37*
G36*
X182305473Y-65354919D02*
G01*
X182666437Y-65426719D01*
X183167087Y-65634095D01*
X183347561Y-65754684D01*
X183617660Y-65935158D01*
X184000842Y-66318340D01*
X184138185Y-66523889D01*
X184301905Y-66768913D01*
X184509281Y-67269563D01*
X184509281Y-67269564D01*
X184615000Y-67801049D01*
X184615000Y-68342951D01*
X184574784Y-68545131D01*
X184509281Y-68874437D01*
X184301905Y-69375087D01*
X184245521Y-69459471D01*
X184000842Y-69825660D01*
X183617660Y-70208842D01*
X183368217Y-70375514D01*
X183167087Y-70509905D01*
X182666437Y-70717281D01*
X182495914Y-70751200D01*
X182134951Y-70823000D01*
X181593049Y-70823000D01*
X181232086Y-70751200D01*
X181061563Y-70717281D01*
X180560913Y-70509905D01*
X180359783Y-70375514D01*
X180110340Y-70208842D01*
X179727158Y-69825660D01*
X179482479Y-69459471D01*
X179426095Y-69375087D01*
X179218719Y-68874437D01*
X179153216Y-68545131D01*
X179113000Y-68342951D01*
X179113000Y-67801049D01*
X179218719Y-67269564D01*
X179218719Y-67269563D01*
X179426095Y-66768913D01*
X179589815Y-66523889D01*
X179727158Y-66318340D01*
X180110340Y-65935158D01*
X180380439Y-65754684D01*
X180560913Y-65634095D01*
X181061563Y-65426719D01*
X181422527Y-65354919D01*
X181593049Y-65321000D01*
X182134951Y-65321000D01*
X182305473Y-65354919D01*
X182305473Y-65354919D01*
G37*
G36*
X103523694Y-65302060D02*
G01*
X103789437Y-65354919D01*
X104290087Y-65562295D01*
X104397543Y-65634095D01*
X104740660Y-65863358D01*
X105123842Y-66246540D01*
X105257565Y-66446671D01*
X105424905Y-66697113D01*
X105619014Y-67165734D01*
X105632281Y-67197764D01*
X105738000Y-67729249D01*
X105738000Y-68271151D01*
X105702186Y-68451200D01*
X105632281Y-68802637D01*
X105424905Y-69303287D01*
X105320546Y-69459471D01*
X105123842Y-69753860D01*
X104740660Y-70137042D01*
X104503411Y-70295566D01*
X104290087Y-70438105D01*
X103789437Y-70645481D01*
X103523694Y-70698340D01*
X103257951Y-70751200D01*
X102716049Y-70751200D01*
X102450306Y-70698340D01*
X102184563Y-70645481D01*
X101683913Y-70438105D01*
X101470589Y-70295566D01*
X101233340Y-70137042D01*
X100850158Y-69753860D01*
X100653454Y-69459471D01*
X100549095Y-69303287D01*
X100341719Y-68802637D01*
X100271814Y-68451200D01*
X100236000Y-68271151D01*
X100236000Y-67729249D01*
X100341719Y-67197764D01*
X100354986Y-67165734D01*
X100549095Y-66697113D01*
X100716435Y-66446671D01*
X100850158Y-66246540D01*
X101233340Y-65863358D01*
X101576457Y-65634095D01*
X101683913Y-65562295D01*
X102184563Y-65354919D01*
X102450306Y-65302060D01*
X102716049Y-65249200D01*
X103257951Y-65249200D01*
X103523694Y-65302060D01*
X103523694Y-65302060D01*
G37*
G36*
X172594294Y-68492833D02*
G01*
X172766695Y-68545131D01*
X172925583Y-68630058D01*
X173064849Y-68744351D01*
X173179142Y-68883617D01*
X173264069Y-69042505D01*
X173316367Y-69214906D01*
X173334025Y-69394200D01*
X173316367Y-69573494D01*
X173264069Y-69745895D01*
X173179142Y-69904783D01*
X173064849Y-70044049D01*
X172925583Y-70158342D01*
X172766695Y-70243269D01*
X172594294Y-70295567D01*
X172459931Y-70308800D01*
X172370069Y-70308800D01*
X172235706Y-70295567D01*
X172063305Y-70243269D01*
X171904417Y-70158342D01*
X171765151Y-70044049D01*
X171650858Y-69904783D01*
X171565931Y-69745895D01*
X171513633Y-69573494D01*
X171495975Y-69394200D01*
X171513633Y-69214906D01*
X171565931Y-69042505D01*
X171650858Y-68883617D01*
X171765151Y-68744351D01*
X171904417Y-68630058D01*
X172063305Y-68545131D01*
X172235706Y-68492833D01*
X172370069Y-68479600D01*
X172459931Y-68479600D01*
X172594294Y-68492833D01*
X172594294Y-68492833D01*
G37*
G36*
X170054294Y-68492833D02*
G01*
X170226695Y-68545131D01*
X170385583Y-68630058D01*
X170524849Y-68744351D01*
X170639142Y-68883617D01*
X170724069Y-69042505D01*
X170776367Y-69214906D01*
X170794025Y-69394200D01*
X170776367Y-69573494D01*
X170724069Y-69745895D01*
X170639142Y-69904783D01*
X170524849Y-70044049D01*
X170385583Y-70158342D01*
X170226695Y-70243269D01*
X170054294Y-70295567D01*
X169919931Y-70308800D01*
X169830069Y-70308800D01*
X169695706Y-70295567D01*
X169523305Y-70243269D01*
X169364417Y-70158342D01*
X169225151Y-70044049D01*
X169110858Y-69904783D01*
X169025931Y-69745895D01*
X168973633Y-69573494D01*
X168955975Y-69394200D01*
X168973633Y-69214906D01*
X169025931Y-69042505D01*
X169110858Y-68883617D01*
X169225151Y-68744351D01*
X169364417Y-68630058D01*
X169523305Y-68545131D01*
X169695706Y-68492833D01*
X169830069Y-68479600D01*
X169919931Y-68479600D01*
X170054294Y-68492833D01*
X170054294Y-68492833D01*
G37*
G36*
X167514294Y-68492833D02*
G01*
X167686695Y-68545131D01*
X167845583Y-68630058D01*
X167984849Y-68744351D01*
X168099142Y-68883617D01*
X168184069Y-69042505D01*
X168236367Y-69214906D01*
X168254025Y-69394200D01*
X168236367Y-69573494D01*
X168184069Y-69745895D01*
X168099142Y-69904783D01*
X167984849Y-70044049D01*
X167845583Y-70158342D01*
X167686695Y-70243269D01*
X167514294Y-70295567D01*
X167379931Y-70308800D01*
X167290069Y-70308800D01*
X167155706Y-70295567D01*
X166983305Y-70243269D01*
X166824417Y-70158342D01*
X166685151Y-70044049D01*
X166570858Y-69904783D01*
X166485931Y-69745895D01*
X166433633Y-69573494D01*
X166415975Y-69394200D01*
X166433633Y-69214906D01*
X166485931Y-69042505D01*
X166570858Y-68883617D01*
X166685151Y-68744351D01*
X166824417Y-68630058D01*
X166983305Y-68545131D01*
X167155706Y-68492833D01*
X167290069Y-68479600D01*
X167379931Y-68479600D01*
X167514294Y-68492833D01*
X167514294Y-68492833D01*
G37*
G36*
X152787512Y-67469927D02*
G01*
X152936812Y-67499624D01*
X153100784Y-67567544D01*
X153248354Y-67666147D01*
X153373853Y-67791646D01*
X153472456Y-67939216D01*
X153540376Y-68103188D01*
X153570073Y-68252488D01*
X153575000Y-68277258D01*
X153575000Y-68454742D01*
X153570073Y-68479512D01*
X153540376Y-68628812D01*
X153472456Y-68792784D01*
X153373853Y-68940354D01*
X153248354Y-69065853D01*
X153100784Y-69164456D01*
X152936812Y-69232376D01*
X152787512Y-69262073D01*
X152762742Y-69267000D01*
X152585258Y-69267000D01*
X152560488Y-69262073D01*
X152411188Y-69232376D01*
X152247216Y-69164456D01*
X152099646Y-69065853D01*
X151974147Y-68940354D01*
X151875544Y-68792784D01*
X151807624Y-68628812D01*
X151777927Y-68479512D01*
X151773000Y-68454742D01*
X151773000Y-68277258D01*
X151777927Y-68252488D01*
X151807624Y-68103188D01*
X151875544Y-67939216D01*
X151974147Y-67791646D01*
X152099646Y-67666147D01*
X152247216Y-67567544D01*
X152411188Y-67499624D01*
X152560488Y-67469927D01*
X152585258Y-67465000D01*
X152762742Y-67465000D01*
X152787512Y-67469927D01*
X152787512Y-67469927D01*
G37*
G36*
X148287512Y-67469927D02*
G01*
X148436812Y-67499624D01*
X148600784Y-67567544D01*
X148748354Y-67666147D01*
X148873853Y-67791646D01*
X148972456Y-67939216D01*
X149040376Y-68103188D01*
X149070073Y-68252488D01*
X149075000Y-68277258D01*
X149075000Y-68454742D01*
X149070073Y-68479512D01*
X149040376Y-68628812D01*
X148972456Y-68792784D01*
X148873853Y-68940354D01*
X148748354Y-69065853D01*
X148600784Y-69164456D01*
X148436812Y-69232376D01*
X148287512Y-69262073D01*
X148262742Y-69267000D01*
X148085258Y-69267000D01*
X148060488Y-69262073D01*
X147911188Y-69232376D01*
X147747216Y-69164456D01*
X147599646Y-69065853D01*
X147474147Y-68940354D01*
X147375544Y-68792784D01*
X147307624Y-68628812D01*
X147277927Y-68479512D01*
X147273000Y-68454742D01*
X147273000Y-68277258D01*
X147277927Y-68252488D01*
X147307624Y-68103188D01*
X147375544Y-67939216D01*
X147474147Y-67791646D01*
X147599646Y-67666147D01*
X147747216Y-67567544D01*
X147911188Y-67499624D01*
X148060488Y-67469927D01*
X148085258Y-67465000D01*
X148262742Y-67465000D01*
X148287512Y-67469927D01*
X148287512Y-67469927D01*
G37*
G36*
X125502395Y-66701746D02*
G01*
X125675466Y-66773434D01*
X125675467Y-66773435D01*
X125831227Y-66877510D01*
X125963690Y-67009973D01*
X125963691Y-67009975D01*
X126067766Y-67165734D01*
X126139454Y-67338805D01*
X126176000Y-67522533D01*
X126176000Y-67709867D01*
X126139454Y-67893595D01*
X126067766Y-68066666D01*
X126067765Y-68066667D01*
X125963690Y-68222427D01*
X125831227Y-68354890D01*
X125763908Y-68399871D01*
X125675466Y-68458966D01*
X125502395Y-68530654D01*
X125318667Y-68567200D01*
X125131333Y-68567200D01*
X124947605Y-68530654D01*
X124774534Y-68458966D01*
X124686092Y-68399871D01*
X124618773Y-68354890D01*
X124486310Y-68222427D01*
X124382235Y-68066667D01*
X124382234Y-68066666D01*
X124310546Y-67893595D01*
X124274000Y-67709867D01*
X124274000Y-67522533D01*
X124310546Y-67338805D01*
X124382234Y-67165734D01*
X124486309Y-67009975D01*
X124486310Y-67009973D01*
X124618773Y-66877510D01*
X124774533Y-66773435D01*
X124774534Y-66773434D01*
X124947605Y-66701746D01*
X125131333Y-66665200D01*
X125318667Y-66665200D01*
X125502395Y-66701746D01*
X125502395Y-66701746D01*
G37*
G36*
X133630395Y-66701746D02*
G01*
X133803466Y-66773434D01*
X133803467Y-66773435D01*
X133959227Y-66877510D01*
X134091690Y-67009973D01*
X134091691Y-67009975D01*
X134195766Y-67165734D01*
X134267454Y-67338805D01*
X134304000Y-67522533D01*
X134304000Y-67709867D01*
X134267454Y-67893595D01*
X134195766Y-68066666D01*
X134195765Y-68066667D01*
X134091690Y-68222427D01*
X133959227Y-68354890D01*
X133891908Y-68399871D01*
X133803466Y-68458966D01*
X133630395Y-68530654D01*
X133446667Y-68567200D01*
X133259333Y-68567200D01*
X133075605Y-68530654D01*
X132902534Y-68458966D01*
X132814092Y-68399871D01*
X132746773Y-68354890D01*
X132614310Y-68222427D01*
X132510235Y-68066667D01*
X132510234Y-68066666D01*
X132438546Y-67893595D01*
X132402000Y-67709867D01*
X132402000Y-67522533D01*
X132438546Y-67338805D01*
X132510234Y-67165734D01*
X132614309Y-67009975D01*
X132614310Y-67009973D01*
X132746773Y-66877510D01*
X132902533Y-66773435D01*
X132902534Y-66773434D01*
X133075605Y-66701746D01*
X133259333Y-66665200D01*
X133446667Y-66665200D01*
X133630395Y-66701746D01*
X133630395Y-66701746D01*
G37*
G36*
X141504395Y-66701746D02*
G01*
X141677466Y-66773434D01*
X141677467Y-66773435D01*
X141833227Y-66877510D01*
X141965690Y-67009973D01*
X141965691Y-67009975D01*
X142069766Y-67165734D01*
X142141454Y-67338805D01*
X142178000Y-67522533D01*
X142178000Y-67709867D01*
X142141454Y-67893595D01*
X142069766Y-68066666D01*
X142069765Y-68066667D01*
X141965690Y-68222427D01*
X141833227Y-68354890D01*
X141765908Y-68399871D01*
X141677466Y-68458966D01*
X141504395Y-68530654D01*
X141320667Y-68567200D01*
X141133333Y-68567200D01*
X140949605Y-68530654D01*
X140776534Y-68458966D01*
X140688092Y-68399871D01*
X140620773Y-68354890D01*
X140488310Y-68222427D01*
X140384235Y-68066667D01*
X140384234Y-68066666D01*
X140312546Y-67893595D01*
X140276000Y-67709867D01*
X140276000Y-67522533D01*
X140312546Y-67338805D01*
X140384234Y-67165734D01*
X140488309Y-67009975D01*
X140488310Y-67009973D01*
X140620773Y-66877510D01*
X140776533Y-66773435D01*
X140776534Y-66773434D01*
X140949605Y-66701746D01*
X141133333Y-66665200D01*
X141320667Y-66665200D01*
X141504395Y-66701746D01*
X141504395Y-66701746D01*
G37*
M02*
