G04 #@! TF.GenerationSoftware,KiCad,Pcbnew,(6.0.0-rc1-dev-1491-g0a4812be0)*
G04 #@! TF.CreationDate,2019-01-24T14:08:07+01:00
G04 #@! TF.ProjectId,mySensors_door_switch,6d795365-6e73-46f7-9273-5f646f6f725f,rev?*
G04 #@! TF.SameCoordinates,Original*
G04 #@! TF.FileFunction,Legend,Top*
G04 #@! TF.FilePolarity,Positive*
%FSLAX46Y46*%
G04 Gerber Fmt 4.6, Leading zero omitted, Abs format (unit mm)*
G04 Created by KiCad (PCBNEW (6.0.0-rc1-dev-1491-g0a4812be0)) date 2019-01-24 14:08:07*
%MOMM*%
%LPD*%
G04 APERTURE LIST*
%ADD10C,0.150000*%
%ADD11C,0.120000*%
%ADD12C,0.010000*%
%ADD13C,0.160000*%
G04 APERTURE END LIST*
D10*
X104475428Y-107227714D02*
X104475428Y-108037238D01*
X104427809Y-108132476D01*
X104380190Y-108180095D01*
X104284952Y-108227714D01*
X104142095Y-108227714D01*
X104046857Y-108180095D01*
X104475428Y-107846761D02*
X104380190Y-107894380D01*
X104189714Y-107894380D01*
X104094476Y-107846761D01*
X104046857Y-107799142D01*
X103999238Y-107703904D01*
X103999238Y-107418190D01*
X104046857Y-107322952D01*
X104094476Y-107275333D01*
X104189714Y-107227714D01*
X104380190Y-107227714D01*
X104475428Y-107275333D01*
X104951619Y-107894380D02*
X104951619Y-107227714D01*
X104951619Y-106894380D02*
X104904000Y-106942000D01*
X104951619Y-106989619D01*
X104999238Y-106942000D01*
X104951619Y-106894380D01*
X104951619Y-106989619D01*
X105284952Y-107227714D02*
X105665904Y-107227714D01*
X105427809Y-106894380D02*
X105427809Y-107751523D01*
X105475428Y-107846761D01*
X105570666Y-107894380D01*
X105665904Y-107894380D01*
X105999238Y-107894380D02*
X105999238Y-106894380D01*
X106427809Y-107894380D02*
X106427809Y-107370571D01*
X106380190Y-107275333D01*
X106284952Y-107227714D01*
X106142095Y-107227714D01*
X106046857Y-107275333D01*
X105999238Y-107322952D01*
X107332571Y-107227714D02*
X107332571Y-107894380D01*
X106904000Y-107227714D02*
X106904000Y-107751523D01*
X106951619Y-107846761D01*
X107046857Y-107894380D01*
X107189714Y-107894380D01*
X107284952Y-107846761D01*
X107332571Y-107799142D01*
X107808761Y-107894380D02*
X107808761Y-106894380D01*
X107808761Y-107275333D02*
X107904000Y-107227714D01*
X108094476Y-107227714D01*
X108189714Y-107275333D01*
X108237333Y-107322952D01*
X108284952Y-107418190D01*
X108284952Y-107703904D01*
X108237333Y-107799142D01*
X108189714Y-107846761D01*
X108094476Y-107894380D01*
X107904000Y-107894380D01*
X107808761Y-107846761D01*
X108713523Y-107799142D02*
X108761142Y-107846761D01*
X108713523Y-107894380D01*
X108665904Y-107846761D01*
X108713523Y-107799142D01*
X108713523Y-107894380D01*
X109618285Y-107846761D02*
X109523047Y-107894380D01*
X109332571Y-107894380D01*
X109237333Y-107846761D01*
X109189714Y-107799142D01*
X109142095Y-107703904D01*
X109142095Y-107418190D01*
X109189714Y-107322952D01*
X109237333Y-107275333D01*
X109332571Y-107227714D01*
X109523047Y-107227714D01*
X109618285Y-107275333D01*
X110189714Y-107894380D02*
X110094476Y-107846761D01*
X110046857Y-107799142D01*
X109999238Y-107703904D01*
X109999238Y-107418190D01*
X110046857Y-107322952D01*
X110094476Y-107275333D01*
X110189714Y-107227714D01*
X110332571Y-107227714D01*
X110427809Y-107275333D01*
X110475428Y-107322952D01*
X110523047Y-107418190D01*
X110523047Y-107703904D01*
X110475428Y-107799142D01*
X110427809Y-107846761D01*
X110332571Y-107894380D01*
X110189714Y-107894380D01*
X110951619Y-107894380D02*
X110951619Y-107227714D01*
X110951619Y-107322952D02*
X110999238Y-107275333D01*
X111094476Y-107227714D01*
X111237333Y-107227714D01*
X111332571Y-107275333D01*
X111380190Y-107370571D01*
X111380190Y-107894380D01*
X111380190Y-107370571D02*
X111427809Y-107275333D01*
X111523047Y-107227714D01*
X111665904Y-107227714D01*
X111761142Y-107275333D01*
X111808761Y-107370571D01*
X111808761Y-107894380D01*
X112999238Y-106846761D02*
X112142095Y-108132476D01*
X113761142Y-107227714D02*
X113761142Y-108037238D01*
X113713523Y-108132476D01*
X113665904Y-108180095D01*
X113570666Y-108227714D01*
X113427809Y-108227714D01*
X113332571Y-108180095D01*
X113761142Y-107846761D02*
X113665904Y-107894380D01*
X113475428Y-107894380D01*
X113380190Y-107846761D01*
X113332571Y-107799142D01*
X113284952Y-107703904D01*
X113284952Y-107418190D01*
X113332571Y-107322952D01*
X113380190Y-107275333D01*
X113475428Y-107227714D01*
X113665904Y-107227714D01*
X113761142Y-107275333D01*
X114189714Y-107846761D02*
X114284952Y-107894380D01*
X114475428Y-107894380D01*
X114570666Y-107846761D01*
X114618285Y-107751523D01*
X114618285Y-107703904D01*
X114570666Y-107608666D01*
X114475428Y-107561047D01*
X114332571Y-107561047D01*
X114237333Y-107513428D01*
X114189714Y-107418190D01*
X114189714Y-107370571D01*
X114237333Y-107275333D01*
X114332571Y-107227714D01*
X114475428Y-107227714D01*
X114570666Y-107275333D01*
X115475428Y-107894380D02*
X115475428Y-107370571D01*
X115427809Y-107275333D01*
X115332571Y-107227714D01*
X115142095Y-107227714D01*
X115046857Y-107275333D01*
X115475428Y-107846761D02*
X115380190Y-107894380D01*
X115142095Y-107894380D01*
X115046857Y-107846761D01*
X114999238Y-107751523D01*
X114999238Y-107656285D01*
X115046857Y-107561047D01*
X115142095Y-107513428D01*
X115380190Y-107513428D01*
X115475428Y-107465809D01*
X115951619Y-107227714D02*
X115951619Y-108227714D01*
X115951619Y-107275333D02*
X116046857Y-107227714D01*
X116237333Y-107227714D01*
X116332571Y-107275333D01*
X116380190Y-107322952D01*
X116427809Y-107418190D01*
X116427809Y-107703904D01*
X116380190Y-107799142D01*
X116332571Y-107846761D01*
X116237333Y-107894380D01*
X116046857Y-107894380D01*
X115951619Y-107846761D01*
X116856380Y-107894380D02*
X116856380Y-107227714D01*
X116856380Y-106894380D02*
X116808761Y-106942000D01*
X116856380Y-106989619D01*
X116904000Y-106942000D01*
X116856380Y-106894380D01*
X116856380Y-106989619D01*
X117332571Y-107227714D02*
X117332571Y-108084857D01*
X117284952Y-108180095D01*
X117189714Y-108227714D01*
X117142095Y-108227714D01*
X117332571Y-106894380D02*
X117284952Y-106942000D01*
X117332571Y-106989619D01*
X117380190Y-106942000D01*
X117332571Y-106894380D01*
X117332571Y-106989619D01*
X118237333Y-107894380D02*
X118237333Y-107370571D01*
X118189714Y-107275333D01*
X118094476Y-107227714D01*
X117904000Y-107227714D01*
X117808761Y-107275333D01*
X118237333Y-107846761D02*
X118142095Y-107894380D01*
X117904000Y-107894380D01*
X117808761Y-107846761D01*
X117761142Y-107751523D01*
X117761142Y-107656285D01*
X117808761Y-107561047D01*
X117904000Y-107513428D01*
X118142095Y-107513428D01*
X118237333Y-107465809D01*
X118665904Y-107846761D02*
X118761142Y-107894380D01*
X118951619Y-107894380D01*
X119046857Y-107846761D01*
X119094476Y-107751523D01*
X119094476Y-107703904D01*
X119046857Y-107608666D01*
X118951619Y-107561047D01*
X118808761Y-107561047D01*
X118713523Y-107513428D01*
X118665904Y-107418190D01*
X118665904Y-107370571D01*
X118713523Y-107275333D01*
X118808761Y-107227714D01*
X118951619Y-107227714D01*
X119046857Y-107275333D01*
X119427809Y-107227714D02*
X119951619Y-107227714D01*
X119427809Y-107894380D01*
X119951619Y-107894380D01*
X120332571Y-107894380D02*
X120332571Y-106894380D01*
X120427809Y-107513428D02*
X120713523Y-107894380D01*
X120713523Y-107227714D02*
X120332571Y-107608666D01*
X121284952Y-107894380D02*
X121189714Y-107846761D01*
X121142095Y-107799142D01*
X121094476Y-107703904D01*
X121094476Y-107418190D01*
X121142095Y-107322952D01*
X121189714Y-107275333D01*
X121284952Y-107227714D01*
X121427809Y-107227714D01*
X121523047Y-107275333D01*
X121570666Y-107322952D01*
X121618285Y-107418190D01*
X121618285Y-107703904D01*
X121570666Y-107799142D01*
X121523047Y-107846761D01*
X121427809Y-107894380D01*
X121284952Y-107894380D01*
X122094476Y-107846761D02*
X122094476Y-107894380D01*
X122046857Y-107989619D01*
X121999238Y-108037238D01*
X123189714Y-107227714D02*
X123427809Y-107894380D01*
X123665904Y-107227714D01*
X124046857Y-107799142D02*
X124094476Y-107846761D01*
X124046857Y-107894380D01*
X123999238Y-107846761D01*
X124046857Y-107799142D01*
X124046857Y-107894380D01*
X125046857Y-107894380D02*
X124475428Y-107894380D01*
X124761142Y-107894380D02*
X124761142Y-106894380D01*
X124665904Y-107037238D01*
X124570666Y-107132476D01*
X124475428Y-107180095D01*
X125475428Y-107799142D02*
X125523047Y-107846761D01*
X125475428Y-107894380D01*
X125427809Y-107846761D01*
X125475428Y-107799142D01*
X125475428Y-107894380D01*
X126142095Y-106894380D02*
X126237333Y-106894380D01*
X126332571Y-106942000D01*
X126380190Y-106989619D01*
X126427809Y-107084857D01*
X126475428Y-107275333D01*
X126475428Y-107513428D01*
X126427809Y-107703904D01*
X126380190Y-107799142D01*
X126332571Y-107846761D01*
X126237333Y-107894380D01*
X126142095Y-107894380D01*
X126046857Y-107846761D01*
X125999238Y-107799142D01*
X125951619Y-107703904D01*
X125904000Y-107513428D01*
X125904000Y-107275333D01*
X125951619Y-107084857D01*
X125999238Y-106989619D01*
X126046857Y-106942000D01*
X126142095Y-106894380D01*
X126951619Y-107846761D02*
X126951619Y-107894380D01*
X126904000Y-107989619D01*
X126856380Y-108037238D01*
X128094476Y-106989619D02*
X128142095Y-106942000D01*
X128237333Y-106894380D01*
X128475428Y-106894380D01*
X128570666Y-106942000D01*
X128618285Y-106989619D01*
X128665904Y-107084857D01*
X128665904Y-107180095D01*
X128618285Y-107322952D01*
X128046857Y-107894380D01*
X128665904Y-107894380D01*
X129284952Y-106894380D02*
X129380190Y-106894380D01*
X129475428Y-106942000D01*
X129523047Y-106989619D01*
X129570666Y-107084857D01*
X129618285Y-107275333D01*
X129618285Y-107513428D01*
X129570666Y-107703904D01*
X129523047Y-107799142D01*
X129475428Y-107846761D01*
X129380190Y-107894380D01*
X129284952Y-107894380D01*
X129189714Y-107846761D01*
X129142095Y-107799142D01*
X129094476Y-107703904D01*
X129046857Y-107513428D01*
X129046857Y-107275333D01*
X129094476Y-107084857D01*
X129142095Y-106989619D01*
X129189714Y-106942000D01*
X129284952Y-106894380D01*
X130570666Y-107894380D02*
X129999238Y-107894380D01*
X130284952Y-107894380D02*
X130284952Y-106894380D01*
X130189714Y-107037238D01*
X130094476Y-107132476D01*
X129999238Y-107180095D01*
X131046857Y-107894380D02*
X131237333Y-107894380D01*
X131332571Y-107846761D01*
X131380190Y-107799142D01*
X131475428Y-107656285D01*
X131523047Y-107465809D01*
X131523047Y-107084857D01*
X131475428Y-106989619D01*
X131427809Y-106942000D01*
X131332571Y-106894380D01*
X131142095Y-106894380D01*
X131046857Y-106942000D01*
X130999238Y-106989619D01*
X130951619Y-107084857D01*
X130951619Y-107322952D01*
X130999238Y-107418190D01*
X131046857Y-107465809D01*
X131142095Y-107513428D01*
X131332571Y-107513428D01*
X131427809Y-107465809D01*
X131475428Y-107418190D01*
X131523047Y-107322952D01*
X131951619Y-107513428D02*
X132713523Y-107513428D01*
X133380190Y-106894380D02*
X133475428Y-106894380D01*
X133570666Y-106942000D01*
X133618285Y-106989619D01*
X133665904Y-107084857D01*
X133713523Y-107275333D01*
X133713523Y-107513428D01*
X133665904Y-107703904D01*
X133618285Y-107799142D01*
X133570666Y-107846761D01*
X133475428Y-107894380D01*
X133380190Y-107894380D01*
X133284952Y-107846761D01*
X133237333Y-107799142D01*
X133189714Y-107703904D01*
X133142095Y-107513428D01*
X133142095Y-107275333D01*
X133189714Y-107084857D01*
X133237333Y-106989619D01*
X133284952Y-106942000D01*
X133380190Y-106894380D01*
X134665904Y-107894380D02*
X134094476Y-107894380D01*
X134380190Y-107894380D02*
X134380190Y-106894380D01*
X134284952Y-107037238D01*
X134189714Y-107132476D01*
X134094476Y-107180095D01*
X135094476Y-107513428D02*
X135856380Y-107513428D01*
X136284952Y-106989619D02*
X136332571Y-106942000D01*
X136427809Y-106894380D01*
X136665904Y-106894380D01*
X136761142Y-106942000D01*
X136808761Y-106989619D01*
X136856380Y-107084857D01*
X136856380Y-107180095D01*
X136808761Y-107322952D01*
X136237333Y-107894380D01*
X136856380Y-107894380D01*
X137713523Y-107227714D02*
X137713523Y-107894380D01*
X137475428Y-106846761D02*
X137237333Y-107561047D01*
X137856380Y-107561047D01*
X153162095Y-104402000D02*
X153066857Y-104354380D01*
X152924000Y-104354380D01*
X152781142Y-104402000D01*
X152685904Y-104497238D01*
X152638285Y-104592476D01*
X152590666Y-104782952D01*
X152590666Y-104925809D01*
X152638285Y-105116285D01*
X152685904Y-105211523D01*
X152781142Y-105306761D01*
X152924000Y-105354380D01*
X153019238Y-105354380D01*
X153162095Y-105306761D01*
X153209714Y-105259142D01*
X153209714Y-104925809D01*
X153019238Y-104925809D01*
X153638285Y-105354380D02*
X153638285Y-104354380D01*
X154209714Y-105354380D01*
X154209714Y-104354380D01*
X154685904Y-105354380D02*
X154685904Y-104354380D01*
X154924000Y-104354380D01*
X155066857Y-104402000D01*
X155162095Y-104497238D01*
X155209714Y-104592476D01*
X155257333Y-104782952D01*
X155257333Y-104925809D01*
X155209714Y-105116285D01*
X155162095Y-105211523D01*
X155066857Y-105306761D01*
X154924000Y-105354380D01*
X154685904Y-105354380D01*
X152352571Y-99893428D02*
X153114476Y-99893428D01*
X152733523Y-100274380D02*
X152733523Y-99512476D01*
X153495428Y-99274380D02*
X154114476Y-99274380D01*
X153781142Y-99655333D01*
X153924000Y-99655333D01*
X154019238Y-99702952D01*
X154066857Y-99750571D01*
X154114476Y-99845809D01*
X154114476Y-100083904D01*
X154066857Y-100179142D01*
X154019238Y-100226761D01*
X153924000Y-100274380D01*
X153638285Y-100274380D01*
X153543047Y-100226761D01*
X153495428Y-100179142D01*
X154543047Y-100179142D02*
X154590666Y-100226761D01*
X154543047Y-100274380D01*
X154495428Y-100226761D01*
X154543047Y-100179142D01*
X154543047Y-100274380D01*
X154924000Y-99274380D02*
X155543047Y-99274380D01*
X155209714Y-99655333D01*
X155352571Y-99655333D01*
X155447809Y-99702952D01*
X155495428Y-99750571D01*
X155543047Y-99845809D01*
X155543047Y-100083904D01*
X155495428Y-100179142D01*
X155447809Y-100226761D01*
X155352571Y-100274380D01*
X155066857Y-100274380D01*
X154971619Y-100226761D01*
X154924000Y-100179142D01*
X153162095Y-96734380D02*
X153733523Y-96734380D01*
X153447809Y-97734380D02*
X153447809Y-96734380D01*
X153971619Y-96734380D02*
X154638285Y-97734380D01*
X154638285Y-96734380D02*
X153971619Y-97734380D01*
X153757333Y-95194380D02*
X153424000Y-94718190D01*
X153185904Y-95194380D02*
X153185904Y-94194380D01*
X153566857Y-94194380D01*
X153662095Y-94242000D01*
X153709714Y-94289619D01*
X153757333Y-94384857D01*
X153757333Y-94527714D01*
X153709714Y-94622952D01*
X153662095Y-94670571D01*
X153566857Y-94718190D01*
X153185904Y-94718190D01*
X154090666Y-94194380D02*
X154757333Y-95194380D01*
X154757333Y-94194380D02*
X154090666Y-95194380D01*
X152781142Y-92654380D02*
X152781142Y-91654380D01*
X153019238Y-91654380D01*
X153162095Y-91702000D01*
X153257333Y-91797238D01*
X153304952Y-91892476D01*
X153352571Y-92082952D01*
X153352571Y-92225809D01*
X153304952Y-92416285D01*
X153257333Y-92511523D01*
X153162095Y-92606761D01*
X153019238Y-92654380D01*
X152781142Y-92654380D01*
X153638285Y-91654380D02*
X154209714Y-91654380D01*
X153924000Y-92654380D02*
X153924000Y-91654380D01*
X155114476Y-92654380D02*
X154781142Y-92178190D01*
X154543047Y-92654380D02*
X154543047Y-91654380D01*
X154924000Y-91654380D01*
X155019238Y-91702000D01*
X155066857Y-91749619D01*
X155114476Y-91844857D01*
X155114476Y-91987714D01*
X155066857Y-92082952D01*
X155019238Y-92130571D01*
X154924000Y-92178190D01*
X154543047Y-92178190D01*
D11*
X109314064Y-85704000D02*
X108109936Y-85704000D01*
X109314064Y-87524000D02*
X108109936Y-87524000D01*
X108109936Y-83460000D02*
X109314064Y-83460000D01*
X108109936Y-81640000D02*
X109314064Y-81640000D01*
X113378064Y-91292000D02*
X112173936Y-91292000D01*
X113378064Y-93112000D02*
X112173936Y-93112000D01*
X175567000Y-81314775D02*
X176067000Y-81314775D01*
X175817000Y-81564775D02*
X175817000Y-81064775D01*
X177008000Y-76159000D02*
X177576000Y-76159000D01*
X176774000Y-76199000D02*
X177810000Y-76199000D01*
X176615000Y-76239000D02*
X177969000Y-76239000D01*
X176487000Y-76279000D02*
X178097000Y-76279000D01*
X176377000Y-76319000D02*
X178207000Y-76319000D01*
X176281000Y-76359000D02*
X178303000Y-76359000D01*
X176194000Y-76399000D02*
X178390000Y-76399000D01*
X176114000Y-76439000D02*
X178470000Y-76439000D01*
X178332000Y-76479000D02*
X178543000Y-76479000D01*
X176041000Y-76479000D02*
X176252000Y-76479000D01*
X178332000Y-76519000D02*
X178611000Y-76519000D01*
X175973000Y-76519000D02*
X176252000Y-76519000D01*
X178332000Y-76559000D02*
X178675000Y-76559000D01*
X175909000Y-76559000D02*
X176252000Y-76559000D01*
X178332000Y-76599000D02*
X178735000Y-76599000D01*
X175849000Y-76599000D02*
X176252000Y-76599000D01*
X178332000Y-76639000D02*
X178792000Y-76639000D01*
X175792000Y-76639000D02*
X176252000Y-76639000D01*
X178332000Y-76679000D02*
X178846000Y-76679000D01*
X175738000Y-76679000D02*
X176252000Y-76679000D01*
X178332000Y-76719000D02*
X178897000Y-76719000D01*
X175687000Y-76719000D02*
X176252000Y-76719000D01*
X178332000Y-76759000D02*
X178945000Y-76759000D01*
X175639000Y-76759000D02*
X176252000Y-76759000D01*
X178332000Y-76799000D02*
X178991000Y-76799000D01*
X175593000Y-76799000D02*
X176252000Y-76799000D01*
X178332000Y-76839000D02*
X179035000Y-76839000D01*
X175549000Y-76839000D02*
X176252000Y-76839000D01*
X178332000Y-76879000D02*
X179077000Y-76879000D01*
X175507000Y-76879000D02*
X176252000Y-76879000D01*
X178332000Y-76919000D02*
X179118000Y-76919000D01*
X175466000Y-76919000D02*
X176252000Y-76919000D01*
X178332000Y-76959000D02*
X179156000Y-76959000D01*
X175428000Y-76959000D02*
X176252000Y-76959000D01*
X178332000Y-76999000D02*
X179193000Y-76999000D01*
X175391000Y-76999000D02*
X176252000Y-76999000D01*
X178332000Y-77039000D02*
X179229000Y-77039000D01*
X175355000Y-77039000D02*
X176252000Y-77039000D01*
X178332000Y-77079000D02*
X179263000Y-77079000D01*
X175321000Y-77079000D02*
X176252000Y-77079000D01*
X178332000Y-77119000D02*
X179296000Y-77119000D01*
X175288000Y-77119000D02*
X176252000Y-77119000D01*
X178332000Y-77159000D02*
X179327000Y-77159000D01*
X175257000Y-77159000D02*
X176252000Y-77159000D01*
X178332000Y-77199000D02*
X179357000Y-77199000D01*
X175227000Y-77199000D02*
X176252000Y-77199000D01*
X178332000Y-77239000D02*
X179387000Y-77239000D01*
X175197000Y-77239000D02*
X176252000Y-77239000D01*
X178332000Y-77279000D02*
X179414000Y-77279000D01*
X175170000Y-77279000D02*
X176252000Y-77279000D01*
X178332000Y-77319000D02*
X179441000Y-77319000D01*
X175143000Y-77319000D02*
X176252000Y-77319000D01*
X178332000Y-77359000D02*
X179467000Y-77359000D01*
X175117000Y-77359000D02*
X176252000Y-77359000D01*
X178332000Y-77399000D02*
X179492000Y-77399000D01*
X175092000Y-77399000D02*
X176252000Y-77399000D01*
X178332000Y-77439000D02*
X179516000Y-77439000D01*
X175068000Y-77439000D02*
X176252000Y-77439000D01*
X178332000Y-77479000D02*
X179539000Y-77479000D01*
X175045000Y-77479000D02*
X176252000Y-77479000D01*
X178332000Y-77519000D02*
X179560000Y-77519000D01*
X175024000Y-77519000D02*
X176252000Y-77519000D01*
X178332000Y-77559000D02*
X179582000Y-77559000D01*
X175002000Y-77559000D02*
X176252000Y-77559000D01*
X178332000Y-77599000D02*
X179602000Y-77599000D01*
X174982000Y-77599000D02*
X176252000Y-77599000D01*
X178332000Y-77639000D02*
X179621000Y-77639000D01*
X174963000Y-77639000D02*
X176252000Y-77639000D01*
X178332000Y-77679000D02*
X179640000Y-77679000D01*
X174944000Y-77679000D02*
X176252000Y-77679000D01*
X178332000Y-77719000D02*
X179657000Y-77719000D01*
X174927000Y-77719000D02*
X176252000Y-77719000D01*
X178332000Y-77759000D02*
X179674000Y-77759000D01*
X174910000Y-77759000D02*
X176252000Y-77759000D01*
X178332000Y-77799000D02*
X179690000Y-77799000D01*
X174894000Y-77799000D02*
X176252000Y-77799000D01*
X178332000Y-77839000D02*
X179706000Y-77839000D01*
X174878000Y-77839000D02*
X176252000Y-77839000D01*
X178332000Y-77879000D02*
X179720000Y-77879000D01*
X174864000Y-77879000D02*
X176252000Y-77879000D01*
X178332000Y-77919000D02*
X179734000Y-77919000D01*
X174850000Y-77919000D02*
X176252000Y-77919000D01*
X178332000Y-77959000D02*
X179747000Y-77959000D01*
X174837000Y-77959000D02*
X176252000Y-77959000D01*
X178332000Y-77999000D02*
X179760000Y-77999000D01*
X174824000Y-77999000D02*
X176252000Y-77999000D01*
X178332000Y-78039000D02*
X179772000Y-78039000D01*
X174812000Y-78039000D02*
X176252000Y-78039000D01*
X178332000Y-78080000D02*
X179783000Y-78080000D01*
X174801000Y-78080000D02*
X176252000Y-78080000D01*
X178332000Y-78120000D02*
X179793000Y-78120000D01*
X174791000Y-78120000D02*
X176252000Y-78120000D01*
X178332000Y-78160000D02*
X179803000Y-78160000D01*
X174781000Y-78160000D02*
X176252000Y-78160000D01*
X178332000Y-78200000D02*
X179812000Y-78200000D01*
X174772000Y-78200000D02*
X176252000Y-78200000D01*
X178332000Y-78240000D02*
X179820000Y-78240000D01*
X174764000Y-78240000D02*
X176252000Y-78240000D01*
X178332000Y-78280000D02*
X179828000Y-78280000D01*
X174756000Y-78280000D02*
X176252000Y-78280000D01*
X178332000Y-78320000D02*
X179835000Y-78320000D01*
X174749000Y-78320000D02*
X176252000Y-78320000D01*
X178332000Y-78360000D02*
X179842000Y-78360000D01*
X174742000Y-78360000D02*
X176252000Y-78360000D01*
X178332000Y-78400000D02*
X179848000Y-78400000D01*
X174736000Y-78400000D02*
X176252000Y-78400000D01*
X178332000Y-78440000D02*
X179853000Y-78440000D01*
X174731000Y-78440000D02*
X176252000Y-78440000D01*
X178332000Y-78480000D02*
X179857000Y-78480000D01*
X174727000Y-78480000D02*
X176252000Y-78480000D01*
X178332000Y-78520000D02*
X179861000Y-78520000D01*
X174723000Y-78520000D02*
X176252000Y-78520000D01*
X174719000Y-78560000D02*
X179865000Y-78560000D01*
X174716000Y-78600000D02*
X179868000Y-78600000D01*
X174714000Y-78640000D02*
X179870000Y-78640000D01*
X174713000Y-78680000D02*
X179871000Y-78680000D01*
X174712000Y-78720000D02*
X179872000Y-78720000D01*
X174712000Y-78760000D02*
X179872000Y-78760000D01*
X179912000Y-78760000D02*
G75*
G03X179912000Y-78760000I-2620000J0D01*
G01*
X130566000Y-104186000D02*
X130566000Y-105516000D01*
X130566000Y-105516000D02*
X129236000Y-105516000D01*
X127966000Y-105516000D02*
X125366000Y-105516000D01*
X125366000Y-102856000D02*
X125366000Y-105516000D01*
X127966000Y-102856000D02*
X125366000Y-102856000D01*
X127966000Y-102856000D02*
X127966000Y-105516000D01*
X127930000Y-84698000D02*
X127930000Y-87148000D01*
X131150000Y-86498000D02*
X131150000Y-84698000D01*
X113686000Y-75024064D02*
X113686000Y-73819936D01*
X111866000Y-75024064D02*
X111866000Y-73819936D01*
X122026000Y-77375936D02*
X122026000Y-78580064D01*
X123846000Y-77375936D02*
X123846000Y-78580064D01*
X124058000Y-90583936D02*
X124058000Y-91788064D01*
X125878000Y-90583936D02*
X125878000Y-91788064D01*
X108298064Y-77576000D02*
X107093936Y-77576000D01*
X108298064Y-79396000D02*
X107093936Y-79396000D01*
D10*
X101386000Y-79162000D02*
X99986000Y-79162000D01*
X97586000Y-79162000D02*
X97436000Y-79162000D01*
X97436000Y-79162000D02*
X97436000Y-79462000D01*
X97436000Y-79462000D02*
X96986000Y-79462000D01*
X96986000Y-87162000D02*
X97436000Y-87162000D01*
X97436000Y-87162000D02*
X97436000Y-87462000D01*
X97436000Y-87462000D02*
X97586000Y-87462000D01*
X99986000Y-87462000D02*
X101386000Y-87462000D01*
X103561000Y-82237000D02*
X103561000Y-81512000D01*
X103561000Y-81512000D02*
X103136000Y-81512000D01*
X103136000Y-81512000D02*
X103136000Y-80512000D01*
X103136000Y-85112000D02*
X103136000Y-86112000D01*
D11*
X139606000Y-74581936D02*
X139606000Y-75786064D01*
X141426000Y-74581936D02*
X141426000Y-75786064D01*
X143162000Y-74545936D02*
X143162000Y-75750064D01*
X144982000Y-74545936D02*
X144982000Y-75750064D01*
X146972000Y-74581936D02*
X146972000Y-75786064D01*
X148792000Y-74581936D02*
X148792000Y-75786064D01*
X130154000Y-67469936D02*
X130154000Y-68674064D01*
X131974000Y-67469936D02*
X131974000Y-68674064D01*
X134780000Y-74581936D02*
X134780000Y-75786064D01*
X136600000Y-74581936D02*
X136600000Y-75786064D01*
X113599000Y-69770000D02*
X113599000Y-65710000D01*
X110429000Y-69770000D02*
X113599000Y-69770000D01*
X110429000Y-65710000D02*
X110429000Y-69770000D01*
X118171000Y-69770000D02*
X118171000Y-65710000D01*
X115001000Y-69770000D02*
X118171000Y-69770000D01*
X115001000Y-65710000D02*
X115001000Y-69770000D01*
X141691936Y-88540000D02*
X142896064Y-88540000D01*
X141691936Y-86720000D02*
X142896064Y-86720000D01*
X148041936Y-88540000D02*
X149246064Y-88540000D01*
X148041936Y-86720000D02*
X149246064Y-86720000D01*
X137308064Y-92858000D02*
X136103936Y-92858000D01*
X137308064Y-91038000D02*
X136103936Y-91038000D01*
X141691936Y-91038000D02*
X142896064Y-91038000D01*
X141691936Y-92858000D02*
X142896064Y-92858000D01*
X146410000Y-91091936D02*
X146410000Y-92296064D01*
X148230000Y-91091936D02*
X148230000Y-92296064D01*
X130154000Y-78580064D02*
X130154000Y-77375936D01*
X131974000Y-78580064D02*
X131974000Y-77375936D01*
X127910000Y-78580064D02*
X127910000Y-77375936D01*
X126090000Y-78580064D02*
X126090000Y-77375936D01*
X152866000Y-78116000D02*
X151026000Y-78116000D01*
X151026000Y-78116000D02*
X151026000Y-81396000D01*
X151026000Y-81396000D02*
X152866000Y-81396000D01*
X152866000Y-81396000D02*
X152866000Y-78116000D01*
X151946000Y-76936000D02*
X151946000Y-78116000D01*
X151946000Y-82576000D02*
X151946000Y-81396000D01*
X152866000Y-78692000D02*
X151026000Y-78692000D01*
X152866000Y-78812000D02*
X151026000Y-78812000D01*
X152866000Y-78572000D02*
X151026000Y-78572000D01*
X153216462Y-65082000D02*
G75*
G03X151671170Y-70632000I-462J-2990000D01*
G01*
X153215538Y-65082000D02*
G75*
G02X154760830Y-70632000I462J-2990000D01*
G01*
X155716000Y-68072000D02*
G75*
G03X155716000Y-68072000I-2500000J0D01*
G01*
X151671000Y-70632000D02*
X154761000Y-70632000D01*
X143797000Y-70632000D02*
X146887000Y-70632000D01*
X147842000Y-68072000D02*
G75*
G03X147842000Y-68072000I-2500000J0D01*
G01*
X145341538Y-65082000D02*
G75*
G02X146886830Y-70632000I462J-2990000D01*
G01*
X145342462Y-65082000D02*
G75*
G03X143797170Y-70632000I-462J-2990000D01*
G01*
X137214462Y-65082000D02*
G75*
G03X135669170Y-70632000I-462J-2990000D01*
G01*
X137213538Y-65082000D02*
G75*
G02X138758830Y-70632000I462J-2990000D01*
G01*
X139714000Y-68072000D02*
G75*
G03X139714000Y-68072000I-2500000J0D01*
G01*
X135669000Y-70632000D02*
X138759000Y-70632000D01*
X158734000Y-65175000D02*
X174514000Y-65175000D01*
X174514000Y-65175000D02*
X174514000Y-74525000D01*
X174514000Y-74525000D02*
X158734000Y-74525000D01*
X158734000Y-74525000D02*
X158734000Y-65175000D01*
X158484000Y-74775000D02*
X161024000Y-74775000D01*
X158484000Y-74775000D02*
X158484000Y-72235000D01*
X152260000Y-103632000D02*
X149600000Y-103632000D01*
X152260000Y-103632000D02*
X152260000Y-90872000D01*
X152260000Y-90872000D02*
X149600000Y-90872000D01*
X149600000Y-103632000D02*
X149600000Y-90872000D01*
X149600000Y-106232000D02*
X149600000Y-104902000D01*
X150930000Y-106232000D02*
X149600000Y-106232000D01*
D10*
X112991000Y-103277000D02*
X112991000Y-103377000D01*
X117641000Y-103277000D02*
X117641000Y-103477000D01*
X117641000Y-106527000D02*
X117641000Y-106327000D01*
X112991000Y-106527000D02*
X112991000Y-106327000D01*
X112991000Y-103277000D02*
X117641000Y-103277000D01*
X112991000Y-106527000D02*
X117641000Y-106527000D01*
X112991000Y-103377000D02*
X111641000Y-103377000D01*
D11*
X106082000Y-67912064D02*
X106082000Y-66707936D01*
X108802000Y-67912064D02*
X108802000Y-66707936D01*
X127094064Y-97684000D02*
X125889936Y-97684000D01*
X127094064Y-95864000D02*
X125889936Y-95864000D01*
X117750000Y-75024064D02*
X117750000Y-73819936D01*
X115930000Y-75024064D02*
X115930000Y-73819936D01*
X106774064Y-91292000D02*
X105569936Y-91292000D01*
X106774064Y-93112000D02*
X105569936Y-93112000D01*
X118777936Y-91292000D02*
X119982064Y-91292000D01*
X118777936Y-93112000D02*
X119982064Y-93112000D01*
X117761936Y-96372000D02*
X118966064Y-96372000D01*
X117761936Y-98192000D02*
X118966064Y-98192000D01*
X127150000Y-71684000D02*
X127150000Y-71334000D01*
X128040000Y-71684000D02*
X127150000Y-71684000D01*
X128040000Y-71384000D02*
X128040000Y-71684000D01*
X128040000Y-68744000D02*
X128040000Y-64894000D01*
X128040000Y-64894000D02*
X120300000Y-64894000D01*
X120300000Y-64894000D02*
X120300000Y-68744000D01*
X121680000Y-69134000D02*
X126660000Y-69134000D01*
X121190000Y-71684000D02*
X120300000Y-71684000D01*
X121190000Y-71684000D02*
X121190000Y-71334000D01*
X120300000Y-71384000D02*
X120300000Y-71684000D01*
X171892000Y-78740000D02*
X171892000Y-84074000D01*
X171892000Y-84074000D02*
X161224000Y-84074000D01*
X161224000Y-84074000D02*
X161224000Y-78740000D01*
X161224000Y-78740000D02*
X161224000Y-78740000D01*
X171384000Y-81280000D02*
X169098000Y-81280000D01*
X169098000Y-81280000D02*
X169098000Y-78994000D01*
X169098000Y-78994000D02*
X169098000Y-78994000D01*
X172468000Y-78410000D02*
X172468000Y-107610000D01*
X172468000Y-107610000D02*
X157018000Y-107610000D01*
X157018000Y-107610000D02*
X157018000Y-78410000D01*
X157018000Y-78410000D02*
X172468000Y-78410000D01*
X172468000Y-78410000D02*
X172468000Y-78410000D01*
X161224000Y-78740000D02*
X171892000Y-78740000D01*
X171892000Y-78740000D02*
X171892000Y-78740000D01*
D10*
X144903000Y-96705000D02*
X144678000Y-96705000D01*
X144903000Y-103955000D02*
X144578000Y-103955000D01*
X137653000Y-103955000D02*
X137978000Y-103955000D01*
X137653000Y-96705000D02*
X137978000Y-96705000D01*
X144903000Y-96705000D02*
X144903000Y-97030000D01*
X137653000Y-96705000D02*
X137653000Y-97030000D01*
X137653000Y-103955000D02*
X137653000Y-103630000D01*
X144903000Y-103955000D02*
X144903000Y-103630000D01*
X144678000Y-96705000D02*
X144678000Y-95280000D01*
D11*
X114026000Y-85746000D02*
X114026000Y-80346000D01*
X119146000Y-84246000D02*
X119146000Y-80346000D01*
X111136000Y-95672000D02*
X109336000Y-95672000D01*
X109336000Y-98892000D02*
X112286000Y-98892000D01*
X137724000Y-79771000D02*
X144124000Y-79771000D01*
X137724000Y-84821000D02*
X144124000Y-84821000D01*
X137724000Y-84821000D02*
G75*
G02X137724000Y-79771000I0J2525000D01*
G01*
X144124000Y-84821000D02*
G75*
G03X144124000Y-79771000I0J2525000D01*
G01*
D12*
G36*
X165476964Y-94064018D02*
G01*
X165533812Y-94365570D01*
X165953338Y-94538512D01*
X166204984Y-94367395D01*
X166275458Y-94319750D01*
X166339163Y-94277210D01*
X166393126Y-94241715D01*
X166434373Y-94215210D01*
X166459934Y-94199636D01*
X166466895Y-94196278D01*
X166479435Y-94204914D01*
X166506231Y-94228792D01*
X166544280Y-94264859D01*
X166590579Y-94310067D01*
X166642123Y-94361364D01*
X166695909Y-94415701D01*
X166748935Y-94470028D01*
X166798195Y-94521295D01*
X166840687Y-94566451D01*
X166873407Y-94602446D01*
X166893351Y-94626230D01*
X166898119Y-94634190D01*
X166891257Y-94648865D01*
X166872020Y-94681014D01*
X166842430Y-94727492D01*
X166804510Y-94785156D01*
X166760282Y-94850860D01*
X166734654Y-94888336D01*
X166687941Y-94956768D01*
X166646432Y-95018520D01*
X166612140Y-95070519D01*
X166587080Y-95109692D01*
X166573264Y-95132965D01*
X166571188Y-95137855D01*
X166575895Y-95151755D01*
X166588723Y-95184150D01*
X166607738Y-95230485D01*
X166631003Y-95286206D01*
X166656584Y-95346758D01*
X166682545Y-95407586D01*
X166706950Y-95464136D01*
X166727863Y-95511852D01*
X166743349Y-95546181D01*
X166751472Y-95562568D01*
X166751952Y-95563212D01*
X166764707Y-95566341D01*
X166798677Y-95573321D01*
X166850340Y-95583467D01*
X166916176Y-95596092D01*
X166992664Y-95610509D01*
X167037290Y-95618823D01*
X167119021Y-95634384D01*
X167192843Y-95649192D01*
X167255021Y-95662436D01*
X167301822Y-95673305D01*
X167329509Y-95680989D01*
X167335074Y-95683427D01*
X167340526Y-95699930D01*
X167344924Y-95737200D01*
X167348272Y-95790880D01*
X167350574Y-95856612D01*
X167351832Y-95930037D01*
X167352048Y-96006796D01*
X167351227Y-96082532D01*
X167349371Y-96152886D01*
X167346482Y-96213500D01*
X167342565Y-96260016D01*
X167337622Y-96288075D01*
X167334657Y-96293916D01*
X167316934Y-96300917D01*
X167279381Y-96310927D01*
X167226964Y-96322769D01*
X167164652Y-96335267D01*
X167142900Y-96339310D01*
X167038024Y-96358520D01*
X166955180Y-96373991D01*
X166891630Y-96386337D01*
X166844637Y-96396173D01*
X166811463Y-96404114D01*
X166789371Y-96410776D01*
X166775624Y-96416773D01*
X166767484Y-96422719D01*
X166766345Y-96423894D01*
X166754977Y-96442826D01*
X166737635Y-96479669D01*
X166716050Y-96529913D01*
X166691954Y-96589046D01*
X166667079Y-96652556D01*
X166643157Y-96715932D01*
X166621919Y-96774662D01*
X166605097Y-96824235D01*
X166594422Y-96860139D01*
X166591627Y-96877862D01*
X166591860Y-96878483D01*
X166601331Y-96892970D01*
X166622818Y-96924844D01*
X166654063Y-96970789D01*
X166692807Y-97027485D01*
X166736793Y-97091617D01*
X166749319Y-97109842D01*
X166793984Y-97175914D01*
X166833288Y-97236200D01*
X166865088Y-97287235D01*
X166887245Y-97325560D01*
X166897617Y-97347711D01*
X166898119Y-97350432D01*
X166889405Y-97364736D01*
X166865325Y-97393072D01*
X166828976Y-97432396D01*
X166783453Y-97479661D01*
X166731852Y-97531823D01*
X166677267Y-97585835D01*
X166622794Y-97638653D01*
X166571529Y-97687231D01*
X166526567Y-97728523D01*
X166491004Y-97759485D01*
X166467935Y-97777070D01*
X166461554Y-97779941D01*
X166446699Y-97773178D01*
X166416286Y-97754939D01*
X166375268Y-97728297D01*
X166343709Y-97706852D01*
X166286525Y-97667503D01*
X166218806Y-97621171D01*
X166150880Y-97574913D01*
X166114361Y-97550155D01*
X165990752Y-97466547D01*
X165886991Y-97522650D01*
X165839720Y-97547228D01*
X165799523Y-97566331D01*
X165772326Y-97577227D01*
X165765402Y-97578743D01*
X165757077Y-97567549D01*
X165740654Y-97535917D01*
X165717357Y-97486765D01*
X165688414Y-97423010D01*
X165655050Y-97347571D01*
X165618491Y-97263364D01*
X165579964Y-97173308D01*
X165540694Y-97080321D01*
X165501908Y-96987320D01*
X165464830Y-96897223D01*
X165430689Y-96812948D01*
X165400708Y-96737413D01*
X165376116Y-96673534D01*
X165358136Y-96624231D01*
X165347997Y-96592421D01*
X165346366Y-96581496D01*
X165359291Y-96567561D01*
X165387589Y-96544940D01*
X165425346Y-96518333D01*
X165428515Y-96516228D01*
X165526100Y-96438114D01*
X165604786Y-96346982D01*
X165663891Y-96245745D01*
X165702732Y-96137318D01*
X165720628Y-96024614D01*
X165716897Y-95910548D01*
X165690857Y-95798034D01*
X165641825Y-95689985D01*
X165627400Y-95666345D01*
X165552369Y-95570887D01*
X165463730Y-95494232D01*
X165364549Y-95436780D01*
X165257895Y-95398929D01*
X165146836Y-95381078D01*
X165034439Y-95383625D01*
X164923773Y-95406970D01*
X164817906Y-95451510D01*
X164719905Y-95517645D01*
X164689590Y-95544487D01*
X164612438Y-95628512D01*
X164556218Y-95716966D01*
X164517653Y-95816115D01*
X164496174Y-95914303D01*
X164490872Y-96024697D01*
X164508552Y-96135640D01*
X164547419Y-96243381D01*
X164605677Y-96344169D01*
X164681531Y-96434256D01*
X164773183Y-96509892D01*
X164785228Y-96517864D01*
X164823389Y-96543974D01*
X164852399Y-96566595D01*
X164866268Y-96581039D01*
X164866469Y-96581496D01*
X164863492Y-96597121D01*
X164851689Y-96632582D01*
X164832286Y-96684962D01*
X164806512Y-96751345D01*
X164775591Y-96828814D01*
X164740751Y-96914450D01*
X164703217Y-97005337D01*
X164664217Y-97098559D01*
X164624977Y-97191197D01*
X164586724Y-97280335D01*
X164550683Y-97363055D01*
X164518083Y-97436441D01*
X164490148Y-97497575D01*
X164468105Y-97543541D01*
X164453182Y-97571421D01*
X164447172Y-97578743D01*
X164428809Y-97573041D01*
X164394448Y-97557749D01*
X164350016Y-97535599D01*
X164325583Y-97522650D01*
X164221822Y-97466547D01*
X164098213Y-97550155D01*
X164035114Y-97592987D01*
X163966030Y-97640122D01*
X163901293Y-97684503D01*
X163868866Y-97706852D01*
X163823259Y-97737477D01*
X163784640Y-97761747D01*
X163758048Y-97776587D01*
X163749410Y-97779724D01*
X163736839Y-97771261D01*
X163709016Y-97747636D01*
X163668639Y-97711302D01*
X163618405Y-97664711D01*
X163561012Y-97610317D01*
X163524714Y-97575392D01*
X163461210Y-97512996D01*
X163406327Y-97457188D01*
X163362286Y-97410354D01*
X163331305Y-97374882D01*
X163315602Y-97353161D01*
X163314095Y-97348752D01*
X163321086Y-97331985D01*
X163340406Y-97298082D01*
X163369909Y-97250476D01*
X163407455Y-97192599D01*
X163450900Y-97127884D01*
X163463255Y-97109842D01*
X163508273Y-97044267D01*
X163548660Y-96985228D01*
X163582160Y-96936042D01*
X163606514Y-96900028D01*
X163619464Y-96880502D01*
X163620715Y-96878483D01*
X163618844Y-96862922D01*
X163608913Y-96828709D01*
X163592653Y-96780355D01*
X163571795Y-96722371D01*
X163548073Y-96659270D01*
X163523216Y-96595563D01*
X163498958Y-96535761D01*
X163477029Y-96484376D01*
X163459162Y-96445919D01*
X163447087Y-96424902D01*
X163446229Y-96423894D01*
X163438846Y-96417888D01*
X163426375Y-96411948D01*
X163406080Y-96405460D01*
X163375222Y-96397809D01*
X163331066Y-96388380D01*
X163270874Y-96376559D01*
X163191907Y-96361729D01*
X163091430Y-96343277D01*
X163069675Y-96339310D01*
X163005198Y-96326853D01*
X162948989Y-96314666D01*
X162906013Y-96303926D01*
X162881240Y-96295809D01*
X162877918Y-96293916D01*
X162872444Y-96277138D01*
X162867994Y-96239645D01*
X162864572Y-96185794D01*
X162862181Y-96119944D01*
X162860823Y-96046453D01*
X162860501Y-95969680D01*
X162861219Y-95893983D01*
X162862979Y-95823720D01*
X162865784Y-95763250D01*
X162869638Y-95716930D01*
X162874543Y-95689119D01*
X162877500Y-95683427D01*
X162893963Y-95677686D01*
X162931449Y-95668345D01*
X162986225Y-95656215D01*
X163054555Y-95642107D01*
X163132706Y-95626830D01*
X163175284Y-95618823D01*
X163256071Y-95603721D01*
X163328113Y-95590040D01*
X163387889Y-95578467D01*
X163431879Y-95569687D01*
X163456561Y-95564387D01*
X163460623Y-95563212D01*
X163467489Y-95549965D01*
X163482002Y-95518057D01*
X163502229Y-95472047D01*
X163526234Y-95416492D01*
X163552082Y-95355953D01*
X163577840Y-95294986D01*
X163601573Y-95238151D01*
X163621346Y-95190006D01*
X163635224Y-95155110D01*
X163641274Y-95138021D01*
X163641386Y-95137274D01*
X163634528Y-95123793D01*
X163615302Y-95092770D01*
X163585728Y-95047289D01*
X163547827Y-94990432D01*
X163503620Y-94925283D01*
X163477921Y-94887862D01*
X163431093Y-94819247D01*
X163389501Y-94756952D01*
X163355175Y-94704129D01*
X163330143Y-94663927D01*
X163316435Y-94639500D01*
X163314456Y-94634024D01*
X163322966Y-94621278D01*
X163346493Y-94594063D01*
X163382032Y-94555428D01*
X163426577Y-94508423D01*
X163477123Y-94456095D01*
X163530664Y-94401495D01*
X163584195Y-94347670D01*
X163634711Y-94297670D01*
X163679206Y-94254543D01*
X163714675Y-94221339D01*
X163738113Y-94201106D01*
X163745954Y-94196278D01*
X163758720Y-94203067D01*
X163789256Y-94222142D01*
X163834590Y-94251561D01*
X163891756Y-94289381D01*
X163957784Y-94333661D01*
X164007590Y-94367395D01*
X164259236Y-94538512D01*
X164468999Y-94452041D01*
X164678763Y-94365570D01*
X164735611Y-94064018D01*
X164792460Y-93762466D01*
X165420115Y-93762466D01*
X165476964Y-94064018D01*
X165476964Y-94064018D01*
G37*
X165476964Y-94064018D02*
X165533812Y-94365570D01*
X165953338Y-94538512D01*
X166204984Y-94367395D01*
X166275458Y-94319750D01*
X166339163Y-94277210D01*
X166393126Y-94241715D01*
X166434373Y-94215210D01*
X166459934Y-94199636D01*
X166466895Y-94196278D01*
X166479435Y-94204914D01*
X166506231Y-94228792D01*
X166544280Y-94264859D01*
X166590579Y-94310067D01*
X166642123Y-94361364D01*
X166695909Y-94415701D01*
X166748935Y-94470028D01*
X166798195Y-94521295D01*
X166840687Y-94566451D01*
X166873407Y-94602446D01*
X166893351Y-94626230D01*
X166898119Y-94634190D01*
X166891257Y-94648865D01*
X166872020Y-94681014D01*
X166842430Y-94727492D01*
X166804510Y-94785156D01*
X166760282Y-94850860D01*
X166734654Y-94888336D01*
X166687941Y-94956768D01*
X166646432Y-95018520D01*
X166612140Y-95070519D01*
X166587080Y-95109692D01*
X166573264Y-95132965D01*
X166571188Y-95137855D01*
X166575895Y-95151755D01*
X166588723Y-95184150D01*
X166607738Y-95230485D01*
X166631003Y-95286206D01*
X166656584Y-95346758D01*
X166682545Y-95407586D01*
X166706950Y-95464136D01*
X166727863Y-95511852D01*
X166743349Y-95546181D01*
X166751472Y-95562568D01*
X166751952Y-95563212D01*
X166764707Y-95566341D01*
X166798677Y-95573321D01*
X166850340Y-95583467D01*
X166916176Y-95596092D01*
X166992664Y-95610509D01*
X167037290Y-95618823D01*
X167119021Y-95634384D01*
X167192843Y-95649192D01*
X167255021Y-95662436D01*
X167301822Y-95673305D01*
X167329509Y-95680989D01*
X167335074Y-95683427D01*
X167340526Y-95699930D01*
X167344924Y-95737200D01*
X167348272Y-95790880D01*
X167350574Y-95856612D01*
X167351832Y-95930037D01*
X167352048Y-96006796D01*
X167351227Y-96082532D01*
X167349371Y-96152886D01*
X167346482Y-96213500D01*
X167342565Y-96260016D01*
X167337622Y-96288075D01*
X167334657Y-96293916D01*
X167316934Y-96300917D01*
X167279381Y-96310927D01*
X167226964Y-96322769D01*
X167164652Y-96335267D01*
X167142900Y-96339310D01*
X167038024Y-96358520D01*
X166955180Y-96373991D01*
X166891630Y-96386337D01*
X166844637Y-96396173D01*
X166811463Y-96404114D01*
X166789371Y-96410776D01*
X166775624Y-96416773D01*
X166767484Y-96422719D01*
X166766345Y-96423894D01*
X166754977Y-96442826D01*
X166737635Y-96479669D01*
X166716050Y-96529913D01*
X166691954Y-96589046D01*
X166667079Y-96652556D01*
X166643157Y-96715932D01*
X166621919Y-96774662D01*
X166605097Y-96824235D01*
X166594422Y-96860139D01*
X166591627Y-96877862D01*
X166591860Y-96878483D01*
X166601331Y-96892970D01*
X166622818Y-96924844D01*
X166654063Y-96970789D01*
X166692807Y-97027485D01*
X166736793Y-97091617D01*
X166749319Y-97109842D01*
X166793984Y-97175914D01*
X166833288Y-97236200D01*
X166865088Y-97287235D01*
X166887245Y-97325560D01*
X166897617Y-97347711D01*
X166898119Y-97350432D01*
X166889405Y-97364736D01*
X166865325Y-97393072D01*
X166828976Y-97432396D01*
X166783453Y-97479661D01*
X166731852Y-97531823D01*
X166677267Y-97585835D01*
X166622794Y-97638653D01*
X166571529Y-97687231D01*
X166526567Y-97728523D01*
X166491004Y-97759485D01*
X166467935Y-97777070D01*
X166461554Y-97779941D01*
X166446699Y-97773178D01*
X166416286Y-97754939D01*
X166375268Y-97728297D01*
X166343709Y-97706852D01*
X166286525Y-97667503D01*
X166218806Y-97621171D01*
X166150880Y-97574913D01*
X166114361Y-97550155D01*
X165990752Y-97466547D01*
X165886991Y-97522650D01*
X165839720Y-97547228D01*
X165799523Y-97566331D01*
X165772326Y-97577227D01*
X165765402Y-97578743D01*
X165757077Y-97567549D01*
X165740654Y-97535917D01*
X165717357Y-97486765D01*
X165688414Y-97423010D01*
X165655050Y-97347571D01*
X165618491Y-97263364D01*
X165579964Y-97173308D01*
X165540694Y-97080321D01*
X165501908Y-96987320D01*
X165464830Y-96897223D01*
X165430689Y-96812948D01*
X165400708Y-96737413D01*
X165376116Y-96673534D01*
X165358136Y-96624231D01*
X165347997Y-96592421D01*
X165346366Y-96581496D01*
X165359291Y-96567561D01*
X165387589Y-96544940D01*
X165425346Y-96518333D01*
X165428515Y-96516228D01*
X165526100Y-96438114D01*
X165604786Y-96346982D01*
X165663891Y-96245745D01*
X165702732Y-96137318D01*
X165720628Y-96024614D01*
X165716897Y-95910548D01*
X165690857Y-95798034D01*
X165641825Y-95689985D01*
X165627400Y-95666345D01*
X165552369Y-95570887D01*
X165463730Y-95494232D01*
X165364549Y-95436780D01*
X165257895Y-95398929D01*
X165146836Y-95381078D01*
X165034439Y-95383625D01*
X164923773Y-95406970D01*
X164817906Y-95451510D01*
X164719905Y-95517645D01*
X164689590Y-95544487D01*
X164612438Y-95628512D01*
X164556218Y-95716966D01*
X164517653Y-95816115D01*
X164496174Y-95914303D01*
X164490872Y-96024697D01*
X164508552Y-96135640D01*
X164547419Y-96243381D01*
X164605677Y-96344169D01*
X164681531Y-96434256D01*
X164773183Y-96509892D01*
X164785228Y-96517864D01*
X164823389Y-96543974D01*
X164852399Y-96566595D01*
X164866268Y-96581039D01*
X164866469Y-96581496D01*
X164863492Y-96597121D01*
X164851689Y-96632582D01*
X164832286Y-96684962D01*
X164806512Y-96751345D01*
X164775591Y-96828814D01*
X164740751Y-96914450D01*
X164703217Y-97005337D01*
X164664217Y-97098559D01*
X164624977Y-97191197D01*
X164586724Y-97280335D01*
X164550683Y-97363055D01*
X164518083Y-97436441D01*
X164490148Y-97497575D01*
X164468105Y-97543541D01*
X164453182Y-97571421D01*
X164447172Y-97578743D01*
X164428809Y-97573041D01*
X164394448Y-97557749D01*
X164350016Y-97535599D01*
X164325583Y-97522650D01*
X164221822Y-97466547D01*
X164098213Y-97550155D01*
X164035114Y-97592987D01*
X163966030Y-97640122D01*
X163901293Y-97684503D01*
X163868866Y-97706852D01*
X163823259Y-97737477D01*
X163784640Y-97761747D01*
X163758048Y-97776587D01*
X163749410Y-97779724D01*
X163736839Y-97771261D01*
X163709016Y-97747636D01*
X163668639Y-97711302D01*
X163618405Y-97664711D01*
X163561012Y-97610317D01*
X163524714Y-97575392D01*
X163461210Y-97512996D01*
X163406327Y-97457188D01*
X163362286Y-97410354D01*
X163331305Y-97374882D01*
X163315602Y-97353161D01*
X163314095Y-97348752D01*
X163321086Y-97331985D01*
X163340406Y-97298082D01*
X163369909Y-97250476D01*
X163407455Y-97192599D01*
X163450900Y-97127884D01*
X163463255Y-97109842D01*
X163508273Y-97044267D01*
X163548660Y-96985228D01*
X163582160Y-96936042D01*
X163606514Y-96900028D01*
X163619464Y-96880502D01*
X163620715Y-96878483D01*
X163618844Y-96862922D01*
X163608913Y-96828709D01*
X163592653Y-96780355D01*
X163571795Y-96722371D01*
X163548073Y-96659270D01*
X163523216Y-96595563D01*
X163498958Y-96535761D01*
X163477029Y-96484376D01*
X163459162Y-96445919D01*
X163447087Y-96424902D01*
X163446229Y-96423894D01*
X163438846Y-96417888D01*
X163426375Y-96411948D01*
X163406080Y-96405460D01*
X163375222Y-96397809D01*
X163331066Y-96388380D01*
X163270874Y-96376559D01*
X163191907Y-96361729D01*
X163091430Y-96343277D01*
X163069675Y-96339310D01*
X163005198Y-96326853D01*
X162948989Y-96314666D01*
X162906013Y-96303926D01*
X162881240Y-96295809D01*
X162877918Y-96293916D01*
X162872444Y-96277138D01*
X162867994Y-96239645D01*
X162864572Y-96185794D01*
X162862181Y-96119944D01*
X162860823Y-96046453D01*
X162860501Y-95969680D01*
X162861219Y-95893983D01*
X162862979Y-95823720D01*
X162865784Y-95763250D01*
X162869638Y-95716930D01*
X162874543Y-95689119D01*
X162877500Y-95683427D01*
X162893963Y-95677686D01*
X162931449Y-95668345D01*
X162986225Y-95656215D01*
X163054555Y-95642107D01*
X163132706Y-95626830D01*
X163175284Y-95618823D01*
X163256071Y-95603721D01*
X163328113Y-95590040D01*
X163387889Y-95578467D01*
X163431879Y-95569687D01*
X163456561Y-95564387D01*
X163460623Y-95563212D01*
X163467489Y-95549965D01*
X163482002Y-95518057D01*
X163502229Y-95472047D01*
X163526234Y-95416492D01*
X163552082Y-95355953D01*
X163577840Y-95294986D01*
X163601573Y-95238151D01*
X163621346Y-95190006D01*
X163635224Y-95155110D01*
X163641274Y-95138021D01*
X163641386Y-95137274D01*
X163634528Y-95123793D01*
X163615302Y-95092770D01*
X163585728Y-95047289D01*
X163547827Y-94990432D01*
X163503620Y-94925283D01*
X163477921Y-94887862D01*
X163431093Y-94819247D01*
X163389501Y-94756952D01*
X163355175Y-94704129D01*
X163330143Y-94663927D01*
X163316435Y-94639500D01*
X163314456Y-94634024D01*
X163322966Y-94621278D01*
X163346493Y-94594063D01*
X163382032Y-94555428D01*
X163426577Y-94508423D01*
X163477123Y-94456095D01*
X163530664Y-94401495D01*
X163584195Y-94347670D01*
X163634711Y-94297670D01*
X163679206Y-94254543D01*
X163714675Y-94221339D01*
X163738113Y-94201106D01*
X163745954Y-94196278D01*
X163758720Y-94203067D01*
X163789256Y-94222142D01*
X163834590Y-94251561D01*
X163891756Y-94289381D01*
X163957784Y-94333661D01*
X164007590Y-94367395D01*
X164259236Y-94538512D01*
X164468999Y-94452041D01*
X164678763Y-94365570D01*
X164735611Y-94064018D01*
X164792460Y-93762466D01*
X165420115Y-93762466D01*
X165476964Y-94064018D01*
G36*
X166899460Y-98232030D02*
G01*
X166942711Y-98245245D01*
X166970558Y-98261941D01*
X166979629Y-98275145D01*
X166977132Y-98290797D01*
X166960931Y-98315385D01*
X166947232Y-98332800D01*
X166918992Y-98364283D01*
X166897775Y-98377529D01*
X166879688Y-98376664D01*
X166826035Y-98363010D01*
X166786630Y-98363630D01*
X166754632Y-98379104D01*
X166743890Y-98388161D01*
X166709505Y-98420027D01*
X166709505Y-98836179D01*
X166571188Y-98836179D01*
X166571188Y-98232614D01*
X166640347Y-98232614D01*
X166681869Y-98234256D01*
X166703291Y-98240087D01*
X166709502Y-98251461D01*
X166709505Y-98251798D01*
X166712439Y-98263713D01*
X166725704Y-98262159D01*
X166744084Y-98253563D01*
X166782046Y-98237568D01*
X166812872Y-98227945D01*
X166852536Y-98225478D01*
X166899460Y-98232030D01*
X166899460Y-98232030D01*
G37*
X166899460Y-98232030D02*
X166942711Y-98245245D01*
X166970558Y-98261941D01*
X166979629Y-98275145D01*
X166977132Y-98290797D01*
X166960931Y-98315385D01*
X166947232Y-98332800D01*
X166918992Y-98364283D01*
X166897775Y-98377529D01*
X166879688Y-98376664D01*
X166826035Y-98363010D01*
X166786630Y-98363630D01*
X166754632Y-98379104D01*
X166743890Y-98388161D01*
X166709505Y-98420027D01*
X166709505Y-98836179D01*
X166571188Y-98836179D01*
X166571188Y-98232614D01*
X166640347Y-98232614D01*
X166681869Y-98234256D01*
X166703291Y-98240087D01*
X166709502Y-98251461D01*
X166709505Y-98251798D01*
X166712439Y-98263713D01*
X166725704Y-98262159D01*
X166744084Y-98253563D01*
X166782046Y-98237568D01*
X166812872Y-98227945D01*
X166852536Y-98225478D01*
X166899460Y-98232030D01*
G36*
X164345988Y-98243002D02*
G01*
X164377283Y-98257950D01*
X164407591Y-98279541D01*
X164430682Y-98304391D01*
X164447500Y-98336087D01*
X164458994Y-98378214D01*
X164466109Y-98434358D01*
X164469793Y-98508106D01*
X164470992Y-98603044D01*
X164471011Y-98612985D01*
X164471287Y-98836179D01*
X164332970Y-98836179D01*
X164332970Y-98630418D01*
X164332872Y-98554189D01*
X164332191Y-98498939D01*
X164330349Y-98460501D01*
X164326767Y-98434706D01*
X164320868Y-98417384D01*
X164312073Y-98404368D01*
X164299820Y-98391507D01*
X164256953Y-98363873D01*
X164210157Y-98358745D01*
X164165576Y-98376217D01*
X164150072Y-98389221D01*
X164138690Y-98401447D01*
X164130519Y-98414540D01*
X164125026Y-98432615D01*
X164121680Y-98459787D01*
X164119949Y-98500170D01*
X164119303Y-98557879D01*
X164119208Y-98628132D01*
X164119208Y-98836179D01*
X163980891Y-98836179D01*
X163980891Y-98232614D01*
X164050050Y-98232614D01*
X164091572Y-98234256D01*
X164112994Y-98240087D01*
X164119205Y-98251461D01*
X164119208Y-98251798D01*
X164122090Y-98262938D01*
X164134801Y-98261674D01*
X164160074Y-98249434D01*
X164217395Y-98231424D01*
X164282963Y-98229421D01*
X164345988Y-98243002D01*
X164345988Y-98243002D01*
G37*
X164345988Y-98243002D02*
X164377283Y-98257950D01*
X164407591Y-98279541D01*
X164430682Y-98304391D01*
X164447500Y-98336087D01*
X164458994Y-98378214D01*
X164466109Y-98434358D01*
X164469793Y-98508106D01*
X164470992Y-98603044D01*
X164471011Y-98612985D01*
X164471287Y-98836179D01*
X164332970Y-98836179D01*
X164332970Y-98630418D01*
X164332872Y-98554189D01*
X164332191Y-98498939D01*
X164330349Y-98460501D01*
X164326767Y-98434706D01*
X164320868Y-98417384D01*
X164312073Y-98404368D01*
X164299820Y-98391507D01*
X164256953Y-98363873D01*
X164210157Y-98358745D01*
X164165576Y-98376217D01*
X164150072Y-98389221D01*
X164138690Y-98401447D01*
X164130519Y-98414540D01*
X164125026Y-98432615D01*
X164121680Y-98459787D01*
X164119949Y-98500170D01*
X164119303Y-98557879D01*
X164119208Y-98628132D01*
X164119208Y-98836179D01*
X163980891Y-98836179D01*
X163980891Y-98232614D01*
X164050050Y-98232614D01*
X164091572Y-98234256D01*
X164112994Y-98240087D01*
X164119205Y-98251461D01*
X164119208Y-98251798D01*
X164122090Y-98262938D01*
X164134801Y-98261674D01*
X164160074Y-98249434D01*
X164217395Y-98231424D01*
X164282963Y-98229421D01*
X164345988Y-98243002D01*
G36*
X167777898Y-98230457D02*
G01*
X167810096Y-98238279D01*
X167871825Y-98266921D01*
X167924610Y-98310667D01*
X167961141Y-98363117D01*
X167966160Y-98374893D01*
X167973045Y-98405740D01*
X167977864Y-98451371D01*
X167979505Y-98497492D01*
X167979505Y-98584693D01*
X167797178Y-98584693D01*
X167721979Y-98584978D01*
X167669003Y-98586704D01*
X167635325Y-98591181D01*
X167618020Y-98599720D01*
X167614163Y-98613630D01*
X167620829Y-98634222D01*
X167632770Y-98658315D01*
X167666080Y-98698525D01*
X167712368Y-98718558D01*
X167768944Y-98717905D01*
X167833031Y-98696101D01*
X167888417Y-98669193D01*
X167934375Y-98705532D01*
X167980333Y-98741872D01*
X167937096Y-98781819D01*
X167879374Y-98819563D01*
X167808386Y-98842320D01*
X167732029Y-98848688D01*
X167658199Y-98837268D01*
X167646287Y-98833393D01*
X167581399Y-98799506D01*
X167533130Y-98748986D01*
X167500465Y-98680325D01*
X167482385Y-98592014D01*
X167482175Y-98590121D01*
X167480556Y-98493878D01*
X167487100Y-98459542D01*
X167614852Y-98459542D01*
X167626584Y-98464822D01*
X167658438Y-98468867D01*
X167705397Y-98471176D01*
X167735154Y-98471525D01*
X167790648Y-98471306D01*
X167825346Y-98469916D01*
X167843601Y-98466251D01*
X167849766Y-98459210D01*
X167848195Y-98447690D01*
X167846878Y-98443233D01*
X167824382Y-98401355D01*
X167789003Y-98367604D01*
X167757780Y-98352773D01*
X167716301Y-98353668D01*
X167674269Y-98372164D01*
X167639012Y-98402786D01*
X167617854Y-98440062D01*
X167614852Y-98459542D01*
X167487100Y-98459542D01*
X167496690Y-98409229D01*
X167528698Y-98338191D01*
X167574701Y-98282779D01*
X167632821Y-98245009D01*
X167701180Y-98226896D01*
X167777898Y-98230457D01*
X167777898Y-98230457D01*
G37*
X167777898Y-98230457D02*
X167810096Y-98238279D01*
X167871825Y-98266921D01*
X167924610Y-98310667D01*
X167961141Y-98363117D01*
X167966160Y-98374893D01*
X167973045Y-98405740D01*
X167977864Y-98451371D01*
X167979505Y-98497492D01*
X167979505Y-98584693D01*
X167797178Y-98584693D01*
X167721979Y-98584978D01*
X167669003Y-98586704D01*
X167635325Y-98591181D01*
X167618020Y-98599720D01*
X167614163Y-98613630D01*
X167620829Y-98634222D01*
X167632770Y-98658315D01*
X167666080Y-98698525D01*
X167712368Y-98718558D01*
X167768944Y-98717905D01*
X167833031Y-98696101D01*
X167888417Y-98669193D01*
X167934375Y-98705532D01*
X167980333Y-98741872D01*
X167937096Y-98781819D01*
X167879374Y-98819563D01*
X167808386Y-98842320D01*
X167732029Y-98848688D01*
X167658199Y-98837268D01*
X167646287Y-98833393D01*
X167581399Y-98799506D01*
X167533130Y-98748986D01*
X167500465Y-98680325D01*
X167482385Y-98592014D01*
X167482175Y-98590121D01*
X167480556Y-98493878D01*
X167487100Y-98459542D01*
X167614852Y-98459542D01*
X167626584Y-98464822D01*
X167658438Y-98468867D01*
X167705397Y-98471176D01*
X167735154Y-98471525D01*
X167790648Y-98471306D01*
X167825346Y-98469916D01*
X167843601Y-98466251D01*
X167849766Y-98459210D01*
X167848195Y-98447690D01*
X167846878Y-98443233D01*
X167824382Y-98401355D01*
X167789003Y-98367604D01*
X167757780Y-98352773D01*
X167716301Y-98353668D01*
X167674269Y-98372164D01*
X167639012Y-98402786D01*
X167617854Y-98440062D01*
X167614852Y-98459542D01*
X167487100Y-98459542D01*
X167496690Y-98409229D01*
X167528698Y-98338191D01*
X167574701Y-98282779D01*
X167632821Y-98245009D01*
X167701180Y-98226896D01*
X167777898Y-98230457D01*
G36*
X167317226Y-98237880D02*
G01*
X167390080Y-98268830D01*
X167413027Y-98283895D01*
X167442354Y-98307048D01*
X167460764Y-98325253D01*
X167463961Y-98331183D01*
X167454935Y-98344340D01*
X167431837Y-98366667D01*
X167413344Y-98382250D01*
X167362728Y-98422926D01*
X167322760Y-98389295D01*
X167291874Y-98367584D01*
X167261759Y-98360090D01*
X167227292Y-98361920D01*
X167172561Y-98375528D01*
X167134886Y-98403772D01*
X167111991Y-98449433D01*
X167101597Y-98515289D01*
X167101595Y-98515331D01*
X167102494Y-98588939D01*
X167116463Y-98642946D01*
X167144328Y-98679716D01*
X167163325Y-98692168D01*
X167213776Y-98707673D01*
X167267663Y-98707683D01*
X167314546Y-98692638D01*
X167325644Y-98685287D01*
X167353476Y-98666511D01*
X167375236Y-98663434D01*
X167398704Y-98677409D01*
X167424649Y-98702510D01*
X167465716Y-98744880D01*
X167420121Y-98782464D01*
X167349674Y-98824882D01*
X167270233Y-98845785D01*
X167187215Y-98844272D01*
X167132694Y-98830411D01*
X167068970Y-98796135D01*
X167018005Y-98742212D01*
X166994851Y-98704149D01*
X166976099Y-98649536D01*
X166966715Y-98580369D01*
X166966643Y-98505407D01*
X166975824Y-98433409D01*
X166994199Y-98373137D01*
X166997093Y-98366958D01*
X167039952Y-98306351D01*
X167097979Y-98262224D01*
X167166591Y-98235493D01*
X167241201Y-98227073D01*
X167317226Y-98237880D01*
X167317226Y-98237880D01*
G37*
X167317226Y-98237880D02*
X167390080Y-98268830D01*
X167413027Y-98283895D01*
X167442354Y-98307048D01*
X167460764Y-98325253D01*
X167463961Y-98331183D01*
X167454935Y-98344340D01*
X167431837Y-98366667D01*
X167413344Y-98382250D01*
X167362728Y-98422926D01*
X167322760Y-98389295D01*
X167291874Y-98367584D01*
X167261759Y-98360090D01*
X167227292Y-98361920D01*
X167172561Y-98375528D01*
X167134886Y-98403772D01*
X167111991Y-98449433D01*
X167101597Y-98515289D01*
X167101595Y-98515331D01*
X167102494Y-98588939D01*
X167116463Y-98642946D01*
X167144328Y-98679716D01*
X167163325Y-98692168D01*
X167213776Y-98707673D01*
X167267663Y-98707683D01*
X167314546Y-98692638D01*
X167325644Y-98685287D01*
X167353476Y-98666511D01*
X167375236Y-98663434D01*
X167398704Y-98677409D01*
X167424649Y-98702510D01*
X167465716Y-98744880D01*
X167420121Y-98782464D01*
X167349674Y-98824882D01*
X167270233Y-98845785D01*
X167187215Y-98844272D01*
X167132694Y-98830411D01*
X167068970Y-98796135D01*
X167018005Y-98742212D01*
X166994851Y-98704149D01*
X166976099Y-98649536D01*
X166966715Y-98580369D01*
X166966643Y-98505407D01*
X166975824Y-98433409D01*
X166994199Y-98373137D01*
X166997093Y-98366958D01*
X167039952Y-98306351D01*
X167097979Y-98262224D01*
X167166591Y-98235493D01*
X167241201Y-98227073D01*
X167317226Y-98237880D01*
G36*
X166093367Y-98428342D02*
G01*
X166094555Y-98520563D01*
X166098897Y-98590610D01*
X166107558Y-98641381D01*
X166121704Y-98675772D01*
X166142500Y-98696679D01*
X166171110Y-98707000D01*
X166206535Y-98709636D01*
X166243636Y-98706682D01*
X166271818Y-98695889D01*
X166292243Y-98674360D01*
X166306079Y-98639199D01*
X166314491Y-98587510D01*
X166318643Y-98516394D01*
X166319703Y-98428342D01*
X166319703Y-98232614D01*
X166458020Y-98232614D01*
X166458020Y-98836179D01*
X166388862Y-98836179D01*
X166347170Y-98834489D01*
X166325701Y-98828556D01*
X166319703Y-98817293D01*
X166316091Y-98807261D01*
X166301714Y-98809383D01*
X166272736Y-98823580D01*
X166206319Y-98845480D01*
X166135875Y-98843928D01*
X166068377Y-98820147D01*
X166036233Y-98801362D01*
X166011715Y-98781022D01*
X165993804Y-98755573D01*
X165981479Y-98721458D01*
X165973723Y-98675121D01*
X165969516Y-98613007D01*
X165967840Y-98531561D01*
X165967624Y-98468578D01*
X165967624Y-98232614D01*
X166093367Y-98232614D01*
X166093367Y-98428342D01*
X166093367Y-98428342D01*
G37*
X166093367Y-98428342D02*
X166094555Y-98520563D01*
X166098897Y-98590610D01*
X166107558Y-98641381D01*
X166121704Y-98675772D01*
X166142500Y-98696679D01*
X166171110Y-98707000D01*
X166206535Y-98709636D01*
X166243636Y-98706682D01*
X166271818Y-98695889D01*
X166292243Y-98674360D01*
X166306079Y-98639199D01*
X166314491Y-98587510D01*
X166318643Y-98516394D01*
X166319703Y-98428342D01*
X166319703Y-98232614D01*
X166458020Y-98232614D01*
X166458020Y-98836179D01*
X166388862Y-98836179D01*
X166347170Y-98834489D01*
X166325701Y-98828556D01*
X166319703Y-98817293D01*
X166316091Y-98807261D01*
X166301714Y-98809383D01*
X166272736Y-98823580D01*
X166206319Y-98845480D01*
X166135875Y-98843928D01*
X166068377Y-98820147D01*
X166036233Y-98801362D01*
X166011715Y-98781022D01*
X165993804Y-98755573D01*
X165981479Y-98721458D01*
X165973723Y-98675121D01*
X165969516Y-98613007D01*
X165967840Y-98531561D01*
X165967624Y-98468578D01*
X165967624Y-98232614D01*
X166093367Y-98232614D01*
X166093367Y-98428342D01*
G36*
X165710762Y-98240055D02*
G01*
X165774363Y-98274692D01*
X165824123Y-98329372D01*
X165847568Y-98373842D01*
X165857634Y-98413121D01*
X165864156Y-98469116D01*
X165866951Y-98533621D01*
X165865836Y-98598429D01*
X165860626Y-98655334D01*
X165854541Y-98685727D01*
X165834014Y-98727306D01*
X165798463Y-98771468D01*
X165755619Y-98810087D01*
X165713211Y-98835034D01*
X165712177Y-98835430D01*
X165659553Y-98846331D01*
X165597188Y-98846601D01*
X165537924Y-98836676D01*
X165515040Y-98828722D01*
X165456102Y-98795300D01*
X165413890Y-98751511D01*
X165386156Y-98693538D01*
X165370651Y-98617565D01*
X165367143Y-98577771D01*
X165367590Y-98527766D01*
X165502376Y-98527766D01*
X165506917Y-98600732D01*
X165519986Y-98656334D01*
X165540756Y-98691861D01*
X165555552Y-98702020D01*
X165593464Y-98709104D01*
X165638527Y-98707007D01*
X165677487Y-98696812D01*
X165687704Y-98691204D01*
X165714659Y-98658538D01*
X165732451Y-98608545D01*
X165740024Y-98547705D01*
X165736325Y-98482497D01*
X165728057Y-98443253D01*
X165704320Y-98397805D01*
X165666849Y-98369396D01*
X165621720Y-98359573D01*
X165575011Y-98369887D01*
X165539132Y-98395112D01*
X165520277Y-98415925D01*
X165509272Y-98436439D01*
X165504026Y-98464203D01*
X165502449Y-98506762D01*
X165502376Y-98527766D01*
X165367590Y-98527766D01*
X165368094Y-98471580D01*
X165385388Y-98384501D01*
X165419029Y-98316530D01*
X165469018Y-98267664D01*
X165535356Y-98237899D01*
X165549601Y-98234448D01*
X165635210Y-98226345D01*
X165710762Y-98240055D01*
X165710762Y-98240055D01*
G37*
X165710762Y-98240055D02*
X165774363Y-98274692D01*
X165824123Y-98329372D01*
X165847568Y-98373842D01*
X165857634Y-98413121D01*
X165864156Y-98469116D01*
X165866951Y-98533621D01*
X165865836Y-98598429D01*
X165860626Y-98655334D01*
X165854541Y-98685727D01*
X165834014Y-98727306D01*
X165798463Y-98771468D01*
X165755619Y-98810087D01*
X165713211Y-98835034D01*
X165712177Y-98835430D01*
X165659553Y-98846331D01*
X165597188Y-98846601D01*
X165537924Y-98836676D01*
X165515040Y-98828722D01*
X165456102Y-98795300D01*
X165413890Y-98751511D01*
X165386156Y-98693538D01*
X165370651Y-98617565D01*
X165367143Y-98577771D01*
X165367590Y-98527766D01*
X165502376Y-98527766D01*
X165506917Y-98600732D01*
X165519986Y-98656334D01*
X165540756Y-98691861D01*
X165555552Y-98702020D01*
X165593464Y-98709104D01*
X165638527Y-98707007D01*
X165677487Y-98696812D01*
X165687704Y-98691204D01*
X165714659Y-98658538D01*
X165732451Y-98608545D01*
X165740024Y-98547705D01*
X165736325Y-98482497D01*
X165728057Y-98443253D01*
X165704320Y-98397805D01*
X165666849Y-98369396D01*
X165621720Y-98359573D01*
X165575011Y-98369887D01*
X165539132Y-98395112D01*
X165520277Y-98415925D01*
X165509272Y-98436439D01*
X165504026Y-98464203D01*
X165502449Y-98506762D01*
X165502376Y-98527766D01*
X165367590Y-98527766D01*
X165368094Y-98471580D01*
X165385388Y-98384501D01*
X165419029Y-98316530D01*
X165469018Y-98267664D01*
X165535356Y-98237899D01*
X165549601Y-98234448D01*
X165635210Y-98226345D01*
X165710762Y-98240055D01*
G36*
X165114017Y-98230452D02*
G01*
X165161634Y-98239482D01*
X165211034Y-98258370D01*
X165216312Y-98260777D01*
X165253774Y-98280476D01*
X165279717Y-98298781D01*
X165288103Y-98310508D01*
X165280117Y-98329632D01*
X165260720Y-98357850D01*
X165252110Y-98368384D01*
X165216628Y-98409847D01*
X165170885Y-98382858D01*
X165127350Y-98364878D01*
X165077050Y-98355267D01*
X165028812Y-98354660D01*
X164991467Y-98363691D01*
X164982505Y-98369327D01*
X164965437Y-98395171D01*
X164963363Y-98424941D01*
X164976134Y-98448197D01*
X164983688Y-98452708D01*
X165006325Y-98458309D01*
X165046115Y-98464892D01*
X165095166Y-98471183D01*
X165104215Y-98472170D01*
X165182996Y-98485798D01*
X165240136Y-98508946D01*
X165278030Y-98543752D01*
X165299079Y-98592354D01*
X165305635Y-98651718D01*
X165296577Y-98719198D01*
X165267164Y-98772188D01*
X165217278Y-98810783D01*
X165146800Y-98835081D01*
X165068565Y-98844667D01*
X165004766Y-98844552D01*
X164953016Y-98835845D01*
X164917673Y-98823825D01*
X164873017Y-98802880D01*
X164831747Y-98778574D01*
X164817079Y-98767876D01*
X164779357Y-98737084D01*
X164824852Y-98691049D01*
X164870347Y-98645013D01*
X164922072Y-98679243D01*
X164973952Y-98704952D01*
X165029351Y-98718399D01*
X165082605Y-98719818D01*
X165128049Y-98709443D01*
X165160016Y-98687507D01*
X165170338Y-98668998D01*
X165168789Y-98639314D01*
X165143140Y-98616615D01*
X165093460Y-98600940D01*
X165039031Y-98593695D01*
X164955264Y-98579873D01*
X164893033Y-98553796D01*
X164851507Y-98514699D01*
X164829853Y-98461820D01*
X164826853Y-98399126D01*
X164841671Y-98333642D01*
X164875454Y-98284144D01*
X164928505Y-98250408D01*
X165001126Y-98232207D01*
X165054928Y-98228639D01*
X165114017Y-98230452D01*
X165114017Y-98230452D01*
G37*
X165114017Y-98230452D02*
X165161634Y-98239482D01*
X165211034Y-98258370D01*
X165216312Y-98260777D01*
X165253774Y-98280476D01*
X165279717Y-98298781D01*
X165288103Y-98310508D01*
X165280117Y-98329632D01*
X165260720Y-98357850D01*
X165252110Y-98368384D01*
X165216628Y-98409847D01*
X165170885Y-98382858D01*
X165127350Y-98364878D01*
X165077050Y-98355267D01*
X165028812Y-98354660D01*
X164991467Y-98363691D01*
X164982505Y-98369327D01*
X164965437Y-98395171D01*
X164963363Y-98424941D01*
X164976134Y-98448197D01*
X164983688Y-98452708D01*
X165006325Y-98458309D01*
X165046115Y-98464892D01*
X165095166Y-98471183D01*
X165104215Y-98472170D01*
X165182996Y-98485798D01*
X165240136Y-98508946D01*
X165278030Y-98543752D01*
X165299079Y-98592354D01*
X165305635Y-98651718D01*
X165296577Y-98719198D01*
X165267164Y-98772188D01*
X165217278Y-98810783D01*
X165146800Y-98835081D01*
X165068565Y-98844667D01*
X165004766Y-98844552D01*
X164953016Y-98835845D01*
X164917673Y-98823825D01*
X164873017Y-98802880D01*
X164831747Y-98778574D01*
X164817079Y-98767876D01*
X164779357Y-98737084D01*
X164824852Y-98691049D01*
X164870347Y-98645013D01*
X164922072Y-98679243D01*
X164973952Y-98704952D01*
X165029351Y-98718399D01*
X165082605Y-98719818D01*
X165128049Y-98709443D01*
X165160016Y-98687507D01*
X165170338Y-98668998D01*
X165168789Y-98639314D01*
X165143140Y-98616615D01*
X165093460Y-98600940D01*
X165039031Y-98593695D01*
X164955264Y-98579873D01*
X164893033Y-98553796D01*
X164851507Y-98514699D01*
X164829853Y-98461820D01*
X164826853Y-98399126D01*
X164841671Y-98333642D01*
X164875454Y-98284144D01*
X164928505Y-98250408D01*
X165001126Y-98232207D01*
X165054928Y-98228639D01*
X165114017Y-98230452D01*
G36*
X163743301Y-98246614D02*
G01*
X163755832Y-98252514D01*
X163799201Y-98284283D01*
X163840210Y-98330646D01*
X163870832Y-98381696D01*
X163879541Y-98405166D01*
X163887488Y-98447091D01*
X163892226Y-98497757D01*
X163892801Y-98518679D01*
X163892871Y-98584693D01*
X163512917Y-98584693D01*
X163521017Y-98619273D01*
X163540896Y-98660170D01*
X163575653Y-98695514D01*
X163617002Y-98718282D01*
X163643351Y-98723010D01*
X163679084Y-98717273D01*
X163721718Y-98702882D01*
X163736201Y-98696262D01*
X163789760Y-98669513D01*
X163835467Y-98704376D01*
X163861842Y-98727955D01*
X163875876Y-98747417D01*
X163876586Y-98753129D01*
X163864049Y-98766973D01*
X163836572Y-98788012D01*
X163811634Y-98804425D01*
X163744336Y-98833930D01*
X163668890Y-98847284D01*
X163594112Y-98843812D01*
X163534505Y-98825663D01*
X163473059Y-98786784D01*
X163429392Y-98735595D01*
X163402074Y-98669367D01*
X163389678Y-98585371D01*
X163388579Y-98546936D01*
X163392978Y-98458861D01*
X163393518Y-98456299D01*
X163519418Y-98456299D01*
X163522885Y-98464558D01*
X163537137Y-98469113D01*
X163566530Y-98471065D01*
X163615425Y-98471517D01*
X163634252Y-98471525D01*
X163691533Y-98470843D01*
X163727859Y-98468364D01*
X163747396Y-98463443D01*
X163754310Y-98455434D01*
X163754555Y-98452862D01*
X163746664Y-98432423D01*
X163726915Y-98403789D01*
X163718425Y-98393763D01*
X163686906Y-98365408D01*
X163654051Y-98354259D01*
X163636349Y-98353327D01*
X163588461Y-98364981D01*
X163548301Y-98396285D01*
X163522827Y-98441752D01*
X163522375Y-98443233D01*
X163519418Y-98456299D01*
X163393518Y-98456299D01*
X163407608Y-98389510D01*
X163433962Y-98334025D01*
X163466193Y-98294639D01*
X163525783Y-98251931D01*
X163595832Y-98229109D01*
X163670339Y-98227046D01*
X163743301Y-98246614D01*
X163743301Y-98246614D01*
G37*
X163743301Y-98246614D02*
X163755832Y-98252514D01*
X163799201Y-98284283D01*
X163840210Y-98330646D01*
X163870832Y-98381696D01*
X163879541Y-98405166D01*
X163887488Y-98447091D01*
X163892226Y-98497757D01*
X163892801Y-98518679D01*
X163892871Y-98584693D01*
X163512917Y-98584693D01*
X163521017Y-98619273D01*
X163540896Y-98660170D01*
X163575653Y-98695514D01*
X163617002Y-98718282D01*
X163643351Y-98723010D01*
X163679084Y-98717273D01*
X163721718Y-98702882D01*
X163736201Y-98696262D01*
X163789760Y-98669513D01*
X163835467Y-98704376D01*
X163861842Y-98727955D01*
X163875876Y-98747417D01*
X163876586Y-98753129D01*
X163864049Y-98766973D01*
X163836572Y-98788012D01*
X163811634Y-98804425D01*
X163744336Y-98833930D01*
X163668890Y-98847284D01*
X163594112Y-98843812D01*
X163534505Y-98825663D01*
X163473059Y-98786784D01*
X163429392Y-98735595D01*
X163402074Y-98669367D01*
X163389678Y-98585371D01*
X163388579Y-98546936D01*
X163392978Y-98458861D01*
X163393518Y-98456299D01*
X163519418Y-98456299D01*
X163522885Y-98464558D01*
X163537137Y-98469113D01*
X163566530Y-98471065D01*
X163615425Y-98471517D01*
X163634252Y-98471525D01*
X163691533Y-98470843D01*
X163727859Y-98468364D01*
X163747396Y-98463443D01*
X163754310Y-98455434D01*
X163754555Y-98452862D01*
X163746664Y-98432423D01*
X163726915Y-98403789D01*
X163718425Y-98393763D01*
X163686906Y-98365408D01*
X163654051Y-98354259D01*
X163636349Y-98353327D01*
X163588461Y-98364981D01*
X163548301Y-98396285D01*
X163522827Y-98441752D01*
X163522375Y-98443233D01*
X163519418Y-98456299D01*
X163393518Y-98456299D01*
X163407608Y-98389510D01*
X163433962Y-98334025D01*
X163466193Y-98294639D01*
X163525783Y-98251931D01*
X163595832Y-98229109D01*
X163670339Y-98227046D01*
X163743301Y-98246614D01*
G36*
X162561739Y-98239148D02*
G01*
X162627521Y-98268231D01*
X162677460Y-98316793D01*
X162711626Y-98384908D01*
X162730093Y-98472651D01*
X162731417Y-98486351D01*
X162732454Y-98582939D01*
X162719007Y-98667602D01*
X162691892Y-98736221D01*
X162677373Y-98758294D01*
X162626799Y-98805011D01*
X162562391Y-98835268D01*
X162490334Y-98847824D01*
X162416815Y-98841439D01*
X162360928Y-98821772D01*
X162312868Y-98788629D01*
X162273588Y-98745175D01*
X162272908Y-98744158D01*
X162256956Y-98717338D01*
X162246590Y-98690368D01*
X162240312Y-98656332D01*
X162236627Y-98608310D01*
X162235003Y-98568931D01*
X162234328Y-98533219D01*
X162360045Y-98533219D01*
X162361274Y-98568770D01*
X162365734Y-98616094D01*
X162373603Y-98646465D01*
X162387793Y-98668072D01*
X162401083Y-98680694D01*
X162448198Y-98707122D01*
X162497495Y-98710653D01*
X162543407Y-98691639D01*
X162566362Y-98670331D01*
X162582904Y-98648859D01*
X162592579Y-98628313D01*
X162596826Y-98601574D01*
X162597080Y-98561523D01*
X162595772Y-98524638D01*
X162592957Y-98471947D01*
X162588495Y-98437772D01*
X162580452Y-98415480D01*
X162566897Y-98398442D01*
X162556155Y-98388703D01*
X162511223Y-98363123D01*
X162462751Y-98361847D01*
X162422106Y-98376999D01*
X162387433Y-98408642D01*
X162366776Y-98460620D01*
X162360045Y-98533219D01*
X162234328Y-98533219D01*
X162233521Y-98490621D01*
X162236052Y-98432056D01*
X162243638Y-98388007D01*
X162257319Y-98353248D01*
X162278135Y-98322551D01*
X162285853Y-98313436D01*
X162334111Y-98268021D01*
X162385872Y-98241493D01*
X162449172Y-98230379D01*
X162480039Y-98229471D01*
X162561739Y-98239148D01*
X162561739Y-98239148D01*
G37*
X162561739Y-98239148D02*
X162627521Y-98268231D01*
X162677460Y-98316793D01*
X162711626Y-98384908D01*
X162730093Y-98472651D01*
X162731417Y-98486351D01*
X162732454Y-98582939D01*
X162719007Y-98667602D01*
X162691892Y-98736221D01*
X162677373Y-98758294D01*
X162626799Y-98805011D01*
X162562391Y-98835268D01*
X162490334Y-98847824D01*
X162416815Y-98841439D01*
X162360928Y-98821772D01*
X162312868Y-98788629D01*
X162273588Y-98745175D01*
X162272908Y-98744158D01*
X162256956Y-98717338D01*
X162246590Y-98690368D01*
X162240312Y-98656332D01*
X162236627Y-98608310D01*
X162235003Y-98568931D01*
X162234328Y-98533219D01*
X162360045Y-98533219D01*
X162361274Y-98568770D01*
X162365734Y-98616094D01*
X162373603Y-98646465D01*
X162387793Y-98668072D01*
X162401083Y-98680694D01*
X162448198Y-98707122D01*
X162497495Y-98710653D01*
X162543407Y-98691639D01*
X162566362Y-98670331D01*
X162582904Y-98648859D01*
X162592579Y-98628313D01*
X162596826Y-98601574D01*
X162597080Y-98561523D01*
X162595772Y-98524638D01*
X162592957Y-98471947D01*
X162588495Y-98437772D01*
X162580452Y-98415480D01*
X162566897Y-98398442D01*
X162556155Y-98388703D01*
X162511223Y-98363123D01*
X162462751Y-98361847D01*
X162422106Y-98376999D01*
X162387433Y-98408642D01*
X162366776Y-98460620D01*
X162360045Y-98533219D01*
X162234328Y-98533219D01*
X162233521Y-98490621D01*
X162236052Y-98432056D01*
X162243638Y-98388007D01*
X162257319Y-98353248D01*
X162278135Y-98322551D01*
X162285853Y-98313436D01*
X162334111Y-98268021D01*
X162385872Y-98241493D01*
X162449172Y-98230379D01*
X162480039Y-98229471D01*
X162561739Y-98239148D01*
G36*
X167132581Y-99178970D02*
G01*
X167192685Y-99194597D01*
X167243021Y-99226848D01*
X167267393Y-99250940D01*
X167307345Y-99307895D01*
X167330242Y-99373965D01*
X167338108Y-99455182D01*
X167338148Y-99461748D01*
X167338218Y-99527763D01*
X166958264Y-99527763D01*
X166966363Y-99562342D01*
X166980987Y-99593659D01*
X167006581Y-99626291D01*
X167011935Y-99631500D01*
X167057943Y-99659694D01*
X167110410Y-99664475D01*
X167170803Y-99645926D01*
X167181040Y-99640931D01*
X167212439Y-99625745D01*
X167233470Y-99617094D01*
X167237139Y-99616293D01*
X167249948Y-99624063D01*
X167274378Y-99643072D01*
X167286779Y-99653460D01*
X167312476Y-99677321D01*
X167320915Y-99693077D01*
X167315058Y-99707571D01*
X167311928Y-99711534D01*
X167290725Y-99728879D01*
X167255738Y-99749959D01*
X167231337Y-99762265D01*
X167162072Y-99783946D01*
X167085388Y-99790971D01*
X167012765Y-99782647D01*
X166992426Y-99776686D01*
X166929476Y-99742952D01*
X166882815Y-99691045D01*
X166852173Y-99620459D01*
X166837282Y-99530692D01*
X166835647Y-99483753D01*
X166840421Y-99415413D01*
X166960990Y-99415413D01*
X166972652Y-99420465D01*
X167003998Y-99424429D01*
X167049571Y-99426768D01*
X167080446Y-99427169D01*
X167135981Y-99426783D01*
X167171033Y-99424975D01*
X167190262Y-99420773D01*
X167198330Y-99413203D01*
X167199901Y-99402218D01*
X167189121Y-99368381D01*
X167161980Y-99334940D01*
X167126277Y-99309272D01*
X167090560Y-99298772D01*
X167042048Y-99308086D01*
X167000053Y-99335013D01*
X166970936Y-99373827D01*
X166960990Y-99415413D01*
X166840421Y-99415413D01*
X166842599Y-99384236D01*
X166864055Y-99304949D01*
X166900470Y-99245263D01*
X166952297Y-99204549D01*
X167019990Y-99182179D01*
X167056662Y-99177871D01*
X167132581Y-99178970D01*
X167132581Y-99178970D01*
G37*
X167132581Y-99178970D02*
X167192685Y-99194597D01*
X167243021Y-99226848D01*
X167267393Y-99250940D01*
X167307345Y-99307895D01*
X167330242Y-99373965D01*
X167338108Y-99455182D01*
X167338148Y-99461748D01*
X167338218Y-99527763D01*
X166958264Y-99527763D01*
X166966363Y-99562342D01*
X166980987Y-99593659D01*
X167006581Y-99626291D01*
X167011935Y-99631500D01*
X167057943Y-99659694D01*
X167110410Y-99664475D01*
X167170803Y-99645926D01*
X167181040Y-99640931D01*
X167212439Y-99625745D01*
X167233470Y-99617094D01*
X167237139Y-99616293D01*
X167249948Y-99624063D01*
X167274378Y-99643072D01*
X167286779Y-99653460D01*
X167312476Y-99677321D01*
X167320915Y-99693077D01*
X167315058Y-99707571D01*
X167311928Y-99711534D01*
X167290725Y-99728879D01*
X167255738Y-99749959D01*
X167231337Y-99762265D01*
X167162072Y-99783946D01*
X167085388Y-99790971D01*
X167012765Y-99782647D01*
X166992426Y-99776686D01*
X166929476Y-99742952D01*
X166882815Y-99691045D01*
X166852173Y-99620459D01*
X166837282Y-99530692D01*
X166835647Y-99483753D01*
X166840421Y-99415413D01*
X166960990Y-99415413D01*
X166972652Y-99420465D01*
X167003998Y-99424429D01*
X167049571Y-99426768D01*
X167080446Y-99427169D01*
X167135981Y-99426783D01*
X167171033Y-99424975D01*
X167190262Y-99420773D01*
X167198330Y-99413203D01*
X167199901Y-99402218D01*
X167189121Y-99368381D01*
X167161980Y-99334940D01*
X167126277Y-99309272D01*
X167090560Y-99298772D01*
X167042048Y-99308086D01*
X167000053Y-99335013D01*
X166970936Y-99373827D01*
X166960990Y-99415413D01*
X166840421Y-99415413D01*
X166842599Y-99384236D01*
X166864055Y-99304949D01*
X166900470Y-99245263D01*
X166952297Y-99204549D01*
X167019990Y-99182179D01*
X167056662Y-99177871D01*
X167132581Y-99178970D01*
G36*
X166735255Y-99175486D02*
G01*
X166783595Y-99185015D01*
X166811114Y-99199125D01*
X166840064Y-99222568D01*
X166798876Y-99274571D01*
X166773482Y-99306064D01*
X166756238Y-99321428D01*
X166739102Y-99323776D01*
X166714027Y-99316217D01*
X166702257Y-99311941D01*
X166654270Y-99305631D01*
X166610324Y-99319156D01*
X166578060Y-99349710D01*
X166572819Y-99359452D01*
X166567112Y-99385258D01*
X166562706Y-99432817D01*
X166559811Y-99498758D01*
X166558631Y-99579710D01*
X166558614Y-99591226D01*
X166558614Y-99791822D01*
X166420297Y-99791822D01*
X166420297Y-99175683D01*
X166489456Y-99175683D01*
X166529333Y-99176725D01*
X166550107Y-99181358D01*
X166557789Y-99191849D01*
X166558614Y-99201745D01*
X166558614Y-99227806D01*
X166591745Y-99201745D01*
X166629735Y-99183965D01*
X166680770Y-99175174D01*
X166735255Y-99175486D01*
X166735255Y-99175486D01*
G37*
X166735255Y-99175486D02*
X166783595Y-99185015D01*
X166811114Y-99199125D01*
X166840064Y-99222568D01*
X166798876Y-99274571D01*
X166773482Y-99306064D01*
X166756238Y-99321428D01*
X166739102Y-99323776D01*
X166714027Y-99316217D01*
X166702257Y-99311941D01*
X166654270Y-99305631D01*
X166610324Y-99319156D01*
X166578060Y-99349710D01*
X166572819Y-99359452D01*
X166567112Y-99385258D01*
X166562706Y-99432817D01*
X166559811Y-99498758D01*
X166558631Y-99579710D01*
X166558614Y-99591226D01*
X166558614Y-99791822D01*
X166420297Y-99791822D01*
X166420297Y-99175683D01*
X166489456Y-99175683D01*
X166529333Y-99176725D01*
X166550107Y-99181358D01*
X166557789Y-99191849D01*
X166558614Y-99201745D01*
X166558614Y-99227806D01*
X166591745Y-99201745D01*
X166629735Y-99183965D01*
X166680770Y-99175174D01*
X166735255Y-99175486D01*
G36*
X166138411Y-99179417D02*
G01*
X166191411Y-99192290D01*
X166206731Y-99199110D01*
X166236428Y-99216974D01*
X166259220Y-99237093D01*
X166276083Y-99262962D01*
X166287998Y-99298073D01*
X166295942Y-99345920D01*
X166300894Y-99409996D01*
X166303831Y-99493794D01*
X166304947Y-99549768D01*
X166309052Y-99791822D01*
X166238932Y-99791822D01*
X166196393Y-99790038D01*
X166174476Y-99783942D01*
X166168812Y-99773706D01*
X166165821Y-99762637D01*
X166152451Y-99764754D01*
X166134233Y-99773629D01*
X166088624Y-99787233D01*
X166030007Y-99790899D01*
X165968354Y-99784903D01*
X165913638Y-99769521D01*
X165908730Y-99767386D01*
X165858723Y-99732255D01*
X165825756Y-99683419D01*
X165810587Y-99626333D01*
X165811746Y-99605824D01*
X165935508Y-99605824D01*
X165946413Y-99633425D01*
X165978745Y-99653204D01*
X166030910Y-99663819D01*
X166058787Y-99665228D01*
X166105247Y-99661620D01*
X166136129Y-99647597D01*
X166143664Y-99640931D01*
X166164076Y-99604666D01*
X166168812Y-99571773D01*
X166168812Y-99527763D01*
X166107513Y-99527763D01*
X166036256Y-99531395D01*
X165986276Y-99542818D01*
X165954696Y-99562824D01*
X165947626Y-99571743D01*
X165935508Y-99605824D01*
X165811746Y-99605824D01*
X165813971Y-99566456D01*
X165836663Y-99509244D01*
X165867624Y-99470580D01*
X165886376Y-99453864D01*
X165904733Y-99442878D01*
X165928619Y-99436180D01*
X165963957Y-99432326D01*
X166016669Y-99429873D01*
X166037577Y-99429168D01*
X166168812Y-99424879D01*
X166168620Y-99385158D01*
X166163537Y-99343405D01*
X166145162Y-99318158D01*
X166108039Y-99302030D01*
X166107043Y-99301742D01*
X166054410Y-99295400D01*
X166002906Y-99303684D01*
X165964630Y-99323827D01*
X165949272Y-99333773D01*
X165932730Y-99332397D01*
X165907275Y-99317987D01*
X165892328Y-99307817D01*
X165863091Y-99286088D01*
X165844980Y-99269800D01*
X165842074Y-99265137D01*
X165854040Y-99241005D01*
X165889396Y-99212185D01*
X165904753Y-99202461D01*
X165948901Y-99185714D01*
X166008398Y-99176227D01*
X166074487Y-99174095D01*
X166138411Y-99179417D01*
X166138411Y-99179417D01*
G37*
X166138411Y-99179417D02*
X166191411Y-99192290D01*
X166206731Y-99199110D01*
X166236428Y-99216974D01*
X166259220Y-99237093D01*
X166276083Y-99262962D01*
X166287998Y-99298073D01*
X166295942Y-99345920D01*
X166300894Y-99409996D01*
X166303831Y-99493794D01*
X166304947Y-99549768D01*
X166309052Y-99791822D01*
X166238932Y-99791822D01*
X166196393Y-99790038D01*
X166174476Y-99783942D01*
X166168812Y-99773706D01*
X166165821Y-99762637D01*
X166152451Y-99764754D01*
X166134233Y-99773629D01*
X166088624Y-99787233D01*
X166030007Y-99790899D01*
X165968354Y-99784903D01*
X165913638Y-99769521D01*
X165908730Y-99767386D01*
X165858723Y-99732255D01*
X165825756Y-99683419D01*
X165810587Y-99626333D01*
X165811746Y-99605824D01*
X165935508Y-99605824D01*
X165946413Y-99633425D01*
X165978745Y-99653204D01*
X166030910Y-99663819D01*
X166058787Y-99665228D01*
X166105247Y-99661620D01*
X166136129Y-99647597D01*
X166143664Y-99640931D01*
X166164076Y-99604666D01*
X166168812Y-99571773D01*
X166168812Y-99527763D01*
X166107513Y-99527763D01*
X166036256Y-99531395D01*
X165986276Y-99542818D01*
X165954696Y-99562824D01*
X165947626Y-99571743D01*
X165935508Y-99605824D01*
X165811746Y-99605824D01*
X165813971Y-99566456D01*
X165836663Y-99509244D01*
X165867624Y-99470580D01*
X165886376Y-99453864D01*
X165904733Y-99442878D01*
X165928619Y-99436180D01*
X165963957Y-99432326D01*
X166016669Y-99429873D01*
X166037577Y-99429168D01*
X166168812Y-99424879D01*
X166168620Y-99385158D01*
X166163537Y-99343405D01*
X166145162Y-99318158D01*
X166108039Y-99302030D01*
X166107043Y-99301742D01*
X166054410Y-99295400D01*
X166002906Y-99303684D01*
X165964630Y-99323827D01*
X165949272Y-99333773D01*
X165932730Y-99332397D01*
X165907275Y-99317987D01*
X165892328Y-99307817D01*
X165863091Y-99286088D01*
X165844980Y-99269800D01*
X165842074Y-99265137D01*
X165854040Y-99241005D01*
X165889396Y-99212185D01*
X165904753Y-99202461D01*
X165948901Y-99185714D01*
X166008398Y-99176227D01*
X166074487Y-99174095D01*
X166138411Y-99179417D01*
G36*
X165381524Y-99178237D02*
G01*
X165431255Y-99181971D01*
X165561291Y-99571773D01*
X165581678Y-99502614D01*
X165593946Y-99459874D01*
X165610085Y-99402115D01*
X165627512Y-99338625D01*
X165636726Y-99304570D01*
X165671388Y-99175683D01*
X165814391Y-99175683D01*
X165771646Y-99310857D01*
X165750596Y-99377342D01*
X165725167Y-99457539D01*
X165698610Y-99541193D01*
X165674902Y-99615782D01*
X165620902Y-99785535D01*
X165562598Y-99789328D01*
X165504295Y-99793122D01*
X165472679Y-99688734D01*
X165453182Y-99623889D01*
X165431904Y-99552400D01*
X165413308Y-99489263D01*
X165412574Y-99486750D01*
X165398684Y-99443969D01*
X165386429Y-99414779D01*
X165377846Y-99403741D01*
X165376082Y-99405018D01*
X165369891Y-99422130D01*
X165358128Y-99458787D01*
X165342225Y-99510378D01*
X165323614Y-99572294D01*
X165313543Y-99606352D01*
X165259007Y-99791822D01*
X165143264Y-99791822D01*
X165050737Y-99499471D01*
X165024744Y-99417462D01*
X165001066Y-99342987D01*
X164980820Y-99279544D01*
X164965126Y-99230632D01*
X164955102Y-99199749D01*
X164952055Y-99190726D01*
X164954467Y-99181487D01*
X164973408Y-99177441D01*
X165012823Y-99177846D01*
X165018993Y-99178152D01*
X165092086Y-99181971D01*
X165139957Y-99358010D01*
X165157553Y-99422211D01*
X165173277Y-99478649D01*
X165185746Y-99522422D01*
X165193574Y-99548630D01*
X165195020Y-99552903D01*
X165201014Y-99547990D01*
X165213101Y-99522532D01*
X165229893Y-99479997D01*
X165250003Y-99423850D01*
X165267003Y-99373130D01*
X165331794Y-99174504D01*
X165381524Y-99178237D01*
X165381524Y-99178237D01*
G37*
X165381524Y-99178237D02*
X165431255Y-99181971D01*
X165561291Y-99571773D01*
X165581678Y-99502614D01*
X165593946Y-99459874D01*
X165610085Y-99402115D01*
X165627512Y-99338625D01*
X165636726Y-99304570D01*
X165671388Y-99175683D01*
X165814391Y-99175683D01*
X165771646Y-99310857D01*
X165750596Y-99377342D01*
X165725167Y-99457539D01*
X165698610Y-99541193D01*
X165674902Y-99615782D01*
X165620902Y-99785535D01*
X165562598Y-99789328D01*
X165504295Y-99793122D01*
X165472679Y-99688734D01*
X165453182Y-99623889D01*
X165431904Y-99552400D01*
X165413308Y-99489263D01*
X165412574Y-99486750D01*
X165398684Y-99443969D01*
X165386429Y-99414779D01*
X165377846Y-99403741D01*
X165376082Y-99405018D01*
X165369891Y-99422130D01*
X165358128Y-99458787D01*
X165342225Y-99510378D01*
X165323614Y-99572294D01*
X165313543Y-99606352D01*
X165259007Y-99791822D01*
X165143264Y-99791822D01*
X165050737Y-99499471D01*
X165024744Y-99417462D01*
X165001066Y-99342987D01*
X164980820Y-99279544D01*
X164965126Y-99230632D01*
X164955102Y-99199749D01*
X164952055Y-99190726D01*
X164954467Y-99181487D01*
X164973408Y-99177441D01*
X165012823Y-99177846D01*
X165018993Y-99178152D01*
X165092086Y-99181971D01*
X165139957Y-99358010D01*
X165157553Y-99422211D01*
X165173277Y-99478649D01*
X165185746Y-99522422D01*
X165193574Y-99548630D01*
X165195020Y-99552903D01*
X165201014Y-99547990D01*
X165213101Y-99522532D01*
X165229893Y-99479997D01*
X165250003Y-99423850D01*
X165267003Y-99373130D01*
X165331794Y-99174504D01*
X165381524Y-99178237D01*
G36*
X164898812Y-99791822D02*
G01*
X164829654Y-99791822D01*
X164789512Y-99790645D01*
X164768606Y-99785772D01*
X164761078Y-99775186D01*
X164760495Y-99768029D01*
X164759226Y-99753676D01*
X164751221Y-99750923D01*
X164730185Y-99759771D01*
X164713827Y-99768029D01*
X164651023Y-99787597D01*
X164582752Y-99788729D01*
X164527248Y-99774135D01*
X164475562Y-99738877D01*
X164436162Y-99686835D01*
X164414587Y-99625450D01*
X164414038Y-99622018D01*
X164410833Y-99584571D01*
X164409239Y-99530813D01*
X164409367Y-99490155D01*
X164546721Y-99490155D01*
X164549903Y-99544194D01*
X164557141Y-99588735D01*
X164566940Y-99613888D01*
X164604011Y-99648260D01*
X164648026Y-99660582D01*
X164693416Y-99650618D01*
X164732203Y-99620895D01*
X164746892Y-99600905D01*
X164755481Y-99577050D01*
X164759504Y-99542230D01*
X164760495Y-99489930D01*
X164758722Y-99438139D01*
X164754037Y-99392634D01*
X164747397Y-99362181D01*
X164746290Y-99359452D01*
X164719509Y-99327000D01*
X164680421Y-99309183D01*
X164636685Y-99306306D01*
X164595962Y-99318674D01*
X164565913Y-99346593D01*
X164562796Y-99352148D01*
X164553039Y-99386022D01*
X164547723Y-99434728D01*
X164546721Y-99490155D01*
X164409367Y-99490155D01*
X164409432Y-99469540D01*
X164410336Y-99436563D01*
X164416486Y-99354981D01*
X164429267Y-99293730D01*
X164450529Y-99248449D01*
X164482122Y-99214779D01*
X164512793Y-99195014D01*
X164555646Y-99181120D01*
X164608944Y-99176354D01*
X164663520Y-99180236D01*
X164710208Y-99192282D01*
X164734876Y-99206693D01*
X164760495Y-99229878D01*
X164760495Y-98936773D01*
X164898812Y-98936773D01*
X164898812Y-99791822D01*
X164898812Y-99791822D01*
G37*
X164898812Y-99791822D02*
X164829654Y-99791822D01*
X164789512Y-99790645D01*
X164768606Y-99785772D01*
X164761078Y-99775186D01*
X164760495Y-99768029D01*
X164759226Y-99753676D01*
X164751221Y-99750923D01*
X164730185Y-99759771D01*
X164713827Y-99768029D01*
X164651023Y-99787597D01*
X164582752Y-99788729D01*
X164527248Y-99774135D01*
X164475562Y-99738877D01*
X164436162Y-99686835D01*
X164414587Y-99625450D01*
X164414038Y-99622018D01*
X164410833Y-99584571D01*
X164409239Y-99530813D01*
X164409367Y-99490155D01*
X164546721Y-99490155D01*
X164549903Y-99544194D01*
X164557141Y-99588735D01*
X164566940Y-99613888D01*
X164604011Y-99648260D01*
X164648026Y-99660582D01*
X164693416Y-99650618D01*
X164732203Y-99620895D01*
X164746892Y-99600905D01*
X164755481Y-99577050D01*
X164759504Y-99542230D01*
X164760495Y-99489930D01*
X164758722Y-99438139D01*
X164754037Y-99392634D01*
X164747397Y-99362181D01*
X164746290Y-99359452D01*
X164719509Y-99327000D01*
X164680421Y-99309183D01*
X164636685Y-99306306D01*
X164595962Y-99318674D01*
X164565913Y-99346593D01*
X164562796Y-99352148D01*
X164553039Y-99386022D01*
X164547723Y-99434728D01*
X164546721Y-99490155D01*
X164409367Y-99490155D01*
X164409432Y-99469540D01*
X164410336Y-99436563D01*
X164416486Y-99354981D01*
X164429267Y-99293730D01*
X164450529Y-99248449D01*
X164482122Y-99214779D01*
X164512793Y-99195014D01*
X164555646Y-99181120D01*
X164608944Y-99176354D01*
X164663520Y-99180236D01*
X164710208Y-99192282D01*
X164734876Y-99206693D01*
X164760495Y-99229878D01*
X164760495Y-98936773D01*
X164898812Y-98936773D01*
X164898812Y-99791822D01*
G36*
X164106644Y-99177020D02*
G01*
X164125461Y-99182660D01*
X164131527Y-99195053D01*
X164131782Y-99200647D01*
X164132871Y-99216230D01*
X164140368Y-99218676D01*
X164160619Y-99207993D01*
X164172649Y-99200694D01*
X164210600Y-99185063D01*
X164255928Y-99177334D01*
X164303456Y-99176740D01*
X164348005Y-99182513D01*
X164384398Y-99193884D01*
X164407457Y-99210088D01*
X164412004Y-99230355D01*
X164409709Y-99235843D01*
X164392980Y-99258626D01*
X164367037Y-99286647D01*
X164362345Y-99291177D01*
X164337617Y-99312005D01*
X164316282Y-99318735D01*
X164286445Y-99314038D01*
X164274492Y-99310917D01*
X164237295Y-99303421D01*
X164211141Y-99306792D01*
X164189054Y-99318681D01*
X164168822Y-99334635D01*
X164153921Y-99354700D01*
X164143566Y-99382702D01*
X164136971Y-99422467D01*
X164133351Y-99477823D01*
X164131922Y-99552594D01*
X164131782Y-99597740D01*
X164131782Y-99791822D01*
X164006040Y-99791822D01*
X164006040Y-99175683D01*
X164068911Y-99175683D01*
X164106644Y-99177020D01*
X164106644Y-99177020D01*
G37*
X164106644Y-99177020D02*
X164125461Y-99182660D01*
X164131527Y-99195053D01*
X164131782Y-99200647D01*
X164132871Y-99216230D01*
X164140368Y-99218676D01*
X164160619Y-99207993D01*
X164172649Y-99200694D01*
X164210600Y-99185063D01*
X164255928Y-99177334D01*
X164303456Y-99176740D01*
X164348005Y-99182513D01*
X164384398Y-99193884D01*
X164407457Y-99210088D01*
X164412004Y-99230355D01*
X164409709Y-99235843D01*
X164392980Y-99258626D01*
X164367037Y-99286647D01*
X164362345Y-99291177D01*
X164337617Y-99312005D01*
X164316282Y-99318735D01*
X164286445Y-99314038D01*
X164274492Y-99310917D01*
X164237295Y-99303421D01*
X164211141Y-99306792D01*
X164189054Y-99318681D01*
X164168822Y-99334635D01*
X164153921Y-99354700D01*
X164143566Y-99382702D01*
X164136971Y-99422467D01*
X164133351Y-99477823D01*
X164131922Y-99552594D01*
X164131782Y-99597740D01*
X164131782Y-99791822D01*
X164006040Y-99791822D01*
X164006040Y-99175683D01*
X164068911Y-99175683D01*
X164106644Y-99177020D01*
G36*
X163715790Y-99180555D02*
G01*
X163774945Y-99196339D01*
X163819977Y-99224948D01*
X163851754Y-99262419D01*
X163861634Y-99278411D01*
X163868927Y-99295163D01*
X163874026Y-99316592D01*
X163877321Y-99346616D01*
X163879203Y-99389154D01*
X163880063Y-99448122D01*
X163880293Y-99527440D01*
X163880297Y-99548484D01*
X163880297Y-99791822D01*
X163819941Y-99791822D01*
X163781443Y-99789126D01*
X163752977Y-99782295D01*
X163745845Y-99778083D01*
X163726348Y-99770813D01*
X163706434Y-99778083D01*
X163673647Y-99787160D01*
X163626022Y-99790813D01*
X163573236Y-99789228D01*
X163524964Y-99782589D01*
X163496782Y-99774072D01*
X163442247Y-99739063D01*
X163408165Y-99690479D01*
X163392843Y-99625882D01*
X163392701Y-99624223D01*
X163394045Y-99595566D01*
X163515644Y-99595566D01*
X163526274Y-99628161D01*
X163543590Y-99646505D01*
X163578348Y-99660379D01*
X163624227Y-99665917D01*
X163671012Y-99663191D01*
X163708486Y-99652274D01*
X163718985Y-99645269D01*
X163737332Y-99612904D01*
X163741980Y-99576111D01*
X163741980Y-99527763D01*
X163672418Y-99527763D01*
X163606333Y-99532850D01*
X163556236Y-99547263D01*
X163525071Y-99569729D01*
X163515644Y-99595566D01*
X163394045Y-99595566D01*
X163396013Y-99553647D01*
X163419290Y-99497845D01*
X163463052Y-99455647D01*
X163469101Y-99451808D01*
X163495093Y-99439309D01*
X163527265Y-99431740D01*
X163572240Y-99428061D01*
X163625669Y-99427216D01*
X163741980Y-99427169D01*
X163741980Y-99378411D01*
X163737047Y-99340581D01*
X163724457Y-99315236D01*
X163722983Y-99313887D01*
X163694966Y-99302800D01*
X163652674Y-99298503D01*
X163605936Y-99300615D01*
X163564582Y-99308756D01*
X163540043Y-99320965D01*
X163526747Y-99330746D01*
X163512706Y-99332613D01*
X163493329Y-99324600D01*
X163464024Y-99304739D01*
X163420197Y-99271063D01*
X163416175Y-99267909D01*
X163418236Y-99256236D01*
X163435432Y-99236822D01*
X163461567Y-99215248D01*
X163490448Y-99197096D01*
X163499522Y-99192809D01*
X163532620Y-99184256D01*
X163581120Y-99178155D01*
X163635305Y-99175708D01*
X163637839Y-99175703D01*
X163715790Y-99180555D01*
X163715790Y-99180555D01*
G37*
X163715790Y-99180555D02*
X163774945Y-99196339D01*
X163819977Y-99224948D01*
X163851754Y-99262419D01*
X163861634Y-99278411D01*
X163868927Y-99295163D01*
X163874026Y-99316592D01*
X163877321Y-99346616D01*
X163879203Y-99389154D01*
X163880063Y-99448122D01*
X163880293Y-99527440D01*
X163880297Y-99548484D01*
X163880297Y-99791822D01*
X163819941Y-99791822D01*
X163781443Y-99789126D01*
X163752977Y-99782295D01*
X163745845Y-99778083D01*
X163726348Y-99770813D01*
X163706434Y-99778083D01*
X163673647Y-99787160D01*
X163626022Y-99790813D01*
X163573236Y-99789228D01*
X163524964Y-99782589D01*
X163496782Y-99774072D01*
X163442247Y-99739063D01*
X163408165Y-99690479D01*
X163392843Y-99625882D01*
X163392701Y-99624223D01*
X163394045Y-99595566D01*
X163515644Y-99595566D01*
X163526274Y-99628161D01*
X163543590Y-99646505D01*
X163578348Y-99660379D01*
X163624227Y-99665917D01*
X163671012Y-99663191D01*
X163708486Y-99652274D01*
X163718985Y-99645269D01*
X163737332Y-99612904D01*
X163741980Y-99576111D01*
X163741980Y-99527763D01*
X163672418Y-99527763D01*
X163606333Y-99532850D01*
X163556236Y-99547263D01*
X163525071Y-99569729D01*
X163515644Y-99595566D01*
X163394045Y-99595566D01*
X163396013Y-99553647D01*
X163419290Y-99497845D01*
X163463052Y-99455647D01*
X163469101Y-99451808D01*
X163495093Y-99439309D01*
X163527265Y-99431740D01*
X163572240Y-99428061D01*
X163625669Y-99427216D01*
X163741980Y-99427169D01*
X163741980Y-99378411D01*
X163737047Y-99340581D01*
X163724457Y-99315236D01*
X163722983Y-99313887D01*
X163694966Y-99302800D01*
X163652674Y-99298503D01*
X163605936Y-99300615D01*
X163564582Y-99308756D01*
X163540043Y-99320965D01*
X163526747Y-99330746D01*
X163512706Y-99332613D01*
X163493329Y-99324600D01*
X163464024Y-99304739D01*
X163420197Y-99271063D01*
X163416175Y-99267909D01*
X163418236Y-99256236D01*
X163435432Y-99236822D01*
X163461567Y-99215248D01*
X163490448Y-99197096D01*
X163499522Y-99192809D01*
X163532620Y-99184256D01*
X163581120Y-99178155D01*
X163635305Y-99175708D01*
X163637839Y-99175703D01*
X163715790Y-99180555D01*
G36*
X163191241Y-98243184D02*
G01*
X163217753Y-98256282D01*
X163250447Y-98279106D01*
X163274275Y-98303996D01*
X163290594Y-98335249D01*
X163300760Y-98377166D01*
X163306128Y-98434044D01*
X163308056Y-98510184D01*
X163308169Y-98542917D01*
X163307839Y-98614656D01*
X163306473Y-98665927D01*
X163303500Y-98701404D01*
X163298351Y-98725763D01*
X163290457Y-98743680D01*
X163282243Y-98755902D01*
X163229813Y-98807905D01*
X163168070Y-98839184D01*
X163101464Y-98848592D01*
X163034442Y-98834980D01*
X163013208Y-98825354D01*
X162962376Y-98798859D01*
X162962376Y-99214052D01*
X162999475Y-99194868D01*
X163048357Y-99180025D01*
X163108439Y-99176222D01*
X163168436Y-99183243D01*
X163213744Y-99199013D01*
X163251325Y-99229047D01*
X163283436Y-99272024D01*
X163285850Y-99276436D01*
X163296033Y-99297221D01*
X163303470Y-99318170D01*
X163308589Y-99343548D01*
X163311819Y-99377618D01*
X163313587Y-99424641D01*
X163314323Y-99488882D01*
X163314456Y-99561176D01*
X163314456Y-99791822D01*
X163176139Y-99791822D01*
X163176139Y-99366533D01*
X163137451Y-99333979D01*
X163097262Y-99307940D01*
X163059203Y-99303205D01*
X163020934Y-99315389D01*
X163000538Y-99327320D01*
X162985358Y-99344313D01*
X162974562Y-99369995D01*
X162967317Y-99407991D01*
X162962792Y-99461926D01*
X162960156Y-99535425D01*
X162959228Y-99584347D01*
X162956089Y-99785535D01*
X162890074Y-99789336D01*
X162824060Y-99793136D01*
X162824060Y-98544650D01*
X162962376Y-98544650D01*
X162965903Y-98614254D01*
X162977785Y-98662569D01*
X162999980Y-98692631D01*
X163034441Y-98707471D01*
X163069258Y-98710436D01*
X163108671Y-98707028D01*
X163134829Y-98693617D01*
X163151186Y-98675896D01*
X163164063Y-98656835D01*
X163171728Y-98635601D01*
X163175139Y-98605849D01*
X163175251Y-98561236D01*
X163174103Y-98523880D01*
X163171468Y-98467604D01*
X163167544Y-98430658D01*
X163160937Y-98407223D01*
X163150251Y-98391480D01*
X163140167Y-98382380D01*
X163098030Y-98362537D01*
X163048160Y-98359332D01*
X163019524Y-98366168D01*
X162991172Y-98390464D01*
X162972391Y-98437728D01*
X162963288Y-98507624D01*
X162962376Y-98544650D01*
X162824060Y-98544650D01*
X162824060Y-98232614D01*
X162893218Y-98232614D01*
X162934740Y-98234256D01*
X162956162Y-98240087D01*
X162962374Y-98251461D01*
X162962376Y-98251798D01*
X162965258Y-98262938D01*
X162977970Y-98261673D01*
X163003243Y-98249433D01*
X163062131Y-98230707D01*
X163128385Y-98228739D01*
X163191241Y-98243184D01*
X163191241Y-98243184D01*
G37*
X163191241Y-98243184D02*
X163217753Y-98256282D01*
X163250447Y-98279106D01*
X163274275Y-98303996D01*
X163290594Y-98335249D01*
X163300760Y-98377166D01*
X163306128Y-98434044D01*
X163308056Y-98510184D01*
X163308169Y-98542917D01*
X163307839Y-98614656D01*
X163306473Y-98665927D01*
X163303500Y-98701404D01*
X163298351Y-98725763D01*
X163290457Y-98743680D01*
X163282243Y-98755902D01*
X163229813Y-98807905D01*
X163168070Y-98839184D01*
X163101464Y-98848592D01*
X163034442Y-98834980D01*
X163013208Y-98825354D01*
X162962376Y-98798859D01*
X162962376Y-99214052D01*
X162999475Y-99194868D01*
X163048357Y-99180025D01*
X163108439Y-99176222D01*
X163168436Y-99183243D01*
X163213744Y-99199013D01*
X163251325Y-99229047D01*
X163283436Y-99272024D01*
X163285850Y-99276436D01*
X163296033Y-99297221D01*
X163303470Y-99318170D01*
X163308589Y-99343548D01*
X163311819Y-99377618D01*
X163313587Y-99424641D01*
X163314323Y-99488882D01*
X163314456Y-99561176D01*
X163314456Y-99791822D01*
X163176139Y-99791822D01*
X163176139Y-99366533D01*
X163137451Y-99333979D01*
X163097262Y-99307940D01*
X163059203Y-99303205D01*
X163020934Y-99315389D01*
X163000538Y-99327320D01*
X162985358Y-99344313D01*
X162974562Y-99369995D01*
X162967317Y-99407991D01*
X162962792Y-99461926D01*
X162960156Y-99535425D01*
X162959228Y-99584347D01*
X162956089Y-99785535D01*
X162890074Y-99789336D01*
X162824060Y-99793136D01*
X162824060Y-98544650D01*
X162962376Y-98544650D01*
X162965903Y-98614254D01*
X162977785Y-98662569D01*
X162999980Y-98692631D01*
X163034441Y-98707471D01*
X163069258Y-98710436D01*
X163108671Y-98707028D01*
X163134829Y-98693617D01*
X163151186Y-98675896D01*
X163164063Y-98656835D01*
X163171728Y-98635601D01*
X163175139Y-98605849D01*
X163175251Y-98561236D01*
X163174103Y-98523880D01*
X163171468Y-98467604D01*
X163167544Y-98430658D01*
X163160937Y-98407223D01*
X163150251Y-98391480D01*
X163140167Y-98382380D01*
X163098030Y-98362537D01*
X163048160Y-98359332D01*
X163019524Y-98366168D01*
X162991172Y-98390464D01*
X162972391Y-98437728D01*
X162963288Y-98507624D01*
X162962376Y-98544650D01*
X162824060Y-98544650D01*
X162824060Y-98232614D01*
X162893218Y-98232614D01*
X162934740Y-98234256D01*
X162956162Y-98240087D01*
X162962374Y-98251461D01*
X162962376Y-98251798D01*
X162965258Y-98262938D01*
X162977970Y-98261673D01*
X163003243Y-98249433D01*
X163062131Y-98230707D01*
X163128385Y-98228739D01*
X163191241Y-98243184D01*
D10*
X108069142Y-85288380D02*
X107735809Y-84812190D01*
X107497714Y-85288380D02*
X107497714Y-84288380D01*
X107878666Y-84288380D01*
X107973904Y-84336000D01*
X108021523Y-84383619D01*
X108069142Y-84478857D01*
X108069142Y-84621714D01*
X108021523Y-84716952D01*
X107973904Y-84764571D01*
X107878666Y-84812190D01*
X107497714Y-84812190D01*
X109021523Y-85288380D02*
X108450095Y-85288380D01*
X108735809Y-85288380D02*
X108735809Y-84288380D01*
X108640571Y-84431238D01*
X108545333Y-84526476D01*
X108450095Y-84574095D01*
X109402476Y-84383619D02*
X109450095Y-84336000D01*
X109545333Y-84288380D01*
X109783428Y-84288380D01*
X109878666Y-84336000D01*
X109926285Y-84383619D01*
X109973904Y-84478857D01*
X109973904Y-84574095D01*
X109926285Y-84716952D01*
X109354857Y-85288380D01*
X109973904Y-85288380D01*
X108069142Y-81182380D02*
X107735809Y-80706190D01*
X107497714Y-81182380D02*
X107497714Y-80182380D01*
X107878666Y-80182380D01*
X107973904Y-80230000D01*
X108021523Y-80277619D01*
X108069142Y-80372857D01*
X108069142Y-80515714D01*
X108021523Y-80610952D01*
X107973904Y-80658571D01*
X107878666Y-80706190D01*
X107497714Y-80706190D01*
X109021523Y-81182380D02*
X108450095Y-81182380D01*
X108735809Y-81182380D02*
X108735809Y-80182380D01*
X108640571Y-80325238D01*
X108545333Y-80420476D01*
X108450095Y-80468095D01*
X109973904Y-81182380D02*
X109402476Y-81182380D01*
X109688190Y-81182380D02*
X109688190Y-80182380D01*
X109592952Y-80325238D01*
X109497714Y-80420476D01*
X109402476Y-80468095D01*
X112133142Y-90527142D02*
X112085523Y-90574761D01*
X111942666Y-90622380D01*
X111847428Y-90622380D01*
X111704571Y-90574761D01*
X111609333Y-90479523D01*
X111561714Y-90384285D01*
X111514095Y-90193809D01*
X111514095Y-90050952D01*
X111561714Y-89860476D01*
X111609333Y-89765238D01*
X111704571Y-89670000D01*
X111847428Y-89622380D01*
X111942666Y-89622380D01*
X112085523Y-89670000D01*
X112133142Y-89717619D01*
X113085523Y-90622380D02*
X112514095Y-90622380D01*
X112799809Y-90622380D02*
X112799809Y-89622380D01*
X112704571Y-89765238D01*
X112609333Y-89860476D01*
X112514095Y-89908095D01*
X113466476Y-89717619D02*
X113514095Y-89670000D01*
X113609333Y-89622380D01*
X113847428Y-89622380D01*
X113942666Y-89670000D01*
X113990285Y-89717619D01*
X114037904Y-89812857D01*
X114037904Y-89908095D01*
X113990285Y-90050952D01*
X113418857Y-90622380D01*
X114037904Y-90622380D01*
X173899142Y-78926666D02*
X173946761Y-78974285D01*
X173994380Y-79117142D01*
X173994380Y-79212380D01*
X173946761Y-79355238D01*
X173851523Y-79450476D01*
X173756285Y-79498095D01*
X173565809Y-79545714D01*
X173422952Y-79545714D01*
X173232476Y-79498095D01*
X173137238Y-79450476D01*
X173042000Y-79355238D01*
X172994380Y-79212380D01*
X172994380Y-79117142D01*
X173042000Y-78974285D01*
X173089619Y-78926666D01*
X173994380Y-77974285D02*
X173994380Y-78545714D01*
X173994380Y-78260000D02*
X172994380Y-78260000D01*
X173137238Y-78355238D01*
X173232476Y-78450476D01*
X173280095Y-78545714D01*
X126682666Y-102258761D02*
X126825523Y-102306380D01*
X127063619Y-102306380D01*
X127158857Y-102258761D01*
X127206476Y-102211142D01*
X127254095Y-102115904D01*
X127254095Y-102020666D01*
X127206476Y-101925428D01*
X127158857Y-101877809D01*
X127063619Y-101830190D01*
X126873142Y-101782571D01*
X126777904Y-101734952D01*
X126730285Y-101687333D01*
X126682666Y-101592095D01*
X126682666Y-101496857D01*
X126730285Y-101401619D01*
X126777904Y-101354000D01*
X126873142Y-101306380D01*
X127111238Y-101306380D01*
X127254095Y-101354000D01*
X127587428Y-101306380D02*
X127825523Y-102306380D01*
X128016000Y-101592095D01*
X128206476Y-102306380D01*
X128444571Y-101306380D01*
X128777904Y-101401619D02*
X128825523Y-101354000D01*
X128920761Y-101306380D01*
X129158857Y-101306380D01*
X129254095Y-101354000D01*
X129301714Y-101401619D01*
X129349333Y-101496857D01*
X129349333Y-101592095D01*
X129301714Y-101734952D01*
X128730285Y-102306380D01*
X129349333Y-102306380D01*
X126092380Y-86359904D02*
X126901904Y-86359904D01*
X126997142Y-86312285D01*
X127044761Y-86264666D01*
X127092380Y-86169428D01*
X127092380Y-85978952D01*
X127044761Y-85883714D01*
X126997142Y-85836095D01*
X126901904Y-85788476D01*
X126092380Y-85788476D01*
X126425714Y-84883714D02*
X127092380Y-84883714D01*
X126044761Y-85121809D02*
X126759047Y-85359904D01*
X126759047Y-84740857D01*
X111450380Y-74588666D02*
X110974190Y-74922000D01*
X111450380Y-75160095D02*
X110450380Y-75160095D01*
X110450380Y-74779142D01*
X110498000Y-74683904D01*
X110545619Y-74636285D01*
X110640857Y-74588666D01*
X110783714Y-74588666D01*
X110878952Y-74636285D01*
X110926571Y-74683904D01*
X110974190Y-74779142D01*
X110974190Y-75160095D01*
X111450380Y-74112476D02*
X111450380Y-73922000D01*
X111402761Y-73826761D01*
X111355142Y-73779142D01*
X111212285Y-73683904D01*
X111021809Y-73636285D01*
X110640857Y-73636285D01*
X110545619Y-73683904D01*
X110498000Y-73731523D01*
X110450380Y-73826761D01*
X110450380Y-74017238D01*
X110498000Y-74112476D01*
X110545619Y-74160095D01*
X110640857Y-74207714D01*
X110878952Y-74207714D01*
X110974190Y-74160095D01*
X111021809Y-74112476D01*
X111069428Y-74017238D01*
X111069428Y-73826761D01*
X111021809Y-73731523D01*
X110974190Y-73683904D01*
X110878952Y-73636285D01*
X121261142Y-78620857D02*
X121308761Y-78668476D01*
X121356380Y-78811333D01*
X121356380Y-78906571D01*
X121308761Y-79049428D01*
X121213523Y-79144666D01*
X121118285Y-79192285D01*
X120927809Y-79239904D01*
X120784952Y-79239904D01*
X120594476Y-79192285D01*
X120499238Y-79144666D01*
X120404000Y-79049428D01*
X120356380Y-78906571D01*
X120356380Y-78811333D01*
X120404000Y-78668476D01*
X120451619Y-78620857D01*
X121356380Y-77668476D02*
X121356380Y-78239904D01*
X121356380Y-77954190D02*
X120356380Y-77954190D01*
X120499238Y-78049428D01*
X120594476Y-78144666D01*
X120642095Y-78239904D01*
X120356380Y-77049428D02*
X120356380Y-76954190D01*
X120404000Y-76858952D01*
X120451619Y-76811333D01*
X120546857Y-76763714D01*
X120737333Y-76716095D01*
X120975428Y-76716095D01*
X121165904Y-76763714D01*
X121261142Y-76811333D01*
X121308761Y-76858952D01*
X121356380Y-76954190D01*
X121356380Y-77049428D01*
X121308761Y-77144666D01*
X121261142Y-77192285D01*
X121165904Y-77239904D01*
X120975428Y-77287523D01*
X120737333Y-77287523D01*
X120546857Y-77239904D01*
X120451619Y-77192285D01*
X120404000Y-77144666D01*
X120356380Y-77049428D01*
X123293142Y-91352666D02*
X123340761Y-91400285D01*
X123388380Y-91543142D01*
X123388380Y-91638380D01*
X123340761Y-91781238D01*
X123245523Y-91876476D01*
X123150285Y-91924095D01*
X122959809Y-91971714D01*
X122816952Y-91971714D01*
X122626476Y-91924095D01*
X122531238Y-91876476D01*
X122436000Y-91781238D01*
X122388380Y-91638380D01*
X122388380Y-91543142D01*
X122436000Y-91400285D01*
X122483619Y-91352666D01*
X122816952Y-90781238D02*
X122769333Y-90876476D01*
X122721714Y-90924095D01*
X122626476Y-90971714D01*
X122578857Y-90971714D01*
X122483619Y-90924095D01*
X122436000Y-90876476D01*
X122388380Y-90781238D01*
X122388380Y-90590761D01*
X122436000Y-90495523D01*
X122483619Y-90447904D01*
X122578857Y-90400285D01*
X122626476Y-90400285D01*
X122721714Y-90447904D01*
X122769333Y-90495523D01*
X122816952Y-90590761D01*
X122816952Y-90781238D01*
X122864571Y-90876476D01*
X122912190Y-90924095D01*
X123007428Y-90971714D01*
X123197904Y-90971714D01*
X123293142Y-90924095D01*
X123340761Y-90876476D01*
X123388380Y-90781238D01*
X123388380Y-90590761D01*
X123340761Y-90495523D01*
X123293142Y-90447904D01*
X123197904Y-90400285D01*
X123007428Y-90400285D01*
X122912190Y-90447904D01*
X122864571Y-90495523D01*
X122816952Y-90590761D01*
X107529333Y-77151142D02*
X107481714Y-77198761D01*
X107338857Y-77246380D01*
X107243619Y-77246380D01*
X107100761Y-77198761D01*
X107005523Y-77103523D01*
X106957904Y-77008285D01*
X106910285Y-76817809D01*
X106910285Y-76674952D01*
X106957904Y-76484476D01*
X107005523Y-76389238D01*
X107100761Y-76294000D01*
X107243619Y-76246380D01*
X107338857Y-76246380D01*
X107481714Y-76294000D01*
X107529333Y-76341619D01*
X107862666Y-76246380D02*
X108529333Y-76246380D01*
X108100761Y-77246380D01*
X99172380Y-83645333D02*
X99886666Y-83645333D01*
X100029523Y-83692952D01*
X100124761Y-83788190D01*
X100172380Y-83931047D01*
X100172380Y-84026285D01*
X99172380Y-83264380D02*
X99172380Y-82645333D01*
X99553333Y-82978666D01*
X99553333Y-82835809D01*
X99600952Y-82740571D01*
X99648571Y-82692952D01*
X99743809Y-82645333D01*
X99981904Y-82645333D01*
X100077142Y-82692952D01*
X100124761Y-82740571D01*
X100172380Y-82835809D01*
X100172380Y-83121523D01*
X100124761Y-83216761D01*
X100077142Y-83264380D01*
X139190380Y-75350666D02*
X138714190Y-75684000D01*
X139190380Y-75922095D02*
X138190380Y-75922095D01*
X138190380Y-75541142D01*
X138238000Y-75445904D01*
X138285619Y-75398285D01*
X138380857Y-75350666D01*
X138523714Y-75350666D01*
X138618952Y-75398285D01*
X138666571Y-75445904D01*
X138714190Y-75541142D01*
X138714190Y-75922095D01*
X138190380Y-74445904D02*
X138190380Y-74922095D01*
X138666571Y-74969714D01*
X138618952Y-74922095D01*
X138571333Y-74826857D01*
X138571333Y-74588761D01*
X138618952Y-74493523D01*
X138666571Y-74445904D01*
X138761809Y-74398285D01*
X138999904Y-74398285D01*
X139095142Y-74445904D01*
X139142761Y-74493523D01*
X139190380Y-74588761D01*
X139190380Y-74826857D01*
X139142761Y-74922095D01*
X139095142Y-74969714D01*
X142746380Y-75314666D02*
X142270190Y-75648000D01*
X142746380Y-75886095D02*
X141746380Y-75886095D01*
X141746380Y-75505142D01*
X141794000Y-75409904D01*
X141841619Y-75362285D01*
X141936857Y-75314666D01*
X142079714Y-75314666D01*
X142174952Y-75362285D01*
X142222571Y-75409904D01*
X142270190Y-75505142D01*
X142270190Y-75886095D01*
X142079714Y-74457523D02*
X142746380Y-74457523D01*
X141698761Y-74695619D02*
X142413047Y-74933714D01*
X142413047Y-74314666D01*
X146556380Y-75350666D02*
X146080190Y-75684000D01*
X146556380Y-75922095D02*
X145556380Y-75922095D01*
X145556380Y-75541142D01*
X145604000Y-75445904D01*
X145651619Y-75398285D01*
X145746857Y-75350666D01*
X145889714Y-75350666D01*
X145984952Y-75398285D01*
X146032571Y-75445904D01*
X146080190Y-75541142D01*
X146080190Y-75922095D01*
X145556380Y-75017333D02*
X145556380Y-74398285D01*
X145937333Y-74731619D01*
X145937333Y-74588761D01*
X145984952Y-74493523D01*
X146032571Y-74445904D01*
X146127809Y-74398285D01*
X146365904Y-74398285D01*
X146461142Y-74445904D01*
X146508761Y-74493523D01*
X146556380Y-74588761D01*
X146556380Y-74874476D01*
X146508761Y-74969714D01*
X146461142Y-75017333D01*
X130897333Y-72080380D02*
X130564000Y-71604190D01*
X130325904Y-72080380D02*
X130325904Y-71080380D01*
X130706857Y-71080380D01*
X130802095Y-71128000D01*
X130849714Y-71175619D01*
X130897333Y-71270857D01*
X130897333Y-71413714D01*
X130849714Y-71508952D01*
X130802095Y-71556571D01*
X130706857Y-71604190D01*
X130325904Y-71604190D01*
X131278285Y-71175619D02*
X131325904Y-71128000D01*
X131421142Y-71080380D01*
X131659238Y-71080380D01*
X131754476Y-71128000D01*
X131802095Y-71175619D01*
X131849714Y-71270857D01*
X131849714Y-71366095D01*
X131802095Y-71508952D01*
X131230666Y-72080380D01*
X131849714Y-72080380D01*
X134110380Y-75350666D02*
X133634190Y-75684000D01*
X134110380Y-75922095D02*
X133110380Y-75922095D01*
X133110380Y-75541142D01*
X133158000Y-75445904D01*
X133205619Y-75398285D01*
X133300857Y-75350666D01*
X133443714Y-75350666D01*
X133538952Y-75398285D01*
X133586571Y-75445904D01*
X133634190Y-75541142D01*
X133634190Y-75922095D01*
X134110380Y-74398285D02*
X134110380Y-74969714D01*
X134110380Y-74684000D02*
X133110380Y-74684000D01*
X133253238Y-74779238D01*
X133348476Y-74874476D01*
X133396095Y-74969714D01*
X110186380Y-68048095D02*
X109186380Y-68048095D01*
X109186380Y-67810000D01*
X109234000Y-67667142D01*
X109329238Y-67571904D01*
X109424476Y-67524285D01*
X109614952Y-67476666D01*
X109757809Y-67476666D01*
X109948285Y-67524285D01*
X110043523Y-67571904D01*
X110138761Y-67667142D01*
X110186380Y-67810000D01*
X110186380Y-68048095D01*
X109186380Y-66619523D02*
X109186380Y-66810000D01*
X109234000Y-66905238D01*
X109281619Y-66952857D01*
X109424476Y-67048095D01*
X109614952Y-67095714D01*
X109995904Y-67095714D01*
X110091142Y-67048095D01*
X110138761Y-67000476D01*
X110186380Y-66905238D01*
X110186380Y-66714761D01*
X110138761Y-66619523D01*
X110091142Y-66571904D01*
X109995904Y-66524285D01*
X109757809Y-66524285D01*
X109662571Y-66571904D01*
X109614952Y-66619523D01*
X109567333Y-66714761D01*
X109567333Y-66905238D01*
X109614952Y-67000476D01*
X109662571Y-67048095D01*
X109757809Y-67095714D01*
X114758380Y-68048095D02*
X113758380Y-68048095D01*
X113758380Y-67810000D01*
X113806000Y-67667142D01*
X113901238Y-67571904D01*
X113996476Y-67524285D01*
X114186952Y-67476666D01*
X114329809Y-67476666D01*
X114520285Y-67524285D01*
X114615523Y-67571904D01*
X114710761Y-67667142D01*
X114758380Y-67810000D01*
X114758380Y-68048095D01*
X113758380Y-66571904D02*
X113758380Y-67048095D01*
X114234571Y-67095714D01*
X114186952Y-67048095D01*
X114139333Y-66952857D01*
X114139333Y-66714761D01*
X114186952Y-66619523D01*
X114234571Y-66571904D01*
X114329809Y-66524285D01*
X114567904Y-66524285D01*
X114663142Y-66571904D01*
X114710761Y-66619523D01*
X114758380Y-66714761D01*
X114758380Y-66952857D01*
X114710761Y-67048095D01*
X114663142Y-67095714D01*
X142127333Y-86167142D02*
X142079714Y-86214761D01*
X141936857Y-86262380D01*
X141841619Y-86262380D01*
X141698761Y-86214761D01*
X141603523Y-86119523D01*
X141555904Y-86024285D01*
X141508285Y-85833809D01*
X141508285Y-85690952D01*
X141555904Y-85500476D01*
X141603523Y-85405238D01*
X141698761Y-85310000D01*
X141841619Y-85262380D01*
X141936857Y-85262380D01*
X142079714Y-85310000D01*
X142127333Y-85357619D01*
X142508285Y-85357619D02*
X142555904Y-85310000D01*
X142651142Y-85262380D01*
X142889238Y-85262380D01*
X142984476Y-85310000D01*
X143032095Y-85357619D01*
X143079714Y-85452857D01*
X143079714Y-85548095D01*
X143032095Y-85690952D01*
X142460666Y-86262380D01*
X143079714Y-86262380D01*
X148477333Y-86167142D02*
X148429714Y-86214761D01*
X148286857Y-86262380D01*
X148191619Y-86262380D01*
X148048761Y-86214761D01*
X147953523Y-86119523D01*
X147905904Y-86024285D01*
X147858285Y-85833809D01*
X147858285Y-85690952D01*
X147905904Y-85500476D01*
X147953523Y-85405238D01*
X148048761Y-85310000D01*
X148191619Y-85262380D01*
X148286857Y-85262380D01*
X148429714Y-85310000D01*
X148477333Y-85357619D01*
X148810666Y-85262380D02*
X149429714Y-85262380D01*
X149096380Y-85643333D01*
X149239238Y-85643333D01*
X149334476Y-85690952D01*
X149382095Y-85738571D01*
X149429714Y-85833809D01*
X149429714Y-86071904D01*
X149382095Y-86167142D01*
X149334476Y-86214761D01*
X149239238Y-86262380D01*
X148953523Y-86262380D01*
X148858285Y-86214761D01*
X148810666Y-86167142D01*
X136539333Y-90527142D02*
X136491714Y-90574761D01*
X136348857Y-90622380D01*
X136253619Y-90622380D01*
X136110761Y-90574761D01*
X136015523Y-90479523D01*
X135967904Y-90384285D01*
X135920285Y-90193809D01*
X135920285Y-90050952D01*
X135967904Y-89860476D01*
X136015523Y-89765238D01*
X136110761Y-89670000D01*
X136253619Y-89622380D01*
X136348857Y-89622380D01*
X136491714Y-89670000D01*
X136539333Y-89717619D01*
X137396476Y-89955714D02*
X137396476Y-90622380D01*
X137158380Y-89574761D02*
X136920285Y-90289047D01*
X137539333Y-90289047D01*
X142127333Y-90527142D02*
X142079714Y-90574761D01*
X141936857Y-90622380D01*
X141841619Y-90622380D01*
X141698761Y-90574761D01*
X141603523Y-90479523D01*
X141555904Y-90384285D01*
X141508285Y-90193809D01*
X141508285Y-90050952D01*
X141555904Y-89860476D01*
X141603523Y-89765238D01*
X141698761Y-89670000D01*
X141841619Y-89622380D01*
X141936857Y-89622380D01*
X142079714Y-89670000D01*
X142127333Y-89717619D01*
X143032095Y-89622380D02*
X142555904Y-89622380D01*
X142508285Y-90098571D01*
X142555904Y-90050952D01*
X142651142Y-90003333D01*
X142889238Y-90003333D01*
X142984476Y-90050952D01*
X143032095Y-90098571D01*
X143079714Y-90193809D01*
X143079714Y-90431904D01*
X143032095Y-90527142D01*
X142984476Y-90574761D01*
X142889238Y-90622380D01*
X142651142Y-90622380D01*
X142555904Y-90574761D01*
X142508285Y-90527142D01*
X145899142Y-91860666D02*
X145946761Y-91908285D01*
X145994380Y-92051142D01*
X145994380Y-92146380D01*
X145946761Y-92289238D01*
X145851523Y-92384476D01*
X145756285Y-92432095D01*
X145565809Y-92479714D01*
X145422952Y-92479714D01*
X145232476Y-92432095D01*
X145137238Y-92384476D01*
X145042000Y-92289238D01*
X144994380Y-92146380D01*
X144994380Y-92051142D01*
X145042000Y-91908285D01*
X145089619Y-91860666D01*
X144994380Y-91003523D02*
X144994380Y-91194000D01*
X145042000Y-91289238D01*
X145089619Y-91336857D01*
X145232476Y-91432095D01*
X145422952Y-91479714D01*
X145803904Y-91479714D01*
X145899142Y-91432095D01*
X145946761Y-91384476D01*
X145994380Y-91289238D01*
X145994380Y-91098761D01*
X145946761Y-91003523D01*
X145899142Y-90955904D01*
X145803904Y-90908285D01*
X145565809Y-90908285D01*
X145470571Y-90955904D01*
X145422952Y-91003523D01*
X145375333Y-91098761D01*
X145375333Y-91289238D01*
X145422952Y-91384476D01*
X145470571Y-91432095D01*
X145565809Y-91479714D01*
X129389142Y-78144666D02*
X129436761Y-78192285D01*
X129484380Y-78335142D01*
X129484380Y-78430380D01*
X129436761Y-78573238D01*
X129341523Y-78668476D01*
X129246285Y-78716095D01*
X129055809Y-78763714D01*
X128912952Y-78763714D01*
X128722476Y-78716095D01*
X128627238Y-78668476D01*
X128532000Y-78573238D01*
X128484380Y-78430380D01*
X128484380Y-78335142D01*
X128532000Y-78192285D01*
X128579619Y-78144666D01*
X129484380Y-77668476D02*
X129484380Y-77478000D01*
X129436761Y-77382761D01*
X129389142Y-77335142D01*
X129246285Y-77239904D01*
X129055809Y-77192285D01*
X128674857Y-77192285D01*
X128579619Y-77239904D01*
X128532000Y-77287523D01*
X128484380Y-77382761D01*
X128484380Y-77573238D01*
X128532000Y-77668476D01*
X128579619Y-77716095D01*
X128674857Y-77763714D01*
X128912952Y-77763714D01*
X129008190Y-77716095D01*
X129055809Y-77668476D01*
X129103428Y-77573238D01*
X129103428Y-77382761D01*
X129055809Y-77287523D01*
X129008190Y-77239904D01*
X128912952Y-77192285D01*
X125537142Y-78620857D02*
X125584761Y-78668476D01*
X125632380Y-78811333D01*
X125632380Y-78906571D01*
X125584761Y-79049428D01*
X125489523Y-79144666D01*
X125394285Y-79192285D01*
X125203809Y-79239904D01*
X125060952Y-79239904D01*
X124870476Y-79192285D01*
X124775238Y-79144666D01*
X124680000Y-79049428D01*
X124632380Y-78906571D01*
X124632380Y-78811333D01*
X124680000Y-78668476D01*
X124727619Y-78620857D01*
X125632380Y-77668476D02*
X125632380Y-78239904D01*
X125632380Y-77954190D02*
X124632380Y-77954190D01*
X124775238Y-78049428D01*
X124870476Y-78144666D01*
X124918095Y-78239904D01*
X125632380Y-76716095D02*
X125632380Y-77287523D01*
X125632380Y-77001809D02*
X124632380Y-77001809D01*
X124775238Y-77097047D01*
X124870476Y-77192285D01*
X124918095Y-77287523D01*
X150366380Y-80494095D02*
X149366380Y-80494095D01*
X149366380Y-80256000D01*
X149414000Y-80113142D01*
X149509238Y-80017904D01*
X149604476Y-79970285D01*
X149794952Y-79922666D01*
X149937809Y-79922666D01*
X150128285Y-79970285D01*
X150223523Y-80017904D01*
X150318761Y-80113142D01*
X150366380Y-80256000D01*
X150366380Y-80494095D01*
X150366380Y-78970285D02*
X150366380Y-79541714D01*
X150366380Y-79256000D02*
X149366380Y-79256000D01*
X149509238Y-79351238D01*
X149604476Y-79446476D01*
X149652095Y-79541714D01*
X154148380Y-76207904D02*
X153148380Y-76207904D01*
X154148380Y-75636476D02*
X153576952Y-76065047D01*
X153148380Y-75636476D02*
X153719809Y-76207904D01*
X152477904Y-72080380D02*
X152477904Y-71080380D01*
X152716000Y-71080380D01*
X152858857Y-71128000D01*
X152954095Y-71223238D01*
X153001714Y-71318476D01*
X153049333Y-71508952D01*
X153049333Y-71651809D01*
X153001714Y-71842285D01*
X152954095Y-71937523D01*
X152858857Y-72032761D01*
X152716000Y-72080380D01*
X152477904Y-72080380D01*
X153430285Y-71175619D02*
X153477904Y-71128000D01*
X153573142Y-71080380D01*
X153811238Y-71080380D01*
X153906476Y-71128000D01*
X153954095Y-71175619D01*
X154001714Y-71270857D01*
X154001714Y-71366095D01*
X153954095Y-71508952D01*
X153382666Y-72080380D01*
X154001714Y-72080380D01*
X144603904Y-72080380D02*
X144603904Y-71080380D01*
X144842000Y-71080380D01*
X144984857Y-71128000D01*
X145080095Y-71223238D01*
X145127714Y-71318476D01*
X145175333Y-71508952D01*
X145175333Y-71651809D01*
X145127714Y-71842285D01*
X145080095Y-71937523D01*
X144984857Y-72032761D01*
X144842000Y-72080380D01*
X144603904Y-72080380D01*
X145508666Y-71080380D02*
X146127714Y-71080380D01*
X145794380Y-71461333D01*
X145937238Y-71461333D01*
X146032476Y-71508952D01*
X146080095Y-71556571D01*
X146127714Y-71651809D01*
X146127714Y-71889904D01*
X146080095Y-71985142D01*
X146032476Y-72032761D01*
X145937238Y-72080380D01*
X145651523Y-72080380D01*
X145556285Y-72032761D01*
X145508666Y-71985142D01*
X136475904Y-72080380D02*
X136475904Y-71080380D01*
X136714000Y-71080380D01*
X136856857Y-71128000D01*
X136952095Y-71223238D01*
X136999714Y-71318476D01*
X137047333Y-71508952D01*
X137047333Y-71651809D01*
X136999714Y-71842285D01*
X136952095Y-71937523D01*
X136856857Y-72032761D01*
X136714000Y-72080380D01*
X136475904Y-72080380D01*
X137904476Y-71413714D02*
X137904476Y-72080380D01*
X137666380Y-71032761D02*
X137428285Y-71747047D01*
X138047333Y-71747047D01*
X175641142Y-87669666D02*
X176117333Y-87669666D01*
X175545904Y-87955380D02*
X175879238Y-86955380D01*
X176212571Y-87955380D01*
X176545904Y-87955380D02*
X176545904Y-86955380D01*
X177117333Y-87955380D01*
X177117333Y-86955380D01*
X177450666Y-86955380D02*
X178022095Y-86955380D01*
X177736380Y-87955380D02*
X177736380Y-86955380D01*
X159940666Y-72604380D02*
X159940666Y-73318666D01*
X159893047Y-73461523D01*
X159797809Y-73556761D01*
X159654952Y-73604380D01*
X159559714Y-73604380D01*
X160940666Y-73604380D02*
X160369238Y-73604380D01*
X160654952Y-73604380D02*
X160654952Y-72604380D01*
X160559714Y-72747238D01*
X160464476Y-72842476D01*
X160369238Y-72890095D01*
X150596666Y-107124380D02*
X150596666Y-107838666D01*
X150549047Y-107981523D01*
X150453809Y-108076761D01*
X150310952Y-108124380D01*
X150215714Y-108124380D01*
X151025238Y-107219619D02*
X151072857Y-107172000D01*
X151168095Y-107124380D01*
X151406190Y-107124380D01*
X151501428Y-107172000D01*
X151549047Y-107219619D01*
X151596666Y-107314857D01*
X151596666Y-107410095D01*
X151549047Y-107552952D01*
X150977619Y-108124380D01*
X151596666Y-108124380D01*
X115220761Y-102899619D02*
X115125523Y-102852000D01*
X115030285Y-102756761D01*
X114887428Y-102613904D01*
X114792190Y-102566285D01*
X114696952Y-102566285D01*
X114744571Y-102804380D02*
X114649333Y-102756761D01*
X114554095Y-102661523D01*
X114506476Y-102471047D01*
X114506476Y-102137714D01*
X114554095Y-101947238D01*
X114649333Y-101852000D01*
X114744571Y-101804380D01*
X114935047Y-101804380D01*
X115030285Y-101852000D01*
X115125523Y-101947238D01*
X115173142Y-102137714D01*
X115173142Y-102471047D01*
X115125523Y-102661523D01*
X115030285Y-102756761D01*
X114935047Y-102804380D01*
X114744571Y-102804380D01*
X116125523Y-102804380D02*
X115554095Y-102804380D01*
X115839809Y-102804380D02*
X115839809Y-101804380D01*
X115744571Y-101947238D01*
X115649333Y-102042476D01*
X115554095Y-102090095D01*
X105614380Y-67476666D02*
X105138190Y-67810000D01*
X105614380Y-68048095D02*
X104614380Y-68048095D01*
X104614380Y-67667142D01*
X104662000Y-67571904D01*
X104709619Y-67524285D01*
X104804857Y-67476666D01*
X104947714Y-67476666D01*
X105042952Y-67524285D01*
X105090571Y-67571904D01*
X105138190Y-67667142D01*
X105138190Y-68048095D01*
X104614380Y-66619523D02*
X104614380Y-66810000D01*
X104662000Y-66905238D01*
X104709619Y-66952857D01*
X104852476Y-67048095D01*
X105042952Y-67095714D01*
X105423904Y-67095714D01*
X105519142Y-67048095D01*
X105566761Y-67000476D01*
X105614380Y-66905238D01*
X105614380Y-66714761D01*
X105566761Y-66619523D01*
X105519142Y-66571904D01*
X105423904Y-66524285D01*
X105185809Y-66524285D01*
X105090571Y-66571904D01*
X105042952Y-66619523D01*
X104995333Y-66714761D01*
X104995333Y-66905238D01*
X105042952Y-67000476D01*
X105090571Y-67048095D01*
X105185809Y-67095714D01*
X126325333Y-95194380D02*
X125992000Y-94718190D01*
X125753904Y-95194380D02*
X125753904Y-94194380D01*
X126134857Y-94194380D01*
X126230095Y-94242000D01*
X126277714Y-94289619D01*
X126325333Y-94384857D01*
X126325333Y-94527714D01*
X126277714Y-94622952D01*
X126230095Y-94670571D01*
X126134857Y-94718190D01*
X125753904Y-94718190D01*
X126658666Y-94194380D02*
X127325333Y-94194380D01*
X126896761Y-95194380D01*
X115472380Y-74588666D02*
X114996190Y-74922000D01*
X115472380Y-75160095D02*
X114472380Y-75160095D01*
X114472380Y-74779142D01*
X114520000Y-74683904D01*
X114567619Y-74636285D01*
X114662857Y-74588666D01*
X114805714Y-74588666D01*
X114900952Y-74636285D01*
X114948571Y-74683904D01*
X114996190Y-74779142D01*
X114996190Y-75160095D01*
X114900952Y-74017238D02*
X114853333Y-74112476D01*
X114805714Y-74160095D01*
X114710476Y-74207714D01*
X114662857Y-74207714D01*
X114567619Y-74160095D01*
X114520000Y-74112476D01*
X114472380Y-74017238D01*
X114472380Y-73826761D01*
X114520000Y-73731523D01*
X114567619Y-73683904D01*
X114662857Y-73636285D01*
X114710476Y-73636285D01*
X114805714Y-73683904D01*
X114853333Y-73731523D01*
X114900952Y-73826761D01*
X114900952Y-74017238D01*
X114948571Y-74112476D01*
X114996190Y-74160095D01*
X115091428Y-74207714D01*
X115281904Y-74207714D01*
X115377142Y-74160095D01*
X115424761Y-74112476D01*
X115472380Y-74017238D01*
X115472380Y-73826761D01*
X115424761Y-73731523D01*
X115377142Y-73683904D01*
X115281904Y-73636285D01*
X115091428Y-73636285D01*
X114996190Y-73683904D01*
X114948571Y-73731523D01*
X114900952Y-73826761D01*
X105529142Y-90622380D02*
X105195809Y-90146190D01*
X104957714Y-90622380D02*
X104957714Y-89622380D01*
X105338666Y-89622380D01*
X105433904Y-89670000D01*
X105481523Y-89717619D01*
X105529142Y-89812857D01*
X105529142Y-89955714D01*
X105481523Y-90050952D01*
X105433904Y-90098571D01*
X105338666Y-90146190D01*
X104957714Y-90146190D01*
X106481523Y-90622380D02*
X105910095Y-90622380D01*
X106195809Y-90622380D02*
X106195809Y-89622380D01*
X106100571Y-89765238D01*
X106005333Y-89860476D01*
X105910095Y-89908095D01*
X107100571Y-89622380D02*
X107195809Y-89622380D01*
X107291047Y-89670000D01*
X107338666Y-89717619D01*
X107386285Y-89812857D01*
X107433904Y-90003333D01*
X107433904Y-90241428D01*
X107386285Y-90431904D01*
X107338666Y-90527142D01*
X107291047Y-90574761D01*
X107195809Y-90622380D01*
X107100571Y-90622380D01*
X107005333Y-90574761D01*
X106957714Y-90527142D01*
X106910095Y-90431904D01*
X106862476Y-90241428D01*
X106862476Y-90003333D01*
X106910095Y-89812857D01*
X106957714Y-89717619D01*
X107005333Y-89670000D01*
X107100571Y-89622380D01*
X118737142Y-90622380D02*
X118403809Y-90146190D01*
X118165714Y-90622380D02*
X118165714Y-89622380D01*
X118546666Y-89622380D01*
X118641904Y-89670000D01*
X118689523Y-89717619D01*
X118737142Y-89812857D01*
X118737142Y-89955714D01*
X118689523Y-90050952D01*
X118641904Y-90098571D01*
X118546666Y-90146190D01*
X118165714Y-90146190D01*
X119689523Y-90622380D02*
X119118095Y-90622380D01*
X119403809Y-90622380D02*
X119403809Y-89622380D01*
X119308571Y-89765238D01*
X119213333Y-89860476D01*
X119118095Y-89908095D01*
X120022857Y-89622380D02*
X120641904Y-89622380D01*
X120308571Y-90003333D01*
X120451428Y-90003333D01*
X120546666Y-90050952D01*
X120594285Y-90098571D01*
X120641904Y-90193809D01*
X120641904Y-90431904D01*
X120594285Y-90527142D01*
X120546666Y-90574761D01*
X120451428Y-90622380D01*
X120165714Y-90622380D01*
X120070476Y-90574761D01*
X120022857Y-90527142D01*
X117721142Y-95702380D02*
X117387809Y-95226190D01*
X117149714Y-95702380D02*
X117149714Y-94702380D01*
X117530666Y-94702380D01*
X117625904Y-94750000D01*
X117673523Y-94797619D01*
X117721142Y-94892857D01*
X117721142Y-95035714D01*
X117673523Y-95130952D01*
X117625904Y-95178571D01*
X117530666Y-95226190D01*
X117149714Y-95226190D01*
X118673523Y-95702380D02*
X118102095Y-95702380D01*
X118387809Y-95702380D02*
X118387809Y-94702380D01*
X118292571Y-94845238D01*
X118197333Y-94940476D01*
X118102095Y-94988095D01*
X119530666Y-95035714D02*
X119530666Y-95702380D01*
X119292571Y-94654761D02*
X119054476Y-95369047D01*
X119673523Y-95369047D01*
X122836666Y-70468761D02*
X122979523Y-70516380D01*
X123217619Y-70516380D01*
X123312857Y-70468761D01*
X123360476Y-70421142D01*
X123408095Y-70325904D01*
X123408095Y-70230666D01*
X123360476Y-70135428D01*
X123312857Y-70087809D01*
X123217619Y-70040190D01*
X123027142Y-69992571D01*
X122931904Y-69944952D01*
X122884285Y-69897333D01*
X122836666Y-69802095D01*
X122836666Y-69706857D01*
X122884285Y-69611619D01*
X122931904Y-69564000D01*
X123027142Y-69516380D01*
X123265238Y-69516380D01*
X123408095Y-69564000D01*
X123741428Y-69516380D02*
X123979523Y-70516380D01*
X124170000Y-69802095D01*
X124360476Y-70516380D01*
X124598571Y-69516380D01*
X125503333Y-70516380D02*
X124931904Y-70516380D01*
X125217619Y-70516380D02*
X125217619Y-69516380D01*
X125122380Y-69659238D01*
X125027142Y-69754476D01*
X124931904Y-69802095D01*
X168910095Y-76414380D02*
X168910095Y-77223904D01*
X168957714Y-77319142D01*
X169005333Y-77366761D01*
X169100571Y-77414380D01*
X169291047Y-77414380D01*
X169386285Y-77366761D01*
X169433904Y-77319142D01*
X169481523Y-77223904D01*
X169481523Y-76414380D01*
X170481523Y-77414380D02*
X169910095Y-77414380D01*
X170195809Y-77414380D02*
X170195809Y-76414380D01*
X170100571Y-76557238D01*
X170005333Y-76652476D01*
X169910095Y-76700095D01*
D13*
X163982476Y-102431904D02*
X163982476Y-103079523D01*
X164020571Y-103155714D01*
X164058666Y-103193809D01*
X164134857Y-103231904D01*
X164287238Y-103231904D01*
X164363428Y-103193809D01*
X164401523Y-103155714D01*
X164439619Y-103079523D01*
X164439619Y-102431904D01*
X164782476Y-102508095D02*
X164820571Y-102470000D01*
X164896761Y-102431904D01*
X165087238Y-102431904D01*
X165163428Y-102470000D01*
X165201523Y-102508095D01*
X165239619Y-102584285D01*
X165239619Y-102660476D01*
X165201523Y-102774761D01*
X164744380Y-103231904D01*
X165239619Y-103231904D01*
D10*
X140716095Y-99782380D02*
X140716095Y-100591904D01*
X140763714Y-100687142D01*
X140811333Y-100734761D01*
X140906571Y-100782380D01*
X141097047Y-100782380D01*
X141192285Y-100734761D01*
X141239904Y-100687142D01*
X141287523Y-100591904D01*
X141287523Y-99782380D01*
X141668476Y-99782380D02*
X142287523Y-99782380D01*
X141954190Y-100163333D01*
X142097047Y-100163333D01*
X142192285Y-100210952D01*
X142239904Y-100258571D01*
X142287523Y-100353809D01*
X142287523Y-100591904D01*
X142239904Y-100687142D01*
X142192285Y-100734761D01*
X142097047Y-100782380D01*
X141811333Y-100782380D01*
X141716095Y-100734761D01*
X141668476Y-100687142D01*
X112638380Y-83057904D02*
X113447904Y-83057904D01*
X113543142Y-83010285D01*
X113590761Y-82962666D01*
X113638380Y-82867428D01*
X113638380Y-82676952D01*
X113590761Y-82581714D01*
X113543142Y-82534095D01*
X113447904Y-82486476D01*
X112638380Y-82486476D01*
X112638380Y-81534095D02*
X112638380Y-82010285D01*
X113114571Y-82057904D01*
X113066952Y-82010285D01*
X113019333Y-81915047D01*
X113019333Y-81676952D01*
X113066952Y-81581714D01*
X113114571Y-81534095D01*
X113209809Y-81486476D01*
X113447904Y-81486476D01*
X113543142Y-81534095D01*
X113590761Y-81581714D01*
X113638380Y-81676952D01*
X113638380Y-81915047D01*
X113590761Y-82010285D01*
X113543142Y-82057904D01*
X109474095Y-99634380D02*
X109474095Y-100443904D01*
X109521714Y-100539142D01*
X109569333Y-100586761D01*
X109664571Y-100634380D01*
X109855047Y-100634380D01*
X109950285Y-100586761D01*
X109997904Y-100539142D01*
X110045523Y-100443904D01*
X110045523Y-99634380D01*
X110950285Y-99634380D02*
X110759809Y-99634380D01*
X110664571Y-99682000D01*
X110616952Y-99729619D01*
X110521714Y-99872476D01*
X110474095Y-100062952D01*
X110474095Y-100443904D01*
X110521714Y-100539142D01*
X110569333Y-100586761D01*
X110664571Y-100634380D01*
X110855047Y-100634380D01*
X110950285Y-100586761D01*
X110997904Y-100539142D01*
X111045523Y-100443904D01*
X111045523Y-100205809D01*
X110997904Y-100110571D01*
X110950285Y-100062952D01*
X110855047Y-100015333D01*
X110664571Y-100015333D01*
X110569333Y-100062952D01*
X110521714Y-100110571D01*
X110474095Y-100205809D01*
X140447809Y-78747190D02*
X140447809Y-79223380D01*
X140114476Y-78223380D02*
X140447809Y-78747190D01*
X140781142Y-78223380D01*
X141638285Y-79223380D02*
X141066857Y-79223380D01*
X141352571Y-79223380D02*
X141352571Y-78223380D01*
X141257333Y-78366238D01*
X141162095Y-78461476D01*
X141066857Y-78509095D01*
M02*
