G04 #@! TF.GenerationSoftware,KiCad,Pcbnew,(6.0.0-rc1-dev-1491-g0a4812be0)*
G04 #@! TF.CreationDate,2019-01-28T09:48:38+01:00
G04 #@! TF.ProjectId,mySensors_door_switch,6d795365-6e73-46f7-9273-5f646f6f725f,1.0*
G04 #@! TF.SameCoordinates,Original*
G04 #@! TF.FileFunction,Paste,Top*
G04 #@! TF.FilePolarity,Positive*
%FSLAX46Y46*%
G04 Gerber Fmt 4.6, Leading zero omitted, Abs format (unit mm)*
G04 Created by KiCad (PCBNEW (6.0.0-rc1-dev-1491-g0a4812be0)) date 2019-01-28 09:48:38*
%MOMM*%
%LPD*%
G04 APERTURE LIST*
%ADD10C,0.100000*%
%ADD11C,1.425000*%
%ADD12R,0.800000X0.900000*%
%ADD13R,0.650000X1.560000*%
%ADD14R,1.300000X0.450000*%
%ADD15R,1.450000X0.450000*%
%ADD16R,1.200000X3.000000*%
%ADD17R,0.550000X1.600000*%
%ADD18R,1.600000X0.550000*%
%ADD19C,0.970000*%
%ADD20C,0.600000*%
%ADD21R,1.560000X0.650000*%
G04 APERTURE END LIST*
D10*
G36*
X135980504Y-106746204D02*
G01*
X136004773Y-106749804D01*
X136028571Y-106755765D01*
X136051671Y-106764030D01*
X136073849Y-106774520D01*
X136094893Y-106787133D01*
X136114598Y-106801747D01*
X136132777Y-106818223D01*
X136149253Y-106836402D01*
X136163867Y-106856107D01*
X136176480Y-106877151D01*
X136186970Y-106899329D01*
X136195235Y-106922429D01*
X136201196Y-106946227D01*
X136204796Y-106970496D01*
X136206000Y-106995000D01*
X136206000Y-107920000D01*
X136204796Y-107944504D01*
X136201196Y-107968773D01*
X136195235Y-107992571D01*
X136186970Y-108015671D01*
X136176480Y-108037849D01*
X136163867Y-108058893D01*
X136149253Y-108078598D01*
X136132777Y-108096777D01*
X136114598Y-108113253D01*
X136094893Y-108127867D01*
X136073849Y-108140480D01*
X136051671Y-108150970D01*
X136028571Y-108159235D01*
X136004773Y-108165196D01*
X135980504Y-108168796D01*
X135956000Y-108170000D01*
X134706000Y-108170000D01*
X134681496Y-108168796D01*
X134657227Y-108165196D01*
X134633429Y-108159235D01*
X134610329Y-108150970D01*
X134588151Y-108140480D01*
X134567107Y-108127867D01*
X134547402Y-108113253D01*
X134529223Y-108096777D01*
X134512747Y-108078598D01*
X134498133Y-108058893D01*
X134485520Y-108037849D01*
X134475030Y-108015671D01*
X134466765Y-107992571D01*
X134460804Y-107968773D01*
X134457204Y-107944504D01*
X134456000Y-107920000D01*
X134456000Y-106995000D01*
X134457204Y-106970496D01*
X134460804Y-106946227D01*
X134466765Y-106922429D01*
X134475030Y-106899329D01*
X134485520Y-106877151D01*
X134498133Y-106856107D01*
X134512747Y-106836402D01*
X134529223Y-106818223D01*
X134547402Y-106801747D01*
X134567107Y-106787133D01*
X134588151Y-106774520D01*
X134610329Y-106764030D01*
X134633429Y-106755765D01*
X134657227Y-106749804D01*
X134681496Y-106746204D01*
X134706000Y-106745000D01*
X135956000Y-106745000D01*
X135980504Y-106746204D01*
X135980504Y-106746204D01*
G37*
D11*
X135331000Y-107457500D03*
D10*
G36*
X135980504Y-103771204D02*
G01*
X136004773Y-103774804D01*
X136028571Y-103780765D01*
X136051671Y-103789030D01*
X136073849Y-103799520D01*
X136094893Y-103812133D01*
X136114598Y-103826747D01*
X136132777Y-103843223D01*
X136149253Y-103861402D01*
X136163867Y-103881107D01*
X136176480Y-103902151D01*
X136186970Y-103924329D01*
X136195235Y-103947429D01*
X136201196Y-103971227D01*
X136204796Y-103995496D01*
X136206000Y-104020000D01*
X136206000Y-104945000D01*
X136204796Y-104969504D01*
X136201196Y-104993773D01*
X136195235Y-105017571D01*
X136186970Y-105040671D01*
X136176480Y-105062849D01*
X136163867Y-105083893D01*
X136149253Y-105103598D01*
X136132777Y-105121777D01*
X136114598Y-105138253D01*
X136094893Y-105152867D01*
X136073849Y-105165480D01*
X136051671Y-105175970D01*
X136028571Y-105184235D01*
X136004773Y-105190196D01*
X135980504Y-105193796D01*
X135956000Y-105195000D01*
X134706000Y-105195000D01*
X134681496Y-105193796D01*
X134657227Y-105190196D01*
X134633429Y-105184235D01*
X134610329Y-105175970D01*
X134588151Y-105165480D01*
X134567107Y-105152867D01*
X134547402Y-105138253D01*
X134529223Y-105121777D01*
X134512747Y-105103598D01*
X134498133Y-105083893D01*
X134485520Y-105062849D01*
X134475030Y-105040671D01*
X134466765Y-105017571D01*
X134460804Y-104993773D01*
X134457204Y-104969504D01*
X134456000Y-104945000D01*
X134456000Y-104020000D01*
X134457204Y-103995496D01*
X134460804Y-103971227D01*
X134466765Y-103947429D01*
X134475030Y-103924329D01*
X134485520Y-103902151D01*
X134498133Y-103881107D01*
X134512747Y-103861402D01*
X134529223Y-103843223D01*
X134547402Y-103826747D01*
X134567107Y-103812133D01*
X134588151Y-103799520D01*
X134610329Y-103789030D01*
X134633429Y-103780765D01*
X134657227Y-103774804D01*
X134681496Y-103771204D01*
X134706000Y-103770000D01*
X135956000Y-103770000D01*
X135980504Y-103771204D01*
X135980504Y-103771204D01*
G37*
D11*
X135331000Y-104482500D03*
D10*
G36*
X127399504Y-105350204D02*
G01*
X127423773Y-105353804D01*
X127447571Y-105359765D01*
X127470671Y-105368030D01*
X127492849Y-105378520D01*
X127513893Y-105391133D01*
X127533598Y-105405747D01*
X127551777Y-105422223D01*
X127568253Y-105440402D01*
X127582867Y-105460107D01*
X127595480Y-105481151D01*
X127605970Y-105503329D01*
X127614235Y-105526429D01*
X127620196Y-105550227D01*
X127623796Y-105574496D01*
X127625000Y-105599000D01*
X127625000Y-106849000D01*
X127623796Y-106873504D01*
X127620196Y-106897773D01*
X127614235Y-106921571D01*
X127605970Y-106944671D01*
X127595480Y-106966849D01*
X127582867Y-106987893D01*
X127568253Y-107007598D01*
X127551777Y-107025777D01*
X127533598Y-107042253D01*
X127513893Y-107056867D01*
X127492849Y-107069480D01*
X127470671Y-107079970D01*
X127447571Y-107088235D01*
X127423773Y-107094196D01*
X127399504Y-107097796D01*
X127375000Y-107099000D01*
X126450000Y-107099000D01*
X126425496Y-107097796D01*
X126401227Y-107094196D01*
X126377429Y-107088235D01*
X126354329Y-107079970D01*
X126332151Y-107069480D01*
X126311107Y-107056867D01*
X126291402Y-107042253D01*
X126273223Y-107025777D01*
X126256747Y-107007598D01*
X126242133Y-106987893D01*
X126229520Y-106966849D01*
X126219030Y-106944671D01*
X126210765Y-106921571D01*
X126204804Y-106897773D01*
X126201204Y-106873504D01*
X126200000Y-106849000D01*
X126200000Y-105599000D01*
X126201204Y-105574496D01*
X126204804Y-105550227D01*
X126210765Y-105526429D01*
X126219030Y-105503329D01*
X126229520Y-105481151D01*
X126242133Y-105460107D01*
X126256747Y-105440402D01*
X126273223Y-105422223D01*
X126291402Y-105405747D01*
X126311107Y-105391133D01*
X126332151Y-105378520D01*
X126354329Y-105368030D01*
X126377429Y-105359765D01*
X126401227Y-105353804D01*
X126425496Y-105350204D01*
X126450000Y-105349000D01*
X127375000Y-105349000D01*
X127399504Y-105350204D01*
X127399504Y-105350204D01*
G37*
D11*
X126912500Y-106224000D03*
D10*
G36*
X124424504Y-105350204D02*
G01*
X124448773Y-105353804D01*
X124472571Y-105359765D01*
X124495671Y-105368030D01*
X124517849Y-105378520D01*
X124538893Y-105391133D01*
X124558598Y-105405747D01*
X124576777Y-105422223D01*
X124593253Y-105440402D01*
X124607867Y-105460107D01*
X124620480Y-105481151D01*
X124630970Y-105503329D01*
X124639235Y-105526429D01*
X124645196Y-105550227D01*
X124648796Y-105574496D01*
X124650000Y-105599000D01*
X124650000Y-106849000D01*
X124648796Y-106873504D01*
X124645196Y-106897773D01*
X124639235Y-106921571D01*
X124630970Y-106944671D01*
X124620480Y-106966849D01*
X124607867Y-106987893D01*
X124593253Y-107007598D01*
X124576777Y-107025777D01*
X124558598Y-107042253D01*
X124538893Y-107056867D01*
X124517849Y-107069480D01*
X124495671Y-107079970D01*
X124472571Y-107088235D01*
X124448773Y-107094196D01*
X124424504Y-107097796D01*
X124400000Y-107099000D01*
X123475000Y-107099000D01*
X123450496Y-107097796D01*
X123426227Y-107094196D01*
X123402429Y-107088235D01*
X123379329Y-107079970D01*
X123357151Y-107069480D01*
X123336107Y-107056867D01*
X123316402Y-107042253D01*
X123298223Y-107025777D01*
X123281747Y-107007598D01*
X123267133Y-106987893D01*
X123254520Y-106966849D01*
X123244030Y-106944671D01*
X123235765Y-106921571D01*
X123229804Y-106897773D01*
X123226204Y-106873504D01*
X123225000Y-106849000D01*
X123225000Y-105599000D01*
X123226204Y-105574496D01*
X123229804Y-105550227D01*
X123235765Y-105526429D01*
X123244030Y-105503329D01*
X123254520Y-105481151D01*
X123267133Y-105460107D01*
X123281747Y-105440402D01*
X123298223Y-105422223D01*
X123316402Y-105405747D01*
X123336107Y-105391133D01*
X123357151Y-105378520D01*
X123379329Y-105368030D01*
X123402429Y-105359765D01*
X123426227Y-105353804D01*
X123450496Y-105350204D01*
X123475000Y-105349000D01*
X124400000Y-105349000D01*
X124424504Y-105350204D01*
X124424504Y-105350204D01*
G37*
D11*
X123937500Y-106224000D03*
D10*
G36*
X135273504Y-99254204D02*
G01*
X135297773Y-99257804D01*
X135321571Y-99263765D01*
X135344671Y-99272030D01*
X135366849Y-99282520D01*
X135387893Y-99295133D01*
X135407598Y-99309747D01*
X135425777Y-99326223D01*
X135442253Y-99344402D01*
X135456867Y-99364107D01*
X135469480Y-99385151D01*
X135479970Y-99407329D01*
X135488235Y-99430429D01*
X135494196Y-99454227D01*
X135497796Y-99478496D01*
X135499000Y-99503000D01*
X135499000Y-100753000D01*
X135497796Y-100777504D01*
X135494196Y-100801773D01*
X135488235Y-100825571D01*
X135479970Y-100848671D01*
X135469480Y-100870849D01*
X135456867Y-100891893D01*
X135442253Y-100911598D01*
X135425777Y-100929777D01*
X135407598Y-100946253D01*
X135387893Y-100960867D01*
X135366849Y-100973480D01*
X135344671Y-100983970D01*
X135321571Y-100992235D01*
X135297773Y-100998196D01*
X135273504Y-101001796D01*
X135249000Y-101003000D01*
X134324000Y-101003000D01*
X134299496Y-101001796D01*
X134275227Y-100998196D01*
X134251429Y-100992235D01*
X134228329Y-100983970D01*
X134206151Y-100973480D01*
X134185107Y-100960867D01*
X134165402Y-100946253D01*
X134147223Y-100929777D01*
X134130747Y-100911598D01*
X134116133Y-100891893D01*
X134103520Y-100870849D01*
X134093030Y-100848671D01*
X134084765Y-100825571D01*
X134078804Y-100801773D01*
X134075204Y-100777504D01*
X134074000Y-100753000D01*
X134074000Y-99503000D01*
X134075204Y-99478496D01*
X134078804Y-99454227D01*
X134084765Y-99430429D01*
X134093030Y-99407329D01*
X134103520Y-99385151D01*
X134116133Y-99364107D01*
X134130747Y-99344402D01*
X134147223Y-99326223D01*
X134165402Y-99309747D01*
X134185107Y-99295133D01*
X134206151Y-99282520D01*
X134228329Y-99272030D01*
X134251429Y-99263765D01*
X134275227Y-99257804D01*
X134299496Y-99254204D01*
X134324000Y-99253000D01*
X135249000Y-99253000D01*
X135273504Y-99254204D01*
X135273504Y-99254204D01*
G37*
D11*
X134786500Y-100128000D03*
D10*
G36*
X132298504Y-99254204D02*
G01*
X132322773Y-99257804D01*
X132346571Y-99263765D01*
X132369671Y-99272030D01*
X132391849Y-99282520D01*
X132412893Y-99295133D01*
X132432598Y-99309747D01*
X132450777Y-99326223D01*
X132467253Y-99344402D01*
X132481867Y-99364107D01*
X132494480Y-99385151D01*
X132504970Y-99407329D01*
X132513235Y-99430429D01*
X132519196Y-99454227D01*
X132522796Y-99478496D01*
X132524000Y-99503000D01*
X132524000Y-100753000D01*
X132522796Y-100777504D01*
X132519196Y-100801773D01*
X132513235Y-100825571D01*
X132504970Y-100848671D01*
X132494480Y-100870849D01*
X132481867Y-100891893D01*
X132467253Y-100911598D01*
X132450777Y-100929777D01*
X132432598Y-100946253D01*
X132412893Y-100960867D01*
X132391849Y-100973480D01*
X132369671Y-100983970D01*
X132346571Y-100992235D01*
X132322773Y-100998196D01*
X132298504Y-101001796D01*
X132274000Y-101003000D01*
X131349000Y-101003000D01*
X131324496Y-101001796D01*
X131300227Y-100998196D01*
X131276429Y-100992235D01*
X131253329Y-100983970D01*
X131231151Y-100973480D01*
X131210107Y-100960867D01*
X131190402Y-100946253D01*
X131172223Y-100929777D01*
X131155747Y-100911598D01*
X131141133Y-100891893D01*
X131128520Y-100870849D01*
X131118030Y-100848671D01*
X131109765Y-100825571D01*
X131103804Y-100801773D01*
X131100204Y-100777504D01*
X131099000Y-100753000D01*
X131099000Y-99503000D01*
X131100204Y-99478496D01*
X131103804Y-99454227D01*
X131109765Y-99430429D01*
X131118030Y-99407329D01*
X131128520Y-99385151D01*
X131141133Y-99364107D01*
X131155747Y-99344402D01*
X131172223Y-99326223D01*
X131190402Y-99309747D01*
X131210107Y-99295133D01*
X131231151Y-99282520D01*
X131253329Y-99272030D01*
X131276429Y-99263765D01*
X131300227Y-99257804D01*
X131324496Y-99254204D01*
X131349000Y-99253000D01*
X132274000Y-99253000D01*
X132298504Y-99254204D01*
X132298504Y-99254204D01*
G37*
D11*
X131811500Y-100128000D03*
D10*
G36*
X135527504Y-89856404D02*
G01*
X135551773Y-89860004D01*
X135575571Y-89865965D01*
X135598671Y-89874230D01*
X135620849Y-89884720D01*
X135641893Y-89897333D01*
X135661598Y-89911947D01*
X135679777Y-89928423D01*
X135696253Y-89946602D01*
X135710867Y-89966307D01*
X135723480Y-89987351D01*
X135733970Y-90009529D01*
X135742235Y-90032629D01*
X135748196Y-90056427D01*
X135751796Y-90080696D01*
X135753000Y-90105200D01*
X135753000Y-91355200D01*
X135751796Y-91379704D01*
X135748196Y-91403973D01*
X135742235Y-91427771D01*
X135733970Y-91450871D01*
X135723480Y-91473049D01*
X135710867Y-91494093D01*
X135696253Y-91513798D01*
X135679777Y-91531977D01*
X135661598Y-91548453D01*
X135641893Y-91563067D01*
X135620849Y-91575680D01*
X135598671Y-91586170D01*
X135575571Y-91594435D01*
X135551773Y-91600396D01*
X135527504Y-91603996D01*
X135503000Y-91605200D01*
X134578000Y-91605200D01*
X134553496Y-91603996D01*
X134529227Y-91600396D01*
X134505429Y-91594435D01*
X134482329Y-91586170D01*
X134460151Y-91575680D01*
X134439107Y-91563067D01*
X134419402Y-91548453D01*
X134401223Y-91531977D01*
X134384747Y-91513798D01*
X134370133Y-91494093D01*
X134357520Y-91473049D01*
X134347030Y-91450871D01*
X134338765Y-91427771D01*
X134332804Y-91403973D01*
X134329204Y-91379704D01*
X134328000Y-91355200D01*
X134328000Y-90105200D01*
X134329204Y-90080696D01*
X134332804Y-90056427D01*
X134338765Y-90032629D01*
X134347030Y-90009529D01*
X134357520Y-89987351D01*
X134370133Y-89966307D01*
X134384747Y-89946602D01*
X134401223Y-89928423D01*
X134419402Y-89911947D01*
X134439107Y-89897333D01*
X134460151Y-89884720D01*
X134482329Y-89874230D01*
X134505429Y-89865965D01*
X134529227Y-89860004D01*
X134553496Y-89856404D01*
X134578000Y-89855200D01*
X135503000Y-89855200D01*
X135527504Y-89856404D01*
X135527504Y-89856404D01*
G37*
D11*
X135040500Y-90730200D03*
D10*
G36*
X132552504Y-89856404D02*
G01*
X132576773Y-89860004D01*
X132600571Y-89865965D01*
X132623671Y-89874230D01*
X132645849Y-89884720D01*
X132666893Y-89897333D01*
X132686598Y-89911947D01*
X132704777Y-89928423D01*
X132721253Y-89946602D01*
X132735867Y-89966307D01*
X132748480Y-89987351D01*
X132758970Y-90009529D01*
X132767235Y-90032629D01*
X132773196Y-90056427D01*
X132776796Y-90080696D01*
X132778000Y-90105200D01*
X132778000Y-91355200D01*
X132776796Y-91379704D01*
X132773196Y-91403973D01*
X132767235Y-91427771D01*
X132758970Y-91450871D01*
X132748480Y-91473049D01*
X132735867Y-91494093D01*
X132721253Y-91513798D01*
X132704777Y-91531977D01*
X132686598Y-91548453D01*
X132666893Y-91563067D01*
X132645849Y-91575680D01*
X132623671Y-91586170D01*
X132600571Y-91594435D01*
X132576773Y-91600396D01*
X132552504Y-91603996D01*
X132528000Y-91605200D01*
X131603000Y-91605200D01*
X131578496Y-91603996D01*
X131554227Y-91600396D01*
X131530429Y-91594435D01*
X131507329Y-91586170D01*
X131485151Y-91575680D01*
X131464107Y-91563067D01*
X131444402Y-91548453D01*
X131426223Y-91531977D01*
X131409747Y-91513798D01*
X131395133Y-91494093D01*
X131382520Y-91473049D01*
X131372030Y-91450871D01*
X131363765Y-91427771D01*
X131357804Y-91403973D01*
X131354204Y-91379704D01*
X131353000Y-91355200D01*
X131353000Y-90105200D01*
X131354204Y-90080696D01*
X131357804Y-90056427D01*
X131363765Y-90032629D01*
X131372030Y-90009529D01*
X131382520Y-89987351D01*
X131395133Y-89966307D01*
X131409747Y-89946602D01*
X131426223Y-89928423D01*
X131444402Y-89911947D01*
X131464107Y-89897333D01*
X131485151Y-89884720D01*
X131507329Y-89874230D01*
X131530429Y-89865965D01*
X131554227Y-89860004D01*
X131578496Y-89856404D01*
X131603000Y-89855200D01*
X132528000Y-89855200D01*
X132552504Y-89856404D01*
X132552504Y-89856404D01*
G37*
D11*
X132065500Y-90730200D03*
D12*
X133807000Y-94048200D03*
X134757000Y-96048200D03*
X132857000Y-96048200D03*
X124155000Y-102906000D03*
X123205000Y-100906000D03*
X125105000Y-100906000D03*
D10*
G36*
X131662504Y-107000204D02*
G01*
X131686773Y-107003804D01*
X131710571Y-107009765D01*
X131733671Y-107018030D01*
X131755849Y-107028520D01*
X131776893Y-107041133D01*
X131796598Y-107055747D01*
X131814777Y-107072223D01*
X131831253Y-107090402D01*
X131845867Y-107110107D01*
X131858480Y-107131151D01*
X131868970Y-107153329D01*
X131877235Y-107176429D01*
X131883196Y-107200227D01*
X131886796Y-107224496D01*
X131888000Y-107249000D01*
X131888000Y-108174000D01*
X131886796Y-108198504D01*
X131883196Y-108222773D01*
X131877235Y-108246571D01*
X131868970Y-108269671D01*
X131858480Y-108291849D01*
X131845867Y-108312893D01*
X131831253Y-108332598D01*
X131814777Y-108350777D01*
X131796598Y-108367253D01*
X131776893Y-108381867D01*
X131755849Y-108394480D01*
X131733671Y-108404970D01*
X131710571Y-108413235D01*
X131686773Y-108419196D01*
X131662504Y-108422796D01*
X131638000Y-108424000D01*
X130388000Y-108424000D01*
X130363496Y-108422796D01*
X130339227Y-108419196D01*
X130315429Y-108413235D01*
X130292329Y-108404970D01*
X130270151Y-108394480D01*
X130249107Y-108381867D01*
X130229402Y-108367253D01*
X130211223Y-108350777D01*
X130194747Y-108332598D01*
X130180133Y-108312893D01*
X130167520Y-108291849D01*
X130157030Y-108269671D01*
X130148765Y-108246571D01*
X130142804Y-108222773D01*
X130139204Y-108198504D01*
X130138000Y-108174000D01*
X130138000Y-107249000D01*
X130139204Y-107224496D01*
X130142804Y-107200227D01*
X130148765Y-107176429D01*
X130157030Y-107153329D01*
X130167520Y-107131151D01*
X130180133Y-107110107D01*
X130194747Y-107090402D01*
X130211223Y-107072223D01*
X130229402Y-107055747D01*
X130249107Y-107041133D01*
X130270151Y-107028520D01*
X130292329Y-107018030D01*
X130315429Y-107009765D01*
X130339227Y-107003804D01*
X130363496Y-107000204D01*
X130388000Y-106999000D01*
X131638000Y-106999000D01*
X131662504Y-107000204D01*
X131662504Y-107000204D01*
G37*
D11*
X131013000Y-107711500D03*
D10*
G36*
X131662504Y-104025204D02*
G01*
X131686773Y-104028804D01*
X131710571Y-104034765D01*
X131733671Y-104043030D01*
X131755849Y-104053520D01*
X131776893Y-104066133D01*
X131796598Y-104080747D01*
X131814777Y-104097223D01*
X131831253Y-104115402D01*
X131845867Y-104135107D01*
X131858480Y-104156151D01*
X131868970Y-104178329D01*
X131877235Y-104201429D01*
X131883196Y-104225227D01*
X131886796Y-104249496D01*
X131888000Y-104274000D01*
X131888000Y-105199000D01*
X131886796Y-105223504D01*
X131883196Y-105247773D01*
X131877235Y-105271571D01*
X131868970Y-105294671D01*
X131858480Y-105316849D01*
X131845867Y-105337893D01*
X131831253Y-105357598D01*
X131814777Y-105375777D01*
X131796598Y-105392253D01*
X131776893Y-105406867D01*
X131755849Y-105419480D01*
X131733671Y-105429970D01*
X131710571Y-105438235D01*
X131686773Y-105444196D01*
X131662504Y-105447796D01*
X131638000Y-105449000D01*
X130388000Y-105449000D01*
X130363496Y-105447796D01*
X130339227Y-105444196D01*
X130315429Y-105438235D01*
X130292329Y-105429970D01*
X130270151Y-105419480D01*
X130249107Y-105406867D01*
X130229402Y-105392253D01*
X130211223Y-105375777D01*
X130194747Y-105357598D01*
X130180133Y-105337893D01*
X130167520Y-105316849D01*
X130157030Y-105294671D01*
X130148765Y-105271571D01*
X130142804Y-105247773D01*
X130139204Y-105223504D01*
X130138000Y-105199000D01*
X130138000Y-104274000D01*
X130139204Y-104249496D01*
X130142804Y-104225227D01*
X130148765Y-104201429D01*
X130157030Y-104178329D01*
X130167520Y-104156151D01*
X130180133Y-104135107D01*
X130194747Y-104115402D01*
X130211223Y-104097223D01*
X130229402Y-104080747D01*
X130249107Y-104066133D01*
X130270151Y-104053520D01*
X130292329Y-104043030D01*
X130315429Y-104034765D01*
X130339227Y-104028804D01*
X130363496Y-104025204D01*
X130388000Y-104024000D01*
X131638000Y-104024000D01*
X131662504Y-104025204D01*
X131662504Y-104025204D01*
G37*
D11*
X131013000Y-104736500D03*
D10*
G36*
X110962504Y-86554404D02*
G01*
X110986773Y-86558004D01*
X111010571Y-86563965D01*
X111033671Y-86572230D01*
X111055849Y-86582720D01*
X111076893Y-86595333D01*
X111096598Y-86609947D01*
X111114777Y-86626423D01*
X111131253Y-86644602D01*
X111145867Y-86664307D01*
X111158480Y-86685351D01*
X111168970Y-86707529D01*
X111177235Y-86730629D01*
X111183196Y-86754427D01*
X111186796Y-86778696D01*
X111188000Y-86803200D01*
X111188000Y-88053200D01*
X111186796Y-88077704D01*
X111183196Y-88101973D01*
X111177235Y-88125771D01*
X111168970Y-88148871D01*
X111158480Y-88171049D01*
X111145867Y-88192093D01*
X111131253Y-88211798D01*
X111114777Y-88229977D01*
X111096598Y-88246453D01*
X111076893Y-88261067D01*
X111055849Y-88273680D01*
X111033671Y-88284170D01*
X111010571Y-88292435D01*
X110986773Y-88298396D01*
X110962504Y-88301996D01*
X110938000Y-88303200D01*
X110013000Y-88303200D01*
X109988496Y-88301996D01*
X109964227Y-88298396D01*
X109940429Y-88292435D01*
X109917329Y-88284170D01*
X109895151Y-88273680D01*
X109874107Y-88261067D01*
X109854402Y-88246453D01*
X109836223Y-88229977D01*
X109819747Y-88211798D01*
X109805133Y-88192093D01*
X109792520Y-88171049D01*
X109782030Y-88148871D01*
X109773765Y-88125771D01*
X109767804Y-88101973D01*
X109764204Y-88077704D01*
X109763000Y-88053200D01*
X109763000Y-86803200D01*
X109764204Y-86778696D01*
X109767804Y-86754427D01*
X109773765Y-86730629D01*
X109782030Y-86707529D01*
X109792520Y-86685351D01*
X109805133Y-86664307D01*
X109819747Y-86644602D01*
X109836223Y-86626423D01*
X109854402Y-86609947D01*
X109874107Y-86595333D01*
X109895151Y-86582720D01*
X109917329Y-86572230D01*
X109940429Y-86563965D01*
X109964227Y-86558004D01*
X109988496Y-86554404D01*
X110013000Y-86553200D01*
X110938000Y-86553200D01*
X110962504Y-86554404D01*
X110962504Y-86554404D01*
G37*
D11*
X110475500Y-87428200D03*
D10*
G36*
X113937504Y-86554404D02*
G01*
X113961773Y-86558004D01*
X113985571Y-86563965D01*
X114008671Y-86572230D01*
X114030849Y-86582720D01*
X114051893Y-86595333D01*
X114071598Y-86609947D01*
X114089777Y-86626423D01*
X114106253Y-86644602D01*
X114120867Y-86664307D01*
X114133480Y-86685351D01*
X114143970Y-86707529D01*
X114152235Y-86730629D01*
X114158196Y-86754427D01*
X114161796Y-86778696D01*
X114163000Y-86803200D01*
X114163000Y-88053200D01*
X114161796Y-88077704D01*
X114158196Y-88101973D01*
X114152235Y-88125771D01*
X114143970Y-88148871D01*
X114133480Y-88171049D01*
X114120867Y-88192093D01*
X114106253Y-88211798D01*
X114089777Y-88229977D01*
X114071598Y-88246453D01*
X114051893Y-88261067D01*
X114030849Y-88273680D01*
X114008671Y-88284170D01*
X113985571Y-88292435D01*
X113961773Y-88298396D01*
X113937504Y-88301996D01*
X113913000Y-88303200D01*
X112988000Y-88303200D01*
X112963496Y-88301996D01*
X112939227Y-88298396D01*
X112915429Y-88292435D01*
X112892329Y-88284170D01*
X112870151Y-88273680D01*
X112849107Y-88261067D01*
X112829402Y-88246453D01*
X112811223Y-88229977D01*
X112794747Y-88211798D01*
X112780133Y-88192093D01*
X112767520Y-88171049D01*
X112757030Y-88148871D01*
X112748765Y-88125771D01*
X112742804Y-88101973D01*
X112739204Y-88077704D01*
X112738000Y-88053200D01*
X112738000Y-86803200D01*
X112739204Y-86778696D01*
X112742804Y-86754427D01*
X112748765Y-86730629D01*
X112757030Y-86707529D01*
X112767520Y-86685351D01*
X112780133Y-86664307D01*
X112794747Y-86644602D01*
X112811223Y-86626423D01*
X112829402Y-86609947D01*
X112849107Y-86595333D01*
X112870151Y-86582720D01*
X112892329Y-86572230D01*
X112915429Y-86563965D01*
X112939227Y-86558004D01*
X112963496Y-86554404D01*
X112988000Y-86553200D01*
X113913000Y-86553200D01*
X113937504Y-86554404D01*
X113937504Y-86554404D01*
G37*
D11*
X113450500Y-87428200D03*
D10*
G36*
X113937504Y-82490404D02*
G01*
X113961773Y-82494004D01*
X113985571Y-82499965D01*
X114008671Y-82508230D01*
X114030849Y-82518720D01*
X114051893Y-82531333D01*
X114071598Y-82545947D01*
X114089777Y-82562423D01*
X114106253Y-82580602D01*
X114120867Y-82600307D01*
X114133480Y-82621351D01*
X114143970Y-82643529D01*
X114152235Y-82666629D01*
X114158196Y-82690427D01*
X114161796Y-82714696D01*
X114163000Y-82739200D01*
X114163000Y-83989200D01*
X114161796Y-84013704D01*
X114158196Y-84037973D01*
X114152235Y-84061771D01*
X114143970Y-84084871D01*
X114133480Y-84107049D01*
X114120867Y-84128093D01*
X114106253Y-84147798D01*
X114089777Y-84165977D01*
X114071598Y-84182453D01*
X114051893Y-84197067D01*
X114030849Y-84209680D01*
X114008671Y-84220170D01*
X113985571Y-84228435D01*
X113961773Y-84234396D01*
X113937504Y-84237996D01*
X113913000Y-84239200D01*
X112988000Y-84239200D01*
X112963496Y-84237996D01*
X112939227Y-84234396D01*
X112915429Y-84228435D01*
X112892329Y-84220170D01*
X112870151Y-84209680D01*
X112849107Y-84197067D01*
X112829402Y-84182453D01*
X112811223Y-84165977D01*
X112794747Y-84147798D01*
X112780133Y-84128093D01*
X112767520Y-84107049D01*
X112757030Y-84084871D01*
X112748765Y-84061771D01*
X112742804Y-84037973D01*
X112739204Y-84013704D01*
X112738000Y-83989200D01*
X112738000Y-82739200D01*
X112739204Y-82714696D01*
X112742804Y-82690427D01*
X112748765Y-82666629D01*
X112757030Y-82643529D01*
X112767520Y-82621351D01*
X112780133Y-82600307D01*
X112794747Y-82580602D01*
X112811223Y-82562423D01*
X112829402Y-82545947D01*
X112849107Y-82531333D01*
X112870151Y-82518720D01*
X112892329Y-82508230D01*
X112915429Y-82499965D01*
X112939227Y-82494004D01*
X112963496Y-82490404D01*
X112988000Y-82489200D01*
X113913000Y-82489200D01*
X113937504Y-82490404D01*
X113937504Y-82490404D01*
G37*
D11*
X113450500Y-83364200D03*
D10*
G36*
X110962504Y-82490404D02*
G01*
X110986773Y-82494004D01*
X111010571Y-82499965D01*
X111033671Y-82508230D01*
X111055849Y-82518720D01*
X111076893Y-82531333D01*
X111096598Y-82545947D01*
X111114777Y-82562423D01*
X111131253Y-82580602D01*
X111145867Y-82600307D01*
X111158480Y-82621351D01*
X111168970Y-82643529D01*
X111177235Y-82666629D01*
X111183196Y-82690427D01*
X111186796Y-82714696D01*
X111188000Y-82739200D01*
X111188000Y-83989200D01*
X111186796Y-84013704D01*
X111183196Y-84037973D01*
X111177235Y-84061771D01*
X111168970Y-84084871D01*
X111158480Y-84107049D01*
X111145867Y-84128093D01*
X111131253Y-84147798D01*
X111114777Y-84165977D01*
X111096598Y-84182453D01*
X111076893Y-84197067D01*
X111055849Y-84209680D01*
X111033671Y-84220170D01*
X111010571Y-84228435D01*
X110986773Y-84234396D01*
X110962504Y-84237996D01*
X110938000Y-84239200D01*
X110013000Y-84239200D01*
X109988496Y-84237996D01*
X109964227Y-84234396D01*
X109940429Y-84228435D01*
X109917329Y-84220170D01*
X109895151Y-84209680D01*
X109874107Y-84197067D01*
X109854402Y-84182453D01*
X109836223Y-84165977D01*
X109819747Y-84147798D01*
X109805133Y-84128093D01*
X109792520Y-84107049D01*
X109782030Y-84084871D01*
X109773765Y-84061771D01*
X109767804Y-84037973D01*
X109764204Y-84013704D01*
X109763000Y-83989200D01*
X109763000Y-82739200D01*
X109764204Y-82714696D01*
X109767804Y-82690427D01*
X109773765Y-82666629D01*
X109782030Y-82643529D01*
X109792520Y-82621351D01*
X109805133Y-82600307D01*
X109819747Y-82580602D01*
X109836223Y-82562423D01*
X109854402Y-82545947D01*
X109874107Y-82531333D01*
X109895151Y-82518720D01*
X109917329Y-82508230D01*
X109940429Y-82499965D01*
X109964227Y-82494004D01*
X109988496Y-82490404D01*
X110013000Y-82489200D01*
X110938000Y-82489200D01*
X110962504Y-82490404D01*
X110962504Y-82490404D01*
G37*
D11*
X110475500Y-83364200D03*
D10*
G36*
X115026504Y-91126404D02*
G01*
X115050773Y-91130004D01*
X115074571Y-91135965D01*
X115097671Y-91144230D01*
X115119849Y-91154720D01*
X115140893Y-91167333D01*
X115160598Y-91181947D01*
X115178777Y-91198423D01*
X115195253Y-91216602D01*
X115209867Y-91236307D01*
X115222480Y-91257351D01*
X115232970Y-91279529D01*
X115241235Y-91302629D01*
X115247196Y-91326427D01*
X115250796Y-91350696D01*
X115252000Y-91375200D01*
X115252000Y-92625200D01*
X115250796Y-92649704D01*
X115247196Y-92673973D01*
X115241235Y-92697771D01*
X115232970Y-92720871D01*
X115222480Y-92743049D01*
X115209867Y-92764093D01*
X115195253Y-92783798D01*
X115178777Y-92801977D01*
X115160598Y-92818453D01*
X115140893Y-92833067D01*
X115119849Y-92845680D01*
X115097671Y-92856170D01*
X115074571Y-92864435D01*
X115050773Y-92870396D01*
X115026504Y-92873996D01*
X115002000Y-92875200D01*
X114077000Y-92875200D01*
X114052496Y-92873996D01*
X114028227Y-92870396D01*
X114004429Y-92864435D01*
X113981329Y-92856170D01*
X113959151Y-92845680D01*
X113938107Y-92833067D01*
X113918402Y-92818453D01*
X113900223Y-92801977D01*
X113883747Y-92783798D01*
X113869133Y-92764093D01*
X113856520Y-92743049D01*
X113846030Y-92720871D01*
X113837765Y-92697771D01*
X113831804Y-92673973D01*
X113828204Y-92649704D01*
X113827000Y-92625200D01*
X113827000Y-91375200D01*
X113828204Y-91350696D01*
X113831804Y-91326427D01*
X113837765Y-91302629D01*
X113846030Y-91279529D01*
X113856520Y-91257351D01*
X113869133Y-91236307D01*
X113883747Y-91216602D01*
X113900223Y-91198423D01*
X113918402Y-91181947D01*
X113938107Y-91167333D01*
X113959151Y-91154720D01*
X113981329Y-91144230D01*
X114004429Y-91135965D01*
X114028227Y-91130004D01*
X114052496Y-91126404D01*
X114077000Y-91125200D01*
X115002000Y-91125200D01*
X115026504Y-91126404D01*
X115026504Y-91126404D01*
G37*
D11*
X114539500Y-92000200D03*
D10*
G36*
X118001504Y-91126404D02*
G01*
X118025773Y-91130004D01*
X118049571Y-91135965D01*
X118072671Y-91144230D01*
X118094849Y-91154720D01*
X118115893Y-91167333D01*
X118135598Y-91181947D01*
X118153777Y-91198423D01*
X118170253Y-91216602D01*
X118184867Y-91236307D01*
X118197480Y-91257351D01*
X118207970Y-91279529D01*
X118216235Y-91302629D01*
X118222196Y-91326427D01*
X118225796Y-91350696D01*
X118227000Y-91375200D01*
X118227000Y-92625200D01*
X118225796Y-92649704D01*
X118222196Y-92673973D01*
X118216235Y-92697771D01*
X118207970Y-92720871D01*
X118197480Y-92743049D01*
X118184867Y-92764093D01*
X118170253Y-92783798D01*
X118153777Y-92801977D01*
X118135598Y-92818453D01*
X118115893Y-92833067D01*
X118094849Y-92845680D01*
X118072671Y-92856170D01*
X118049571Y-92864435D01*
X118025773Y-92870396D01*
X118001504Y-92873996D01*
X117977000Y-92875200D01*
X117052000Y-92875200D01*
X117027496Y-92873996D01*
X117003227Y-92870396D01*
X116979429Y-92864435D01*
X116956329Y-92856170D01*
X116934151Y-92845680D01*
X116913107Y-92833067D01*
X116893402Y-92818453D01*
X116875223Y-92801977D01*
X116858747Y-92783798D01*
X116844133Y-92764093D01*
X116831520Y-92743049D01*
X116821030Y-92720871D01*
X116812765Y-92697771D01*
X116806804Y-92673973D01*
X116803204Y-92649704D01*
X116802000Y-92625200D01*
X116802000Y-91375200D01*
X116803204Y-91350696D01*
X116806804Y-91326427D01*
X116812765Y-91302629D01*
X116821030Y-91279529D01*
X116831520Y-91257351D01*
X116844133Y-91236307D01*
X116858747Y-91216602D01*
X116875223Y-91198423D01*
X116893402Y-91181947D01*
X116913107Y-91167333D01*
X116934151Y-91154720D01*
X116956329Y-91144230D01*
X116979429Y-91135965D01*
X117003227Y-91130004D01*
X117027496Y-91126404D01*
X117052000Y-91125200D01*
X117977000Y-91125200D01*
X118001504Y-91126404D01*
X118001504Y-91126404D01*
G37*
D11*
X117514500Y-92000200D03*
D13*
X131333000Y-83792200D03*
X133233000Y-83792200D03*
X133233000Y-86492200D03*
X132283000Y-86492200D03*
X131333000Y-86492200D03*
D10*
G36*
X116676504Y-73037404D02*
G01*
X116700773Y-73041004D01*
X116724571Y-73046965D01*
X116747671Y-73055230D01*
X116769849Y-73065720D01*
X116790893Y-73078333D01*
X116810598Y-73092947D01*
X116828777Y-73109423D01*
X116845253Y-73127602D01*
X116859867Y-73147307D01*
X116872480Y-73168351D01*
X116882970Y-73190529D01*
X116891235Y-73213629D01*
X116897196Y-73237427D01*
X116900796Y-73261696D01*
X116902000Y-73286200D01*
X116902000Y-74211200D01*
X116900796Y-74235704D01*
X116897196Y-74259973D01*
X116891235Y-74283771D01*
X116882970Y-74306871D01*
X116872480Y-74329049D01*
X116859867Y-74350093D01*
X116845253Y-74369798D01*
X116828777Y-74387977D01*
X116810598Y-74404453D01*
X116790893Y-74419067D01*
X116769849Y-74431680D01*
X116747671Y-74442170D01*
X116724571Y-74450435D01*
X116700773Y-74456396D01*
X116676504Y-74459996D01*
X116652000Y-74461200D01*
X115402000Y-74461200D01*
X115377496Y-74459996D01*
X115353227Y-74456396D01*
X115329429Y-74450435D01*
X115306329Y-74442170D01*
X115284151Y-74431680D01*
X115263107Y-74419067D01*
X115243402Y-74404453D01*
X115225223Y-74387977D01*
X115208747Y-74369798D01*
X115194133Y-74350093D01*
X115181520Y-74329049D01*
X115171030Y-74306871D01*
X115162765Y-74283771D01*
X115156804Y-74259973D01*
X115153204Y-74235704D01*
X115152000Y-74211200D01*
X115152000Y-73286200D01*
X115153204Y-73261696D01*
X115156804Y-73237427D01*
X115162765Y-73213629D01*
X115171030Y-73190529D01*
X115181520Y-73168351D01*
X115194133Y-73147307D01*
X115208747Y-73127602D01*
X115225223Y-73109423D01*
X115243402Y-73092947D01*
X115263107Y-73078333D01*
X115284151Y-73065720D01*
X115306329Y-73055230D01*
X115329429Y-73046965D01*
X115353227Y-73041004D01*
X115377496Y-73037404D01*
X115402000Y-73036200D01*
X116652000Y-73036200D01*
X116676504Y-73037404D01*
X116676504Y-73037404D01*
G37*
D11*
X116027000Y-73748700D03*
D10*
G36*
X116676504Y-76012404D02*
G01*
X116700773Y-76016004D01*
X116724571Y-76021965D01*
X116747671Y-76030230D01*
X116769849Y-76040720D01*
X116790893Y-76053333D01*
X116810598Y-76067947D01*
X116828777Y-76084423D01*
X116845253Y-76102602D01*
X116859867Y-76122307D01*
X116872480Y-76143351D01*
X116882970Y-76165529D01*
X116891235Y-76188629D01*
X116897196Y-76212427D01*
X116900796Y-76236696D01*
X116902000Y-76261200D01*
X116902000Y-77186200D01*
X116900796Y-77210704D01*
X116897196Y-77234973D01*
X116891235Y-77258771D01*
X116882970Y-77281871D01*
X116872480Y-77304049D01*
X116859867Y-77325093D01*
X116845253Y-77344798D01*
X116828777Y-77362977D01*
X116810598Y-77379453D01*
X116790893Y-77394067D01*
X116769849Y-77406680D01*
X116747671Y-77417170D01*
X116724571Y-77425435D01*
X116700773Y-77431396D01*
X116676504Y-77434996D01*
X116652000Y-77436200D01*
X115402000Y-77436200D01*
X115377496Y-77434996D01*
X115353227Y-77431396D01*
X115329429Y-77425435D01*
X115306329Y-77417170D01*
X115284151Y-77406680D01*
X115263107Y-77394067D01*
X115243402Y-77379453D01*
X115225223Y-77362977D01*
X115208747Y-77344798D01*
X115194133Y-77325093D01*
X115181520Y-77304049D01*
X115171030Y-77281871D01*
X115162765Y-77258771D01*
X115156804Y-77234973D01*
X115153204Y-77210704D01*
X115152000Y-77186200D01*
X115152000Y-76261200D01*
X115153204Y-76236696D01*
X115156804Y-76212427D01*
X115162765Y-76188629D01*
X115171030Y-76165529D01*
X115181520Y-76143351D01*
X115194133Y-76122307D01*
X115208747Y-76102602D01*
X115225223Y-76084423D01*
X115243402Y-76067947D01*
X115263107Y-76053333D01*
X115284151Y-76040720D01*
X115306329Y-76030230D01*
X115329429Y-76021965D01*
X115353227Y-76016004D01*
X115377496Y-76012404D01*
X115402000Y-76011200D01*
X116652000Y-76011200D01*
X116676504Y-76012404D01*
X116676504Y-76012404D01*
G37*
D11*
X116027000Y-76723700D03*
D10*
G36*
X126328504Y-78298404D02*
G01*
X126352773Y-78302004D01*
X126376571Y-78307965D01*
X126399671Y-78316230D01*
X126421849Y-78326720D01*
X126442893Y-78339333D01*
X126462598Y-78353947D01*
X126480777Y-78370423D01*
X126497253Y-78388602D01*
X126511867Y-78408307D01*
X126524480Y-78429351D01*
X126534970Y-78451529D01*
X126543235Y-78474629D01*
X126549196Y-78498427D01*
X126552796Y-78522696D01*
X126554000Y-78547200D01*
X126554000Y-79472200D01*
X126552796Y-79496704D01*
X126549196Y-79520973D01*
X126543235Y-79544771D01*
X126534970Y-79567871D01*
X126524480Y-79590049D01*
X126511867Y-79611093D01*
X126497253Y-79630798D01*
X126480777Y-79648977D01*
X126462598Y-79665453D01*
X126442893Y-79680067D01*
X126421849Y-79692680D01*
X126399671Y-79703170D01*
X126376571Y-79711435D01*
X126352773Y-79717396D01*
X126328504Y-79720996D01*
X126304000Y-79722200D01*
X125054000Y-79722200D01*
X125029496Y-79720996D01*
X125005227Y-79717396D01*
X124981429Y-79711435D01*
X124958329Y-79703170D01*
X124936151Y-79692680D01*
X124915107Y-79680067D01*
X124895402Y-79665453D01*
X124877223Y-79648977D01*
X124860747Y-79630798D01*
X124846133Y-79611093D01*
X124833520Y-79590049D01*
X124823030Y-79567871D01*
X124814765Y-79544771D01*
X124808804Y-79520973D01*
X124805204Y-79496704D01*
X124804000Y-79472200D01*
X124804000Y-78547200D01*
X124805204Y-78522696D01*
X124808804Y-78498427D01*
X124814765Y-78474629D01*
X124823030Y-78451529D01*
X124833520Y-78429351D01*
X124846133Y-78408307D01*
X124860747Y-78388602D01*
X124877223Y-78370423D01*
X124895402Y-78353947D01*
X124915107Y-78339333D01*
X124936151Y-78326720D01*
X124958329Y-78316230D01*
X124981429Y-78307965D01*
X125005227Y-78302004D01*
X125029496Y-78298404D01*
X125054000Y-78297200D01*
X126304000Y-78297200D01*
X126328504Y-78298404D01*
X126328504Y-78298404D01*
G37*
D11*
X125679000Y-79009700D03*
D10*
G36*
X126328504Y-75323404D02*
G01*
X126352773Y-75327004D01*
X126376571Y-75332965D01*
X126399671Y-75341230D01*
X126421849Y-75351720D01*
X126442893Y-75364333D01*
X126462598Y-75378947D01*
X126480777Y-75395423D01*
X126497253Y-75413602D01*
X126511867Y-75433307D01*
X126524480Y-75454351D01*
X126534970Y-75476529D01*
X126543235Y-75499629D01*
X126549196Y-75523427D01*
X126552796Y-75547696D01*
X126554000Y-75572200D01*
X126554000Y-76497200D01*
X126552796Y-76521704D01*
X126549196Y-76545973D01*
X126543235Y-76569771D01*
X126534970Y-76592871D01*
X126524480Y-76615049D01*
X126511867Y-76636093D01*
X126497253Y-76655798D01*
X126480777Y-76673977D01*
X126462598Y-76690453D01*
X126442893Y-76705067D01*
X126421849Y-76717680D01*
X126399671Y-76728170D01*
X126376571Y-76736435D01*
X126352773Y-76742396D01*
X126328504Y-76745996D01*
X126304000Y-76747200D01*
X125054000Y-76747200D01*
X125029496Y-76745996D01*
X125005227Y-76742396D01*
X124981429Y-76736435D01*
X124958329Y-76728170D01*
X124936151Y-76717680D01*
X124915107Y-76705067D01*
X124895402Y-76690453D01*
X124877223Y-76673977D01*
X124860747Y-76655798D01*
X124846133Y-76636093D01*
X124833520Y-76615049D01*
X124823030Y-76592871D01*
X124814765Y-76569771D01*
X124808804Y-76545973D01*
X124805204Y-76521704D01*
X124804000Y-76497200D01*
X124804000Y-75572200D01*
X124805204Y-75547696D01*
X124808804Y-75523427D01*
X124814765Y-75499629D01*
X124823030Y-75476529D01*
X124833520Y-75454351D01*
X124846133Y-75433307D01*
X124860747Y-75413602D01*
X124877223Y-75395423D01*
X124895402Y-75378947D01*
X124915107Y-75364333D01*
X124936151Y-75351720D01*
X124958329Y-75341230D01*
X124981429Y-75332965D01*
X125005227Y-75327004D01*
X125029496Y-75323404D01*
X125054000Y-75322200D01*
X126304000Y-75322200D01*
X126328504Y-75323404D01*
X126328504Y-75323404D01*
G37*
D11*
X125679000Y-76034700D03*
D10*
G36*
X128868504Y-92776404D02*
G01*
X128892773Y-92780004D01*
X128916571Y-92785965D01*
X128939671Y-92794230D01*
X128961849Y-92804720D01*
X128982893Y-92817333D01*
X129002598Y-92831947D01*
X129020777Y-92848423D01*
X129037253Y-92866602D01*
X129051867Y-92886307D01*
X129064480Y-92907351D01*
X129074970Y-92929529D01*
X129083235Y-92952629D01*
X129089196Y-92976427D01*
X129092796Y-93000696D01*
X129094000Y-93025200D01*
X129094000Y-93950200D01*
X129092796Y-93974704D01*
X129089196Y-93998973D01*
X129083235Y-94022771D01*
X129074970Y-94045871D01*
X129064480Y-94068049D01*
X129051867Y-94089093D01*
X129037253Y-94108798D01*
X129020777Y-94126977D01*
X129002598Y-94143453D01*
X128982893Y-94158067D01*
X128961849Y-94170680D01*
X128939671Y-94181170D01*
X128916571Y-94189435D01*
X128892773Y-94195396D01*
X128868504Y-94198996D01*
X128844000Y-94200200D01*
X127594000Y-94200200D01*
X127569496Y-94198996D01*
X127545227Y-94195396D01*
X127521429Y-94189435D01*
X127498329Y-94181170D01*
X127476151Y-94170680D01*
X127455107Y-94158067D01*
X127435402Y-94143453D01*
X127417223Y-94126977D01*
X127400747Y-94108798D01*
X127386133Y-94089093D01*
X127373520Y-94068049D01*
X127363030Y-94045871D01*
X127354765Y-94022771D01*
X127348804Y-93998973D01*
X127345204Y-93974704D01*
X127344000Y-93950200D01*
X127344000Y-93025200D01*
X127345204Y-93000696D01*
X127348804Y-92976427D01*
X127354765Y-92952629D01*
X127363030Y-92929529D01*
X127373520Y-92907351D01*
X127386133Y-92886307D01*
X127400747Y-92866602D01*
X127417223Y-92848423D01*
X127435402Y-92831947D01*
X127455107Y-92817333D01*
X127476151Y-92804720D01*
X127498329Y-92794230D01*
X127521429Y-92785965D01*
X127545227Y-92780004D01*
X127569496Y-92776404D01*
X127594000Y-92775200D01*
X128844000Y-92775200D01*
X128868504Y-92776404D01*
X128868504Y-92776404D01*
G37*
D11*
X128219000Y-93487700D03*
D10*
G36*
X128868504Y-89801404D02*
G01*
X128892773Y-89805004D01*
X128916571Y-89810965D01*
X128939671Y-89819230D01*
X128961849Y-89829720D01*
X128982893Y-89842333D01*
X129002598Y-89856947D01*
X129020777Y-89873423D01*
X129037253Y-89891602D01*
X129051867Y-89911307D01*
X129064480Y-89932351D01*
X129074970Y-89954529D01*
X129083235Y-89977629D01*
X129089196Y-90001427D01*
X129092796Y-90025696D01*
X129094000Y-90050200D01*
X129094000Y-90975200D01*
X129092796Y-90999704D01*
X129089196Y-91023973D01*
X129083235Y-91047771D01*
X129074970Y-91070871D01*
X129064480Y-91093049D01*
X129051867Y-91114093D01*
X129037253Y-91133798D01*
X129020777Y-91151977D01*
X129002598Y-91168453D01*
X128982893Y-91183067D01*
X128961849Y-91195680D01*
X128939671Y-91206170D01*
X128916571Y-91214435D01*
X128892773Y-91220396D01*
X128868504Y-91223996D01*
X128844000Y-91225200D01*
X127594000Y-91225200D01*
X127569496Y-91223996D01*
X127545227Y-91220396D01*
X127521429Y-91214435D01*
X127498329Y-91206170D01*
X127476151Y-91195680D01*
X127455107Y-91183067D01*
X127435402Y-91168453D01*
X127417223Y-91151977D01*
X127400747Y-91133798D01*
X127386133Y-91114093D01*
X127373520Y-91093049D01*
X127363030Y-91070871D01*
X127354765Y-91047771D01*
X127348804Y-91023973D01*
X127345204Y-90999704D01*
X127344000Y-90975200D01*
X127344000Y-90050200D01*
X127345204Y-90025696D01*
X127348804Y-90001427D01*
X127354765Y-89977629D01*
X127363030Y-89954529D01*
X127373520Y-89932351D01*
X127386133Y-89911307D01*
X127400747Y-89891602D01*
X127417223Y-89873423D01*
X127435402Y-89856947D01*
X127455107Y-89842333D01*
X127476151Y-89829720D01*
X127498329Y-89819230D01*
X127521429Y-89810965D01*
X127545227Y-89805004D01*
X127569496Y-89801404D01*
X127594000Y-89800200D01*
X128844000Y-89800200D01*
X128868504Y-89801404D01*
X128868504Y-89801404D01*
G37*
D11*
X128219000Y-90512700D03*
D10*
G36*
X109946504Y-78426404D02*
G01*
X109970773Y-78430004D01*
X109994571Y-78435965D01*
X110017671Y-78444230D01*
X110039849Y-78454720D01*
X110060893Y-78467333D01*
X110080598Y-78481947D01*
X110098777Y-78498423D01*
X110115253Y-78516602D01*
X110129867Y-78536307D01*
X110142480Y-78557351D01*
X110152970Y-78579529D01*
X110161235Y-78602629D01*
X110167196Y-78626427D01*
X110170796Y-78650696D01*
X110172000Y-78675200D01*
X110172000Y-79925200D01*
X110170796Y-79949704D01*
X110167196Y-79973973D01*
X110161235Y-79997771D01*
X110152970Y-80020871D01*
X110142480Y-80043049D01*
X110129867Y-80064093D01*
X110115253Y-80083798D01*
X110098777Y-80101977D01*
X110080598Y-80118453D01*
X110060893Y-80133067D01*
X110039849Y-80145680D01*
X110017671Y-80156170D01*
X109994571Y-80164435D01*
X109970773Y-80170396D01*
X109946504Y-80173996D01*
X109922000Y-80175200D01*
X108997000Y-80175200D01*
X108972496Y-80173996D01*
X108948227Y-80170396D01*
X108924429Y-80164435D01*
X108901329Y-80156170D01*
X108879151Y-80145680D01*
X108858107Y-80133067D01*
X108838402Y-80118453D01*
X108820223Y-80101977D01*
X108803747Y-80083798D01*
X108789133Y-80064093D01*
X108776520Y-80043049D01*
X108766030Y-80020871D01*
X108757765Y-79997771D01*
X108751804Y-79973973D01*
X108748204Y-79949704D01*
X108747000Y-79925200D01*
X108747000Y-78675200D01*
X108748204Y-78650696D01*
X108751804Y-78626427D01*
X108757765Y-78602629D01*
X108766030Y-78579529D01*
X108776520Y-78557351D01*
X108789133Y-78536307D01*
X108803747Y-78516602D01*
X108820223Y-78498423D01*
X108838402Y-78481947D01*
X108858107Y-78467333D01*
X108879151Y-78454720D01*
X108901329Y-78444230D01*
X108924429Y-78435965D01*
X108948227Y-78430004D01*
X108972496Y-78426404D01*
X108997000Y-78425200D01*
X109922000Y-78425200D01*
X109946504Y-78426404D01*
X109946504Y-78426404D01*
G37*
D11*
X109459500Y-79300200D03*
D10*
G36*
X112921504Y-78426404D02*
G01*
X112945773Y-78430004D01*
X112969571Y-78435965D01*
X112992671Y-78444230D01*
X113014849Y-78454720D01*
X113035893Y-78467333D01*
X113055598Y-78481947D01*
X113073777Y-78498423D01*
X113090253Y-78516602D01*
X113104867Y-78536307D01*
X113117480Y-78557351D01*
X113127970Y-78579529D01*
X113136235Y-78602629D01*
X113142196Y-78626427D01*
X113145796Y-78650696D01*
X113147000Y-78675200D01*
X113147000Y-79925200D01*
X113145796Y-79949704D01*
X113142196Y-79973973D01*
X113136235Y-79997771D01*
X113127970Y-80020871D01*
X113117480Y-80043049D01*
X113104867Y-80064093D01*
X113090253Y-80083798D01*
X113073777Y-80101977D01*
X113055598Y-80118453D01*
X113035893Y-80133067D01*
X113014849Y-80145680D01*
X112992671Y-80156170D01*
X112969571Y-80164435D01*
X112945773Y-80170396D01*
X112921504Y-80173996D01*
X112897000Y-80175200D01*
X111972000Y-80175200D01*
X111947496Y-80173996D01*
X111923227Y-80170396D01*
X111899429Y-80164435D01*
X111876329Y-80156170D01*
X111854151Y-80145680D01*
X111833107Y-80133067D01*
X111813402Y-80118453D01*
X111795223Y-80101977D01*
X111778747Y-80083798D01*
X111764133Y-80064093D01*
X111751520Y-80043049D01*
X111741030Y-80020871D01*
X111732765Y-79997771D01*
X111726804Y-79973973D01*
X111723204Y-79949704D01*
X111722000Y-79925200D01*
X111722000Y-78675200D01*
X111723204Y-78650696D01*
X111726804Y-78626427D01*
X111732765Y-78602629D01*
X111741030Y-78579529D01*
X111751520Y-78557351D01*
X111764133Y-78536307D01*
X111778747Y-78516602D01*
X111795223Y-78498423D01*
X111813402Y-78481947D01*
X111833107Y-78467333D01*
X111854151Y-78454720D01*
X111876329Y-78444230D01*
X111899429Y-78435965D01*
X111923227Y-78430004D01*
X111947496Y-78426404D01*
X111972000Y-78425200D01*
X112897000Y-78425200D01*
X112921504Y-78426404D01*
X112921504Y-78426404D01*
G37*
D11*
X112434500Y-79300200D03*
D14*
X105887000Y-82826200D03*
X105887000Y-85426200D03*
D10*
G36*
X141747504Y-74310204D02*
G01*
X141771773Y-74313804D01*
X141795571Y-74319765D01*
X141818671Y-74328030D01*
X141840849Y-74338520D01*
X141861893Y-74351133D01*
X141881598Y-74365747D01*
X141899777Y-74382223D01*
X141916253Y-74400402D01*
X141930867Y-74420107D01*
X141943480Y-74441151D01*
X141953970Y-74463329D01*
X141962235Y-74486429D01*
X141968196Y-74510227D01*
X141971796Y-74534496D01*
X141973000Y-74559000D01*
X141973000Y-75809000D01*
X141971796Y-75833504D01*
X141968196Y-75857773D01*
X141962235Y-75881571D01*
X141953970Y-75904671D01*
X141943480Y-75926849D01*
X141930867Y-75947893D01*
X141916253Y-75967598D01*
X141899777Y-75985777D01*
X141881598Y-76002253D01*
X141861893Y-76016867D01*
X141840849Y-76029480D01*
X141818671Y-76039970D01*
X141795571Y-76048235D01*
X141771773Y-76054196D01*
X141747504Y-76057796D01*
X141723000Y-76059000D01*
X140798000Y-76059000D01*
X140773496Y-76057796D01*
X140749227Y-76054196D01*
X140725429Y-76048235D01*
X140702329Y-76039970D01*
X140680151Y-76029480D01*
X140659107Y-76016867D01*
X140639402Y-76002253D01*
X140621223Y-75985777D01*
X140604747Y-75967598D01*
X140590133Y-75947893D01*
X140577520Y-75926849D01*
X140567030Y-75904671D01*
X140558765Y-75881571D01*
X140552804Y-75857773D01*
X140549204Y-75833504D01*
X140548000Y-75809000D01*
X140548000Y-74559000D01*
X140549204Y-74534496D01*
X140552804Y-74510227D01*
X140558765Y-74486429D01*
X140567030Y-74463329D01*
X140577520Y-74441151D01*
X140590133Y-74420107D01*
X140604747Y-74400402D01*
X140621223Y-74382223D01*
X140639402Y-74365747D01*
X140659107Y-74351133D01*
X140680151Y-74338520D01*
X140702329Y-74328030D01*
X140725429Y-74319765D01*
X140749227Y-74313804D01*
X140773496Y-74310204D01*
X140798000Y-74309000D01*
X141723000Y-74309000D01*
X141747504Y-74310204D01*
X141747504Y-74310204D01*
G37*
D11*
X141260500Y-75184000D03*
D10*
G36*
X144722504Y-74310204D02*
G01*
X144746773Y-74313804D01*
X144770571Y-74319765D01*
X144793671Y-74328030D01*
X144815849Y-74338520D01*
X144836893Y-74351133D01*
X144856598Y-74365747D01*
X144874777Y-74382223D01*
X144891253Y-74400402D01*
X144905867Y-74420107D01*
X144918480Y-74441151D01*
X144928970Y-74463329D01*
X144937235Y-74486429D01*
X144943196Y-74510227D01*
X144946796Y-74534496D01*
X144948000Y-74559000D01*
X144948000Y-75809000D01*
X144946796Y-75833504D01*
X144943196Y-75857773D01*
X144937235Y-75881571D01*
X144928970Y-75904671D01*
X144918480Y-75926849D01*
X144905867Y-75947893D01*
X144891253Y-75967598D01*
X144874777Y-75985777D01*
X144856598Y-76002253D01*
X144836893Y-76016867D01*
X144815849Y-76029480D01*
X144793671Y-76039970D01*
X144770571Y-76048235D01*
X144746773Y-76054196D01*
X144722504Y-76057796D01*
X144698000Y-76059000D01*
X143773000Y-76059000D01*
X143748496Y-76057796D01*
X143724227Y-76054196D01*
X143700429Y-76048235D01*
X143677329Y-76039970D01*
X143655151Y-76029480D01*
X143634107Y-76016867D01*
X143614402Y-76002253D01*
X143596223Y-75985777D01*
X143579747Y-75967598D01*
X143565133Y-75947893D01*
X143552520Y-75926849D01*
X143542030Y-75904671D01*
X143533765Y-75881571D01*
X143527804Y-75857773D01*
X143524204Y-75833504D01*
X143523000Y-75809000D01*
X143523000Y-74559000D01*
X143524204Y-74534496D01*
X143527804Y-74510227D01*
X143533765Y-74486429D01*
X143542030Y-74463329D01*
X143552520Y-74441151D01*
X143565133Y-74420107D01*
X143579747Y-74400402D01*
X143596223Y-74382223D01*
X143614402Y-74365747D01*
X143634107Y-74351133D01*
X143655151Y-74338520D01*
X143677329Y-74328030D01*
X143700429Y-74319765D01*
X143724227Y-74313804D01*
X143748496Y-74310204D01*
X143773000Y-74309000D01*
X144698000Y-74309000D01*
X144722504Y-74310204D01*
X144722504Y-74310204D01*
G37*
D11*
X144235500Y-75184000D03*
D10*
G36*
X148351504Y-74310204D02*
G01*
X148375773Y-74313804D01*
X148399571Y-74319765D01*
X148422671Y-74328030D01*
X148444849Y-74338520D01*
X148465893Y-74351133D01*
X148485598Y-74365747D01*
X148503777Y-74382223D01*
X148520253Y-74400402D01*
X148534867Y-74420107D01*
X148547480Y-74441151D01*
X148557970Y-74463329D01*
X148566235Y-74486429D01*
X148572196Y-74510227D01*
X148575796Y-74534496D01*
X148577000Y-74559000D01*
X148577000Y-75809000D01*
X148575796Y-75833504D01*
X148572196Y-75857773D01*
X148566235Y-75881571D01*
X148557970Y-75904671D01*
X148547480Y-75926849D01*
X148534867Y-75947893D01*
X148520253Y-75967598D01*
X148503777Y-75985777D01*
X148485598Y-76002253D01*
X148465893Y-76016867D01*
X148444849Y-76029480D01*
X148422671Y-76039970D01*
X148399571Y-76048235D01*
X148375773Y-76054196D01*
X148351504Y-76057796D01*
X148327000Y-76059000D01*
X147402000Y-76059000D01*
X147377496Y-76057796D01*
X147353227Y-76054196D01*
X147329429Y-76048235D01*
X147306329Y-76039970D01*
X147284151Y-76029480D01*
X147263107Y-76016867D01*
X147243402Y-76002253D01*
X147225223Y-75985777D01*
X147208747Y-75967598D01*
X147194133Y-75947893D01*
X147181520Y-75926849D01*
X147171030Y-75904671D01*
X147162765Y-75881571D01*
X147156804Y-75857773D01*
X147153204Y-75833504D01*
X147152000Y-75809000D01*
X147152000Y-74559000D01*
X147153204Y-74534496D01*
X147156804Y-74510227D01*
X147162765Y-74486429D01*
X147171030Y-74463329D01*
X147181520Y-74441151D01*
X147194133Y-74420107D01*
X147208747Y-74400402D01*
X147225223Y-74382223D01*
X147243402Y-74365747D01*
X147263107Y-74351133D01*
X147284151Y-74338520D01*
X147306329Y-74328030D01*
X147329429Y-74319765D01*
X147353227Y-74313804D01*
X147377496Y-74310204D01*
X147402000Y-74309000D01*
X148327000Y-74309000D01*
X148351504Y-74310204D01*
X148351504Y-74310204D01*
G37*
D11*
X147864500Y-75184000D03*
D10*
G36*
X151326504Y-74310204D02*
G01*
X151350773Y-74313804D01*
X151374571Y-74319765D01*
X151397671Y-74328030D01*
X151419849Y-74338520D01*
X151440893Y-74351133D01*
X151460598Y-74365747D01*
X151478777Y-74382223D01*
X151495253Y-74400402D01*
X151509867Y-74420107D01*
X151522480Y-74441151D01*
X151532970Y-74463329D01*
X151541235Y-74486429D01*
X151547196Y-74510227D01*
X151550796Y-74534496D01*
X151552000Y-74559000D01*
X151552000Y-75809000D01*
X151550796Y-75833504D01*
X151547196Y-75857773D01*
X151541235Y-75881571D01*
X151532970Y-75904671D01*
X151522480Y-75926849D01*
X151509867Y-75947893D01*
X151495253Y-75967598D01*
X151478777Y-75985777D01*
X151460598Y-76002253D01*
X151440893Y-76016867D01*
X151419849Y-76029480D01*
X151397671Y-76039970D01*
X151374571Y-76048235D01*
X151350773Y-76054196D01*
X151326504Y-76057796D01*
X151302000Y-76059000D01*
X150377000Y-76059000D01*
X150352496Y-76057796D01*
X150328227Y-76054196D01*
X150304429Y-76048235D01*
X150281329Y-76039970D01*
X150259151Y-76029480D01*
X150238107Y-76016867D01*
X150218402Y-76002253D01*
X150200223Y-75985777D01*
X150183747Y-75967598D01*
X150169133Y-75947893D01*
X150156520Y-75926849D01*
X150146030Y-75904671D01*
X150137765Y-75881571D01*
X150131804Y-75857773D01*
X150128204Y-75833504D01*
X150127000Y-75809000D01*
X150127000Y-74559000D01*
X150128204Y-74534496D01*
X150131804Y-74510227D01*
X150137765Y-74486429D01*
X150146030Y-74463329D01*
X150156520Y-74441151D01*
X150169133Y-74420107D01*
X150183747Y-74400402D01*
X150200223Y-74382223D01*
X150218402Y-74365747D01*
X150238107Y-74351133D01*
X150259151Y-74338520D01*
X150281329Y-74328030D01*
X150304429Y-74319765D01*
X150328227Y-74313804D01*
X150352496Y-74310204D01*
X150377000Y-74309000D01*
X151302000Y-74309000D01*
X151326504Y-74310204D01*
X151326504Y-74310204D01*
G37*
D11*
X150839500Y-75184000D03*
D10*
G36*
X155463504Y-74310204D02*
G01*
X155487773Y-74313804D01*
X155511571Y-74319765D01*
X155534671Y-74328030D01*
X155556849Y-74338520D01*
X155577893Y-74351133D01*
X155597598Y-74365747D01*
X155615777Y-74382223D01*
X155632253Y-74400402D01*
X155646867Y-74420107D01*
X155659480Y-74441151D01*
X155669970Y-74463329D01*
X155678235Y-74486429D01*
X155684196Y-74510227D01*
X155687796Y-74534496D01*
X155689000Y-74559000D01*
X155689000Y-75809000D01*
X155687796Y-75833504D01*
X155684196Y-75857773D01*
X155678235Y-75881571D01*
X155669970Y-75904671D01*
X155659480Y-75926849D01*
X155646867Y-75947893D01*
X155632253Y-75967598D01*
X155615777Y-75985777D01*
X155597598Y-76002253D01*
X155577893Y-76016867D01*
X155556849Y-76029480D01*
X155534671Y-76039970D01*
X155511571Y-76048235D01*
X155487773Y-76054196D01*
X155463504Y-76057796D01*
X155439000Y-76059000D01*
X154514000Y-76059000D01*
X154489496Y-76057796D01*
X154465227Y-76054196D01*
X154441429Y-76048235D01*
X154418329Y-76039970D01*
X154396151Y-76029480D01*
X154375107Y-76016867D01*
X154355402Y-76002253D01*
X154337223Y-75985777D01*
X154320747Y-75967598D01*
X154306133Y-75947893D01*
X154293520Y-75926849D01*
X154283030Y-75904671D01*
X154274765Y-75881571D01*
X154268804Y-75857773D01*
X154265204Y-75833504D01*
X154264000Y-75809000D01*
X154264000Y-74559000D01*
X154265204Y-74534496D01*
X154268804Y-74510227D01*
X154274765Y-74486429D01*
X154283030Y-74463329D01*
X154293520Y-74441151D01*
X154306133Y-74420107D01*
X154320747Y-74400402D01*
X154337223Y-74382223D01*
X154355402Y-74365747D01*
X154375107Y-74351133D01*
X154396151Y-74338520D01*
X154418329Y-74328030D01*
X154441429Y-74319765D01*
X154465227Y-74313804D01*
X154489496Y-74310204D01*
X154514000Y-74309000D01*
X155439000Y-74309000D01*
X155463504Y-74310204D01*
X155463504Y-74310204D01*
G37*
D11*
X154976500Y-75184000D03*
D10*
G36*
X158438504Y-74310204D02*
G01*
X158462773Y-74313804D01*
X158486571Y-74319765D01*
X158509671Y-74328030D01*
X158531849Y-74338520D01*
X158552893Y-74351133D01*
X158572598Y-74365747D01*
X158590777Y-74382223D01*
X158607253Y-74400402D01*
X158621867Y-74420107D01*
X158634480Y-74441151D01*
X158644970Y-74463329D01*
X158653235Y-74486429D01*
X158659196Y-74510227D01*
X158662796Y-74534496D01*
X158664000Y-74559000D01*
X158664000Y-75809000D01*
X158662796Y-75833504D01*
X158659196Y-75857773D01*
X158653235Y-75881571D01*
X158644970Y-75904671D01*
X158634480Y-75926849D01*
X158621867Y-75947893D01*
X158607253Y-75967598D01*
X158590777Y-75985777D01*
X158572598Y-76002253D01*
X158552893Y-76016867D01*
X158531849Y-76029480D01*
X158509671Y-76039970D01*
X158486571Y-76048235D01*
X158462773Y-76054196D01*
X158438504Y-76057796D01*
X158414000Y-76059000D01*
X157489000Y-76059000D01*
X157464496Y-76057796D01*
X157440227Y-76054196D01*
X157416429Y-76048235D01*
X157393329Y-76039970D01*
X157371151Y-76029480D01*
X157350107Y-76016867D01*
X157330402Y-76002253D01*
X157312223Y-75985777D01*
X157295747Y-75967598D01*
X157281133Y-75947893D01*
X157268520Y-75926849D01*
X157258030Y-75904671D01*
X157249765Y-75881571D01*
X157243804Y-75857773D01*
X157240204Y-75833504D01*
X157239000Y-75809000D01*
X157239000Y-74559000D01*
X157240204Y-74534496D01*
X157243804Y-74510227D01*
X157249765Y-74486429D01*
X157258030Y-74463329D01*
X157268520Y-74441151D01*
X157281133Y-74420107D01*
X157295747Y-74400402D01*
X157312223Y-74382223D01*
X157330402Y-74365747D01*
X157350107Y-74351133D01*
X157371151Y-74338520D01*
X157393329Y-74328030D01*
X157416429Y-74319765D01*
X157440227Y-74313804D01*
X157464496Y-74310204D01*
X157489000Y-74309000D01*
X158414000Y-74309000D01*
X158438504Y-74310204D01*
X158438504Y-74310204D01*
G37*
D11*
X157951500Y-75184000D03*
D10*
G36*
X134964504Y-69662404D02*
G01*
X134988773Y-69666004D01*
X135012571Y-69671965D01*
X135035671Y-69680230D01*
X135057849Y-69690720D01*
X135078893Y-69703333D01*
X135098598Y-69717947D01*
X135116777Y-69734423D01*
X135133253Y-69752602D01*
X135147867Y-69772307D01*
X135160480Y-69793351D01*
X135170970Y-69815529D01*
X135179235Y-69838629D01*
X135185196Y-69862427D01*
X135188796Y-69886696D01*
X135190000Y-69911200D01*
X135190000Y-70836200D01*
X135188796Y-70860704D01*
X135185196Y-70884973D01*
X135179235Y-70908771D01*
X135170970Y-70931871D01*
X135160480Y-70954049D01*
X135147867Y-70975093D01*
X135133253Y-70994798D01*
X135116777Y-71012977D01*
X135098598Y-71029453D01*
X135078893Y-71044067D01*
X135057849Y-71056680D01*
X135035671Y-71067170D01*
X135012571Y-71075435D01*
X134988773Y-71081396D01*
X134964504Y-71084996D01*
X134940000Y-71086200D01*
X133690000Y-71086200D01*
X133665496Y-71084996D01*
X133641227Y-71081396D01*
X133617429Y-71075435D01*
X133594329Y-71067170D01*
X133572151Y-71056680D01*
X133551107Y-71044067D01*
X133531402Y-71029453D01*
X133513223Y-71012977D01*
X133496747Y-70994798D01*
X133482133Y-70975093D01*
X133469520Y-70954049D01*
X133459030Y-70931871D01*
X133450765Y-70908771D01*
X133444804Y-70884973D01*
X133441204Y-70860704D01*
X133440000Y-70836200D01*
X133440000Y-69911200D01*
X133441204Y-69886696D01*
X133444804Y-69862427D01*
X133450765Y-69838629D01*
X133459030Y-69815529D01*
X133469520Y-69793351D01*
X133482133Y-69772307D01*
X133496747Y-69752602D01*
X133513223Y-69734423D01*
X133531402Y-69717947D01*
X133551107Y-69703333D01*
X133572151Y-69690720D01*
X133594329Y-69680230D01*
X133617429Y-69671965D01*
X133641227Y-69666004D01*
X133665496Y-69662404D01*
X133690000Y-69661200D01*
X134940000Y-69661200D01*
X134964504Y-69662404D01*
X134964504Y-69662404D01*
G37*
D11*
X134315000Y-70373700D03*
D10*
G36*
X134964504Y-66687404D02*
G01*
X134988773Y-66691004D01*
X135012571Y-66696965D01*
X135035671Y-66705230D01*
X135057849Y-66715720D01*
X135078893Y-66728333D01*
X135098598Y-66742947D01*
X135116777Y-66759423D01*
X135133253Y-66777602D01*
X135147867Y-66797307D01*
X135160480Y-66818351D01*
X135170970Y-66840529D01*
X135179235Y-66863629D01*
X135185196Y-66887427D01*
X135188796Y-66911696D01*
X135190000Y-66936200D01*
X135190000Y-67861200D01*
X135188796Y-67885704D01*
X135185196Y-67909973D01*
X135179235Y-67933771D01*
X135170970Y-67956871D01*
X135160480Y-67979049D01*
X135147867Y-68000093D01*
X135133253Y-68019798D01*
X135116777Y-68037977D01*
X135098598Y-68054453D01*
X135078893Y-68069067D01*
X135057849Y-68081680D01*
X135035671Y-68092170D01*
X135012571Y-68100435D01*
X134988773Y-68106396D01*
X134964504Y-68109996D01*
X134940000Y-68111200D01*
X133690000Y-68111200D01*
X133665496Y-68109996D01*
X133641227Y-68106396D01*
X133617429Y-68100435D01*
X133594329Y-68092170D01*
X133572151Y-68081680D01*
X133551107Y-68069067D01*
X133531402Y-68054453D01*
X133513223Y-68037977D01*
X133496747Y-68019798D01*
X133482133Y-68000093D01*
X133469520Y-67979049D01*
X133459030Y-67956871D01*
X133450765Y-67933771D01*
X133444804Y-67909973D01*
X133441204Y-67885704D01*
X133440000Y-67861200D01*
X133440000Y-66936200D01*
X133441204Y-66911696D01*
X133444804Y-66887427D01*
X133450765Y-66863629D01*
X133459030Y-66840529D01*
X133469520Y-66818351D01*
X133482133Y-66797307D01*
X133496747Y-66777602D01*
X133513223Y-66759423D01*
X133531402Y-66742947D01*
X133551107Y-66728333D01*
X133572151Y-66715720D01*
X133594329Y-66705230D01*
X133617429Y-66696965D01*
X133641227Y-66691004D01*
X133665496Y-66687404D01*
X133690000Y-66686200D01*
X134940000Y-66686200D01*
X134964504Y-66687404D01*
X134964504Y-66687404D01*
G37*
D11*
X134315000Y-67398700D03*
D10*
G36*
X147843504Y-88280204D02*
G01*
X147867773Y-88283804D01*
X147891571Y-88289765D01*
X147914671Y-88298030D01*
X147936849Y-88308520D01*
X147957893Y-88321133D01*
X147977598Y-88335747D01*
X147995777Y-88352223D01*
X148012253Y-88370402D01*
X148026867Y-88390107D01*
X148039480Y-88411151D01*
X148049970Y-88433329D01*
X148058235Y-88456429D01*
X148064196Y-88480227D01*
X148067796Y-88504496D01*
X148069000Y-88529000D01*
X148069000Y-89779000D01*
X148067796Y-89803504D01*
X148064196Y-89827773D01*
X148058235Y-89851571D01*
X148049970Y-89874671D01*
X148039480Y-89896849D01*
X148026867Y-89917893D01*
X148012253Y-89937598D01*
X147995777Y-89955777D01*
X147977598Y-89972253D01*
X147957893Y-89986867D01*
X147936849Y-89999480D01*
X147914671Y-90009970D01*
X147891571Y-90018235D01*
X147867773Y-90024196D01*
X147843504Y-90027796D01*
X147819000Y-90029000D01*
X146894000Y-90029000D01*
X146869496Y-90027796D01*
X146845227Y-90024196D01*
X146821429Y-90018235D01*
X146798329Y-90009970D01*
X146776151Y-89999480D01*
X146755107Y-89986867D01*
X146735402Y-89972253D01*
X146717223Y-89955777D01*
X146700747Y-89937598D01*
X146686133Y-89917893D01*
X146673520Y-89896849D01*
X146663030Y-89874671D01*
X146654765Y-89851571D01*
X146648804Y-89827773D01*
X146645204Y-89803504D01*
X146644000Y-89779000D01*
X146644000Y-88529000D01*
X146645204Y-88504496D01*
X146648804Y-88480227D01*
X146654765Y-88456429D01*
X146663030Y-88433329D01*
X146673520Y-88411151D01*
X146686133Y-88390107D01*
X146700747Y-88370402D01*
X146717223Y-88352223D01*
X146735402Y-88335747D01*
X146755107Y-88321133D01*
X146776151Y-88308520D01*
X146798329Y-88298030D01*
X146821429Y-88289765D01*
X146845227Y-88283804D01*
X146869496Y-88280204D01*
X146894000Y-88279000D01*
X147819000Y-88279000D01*
X147843504Y-88280204D01*
X147843504Y-88280204D01*
G37*
D11*
X147356500Y-89154000D03*
D10*
G36*
X150818504Y-88280204D02*
G01*
X150842773Y-88283804D01*
X150866571Y-88289765D01*
X150889671Y-88298030D01*
X150911849Y-88308520D01*
X150932893Y-88321133D01*
X150952598Y-88335747D01*
X150970777Y-88352223D01*
X150987253Y-88370402D01*
X151001867Y-88390107D01*
X151014480Y-88411151D01*
X151024970Y-88433329D01*
X151033235Y-88456429D01*
X151039196Y-88480227D01*
X151042796Y-88504496D01*
X151044000Y-88529000D01*
X151044000Y-89779000D01*
X151042796Y-89803504D01*
X151039196Y-89827773D01*
X151033235Y-89851571D01*
X151024970Y-89874671D01*
X151014480Y-89896849D01*
X151001867Y-89917893D01*
X150987253Y-89937598D01*
X150970777Y-89955777D01*
X150952598Y-89972253D01*
X150932893Y-89986867D01*
X150911849Y-89999480D01*
X150889671Y-90009970D01*
X150866571Y-90018235D01*
X150842773Y-90024196D01*
X150818504Y-90027796D01*
X150794000Y-90029000D01*
X149869000Y-90029000D01*
X149844496Y-90027796D01*
X149820227Y-90024196D01*
X149796429Y-90018235D01*
X149773329Y-90009970D01*
X149751151Y-89999480D01*
X149730107Y-89986867D01*
X149710402Y-89972253D01*
X149692223Y-89955777D01*
X149675747Y-89937598D01*
X149661133Y-89917893D01*
X149648520Y-89896849D01*
X149638030Y-89874671D01*
X149629765Y-89851571D01*
X149623804Y-89827773D01*
X149620204Y-89803504D01*
X149619000Y-89779000D01*
X149619000Y-88529000D01*
X149620204Y-88504496D01*
X149623804Y-88480227D01*
X149629765Y-88456429D01*
X149638030Y-88433329D01*
X149648520Y-88411151D01*
X149661133Y-88390107D01*
X149675747Y-88370402D01*
X149692223Y-88352223D01*
X149710402Y-88335747D01*
X149730107Y-88321133D01*
X149751151Y-88308520D01*
X149773329Y-88298030D01*
X149796429Y-88289765D01*
X149820227Y-88283804D01*
X149844496Y-88280204D01*
X149869000Y-88279000D01*
X150794000Y-88279000D01*
X150818504Y-88280204D01*
X150818504Y-88280204D01*
G37*
D11*
X150331500Y-89154000D03*
D10*
G36*
X116364504Y-65925404D02*
G01*
X116388773Y-65929004D01*
X116412571Y-65934965D01*
X116435671Y-65943230D01*
X116457849Y-65953720D01*
X116478893Y-65966333D01*
X116498598Y-65980947D01*
X116516777Y-65997423D01*
X116533253Y-66015602D01*
X116547867Y-66035307D01*
X116560480Y-66056351D01*
X116570970Y-66078529D01*
X116579235Y-66101629D01*
X116585196Y-66125427D01*
X116588796Y-66149696D01*
X116590000Y-66174200D01*
X116590000Y-67099200D01*
X116588796Y-67123704D01*
X116585196Y-67147973D01*
X116579235Y-67171771D01*
X116570970Y-67194871D01*
X116560480Y-67217049D01*
X116547867Y-67238093D01*
X116533253Y-67257798D01*
X116516777Y-67275977D01*
X116498598Y-67292453D01*
X116478893Y-67307067D01*
X116457849Y-67319680D01*
X116435671Y-67330170D01*
X116412571Y-67338435D01*
X116388773Y-67344396D01*
X116364504Y-67347996D01*
X116340000Y-67349200D01*
X114190000Y-67349200D01*
X114165496Y-67347996D01*
X114141227Y-67344396D01*
X114117429Y-67338435D01*
X114094329Y-67330170D01*
X114072151Y-67319680D01*
X114051107Y-67307067D01*
X114031402Y-67292453D01*
X114013223Y-67275977D01*
X113996747Y-67257798D01*
X113982133Y-67238093D01*
X113969520Y-67217049D01*
X113959030Y-67194871D01*
X113950765Y-67171771D01*
X113944804Y-67147973D01*
X113941204Y-67123704D01*
X113940000Y-67099200D01*
X113940000Y-66174200D01*
X113941204Y-66149696D01*
X113944804Y-66125427D01*
X113950765Y-66101629D01*
X113959030Y-66078529D01*
X113969520Y-66056351D01*
X113982133Y-66035307D01*
X113996747Y-66015602D01*
X114013223Y-65997423D01*
X114031402Y-65980947D01*
X114051107Y-65966333D01*
X114072151Y-65953720D01*
X114094329Y-65943230D01*
X114117429Y-65934965D01*
X114141227Y-65929004D01*
X114165496Y-65925404D01*
X114190000Y-65924200D01*
X116340000Y-65924200D01*
X116364504Y-65925404D01*
X116364504Y-65925404D01*
G37*
D11*
X115265000Y-66636700D03*
D10*
G36*
X116364504Y-68900404D02*
G01*
X116388773Y-68904004D01*
X116412571Y-68909965D01*
X116435671Y-68918230D01*
X116457849Y-68928720D01*
X116478893Y-68941333D01*
X116498598Y-68955947D01*
X116516777Y-68972423D01*
X116533253Y-68990602D01*
X116547867Y-69010307D01*
X116560480Y-69031351D01*
X116570970Y-69053529D01*
X116579235Y-69076629D01*
X116585196Y-69100427D01*
X116588796Y-69124696D01*
X116590000Y-69149200D01*
X116590000Y-70074200D01*
X116588796Y-70098704D01*
X116585196Y-70122973D01*
X116579235Y-70146771D01*
X116570970Y-70169871D01*
X116560480Y-70192049D01*
X116547867Y-70213093D01*
X116533253Y-70232798D01*
X116516777Y-70250977D01*
X116498598Y-70267453D01*
X116478893Y-70282067D01*
X116457849Y-70294680D01*
X116435671Y-70305170D01*
X116412571Y-70313435D01*
X116388773Y-70319396D01*
X116364504Y-70322996D01*
X116340000Y-70324200D01*
X114190000Y-70324200D01*
X114165496Y-70322996D01*
X114141227Y-70319396D01*
X114117429Y-70313435D01*
X114094329Y-70305170D01*
X114072151Y-70294680D01*
X114051107Y-70282067D01*
X114031402Y-70267453D01*
X114013223Y-70250977D01*
X113996747Y-70232798D01*
X113982133Y-70213093D01*
X113969520Y-70192049D01*
X113959030Y-70169871D01*
X113950765Y-70146771D01*
X113944804Y-70122973D01*
X113941204Y-70098704D01*
X113940000Y-70074200D01*
X113940000Y-69149200D01*
X113941204Y-69124696D01*
X113944804Y-69100427D01*
X113950765Y-69076629D01*
X113959030Y-69053529D01*
X113969520Y-69031351D01*
X113982133Y-69010307D01*
X113996747Y-68990602D01*
X114013223Y-68972423D01*
X114031402Y-68955947D01*
X114051107Y-68941333D01*
X114072151Y-68928720D01*
X114094329Y-68918230D01*
X114117429Y-68909965D01*
X114141227Y-68904004D01*
X114165496Y-68900404D01*
X114190000Y-68899200D01*
X116340000Y-68899200D01*
X116364504Y-68900404D01*
X116364504Y-68900404D01*
G37*
D11*
X115265000Y-69611700D03*
D10*
G36*
X120936504Y-65925404D02*
G01*
X120960773Y-65929004D01*
X120984571Y-65934965D01*
X121007671Y-65943230D01*
X121029849Y-65953720D01*
X121050893Y-65966333D01*
X121070598Y-65980947D01*
X121088777Y-65997423D01*
X121105253Y-66015602D01*
X121119867Y-66035307D01*
X121132480Y-66056351D01*
X121142970Y-66078529D01*
X121151235Y-66101629D01*
X121157196Y-66125427D01*
X121160796Y-66149696D01*
X121162000Y-66174200D01*
X121162000Y-67099200D01*
X121160796Y-67123704D01*
X121157196Y-67147973D01*
X121151235Y-67171771D01*
X121142970Y-67194871D01*
X121132480Y-67217049D01*
X121119867Y-67238093D01*
X121105253Y-67257798D01*
X121088777Y-67275977D01*
X121070598Y-67292453D01*
X121050893Y-67307067D01*
X121029849Y-67319680D01*
X121007671Y-67330170D01*
X120984571Y-67338435D01*
X120960773Y-67344396D01*
X120936504Y-67347996D01*
X120912000Y-67349200D01*
X118762000Y-67349200D01*
X118737496Y-67347996D01*
X118713227Y-67344396D01*
X118689429Y-67338435D01*
X118666329Y-67330170D01*
X118644151Y-67319680D01*
X118623107Y-67307067D01*
X118603402Y-67292453D01*
X118585223Y-67275977D01*
X118568747Y-67257798D01*
X118554133Y-67238093D01*
X118541520Y-67217049D01*
X118531030Y-67194871D01*
X118522765Y-67171771D01*
X118516804Y-67147973D01*
X118513204Y-67123704D01*
X118512000Y-67099200D01*
X118512000Y-66174200D01*
X118513204Y-66149696D01*
X118516804Y-66125427D01*
X118522765Y-66101629D01*
X118531030Y-66078529D01*
X118541520Y-66056351D01*
X118554133Y-66035307D01*
X118568747Y-66015602D01*
X118585223Y-65997423D01*
X118603402Y-65980947D01*
X118623107Y-65966333D01*
X118644151Y-65953720D01*
X118666329Y-65943230D01*
X118689429Y-65934965D01*
X118713227Y-65929004D01*
X118737496Y-65925404D01*
X118762000Y-65924200D01*
X120912000Y-65924200D01*
X120936504Y-65925404D01*
X120936504Y-65925404D01*
G37*
D11*
X119837000Y-66636700D03*
D10*
G36*
X120936504Y-68900404D02*
G01*
X120960773Y-68904004D01*
X120984571Y-68909965D01*
X121007671Y-68918230D01*
X121029849Y-68928720D01*
X121050893Y-68941333D01*
X121070598Y-68955947D01*
X121088777Y-68972423D01*
X121105253Y-68990602D01*
X121119867Y-69010307D01*
X121132480Y-69031351D01*
X121142970Y-69053529D01*
X121151235Y-69076629D01*
X121157196Y-69100427D01*
X121160796Y-69124696D01*
X121162000Y-69149200D01*
X121162000Y-70074200D01*
X121160796Y-70098704D01*
X121157196Y-70122973D01*
X121151235Y-70146771D01*
X121142970Y-70169871D01*
X121132480Y-70192049D01*
X121119867Y-70213093D01*
X121105253Y-70232798D01*
X121088777Y-70250977D01*
X121070598Y-70267453D01*
X121050893Y-70282067D01*
X121029849Y-70294680D01*
X121007671Y-70305170D01*
X120984571Y-70313435D01*
X120960773Y-70319396D01*
X120936504Y-70322996D01*
X120912000Y-70324200D01*
X118762000Y-70324200D01*
X118737496Y-70322996D01*
X118713227Y-70319396D01*
X118689429Y-70313435D01*
X118666329Y-70305170D01*
X118644151Y-70294680D01*
X118623107Y-70282067D01*
X118603402Y-70267453D01*
X118585223Y-70250977D01*
X118568747Y-70232798D01*
X118554133Y-70213093D01*
X118541520Y-70192049D01*
X118531030Y-70169871D01*
X118522765Y-70146771D01*
X118516804Y-70122973D01*
X118513204Y-70098704D01*
X118512000Y-70074200D01*
X118512000Y-69149200D01*
X118513204Y-69124696D01*
X118516804Y-69100427D01*
X118522765Y-69076629D01*
X118531030Y-69053529D01*
X118541520Y-69031351D01*
X118554133Y-69010307D01*
X118568747Y-68990602D01*
X118585223Y-68972423D01*
X118603402Y-68955947D01*
X118623107Y-68941333D01*
X118644151Y-68928720D01*
X118666329Y-68918230D01*
X118689429Y-68909965D01*
X118713227Y-68904004D01*
X118737496Y-68900404D01*
X118762000Y-68899200D01*
X120912000Y-68899200D01*
X120936504Y-68900404D01*
X120936504Y-68900404D01*
G37*
D11*
X119837000Y-69611700D03*
D10*
G36*
X143271504Y-85232204D02*
G01*
X143295773Y-85235804D01*
X143319571Y-85241765D01*
X143342671Y-85250030D01*
X143364849Y-85260520D01*
X143385893Y-85273133D01*
X143405598Y-85287747D01*
X143423777Y-85304223D01*
X143440253Y-85322402D01*
X143454867Y-85342107D01*
X143467480Y-85363151D01*
X143477970Y-85385329D01*
X143486235Y-85408429D01*
X143492196Y-85432227D01*
X143495796Y-85456496D01*
X143497000Y-85481000D01*
X143497000Y-86731000D01*
X143495796Y-86755504D01*
X143492196Y-86779773D01*
X143486235Y-86803571D01*
X143477970Y-86826671D01*
X143467480Y-86848849D01*
X143454867Y-86869893D01*
X143440253Y-86889598D01*
X143423777Y-86907777D01*
X143405598Y-86924253D01*
X143385893Y-86938867D01*
X143364849Y-86951480D01*
X143342671Y-86961970D01*
X143319571Y-86970235D01*
X143295773Y-86976196D01*
X143271504Y-86979796D01*
X143247000Y-86981000D01*
X142322000Y-86981000D01*
X142297496Y-86979796D01*
X142273227Y-86976196D01*
X142249429Y-86970235D01*
X142226329Y-86961970D01*
X142204151Y-86951480D01*
X142183107Y-86938867D01*
X142163402Y-86924253D01*
X142145223Y-86907777D01*
X142128747Y-86889598D01*
X142114133Y-86869893D01*
X142101520Y-86848849D01*
X142091030Y-86826671D01*
X142082765Y-86803571D01*
X142076804Y-86779773D01*
X142073204Y-86755504D01*
X142072000Y-86731000D01*
X142072000Y-85481000D01*
X142073204Y-85456496D01*
X142076804Y-85432227D01*
X142082765Y-85408429D01*
X142091030Y-85385329D01*
X142101520Y-85363151D01*
X142114133Y-85342107D01*
X142128747Y-85322402D01*
X142145223Y-85304223D01*
X142163402Y-85287747D01*
X142183107Y-85273133D01*
X142204151Y-85260520D01*
X142226329Y-85250030D01*
X142249429Y-85241765D01*
X142273227Y-85235804D01*
X142297496Y-85232204D01*
X142322000Y-85231000D01*
X143247000Y-85231000D01*
X143271504Y-85232204D01*
X143271504Y-85232204D01*
G37*
D11*
X142784500Y-86106000D03*
D10*
G36*
X146246504Y-85232204D02*
G01*
X146270773Y-85235804D01*
X146294571Y-85241765D01*
X146317671Y-85250030D01*
X146339849Y-85260520D01*
X146360893Y-85273133D01*
X146380598Y-85287747D01*
X146398777Y-85304223D01*
X146415253Y-85322402D01*
X146429867Y-85342107D01*
X146442480Y-85363151D01*
X146452970Y-85385329D01*
X146461235Y-85408429D01*
X146467196Y-85432227D01*
X146470796Y-85456496D01*
X146472000Y-85481000D01*
X146472000Y-86731000D01*
X146470796Y-86755504D01*
X146467196Y-86779773D01*
X146461235Y-86803571D01*
X146452970Y-86826671D01*
X146442480Y-86848849D01*
X146429867Y-86869893D01*
X146415253Y-86889598D01*
X146398777Y-86907777D01*
X146380598Y-86924253D01*
X146360893Y-86938867D01*
X146339849Y-86951480D01*
X146317671Y-86961970D01*
X146294571Y-86970235D01*
X146270773Y-86976196D01*
X146246504Y-86979796D01*
X146222000Y-86981000D01*
X145297000Y-86981000D01*
X145272496Y-86979796D01*
X145248227Y-86976196D01*
X145224429Y-86970235D01*
X145201329Y-86961970D01*
X145179151Y-86951480D01*
X145158107Y-86938867D01*
X145138402Y-86924253D01*
X145120223Y-86907777D01*
X145103747Y-86889598D01*
X145089133Y-86869893D01*
X145076520Y-86848849D01*
X145066030Y-86826671D01*
X145057765Y-86803571D01*
X145051804Y-86779773D01*
X145048204Y-86755504D01*
X145047000Y-86731000D01*
X145047000Y-85481000D01*
X145048204Y-85456496D01*
X145051804Y-85432227D01*
X145057765Y-85408429D01*
X145066030Y-85385329D01*
X145076520Y-85363151D01*
X145089133Y-85342107D01*
X145103747Y-85322402D01*
X145120223Y-85304223D01*
X145138402Y-85287747D01*
X145158107Y-85273133D01*
X145179151Y-85260520D01*
X145201329Y-85250030D01*
X145224429Y-85241765D01*
X145248227Y-85235804D01*
X145272496Y-85232204D01*
X145297000Y-85231000D01*
X146222000Y-85231000D01*
X146246504Y-85232204D01*
X146246504Y-85232204D01*
G37*
D11*
X145759500Y-86106000D03*
D10*
G36*
X157168504Y-85232204D02*
G01*
X157192773Y-85235804D01*
X157216571Y-85241765D01*
X157239671Y-85250030D01*
X157261849Y-85260520D01*
X157282893Y-85273133D01*
X157302598Y-85287747D01*
X157320777Y-85304223D01*
X157337253Y-85322402D01*
X157351867Y-85342107D01*
X157364480Y-85363151D01*
X157374970Y-85385329D01*
X157383235Y-85408429D01*
X157389196Y-85432227D01*
X157392796Y-85456496D01*
X157394000Y-85481000D01*
X157394000Y-86731000D01*
X157392796Y-86755504D01*
X157389196Y-86779773D01*
X157383235Y-86803571D01*
X157374970Y-86826671D01*
X157364480Y-86848849D01*
X157351867Y-86869893D01*
X157337253Y-86889598D01*
X157320777Y-86907777D01*
X157302598Y-86924253D01*
X157282893Y-86938867D01*
X157261849Y-86951480D01*
X157239671Y-86961970D01*
X157216571Y-86970235D01*
X157192773Y-86976196D01*
X157168504Y-86979796D01*
X157144000Y-86981000D01*
X156219000Y-86981000D01*
X156194496Y-86979796D01*
X156170227Y-86976196D01*
X156146429Y-86970235D01*
X156123329Y-86961970D01*
X156101151Y-86951480D01*
X156080107Y-86938867D01*
X156060402Y-86924253D01*
X156042223Y-86907777D01*
X156025747Y-86889598D01*
X156011133Y-86869893D01*
X155998520Y-86848849D01*
X155988030Y-86826671D01*
X155979765Y-86803571D01*
X155973804Y-86779773D01*
X155970204Y-86755504D01*
X155969000Y-86731000D01*
X155969000Y-85481000D01*
X155970204Y-85456496D01*
X155973804Y-85432227D01*
X155979765Y-85408429D01*
X155988030Y-85385329D01*
X155998520Y-85363151D01*
X156011133Y-85342107D01*
X156025747Y-85322402D01*
X156042223Y-85304223D01*
X156060402Y-85287747D01*
X156080107Y-85273133D01*
X156101151Y-85260520D01*
X156123329Y-85250030D01*
X156146429Y-85241765D01*
X156170227Y-85235804D01*
X156194496Y-85232204D01*
X156219000Y-85231000D01*
X157144000Y-85231000D01*
X157168504Y-85232204D01*
X157168504Y-85232204D01*
G37*
D11*
X156681500Y-86106000D03*
D10*
G36*
X154193504Y-85232204D02*
G01*
X154217773Y-85235804D01*
X154241571Y-85241765D01*
X154264671Y-85250030D01*
X154286849Y-85260520D01*
X154307893Y-85273133D01*
X154327598Y-85287747D01*
X154345777Y-85304223D01*
X154362253Y-85322402D01*
X154376867Y-85342107D01*
X154389480Y-85363151D01*
X154399970Y-85385329D01*
X154408235Y-85408429D01*
X154414196Y-85432227D01*
X154417796Y-85456496D01*
X154419000Y-85481000D01*
X154419000Y-86731000D01*
X154417796Y-86755504D01*
X154414196Y-86779773D01*
X154408235Y-86803571D01*
X154399970Y-86826671D01*
X154389480Y-86848849D01*
X154376867Y-86869893D01*
X154362253Y-86889598D01*
X154345777Y-86907777D01*
X154327598Y-86924253D01*
X154307893Y-86938867D01*
X154286849Y-86951480D01*
X154264671Y-86961970D01*
X154241571Y-86970235D01*
X154217773Y-86976196D01*
X154193504Y-86979796D01*
X154169000Y-86981000D01*
X153244000Y-86981000D01*
X153219496Y-86979796D01*
X153195227Y-86976196D01*
X153171429Y-86970235D01*
X153148329Y-86961970D01*
X153126151Y-86951480D01*
X153105107Y-86938867D01*
X153085402Y-86924253D01*
X153067223Y-86907777D01*
X153050747Y-86889598D01*
X153036133Y-86869893D01*
X153023520Y-86848849D01*
X153013030Y-86826671D01*
X153004765Y-86803571D01*
X152998804Y-86779773D01*
X152995204Y-86755504D01*
X152994000Y-86731000D01*
X152994000Y-85481000D01*
X152995204Y-85456496D01*
X152998804Y-85432227D01*
X153004765Y-85408429D01*
X153013030Y-85385329D01*
X153023520Y-85363151D01*
X153036133Y-85342107D01*
X153050747Y-85322402D01*
X153067223Y-85304223D01*
X153085402Y-85287747D01*
X153105107Y-85273133D01*
X153126151Y-85260520D01*
X153148329Y-85250030D01*
X153171429Y-85241765D01*
X153195227Y-85235804D01*
X153219496Y-85232204D01*
X153244000Y-85231000D01*
X154169000Y-85231000D01*
X154193504Y-85232204D01*
X154193504Y-85232204D01*
G37*
D11*
X153706500Y-86106000D03*
D10*
G36*
X147843504Y-91836204D02*
G01*
X147867773Y-91839804D01*
X147891571Y-91845765D01*
X147914671Y-91854030D01*
X147936849Y-91864520D01*
X147957893Y-91877133D01*
X147977598Y-91891747D01*
X147995777Y-91908223D01*
X148012253Y-91926402D01*
X148026867Y-91946107D01*
X148039480Y-91967151D01*
X148049970Y-91989329D01*
X148058235Y-92012429D01*
X148064196Y-92036227D01*
X148067796Y-92060496D01*
X148069000Y-92085000D01*
X148069000Y-93335000D01*
X148067796Y-93359504D01*
X148064196Y-93383773D01*
X148058235Y-93407571D01*
X148049970Y-93430671D01*
X148039480Y-93452849D01*
X148026867Y-93473893D01*
X148012253Y-93493598D01*
X147995777Y-93511777D01*
X147977598Y-93528253D01*
X147957893Y-93542867D01*
X147936849Y-93555480D01*
X147914671Y-93565970D01*
X147891571Y-93574235D01*
X147867773Y-93580196D01*
X147843504Y-93583796D01*
X147819000Y-93585000D01*
X146894000Y-93585000D01*
X146869496Y-93583796D01*
X146845227Y-93580196D01*
X146821429Y-93574235D01*
X146798329Y-93565970D01*
X146776151Y-93555480D01*
X146755107Y-93542867D01*
X146735402Y-93528253D01*
X146717223Y-93511777D01*
X146700747Y-93493598D01*
X146686133Y-93473893D01*
X146673520Y-93452849D01*
X146663030Y-93430671D01*
X146654765Y-93407571D01*
X146648804Y-93383773D01*
X146645204Y-93359504D01*
X146644000Y-93335000D01*
X146644000Y-92085000D01*
X146645204Y-92060496D01*
X146648804Y-92036227D01*
X146654765Y-92012429D01*
X146663030Y-91989329D01*
X146673520Y-91967151D01*
X146686133Y-91946107D01*
X146700747Y-91926402D01*
X146717223Y-91908223D01*
X146735402Y-91891747D01*
X146755107Y-91877133D01*
X146776151Y-91864520D01*
X146798329Y-91854030D01*
X146821429Y-91845765D01*
X146845227Y-91839804D01*
X146869496Y-91836204D01*
X146894000Y-91835000D01*
X147819000Y-91835000D01*
X147843504Y-91836204D01*
X147843504Y-91836204D01*
G37*
D11*
X147356500Y-92710000D03*
D10*
G36*
X150818504Y-91836204D02*
G01*
X150842773Y-91839804D01*
X150866571Y-91845765D01*
X150889671Y-91854030D01*
X150911849Y-91864520D01*
X150932893Y-91877133D01*
X150952598Y-91891747D01*
X150970777Y-91908223D01*
X150987253Y-91926402D01*
X151001867Y-91946107D01*
X151014480Y-91967151D01*
X151024970Y-91989329D01*
X151033235Y-92012429D01*
X151039196Y-92036227D01*
X151042796Y-92060496D01*
X151044000Y-92085000D01*
X151044000Y-93335000D01*
X151042796Y-93359504D01*
X151039196Y-93383773D01*
X151033235Y-93407571D01*
X151024970Y-93430671D01*
X151014480Y-93452849D01*
X151001867Y-93473893D01*
X150987253Y-93493598D01*
X150970777Y-93511777D01*
X150952598Y-93528253D01*
X150932893Y-93542867D01*
X150911849Y-93555480D01*
X150889671Y-93565970D01*
X150866571Y-93574235D01*
X150842773Y-93580196D01*
X150818504Y-93583796D01*
X150794000Y-93585000D01*
X149869000Y-93585000D01*
X149844496Y-93583796D01*
X149820227Y-93580196D01*
X149796429Y-93574235D01*
X149773329Y-93565970D01*
X149751151Y-93555480D01*
X149730107Y-93542867D01*
X149710402Y-93528253D01*
X149692223Y-93511777D01*
X149675747Y-93493598D01*
X149661133Y-93473893D01*
X149648520Y-93452849D01*
X149638030Y-93430671D01*
X149629765Y-93407571D01*
X149623804Y-93383773D01*
X149620204Y-93359504D01*
X149619000Y-93335000D01*
X149619000Y-92085000D01*
X149620204Y-92060496D01*
X149623804Y-92036227D01*
X149629765Y-92012429D01*
X149638030Y-91989329D01*
X149648520Y-91967151D01*
X149661133Y-91946107D01*
X149675747Y-91926402D01*
X149692223Y-91908223D01*
X149710402Y-91891747D01*
X149730107Y-91877133D01*
X149751151Y-91864520D01*
X149773329Y-91854030D01*
X149796429Y-91845765D01*
X149820227Y-91839804D01*
X149844496Y-91836204D01*
X149869000Y-91835000D01*
X150794000Y-91835000D01*
X150818504Y-91836204D01*
X150818504Y-91836204D01*
G37*
D11*
X150331500Y-92710000D03*
D10*
G36*
X141928504Y-91836204D02*
G01*
X141952773Y-91839804D01*
X141976571Y-91845765D01*
X141999671Y-91854030D01*
X142021849Y-91864520D01*
X142042893Y-91877133D01*
X142062598Y-91891747D01*
X142080777Y-91908223D01*
X142097253Y-91926402D01*
X142111867Y-91946107D01*
X142124480Y-91967151D01*
X142134970Y-91989329D01*
X142143235Y-92012429D01*
X142149196Y-92036227D01*
X142152796Y-92060496D01*
X142154000Y-92085000D01*
X142154000Y-93335000D01*
X142152796Y-93359504D01*
X142149196Y-93383773D01*
X142143235Y-93407571D01*
X142134970Y-93430671D01*
X142124480Y-93452849D01*
X142111867Y-93473893D01*
X142097253Y-93493598D01*
X142080777Y-93511777D01*
X142062598Y-93528253D01*
X142042893Y-93542867D01*
X142021849Y-93555480D01*
X141999671Y-93565970D01*
X141976571Y-93574235D01*
X141952773Y-93580196D01*
X141928504Y-93583796D01*
X141904000Y-93585000D01*
X140979000Y-93585000D01*
X140954496Y-93583796D01*
X140930227Y-93580196D01*
X140906429Y-93574235D01*
X140883329Y-93565970D01*
X140861151Y-93555480D01*
X140840107Y-93542867D01*
X140820402Y-93528253D01*
X140802223Y-93511777D01*
X140785747Y-93493598D01*
X140771133Y-93473893D01*
X140758520Y-93452849D01*
X140748030Y-93430671D01*
X140739765Y-93407571D01*
X140733804Y-93383773D01*
X140730204Y-93359504D01*
X140729000Y-93335000D01*
X140729000Y-92085000D01*
X140730204Y-92060496D01*
X140733804Y-92036227D01*
X140739765Y-92012429D01*
X140748030Y-91989329D01*
X140758520Y-91967151D01*
X140771133Y-91946107D01*
X140785747Y-91926402D01*
X140802223Y-91908223D01*
X140820402Y-91891747D01*
X140840107Y-91877133D01*
X140861151Y-91864520D01*
X140883329Y-91854030D01*
X140906429Y-91845765D01*
X140930227Y-91839804D01*
X140954496Y-91836204D01*
X140979000Y-91835000D01*
X141904000Y-91835000D01*
X141928504Y-91836204D01*
X141928504Y-91836204D01*
G37*
D11*
X141441500Y-92710000D03*
D10*
G36*
X138953504Y-91836204D02*
G01*
X138977773Y-91839804D01*
X139001571Y-91845765D01*
X139024671Y-91854030D01*
X139046849Y-91864520D01*
X139067893Y-91877133D01*
X139087598Y-91891747D01*
X139105777Y-91908223D01*
X139122253Y-91926402D01*
X139136867Y-91946107D01*
X139149480Y-91967151D01*
X139159970Y-91989329D01*
X139168235Y-92012429D01*
X139174196Y-92036227D01*
X139177796Y-92060496D01*
X139179000Y-92085000D01*
X139179000Y-93335000D01*
X139177796Y-93359504D01*
X139174196Y-93383773D01*
X139168235Y-93407571D01*
X139159970Y-93430671D01*
X139149480Y-93452849D01*
X139136867Y-93473893D01*
X139122253Y-93493598D01*
X139105777Y-93511777D01*
X139087598Y-93528253D01*
X139067893Y-93542867D01*
X139046849Y-93555480D01*
X139024671Y-93565970D01*
X139001571Y-93574235D01*
X138977773Y-93580196D01*
X138953504Y-93583796D01*
X138929000Y-93585000D01*
X138004000Y-93585000D01*
X137979496Y-93583796D01*
X137955227Y-93580196D01*
X137931429Y-93574235D01*
X137908329Y-93565970D01*
X137886151Y-93555480D01*
X137865107Y-93542867D01*
X137845402Y-93528253D01*
X137827223Y-93511777D01*
X137810747Y-93493598D01*
X137796133Y-93473893D01*
X137783520Y-93452849D01*
X137773030Y-93430671D01*
X137764765Y-93407571D01*
X137758804Y-93383773D01*
X137755204Y-93359504D01*
X137754000Y-93335000D01*
X137754000Y-92085000D01*
X137755204Y-92060496D01*
X137758804Y-92036227D01*
X137764765Y-92012429D01*
X137773030Y-91989329D01*
X137783520Y-91967151D01*
X137796133Y-91946107D01*
X137810747Y-91926402D01*
X137827223Y-91908223D01*
X137845402Y-91891747D01*
X137865107Y-91877133D01*
X137886151Y-91864520D01*
X137908329Y-91854030D01*
X137931429Y-91845765D01*
X137955227Y-91839804D01*
X137979496Y-91836204D01*
X138004000Y-91835000D01*
X138929000Y-91835000D01*
X138953504Y-91836204D01*
X138953504Y-91836204D01*
G37*
D11*
X138466500Y-92710000D03*
D10*
G36*
X141928504Y-88026204D02*
G01*
X141952773Y-88029804D01*
X141976571Y-88035765D01*
X141999671Y-88044030D01*
X142021849Y-88054520D01*
X142042893Y-88067133D01*
X142062598Y-88081747D01*
X142080777Y-88098223D01*
X142097253Y-88116402D01*
X142111867Y-88136107D01*
X142124480Y-88157151D01*
X142134970Y-88179329D01*
X142143235Y-88202429D01*
X142149196Y-88226227D01*
X142152796Y-88250496D01*
X142154000Y-88275000D01*
X142154000Y-89525000D01*
X142152796Y-89549504D01*
X142149196Y-89573773D01*
X142143235Y-89597571D01*
X142134970Y-89620671D01*
X142124480Y-89642849D01*
X142111867Y-89663893D01*
X142097253Y-89683598D01*
X142080777Y-89701777D01*
X142062598Y-89718253D01*
X142042893Y-89732867D01*
X142021849Y-89745480D01*
X141999671Y-89755970D01*
X141976571Y-89764235D01*
X141952773Y-89770196D01*
X141928504Y-89773796D01*
X141904000Y-89775000D01*
X140979000Y-89775000D01*
X140954496Y-89773796D01*
X140930227Y-89770196D01*
X140906429Y-89764235D01*
X140883329Y-89755970D01*
X140861151Y-89745480D01*
X140840107Y-89732867D01*
X140820402Y-89718253D01*
X140802223Y-89701777D01*
X140785747Y-89683598D01*
X140771133Y-89663893D01*
X140758520Y-89642849D01*
X140748030Y-89620671D01*
X140739765Y-89597571D01*
X140733804Y-89573773D01*
X140730204Y-89549504D01*
X140729000Y-89525000D01*
X140729000Y-88275000D01*
X140730204Y-88250496D01*
X140733804Y-88226227D01*
X140739765Y-88202429D01*
X140748030Y-88179329D01*
X140758520Y-88157151D01*
X140771133Y-88136107D01*
X140785747Y-88116402D01*
X140802223Y-88098223D01*
X140820402Y-88081747D01*
X140840107Y-88067133D01*
X140861151Y-88054520D01*
X140883329Y-88044030D01*
X140906429Y-88035765D01*
X140930227Y-88029804D01*
X140954496Y-88026204D01*
X140979000Y-88025000D01*
X141904000Y-88025000D01*
X141928504Y-88026204D01*
X141928504Y-88026204D01*
G37*
D11*
X141441500Y-88900000D03*
D10*
G36*
X138953504Y-88026204D02*
G01*
X138977773Y-88029804D01*
X139001571Y-88035765D01*
X139024671Y-88044030D01*
X139046849Y-88054520D01*
X139067893Y-88067133D01*
X139087598Y-88081747D01*
X139105777Y-88098223D01*
X139122253Y-88116402D01*
X139136867Y-88136107D01*
X139149480Y-88157151D01*
X139159970Y-88179329D01*
X139168235Y-88202429D01*
X139174196Y-88226227D01*
X139177796Y-88250496D01*
X139179000Y-88275000D01*
X139179000Y-89525000D01*
X139177796Y-89549504D01*
X139174196Y-89573773D01*
X139168235Y-89597571D01*
X139159970Y-89620671D01*
X139149480Y-89642849D01*
X139136867Y-89663893D01*
X139122253Y-89683598D01*
X139105777Y-89701777D01*
X139087598Y-89718253D01*
X139067893Y-89732867D01*
X139046849Y-89745480D01*
X139024671Y-89755970D01*
X139001571Y-89764235D01*
X138977773Y-89770196D01*
X138953504Y-89773796D01*
X138929000Y-89775000D01*
X138004000Y-89775000D01*
X137979496Y-89773796D01*
X137955227Y-89770196D01*
X137931429Y-89764235D01*
X137908329Y-89755970D01*
X137886151Y-89745480D01*
X137865107Y-89732867D01*
X137845402Y-89718253D01*
X137827223Y-89701777D01*
X137810747Y-89683598D01*
X137796133Y-89663893D01*
X137783520Y-89642849D01*
X137773030Y-89620671D01*
X137764765Y-89597571D01*
X137758804Y-89573773D01*
X137755204Y-89549504D01*
X137754000Y-89525000D01*
X137754000Y-88275000D01*
X137755204Y-88250496D01*
X137758804Y-88226227D01*
X137764765Y-88202429D01*
X137773030Y-88179329D01*
X137783520Y-88157151D01*
X137796133Y-88136107D01*
X137810747Y-88116402D01*
X137827223Y-88098223D01*
X137845402Y-88081747D01*
X137865107Y-88067133D01*
X137886151Y-88054520D01*
X137908329Y-88044030D01*
X137931429Y-88035765D01*
X137955227Y-88029804D01*
X137979496Y-88026204D01*
X138004000Y-88025000D01*
X138929000Y-88025000D01*
X138953504Y-88026204D01*
X138953504Y-88026204D01*
G37*
D11*
X138466500Y-88900000D03*
D10*
G36*
X134456504Y-78298404D02*
G01*
X134480773Y-78302004D01*
X134504571Y-78307965D01*
X134527671Y-78316230D01*
X134549849Y-78326720D01*
X134570893Y-78339333D01*
X134590598Y-78353947D01*
X134608777Y-78370423D01*
X134625253Y-78388602D01*
X134639867Y-78408307D01*
X134652480Y-78429351D01*
X134662970Y-78451529D01*
X134671235Y-78474629D01*
X134677196Y-78498427D01*
X134680796Y-78522696D01*
X134682000Y-78547200D01*
X134682000Y-79472200D01*
X134680796Y-79496704D01*
X134677196Y-79520973D01*
X134671235Y-79544771D01*
X134662970Y-79567871D01*
X134652480Y-79590049D01*
X134639867Y-79611093D01*
X134625253Y-79630798D01*
X134608777Y-79648977D01*
X134590598Y-79665453D01*
X134570893Y-79680067D01*
X134549849Y-79692680D01*
X134527671Y-79703170D01*
X134504571Y-79711435D01*
X134480773Y-79717396D01*
X134456504Y-79720996D01*
X134432000Y-79722200D01*
X133182000Y-79722200D01*
X133157496Y-79720996D01*
X133133227Y-79717396D01*
X133109429Y-79711435D01*
X133086329Y-79703170D01*
X133064151Y-79692680D01*
X133043107Y-79680067D01*
X133023402Y-79665453D01*
X133005223Y-79648977D01*
X132988747Y-79630798D01*
X132974133Y-79611093D01*
X132961520Y-79590049D01*
X132951030Y-79567871D01*
X132942765Y-79544771D01*
X132936804Y-79520973D01*
X132933204Y-79496704D01*
X132932000Y-79472200D01*
X132932000Y-78547200D01*
X132933204Y-78522696D01*
X132936804Y-78498427D01*
X132942765Y-78474629D01*
X132951030Y-78451529D01*
X132961520Y-78429351D01*
X132974133Y-78408307D01*
X132988747Y-78388602D01*
X133005223Y-78370423D01*
X133023402Y-78353947D01*
X133043107Y-78339333D01*
X133064151Y-78326720D01*
X133086329Y-78316230D01*
X133109429Y-78307965D01*
X133133227Y-78302004D01*
X133157496Y-78298404D01*
X133182000Y-78297200D01*
X134432000Y-78297200D01*
X134456504Y-78298404D01*
X134456504Y-78298404D01*
G37*
D11*
X133807000Y-79009700D03*
D10*
G36*
X134456504Y-75323404D02*
G01*
X134480773Y-75327004D01*
X134504571Y-75332965D01*
X134527671Y-75341230D01*
X134549849Y-75351720D01*
X134570893Y-75364333D01*
X134590598Y-75378947D01*
X134608777Y-75395423D01*
X134625253Y-75413602D01*
X134639867Y-75433307D01*
X134652480Y-75454351D01*
X134662970Y-75476529D01*
X134671235Y-75499629D01*
X134677196Y-75523427D01*
X134680796Y-75547696D01*
X134682000Y-75572200D01*
X134682000Y-76497200D01*
X134680796Y-76521704D01*
X134677196Y-76545973D01*
X134671235Y-76569771D01*
X134662970Y-76592871D01*
X134652480Y-76615049D01*
X134639867Y-76636093D01*
X134625253Y-76655798D01*
X134608777Y-76673977D01*
X134590598Y-76690453D01*
X134570893Y-76705067D01*
X134549849Y-76717680D01*
X134527671Y-76728170D01*
X134504571Y-76736435D01*
X134480773Y-76742396D01*
X134456504Y-76745996D01*
X134432000Y-76747200D01*
X133182000Y-76747200D01*
X133157496Y-76745996D01*
X133133227Y-76742396D01*
X133109429Y-76736435D01*
X133086329Y-76728170D01*
X133064151Y-76717680D01*
X133043107Y-76705067D01*
X133023402Y-76690453D01*
X133005223Y-76673977D01*
X132988747Y-76655798D01*
X132974133Y-76636093D01*
X132961520Y-76615049D01*
X132951030Y-76592871D01*
X132942765Y-76569771D01*
X132936804Y-76545973D01*
X132933204Y-76521704D01*
X132932000Y-76497200D01*
X132932000Y-75572200D01*
X132933204Y-75547696D01*
X132936804Y-75523427D01*
X132942765Y-75499629D01*
X132951030Y-75476529D01*
X132961520Y-75454351D01*
X132974133Y-75433307D01*
X132988747Y-75413602D01*
X133005223Y-75395423D01*
X133023402Y-75378947D01*
X133043107Y-75364333D01*
X133064151Y-75351720D01*
X133086329Y-75341230D01*
X133109429Y-75332965D01*
X133133227Y-75327004D01*
X133157496Y-75323404D01*
X133182000Y-75322200D01*
X134432000Y-75322200D01*
X134456504Y-75323404D01*
X134456504Y-75323404D01*
G37*
D11*
X133807000Y-76034700D03*
D10*
G36*
X130392504Y-75323404D02*
G01*
X130416773Y-75327004D01*
X130440571Y-75332965D01*
X130463671Y-75341230D01*
X130485849Y-75351720D01*
X130506893Y-75364333D01*
X130526598Y-75378947D01*
X130544777Y-75395423D01*
X130561253Y-75413602D01*
X130575867Y-75433307D01*
X130588480Y-75454351D01*
X130598970Y-75476529D01*
X130607235Y-75499629D01*
X130613196Y-75523427D01*
X130616796Y-75547696D01*
X130618000Y-75572200D01*
X130618000Y-76497200D01*
X130616796Y-76521704D01*
X130613196Y-76545973D01*
X130607235Y-76569771D01*
X130598970Y-76592871D01*
X130588480Y-76615049D01*
X130575867Y-76636093D01*
X130561253Y-76655798D01*
X130544777Y-76673977D01*
X130526598Y-76690453D01*
X130506893Y-76705067D01*
X130485849Y-76717680D01*
X130463671Y-76728170D01*
X130440571Y-76736435D01*
X130416773Y-76742396D01*
X130392504Y-76745996D01*
X130368000Y-76747200D01*
X129118000Y-76747200D01*
X129093496Y-76745996D01*
X129069227Y-76742396D01*
X129045429Y-76736435D01*
X129022329Y-76728170D01*
X129000151Y-76717680D01*
X128979107Y-76705067D01*
X128959402Y-76690453D01*
X128941223Y-76673977D01*
X128924747Y-76655798D01*
X128910133Y-76636093D01*
X128897520Y-76615049D01*
X128887030Y-76592871D01*
X128878765Y-76569771D01*
X128872804Y-76545973D01*
X128869204Y-76521704D01*
X128868000Y-76497200D01*
X128868000Y-75572200D01*
X128869204Y-75547696D01*
X128872804Y-75523427D01*
X128878765Y-75499629D01*
X128887030Y-75476529D01*
X128897520Y-75454351D01*
X128910133Y-75433307D01*
X128924747Y-75413602D01*
X128941223Y-75395423D01*
X128959402Y-75378947D01*
X128979107Y-75364333D01*
X129000151Y-75351720D01*
X129022329Y-75341230D01*
X129045429Y-75332965D01*
X129069227Y-75327004D01*
X129093496Y-75323404D01*
X129118000Y-75322200D01*
X130368000Y-75322200D01*
X130392504Y-75323404D01*
X130392504Y-75323404D01*
G37*
D11*
X129743000Y-76034700D03*
D10*
G36*
X130392504Y-78298404D02*
G01*
X130416773Y-78302004D01*
X130440571Y-78307965D01*
X130463671Y-78316230D01*
X130485849Y-78326720D01*
X130506893Y-78339333D01*
X130526598Y-78353947D01*
X130544777Y-78370423D01*
X130561253Y-78388602D01*
X130575867Y-78408307D01*
X130588480Y-78429351D01*
X130598970Y-78451529D01*
X130607235Y-78474629D01*
X130613196Y-78498427D01*
X130616796Y-78522696D01*
X130618000Y-78547200D01*
X130618000Y-79472200D01*
X130616796Y-79496704D01*
X130613196Y-79520973D01*
X130607235Y-79544771D01*
X130598970Y-79567871D01*
X130588480Y-79590049D01*
X130575867Y-79611093D01*
X130561253Y-79630798D01*
X130544777Y-79648977D01*
X130526598Y-79665453D01*
X130506893Y-79680067D01*
X130485849Y-79692680D01*
X130463671Y-79703170D01*
X130440571Y-79711435D01*
X130416773Y-79717396D01*
X130392504Y-79720996D01*
X130368000Y-79722200D01*
X129118000Y-79722200D01*
X129093496Y-79720996D01*
X129069227Y-79717396D01*
X129045429Y-79711435D01*
X129022329Y-79703170D01*
X129000151Y-79692680D01*
X128979107Y-79680067D01*
X128959402Y-79665453D01*
X128941223Y-79648977D01*
X128924747Y-79630798D01*
X128910133Y-79611093D01*
X128897520Y-79590049D01*
X128887030Y-79567871D01*
X128878765Y-79544771D01*
X128872804Y-79520973D01*
X128869204Y-79496704D01*
X128868000Y-79472200D01*
X128868000Y-78547200D01*
X128869204Y-78522696D01*
X128872804Y-78498427D01*
X128878765Y-78474629D01*
X128887030Y-78451529D01*
X128897520Y-78429351D01*
X128910133Y-78408307D01*
X128924747Y-78388602D01*
X128941223Y-78370423D01*
X128959402Y-78353947D01*
X128979107Y-78339333D01*
X129000151Y-78326720D01*
X129022329Y-78316230D01*
X129045429Y-78307965D01*
X129069227Y-78302004D01*
X129093496Y-78298404D01*
X129118000Y-78297200D01*
X130368000Y-78297200D01*
X130392504Y-78298404D01*
X130392504Y-78298404D01*
G37*
D11*
X129743000Y-79009700D03*
D15*
X111553000Y-103217000D03*
X111553000Y-103867000D03*
X111553000Y-104517000D03*
X111553000Y-105167000D03*
X117453000Y-105167000D03*
X117453000Y-104517000D03*
X117453000Y-103867000D03*
X117453000Y-103217000D03*
D10*
G36*
X111792504Y-68900404D02*
G01*
X111816773Y-68904004D01*
X111840571Y-68909965D01*
X111863671Y-68918230D01*
X111885849Y-68928720D01*
X111906893Y-68941333D01*
X111926598Y-68955947D01*
X111944777Y-68972423D01*
X111961253Y-68990602D01*
X111975867Y-69010307D01*
X111988480Y-69031351D01*
X111998970Y-69053529D01*
X112007235Y-69076629D01*
X112013196Y-69100427D01*
X112016796Y-69124696D01*
X112018000Y-69149200D01*
X112018000Y-70074200D01*
X112016796Y-70098704D01*
X112013196Y-70122973D01*
X112007235Y-70146771D01*
X111998970Y-70169871D01*
X111988480Y-70192049D01*
X111975867Y-70213093D01*
X111961253Y-70232798D01*
X111944777Y-70250977D01*
X111926598Y-70267453D01*
X111906893Y-70282067D01*
X111885849Y-70294680D01*
X111863671Y-70305170D01*
X111840571Y-70313435D01*
X111816773Y-70319396D01*
X111792504Y-70322996D01*
X111768000Y-70324200D01*
X109618000Y-70324200D01*
X109593496Y-70322996D01*
X109569227Y-70319396D01*
X109545429Y-70313435D01*
X109522329Y-70305170D01*
X109500151Y-70294680D01*
X109479107Y-70282067D01*
X109459402Y-70267453D01*
X109441223Y-70250977D01*
X109424747Y-70232798D01*
X109410133Y-70213093D01*
X109397520Y-70192049D01*
X109387030Y-70169871D01*
X109378765Y-70146771D01*
X109372804Y-70122973D01*
X109369204Y-70098704D01*
X109368000Y-70074200D01*
X109368000Y-69149200D01*
X109369204Y-69124696D01*
X109372804Y-69100427D01*
X109378765Y-69076629D01*
X109387030Y-69053529D01*
X109397520Y-69031351D01*
X109410133Y-69010307D01*
X109424747Y-68990602D01*
X109441223Y-68972423D01*
X109459402Y-68955947D01*
X109479107Y-68941333D01*
X109500151Y-68928720D01*
X109522329Y-68918230D01*
X109545429Y-68909965D01*
X109569227Y-68904004D01*
X109593496Y-68900404D01*
X109618000Y-68899200D01*
X111768000Y-68899200D01*
X111792504Y-68900404D01*
X111792504Y-68900404D01*
G37*
D11*
X110693000Y-69611700D03*
D10*
G36*
X111792504Y-65925404D02*
G01*
X111816773Y-65929004D01*
X111840571Y-65934965D01*
X111863671Y-65943230D01*
X111885849Y-65953720D01*
X111906893Y-65966333D01*
X111926598Y-65980947D01*
X111944777Y-65997423D01*
X111961253Y-66015602D01*
X111975867Y-66035307D01*
X111988480Y-66056351D01*
X111998970Y-66078529D01*
X112007235Y-66101629D01*
X112013196Y-66125427D01*
X112016796Y-66149696D01*
X112018000Y-66174200D01*
X112018000Y-67099200D01*
X112016796Y-67123704D01*
X112013196Y-67147973D01*
X112007235Y-67171771D01*
X111998970Y-67194871D01*
X111988480Y-67217049D01*
X111975867Y-67238093D01*
X111961253Y-67257798D01*
X111944777Y-67275977D01*
X111926598Y-67292453D01*
X111906893Y-67307067D01*
X111885849Y-67319680D01*
X111863671Y-67330170D01*
X111840571Y-67338435D01*
X111816773Y-67344396D01*
X111792504Y-67347996D01*
X111768000Y-67349200D01*
X109618000Y-67349200D01*
X109593496Y-67347996D01*
X109569227Y-67344396D01*
X109545429Y-67338435D01*
X109522329Y-67330170D01*
X109500151Y-67319680D01*
X109479107Y-67307067D01*
X109459402Y-67292453D01*
X109441223Y-67275977D01*
X109424747Y-67257798D01*
X109410133Y-67238093D01*
X109397520Y-67217049D01*
X109387030Y-67194871D01*
X109378765Y-67171771D01*
X109372804Y-67147973D01*
X109369204Y-67123704D01*
X109368000Y-67099200D01*
X109368000Y-66174200D01*
X109369204Y-66149696D01*
X109372804Y-66125427D01*
X109378765Y-66101629D01*
X109387030Y-66078529D01*
X109397520Y-66056351D01*
X109410133Y-66035307D01*
X109424747Y-66015602D01*
X109441223Y-65997423D01*
X109459402Y-65980947D01*
X109479107Y-65966333D01*
X109500151Y-65953720D01*
X109522329Y-65943230D01*
X109545429Y-65934965D01*
X109569227Y-65929004D01*
X109593496Y-65925404D01*
X109618000Y-65924200D01*
X111768000Y-65924200D01*
X111792504Y-65925404D01*
X111792504Y-65925404D01*
G37*
D11*
X110693000Y-66636700D03*
D10*
G36*
X126383504Y-96206404D02*
G01*
X126407773Y-96210004D01*
X126431571Y-96215965D01*
X126454671Y-96224230D01*
X126476849Y-96234720D01*
X126497893Y-96247333D01*
X126517598Y-96261947D01*
X126535777Y-96278423D01*
X126552253Y-96296602D01*
X126566867Y-96316307D01*
X126579480Y-96337351D01*
X126589970Y-96359529D01*
X126598235Y-96382629D01*
X126604196Y-96406427D01*
X126607796Y-96430696D01*
X126609000Y-96455200D01*
X126609000Y-97705200D01*
X126607796Y-97729704D01*
X126604196Y-97753973D01*
X126598235Y-97777771D01*
X126589970Y-97800871D01*
X126579480Y-97823049D01*
X126566867Y-97844093D01*
X126552253Y-97863798D01*
X126535777Y-97881977D01*
X126517598Y-97898453D01*
X126497893Y-97913067D01*
X126476849Y-97925680D01*
X126454671Y-97936170D01*
X126431571Y-97944435D01*
X126407773Y-97950396D01*
X126383504Y-97953996D01*
X126359000Y-97955200D01*
X125434000Y-97955200D01*
X125409496Y-97953996D01*
X125385227Y-97950396D01*
X125361429Y-97944435D01*
X125338329Y-97936170D01*
X125316151Y-97925680D01*
X125295107Y-97913067D01*
X125275402Y-97898453D01*
X125257223Y-97881977D01*
X125240747Y-97863798D01*
X125226133Y-97844093D01*
X125213520Y-97823049D01*
X125203030Y-97800871D01*
X125194765Y-97777771D01*
X125188804Y-97753973D01*
X125185204Y-97729704D01*
X125184000Y-97705200D01*
X125184000Y-96455200D01*
X125185204Y-96430696D01*
X125188804Y-96406427D01*
X125194765Y-96382629D01*
X125203030Y-96359529D01*
X125213520Y-96337351D01*
X125226133Y-96316307D01*
X125240747Y-96296602D01*
X125257223Y-96278423D01*
X125275402Y-96261947D01*
X125295107Y-96247333D01*
X125316151Y-96234720D01*
X125338329Y-96224230D01*
X125361429Y-96215965D01*
X125385227Y-96210004D01*
X125409496Y-96206404D01*
X125434000Y-96205200D01*
X126359000Y-96205200D01*
X126383504Y-96206404D01*
X126383504Y-96206404D01*
G37*
D11*
X125896500Y-97080200D03*
D10*
G36*
X123408504Y-96206404D02*
G01*
X123432773Y-96210004D01*
X123456571Y-96215965D01*
X123479671Y-96224230D01*
X123501849Y-96234720D01*
X123522893Y-96247333D01*
X123542598Y-96261947D01*
X123560777Y-96278423D01*
X123577253Y-96296602D01*
X123591867Y-96316307D01*
X123604480Y-96337351D01*
X123614970Y-96359529D01*
X123623235Y-96382629D01*
X123629196Y-96406427D01*
X123632796Y-96430696D01*
X123634000Y-96455200D01*
X123634000Y-97705200D01*
X123632796Y-97729704D01*
X123629196Y-97753973D01*
X123623235Y-97777771D01*
X123614970Y-97800871D01*
X123604480Y-97823049D01*
X123591867Y-97844093D01*
X123577253Y-97863798D01*
X123560777Y-97881977D01*
X123542598Y-97898453D01*
X123522893Y-97913067D01*
X123501849Y-97925680D01*
X123479671Y-97936170D01*
X123456571Y-97944435D01*
X123432773Y-97950396D01*
X123408504Y-97953996D01*
X123384000Y-97955200D01*
X122459000Y-97955200D01*
X122434496Y-97953996D01*
X122410227Y-97950396D01*
X122386429Y-97944435D01*
X122363329Y-97936170D01*
X122341151Y-97925680D01*
X122320107Y-97913067D01*
X122300402Y-97898453D01*
X122282223Y-97881977D01*
X122265747Y-97863798D01*
X122251133Y-97844093D01*
X122238520Y-97823049D01*
X122228030Y-97800871D01*
X122219765Y-97777771D01*
X122213804Y-97753973D01*
X122210204Y-97729704D01*
X122209000Y-97705200D01*
X122209000Y-96455200D01*
X122210204Y-96430696D01*
X122213804Y-96406427D01*
X122219765Y-96382629D01*
X122228030Y-96359529D01*
X122238520Y-96337351D01*
X122251133Y-96316307D01*
X122265747Y-96296602D01*
X122282223Y-96278423D01*
X122300402Y-96261947D01*
X122320107Y-96247333D01*
X122341151Y-96234720D01*
X122363329Y-96224230D01*
X122386429Y-96215965D01*
X122410227Y-96210004D01*
X122434496Y-96206404D01*
X122459000Y-96205200D01*
X123384000Y-96205200D01*
X123408504Y-96206404D01*
X123408504Y-96206404D01*
G37*
D11*
X122921500Y-97080200D03*
D10*
G36*
X120740504Y-73037404D02*
G01*
X120764773Y-73041004D01*
X120788571Y-73046965D01*
X120811671Y-73055230D01*
X120833849Y-73065720D01*
X120854893Y-73078333D01*
X120874598Y-73092947D01*
X120892777Y-73109423D01*
X120909253Y-73127602D01*
X120923867Y-73147307D01*
X120936480Y-73168351D01*
X120946970Y-73190529D01*
X120955235Y-73213629D01*
X120961196Y-73237427D01*
X120964796Y-73261696D01*
X120966000Y-73286200D01*
X120966000Y-74211200D01*
X120964796Y-74235704D01*
X120961196Y-74259973D01*
X120955235Y-74283771D01*
X120946970Y-74306871D01*
X120936480Y-74329049D01*
X120923867Y-74350093D01*
X120909253Y-74369798D01*
X120892777Y-74387977D01*
X120874598Y-74404453D01*
X120854893Y-74419067D01*
X120833849Y-74431680D01*
X120811671Y-74442170D01*
X120788571Y-74450435D01*
X120764773Y-74456396D01*
X120740504Y-74459996D01*
X120716000Y-74461200D01*
X119466000Y-74461200D01*
X119441496Y-74459996D01*
X119417227Y-74456396D01*
X119393429Y-74450435D01*
X119370329Y-74442170D01*
X119348151Y-74431680D01*
X119327107Y-74419067D01*
X119307402Y-74404453D01*
X119289223Y-74387977D01*
X119272747Y-74369798D01*
X119258133Y-74350093D01*
X119245520Y-74329049D01*
X119235030Y-74306871D01*
X119226765Y-74283771D01*
X119220804Y-74259973D01*
X119217204Y-74235704D01*
X119216000Y-74211200D01*
X119216000Y-73286200D01*
X119217204Y-73261696D01*
X119220804Y-73237427D01*
X119226765Y-73213629D01*
X119235030Y-73190529D01*
X119245520Y-73168351D01*
X119258133Y-73147307D01*
X119272747Y-73127602D01*
X119289223Y-73109423D01*
X119307402Y-73092947D01*
X119327107Y-73078333D01*
X119348151Y-73065720D01*
X119370329Y-73055230D01*
X119393429Y-73046965D01*
X119417227Y-73041004D01*
X119441496Y-73037404D01*
X119466000Y-73036200D01*
X120716000Y-73036200D01*
X120740504Y-73037404D01*
X120740504Y-73037404D01*
G37*
D11*
X120091000Y-73748700D03*
D10*
G36*
X120740504Y-76012404D02*
G01*
X120764773Y-76016004D01*
X120788571Y-76021965D01*
X120811671Y-76030230D01*
X120833849Y-76040720D01*
X120854893Y-76053333D01*
X120874598Y-76067947D01*
X120892777Y-76084423D01*
X120909253Y-76102602D01*
X120923867Y-76122307D01*
X120936480Y-76143351D01*
X120946970Y-76165529D01*
X120955235Y-76188629D01*
X120961196Y-76212427D01*
X120964796Y-76236696D01*
X120966000Y-76261200D01*
X120966000Y-77186200D01*
X120964796Y-77210704D01*
X120961196Y-77234973D01*
X120955235Y-77258771D01*
X120946970Y-77281871D01*
X120936480Y-77304049D01*
X120923867Y-77325093D01*
X120909253Y-77344798D01*
X120892777Y-77362977D01*
X120874598Y-77379453D01*
X120854893Y-77394067D01*
X120833849Y-77406680D01*
X120811671Y-77417170D01*
X120788571Y-77425435D01*
X120764773Y-77431396D01*
X120740504Y-77434996D01*
X120716000Y-77436200D01*
X119466000Y-77436200D01*
X119441496Y-77434996D01*
X119417227Y-77431396D01*
X119393429Y-77425435D01*
X119370329Y-77417170D01*
X119348151Y-77406680D01*
X119327107Y-77394067D01*
X119307402Y-77379453D01*
X119289223Y-77362977D01*
X119272747Y-77344798D01*
X119258133Y-77325093D01*
X119245520Y-77304049D01*
X119235030Y-77281871D01*
X119226765Y-77258771D01*
X119220804Y-77234973D01*
X119217204Y-77210704D01*
X119216000Y-77186200D01*
X119216000Y-76261200D01*
X119217204Y-76236696D01*
X119220804Y-76212427D01*
X119226765Y-76188629D01*
X119235030Y-76165529D01*
X119245520Y-76143351D01*
X119258133Y-76122307D01*
X119272747Y-76102602D01*
X119289223Y-76084423D01*
X119307402Y-76067947D01*
X119327107Y-76053333D01*
X119348151Y-76040720D01*
X119370329Y-76030230D01*
X119393429Y-76021965D01*
X119417227Y-76016004D01*
X119441496Y-76012404D01*
X119466000Y-76011200D01*
X120716000Y-76011200D01*
X120740504Y-76012404D01*
X120740504Y-76012404D01*
G37*
D11*
X120091000Y-76723700D03*
D10*
G36*
X108422504Y-91126404D02*
G01*
X108446773Y-91130004D01*
X108470571Y-91135965D01*
X108493671Y-91144230D01*
X108515849Y-91154720D01*
X108536893Y-91167333D01*
X108556598Y-91181947D01*
X108574777Y-91198423D01*
X108591253Y-91216602D01*
X108605867Y-91236307D01*
X108618480Y-91257351D01*
X108628970Y-91279529D01*
X108637235Y-91302629D01*
X108643196Y-91326427D01*
X108646796Y-91350696D01*
X108648000Y-91375200D01*
X108648000Y-92625200D01*
X108646796Y-92649704D01*
X108643196Y-92673973D01*
X108637235Y-92697771D01*
X108628970Y-92720871D01*
X108618480Y-92743049D01*
X108605867Y-92764093D01*
X108591253Y-92783798D01*
X108574777Y-92801977D01*
X108556598Y-92818453D01*
X108536893Y-92833067D01*
X108515849Y-92845680D01*
X108493671Y-92856170D01*
X108470571Y-92864435D01*
X108446773Y-92870396D01*
X108422504Y-92873996D01*
X108398000Y-92875200D01*
X107473000Y-92875200D01*
X107448496Y-92873996D01*
X107424227Y-92870396D01*
X107400429Y-92864435D01*
X107377329Y-92856170D01*
X107355151Y-92845680D01*
X107334107Y-92833067D01*
X107314402Y-92818453D01*
X107296223Y-92801977D01*
X107279747Y-92783798D01*
X107265133Y-92764093D01*
X107252520Y-92743049D01*
X107242030Y-92720871D01*
X107233765Y-92697771D01*
X107227804Y-92673973D01*
X107224204Y-92649704D01*
X107223000Y-92625200D01*
X107223000Y-91375200D01*
X107224204Y-91350696D01*
X107227804Y-91326427D01*
X107233765Y-91302629D01*
X107242030Y-91279529D01*
X107252520Y-91257351D01*
X107265133Y-91236307D01*
X107279747Y-91216602D01*
X107296223Y-91198423D01*
X107314402Y-91181947D01*
X107334107Y-91167333D01*
X107355151Y-91154720D01*
X107377329Y-91144230D01*
X107400429Y-91135965D01*
X107424227Y-91130004D01*
X107448496Y-91126404D01*
X107473000Y-91125200D01*
X108398000Y-91125200D01*
X108422504Y-91126404D01*
X108422504Y-91126404D01*
G37*
D11*
X107935500Y-92000200D03*
D10*
G36*
X111397504Y-91126404D02*
G01*
X111421773Y-91130004D01*
X111445571Y-91135965D01*
X111468671Y-91144230D01*
X111490849Y-91154720D01*
X111511893Y-91167333D01*
X111531598Y-91181947D01*
X111549777Y-91198423D01*
X111566253Y-91216602D01*
X111580867Y-91236307D01*
X111593480Y-91257351D01*
X111603970Y-91279529D01*
X111612235Y-91302629D01*
X111618196Y-91326427D01*
X111621796Y-91350696D01*
X111623000Y-91375200D01*
X111623000Y-92625200D01*
X111621796Y-92649704D01*
X111618196Y-92673973D01*
X111612235Y-92697771D01*
X111603970Y-92720871D01*
X111593480Y-92743049D01*
X111580867Y-92764093D01*
X111566253Y-92783798D01*
X111549777Y-92801977D01*
X111531598Y-92818453D01*
X111511893Y-92833067D01*
X111490849Y-92845680D01*
X111468671Y-92856170D01*
X111445571Y-92864435D01*
X111421773Y-92870396D01*
X111397504Y-92873996D01*
X111373000Y-92875200D01*
X110448000Y-92875200D01*
X110423496Y-92873996D01*
X110399227Y-92870396D01*
X110375429Y-92864435D01*
X110352329Y-92856170D01*
X110330151Y-92845680D01*
X110309107Y-92833067D01*
X110289402Y-92818453D01*
X110271223Y-92801977D01*
X110254747Y-92783798D01*
X110240133Y-92764093D01*
X110227520Y-92743049D01*
X110217030Y-92720871D01*
X110208765Y-92697771D01*
X110202804Y-92673973D01*
X110199204Y-92649704D01*
X110198000Y-92625200D01*
X110198000Y-91375200D01*
X110199204Y-91350696D01*
X110202804Y-91326427D01*
X110208765Y-91302629D01*
X110217030Y-91279529D01*
X110227520Y-91257351D01*
X110240133Y-91236307D01*
X110254747Y-91216602D01*
X110271223Y-91198423D01*
X110289402Y-91181947D01*
X110309107Y-91167333D01*
X110330151Y-91154720D01*
X110352329Y-91144230D01*
X110375429Y-91135965D01*
X110399227Y-91130004D01*
X110423496Y-91126404D01*
X110448000Y-91125200D01*
X111373000Y-91125200D01*
X111397504Y-91126404D01*
X111397504Y-91126404D01*
G37*
D11*
X110910500Y-92000200D03*
D10*
G36*
X121630504Y-91126404D02*
G01*
X121654773Y-91130004D01*
X121678571Y-91135965D01*
X121701671Y-91144230D01*
X121723849Y-91154720D01*
X121744893Y-91167333D01*
X121764598Y-91181947D01*
X121782777Y-91198423D01*
X121799253Y-91216602D01*
X121813867Y-91236307D01*
X121826480Y-91257351D01*
X121836970Y-91279529D01*
X121845235Y-91302629D01*
X121851196Y-91326427D01*
X121854796Y-91350696D01*
X121856000Y-91375200D01*
X121856000Y-92625200D01*
X121854796Y-92649704D01*
X121851196Y-92673973D01*
X121845235Y-92697771D01*
X121836970Y-92720871D01*
X121826480Y-92743049D01*
X121813867Y-92764093D01*
X121799253Y-92783798D01*
X121782777Y-92801977D01*
X121764598Y-92818453D01*
X121744893Y-92833067D01*
X121723849Y-92845680D01*
X121701671Y-92856170D01*
X121678571Y-92864435D01*
X121654773Y-92870396D01*
X121630504Y-92873996D01*
X121606000Y-92875200D01*
X120681000Y-92875200D01*
X120656496Y-92873996D01*
X120632227Y-92870396D01*
X120608429Y-92864435D01*
X120585329Y-92856170D01*
X120563151Y-92845680D01*
X120542107Y-92833067D01*
X120522402Y-92818453D01*
X120504223Y-92801977D01*
X120487747Y-92783798D01*
X120473133Y-92764093D01*
X120460520Y-92743049D01*
X120450030Y-92720871D01*
X120441765Y-92697771D01*
X120435804Y-92673973D01*
X120432204Y-92649704D01*
X120431000Y-92625200D01*
X120431000Y-91375200D01*
X120432204Y-91350696D01*
X120435804Y-91326427D01*
X120441765Y-91302629D01*
X120450030Y-91279529D01*
X120460520Y-91257351D01*
X120473133Y-91236307D01*
X120487747Y-91216602D01*
X120504223Y-91198423D01*
X120522402Y-91181947D01*
X120542107Y-91167333D01*
X120563151Y-91154720D01*
X120585329Y-91144230D01*
X120608429Y-91135965D01*
X120632227Y-91130004D01*
X120656496Y-91126404D01*
X120681000Y-91125200D01*
X121606000Y-91125200D01*
X121630504Y-91126404D01*
X121630504Y-91126404D01*
G37*
D11*
X121143500Y-92000200D03*
D10*
G36*
X124605504Y-91126404D02*
G01*
X124629773Y-91130004D01*
X124653571Y-91135965D01*
X124676671Y-91144230D01*
X124698849Y-91154720D01*
X124719893Y-91167333D01*
X124739598Y-91181947D01*
X124757777Y-91198423D01*
X124774253Y-91216602D01*
X124788867Y-91236307D01*
X124801480Y-91257351D01*
X124811970Y-91279529D01*
X124820235Y-91302629D01*
X124826196Y-91326427D01*
X124829796Y-91350696D01*
X124831000Y-91375200D01*
X124831000Y-92625200D01*
X124829796Y-92649704D01*
X124826196Y-92673973D01*
X124820235Y-92697771D01*
X124811970Y-92720871D01*
X124801480Y-92743049D01*
X124788867Y-92764093D01*
X124774253Y-92783798D01*
X124757777Y-92801977D01*
X124739598Y-92818453D01*
X124719893Y-92833067D01*
X124698849Y-92845680D01*
X124676671Y-92856170D01*
X124653571Y-92864435D01*
X124629773Y-92870396D01*
X124605504Y-92873996D01*
X124581000Y-92875200D01*
X123656000Y-92875200D01*
X123631496Y-92873996D01*
X123607227Y-92870396D01*
X123583429Y-92864435D01*
X123560329Y-92856170D01*
X123538151Y-92845680D01*
X123517107Y-92833067D01*
X123497402Y-92818453D01*
X123479223Y-92801977D01*
X123462747Y-92783798D01*
X123448133Y-92764093D01*
X123435520Y-92743049D01*
X123425030Y-92720871D01*
X123416765Y-92697771D01*
X123410804Y-92673973D01*
X123407204Y-92649704D01*
X123406000Y-92625200D01*
X123406000Y-91375200D01*
X123407204Y-91350696D01*
X123410804Y-91326427D01*
X123416765Y-91302629D01*
X123425030Y-91279529D01*
X123435520Y-91257351D01*
X123448133Y-91236307D01*
X123462747Y-91216602D01*
X123479223Y-91198423D01*
X123497402Y-91181947D01*
X123517107Y-91167333D01*
X123538151Y-91154720D01*
X123560329Y-91144230D01*
X123583429Y-91135965D01*
X123607227Y-91130004D01*
X123631496Y-91126404D01*
X123656000Y-91125200D01*
X124581000Y-91125200D01*
X124605504Y-91126404D01*
X124605504Y-91126404D01*
G37*
D11*
X124118500Y-92000200D03*
D10*
G36*
X117312504Y-96206404D02*
G01*
X117336773Y-96210004D01*
X117360571Y-96215965D01*
X117383671Y-96224230D01*
X117405849Y-96234720D01*
X117426893Y-96247333D01*
X117446598Y-96261947D01*
X117464777Y-96278423D01*
X117481253Y-96296602D01*
X117495867Y-96316307D01*
X117508480Y-96337351D01*
X117518970Y-96359529D01*
X117527235Y-96382629D01*
X117533196Y-96406427D01*
X117536796Y-96430696D01*
X117538000Y-96455200D01*
X117538000Y-97705200D01*
X117536796Y-97729704D01*
X117533196Y-97753973D01*
X117527235Y-97777771D01*
X117518970Y-97800871D01*
X117508480Y-97823049D01*
X117495867Y-97844093D01*
X117481253Y-97863798D01*
X117464777Y-97881977D01*
X117446598Y-97898453D01*
X117426893Y-97913067D01*
X117405849Y-97925680D01*
X117383671Y-97936170D01*
X117360571Y-97944435D01*
X117336773Y-97950396D01*
X117312504Y-97953996D01*
X117288000Y-97955200D01*
X116363000Y-97955200D01*
X116338496Y-97953996D01*
X116314227Y-97950396D01*
X116290429Y-97944435D01*
X116267329Y-97936170D01*
X116245151Y-97925680D01*
X116224107Y-97913067D01*
X116204402Y-97898453D01*
X116186223Y-97881977D01*
X116169747Y-97863798D01*
X116155133Y-97844093D01*
X116142520Y-97823049D01*
X116132030Y-97800871D01*
X116123765Y-97777771D01*
X116117804Y-97753973D01*
X116114204Y-97729704D01*
X116113000Y-97705200D01*
X116113000Y-96455200D01*
X116114204Y-96430696D01*
X116117804Y-96406427D01*
X116123765Y-96382629D01*
X116132030Y-96359529D01*
X116142520Y-96337351D01*
X116155133Y-96316307D01*
X116169747Y-96296602D01*
X116186223Y-96278423D01*
X116204402Y-96261947D01*
X116224107Y-96247333D01*
X116245151Y-96234720D01*
X116267329Y-96224230D01*
X116290429Y-96215965D01*
X116314227Y-96210004D01*
X116338496Y-96206404D01*
X116363000Y-96205200D01*
X117288000Y-96205200D01*
X117312504Y-96206404D01*
X117312504Y-96206404D01*
G37*
D11*
X116825500Y-97080200D03*
D10*
G36*
X120287504Y-96206404D02*
G01*
X120311773Y-96210004D01*
X120335571Y-96215965D01*
X120358671Y-96224230D01*
X120380849Y-96234720D01*
X120401893Y-96247333D01*
X120421598Y-96261947D01*
X120439777Y-96278423D01*
X120456253Y-96296602D01*
X120470867Y-96316307D01*
X120483480Y-96337351D01*
X120493970Y-96359529D01*
X120502235Y-96382629D01*
X120508196Y-96406427D01*
X120511796Y-96430696D01*
X120513000Y-96455200D01*
X120513000Y-97705200D01*
X120511796Y-97729704D01*
X120508196Y-97753973D01*
X120502235Y-97777771D01*
X120493970Y-97800871D01*
X120483480Y-97823049D01*
X120470867Y-97844093D01*
X120456253Y-97863798D01*
X120439777Y-97881977D01*
X120421598Y-97898453D01*
X120401893Y-97913067D01*
X120380849Y-97925680D01*
X120358671Y-97936170D01*
X120335571Y-97944435D01*
X120311773Y-97950396D01*
X120287504Y-97953996D01*
X120263000Y-97955200D01*
X119338000Y-97955200D01*
X119313496Y-97953996D01*
X119289227Y-97950396D01*
X119265429Y-97944435D01*
X119242329Y-97936170D01*
X119220151Y-97925680D01*
X119199107Y-97913067D01*
X119179402Y-97898453D01*
X119161223Y-97881977D01*
X119144747Y-97863798D01*
X119130133Y-97844093D01*
X119117520Y-97823049D01*
X119107030Y-97800871D01*
X119098765Y-97777771D01*
X119092804Y-97753973D01*
X119089204Y-97729704D01*
X119088000Y-97705200D01*
X119088000Y-96455200D01*
X119089204Y-96430696D01*
X119092804Y-96406427D01*
X119098765Y-96382629D01*
X119107030Y-96359529D01*
X119117520Y-96337351D01*
X119130133Y-96316307D01*
X119144747Y-96296602D01*
X119161223Y-96278423D01*
X119179402Y-96261947D01*
X119199107Y-96247333D01*
X119220151Y-96234720D01*
X119242329Y-96224230D01*
X119265429Y-96215965D01*
X119289227Y-96210004D01*
X119313496Y-96206404D01*
X119338000Y-96205200D01*
X120263000Y-96205200D01*
X120287504Y-96206404D01*
X120287504Y-96206404D01*
G37*
D11*
X119800500Y-97080200D03*
D16*
X160919000Y-106862000D03*
X162919000Y-106862000D03*
X164919000Y-106862000D03*
X166919000Y-106862000D03*
X168919000Y-106862000D03*
X170919000Y-106862000D03*
X172919000Y-106862000D03*
X174919000Y-106862000D03*
X174919000Y-87162000D03*
X172919000Y-87162000D03*
X170919000Y-87162000D03*
X168919000Y-87162000D03*
X166919000Y-87162000D03*
X164919000Y-87162000D03*
X162919000Y-87162000D03*
X160919000Y-87162000D03*
D17*
X147834000Y-96588000D03*
X147034000Y-96588000D03*
X146234000Y-96588000D03*
X145434000Y-96588000D03*
X144634000Y-96588000D03*
X143834000Y-96588000D03*
X143034000Y-96588000D03*
X142234000Y-96588000D03*
D18*
X140784000Y-98038000D03*
X140784000Y-98838000D03*
X140784000Y-99638000D03*
X140784000Y-100438000D03*
X140784000Y-101238000D03*
X140784000Y-102038000D03*
X140784000Y-102838000D03*
X140784000Y-103638000D03*
D17*
X142234000Y-105088000D03*
X143034000Y-105088000D03*
X143834000Y-105088000D03*
X144634000Y-105088000D03*
X145434000Y-105088000D03*
X146234000Y-105088000D03*
X147034000Y-105088000D03*
X147834000Y-105088000D03*
D18*
X149284000Y-103638000D03*
X149284000Y-102838000D03*
X149284000Y-102038000D03*
X149284000Y-101238000D03*
X149284000Y-100438000D03*
X149284000Y-99638000D03*
X149284000Y-98838000D03*
X149284000Y-98038000D03*
D10*
G36*
X119468269Y-83226368D02*
G01*
X119491809Y-83229860D01*
X119514894Y-83235642D01*
X119537301Y-83243659D01*
X119558814Y-83253834D01*
X119579226Y-83266069D01*
X119598340Y-83280245D01*
X119615973Y-83296227D01*
X119631955Y-83313860D01*
X119646131Y-83332974D01*
X119658366Y-83353386D01*
X119668541Y-83374899D01*
X119676558Y-83397306D01*
X119682340Y-83420391D01*
X119685832Y-83443931D01*
X119687000Y-83467700D01*
X119687000Y-83952700D01*
X119685832Y-83976469D01*
X119682340Y-84000009D01*
X119676558Y-84023094D01*
X119668541Y-84045501D01*
X119658366Y-84067014D01*
X119646131Y-84087426D01*
X119631955Y-84106540D01*
X119615973Y-84124173D01*
X119598340Y-84140155D01*
X119579226Y-84154331D01*
X119558814Y-84166566D01*
X119537301Y-84176741D01*
X119514894Y-84184758D01*
X119491809Y-84190540D01*
X119468269Y-84194032D01*
X119444500Y-84195200D01*
X118679500Y-84195200D01*
X118655731Y-84194032D01*
X118632191Y-84190540D01*
X118609106Y-84184758D01*
X118586699Y-84176741D01*
X118565186Y-84166566D01*
X118544774Y-84154331D01*
X118525660Y-84140155D01*
X118508027Y-84124173D01*
X118492045Y-84106540D01*
X118477869Y-84087426D01*
X118465634Y-84067014D01*
X118455459Y-84045501D01*
X118447442Y-84023094D01*
X118441660Y-84000009D01*
X118438168Y-83976469D01*
X118437000Y-83952700D01*
X118437000Y-83467700D01*
X118438168Y-83443931D01*
X118441660Y-83420391D01*
X118447442Y-83397306D01*
X118455459Y-83374899D01*
X118465634Y-83353386D01*
X118477869Y-83332974D01*
X118492045Y-83313860D01*
X118508027Y-83296227D01*
X118525660Y-83280245D01*
X118544774Y-83266069D01*
X118565186Y-83253834D01*
X118586699Y-83243659D01*
X118609106Y-83235642D01*
X118632191Y-83229860D01*
X118655731Y-83226368D01*
X118679500Y-83225200D01*
X119444500Y-83225200D01*
X119468269Y-83226368D01*
X119468269Y-83226368D01*
G37*
D19*
X119062000Y-83710200D03*
D10*
G36*
X121018269Y-83226368D02*
G01*
X121041809Y-83229860D01*
X121064894Y-83235642D01*
X121087301Y-83243659D01*
X121108814Y-83253834D01*
X121129226Y-83266069D01*
X121148340Y-83280245D01*
X121165973Y-83296227D01*
X121181955Y-83313860D01*
X121196131Y-83332974D01*
X121208366Y-83353386D01*
X121218541Y-83374899D01*
X121226558Y-83397306D01*
X121232340Y-83420391D01*
X121235832Y-83443931D01*
X121237000Y-83467700D01*
X121237000Y-83952700D01*
X121235832Y-83976469D01*
X121232340Y-84000009D01*
X121226558Y-84023094D01*
X121218541Y-84045501D01*
X121208366Y-84067014D01*
X121196131Y-84087426D01*
X121181955Y-84106540D01*
X121165973Y-84124173D01*
X121148340Y-84140155D01*
X121129226Y-84154331D01*
X121108814Y-84166566D01*
X121087301Y-84176741D01*
X121064894Y-84184758D01*
X121041809Y-84190540D01*
X121018269Y-84194032D01*
X120994500Y-84195200D01*
X120229500Y-84195200D01*
X120205731Y-84194032D01*
X120182191Y-84190540D01*
X120159106Y-84184758D01*
X120136699Y-84176741D01*
X120115186Y-84166566D01*
X120094774Y-84154331D01*
X120075660Y-84140155D01*
X120058027Y-84124173D01*
X120042045Y-84106540D01*
X120027869Y-84087426D01*
X120015634Y-84067014D01*
X120005459Y-84045501D01*
X119997442Y-84023094D01*
X119991660Y-84000009D01*
X119988168Y-83976469D01*
X119987000Y-83952700D01*
X119987000Y-83467700D01*
X119988168Y-83443931D01*
X119991660Y-83420391D01*
X119997442Y-83397306D01*
X120005459Y-83374899D01*
X120015634Y-83353386D01*
X120027869Y-83332974D01*
X120042045Y-83313860D01*
X120058027Y-83296227D01*
X120075660Y-83280245D01*
X120094774Y-83266069D01*
X120115186Y-83253834D01*
X120136699Y-83243659D01*
X120159106Y-83235642D01*
X120182191Y-83229860D01*
X120205731Y-83226368D01*
X120229500Y-83225200D01*
X120994500Y-83225200D01*
X121018269Y-83226368D01*
X121018269Y-83226368D01*
G37*
D19*
X120612000Y-83710200D03*
D10*
G36*
X119468269Y-82026368D02*
G01*
X119491809Y-82029860D01*
X119514894Y-82035642D01*
X119537301Y-82043659D01*
X119558814Y-82053834D01*
X119579226Y-82066069D01*
X119598340Y-82080245D01*
X119615973Y-82096227D01*
X119631955Y-82113860D01*
X119646131Y-82132974D01*
X119658366Y-82153386D01*
X119668541Y-82174899D01*
X119676558Y-82197306D01*
X119682340Y-82220391D01*
X119685832Y-82243931D01*
X119687000Y-82267700D01*
X119687000Y-82752700D01*
X119685832Y-82776469D01*
X119682340Y-82800009D01*
X119676558Y-82823094D01*
X119668541Y-82845501D01*
X119658366Y-82867014D01*
X119646131Y-82887426D01*
X119631955Y-82906540D01*
X119615973Y-82924173D01*
X119598340Y-82940155D01*
X119579226Y-82954331D01*
X119558814Y-82966566D01*
X119537301Y-82976741D01*
X119514894Y-82984758D01*
X119491809Y-82990540D01*
X119468269Y-82994032D01*
X119444500Y-82995200D01*
X118679500Y-82995200D01*
X118655731Y-82994032D01*
X118632191Y-82990540D01*
X118609106Y-82984758D01*
X118586699Y-82976741D01*
X118565186Y-82966566D01*
X118544774Y-82954331D01*
X118525660Y-82940155D01*
X118508027Y-82924173D01*
X118492045Y-82906540D01*
X118477869Y-82887426D01*
X118465634Y-82867014D01*
X118455459Y-82845501D01*
X118447442Y-82823094D01*
X118441660Y-82800009D01*
X118438168Y-82776469D01*
X118437000Y-82752700D01*
X118437000Y-82267700D01*
X118438168Y-82243931D01*
X118441660Y-82220391D01*
X118447442Y-82197306D01*
X118455459Y-82174899D01*
X118465634Y-82153386D01*
X118477869Y-82132974D01*
X118492045Y-82113860D01*
X118508027Y-82096227D01*
X118525660Y-82080245D01*
X118544774Y-82066069D01*
X118565186Y-82053834D01*
X118586699Y-82043659D01*
X118609106Y-82035642D01*
X118632191Y-82029860D01*
X118655731Y-82026368D01*
X118679500Y-82025200D01*
X119444500Y-82025200D01*
X119468269Y-82026368D01*
X119468269Y-82026368D01*
G37*
D19*
X119062000Y-82510200D03*
D10*
G36*
X121018269Y-82026368D02*
G01*
X121041809Y-82029860D01*
X121064894Y-82035642D01*
X121087301Y-82043659D01*
X121108814Y-82053834D01*
X121129226Y-82066069D01*
X121148340Y-82080245D01*
X121165973Y-82096227D01*
X121181955Y-82113860D01*
X121196131Y-82132974D01*
X121208366Y-82153386D01*
X121218541Y-82174899D01*
X121226558Y-82197306D01*
X121232340Y-82220391D01*
X121235832Y-82243931D01*
X121237000Y-82267700D01*
X121237000Y-82752700D01*
X121235832Y-82776469D01*
X121232340Y-82800009D01*
X121226558Y-82823094D01*
X121218541Y-82845501D01*
X121208366Y-82867014D01*
X121196131Y-82887426D01*
X121181955Y-82906540D01*
X121165973Y-82924173D01*
X121148340Y-82940155D01*
X121129226Y-82954331D01*
X121108814Y-82966566D01*
X121087301Y-82976741D01*
X121064894Y-82984758D01*
X121041809Y-82990540D01*
X121018269Y-82994032D01*
X120994500Y-82995200D01*
X120229500Y-82995200D01*
X120205731Y-82994032D01*
X120182191Y-82990540D01*
X120159106Y-82984758D01*
X120136699Y-82976741D01*
X120115186Y-82966566D01*
X120094774Y-82954331D01*
X120075660Y-82940155D01*
X120058027Y-82924173D01*
X120042045Y-82906540D01*
X120027869Y-82887426D01*
X120015634Y-82867014D01*
X120005459Y-82845501D01*
X119997442Y-82823094D01*
X119991660Y-82800009D01*
X119988168Y-82776469D01*
X119987000Y-82752700D01*
X119987000Y-82267700D01*
X119988168Y-82243931D01*
X119991660Y-82220391D01*
X119997442Y-82197306D01*
X120005459Y-82174899D01*
X120015634Y-82153386D01*
X120027869Y-82132974D01*
X120042045Y-82113860D01*
X120058027Y-82096227D01*
X120075660Y-82080245D01*
X120094774Y-82066069D01*
X120115186Y-82053834D01*
X120136699Y-82043659D01*
X120159106Y-82035642D01*
X120182191Y-82029860D01*
X120205731Y-82026368D01*
X120229500Y-82025200D01*
X120994500Y-82025200D01*
X121018269Y-82026368D01*
X121018269Y-82026368D01*
G37*
D19*
X120612000Y-82510200D03*
D10*
G36*
X118096703Y-84960922D02*
G01*
X118111264Y-84963082D01*
X118125543Y-84966659D01*
X118139403Y-84971618D01*
X118152710Y-84977912D01*
X118165336Y-84985480D01*
X118177159Y-84994248D01*
X118188066Y-85004134D01*
X118197952Y-85015041D01*
X118206720Y-85026864D01*
X118214288Y-85039490D01*
X118220582Y-85052797D01*
X118225541Y-85066657D01*
X118229118Y-85080936D01*
X118231278Y-85095497D01*
X118232000Y-85110200D01*
X118232000Y-86410200D01*
X118231278Y-86424903D01*
X118229118Y-86439464D01*
X118225541Y-86453743D01*
X118220582Y-86467603D01*
X118214288Y-86480910D01*
X118206720Y-86493536D01*
X118197952Y-86505359D01*
X118188066Y-86516266D01*
X118177159Y-86526152D01*
X118165336Y-86534920D01*
X118152710Y-86542488D01*
X118139403Y-86548782D01*
X118125543Y-86553741D01*
X118111264Y-86557318D01*
X118096703Y-86559478D01*
X118082000Y-86560200D01*
X117782000Y-86560200D01*
X117767297Y-86559478D01*
X117752736Y-86557318D01*
X117738457Y-86553741D01*
X117724597Y-86548782D01*
X117711290Y-86542488D01*
X117698664Y-86534920D01*
X117686841Y-86526152D01*
X117675934Y-86516266D01*
X117666048Y-86505359D01*
X117657280Y-86493536D01*
X117649712Y-86480910D01*
X117643418Y-86467603D01*
X117638459Y-86453743D01*
X117634882Y-86439464D01*
X117632722Y-86424903D01*
X117632000Y-86410200D01*
X117632000Y-85110200D01*
X117632722Y-85095497D01*
X117634882Y-85080936D01*
X117638459Y-85066657D01*
X117643418Y-85052797D01*
X117649712Y-85039490D01*
X117657280Y-85026864D01*
X117666048Y-85015041D01*
X117675934Y-85004134D01*
X117686841Y-84994248D01*
X117698664Y-84985480D01*
X117711290Y-84977912D01*
X117724597Y-84971618D01*
X117738457Y-84966659D01*
X117752736Y-84963082D01*
X117767297Y-84960922D01*
X117782000Y-84960200D01*
X118082000Y-84960200D01*
X118096703Y-84960922D01*
X118096703Y-84960922D01*
G37*
D20*
X117932000Y-85760200D03*
D10*
G36*
X119366703Y-84960922D02*
G01*
X119381264Y-84963082D01*
X119395543Y-84966659D01*
X119409403Y-84971618D01*
X119422710Y-84977912D01*
X119435336Y-84985480D01*
X119447159Y-84994248D01*
X119458066Y-85004134D01*
X119467952Y-85015041D01*
X119476720Y-85026864D01*
X119484288Y-85039490D01*
X119490582Y-85052797D01*
X119495541Y-85066657D01*
X119499118Y-85080936D01*
X119501278Y-85095497D01*
X119502000Y-85110200D01*
X119502000Y-86410200D01*
X119501278Y-86424903D01*
X119499118Y-86439464D01*
X119495541Y-86453743D01*
X119490582Y-86467603D01*
X119484288Y-86480910D01*
X119476720Y-86493536D01*
X119467952Y-86505359D01*
X119458066Y-86516266D01*
X119447159Y-86526152D01*
X119435336Y-86534920D01*
X119422710Y-86542488D01*
X119409403Y-86548782D01*
X119395543Y-86553741D01*
X119381264Y-86557318D01*
X119366703Y-86559478D01*
X119352000Y-86560200D01*
X119052000Y-86560200D01*
X119037297Y-86559478D01*
X119022736Y-86557318D01*
X119008457Y-86553741D01*
X118994597Y-86548782D01*
X118981290Y-86542488D01*
X118968664Y-86534920D01*
X118956841Y-86526152D01*
X118945934Y-86516266D01*
X118936048Y-86505359D01*
X118927280Y-86493536D01*
X118919712Y-86480910D01*
X118913418Y-86467603D01*
X118908459Y-86453743D01*
X118904882Y-86439464D01*
X118902722Y-86424903D01*
X118902000Y-86410200D01*
X118902000Y-85110200D01*
X118902722Y-85095497D01*
X118904882Y-85080936D01*
X118908459Y-85066657D01*
X118913418Y-85052797D01*
X118919712Y-85039490D01*
X118927280Y-85026864D01*
X118936048Y-85015041D01*
X118945934Y-85004134D01*
X118956841Y-84994248D01*
X118968664Y-84985480D01*
X118981290Y-84977912D01*
X118994597Y-84971618D01*
X119008457Y-84966659D01*
X119022736Y-84963082D01*
X119037297Y-84960922D01*
X119052000Y-84960200D01*
X119352000Y-84960200D01*
X119366703Y-84960922D01*
X119366703Y-84960922D01*
G37*
D20*
X119202000Y-85760200D03*
D10*
G36*
X120636703Y-84960922D02*
G01*
X120651264Y-84963082D01*
X120665543Y-84966659D01*
X120679403Y-84971618D01*
X120692710Y-84977912D01*
X120705336Y-84985480D01*
X120717159Y-84994248D01*
X120728066Y-85004134D01*
X120737952Y-85015041D01*
X120746720Y-85026864D01*
X120754288Y-85039490D01*
X120760582Y-85052797D01*
X120765541Y-85066657D01*
X120769118Y-85080936D01*
X120771278Y-85095497D01*
X120772000Y-85110200D01*
X120772000Y-86410200D01*
X120771278Y-86424903D01*
X120769118Y-86439464D01*
X120765541Y-86453743D01*
X120760582Y-86467603D01*
X120754288Y-86480910D01*
X120746720Y-86493536D01*
X120737952Y-86505359D01*
X120728066Y-86516266D01*
X120717159Y-86526152D01*
X120705336Y-86534920D01*
X120692710Y-86542488D01*
X120679403Y-86548782D01*
X120665543Y-86553741D01*
X120651264Y-86557318D01*
X120636703Y-86559478D01*
X120622000Y-86560200D01*
X120322000Y-86560200D01*
X120307297Y-86559478D01*
X120292736Y-86557318D01*
X120278457Y-86553741D01*
X120264597Y-86548782D01*
X120251290Y-86542488D01*
X120238664Y-86534920D01*
X120226841Y-86526152D01*
X120215934Y-86516266D01*
X120206048Y-86505359D01*
X120197280Y-86493536D01*
X120189712Y-86480910D01*
X120183418Y-86467603D01*
X120178459Y-86453743D01*
X120174882Y-86439464D01*
X120172722Y-86424903D01*
X120172000Y-86410200D01*
X120172000Y-85110200D01*
X120172722Y-85095497D01*
X120174882Y-85080936D01*
X120178459Y-85066657D01*
X120183418Y-85052797D01*
X120189712Y-85039490D01*
X120197280Y-85026864D01*
X120206048Y-85015041D01*
X120215934Y-85004134D01*
X120226841Y-84994248D01*
X120238664Y-84985480D01*
X120251290Y-84977912D01*
X120264597Y-84971618D01*
X120278457Y-84966659D01*
X120292736Y-84963082D01*
X120307297Y-84960922D01*
X120322000Y-84960200D01*
X120622000Y-84960200D01*
X120636703Y-84960922D01*
X120636703Y-84960922D01*
G37*
D20*
X120472000Y-85760200D03*
D10*
G36*
X121906703Y-84960922D02*
G01*
X121921264Y-84963082D01*
X121935543Y-84966659D01*
X121949403Y-84971618D01*
X121962710Y-84977912D01*
X121975336Y-84985480D01*
X121987159Y-84994248D01*
X121998066Y-85004134D01*
X122007952Y-85015041D01*
X122016720Y-85026864D01*
X122024288Y-85039490D01*
X122030582Y-85052797D01*
X122035541Y-85066657D01*
X122039118Y-85080936D01*
X122041278Y-85095497D01*
X122042000Y-85110200D01*
X122042000Y-86410200D01*
X122041278Y-86424903D01*
X122039118Y-86439464D01*
X122035541Y-86453743D01*
X122030582Y-86467603D01*
X122024288Y-86480910D01*
X122016720Y-86493536D01*
X122007952Y-86505359D01*
X121998066Y-86516266D01*
X121987159Y-86526152D01*
X121975336Y-86534920D01*
X121962710Y-86542488D01*
X121949403Y-86548782D01*
X121935543Y-86553741D01*
X121921264Y-86557318D01*
X121906703Y-86559478D01*
X121892000Y-86560200D01*
X121592000Y-86560200D01*
X121577297Y-86559478D01*
X121562736Y-86557318D01*
X121548457Y-86553741D01*
X121534597Y-86548782D01*
X121521290Y-86542488D01*
X121508664Y-86534920D01*
X121496841Y-86526152D01*
X121485934Y-86516266D01*
X121476048Y-86505359D01*
X121467280Y-86493536D01*
X121459712Y-86480910D01*
X121453418Y-86467603D01*
X121448459Y-86453743D01*
X121444882Y-86439464D01*
X121442722Y-86424903D01*
X121442000Y-86410200D01*
X121442000Y-85110200D01*
X121442722Y-85095497D01*
X121444882Y-85080936D01*
X121448459Y-85066657D01*
X121453418Y-85052797D01*
X121459712Y-85039490D01*
X121467280Y-85026864D01*
X121476048Y-85015041D01*
X121485934Y-85004134D01*
X121496841Y-84994248D01*
X121508664Y-84985480D01*
X121521290Y-84977912D01*
X121534597Y-84971618D01*
X121548457Y-84966659D01*
X121562736Y-84963082D01*
X121577297Y-84960922D01*
X121592000Y-84960200D01*
X121892000Y-84960200D01*
X121906703Y-84960922D01*
X121906703Y-84960922D01*
G37*
D20*
X121742000Y-85760200D03*
D10*
G36*
X121906703Y-79660922D02*
G01*
X121921264Y-79663082D01*
X121935543Y-79666659D01*
X121949403Y-79671618D01*
X121962710Y-79677912D01*
X121975336Y-79685480D01*
X121987159Y-79694248D01*
X121998066Y-79704134D01*
X122007952Y-79715041D01*
X122016720Y-79726864D01*
X122024288Y-79739490D01*
X122030582Y-79752797D01*
X122035541Y-79766657D01*
X122039118Y-79780936D01*
X122041278Y-79795497D01*
X122042000Y-79810200D01*
X122042000Y-81110200D01*
X122041278Y-81124903D01*
X122039118Y-81139464D01*
X122035541Y-81153743D01*
X122030582Y-81167603D01*
X122024288Y-81180910D01*
X122016720Y-81193536D01*
X122007952Y-81205359D01*
X121998066Y-81216266D01*
X121987159Y-81226152D01*
X121975336Y-81234920D01*
X121962710Y-81242488D01*
X121949403Y-81248782D01*
X121935543Y-81253741D01*
X121921264Y-81257318D01*
X121906703Y-81259478D01*
X121892000Y-81260200D01*
X121592000Y-81260200D01*
X121577297Y-81259478D01*
X121562736Y-81257318D01*
X121548457Y-81253741D01*
X121534597Y-81248782D01*
X121521290Y-81242488D01*
X121508664Y-81234920D01*
X121496841Y-81226152D01*
X121485934Y-81216266D01*
X121476048Y-81205359D01*
X121467280Y-81193536D01*
X121459712Y-81180910D01*
X121453418Y-81167603D01*
X121448459Y-81153743D01*
X121444882Y-81139464D01*
X121442722Y-81124903D01*
X121442000Y-81110200D01*
X121442000Y-79810200D01*
X121442722Y-79795497D01*
X121444882Y-79780936D01*
X121448459Y-79766657D01*
X121453418Y-79752797D01*
X121459712Y-79739490D01*
X121467280Y-79726864D01*
X121476048Y-79715041D01*
X121485934Y-79704134D01*
X121496841Y-79694248D01*
X121508664Y-79685480D01*
X121521290Y-79677912D01*
X121534597Y-79671618D01*
X121548457Y-79666659D01*
X121562736Y-79663082D01*
X121577297Y-79660922D01*
X121592000Y-79660200D01*
X121892000Y-79660200D01*
X121906703Y-79660922D01*
X121906703Y-79660922D01*
G37*
D20*
X121742000Y-80460200D03*
D10*
G36*
X120636703Y-79660922D02*
G01*
X120651264Y-79663082D01*
X120665543Y-79666659D01*
X120679403Y-79671618D01*
X120692710Y-79677912D01*
X120705336Y-79685480D01*
X120717159Y-79694248D01*
X120728066Y-79704134D01*
X120737952Y-79715041D01*
X120746720Y-79726864D01*
X120754288Y-79739490D01*
X120760582Y-79752797D01*
X120765541Y-79766657D01*
X120769118Y-79780936D01*
X120771278Y-79795497D01*
X120772000Y-79810200D01*
X120772000Y-81110200D01*
X120771278Y-81124903D01*
X120769118Y-81139464D01*
X120765541Y-81153743D01*
X120760582Y-81167603D01*
X120754288Y-81180910D01*
X120746720Y-81193536D01*
X120737952Y-81205359D01*
X120728066Y-81216266D01*
X120717159Y-81226152D01*
X120705336Y-81234920D01*
X120692710Y-81242488D01*
X120679403Y-81248782D01*
X120665543Y-81253741D01*
X120651264Y-81257318D01*
X120636703Y-81259478D01*
X120622000Y-81260200D01*
X120322000Y-81260200D01*
X120307297Y-81259478D01*
X120292736Y-81257318D01*
X120278457Y-81253741D01*
X120264597Y-81248782D01*
X120251290Y-81242488D01*
X120238664Y-81234920D01*
X120226841Y-81226152D01*
X120215934Y-81216266D01*
X120206048Y-81205359D01*
X120197280Y-81193536D01*
X120189712Y-81180910D01*
X120183418Y-81167603D01*
X120178459Y-81153743D01*
X120174882Y-81139464D01*
X120172722Y-81124903D01*
X120172000Y-81110200D01*
X120172000Y-79810200D01*
X120172722Y-79795497D01*
X120174882Y-79780936D01*
X120178459Y-79766657D01*
X120183418Y-79752797D01*
X120189712Y-79739490D01*
X120197280Y-79726864D01*
X120206048Y-79715041D01*
X120215934Y-79704134D01*
X120226841Y-79694248D01*
X120238664Y-79685480D01*
X120251290Y-79677912D01*
X120264597Y-79671618D01*
X120278457Y-79666659D01*
X120292736Y-79663082D01*
X120307297Y-79660922D01*
X120322000Y-79660200D01*
X120622000Y-79660200D01*
X120636703Y-79660922D01*
X120636703Y-79660922D01*
G37*
D20*
X120472000Y-80460200D03*
D10*
G36*
X119366703Y-79660922D02*
G01*
X119381264Y-79663082D01*
X119395543Y-79666659D01*
X119409403Y-79671618D01*
X119422710Y-79677912D01*
X119435336Y-79685480D01*
X119447159Y-79694248D01*
X119458066Y-79704134D01*
X119467952Y-79715041D01*
X119476720Y-79726864D01*
X119484288Y-79739490D01*
X119490582Y-79752797D01*
X119495541Y-79766657D01*
X119499118Y-79780936D01*
X119501278Y-79795497D01*
X119502000Y-79810200D01*
X119502000Y-81110200D01*
X119501278Y-81124903D01*
X119499118Y-81139464D01*
X119495541Y-81153743D01*
X119490582Y-81167603D01*
X119484288Y-81180910D01*
X119476720Y-81193536D01*
X119467952Y-81205359D01*
X119458066Y-81216266D01*
X119447159Y-81226152D01*
X119435336Y-81234920D01*
X119422710Y-81242488D01*
X119409403Y-81248782D01*
X119395543Y-81253741D01*
X119381264Y-81257318D01*
X119366703Y-81259478D01*
X119352000Y-81260200D01*
X119052000Y-81260200D01*
X119037297Y-81259478D01*
X119022736Y-81257318D01*
X119008457Y-81253741D01*
X118994597Y-81248782D01*
X118981290Y-81242488D01*
X118968664Y-81234920D01*
X118956841Y-81226152D01*
X118945934Y-81216266D01*
X118936048Y-81205359D01*
X118927280Y-81193536D01*
X118919712Y-81180910D01*
X118913418Y-81167603D01*
X118908459Y-81153743D01*
X118904882Y-81139464D01*
X118902722Y-81124903D01*
X118902000Y-81110200D01*
X118902000Y-79810200D01*
X118902722Y-79795497D01*
X118904882Y-79780936D01*
X118908459Y-79766657D01*
X118913418Y-79752797D01*
X118919712Y-79739490D01*
X118927280Y-79726864D01*
X118936048Y-79715041D01*
X118945934Y-79704134D01*
X118956841Y-79694248D01*
X118968664Y-79685480D01*
X118981290Y-79677912D01*
X118994597Y-79671618D01*
X119008457Y-79666659D01*
X119022736Y-79663082D01*
X119037297Y-79660922D01*
X119052000Y-79660200D01*
X119352000Y-79660200D01*
X119366703Y-79660922D01*
X119366703Y-79660922D01*
G37*
D20*
X119202000Y-80460200D03*
D10*
G36*
X118096703Y-79660922D02*
G01*
X118111264Y-79663082D01*
X118125543Y-79666659D01*
X118139403Y-79671618D01*
X118152710Y-79677912D01*
X118165336Y-79685480D01*
X118177159Y-79694248D01*
X118188066Y-79704134D01*
X118197952Y-79715041D01*
X118206720Y-79726864D01*
X118214288Y-79739490D01*
X118220582Y-79752797D01*
X118225541Y-79766657D01*
X118229118Y-79780936D01*
X118231278Y-79795497D01*
X118232000Y-79810200D01*
X118232000Y-81110200D01*
X118231278Y-81124903D01*
X118229118Y-81139464D01*
X118225541Y-81153743D01*
X118220582Y-81167603D01*
X118214288Y-81180910D01*
X118206720Y-81193536D01*
X118197952Y-81205359D01*
X118188066Y-81216266D01*
X118177159Y-81226152D01*
X118165336Y-81234920D01*
X118152710Y-81242488D01*
X118139403Y-81248782D01*
X118125543Y-81253741D01*
X118111264Y-81257318D01*
X118096703Y-81259478D01*
X118082000Y-81260200D01*
X117782000Y-81260200D01*
X117767297Y-81259478D01*
X117752736Y-81257318D01*
X117738457Y-81253741D01*
X117724597Y-81248782D01*
X117711290Y-81242488D01*
X117698664Y-81234920D01*
X117686841Y-81226152D01*
X117675934Y-81216266D01*
X117666048Y-81205359D01*
X117657280Y-81193536D01*
X117649712Y-81180910D01*
X117643418Y-81167603D01*
X117638459Y-81153743D01*
X117634882Y-81139464D01*
X117632722Y-81124903D01*
X117632000Y-81110200D01*
X117632000Y-79810200D01*
X117632722Y-79795497D01*
X117634882Y-79780936D01*
X117638459Y-79766657D01*
X117643418Y-79752797D01*
X117649712Y-79739490D01*
X117657280Y-79726864D01*
X117666048Y-79715041D01*
X117675934Y-79704134D01*
X117686841Y-79694248D01*
X117698664Y-79685480D01*
X117711290Y-79677912D01*
X117724597Y-79671618D01*
X117738457Y-79666659D01*
X117752736Y-79663082D01*
X117767297Y-79660922D01*
X117782000Y-79660200D01*
X118082000Y-79660200D01*
X118096703Y-79660922D01*
X118096703Y-79660922D01*
G37*
D20*
X117932000Y-80460200D03*
D21*
X111535000Y-98030200D03*
X111535000Y-97080200D03*
X111535000Y-96130200D03*
X108835000Y-96130200D03*
X108835000Y-98030200D03*
X108835000Y-97080200D03*
M02*
