G04 #@! TF.GenerationSoftware,KiCad,Pcbnew,5.1.0-unknown-078fdb9~94~ubuntu16.04.1*
G04 #@! TF.CreationDate,2019-04-21T00:44:34+02:00*
G04 #@! TF.ProjectId,mySensors_door_switch,6d795365-6e73-46f7-9273-5f646f6f725f,1.2*
G04 #@! TF.SameCoordinates,Original*
G04 #@! TF.FileFunction,Soldermask,Top*
G04 #@! TF.FilePolarity,Negative*
%FSLAX46Y46*%
G04 Gerber Fmt 4.6, Leading zero omitted, Abs format (unit mm)*
G04 Created by KiCad (PCBNEW 5.1.0-unknown-078fdb9~94~ubuntu16.04.1) date 2019-04-21 00:44:34*
%MOMM*%
%LPD*%
G04 APERTURE LIST*
%ADD10C,0.100000*%
G04 APERTURE END LIST*
D10*
X148618500Y-68366000D02*
G75*
G03X148618500Y-68366000I-444500J0D01*
G01*
X153118500Y-68366000D02*
G75*
G03X153118500Y-68366000I-444500J0D01*
G01*
X154559000Y-70866000D02*
G75*
G03X154559000Y-70866000I-635000J0D01*
G01*
X147559000Y-70866000D02*
G75*
G03X147559000Y-70866000I-635000J0D01*
G01*
G36*
X182408771Y-104279000D02*
G01*
X182789437Y-104354719D01*
X183290087Y-104562095D01*
X183409616Y-104641962D01*
X183740660Y-104863158D01*
X184123842Y-105246340D01*
X184255793Y-105443819D01*
X184424905Y-105696913D01*
X184632281Y-106197563D01*
X184635857Y-106215540D01*
X184738000Y-106729049D01*
X184738000Y-107270951D01*
X184702186Y-107451000D01*
X184632281Y-107802437D01*
X184424905Y-108303087D01*
X184368521Y-108387471D01*
X184123842Y-108753660D01*
X183740660Y-109136842D01*
X183477774Y-109312496D01*
X183290087Y-109437905D01*
X182789437Y-109645281D01*
X182523693Y-109698141D01*
X182257951Y-109751000D01*
X181716049Y-109751000D01*
X181450307Y-109698141D01*
X181184563Y-109645281D01*
X180683913Y-109437905D01*
X180496226Y-109312496D01*
X180233340Y-109136842D01*
X179850158Y-108753660D01*
X179605479Y-108387471D01*
X179549095Y-108303087D01*
X179341719Y-107802437D01*
X179271814Y-107451000D01*
X179236000Y-107270951D01*
X179236000Y-106729049D01*
X179338143Y-106215540D01*
X179341719Y-106197563D01*
X179549095Y-105696913D01*
X179718207Y-105443819D01*
X179850158Y-105246340D01*
X180233340Y-104863158D01*
X180564384Y-104641962D01*
X180683913Y-104562095D01*
X181184563Y-104354719D01*
X181565229Y-104279000D01*
X181716049Y-104249000D01*
X182257951Y-104249000D01*
X182408771Y-104279000D01*
X182408771Y-104279000D01*
G37*
G36*
X103408771Y-104279000D02*
G01*
X103789437Y-104354719D01*
X104290087Y-104562095D01*
X104409616Y-104641962D01*
X104740660Y-104863158D01*
X105123842Y-105246340D01*
X105255793Y-105443819D01*
X105424905Y-105696913D01*
X105632281Y-106197563D01*
X105635857Y-106215540D01*
X105738000Y-106729049D01*
X105738000Y-107270951D01*
X105702186Y-107451000D01*
X105632281Y-107802437D01*
X105424905Y-108303087D01*
X105368521Y-108387471D01*
X105123842Y-108753660D01*
X104740660Y-109136842D01*
X104477774Y-109312496D01*
X104290087Y-109437905D01*
X103789437Y-109645281D01*
X103523693Y-109698141D01*
X103257951Y-109751000D01*
X102716049Y-109751000D01*
X102450307Y-109698141D01*
X102184563Y-109645281D01*
X101683913Y-109437905D01*
X101496226Y-109312496D01*
X101233340Y-109136842D01*
X100850158Y-108753660D01*
X100605479Y-108387471D01*
X100549095Y-108303087D01*
X100341719Y-107802437D01*
X100271814Y-107451000D01*
X100236000Y-107270951D01*
X100236000Y-106729049D01*
X100338143Y-106215540D01*
X100341719Y-106197563D01*
X100549095Y-105696913D01*
X100718207Y-105443819D01*
X100850158Y-105246340D01*
X101233340Y-104863158D01*
X101564384Y-104641962D01*
X101683913Y-104562095D01*
X102184563Y-104354719D01*
X102565229Y-104279000D01*
X102716049Y-104249000D01*
X103257951Y-104249000D01*
X103408771Y-104279000D01*
X103408771Y-104279000D01*
G37*
G36*
X161950600Y-105620009D02*
G01*
X161953002Y-105644395D01*
X161960115Y-105667844D01*
X161971666Y-105689455D01*
X161987211Y-105708397D01*
X162006153Y-105723942D01*
X162027764Y-105735493D01*
X162051213Y-105742606D01*
X162075599Y-105745008D01*
X162099985Y-105742606D01*
X162123434Y-105735493D01*
X162145045Y-105723942D01*
X162163987Y-105708397D01*
X162179532Y-105689455D01*
X162191083Y-105667844D01*
X162225491Y-105584776D01*
X162325583Y-105434978D01*
X162452978Y-105307583D01*
X162602776Y-105207491D01*
X162769222Y-105138547D01*
X162945918Y-105103400D01*
X163126082Y-105103400D01*
X163302778Y-105138547D01*
X163469224Y-105207491D01*
X163619022Y-105307583D01*
X163746417Y-105434978D01*
X163846509Y-105584776D01*
X163919472Y-105760924D01*
X163920514Y-105764360D01*
X163932064Y-105785971D01*
X163947609Y-105804914D01*
X163966550Y-105820460D01*
X163988160Y-105832012D01*
X164011609Y-105839126D01*
X164035995Y-105841529D01*
X164060381Y-105839128D01*
X164083830Y-105832016D01*
X164105441Y-105820466D01*
X164124384Y-105804921D01*
X164139930Y-105785980D01*
X164151482Y-105764370D01*
X164152525Y-105760932D01*
X164225491Y-105584776D01*
X164325583Y-105434978D01*
X164452978Y-105307583D01*
X164602776Y-105207491D01*
X164769222Y-105138547D01*
X164945918Y-105103400D01*
X165126082Y-105103400D01*
X165302778Y-105138547D01*
X165469224Y-105207491D01*
X165619022Y-105307583D01*
X165746417Y-105434978D01*
X165846509Y-105584776D01*
X165919472Y-105760924D01*
X165920514Y-105764360D01*
X165932064Y-105785971D01*
X165947609Y-105804914D01*
X165966550Y-105820460D01*
X165988160Y-105832012D01*
X166011609Y-105839126D01*
X166035995Y-105841529D01*
X166060381Y-105839128D01*
X166083830Y-105832016D01*
X166105441Y-105820466D01*
X166124384Y-105804921D01*
X166139930Y-105785980D01*
X166151482Y-105764370D01*
X166152525Y-105760932D01*
X166225491Y-105584776D01*
X166325583Y-105434978D01*
X166452978Y-105307583D01*
X166602776Y-105207491D01*
X166769222Y-105138547D01*
X166945918Y-105103400D01*
X167126082Y-105103400D01*
X167302778Y-105138547D01*
X167469224Y-105207491D01*
X167619022Y-105307583D01*
X167746417Y-105434978D01*
X167846509Y-105584776D01*
X167919472Y-105760924D01*
X167920514Y-105764360D01*
X167932064Y-105785971D01*
X167947609Y-105804914D01*
X167966550Y-105820460D01*
X167988160Y-105832012D01*
X168011609Y-105839126D01*
X168035995Y-105841529D01*
X168060381Y-105839128D01*
X168083830Y-105832016D01*
X168105441Y-105820466D01*
X168124384Y-105804921D01*
X168139930Y-105785980D01*
X168151482Y-105764370D01*
X168152525Y-105760932D01*
X168225491Y-105584776D01*
X168325583Y-105434978D01*
X168452978Y-105307583D01*
X168602776Y-105207491D01*
X168769222Y-105138547D01*
X168945918Y-105103400D01*
X169126082Y-105103400D01*
X169302778Y-105138547D01*
X169469224Y-105207491D01*
X169619022Y-105307583D01*
X169746417Y-105434978D01*
X169846509Y-105584776D01*
X169919472Y-105760924D01*
X169920514Y-105764360D01*
X169932064Y-105785971D01*
X169947609Y-105804914D01*
X169966550Y-105820460D01*
X169988160Y-105832012D01*
X170011609Y-105839126D01*
X170035995Y-105841529D01*
X170060381Y-105839128D01*
X170083830Y-105832016D01*
X170105441Y-105820466D01*
X170124384Y-105804921D01*
X170139930Y-105785980D01*
X170151482Y-105764370D01*
X170152525Y-105760932D01*
X170225491Y-105584776D01*
X170325583Y-105434978D01*
X170452978Y-105307583D01*
X170602776Y-105207491D01*
X170769222Y-105138547D01*
X170945918Y-105103400D01*
X171126082Y-105103400D01*
X171302778Y-105138547D01*
X171469224Y-105207491D01*
X171619022Y-105307583D01*
X171746417Y-105434978D01*
X171846509Y-105584776D01*
X171919472Y-105760924D01*
X171920514Y-105764360D01*
X171932064Y-105785971D01*
X171947609Y-105804914D01*
X171966550Y-105820460D01*
X171988160Y-105832012D01*
X172011609Y-105839126D01*
X172035995Y-105841529D01*
X172060381Y-105839128D01*
X172083830Y-105832016D01*
X172105441Y-105820466D01*
X172124384Y-105804921D01*
X172139930Y-105785980D01*
X172151482Y-105764370D01*
X172152525Y-105760932D01*
X172225491Y-105584776D01*
X172325583Y-105434978D01*
X172452978Y-105307583D01*
X172602776Y-105207491D01*
X172769222Y-105138547D01*
X172945918Y-105103400D01*
X173126082Y-105103400D01*
X173302778Y-105138547D01*
X173469224Y-105207491D01*
X173619022Y-105307583D01*
X173746417Y-105434978D01*
X173846509Y-105584776D01*
X173919472Y-105760924D01*
X173920514Y-105764360D01*
X173932064Y-105785971D01*
X173947609Y-105804914D01*
X173966550Y-105820460D01*
X173988160Y-105832012D01*
X174011609Y-105839126D01*
X174035995Y-105841529D01*
X174060381Y-105839128D01*
X174083830Y-105832016D01*
X174105441Y-105820466D01*
X174124384Y-105804921D01*
X174139930Y-105785980D01*
X174151482Y-105764370D01*
X174152525Y-105760932D01*
X174225491Y-105584776D01*
X174325583Y-105434978D01*
X174452978Y-105307583D01*
X174602776Y-105207491D01*
X174769222Y-105138547D01*
X174945918Y-105103400D01*
X175126082Y-105103400D01*
X175302778Y-105138547D01*
X175469224Y-105207491D01*
X175619022Y-105307583D01*
X175746417Y-105434978D01*
X175846509Y-105584776D01*
X175915453Y-105751222D01*
X175950600Y-105927918D01*
X175950600Y-106108082D01*
X175915453Y-106284778D01*
X175846509Y-106451224D01*
X175746417Y-106601022D01*
X175723611Y-106623828D01*
X175708066Y-106642770D01*
X175696515Y-106664381D01*
X175689402Y-106687830D01*
X175687000Y-106712216D01*
X175687000Y-108869000D01*
X174385000Y-108869000D01*
X174385000Y-106712216D01*
X174382598Y-106687830D01*
X174375485Y-106664381D01*
X174363934Y-106642770D01*
X174348389Y-106623828D01*
X174325583Y-106601022D01*
X174225491Y-106451224D01*
X174152528Y-106275076D01*
X174151486Y-106271640D01*
X174139936Y-106250029D01*
X174124391Y-106231086D01*
X174105450Y-106215540D01*
X174083840Y-106203988D01*
X174060391Y-106196874D01*
X174036005Y-106194471D01*
X174011619Y-106196872D01*
X173988170Y-106203984D01*
X173966559Y-106215534D01*
X173947616Y-106231079D01*
X173932070Y-106250020D01*
X173920518Y-106271630D01*
X173919475Y-106275068D01*
X173846509Y-106451224D01*
X173746417Y-106601022D01*
X173723611Y-106623828D01*
X173708066Y-106642770D01*
X173696515Y-106664381D01*
X173689402Y-106687830D01*
X173687000Y-106712216D01*
X173687000Y-108869000D01*
X172385000Y-108869000D01*
X172385000Y-106712216D01*
X172382598Y-106687830D01*
X172375485Y-106664381D01*
X172363934Y-106642770D01*
X172348389Y-106623828D01*
X172325583Y-106601022D01*
X172225491Y-106451224D01*
X172152528Y-106275076D01*
X172151486Y-106271640D01*
X172139936Y-106250029D01*
X172124391Y-106231086D01*
X172105450Y-106215540D01*
X172083840Y-106203988D01*
X172060391Y-106196874D01*
X172036005Y-106194471D01*
X172011619Y-106196872D01*
X171988170Y-106203984D01*
X171966559Y-106215534D01*
X171947616Y-106231079D01*
X171932070Y-106250020D01*
X171920518Y-106271630D01*
X171919475Y-106275068D01*
X171846509Y-106451224D01*
X171746417Y-106601022D01*
X171723611Y-106623828D01*
X171708066Y-106642770D01*
X171696515Y-106664381D01*
X171689402Y-106687830D01*
X171687000Y-106712216D01*
X171687000Y-108869000D01*
X170385000Y-108869000D01*
X170385000Y-106712216D01*
X170382598Y-106687830D01*
X170375485Y-106664381D01*
X170363934Y-106642770D01*
X170348389Y-106623828D01*
X170325583Y-106601022D01*
X170225491Y-106451224D01*
X170152528Y-106275076D01*
X170151486Y-106271640D01*
X170139936Y-106250029D01*
X170124391Y-106231086D01*
X170105450Y-106215540D01*
X170083840Y-106203988D01*
X170060391Y-106196874D01*
X170036005Y-106194471D01*
X170011619Y-106196872D01*
X169988170Y-106203984D01*
X169966559Y-106215534D01*
X169947616Y-106231079D01*
X169932070Y-106250020D01*
X169920518Y-106271630D01*
X169919475Y-106275068D01*
X169846509Y-106451224D01*
X169746417Y-106601022D01*
X169723611Y-106623828D01*
X169708066Y-106642770D01*
X169696515Y-106664381D01*
X169689402Y-106687830D01*
X169687000Y-106712216D01*
X169687000Y-108869000D01*
X168385000Y-108869000D01*
X168385000Y-106712216D01*
X168382598Y-106687830D01*
X168375485Y-106664381D01*
X168363934Y-106642770D01*
X168348389Y-106623828D01*
X168325583Y-106601022D01*
X168225491Y-106451224D01*
X168152528Y-106275076D01*
X168151486Y-106271640D01*
X168139936Y-106250029D01*
X168124391Y-106231086D01*
X168105450Y-106215540D01*
X168083840Y-106203988D01*
X168060391Y-106196874D01*
X168036005Y-106194471D01*
X168011619Y-106196872D01*
X167988170Y-106203984D01*
X167966559Y-106215534D01*
X167947616Y-106231079D01*
X167932070Y-106250020D01*
X167920518Y-106271630D01*
X167919475Y-106275068D01*
X167846509Y-106451224D01*
X167746417Y-106601022D01*
X167723611Y-106623828D01*
X167708066Y-106642770D01*
X167696515Y-106664381D01*
X167689402Y-106687830D01*
X167687000Y-106712216D01*
X167687000Y-108869000D01*
X166385000Y-108869000D01*
X166385000Y-106712216D01*
X166382598Y-106687830D01*
X166375485Y-106664381D01*
X166363934Y-106642770D01*
X166348389Y-106623828D01*
X166325583Y-106601022D01*
X166225491Y-106451224D01*
X166152528Y-106275076D01*
X166151486Y-106271640D01*
X166139936Y-106250029D01*
X166124391Y-106231086D01*
X166105450Y-106215540D01*
X166083840Y-106203988D01*
X166060391Y-106196874D01*
X166036005Y-106194471D01*
X166011619Y-106196872D01*
X165988170Y-106203984D01*
X165966559Y-106215534D01*
X165947616Y-106231079D01*
X165932070Y-106250020D01*
X165920518Y-106271630D01*
X165919475Y-106275068D01*
X165846509Y-106451224D01*
X165746417Y-106601022D01*
X165723611Y-106623828D01*
X165708066Y-106642770D01*
X165696515Y-106664381D01*
X165689402Y-106687830D01*
X165687000Y-106712216D01*
X165687000Y-108869000D01*
X164385000Y-108869000D01*
X164385000Y-106712216D01*
X164382598Y-106687830D01*
X164375485Y-106664381D01*
X164363934Y-106642770D01*
X164348389Y-106623828D01*
X164325583Y-106601022D01*
X164225491Y-106451224D01*
X164152528Y-106275076D01*
X164151486Y-106271640D01*
X164139936Y-106250029D01*
X164124391Y-106231086D01*
X164105450Y-106215540D01*
X164083840Y-106203988D01*
X164060391Y-106196874D01*
X164036005Y-106194471D01*
X164011619Y-106196872D01*
X163988170Y-106203984D01*
X163966559Y-106215534D01*
X163947616Y-106231079D01*
X163932070Y-106250020D01*
X163920518Y-106271630D01*
X163919475Y-106275068D01*
X163846509Y-106451224D01*
X163746417Y-106601022D01*
X163723611Y-106623828D01*
X163708066Y-106642770D01*
X163696515Y-106664381D01*
X163689402Y-106687830D01*
X163687000Y-106712216D01*
X163687000Y-108869000D01*
X162385000Y-108869000D01*
X162385000Y-106712216D01*
X162382598Y-106687830D01*
X162375485Y-106664381D01*
X162363934Y-106642770D01*
X162348389Y-106623828D01*
X162325583Y-106601022D01*
X162225491Y-106451224D01*
X162191083Y-106368156D01*
X162179532Y-106346545D01*
X162163987Y-106327603D01*
X162145045Y-106312058D01*
X162123434Y-106300507D01*
X162099985Y-106293394D01*
X162075599Y-106290992D01*
X162051213Y-106293394D01*
X162027764Y-106300507D01*
X162006153Y-106312058D01*
X161987211Y-106327603D01*
X161971666Y-106346545D01*
X161960115Y-106368156D01*
X161953002Y-106391605D01*
X161950600Y-106415991D01*
X161950600Y-107069000D01*
X161811999Y-107069000D01*
X161787613Y-107071402D01*
X161764164Y-107078515D01*
X161742553Y-107090066D01*
X161723611Y-107105611D01*
X161708066Y-107124553D01*
X161696515Y-107146164D01*
X161689402Y-107169613D01*
X161687000Y-107193999D01*
X161687000Y-108869000D01*
X160385000Y-108869000D01*
X160385000Y-107193999D01*
X160382598Y-107169613D01*
X160375485Y-107146164D01*
X160363934Y-107124553D01*
X160348389Y-107105611D01*
X160329447Y-107090066D01*
X160307836Y-107078515D01*
X160284387Y-107071402D01*
X160260001Y-107069000D01*
X160121400Y-107069000D01*
X160121400Y-104967000D01*
X161950600Y-104967000D01*
X161950600Y-105620009D01*
X161950600Y-105620009D01*
G37*
G36*
X123457562Y-106900181D02*
G01*
X123492481Y-106910774D01*
X123524663Y-106927976D01*
X123552873Y-106951127D01*
X123576024Y-106979337D01*
X123593226Y-107011519D01*
X123603819Y-107046438D01*
X123608000Y-107088895D01*
X123608000Y-108230105D01*
X123603819Y-108272562D01*
X123593226Y-108307481D01*
X123576024Y-108339663D01*
X123552873Y-108367873D01*
X123524663Y-108391024D01*
X123492481Y-108408226D01*
X123457562Y-108418819D01*
X123415105Y-108423000D01*
X121948895Y-108423000D01*
X121906438Y-108418819D01*
X121871519Y-108408226D01*
X121839337Y-108391024D01*
X121811127Y-108367873D01*
X121787976Y-108339663D01*
X121770774Y-108307481D01*
X121760181Y-108272562D01*
X121756000Y-108230105D01*
X121756000Y-107088895D01*
X121760181Y-107046438D01*
X121770774Y-107011519D01*
X121787976Y-106979337D01*
X121811127Y-106951127D01*
X121839337Y-106927976D01*
X121871519Y-106910774D01*
X121906438Y-106900181D01*
X121948895Y-106896000D01*
X123415105Y-106896000D01*
X123457562Y-106900181D01*
X123457562Y-106900181D01*
G37*
G36*
X127521562Y-106900181D02*
G01*
X127556481Y-106910774D01*
X127588663Y-106927976D01*
X127616873Y-106951127D01*
X127640024Y-106979337D01*
X127657226Y-107011519D01*
X127667819Y-107046438D01*
X127672000Y-107088895D01*
X127672000Y-108230105D01*
X127667819Y-108272562D01*
X127657226Y-108307481D01*
X127640024Y-108339663D01*
X127616873Y-108367873D01*
X127588663Y-108391024D01*
X127556481Y-108408226D01*
X127521562Y-108418819D01*
X127479105Y-108423000D01*
X126012895Y-108423000D01*
X125970438Y-108418819D01*
X125935519Y-108408226D01*
X125903337Y-108391024D01*
X125875127Y-108367873D01*
X125851976Y-108339663D01*
X125834774Y-108307481D01*
X125824181Y-108272562D01*
X125820000Y-108230105D01*
X125820000Y-107088895D01*
X125824181Y-107046438D01*
X125834774Y-107011519D01*
X125851976Y-106979337D01*
X125875127Y-106951127D01*
X125903337Y-106927976D01*
X125935519Y-106910774D01*
X125970438Y-106900181D01*
X126012895Y-106896000D01*
X127479105Y-106896000D01*
X127521562Y-106900181D01*
X127521562Y-106900181D01*
G37*
G36*
X138394674Y-106441465D02*
G01*
X138432367Y-106452899D01*
X138467103Y-106471466D01*
X138497548Y-106496452D01*
X138522534Y-106526897D01*
X138541101Y-106561633D01*
X138552535Y-106599326D01*
X138557000Y-106644661D01*
X138557000Y-107731339D01*
X138552535Y-107776674D01*
X138541101Y-107814367D01*
X138522534Y-107849103D01*
X138497548Y-107879548D01*
X138467103Y-107904534D01*
X138432367Y-107923101D01*
X138394674Y-107934535D01*
X138349339Y-107939000D01*
X137512661Y-107939000D01*
X137467326Y-107934535D01*
X137429633Y-107923101D01*
X137394897Y-107904534D01*
X137364452Y-107879548D01*
X137339466Y-107849103D01*
X137320899Y-107814367D01*
X137309465Y-107776674D01*
X137305000Y-107731339D01*
X137305000Y-106644661D01*
X137309465Y-106599326D01*
X137320899Y-106561633D01*
X137339466Y-106526897D01*
X137364452Y-106496452D01*
X137394897Y-106471466D01*
X137429633Y-106452899D01*
X137467326Y-106441465D01*
X137512661Y-106437000D01*
X138349339Y-106437000D01*
X138394674Y-106441465D01*
X138394674Y-106441465D01*
G37*
G36*
X143474674Y-106441465D02*
G01*
X143512367Y-106452899D01*
X143547103Y-106471466D01*
X143577548Y-106496452D01*
X143602534Y-106526897D01*
X143621101Y-106561633D01*
X143632535Y-106599326D01*
X143637000Y-106644661D01*
X143637000Y-107731339D01*
X143632535Y-107776674D01*
X143621101Y-107814367D01*
X143602534Y-107849103D01*
X143577548Y-107879548D01*
X143547103Y-107904534D01*
X143512367Y-107923101D01*
X143474674Y-107934535D01*
X143429339Y-107939000D01*
X142592661Y-107939000D01*
X142547326Y-107934535D01*
X142509633Y-107923101D01*
X142474897Y-107904534D01*
X142444452Y-107879548D01*
X142419466Y-107849103D01*
X142400899Y-107814367D01*
X142389465Y-107776674D01*
X142385000Y-107731339D01*
X142385000Y-106644661D01*
X142389465Y-106599326D01*
X142400899Y-106561633D01*
X142419466Y-106526897D01*
X142444452Y-106496452D01*
X142474897Y-106471466D01*
X142509633Y-106452899D01*
X142547326Y-106441465D01*
X142592661Y-106437000D01*
X143429339Y-106437000D01*
X143474674Y-106441465D01*
X143474674Y-106441465D01*
G37*
G36*
X141424674Y-106441465D02*
G01*
X141462367Y-106452899D01*
X141497103Y-106471466D01*
X141527548Y-106496452D01*
X141552534Y-106526897D01*
X141571101Y-106561633D01*
X141582535Y-106599326D01*
X141587000Y-106644661D01*
X141587000Y-107731339D01*
X141582535Y-107776674D01*
X141571101Y-107814367D01*
X141552534Y-107849103D01*
X141527548Y-107879548D01*
X141497103Y-107904534D01*
X141462367Y-107923101D01*
X141424674Y-107934535D01*
X141379339Y-107939000D01*
X140542661Y-107939000D01*
X140497326Y-107934535D01*
X140459633Y-107923101D01*
X140424897Y-107904534D01*
X140394452Y-107879548D01*
X140369466Y-107849103D01*
X140350899Y-107814367D01*
X140339465Y-107776674D01*
X140335000Y-107731339D01*
X140335000Y-106644661D01*
X140339465Y-106599326D01*
X140350899Y-106561633D01*
X140369466Y-106526897D01*
X140394452Y-106496452D01*
X140424897Y-106471466D01*
X140459633Y-106452899D01*
X140497326Y-106441465D01*
X140542661Y-106437000D01*
X141379339Y-106437000D01*
X141424674Y-106441465D01*
X141424674Y-106441465D01*
G37*
G36*
X147012674Y-106441465D02*
G01*
X147050367Y-106452899D01*
X147085103Y-106471466D01*
X147115548Y-106496452D01*
X147140534Y-106526897D01*
X147159101Y-106561633D01*
X147170535Y-106599326D01*
X147175000Y-106644661D01*
X147175000Y-107731339D01*
X147170535Y-107776674D01*
X147159101Y-107814367D01*
X147140534Y-107849103D01*
X147115548Y-107879548D01*
X147085103Y-107904534D01*
X147050367Y-107923101D01*
X147012674Y-107934535D01*
X146967339Y-107939000D01*
X146130661Y-107939000D01*
X146085326Y-107934535D01*
X146047633Y-107923101D01*
X146012897Y-107904534D01*
X145982452Y-107879548D01*
X145957466Y-107849103D01*
X145938899Y-107814367D01*
X145927465Y-107776674D01*
X145923000Y-107731339D01*
X145923000Y-106644661D01*
X145927465Y-106599326D01*
X145938899Y-106561633D01*
X145957466Y-106526897D01*
X145982452Y-106496452D01*
X146012897Y-106471466D01*
X146047633Y-106452899D01*
X146085326Y-106441465D01*
X146130661Y-106437000D01*
X146967339Y-106437000D01*
X147012674Y-106441465D01*
X147012674Y-106441465D01*
G37*
G36*
X149062674Y-106441465D02*
G01*
X149100367Y-106452899D01*
X149135103Y-106471466D01*
X149165548Y-106496452D01*
X149190534Y-106526897D01*
X149209101Y-106561633D01*
X149220535Y-106599326D01*
X149225000Y-106644661D01*
X149225000Y-107731339D01*
X149220535Y-107776674D01*
X149209101Y-107814367D01*
X149190534Y-107849103D01*
X149165548Y-107879548D01*
X149135103Y-107904534D01*
X149100367Y-107923101D01*
X149062674Y-107934535D01*
X149017339Y-107939000D01*
X148180661Y-107939000D01*
X148135326Y-107934535D01*
X148097633Y-107923101D01*
X148062897Y-107904534D01*
X148032452Y-107879548D01*
X148007466Y-107849103D01*
X147988899Y-107814367D01*
X147977465Y-107776674D01*
X147973000Y-107731339D01*
X147973000Y-106644661D01*
X147977465Y-106599326D01*
X147988899Y-106561633D01*
X148007466Y-106526897D01*
X148032452Y-106496452D01*
X148062897Y-106471466D01*
X148097633Y-106452899D01*
X148135326Y-106441465D01*
X148180661Y-106437000D01*
X149017339Y-106437000D01*
X149062674Y-106441465D01*
X149062674Y-106441465D01*
G37*
G36*
X136344674Y-106441465D02*
G01*
X136382367Y-106452899D01*
X136417103Y-106471466D01*
X136447548Y-106496452D01*
X136472534Y-106526897D01*
X136491101Y-106561633D01*
X136502535Y-106599326D01*
X136507000Y-106644661D01*
X136507000Y-107731339D01*
X136502535Y-107776674D01*
X136491101Y-107814367D01*
X136472534Y-107849103D01*
X136447548Y-107879548D01*
X136417103Y-107904534D01*
X136382367Y-107923101D01*
X136344674Y-107934535D01*
X136299339Y-107939000D01*
X135462661Y-107939000D01*
X135417326Y-107934535D01*
X135379633Y-107923101D01*
X135344897Y-107904534D01*
X135314452Y-107879548D01*
X135289466Y-107849103D01*
X135270899Y-107814367D01*
X135259465Y-107776674D01*
X135255000Y-107731339D01*
X135255000Y-106644661D01*
X135259465Y-106599326D01*
X135270899Y-106561633D01*
X135289466Y-106526897D01*
X135314452Y-106496452D01*
X135344897Y-106471466D01*
X135379633Y-106452899D01*
X135417326Y-106441465D01*
X135462661Y-106437000D01*
X136299339Y-106437000D01*
X136344674Y-106441465D01*
X136344674Y-106441465D01*
G37*
G36*
X134506562Y-106392181D02*
G01*
X134541481Y-106402774D01*
X134573663Y-106419976D01*
X134601873Y-106443127D01*
X134625024Y-106471337D01*
X134642226Y-106503519D01*
X134652819Y-106538438D01*
X134657000Y-106580895D01*
X134657000Y-107722105D01*
X134652819Y-107764562D01*
X134642226Y-107799481D01*
X134625024Y-107831663D01*
X134601873Y-107859873D01*
X134573663Y-107883024D01*
X134541481Y-107900226D01*
X134506562Y-107910819D01*
X134464105Y-107915000D01*
X132997895Y-107915000D01*
X132955438Y-107910819D01*
X132920519Y-107900226D01*
X132888337Y-107883024D01*
X132860127Y-107859873D01*
X132836976Y-107831663D01*
X132819774Y-107799481D01*
X132809181Y-107764562D01*
X132805000Y-107722105D01*
X132805000Y-106580895D01*
X132809181Y-106538438D01*
X132819774Y-106503519D01*
X132836976Y-106471337D01*
X132860127Y-106443127D01*
X132888337Y-106419976D01*
X132920519Y-106402774D01*
X132955438Y-106392181D01*
X132997895Y-106388000D01*
X134464105Y-106388000D01*
X134506562Y-106392181D01*
X134506562Y-106392181D01*
G37*
G36*
X130890674Y-106575465D02*
G01*
X130928367Y-106586899D01*
X130963103Y-106605466D01*
X130993548Y-106630452D01*
X131018534Y-106660897D01*
X131037101Y-106695633D01*
X131048535Y-106733326D01*
X131053000Y-106778661D01*
X131053000Y-107615339D01*
X131048535Y-107660674D01*
X131037101Y-107698367D01*
X131018534Y-107733103D01*
X130993548Y-107763548D01*
X130963103Y-107788534D01*
X130928367Y-107807101D01*
X130890674Y-107818535D01*
X130845339Y-107823000D01*
X129758661Y-107823000D01*
X129713326Y-107818535D01*
X129675633Y-107807101D01*
X129640897Y-107788534D01*
X129610452Y-107763548D01*
X129585466Y-107733103D01*
X129566899Y-107698367D01*
X129555465Y-107660674D01*
X129551000Y-107615339D01*
X129551000Y-106778661D01*
X129555465Y-106733326D01*
X129566899Y-106695633D01*
X129585466Y-106660897D01*
X129610452Y-106630452D01*
X129640897Y-106605466D01*
X129675633Y-106586899D01*
X129713326Y-106575465D01*
X129758661Y-106571000D01*
X130845339Y-106571000D01*
X130890674Y-106575465D01*
X130890674Y-106575465D01*
G37*
G36*
X113142000Y-107677000D02*
G01*
X111590000Y-107677000D01*
X111590000Y-105175000D01*
X113142000Y-105175000D01*
X113142000Y-107677000D01*
X113142000Y-107677000D01*
G37*
G36*
X119042000Y-107677000D02*
G01*
X117490000Y-107677000D01*
X117490000Y-105175000D01*
X119042000Y-105175000D01*
X119042000Y-107677000D01*
X119042000Y-107677000D01*
G37*
G36*
X156349000Y-106819000D02*
G01*
X154547000Y-106819000D01*
X154547000Y-105017000D01*
X156349000Y-105017000D01*
X156349000Y-106819000D01*
X156349000Y-106819000D01*
G37*
G36*
X130890674Y-104525465D02*
G01*
X130928367Y-104536899D01*
X130963103Y-104555466D01*
X130993548Y-104580452D01*
X131018534Y-104610897D01*
X131037101Y-104645633D01*
X131048535Y-104683326D01*
X131053000Y-104728661D01*
X131053000Y-105565339D01*
X131048535Y-105610674D01*
X131037101Y-105648367D01*
X131018534Y-105683103D01*
X130993548Y-105713548D01*
X130963103Y-105738534D01*
X130928367Y-105757101D01*
X130890674Y-105768535D01*
X130845339Y-105773000D01*
X129758661Y-105773000D01*
X129713326Y-105768535D01*
X129675633Y-105757101D01*
X129640897Y-105738534D01*
X129610452Y-105713548D01*
X129585466Y-105683103D01*
X129566899Y-105648367D01*
X129555465Y-105610674D01*
X129551000Y-105565339D01*
X129551000Y-104728661D01*
X129555465Y-104683326D01*
X129566899Y-104645633D01*
X129585466Y-104610897D01*
X129610452Y-104580452D01*
X129640897Y-104555466D01*
X129675633Y-104536899D01*
X129713326Y-104525465D01*
X129758661Y-104521000D01*
X130845339Y-104521000D01*
X130890674Y-104525465D01*
X130890674Y-104525465D01*
G37*
G36*
X127521562Y-103925181D02*
G01*
X127556481Y-103935774D01*
X127588663Y-103952976D01*
X127616873Y-103976127D01*
X127640024Y-104004337D01*
X127657226Y-104036519D01*
X127667819Y-104071438D01*
X127672000Y-104113895D01*
X127672000Y-105255105D01*
X127667819Y-105297562D01*
X127657226Y-105332481D01*
X127640024Y-105364663D01*
X127616873Y-105392873D01*
X127588663Y-105416024D01*
X127556481Y-105433226D01*
X127521562Y-105443819D01*
X127479105Y-105448000D01*
X126012895Y-105448000D01*
X125970438Y-105443819D01*
X125935519Y-105433226D01*
X125903337Y-105416024D01*
X125875127Y-105392873D01*
X125851976Y-105364663D01*
X125834774Y-105332481D01*
X125824181Y-105297562D01*
X125820000Y-105255105D01*
X125820000Y-104113895D01*
X125824181Y-104071438D01*
X125834774Y-104036519D01*
X125851976Y-104004337D01*
X125875127Y-103976127D01*
X125903337Y-103952976D01*
X125935519Y-103935774D01*
X125970438Y-103925181D01*
X126012895Y-103921000D01*
X127479105Y-103921000D01*
X127521562Y-103925181D01*
X127521562Y-103925181D01*
G37*
G36*
X123457562Y-103925181D02*
G01*
X123492481Y-103935774D01*
X123524663Y-103952976D01*
X123552873Y-103976127D01*
X123576024Y-104004337D01*
X123593226Y-104036519D01*
X123603819Y-104071438D01*
X123608000Y-104113895D01*
X123608000Y-105255105D01*
X123603819Y-105297562D01*
X123593226Y-105332481D01*
X123576024Y-105364663D01*
X123552873Y-105392873D01*
X123524663Y-105416024D01*
X123492481Y-105433226D01*
X123457562Y-105443819D01*
X123415105Y-105448000D01*
X121948895Y-105448000D01*
X121906438Y-105443819D01*
X121871519Y-105433226D01*
X121839337Y-105416024D01*
X121811127Y-105392873D01*
X121787976Y-105364663D01*
X121770774Y-105332481D01*
X121760181Y-105297562D01*
X121756000Y-105255105D01*
X121756000Y-104113895D01*
X121760181Y-104071438D01*
X121770774Y-104036519D01*
X121787976Y-104004337D01*
X121811127Y-103976127D01*
X121839337Y-103952976D01*
X121871519Y-103935774D01*
X121906438Y-103925181D01*
X121948895Y-103921000D01*
X123415105Y-103921000D01*
X123457562Y-103925181D01*
X123457562Y-103925181D01*
G37*
G36*
X134506562Y-103417181D02*
G01*
X134541481Y-103427774D01*
X134573663Y-103444976D01*
X134601873Y-103468127D01*
X134625024Y-103496337D01*
X134642226Y-103528519D01*
X134652819Y-103563438D01*
X134657000Y-103605895D01*
X134657000Y-104747105D01*
X134652819Y-104789562D01*
X134642226Y-104824481D01*
X134625024Y-104856663D01*
X134601873Y-104884873D01*
X134573663Y-104908024D01*
X134541481Y-104925226D01*
X134506562Y-104935819D01*
X134464105Y-104940000D01*
X132997895Y-104940000D01*
X132955438Y-104935819D01*
X132920519Y-104925226D01*
X132888337Y-104908024D01*
X132860127Y-104884873D01*
X132836976Y-104856663D01*
X132819774Y-104824481D01*
X132809181Y-104789562D01*
X132805000Y-104747105D01*
X132805000Y-103605895D01*
X132809181Y-103563438D01*
X132819774Y-103528519D01*
X132836976Y-103496337D01*
X132860127Y-103468127D01*
X132888337Y-103444976D01*
X132920519Y-103427774D01*
X132955438Y-103417181D01*
X132997895Y-103413000D01*
X134464105Y-103413000D01*
X134506562Y-103417181D01*
X134506562Y-103417181D01*
G37*
G36*
X110503562Y-102836181D02*
G01*
X110538481Y-102846774D01*
X110570663Y-102863976D01*
X110598873Y-102887127D01*
X110622024Y-102915337D01*
X110639226Y-102947519D01*
X110649819Y-102982438D01*
X110654000Y-103024895D01*
X110654000Y-104166105D01*
X110649819Y-104208562D01*
X110639226Y-104243481D01*
X110622024Y-104275663D01*
X110598873Y-104303873D01*
X110570663Y-104327024D01*
X110538481Y-104344226D01*
X110503562Y-104354819D01*
X110461105Y-104359000D01*
X108994895Y-104359000D01*
X108952438Y-104354819D01*
X108917519Y-104344226D01*
X108885337Y-104327024D01*
X108857127Y-104303873D01*
X108833976Y-104275663D01*
X108816774Y-104243481D01*
X108806181Y-104208562D01*
X108802000Y-104166105D01*
X108802000Y-103024895D01*
X108806181Y-102982438D01*
X108816774Y-102947519D01*
X108833976Y-102915337D01*
X108857127Y-102887127D01*
X108885337Y-102863976D01*
X108917519Y-102846774D01*
X108952438Y-102836181D01*
X108994895Y-102832000D01*
X110461105Y-102832000D01*
X110503562Y-102836181D01*
X110503562Y-102836181D01*
G37*
G36*
X155558442Y-102483518D02*
G01*
X155624627Y-102490037D01*
X155794466Y-102541557D01*
X155950991Y-102625222D01*
X155986729Y-102654552D01*
X156088186Y-102737814D01*
X156169706Y-102837148D01*
X156200778Y-102875009D01*
X156284443Y-103031534D01*
X156335963Y-103201373D01*
X156353359Y-103378000D01*
X156335963Y-103554627D01*
X156284443Y-103724466D01*
X156200778Y-103880991D01*
X156179433Y-103907000D01*
X156088186Y-104018186D01*
X155986729Y-104101448D01*
X155950991Y-104130778D01*
X155950989Y-104130779D01*
X155805469Y-104208562D01*
X155794466Y-104214443D01*
X155624627Y-104265963D01*
X155558442Y-104272482D01*
X155492260Y-104279000D01*
X155403740Y-104279000D01*
X155337558Y-104272482D01*
X155271373Y-104265963D01*
X155101534Y-104214443D01*
X155090532Y-104208562D01*
X154945011Y-104130779D01*
X154945009Y-104130778D01*
X154909271Y-104101448D01*
X154807814Y-104018186D01*
X154716567Y-103907000D01*
X154695222Y-103880991D01*
X154611557Y-103724466D01*
X154560037Y-103554627D01*
X154542641Y-103378000D01*
X154560037Y-103201373D01*
X154611557Y-103031534D01*
X154695222Y-102875009D01*
X154726294Y-102837148D01*
X154807814Y-102737814D01*
X154909271Y-102654552D01*
X154945009Y-102625222D01*
X155101534Y-102541557D01*
X155271373Y-102490037D01*
X155337558Y-102483518D01*
X155403740Y-102477000D01*
X155492260Y-102477000D01*
X155558442Y-102483518D01*
X155558442Y-102483518D01*
G37*
G36*
X146382000Y-103907000D02*
G01*
X140130000Y-103907000D01*
X140130000Y-102205000D01*
X146382000Y-102205000D01*
X146382000Y-103907000D01*
X146382000Y-103907000D01*
G37*
G36*
X151718674Y-102511465D02*
G01*
X151756367Y-102522899D01*
X151791103Y-102541466D01*
X151821548Y-102566452D01*
X151846534Y-102596897D01*
X151865101Y-102631633D01*
X151876535Y-102669326D01*
X151881000Y-102714661D01*
X151881000Y-103551339D01*
X151876535Y-103596674D01*
X151865101Y-103634367D01*
X151846534Y-103669103D01*
X151821548Y-103699548D01*
X151791103Y-103724534D01*
X151756367Y-103743101D01*
X151718674Y-103754535D01*
X151673339Y-103759000D01*
X150586661Y-103759000D01*
X150541326Y-103754535D01*
X150503633Y-103743101D01*
X150468897Y-103724534D01*
X150438452Y-103699548D01*
X150413466Y-103669103D01*
X150394899Y-103634367D01*
X150383465Y-103596674D01*
X150379000Y-103551339D01*
X150379000Y-102714661D01*
X150383465Y-102669326D01*
X150394899Y-102631633D01*
X150413466Y-102596897D01*
X150438452Y-102566452D01*
X150468897Y-102541466D01*
X150503633Y-102522899D01*
X150541326Y-102511465D01*
X150586661Y-102507000D01*
X151673339Y-102507000D01*
X151718674Y-102511465D01*
X151718674Y-102511465D01*
G37*
G36*
X115626000Y-102003000D02*
G01*
X112974000Y-102003000D01*
X112974000Y-100341000D01*
X115626000Y-100341000D01*
X115626000Y-102003000D01*
X115626000Y-102003000D01*
G37*
G36*
X148357000Y-101932000D02*
G01*
X146655000Y-101932000D01*
X146655000Y-95680000D01*
X148357000Y-95680000D01*
X148357000Y-101932000D01*
X148357000Y-101932000D01*
G37*
G36*
X139857000Y-101932000D02*
G01*
X138155000Y-101932000D01*
X138155000Y-95680000D01*
X139857000Y-95680000D01*
X139857000Y-101932000D01*
X139857000Y-101932000D01*
G37*
G36*
X123133000Y-101831000D02*
G01*
X122231000Y-101831000D01*
X122231000Y-100829000D01*
X123133000Y-100829000D01*
X123133000Y-101831000D01*
X123133000Y-101831000D01*
G37*
G36*
X155558443Y-99943519D02*
G01*
X155624627Y-99950037D01*
X155794466Y-100001557D01*
X155794468Y-100001558D01*
X155833415Y-100022376D01*
X155950991Y-100085222D01*
X155986729Y-100114552D01*
X156088186Y-100197814D01*
X156171448Y-100299271D01*
X156200778Y-100335009D01*
X156284443Y-100491534D01*
X156335963Y-100661373D01*
X156353359Y-100838000D01*
X156335963Y-101014627D01*
X156284443Y-101184466D01*
X156200778Y-101340991D01*
X156177606Y-101369226D01*
X156088186Y-101478186D01*
X156004732Y-101546674D01*
X155950991Y-101590778D01*
X155794466Y-101674443D01*
X155624627Y-101725963D01*
X155558443Y-101732481D01*
X155492260Y-101739000D01*
X155403740Y-101739000D01*
X155337557Y-101732481D01*
X155271373Y-101725963D01*
X155101534Y-101674443D01*
X154945009Y-101590778D01*
X154891268Y-101546674D01*
X154807814Y-101478186D01*
X154718394Y-101369226D01*
X154695222Y-101340991D01*
X154611557Y-101184466D01*
X154560037Y-101014627D01*
X154542641Y-100838000D01*
X154560037Y-100661373D01*
X154611557Y-100491534D01*
X154695222Y-100335009D01*
X154724552Y-100299271D01*
X154807814Y-100197814D01*
X154909271Y-100114552D01*
X154945009Y-100085222D01*
X155062585Y-100022376D01*
X155101532Y-100001558D01*
X155101534Y-100001557D01*
X155271373Y-99950037D01*
X155337557Y-99943519D01*
X155403740Y-99937000D01*
X155492260Y-99937000D01*
X155558443Y-99943519D01*
X155558443Y-99943519D01*
G37*
G36*
X151718674Y-100461465D02*
G01*
X151756367Y-100472899D01*
X151791103Y-100491466D01*
X151821548Y-100516452D01*
X151846534Y-100546897D01*
X151865101Y-100581633D01*
X151876535Y-100619326D01*
X151881000Y-100664661D01*
X151881000Y-101501339D01*
X151876535Y-101546674D01*
X151865101Y-101584367D01*
X151846534Y-101619103D01*
X151821548Y-101649548D01*
X151791103Y-101674534D01*
X151756367Y-101693101D01*
X151718674Y-101704535D01*
X151673339Y-101709000D01*
X150586661Y-101709000D01*
X150541326Y-101704535D01*
X150503633Y-101693101D01*
X150468897Y-101674534D01*
X150438452Y-101649548D01*
X150413466Y-101619103D01*
X150394899Y-101584367D01*
X150383465Y-101546674D01*
X150379000Y-101501339D01*
X150379000Y-100664661D01*
X150383465Y-100619326D01*
X150394899Y-100581633D01*
X150413466Y-100546897D01*
X150438452Y-100516452D01*
X150468897Y-100491466D01*
X150503633Y-100472899D01*
X150541326Y-100461465D01*
X150586661Y-100457000D01*
X151673339Y-100457000D01*
X151718674Y-100461465D01*
X151718674Y-100461465D01*
G37*
G36*
X110503562Y-99861181D02*
G01*
X110538481Y-99871774D01*
X110570663Y-99888976D01*
X110598873Y-99912127D01*
X110622024Y-99940337D01*
X110639226Y-99972519D01*
X110649819Y-100007438D01*
X110654000Y-100049895D01*
X110654000Y-101191105D01*
X110649819Y-101233562D01*
X110639226Y-101268481D01*
X110622024Y-101300663D01*
X110598873Y-101328873D01*
X110570663Y-101352024D01*
X110538481Y-101369226D01*
X110503562Y-101379819D01*
X110461105Y-101384000D01*
X108994895Y-101384000D01*
X108952438Y-101379819D01*
X108917519Y-101369226D01*
X108885337Y-101352024D01*
X108857127Y-101328873D01*
X108833976Y-101300663D01*
X108816774Y-101268481D01*
X108806181Y-101233562D01*
X108802000Y-101191105D01*
X108802000Y-100049895D01*
X108806181Y-100007438D01*
X108816774Y-99972519D01*
X108833976Y-99940337D01*
X108857127Y-99912127D01*
X108885337Y-99888976D01*
X108917519Y-99871774D01*
X108952438Y-99861181D01*
X108994895Y-99857000D01*
X110461105Y-99857000D01*
X110503562Y-99861181D01*
X110503562Y-99861181D01*
G37*
G36*
X122183000Y-99831000D02*
G01*
X121281000Y-99831000D01*
X121281000Y-98829000D01*
X122183000Y-98829000D01*
X122183000Y-99831000D01*
X122183000Y-99831000D01*
G37*
G36*
X124083000Y-99831000D02*
G01*
X123181000Y-99831000D01*
X123181000Y-98829000D01*
X124083000Y-98829000D01*
X124083000Y-99831000D01*
X124083000Y-99831000D01*
G37*
G36*
X115626000Y-99303000D02*
G01*
X112974000Y-99303000D01*
X112974000Y-97641000D01*
X115626000Y-97641000D01*
X115626000Y-99303000D01*
X115626000Y-99303000D01*
G37*
G36*
X155558442Y-97403518D02*
G01*
X155624627Y-97410037D01*
X155794466Y-97461557D01*
X155950991Y-97545222D01*
X155986729Y-97574552D01*
X156088186Y-97657814D01*
X156171448Y-97759271D01*
X156200778Y-97795009D01*
X156284443Y-97951534D01*
X156335963Y-98121373D01*
X156353359Y-98298000D01*
X156335963Y-98474627D01*
X156284443Y-98644466D01*
X156200778Y-98800991D01*
X156177791Y-98829000D01*
X156088186Y-98938186D01*
X155986729Y-99021448D01*
X155950991Y-99050778D01*
X155794466Y-99134443D01*
X155624627Y-99185963D01*
X155558443Y-99192481D01*
X155492260Y-99199000D01*
X155403740Y-99199000D01*
X155337557Y-99192481D01*
X155271373Y-99185963D01*
X155101534Y-99134443D01*
X154945009Y-99050778D01*
X154909271Y-99021448D01*
X154807814Y-98938186D01*
X154718209Y-98829000D01*
X154695222Y-98800991D01*
X154611557Y-98644466D01*
X154560037Y-98474627D01*
X154542641Y-98298000D01*
X154560037Y-98121373D01*
X154611557Y-97951534D01*
X154695222Y-97795009D01*
X154724552Y-97759271D01*
X154807814Y-97657814D01*
X154909271Y-97574552D01*
X154945009Y-97545222D01*
X155101534Y-97461557D01*
X155271373Y-97410037D01*
X155337558Y-97403518D01*
X155403740Y-97397000D01*
X155492260Y-97397000D01*
X155558442Y-97403518D01*
X155558442Y-97403518D01*
G37*
G36*
X110824674Y-96161465D02*
G01*
X110862367Y-96172899D01*
X110897103Y-96191466D01*
X110927548Y-96216452D01*
X110952534Y-96246897D01*
X110971101Y-96281633D01*
X110982535Y-96319326D01*
X110987000Y-96364661D01*
X110987000Y-97201339D01*
X110982535Y-97246674D01*
X110971101Y-97284367D01*
X110952534Y-97319103D01*
X110927548Y-97349548D01*
X110897103Y-97374534D01*
X110862367Y-97393101D01*
X110824674Y-97404535D01*
X110779339Y-97409000D01*
X109692661Y-97409000D01*
X109647326Y-97404535D01*
X109609633Y-97393101D01*
X109574897Y-97374534D01*
X109544452Y-97349548D01*
X109519466Y-97319103D01*
X109500899Y-97284367D01*
X109489465Y-97246674D01*
X109485000Y-97201339D01*
X109485000Y-96364661D01*
X109489465Y-96319326D01*
X109500899Y-96281633D01*
X109519466Y-96246897D01*
X109544452Y-96216452D01*
X109574897Y-96191466D01*
X109609633Y-96172899D01*
X109647326Y-96161465D01*
X109692661Y-96157000D01*
X110779339Y-96157000D01*
X110824674Y-96161465D01*
X110824674Y-96161465D01*
G37*
G36*
X155558443Y-94863519D02*
G01*
X155624627Y-94870037D01*
X155794466Y-94921557D01*
X155950991Y-95005222D01*
X155986729Y-95034552D01*
X156088186Y-95117814D01*
X156171448Y-95219271D01*
X156200778Y-95255009D01*
X156284443Y-95411534D01*
X156335963Y-95581373D01*
X156353359Y-95758000D01*
X156335963Y-95934627D01*
X156284443Y-96104466D01*
X156200778Y-96260991D01*
X156186850Y-96277962D01*
X156088186Y-96398186D01*
X155988494Y-96480000D01*
X155950991Y-96510778D01*
X155794466Y-96594443D01*
X155624627Y-96645963D01*
X155558443Y-96652481D01*
X155492260Y-96659000D01*
X155403740Y-96659000D01*
X155337558Y-96652482D01*
X155271373Y-96645963D01*
X155101534Y-96594443D01*
X154945009Y-96510778D01*
X154907506Y-96480000D01*
X154807814Y-96398186D01*
X154709150Y-96277962D01*
X154695222Y-96260991D01*
X154611557Y-96104466D01*
X154560037Y-95934627D01*
X154542641Y-95758000D01*
X154560037Y-95581373D01*
X154611557Y-95411534D01*
X154695222Y-95255009D01*
X154724552Y-95219271D01*
X154807814Y-95117814D01*
X154909271Y-95034552D01*
X154945009Y-95005222D01*
X155101534Y-94921557D01*
X155271373Y-94870037D01*
X155337558Y-94863518D01*
X155403740Y-94857000D01*
X155492260Y-94857000D01*
X155558443Y-94863519D01*
X155558443Y-94863519D01*
G37*
G36*
X130375000Y-96497000D02*
G01*
X128873000Y-96497000D01*
X128873000Y-95395000D01*
X130375000Y-95395000D01*
X130375000Y-96497000D01*
X130375000Y-96497000D01*
G37*
G36*
X118178562Y-94074181D02*
G01*
X118213481Y-94084774D01*
X118245663Y-94101976D01*
X118273873Y-94125127D01*
X118297024Y-94153337D01*
X118314226Y-94185519D01*
X118324819Y-94220438D01*
X118329000Y-94262895D01*
X118329000Y-95729105D01*
X118324819Y-95771562D01*
X118314226Y-95806481D01*
X118297024Y-95838663D01*
X118273873Y-95866873D01*
X118245663Y-95890024D01*
X118213481Y-95907226D01*
X118178562Y-95917819D01*
X118136105Y-95922000D01*
X116994895Y-95922000D01*
X116952438Y-95917819D01*
X116917519Y-95907226D01*
X116885337Y-95890024D01*
X116857127Y-95866873D01*
X116833976Y-95838663D01*
X116816774Y-95806481D01*
X116806181Y-95771562D01*
X116802000Y-95729105D01*
X116802000Y-94262895D01*
X116806181Y-94220438D01*
X116816774Y-94185519D01*
X116833976Y-94153337D01*
X116857127Y-94125127D01*
X116885337Y-94101976D01*
X116917519Y-94084774D01*
X116952438Y-94074181D01*
X116994895Y-94070000D01*
X118136105Y-94070000D01*
X118178562Y-94074181D01*
X118178562Y-94074181D01*
G37*
G36*
X124782562Y-94074181D02*
G01*
X124817481Y-94084774D01*
X124849663Y-94101976D01*
X124877873Y-94125127D01*
X124901024Y-94153337D01*
X124918226Y-94185519D01*
X124928819Y-94220438D01*
X124933000Y-94262895D01*
X124933000Y-95729105D01*
X124928819Y-95771562D01*
X124918226Y-95806481D01*
X124901024Y-95838663D01*
X124877873Y-95866873D01*
X124849663Y-95890024D01*
X124817481Y-95907226D01*
X124782562Y-95917819D01*
X124740105Y-95922000D01*
X123598895Y-95922000D01*
X123556438Y-95917819D01*
X123521519Y-95907226D01*
X123489337Y-95890024D01*
X123461127Y-95866873D01*
X123437976Y-95838663D01*
X123420774Y-95806481D01*
X123410181Y-95771562D01*
X123406000Y-95729105D01*
X123406000Y-94262895D01*
X123410181Y-94220438D01*
X123420774Y-94185519D01*
X123437976Y-94153337D01*
X123461127Y-94125127D01*
X123489337Y-94101976D01*
X123521519Y-94084774D01*
X123556438Y-94074181D01*
X123598895Y-94070000D01*
X124740105Y-94070000D01*
X124782562Y-94074181D01*
X124782562Y-94074181D01*
G37*
G36*
X121807562Y-94074181D02*
G01*
X121842481Y-94084774D01*
X121874663Y-94101976D01*
X121902873Y-94125127D01*
X121926024Y-94153337D01*
X121943226Y-94185519D01*
X121953819Y-94220438D01*
X121958000Y-94262895D01*
X121958000Y-95729105D01*
X121953819Y-95771562D01*
X121943226Y-95806481D01*
X121926024Y-95838663D01*
X121902873Y-95866873D01*
X121874663Y-95890024D01*
X121842481Y-95907226D01*
X121807562Y-95917819D01*
X121765105Y-95922000D01*
X120623895Y-95922000D01*
X120581438Y-95917819D01*
X120546519Y-95907226D01*
X120514337Y-95890024D01*
X120486127Y-95866873D01*
X120462976Y-95838663D01*
X120445774Y-95806481D01*
X120435181Y-95771562D01*
X120431000Y-95729105D01*
X120431000Y-94262895D01*
X120435181Y-94220438D01*
X120445774Y-94185519D01*
X120462976Y-94153337D01*
X120486127Y-94125127D01*
X120514337Y-94101976D01*
X120546519Y-94084774D01*
X120581438Y-94074181D01*
X120623895Y-94070000D01*
X121765105Y-94070000D01*
X121807562Y-94074181D01*
X121807562Y-94074181D01*
G37*
G36*
X115203562Y-94074181D02*
G01*
X115238481Y-94084774D01*
X115270663Y-94101976D01*
X115298873Y-94125127D01*
X115322024Y-94153337D01*
X115339226Y-94185519D01*
X115349819Y-94220438D01*
X115354000Y-94262895D01*
X115354000Y-95729105D01*
X115349819Y-95771562D01*
X115339226Y-95806481D01*
X115322024Y-95838663D01*
X115298873Y-95866873D01*
X115270663Y-95890024D01*
X115238481Y-95907226D01*
X115203562Y-95917819D01*
X115161105Y-95922000D01*
X114019895Y-95922000D01*
X113977438Y-95917819D01*
X113942519Y-95907226D01*
X113910337Y-95890024D01*
X113882127Y-95866873D01*
X113858976Y-95838663D01*
X113841774Y-95806481D01*
X113831181Y-95771562D01*
X113827000Y-95729105D01*
X113827000Y-94262895D01*
X113831181Y-94220438D01*
X113841774Y-94185519D01*
X113858976Y-94153337D01*
X113882127Y-94125127D01*
X113910337Y-94101976D01*
X113942519Y-94084774D01*
X113977438Y-94074181D01*
X114019895Y-94070000D01*
X115161105Y-94070000D01*
X115203562Y-94074181D01*
X115203562Y-94074181D01*
G37*
G36*
X128175000Y-95547000D02*
G01*
X126673000Y-95547000D01*
X126673000Y-94445000D01*
X128175000Y-94445000D01*
X128175000Y-95547000D01*
X128175000Y-95547000D01*
G37*
G36*
X146382000Y-95407000D02*
G01*
X140130000Y-95407000D01*
X140130000Y-93705000D01*
X146382000Y-93705000D01*
X146382000Y-95407000D01*
X146382000Y-95407000D01*
G37*
G36*
X110824674Y-94111465D02*
G01*
X110862367Y-94122899D01*
X110897103Y-94141466D01*
X110927548Y-94166452D01*
X110952534Y-94196897D01*
X110971101Y-94231633D01*
X110982535Y-94269326D01*
X110987000Y-94314661D01*
X110987000Y-95151339D01*
X110982535Y-95196674D01*
X110971101Y-95234367D01*
X110952534Y-95269103D01*
X110927548Y-95299548D01*
X110897103Y-95324534D01*
X110862367Y-95343101D01*
X110824674Y-95354535D01*
X110779339Y-95359000D01*
X109692661Y-95359000D01*
X109647326Y-95354535D01*
X109609633Y-95343101D01*
X109574897Y-95324534D01*
X109544452Y-95299548D01*
X109519466Y-95269103D01*
X109500899Y-95234367D01*
X109489465Y-95196674D01*
X109485000Y-95151339D01*
X109485000Y-94314661D01*
X109489465Y-94269326D01*
X109500899Y-94231633D01*
X109519466Y-94196897D01*
X109544452Y-94166452D01*
X109574897Y-94141466D01*
X109609633Y-94122899D01*
X109647326Y-94111465D01*
X109692661Y-94107000D01*
X110779339Y-94107000D01*
X110824674Y-94111465D01*
X110824674Y-94111465D01*
G37*
G36*
X104654443Y-93553519D02*
G01*
X104720627Y-93560037D01*
X104890466Y-93611557D01*
X105046991Y-93695222D01*
X105058905Y-93705000D01*
X105184186Y-93807814D01*
X105267448Y-93909271D01*
X105296778Y-93945009D01*
X105380443Y-94101534D01*
X105431963Y-94271373D01*
X105449359Y-94448000D01*
X105431963Y-94624627D01*
X105380443Y-94794466D01*
X105296778Y-94950991D01*
X105267448Y-94986729D01*
X105184186Y-95088186D01*
X105082729Y-95171448D01*
X105046991Y-95200778D01*
X105046989Y-95200779D01*
X104900122Y-95279282D01*
X104890466Y-95284443D01*
X104720627Y-95335963D01*
X104654443Y-95342481D01*
X104588260Y-95349000D01*
X104199740Y-95349000D01*
X104133557Y-95342481D01*
X104067373Y-95335963D01*
X103897534Y-95284443D01*
X103887879Y-95279282D01*
X103741011Y-95200779D01*
X103741009Y-95200778D01*
X103705271Y-95171448D01*
X103603814Y-95088186D01*
X103520552Y-94986729D01*
X103491222Y-94950991D01*
X103407557Y-94794466D01*
X103356037Y-94624627D01*
X103338641Y-94448000D01*
X103356037Y-94271373D01*
X103407557Y-94101534D01*
X103491222Y-93945009D01*
X103520552Y-93909271D01*
X103603814Y-93807814D01*
X103729095Y-93705000D01*
X103741009Y-93695222D01*
X103897534Y-93611557D01*
X104067373Y-93560037D01*
X104133557Y-93553519D01*
X104199740Y-93547000D01*
X104588260Y-93547000D01*
X104654443Y-93553519D01*
X104654443Y-93553519D01*
G37*
G36*
X130375000Y-94597000D02*
G01*
X128873000Y-94597000D01*
X128873000Y-93495000D01*
X130375000Y-93495000D01*
X130375000Y-94597000D01*
X130375000Y-94597000D01*
G37*
G36*
X155558442Y-92323518D02*
G01*
X155624627Y-92330037D01*
X155794466Y-92381557D01*
X155950991Y-92465222D01*
X155986729Y-92494552D01*
X156088186Y-92577814D01*
X156160637Y-92666097D01*
X156200778Y-92715009D01*
X156200779Y-92715011D01*
X156269677Y-92843908D01*
X156284443Y-92871534D01*
X156335963Y-93041373D01*
X156353359Y-93218000D01*
X156335963Y-93394627D01*
X156284443Y-93564466D01*
X156200778Y-93720991D01*
X156171448Y-93756729D01*
X156088186Y-93858186D01*
X155986729Y-93941448D01*
X155950991Y-93970778D01*
X155794466Y-94054443D01*
X155624627Y-94105963D01*
X155568763Y-94111465D01*
X155492260Y-94119000D01*
X155403740Y-94119000D01*
X155327237Y-94111465D01*
X155271373Y-94105963D01*
X155101534Y-94054443D01*
X154945009Y-93970778D01*
X154909271Y-93941448D01*
X154807814Y-93858186D01*
X154724552Y-93756729D01*
X154695222Y-93720991D01*
X154611557Y-93564466D01*
X154560037Y-93394627D01*
X154542641Y-93218000D01*
X154560037Y-93041373D01*
X154611557Y-92871534D01*
X154626324Y-92843908D01*
X154695221Y-92715011D01*
X154695222Y-92715009D01*
X154735363Y-92666097D01*
X154807814Y-92577814D01*
X154909271Y-92494552D01*
X154945009Y-92465222D01*
X155101534Y-92381557D01*
X155271373Y-92330037D01*
X155337558Y-92323518D01*
X155403740Y-92317000D01*
X155492260Y-92317000D01*
X155558442Y-92323518D01*
X155558442Y-92323518D01*
G37*
G36*
X180248295Y-89698282D02*
G01*
X180560350Y-89760353D01*
X180888122Y-89896121D01*
X181183109Y-90093225D01*
X181433975Y-90344091D01*
X181631079Y-90639078D01*
X181766847Y-90966850D01*
X181836060Y-91314811D01*
X181836060Y-91669589D01*
X181766847Y-92017550D01*
X181631079Y-92345322D01*
X181433975Y-92640309D01*
X181183109Y-92891175D01*
X180888122Y-93088279D01*
X180560350Y-93224047D01*
X180261905Y-93283411D01*
X180212390Y-93293260D01*
X179857610Y-93293260D01*
X179808095Y-93283411D01*
X179509650Y-93224047D01*
X179181878Y-93088279D01*
X178886891Y-92891175D01*
X178636025Y-92640309D01*
X178438921Y-92345322D01*
X178303153Y-92017550D01*
X178233940Y-91669589D01*
X178233940Y-91314811D01*
X178303153Y-90966850D01*
X178438921Y-90639078D01*
X178636025Y-90344091D01*
X178886891Y-90093225D01*
X179181878Y-89896121D01*
X179509650Y-89760353D01*
X179821705Y-89698282D01*
X179857610Y-89691140D01*
X180212390Y-89691140D01*
X180248295Y-89698282D01*
X180248295Y-89698282D01*
G37*
G36*
X105302600Y-91050989D02*
G01*
X105335652Y-91061015D01*
X105366103Y-91077292D01*
X105392799Y-91099201D01*
X105414708Y-91125897D01*
X105430985Y-91156348D01*
X105441011Y-91189400D01*
X105445000Y-91229903D01*
X105445000Y-92666097D01*
X105441011Y-92706600D01*
X105430985Y-92739652D01*
X105414708Y-92770103D01*
X105392799Y-92796799D01*
X105366103Y-92818708D01*
X105335652Y-92834985D01*
X105302600Y-92845011D01*
X105262097Y-92849000D01*
X103525903Y-92849000D01*
X103485400Y-92845011D01*
X103452348Y-92834985D01*
X103421897Y-92818708D01*
X103395201Y-92796799D01*
X103373292Y-92770103D01*
X103357015Y-92739652D01*
X103346989Y-92706600D01*
X103343000Y-92666097D01*
X103343000Y-91229903D01*
X103346989Y-91189400D01*
X103357015Y-91156348D01*
X103373292Y-91125897D01*
X103395201Y-91099201D01*
X103421897Y-91077292D01*
X103452348Y-91061015D01*
X103485400Y-91050989D01*
X103525903Y-91047000D01*
X105262097Y-91047000D01*
X105302600Y-91050989D01*
X105302600Y-91050989D01*
G37*
G36*
X147139674Y-90439465D02*
G01*
X147177367Y-90450899D01*
X147212103Y-90469466D01*
X147242548Y-90494452D01*
X147267534Y-90524897D01*
X147286101Y-90559633D01*
X147297535Y-90597326D01*
X147302000Y-90642661D01*
X147302000Y-91729339D01*
X147297535Y-91774674D01*
X147286101Y-91812367D01*
X147267534Y-91847103D01*
X147242548Y-91877548D01*
X147212103Y-91902534D01*
X147177367Y-91921101D01*
X147139674Y-91932535D01*
X147094339Y-91937000D01*
X146257661Y-91937000D01*
X146212326Y-91932535D01*
X146174633Y-91921101D01*
X146139897Y-91902534D01*
X146109452Y-91877548D01*
X146084466Y-91847103D01*
X146065899Y-91812367D01*
X146054465Y-91774674D01*
X146050000Y-91729339D01*
X146050000Y-90642661D01*
X146054465Y-90597326D01*
X146065899Y-90559633D01*
X146084466Y-90524897D01*
X146109452Y-90494452D01*
X146139897Y-90469466D01*
X146174633Y-90450899D01*
X146212326Y-90439465D01*
X146257661Y-90435000D01*
X147094339Y-90435000D01*
X147139674Y-90439465D01*
X147139674Y-90439465D01*
G37*
G36*
X149189674Y-90439465D02*
G01*
X149227367Y-90450899D01*
X149262103Y-90469466D01*
X149292548Y-90494452D01*
X149317534Y-90524897D01*
X149336101Y-90559633D01*
X149347535Y-90597326D01*
X149352000Y-90642661D01*
X149352000Y-91729339D01*
X149347535Y-91774674D01*
X149336101Y-91812367D01*
X149317534Y-91847103D01*
X149292548Y-91877548D01*
X149262103Y-91902534D01*
X149227367Y-91921101D01*
X149189674Y-91932535D01*
X149144339Y-91937000D01*
X148307661Y-91937000D01*
X148262326Y-91932535D01*
X148224633Y-91921101D01*
X148189897Y-91902534D01*
X148159452Y-91877548D01*
X148134466Y-91847103D01*
X148115899Y-91812367D01*
X148104465Y-91774674D01*
X148100000Y-91729339D01*
X148100000Y-90642661D01*
X148104465Y-90597326D01*
X148115899Y-90559633D01*
X148134466Y-90524897D01*
X148159452Y-90494452D01*
X148189897Y-90469466D01*
X148224633Y-90450899D01*
X148262326Y-90439465D01*
X148307661Y-90435000D01*
X149144339Y-90435000D01*
X149189674Y-90439465D01*
X149189674Y-90439465D01*
G37*
G36*
X117742562Y-90136181D02*
G01*
X117777481Y-90146774D01*
X117809663Y-90163976D01*
X117837873Y-90187127D01*
X117861024Y-90215337D01*
X117878226Y-90247519D01*
X117888819Y-90282438D01*
X117893000Y-90324895D01*
X117893000Y-91466105D01*
X117888819Y-91508562D01*
X117878226Y-91543481D01*
X117861024Y-91575663D01*
X117837873Y-91603873D01*
X117809663Y-91627024D01*
X117777481Y-91644226D01*
X117742562Y-91654819D01*
X117700105Y-91659000D01*
X116233895Y-91659000D01*
X116191438Y-91654819D01*
X116156519Y-91644226D01*
X116124337Y-91627024D01*
X116096127Y-91603873D01*
X116072976Y-91575663D01*
X116055774Y-91543481D01*
X116045181Y-91508562D01*
X116041000Y-91466105D01*
X116041000Y-90324895D01*
X116045181Y-90282438D01*
X116055774Y-90247519D01*
X116072976Y-90215337D01*
X116096127Y-90187127D01*
X116124337Y-90163976D01*
X116156519Y-90146774D01*
X116191438Y-90136181D01*
X116233895Y-90132000D01*
X117700105Y-90132000D01*
X117742562Y-90136181D01*
X117742562Y-90136181D01*
G37*
G36*
X142019642Y-88637781D02*
G01*
X142132957Y-88684718D01*
X142165416Y-88698163D01*
X142296608Y-88785822D01*
X142408178Y-88897392D01*
X142482138Y-89008082D01*
X142495838Y-89028586D01*
X142556219Y-89174358D01*
X142587000Y-89329107D01*
X142587000Y-89486893D01*
X142556219Y-89641642D01*
X142506323Y-89762101D01*
X142495837Y-89787416D01*
X142408178Y-89918608D01*
X142296608Y-90030178D01*
X142165416Y-90117837D01*
X142165415Y-90117838D01*
X142165414Y-90117838D01*
X142019642Y-90178219D01*
X141864893Y-90209000D01*
X141707107Y-90209000D01*
X141552358Y-90178219D01*
X141406586Y-90117838D01*
X141406585Y-90117838D01*
X141406584Y-90117837D01*
X141275392Y-90030178D01*
X141163822Y-89918608D01*
X141076163Y-89787416D01*
X141065677Y-89762101D01*
X141015781Y-89641642D01*
X140985000Y-89486893D01*
X140985000Y-89329107D01*
X141015781Y-89174358D01*
X141076162Y-89028586D01*
X141089862Y-89008082D01*
X141163822Y-88897392D01*
X141275392Y-88785822D01*
X141406584Y-88698163D01*
X141439043Y-88684718D01*
X141552358Y-88637781D01*
X141707107Y-88607000D01*
X141864893Y-88607000D01*
X142019642Y-88637781D01*
X142019642Y-88637781D01*
G37*
G36*
X137139642Y-88637781D02*
G01*
X137252957Y-88684718D01*
X137285416Y-88698163D01*
X137416608Y-88785822D01*
X137528178Y-88897392D01*
X137602138Y-89008082D01*
X137615838Y-89028586D01*
X137676219Y-89174358D01*
X137707000Y-89329107D01*
X137707000Y-89486893D01*
X137676219Y-89641642D01*
X137626323Y-89762101D01*
X137615837Y-89787416D01*
X137528178Y-89918608D01*
X137416608Y-90030178D01*
X137285416Y-90117837D01*
X137285415Y-90117838D01*
X137285414Y-90117838D01*
X137139642Y-90178219D01*
X136984893Y-90209000D01*
X136827107Y-90209000D01*
X136672358Y-90178219D01*
X136526586Y-90117838D01*
X136526585Y-90117838D01*
X136526584Y-90117837D01*
X136395392Y-90030178D01*
X136283822Y-89918608D01*
X136196163Y-89787416D01*
X136185677Y-89762101D01*
X136135781Y-89641642D01*
X136105000Y-89486893D01*
X136105000Y-89329107D01*
X136135781Y-89174358D01*
X136196162Y-89028586D01*
X136209862Y-89008082D01*
X136283822Y-88897392D01*
X136395392Y-88785822D01*
X136526584Y-88698163D01*
X136559043Y-88684718D01*
X136672358Y-88637781D01*
X136827107Y-88607000D01*
X136984893Y-88607000D01*
X137139642Y-88637781D01*
X137139642Y-88637781D01*
G37*
G36*
X113999674Y-88668465D02*
G01*
X114037367Y-88679899D01*
X114072103Y-88698466D01*
X114102548Y-88723452D01*
X114127534Y-88753897D01*
X114146101Y-88788633D01*
X114157535Y-88826326D01*
X114162000Y-88871661D01*
X114162000Y-89708339D01*
X114157535Y-89753674D01*
X114146101Y-89791367D01*
X114127534Y-89826103D01*
X114102548Y-89856548D01*
X114072103Y-89881534D01*
X114037367Y-89900101D01*
X113999674Y-89911535D01*
X113954339Y-89916000D01*
X112867661Y-89916000D01*
X112822326Y-89911535D01*
X112784633Y-89900101D01*
X112749897Y-89881534D01*
X112719452Y-89856548D01*
X112694466Y-89826103D01*
X112675899Y-89791367D01*
X112664465Y-89753674D01*
X112660000Y-89708339D01*
X112660000Y-88871661D01*
X112664465Y-88826326D01*
X112675899Y-88788633D01*
X112694466Y-88753897D01*
X112719452Y-88723452D01*
X112749897Y-88698466D01*
X112784633Y-88679899D01*
X112822326Y-88668465D01*
X112867661Y-88664000D01*
X113954339Y-88664000D01*
X113999674Y-88668465D01*
X113999674Y-88668465D01*
G37*
G36*
X161687000Y-88223784D02*
G01*
X161689402Y-88248170D01*
X161696515Y-88271619D01*
X161708066Y-88293230D01*
X161723611Y-88312172D01*
X161746417Y-88334978D01*
X161846509Y-88484776D01*
X161919472Y-88660924D01*
X161920514Y-88664360D01*
X161932064Y-88685971D01*
X161947609Y-88704914D01*
X161966550Y-88720460D01*
X161988160Y-88732012D01*
X162011609Y-88739126D01*
X162035995Y-88741529D01*
X162060381Y-88739128D01*
X162083830Y-88732016D01*
X162105441Y-88720466D01*
X162124384Y-88704921D01*
X162139930Y-88685980D01*
X162151482Y-88664370D01*
X162152525Y-88660932D01*
X162225491Y-88484776D01*
X162325583Y-88334978D01*
X162348389Y-88312172D01*
X162363934Y-88293230D01*
X162375485Y-88271619D01*
X162382598Y-88248170D01*
X162385000Y-88223784D01*
X162385000Y-86067000D01*
X163687000Y-86067000D01*
X163687000Y-88223784D01*
X163689402Y-88248170D01*
X163696515Y-88271619D01*
X163708066Y-88293230D01*
X163723611Y-88312172D01*
X163746417Y-88334978D01*
X163846509Y-88484776D01*
X163919472Y-88660924D01*
X163920514Y-88664360D01*
X163932064Y-88685971D01*
X163947609Y-88704914D01*
X163966550Y-88720460D01*
X163988160Y-88732012D01*
X164011609Y-88739126D01*
X164035995Y-88741529D01*
X164060381Y-88739128D01*
X164083830Y-88732016D01*
X164105441Y-88720466D01*
X164124384Y-88704921D01*
X164139930Y-88685980D01*
X164151482Y-88664370D01*
X164152525Y-88660932D01*
X164225491Y-88484776D01*
X164325583Y-88334978D01*
X164348389Y-88312172D01*
X164363934Y-88293230D01*
X164375485Y-88271619D01*
X164382598Y-88248170D01*
X164385000Y-88223784D01*
X164385000Y-86067000D01*
X165687000Y-86067000D01*
X165687000Y-88223784D01*
X165689402Y-88248170D01*
X165696515Y-88271619D01*
X165708066Y-88293230D01*
X165723611Y-88312172D01*
X165746417Y-88334978D01*
X165846509Y-88484776D01*
X165919472Y-88660924D01*
X165920514Y-88664360D01*
X165932064Y-88685971D01*
X165947609Y-88704914D01*
X165966550Y-88720460D01*
X165988160Y-88732012D01*
X166011609Y-88739126D01*
X166035995Y-88741529D01*
X166060381Y-88739128D01*
X166083830Y-88732016D01*
X166105441Y-88720466D01*
X166124384Y-88704921D01*
X166139930Y-88685980D01*
X166151482Y-88664370D01*
X166152525Y-88660932D01*
X166225491Y-88484776D01*
X166325583Y-88334978D01*
X166348389Y-88312172D01*
X166363934Y-88293230D01*
X166375485Y-88271619D01*
X166382598Y-88248170D01*
X166385000Y-88223784D01*
X166385000Y-86067000D01*
X167687000Y-86067000D01*
X167687000Y-88223784D01*
X167689402Y-88248170D01*
X167696515Y-88271619D01*
X167708066Y-88293230D01*
X167723611Y-88312172D01*
X167746417Y-88334978D01*
X167846509Y-88484776D01*
X167919472Y-88660924D01*
X167920514Y-88664360D01*
X167932064Y-88685971D01*
X167947609Y-88704914D01*
X167966550Y-88720460D01*
X167988160Y-88732012D01*
X168011609Y-88739126D01*
X168035995Y-88741529D01*
X168060381Y-88739128D01*
X168083830Y-88732016D01*
X168105441Y-88720466D01*
X168124384Y-88704921D01*
X168139930Y-88685980D01*
X168151482Y-88664370D01*
X168152525Y-88660932D01*
X168225491Y-88484776D01*
X168325583Y-88334978D01*
X168348389Y-88312172D01*
X168363934Y-88293230D01*
X168375485Y-88271619D01*
X168382598Y-88248170D01*
X168385000Y-88223784D01*
X168385000Y-86067000D01*
X169687000Y-86067000D01*
X169687000Y-88223784D01*
X169689402Y-88248170D01*
X169696515Y-88271619D01*
X169708066Y-88293230D01*
X169723611Y-88312172D01*
X169746417Y-88334978D01*
X169846509Y-88484776D01*
X169919472Y-88660924D01*
X169920514Y-88664360D01*
X169932064Y-88685971D01*
X169947609Y-88704914D01*
X169966550Y-88720460D01*
X169988160Y-88732012D01*
X170011609Y-88739126D01*
X170035995Y-88741529D01*
X170060381Y-88739128D01*
X170083830Y-88732016D01*
X170105441Y-88720466D01*
X170124384Y-88704921D01*
X170139930Y-88685980D01*
X170151482Y-88664370D01*
X170152525Y-88660932D01*
X170225491Y-88484776D01*
X170325583Y-88334978D01*
X170348389Y-88312172D01*
X170363934Y-88293230D01*
X170375485Y-88271619D01*
X170382598Y-88248170D01*
X170385000Y-88223784D01*
X170385000Y-86067000D01*
X171687000Y-86067000D01*
X171687000Y-88223784D01*
X171689402Y-88248170D01*
X171696515Y-88271619D01*
X171708066Y-88293230D01*
X171723611Y-88312172D01*
X171746417Y-88334978D01*
X171846509Y-88484776D01*
X171919472Y-88660924D01*
X171920514Y-88664360D01*
X171932064Y-88685971D01*
X171947609Y-88704914D01*
X171966550Y-88720460D01*
X171988160Y-88732012D01*
X172011609Y-88739126D01*
X172035995Y-88741529D01*
X172060381Y-88739128D01*
X172083830Y-88732016D01*
X172105441Y-88720466D01*
X172124384Y-88704921D01*
X172139930Y-88685980D01*
X172151482Y-88664370D01*
X172152525Y-88660932D01*
X172225491Y-88484776D01*
X172325583Y-88334978D01*
X172348389Y-88312172D01*
X172363934Y-88293230D01*
X172375485Y-88271619D01*
X172382598Y-88248170D01*
X172385000Y-88223784D01*
X172385000Y-86067000D01*
X173687000Y-86067000D01*
X173687000Y-88223784D01*
X173689402Y-88248170D01*
X173696515Y-88271619D01*
X173708066Y-88293230D01*
X173723611Y-88312172D01*
X173746417Y-88334978D01*
X173846509Y-88484776D01*
X173919472Y-88660924D01*
X173920514Y-88664360D01*
X173932064Y-88685971D01*
X173947609Y-88704914D01*
X173966550Y-88720460D01*
X173988160Y-88732012D01*
X174011609Y-88739126D01*
X174035995Y-88741529D01*
X174060381Y-88739128D01*
X174083830Y-88732016D01*
X174105441Y-88720466D01*
X174124384Y-88704921D01*
X174139930Y-88685980D01*
X174151482Y-88664370D01*
X174152525Y-88660932D01*
X174225491Y-88484776D01*
X174325583Y-88334978D01*
X174348389Y-88312172D01*
X174363934Y-88293230D01*
X174375485Y-88271619D01*
X174382598Y-88248170D01*
X174385000Y-88223784D01*
X174385000Y-86067000D01*
X175687000Y-86067000D01*
X175687000Y-88223784D01*
X175689402Y-88248170D01*
X175696515Y-88271619D01*
X175708066Y-88293230D01*
X175723611Y-88312172D01*
X175746417Y-88334978D01*
X175846509Y-88484776D01*
X175915453Y-88651222D01*
X175950600Y-88827918D01*
X175950600Y-89008082D01*
X175915453Y-89184778D01*
X175846509Y-89351224D01*
X175746417Y-89501022D01*
X175619022Y-89628417D01*
X175469224Y-89728509D01*
X175302778Y-89797453D01*
X175126082Y-89832600D01*
X174945918Y-89832600D01*
X174769222Y-89797453D01*
X174602776Y-89728509D01*
X174452978Y-89628417D01*
X174325583Y-89501022D01*
X174225491Y-89351224D01*
X174152528Y-89175076D01*
X174151486Y-89171640D01*
X174139936Y-89150029D01*
X174124391Y-89131086D01*
X174105450Y-89115540D01*
X174083840Y-89103988D01*
X174060391Y-89096874D01*
X174036005Y-89094471D01*
X174011619Y-89096872D01*
X173988170Y-89103984D01*
X173966559Y-89115534D01*
X173947616Y-89131079D01*
X173932070Y-89150020D01*
X173920518Y-89171630D01*
X173919475Y-89175068D01*
X173846509Y-89351224D01*
X173746417Y-89501022D01*
X173619022Y-89628417D01*
X173469224Y-89728509D01*
X173302778Y-89797453D01*
X173126082Y-89832600D01*
X172945918Y-89832600D01*
X172769222Y-89797453D01*
X172602776Y-89728509D01*
X172452978Y-89628417D01*
X172325583Y-89501022D01*
X172225491Y-89351224D01*
X172152528Y-89175076D01*
X172151486Y-89171640D01*
X172139936Y-89150029D01*
X172124391Y-89131086D01*
X172105450Y-89115540D01*
X172083840Y-89103988D01*
X172060391Y-89096874D01*
X172036005Y-89094471D01*
X172011619Y-89096872D01*
X171988170Y-89103984D01*
X171966559Y-89115534D01*
X171947616Y-89131079D01*
X171932070Y-89150020D01*
X171920518Y-89171630D01*
X171919475Y-89175068D01*
X171846509Y-89351224D01*
X171746417Y-89501022D01*
X171619022Y-89628417D01*
X171469224Y-89728509D01*
X171302778Y-89797453D01*
X171126082Y-89832600D01*
X170945918Y-89832600D01*
X170769222Y-89797453D01*
X170602776Y-89728509D01*
X170452978Y-89628417D01*
X170325583Y-89501022D01*
X170225491Y-89351224D01*
X170152528Y-89175076D01*
X170151486Y-89171640D01*
X170139936Y-89150029D01*
X170124391Y-89131086D01*
X170105450Y-89115540D01*
X170083840Y-89103988D01*
X170060391Y-89096874D01*
X170036005Y-89094471D01*
X170011619Y-89096872D01*
X169988170Y-89103984D01*
X169966559Y-89115534D01*
X169947616Y-89131079D01*
X169932070Y-89150020D01*
X169920518Y-89171630D01*
X169919475Y-89175068D01*
X169846509Y-89351224D01*
X169746417Y-89501022D01*
X169619022Y-89628417D01*
X169469224Y-89728509D01*
X169302778Y-89797453D01*
X169126082Y-89832600D01*
X168945918Y-89832600D01*
X168769222Y-89797453D01*
X168602776Y-89728509D01*
X168452978Y-89628417D01*
X168325583Y-89501022D01*
X168225491Y-89351224D01*
X168152528Y-89175076D01*
X168151486Y-89171640D01*
X168139936Y-89150029D01*
X168124391Y-89131086D01*
X168105450Y-89115540D01*
X168083840Y-89103988D01*
X168060391Y-89096874D01*
X168036005Y-89094471D01*
X168011619Y-89096872D01*
X167988170Y-89103984D01*
X167966559Y-89115534D01*
X167947616Y-89131079D01*
X167932070Y-89150020D01*
X167920518Y-89171630D01*
X167919475Y-89175068D01*
X167846509Y-89351224D01*
X167746417Y-89501022D01*
X167619022Y-89628417D01*
X167469224Y-89728509D01*
X167302778Y-89797453D01*
X167126082Y-89832600D01*
X166945918Y-89832600D01*
X166769222Y-89797453D01*
X166602776Y-89728509D01*
X166452978Y-89628417D01*
X166325583Y-89501022D01*
X166225491Y-89351224D01*
X166152528Y-89175076D01*
X166151486Y-89171640D01*
X166139936Y-89150029D01*
X166124391Y-89131086D01*
X166105450Y-89115540D01*
X166083840Y-89103988D01*
X166060391Y-89096874D01*
X166036005Y-89094471D01*
X166011619Y-89096872D01*
X165988170Y-89103984D01*
X165966559Y-89115534D01*
X165947616Y-89131079D01*
X165932070Y-89150020D01*
X165920518Y-89171630D01*
X165919475Y-89175068D01*
X165846509Y-89351224D01*
X165746417Y-89501022D01*
X165619022Y-89628417D01*
X165469224Y-89728509D01*
X165302778Y-89797453D01*
X165126082Y-89832600D01*
X164945918Y-89832600D01*
X164769222Y-89797453D01*
X164602776Y-89728509D01*
X164452978Y-89628417D01*
X164325583Y-89501022D01*
X164225491Y-89351224D01*
X164152528Y-89175076D01*
X164151486Y-89171640D01*
X164139936Y-89150029D01*
X164124391Y-89131086D01*
X164105450Y-89115540D01*
X164083840Y-89103988D01*
X164060391Y-89096874D01*
X164036005Y-89094471D01*
X164011619Y-89096872D01*
X163988170Y-89103984D01*
X163966559Y-89115534D01*
X163947616Y-89131079D01*
X163932070Y-89150020D01*
X163920518Y-89171630D01*
X163919475Y-89175068D01*
X163846509Y-89351224D01*
X163746417Y-89501022D01*
X163619022Y-89628417D01*
X163469224Y-89728509D01*
X163302778Y-89797453D01*
X163126082Y-89832600D01*
X162945918Y-89832600D01*
X162769222Y-89797453D01*
X162602776Y-89728509D01*
X162452978Y-89628417D01*
X162325583Y-89501022D01*
X162225491Y-89351224D01*
X162152528Y-89175076D01*
X162151486Y-89171640D01*
X162139936Y-89150029D01*
X162124391Y-89131086D01*
X162105450Y-89115540D01*
X162083840Y-89103988D01*
X162060391Y-89096874D01*
X162036005Y-89094471D01*
X162011619Y-89096872D01*
X161988170Y-89103984D01*
X161966559Y-89115534D01*
X161947616Y-89131079D01*
X161932070Y-89150020D01*
X161920518Y-89171630D01*
X161919475Y-89175068D01*
X161846509Y-89351224D01*
X161746417Y-89501022D01*
X161619022Y-89628417D01*
X161469224Y-89728509D01*
X161302778Y-89797453D01*
X161126082Y-89832600D01*
X160945918Y-89832600D01*
X160769222Y-89797453D01*
X160602776Y-89728509D01*
X160452978Y-89628417D01*
X160325583Y-89501022D01*
X160225491Y-89351224D01*
X160156547Y-89184778D01*
X160121400Y-89008082D01*
X160121400Y-88827918D01*
X160156547Y-88651222D01*
X160225491Y-88484776D01*
X160325583Y-88334978D01*
X160348389Y-88312172D01*
X160363934Y-88293230D01*
X160375485Y-88271619D01*
X160382598Y-88248170D01*
X160385000Y-88223784D01*
X160385000Y-86067000D01*
X161687000Y-86067000D01*
X161687000Y-88223784D01*
X161687000Y-88223784D01*
G37*
G36*
X147139674Y-88280465D02*
G01*
X147177367Y-88291899D01*
X147212103Y-88310466D01*
X147242548Y-88335452D01*
X147267534Y-88365897D01*
X147286101Y-88400633D01*
X147297535Y-88438326D01*
X147302000Y-88483661D01*
X147302000Y-89570339D01*
X147297535Y-89615674D01*
X147286101Y-89653367D01*
X147267534Y-89688103D01*
X147242548Y-89718548D01*
X147212103Y-89743534D01*
X147177367Y-89762101D01*
X147139674Y-89773535D01*
X147094339Y-89778000D01*
X146257661Y-89778000D01*
X146212326Y-89773535D01*
X146174633Y-89762101D01*
X146139897Y-89743534D01*
X146109452Y-89718548D01*
X146084466Y-89688103D01*
X146065899Y-89653367D01*
X146054465Y-89615674D01*
X146050000Y-89570339D01*
X146050000Y-88483661D01*
X146054465Y-88438326D01*
X146065899Y-88400633D01*
X146084466Y-88365897D01*
X146109452Y-88335452D01*
X146139897Y-88310466D01*
X146174633Y-88291899D01*
X146212326Y-88280465D01*
X146257661Y-88276000D01*
X147094339Y-88276000D01*
X147139674Y-88280465D01*
X147139674Y-88280465D01*
G37*
G36*
X149189674Y-88280465D02*
G01*
X149227367Y-88291899D01*
X149262103Y-88310466D01*
X149292548Y-88335452D01*
X149317534Y-88365897D01*
X149336101Y-88400633D01*
X149347535Y-88438326D01*
X149352000Y-88483661D01*
X149352000Y-89570339D01*
X149347535Y-89615674D01*
X149336101Y-89653367D01*
X149317534Y-89688103D01*
X149292548Y-89718548D01*
X149262103Y-89743534D01*
X149227367Y-89762101D01*
X149189674Y-89773535D01*
X149144339Y-89778000D01*
X148307661Y-89778000D01*
X148262326Y-89773535D01*
X148224633Y-89762101D01*
X148189897Y-89743534D01*
X148159452Y-89718548D01*
X148134466Y-89688103D01*
X148115899Y-89653367D01*
X148104465Y-89615674D01*
X148100000Y-89570339D01*
X148100000Y-88483661D01*
X148104465Y-88438326D01*
X148115899Y-88400633D01*
X148134466Y-88365897D01*
X148159452Y-88335452D01*
X148189897Y-88310466D01*
X148224633Y-88291899D01*
X148262326Y-88280465D01*
X148307661Y-88276000D01*
X149144339Y-88276000D01*
X149189674Y-88280465D01*
X149189674Y-88280465D01*
G37*
G36*
X127775562Y-87596181D02*
G01*
X127810481Y-87606774D01*
X127842663Y-87623976D01*
X127870873Y-87647127D01*
X127894024Y-87675337D01*
X127911226Y-87707519D01*
X127921819Y-87742438D01*
X127926000Y-87784895D01*
X127926000Y-88926105D01*
X127921819Y-88968562D01*
X127911226Y-89003481D01*
X127894024Y-89035663D01*
X127870873Y-89063873D01*
X127842663Y-89087024D01*
X127810481Y-89104226D01*
X127775562Y-89114819D01*
X127733105Y-89119000D01*
X126266895Y-89119000D01*
X126224438Y-89114819D01*
X126189519Y-89104226D01*
X126157337Y-89087024D01*
X126129127Y-89063873D01*
X126105976Y-89035663D01*
X126088774Y-89003481D01*
X126078181Y-88968562D01*
X126074000Y-88926105D01*
X126074000Y-87784895D01*
X126078181Y-87742438D01*
X126088774Y-87707519D01*
X126105976Y-87675337D01*
X126129127Y-87647127D01*
X126157337Y-87623976D01*
X126189519Y-87606774D01*
X126224438Y-87596181D01*
X126266895Y-87592000D01*
X127733105Y-87592000D01*
X127775562Y-87596181D01*
X127775562Y-87596181D01*
G37*
G36*
X117742562Y-87161181D02*
G01*
X117777481Y-87171774D01*
X117809663Y-87188976D01*
X117837873Y-87212127D01*
X117861024Y-87240337D01*
X117878226Y-87272519D01*
X117888819Y-87307438D01*
X117893000Y-87349895D01*
X117893000Y-88491105D01*
X117888819Y-88533562D01*
X117878226Y-88568481D01*
X117861024Y-88600663D01*
X117837873Y-88628873D01*
X117809663Y-88652024D01*
X117777481Y-88669226D01*
X117742562Y-88679819D01*
X117700105Y-88684000D01*
X116233895Y-88684000D01*
X116191438Y-88679819D01*
X116156519Y-88669226D01*
X116124337Y-88652024D01*
X116096127Y-88628873D01*
X116072976Y-88600663D01*
X116055774Y-88568481D01*
X116045181Y-88533562D01*
X116041000Y-88491105D01*
X116041000Y-87349895D01*
X116045181Y-87307438D01*
X116055774Y-87272519D01*
X116072976Y-87240337D01*
X116096127Y-87212127D01*
X116124337Y-87188976D01*
X116156519Y-87171774D01*
X116191438Y-87161181D01*
X116233895Y-87157000D01*
X117700105Y-87157000D01*
X117742562Y-87161181D01*
X117742562Y-87161181D01*
G37*
G36*
X111011562Y-87088181D02*
G01*
X111046481Y-87098774D01*
X111078663Y-87115976D01*
X111106873Y-87139127D01*
X111130024Y-87167337D01*
X111147226Y-87199519D01*
X111157819Y-87234438D01*
X111162000Y-87276895D01*
X111162000Y-88418105D01*
X111157819Y-88460562D01*
X111147226Y-88495481D01*
X111130024Y-88527663D01*
X111106873Y-88555873D01*
X111078663Y-88579024D01*
X111046481Y-88596226D01*
X111011562Y-88606819D01*
X110969105Y-88611000D01*
X109502895Y-88611000D01*
X109460438Y-88606819D01*
X109425519Y-88596226D01*
X109393337Y-88579024D01*
X109365127Y-88555873D01*
X109341976Y-88527663D01*
X109324774Y-88495481D01*
X109314181Y-88460562D01*
X109310000Y-88418105D01*
X109310000Y-87276895D01*
X109314181Y-87234438D01*
X109324774Y-87199519D01*
X109341976Y-87167337D01*
X109365127Y-87139127D01*
X109393337Y-87115976D01*
X109425519Y-87098774D01*
X109460438Y-87088181D01*
X109502895Y-87084000D01*
X110969105Y-87084000D01*
X111011562Y-87088181D01*
X111011562Y-87088181D01*
G37*
G36*
X131271674Y-86890465D02*
G01*
X131309367Y-86901899D01*
X131344103Y-86920466D01*
X131374548Y-86945452D01*
X131399534Y-86975897D01*
X131418101Y-87010633D01*
X131429535Y-87048326D01*
X131434000Y-87093661D01*
X131434000Y-87930339D01*
X131429535Y-87975674D01*
X131418101Y-88013367D01*
X131399534Y-88048103D01*
X131374548Y-88078548D01*
X131344103Y-88103534D01*
X131309367Y-88122101D01*
X131271674Y-88133535D01*
X131226339Y-88138000D01*
X130139661Y-88138000D01*
X130094326Y-88133535D01*
X130056633Y-88122101D01*
X130021897Y-88103534D01*
X129991452Y-88078548D01*
X129966466Y-88048103D01*
X129947899Y-88013367D01*
X129936465Y-87975674D01*
X129932000Y-87930339D01*
X129932000Y-87093661D01*
X129936465Y-87048326D01*
X129947899Y-87010633D01*
X129966466Y-86975897D01*
X129991452Y-86945452D01*
X130021897Y-86920466D01*
X130056633Y-86901899D01*
X130094326Y-86890465D01*
X130139661Y-86886000D01*
X131226339Y-86886000D01*
X131271674Y-86890465D01*
X131271674Y-86890465D01*
G37*
G36*
X113999674Y-86618465D02*
G01*
X114037367Y-86629899D01*
X114072103Y-86648466D01*
X114102548Y-86673452D01*
X114127534Y-86703897D01*
X114146101Y-86738633D01*
X114157535Y-86776326D01*
X114162000Y-86821661D01*
X114162000Y-87658339D01*
X114157535Y-87703674D01*
X114146101Y-87741367D01*
X114127534Y-87776103D01*
X114102548Y-87806548D01*
X114072103Y-87831534D01*
X114037367Y-87850101D01*
X113999674Y-87861535D01*
X113954339Y-87866000D01*
X112867661Y-87866000D01*
X112822326Y-87861535D01*
X112784633Y-87850101D01*
X112749897Y-87831534D01*
X112719452Y-87806548D01*
X112694466Y-87776103D01*
X112675899Y-87741367D01*
X112664465Y-87703674D01*
X112660000Y-87658339D01*
X112660000Y-86821661D01*
X112664465Y-86776326D01*
X112675899Y-86738633D01*
X112694466Y-86703897D01*
X112719452Y-86673452D01*
X112749897Y-86648466D01*
X112784633Y-86629899D01*
X112822326Y-86618465D01*
X112867661Y-86614000D01*
X113954339Y-86614000D01*
X113999674Y-86618465D01*
X113999674Y-86618465D01*
G37*
G36*
X154317000Y-87769000D02*
G01*
X152515000Y-87769000D01*
X152515000Y-85967000D01*
X154317000Y-85967000D01*
X154317000Y-87769000D01*
X154317000Y-87769000D01*
G37*
G36*
X156039369Y-85970852D02*
G01*
X156132627Y-85980037D01*
X156302466Y-86031557D01*
X156302468Y-86031558D01*
X156343582Y-86053534D01*
X156458991Y-86115222D01*
X156487784Y-86138852D01*
X156596186Y-86227814D01*
X156646399Y-86289000D01*
X156708778Y-86365009D01*
X156792443Y-86521534D01*
X156843963Y-86691373D01*
X156861359Y-86868000D01*
X156843963Y-87044627D01*
X156792443Y-87214466D01*
X156708778Y-87370991D01*
X156679448Y-87406729D01*
X156596186Y-87508186D01*
X156494729Y-87591448D01*
X156458991Y-87620778D01*
X156302466Y-87704443D01*
X156132627Y-87755963D01*
X156066442Y-87762482D01*
X156000260Y-87769000D01*
X155911740Y-87769000D01*
X155845558Y-87762482D01*
X155779373Y-87755963D01*
X155609534Y-87704443D01*
X155453009Y-87620778D01*
X155417271Y-87591448D01*
X155315814Y-87508186D01*
X155232552Y-87406729D01*
X155203222Y-87370991D01*
X155119557Y-87214466D01*
X155068037Y-87044627D01*
X155050641Y-86868000D01*
X155068037Y-86691373D01*
X155119557Y-86521534D01*
X155203222Y-86365009D01*
X155265601Y-86289000D01*
X155315814Y-86227814D01*
X155424216Y-86138852D01*
X155453009Y-86115222D01*
X155568418Y-86053534D01*
X155609532Y-86031558D01*
X155609534Y-86031557D01*
X155779373Y-85980037D01*
X155872631Y-85970852D01*
X155911740Y-85967000D01*
X156000260Y-85967000D01*
X156039369Y-85970852D01*
X156039369Y-85970852D01*
G37*
G36*
X105028410Y-83843525D02*
G01*
X105113426Y-83869314D01*
X105191775Y-83911193D01*
X105260449Y-83967551D01*
X105316807Y-84036225D01*
X105358686Y-84114574D01*
X105384475Y-84199590D01*
X105393182Y-84288000D01*
X105384475Y-84376410D01*
X105358686Y-84461426D01*
X105316807Y-84539775D01*
X105267851Y-84599428D01*
X105254238Y-84619802D01*
X105244860Y-84642441D01*
X105240080Y-84666474D01*
X105240080Y-84690978D01*
X105244861Y-84715012D01*
X105254238Y-84737650D01*
X105267852Y-84758025D01*
X105285179Y-84775352D01*
X105305553Y-84788965D01*
X105328192Y-84798343D01*
X105352225Y-84803123D01*
X105376729Y-84803123D01*
X105400763Y-84798342D01*
X105409216Y-84794841D01*
X105562879Y-84748228D01*
X105676882Y-84737000D01*
X106303118Y-84737000D01*
X106417121Y-84748228D01*
X106546671Y-84787527D01*
X106551413Y-84788965D01*
X106563402Y-84792602D01*
X106698204Y-84864655D01*
X106698207Y-84864657D01*
X106698208Y-84864658D01*
X106816369Y-84961631D01*
X106851155Y-85004017D01*
X106913345Y-85079796D01*
X106985398Y-85214598D01*
X107029772Y-85360879D01*
X107044754Y-85513000D01*
X107029772Y-85665121D01*
X106985398Y-85811402D01*
X106913345Y-85946204D01*
X106913343Y-85946207D01*
X106913342Y-85946208D01*
X106816369Y-86064369D01*
X106724434Y-86139819D01*
X106698204Y-86161345D01*
X106563402Y-86233398D01*
X106417121Y-86277772D01*
X106303118Y-86289000D01*
X105676882Y-86289000D01*
X105562879Y-86277772D01*
X105416598Y-86233398D01*
X105281796Y-86161345D01*
X105255567Y-86139819D01*
X105163631Y-86064369D01*
X105066658Y-85946208D01*
X105066657Y-85946207D01*
X105066655Y-85946204D01*
X104994602Y-85811402D01*
X104950228Y-85665121D01*
X104935246Y-85513000D01*
X104950228Y-85360879D01*
X104994602Y-85214598D01*
X105066655Y-85079796D01*
X105101777Y-85037000D01*
X105163631Y-84961631D01*
X105200105Y-84931697D01*
X105217432Y-84914370D01*
X105231046Y-84893996D01*
X105240423Y-84871357D01*
X105245204Y-84847324D01*
X105245204Y-84822820D01*
X105240424Y-84798787D01*
X105231047Y-84776148D01*
X105217433Y-84755773D01*
X105200106Y-84738446D01*
X105179732Y-84724832D01*
X105157093Y-84715455D01*
X105133060Y-84710674D01*
X105108556Y-84710674D01*
X105084523Y-84715454D01*
X105028412Y-84732475D01*
X104962158Y-84739000D01*
X104917842Y-84739000D01*
X104851590Y-84732475D01*
X104766574Y-84706686D01*
X104688225Y-84664807D01*
X104619551Y-84608449D01*
X104563193Y-84539775D01*
X104521314Y-84461426D01*
X104495525Y-84376410D01*
X104486818Y-84288000D01*
X104495525Y-84199590D01*
X104521314Y-84114574D01*
X104563193Y-84036225D01*
X104619551Y-83967551D01*
X104688225Y-83911193D01*
X104766574Y-83869314D01*
X104851590Y-83843525D01*
X104917842Y-83837000D01*
X104962158Y-83837000D01*
X105028410Y-83843525D01*
X105028410Y-83843525D01*
G37*
G36*
X102637715Y-85046058D02*
G01*
X102733753Y-85075191D01*
X102748935Y-85079796D01*
X102755722Y-85081855D01*
X102864468Y-85139981D01*
X102959790Y-85218210D01*
X103038019Y-85313532D01*
X103096145Y-85422278D01*
X103131942Y-85540285D01*
X103144028Y-85663000D01*
X103131942Y-85785715D01*
X103096145Y-85903722D01*
X103038019Y-86012468D01*
X102959790Y-86107790D01*
X102864468Y-86186019D01*
X102755722Y-86244145D01*
X102637715Y-86279942D01*
X102545746Y-86289000D01*
X101834254Y-86289000D01*
X101742285Y-86279942D01*
X101624278Y-86244145D01*
X101515532Y-86186019D01*
X101420210Y-86107790D01*
X101341981Y-86012468D01*
X101283855Y-85903722D01*
X101248058Y-85785715D01*
X101235972Y-85663000D01*
X101248058Y-85540285D01*
X101283855Y-85422278D01*
X101341981Y-85313532D01*
X101420210Y-85218210D01*
X101515532Y-85139981D01*
X101624278Y-85081855D01*
X101631066Y-85079796D01*
X101646247Y-85075191D01*
X101742285Y-85046058D01*
X101834254Y-85037000D01*
X102545746Y-85037000D01*
X102637715Y-85046058D01*
X102637715Y-85046058D01*
G37*
G36*
X127775562Y-84621181D02*
G01*
X127810481Y-84631774D01*
X127842663Y-84648976D01*
X127870873Y-84672127D01*
X127894024Y-84700337D01*
X127911226Y-84732519D01*
X127921819Y-84767438D01*
X127926000Y-84809895D01*
X127926000Y-85951105D01*
X127921819Y-85993562D01*
X127911226Y-86028481D01*
X127894024Y-86060663D01*
X127870873Y-86088873D01*
X127842663Y-86112024D01*
X127810481Y-86129226D01*
X127775562Y-86139819D01*
X127733105Y-86144000D01*
X126266895Y-86144000D01*
X126224438Y-86139819D01*
X126189519Y-86129226D01*
X126157337Y-86112024D01*
X126129127Y-86088873D01*
X126105976Y-86060663D01*
X126088774Y-86028481D01*
X126078181Y-85993562D01*
X126074000Y-85951105D01*
X126074000Y-84809895D01*
X126078181Y-84767438D01*
X126088774Y-84732519D01*
X126105976Y-84700337D01*
X126129127Y-84672127D01*
X126157337Y-84648976D01*
X126189519Y-84631774D01*
X126224438Y-84621181D01*
X126266895Y-84617000D01*
X127733105Y-84617000D01*
X127775562Y-84621181D01*
X127775562Y-84621181D01*
G37*
G36*
X131271674Y-84840465D02*
G01*
X131309367Y-84851899D01*
X131344103Y-84870466D01*
X131374548Y-84895452D01*
X131399534Y-84925897D01*
X131418101Y-84960633D01*
X131429535Y-84998326D01*
X131434000Y-85043661D01*
X131434000Y-85880339D01*
X131429535Y-85925674D01*
X131418101Y-85963367D01*
X131399534Y-85998103D01*
X131374548Y-86028548D01*
X131344103Y-86053534D01*
X131309367Y-86072101D01*
X131271674Y-86083535D01*
X131226339Y-86088000D01*
X130139661Y-86088000D01*
X130094326Y-86083535D01*
X130056633Y-86072101D01*
X130021897Y-86053534D01*
X129991452Y-86028548D01*
X129966466Y-85998103D01*
X129947899Y-85963367D01*
X129936465Y-85925674D01*
X129932000Y-85880339D01*
X129932000Y-85043661D01*
X129936465Y-84998326D01*
X129947899Y-84960633D01*
X129966466Y-84925897D01*
X129991452Y-84895452D01*
X130021897Y-84870466D01*
X130056633Y-84851899D01*
X130094326Y-84840465D01*
X130139661Y-84836000D01*
X131226339Y-84836000D01*
X131271674Y-84840465D01*
X131271674Y-84840465D01*
G37*
G36*
X139514562Y-84168181D02*
G01*
X139549481Y-84178774D01*
X139581663Y-84195976D01*
X139609873Y-84219127D01*
X139633024Y-84247337D01*
X139650226Y-84279519D01*
X139660819Y-84314438D01*
X139665000Y-84356895D01*
X139665000Y-85823105D01*
X139660819Y-85865562D01*
X139650226Y-85900481D01*
X139633024Y-85932663D01*
X139609873Y-85960873D01*
X139581663Y-85984024D01*
X139549481Y-86001226D01*
X139514562Y-86011819D01*
X139472105Y-86016000D01*
X138330895Y-86016000D01*
X138288438Y-86011819D01*
X138253519Y-86001226D01*
X138221337Y-85984024D01*
X138193127Y-85960873D01*
X138169976Y-85932663D01*
X138152774Y-85900481D01*
X138142181Y-85865562D01*
X138138000Y-85823105D01*
X138138000Y-84356895D01*
X138142181Y-84314438D01*
X138152774Y-84279519D01*
X138169976Y-84247337D01*
X138193127Y-84219127D01*
X138221337Y-84195976D01*
X138253519Y-84178774D01*
X138288438Y-84168181D01*
X138330895Y-84164000D01*
X139472105Y-84164000D01*
X139514562Y-84168181D01*
X139514562Y-84168181D01*
G37*
G36*
X145737562Y-84168181D02*
G01*
X145772481Y-84178774D01*
X145804663Y-84195976D01*
X145832873Y-84219127D01*
X145856024Y-84247337D01*
X145873226Y-84279519D01*
X145883819Y-84314438D01*
X145888000Y-84356895D01*
X145888000Y-85823105D01*
X145883819Y-85865562D01*
X145873226Y-85900481D01*
X145856024Y-85932663D01*
X145832873Y-85960873D01*
X145804663Y-85984024D01*
X145772481Y-86001226D01*
X145737562Y-86011819D01*
X145695105Y-86016000D01*
X144553895Y-86016000D01*
X144511438Y-86011819D01*
X144476519Y-86001226D01*
X144444337Y-85984024D01*
X144416127Y-85960873D01*
X144392976Y-85932663D01*
X144375774Y-85900481D01*
X144365181Y-85865562D01*
X144361000Y-85823105D01*
X144361000Y-84356895D01*
X144365181Y-84314438D01*
X144375774Y-84279519D01*
X144392976Y-84247337D01*
X144416127Y-84219127D01*
X144444337Y-84195976D01*
X144476519Y-84178774D01*
X144511438Y-84168181D01*
X144553895Y-84164000D01*
X145695105Y-84164000D01*
X145737562Y-84168181D01*
X145737562Y-84168181D01*
G37*
G36*
X136539562Y-84168181D02*
G01*
X136574481Y-84178774D01*
X136606663Y-84195976D01*
X136634873Y-84219127D01*
X136658024Y-84247337D01*
X136675226Y-84279519D01*
X136685819Y-84314438D01*
X136690000Y-84356895D01*
X136690000Y-85823105D01*
X136685819Y-85865562D01*
X136675226Y-85900481D01*
X136658024Y-85932663D01*
X136634873Y-85960873D01*
X136606663Y-85984024D01*
X136574481Y-86001226D01*
X136539562Y-86011819D01*
X136497105Y-86016000D01*
X135355895Y-86016000D01*
X135313438Y-86011819D01*
X135278519Y-86001226D01*
X135246337Y-85984024D01*
X135218127Y-85960873D01*
X135194976Y-85932663D01*
X135177774Y-85900481D01*
X135167181Y-85865562D01*
X135163000Y-85823105D01*
X135163000Y-84356895D01*
X135167181Y-84314438D01*
X135177774Y-84279519D01*
X135194976Y-84247337D01*
X135218127Y-84219127D01*
X135246337Y-84195976D01*
X135278519Y-84178774D01*
X135313438Y-84168181D01*
X135355895Y-84164000D01*
X136497105Y-84164000D01*
X136539562Y-84168181D01*
X136539562Y-84168181D01*
G37*
G36*
X142762562Y-84168181D02*
G01*
X142797481Y-84178774D01*
X142829663Y-84195976D01*
X142857873Y-84219127D01*
X142881024Y-84247337D01*
X142898226Y-84279519D01*
X142908819Y-84314438D01*
X142913000Y-84356895D01*
X142913000Y-85823105D01*
X142908819Y-85865562D01*
X142898226Y-85900481D01*
X142881024Y-85932663D01*
X142857873Y-85960873D01*
X142829663Y-85984024D01*
X142797481Y-86001226D01*
X142762562Y-86011819D01*
X142720105Y-86016000D01*
X141578895Y-86016000D01*
X141536438Y-86011819D01*
X141501519Y-86001226D01*
X141469337Y-85984024D01*
X141441127Y-85960873D01*
X141417976Y-85932663D01*
X141400774Y-85900481D01*
X141390181Y-85865562D01*
X141386000Y-85823105D01*
X141386000Y-84356895D01*
X141390181Y-84314438D01*
X141400774Y-84279519D01*
X141417976Y-84247337D01*
X141441127Y-84219127D01*
X141469337Y-84195976D01*
X141501519Y-84178774D01*
X141536438Y-84168181D01*
X141578895Y-84164000D01*
X142720105Y-84164000D01*
X142762562Y-84168181D01*
X142762562Y-84168181D01*
G37*
G36*
X111011562Y-84113181D02*
G01*
X111046481Y-84123774D01*
X111078663Y-84140976D01*
X111106873Y-84164127D01*
X111130024Y-84192337D01*
X111147226Y-84224519D01*
X111157819Y-84259438D01*
X111162000Y-84301895D01*
X111162000Y-85443105D01*
X111157819Y-85485562D01*
X111147226Y-85520481D01*
X111130024Y-85552663D01*
X111106873Y-85580873D01*
X111078663Y-85604024D01*
X111046481Y-85621226D01*
X111011562Y-85631819D01*
X110969105Y-85636000D01*
X109502895Y-85636000D01*
X109460438Y-85631819D01*
X109425519Y-85621226D01*
X109393337Y-85604024D01*
X109365127Y-85580873D01*
X109341976Y-85552663D01*
X109324774Y-85520481D01*
X109314181Y-85485562D01*
X109310000Y-85443105D01*
X109310000Y-84301895D01*
X109314181Y-84259438D01*
X109324774Y-84224519D01*
X109341976Y-84192337D01*
X109365127Y-84164127D01*
X109393337Y-84140976D01*
X109425519Y-84123774D01*
X109460438Y-84113181D01*
X109502895Y-84109000D01*
X110969105Y-84109000D01*
X111011562Y-84113181D01*
X111011562Y-84113181D01*
G37*
G36*
X116464928Y-83843764D02*
G01*
X116486009Y-83850160D01*
X116505445Y-83860548D01*
X116522476Y-83874524D01*
X116536452Y-83891555D01*
X116546840Y-83910991D01*
X116553236Y-83932072D01*
X116556000Y-83960140D01*
X116556000Y-85423860D01*
X116553236Y-85451928D01*
X116546840Y-85473009D01*
X116536452Y-85492445D01*
X116522476Y-85509476D01*
X116505445Y-85523452D01*
X116486009Y-85533840D01*
X116464928Y-85540236D01*
X116436860Y-85543000D01*
X115973140Y-85543000D01*
X115945072Y-85540236D01*
X115923991Y-85533840D01*
X115904555Y-85523452D01*
X115887524Y-85509476D01*
X115873548Y-85492445D01*
X115863160Y-85473009D01*
X115856764Y-85451928D01*
X115854000Y-85423860D01*
X115854000Y-83960140D01*
X115856764Y-83932072D01*
X115863160Y-83910991D01*
X115873548Y-83891555D01*
X115887524Y-83874524D01*
X115904555Y-83860548D01*
X115923991Y-83850160D01*
X115945072Y-83843764D01*
X115973140Y-83841000D01*
X116436860Y-83841000D01*
X116464928Y-83843764D01*
X116464928Y-83843764D01*
G37*
G36*
X117734928Y-83843764D02*
G01*
X117756009Y-83850160D01*
X117775445Y-83860548D01*
X117792476Y-83874524D01*
X117806452Y-83891555D01*
X117816840Y-83910991D01*
X117823236Y-83932072D01*
X117826000Y-83960140D01*
X117826000Y-85423860D01*
X117823236Y-85451928D01*
X117816840Y-85473009D01*
X117806452Y-85492445D01*
X117792476Y-85509476D01*
X117775445Y-85523452D01*
X117756009Y-85533840D01*
X117734928Y-85540236D01*
X117706860Y-85543000D01*
X117243140Y-85543000D01*
X117215072Y-85540236D01*
X117193991Y-85533840D01*
X117174555Y-85523452D01*
X117157524Y-85509476D01*
X117143548Y-85492445D01*
X117133160Y-85473009D01*
X117126764Y-85451928D01*
X117124000Y-85423860D01*
X117124000Y-83960140D01*
X117126764Y-83932072D01*
X117133160Y-83910991D01*
X117143548Y-83891555D01*
X117157524Y-83874524D01*
X117174555Y-83860548D01*
X117193991Y-83850160D01*
X117215072Y-83843764D01*
X117243140Y-83841000D01*
X117706860Y-83841000D01*
X117734928Y-83843764D01*
X117734928Y-83843764D01*
G37*
G36*
X115194928Y-83843764D02*
G01*
X115216009Y-83850160D01*
X115235445Y-83860548D01*
X115252476Y-83874524D01*
X115266452Y-83891555D01*
X115276840Y-83910991D01*
X115283236Y-83932072D01*
X115286000Y-83960140D01*
X115286000Y-85423860D01*
X115283236Y-85451928D01*
X115276840Y-85473009D01*
X115266452Y-85492445D01*
X115252476Y-85509476D01*
X115235445Y-85523452D01*
X115216009Y-85533840D01*
X115194928Y-85540236D01*
X115166860Y-85543000D01*
X114703140Y-85543000D01*
X114675072Y-85540236D01*
X114653991Y-85533840D01*
X114634555Y-85523452D01*
X114617524Y-85509476D01*
X114603548Y-85492445D01*
X114593160Y-85473009D01*
X114586764Y-85451928D01*
X114584000Y-85423860D01*
X114584000Y-83960140D01*
X114586764Y-83932072D01*
X114593160Y-83910991D01*
X114603548Y-83891555D01*
X114617524Y-83874524D01*
X114634555Y-83860548D01*
X114653991Y-83850160D01*
X114675072Y-83843764D01*
X114703140Y-83841000D01*
X115166860Y-83841000D01*
X115194928Y-83843764D01*
X115194928Y-83843764D01*
G37*
G36*
X113924928Y-83843764D02*
G01*
X113946009Y-83850160D01*
X113965445Y-83860548D01*
X113982476Y-83874524D01*
X113996452Y-83891555D01*
X114006840Y-83910991D01*
X114013236Y-83932072D01*
X114016000Y-83960140D01*
X114016000Y-85423860D01*
X114013236Y-85451928D01*
X114006840Y-85473009D01*
X113996452Y-85492445D01*
X113982476Y-85509476D01*
X113965445Y-85523452D01*
X113946009Y-85533840D01*
X113924928Y-85540236D01*
X113896860Y-85543000D01*
X113433140Y-85543000D01*
X113405072Y-85540236D01*
X113383991Y-85533840D01*
X113364555Y-85523452D01*
X113347524Y-85509476D01*
X113333548Y-85492445D01*
X113323160Y-85473009D01*
X113316764Y-85451928D01*
X113314000Y-85423860D01*
X113314000Y-83960140D01*
X113316764Y-83932072D01*
X113323160Y-83910991D01*
X113333548Y-83891555D01*
X113347524Y-83874524D01*
X113364555Y-83860548D01*
X113383991Y-83850160D01*
X113405072Y-83843764D01*
X113433140Y-83841000D01*
X113896860Y-83841000D01*
X113924928Y-83843764D01*
X113924928Y-83843764D01*
G37*
G36*
X173856142Y-82582442D02*
G01*
X174004101Y-82643729D01*
X174137255Y-82732699D01*
X174250501Y-82845945D01*
X174339471Y-82979099D01*
X174400758Y-83127058D01*
X174432000Y-83284125D01*
X174432000Y-83444275D01*
X174400758Y-83601342D01*
X174339471Y-83749301D01*
X174250501Y-83882455D01*
X174137255Y-83995701D01*
X174004101Y-84084671D01*
X173856142Y-84145958D01*
X173699075Y-84177200D01*
X173538925Y-84177200D01*
X173381858Y-84145958D01*
X173233899Y-84084671D01*
X173100745Y-83995701D01*
X172987499Y-83882455D01*
X172898529Y-83749301D01*
X172837242Y-83601342D01*
X172806000Y-83444275D01*
X172806000Y-83284125D01*
X172837242Y-83127058D01*
X172898529Y-82979099D01*
X172987499Y-82845945D01*
X173100745Y-82732699D01*
X173233899Y-82643729D01*
X173381858Y-82582442D01*
X173538925Y-82551200D01*
X173699075Y-82551200D01*
X173856142Y-82582442D01*
X173856142Y-82582442D01*
G37*
G36*
X166236142Y-82582442D02*
G01*
X166384101Y-82643729D01*
X166517255Y-82732699D01*
X166630501Y-82845945D01*
X166719471Y-82979099D01*
X166780758Y-83127058D01*
X166812000Y-83284125D01*
X166812000Y-83444275D01*
X166780758Y-83601342D01*
X166719471Y-83749301D01*
X166630501Y-83882455D01*
X166517255Y-83995701D01*
X166384101Y-84084671D01*
X166236142Y-84145958D01*
X166079075Y-84177200D01*
X165918925Y-84177200D01*
X165761858Y-84145958D01*
X165613899Y-84084671D01*
X165480745Y-83995701D01*
X165367499Y-83882455D01*
X165278529Y-83749301D01*
X165217242Y-83601342D01*
X165186000Y-83444275D01*
X165186000Y-83284125D01*
X165217242Y-83127058D01*
X165278529Y-82979099D01*
X165367499Y-82845945D01*
X165480745Y-82732699D01*
X165613899Y-82643729D01*
X165761858Y-82582442D01*
X165918925Y-82551200D01*
X166079075Y-82551200D01*
X166236142Y-82582442D01*
X166236142Y-82582442D01*
G37*
G36*
X171316142Y-82582442D02*
G01*
X171464101Y-82643729D01*
X171597255Y-82732699D01*
X171710501Y-82845945D01*
X171799471Y-82979099D01*
X171860758Y-83127058D01*
X171892000Y-83284125D01*
X171892000Y-83444275D01*
X171860758Y-83601342D01*
X171799471Y-83749301D01*
X171710501Y-83882455D01*
X171597255Y-83995701D01*
X171464101Y-84084671D01*
X171316142Y-84145958D01*
X171159075Y-84177200D01*
X170998925Y-84177200D01*
X170841858Y-84145958D01*
X170693899Y-84084671D01*
X170560745Y-83995701D01*
X170447499Y-83882455D01*
X170358529Y-83749301D01*
X170297242Y-83601342D01*
X170266000Y-83444275D01*
X170266000Y-83284125D01*
X170297242Y-83127058D01*
X170358529Y-82979099D01*
X170447499Y-82845945D01*
X170560745Y-82732699D01*
X170693899Y-82643729D01*
X170841858Y-82582442D01*
X170998925Y-82551200D01*
X171159075Y-82551200D01*
X171316142Y-82582442D01*
X171316142Y-82582442D01*
G37*
G36*
X168776142Y-82582442D02*
G01*
X168924101Y-82643729D01*
X169057255Y-82732699D01*
X169170501Y-82845945D01*
X169259471Y-82979099D01*
X169320758Y-83127058D01*
X169352000Y-83284125D01*
X169352000Y-83444275D01*
X169320758Y-83601342D01*
X169259471Y-83749301D01*
X169170501Y-83882455D01*
X169057255Y-83995701D01*
X168924101Y-84084671D01*
X168776142Y-84145958D01*
X168619075Y-84177200D01*
X168458925Y-84177200D01*
X168301858Y-84145958D01*
X168153899Y-84084671D01*
X168020745Y-83995701D01*
X167907499Y-83882455D01*
X167818529Y-83749301D01*
X167757242Y-83601342D01*
X167726000Y-83444275D01*
X167726000Y-83284125D01*
X167757242Y-83127058D01*
X167818529Y-82979099D01*
X167907499Y-82845945D01*
X168020745Y-82732699D01*
X168153899Y-82643729D01*
X168301858Y-82582442D01*
X168458925Y-82551200D01*
X168619075Y-82551200D01*
X168776142Y-82582442D01*
X168776142Y-82582442D01*
G37*
G36*
X121679562Y-82262181D02*
G01*
X121714481Y-82272774D01*
X121746663Y-82289976D01*
X121774873Y-82313127D01*
X121798024Y-82341337D01*
X121815226Y-82373519D01*
X121825819Y-82408438D01*
X121830000Y-82450895D01*
X121830000Y-83592105D01*
X121825819Y-83634562D01*
X121815226Y-83669481D01*
X121798024Y-83701663D01*
X121774873Y-83729873D01*
X121746663Y-83753024D01*
X121714481Y-83770226D01*
X121679562Y-83780819D01*
X121637105Y-83785000D01*
X120170895Y-83785000D01*
X120128438Y-83780819D01*
X120093519Y-83770226D01*
X120061337Y-83753024D01*
X120033127Y-83729873D01*
X120009976Y-83701663D01*
X119992774Y-83669481D01*
X119982181Y-83634562D01*
X119978000Y-83592105D01*
X119978000Y-82450895D01*
X119982181Y-82408438D01*
X119992774Y-82373519D01*
X120009976Y-82341337D01*
X120033127Y-82313127D01*
X120061337Y-82289976D01*
X120093519Y-82272774D01*
X120128438Y-82262181D01*
X120170895Y-82258000D01*
X121637105Y-82258000D01*
X121679562Y-82262181D01*
X121679562Y-82262181D01*
G37*
G36*
X106741000Y-83364000D02*
G01*
X105339000Y-83364000D01*
X105339000Y-82812000D01*
X106741000Y-82812000D01*
X106741000Y-83364000D01*
X106741000Y-83364000D01*
G37*
G36*
X117040285Y-80789710D02*
G01*
X117070611Y-80798909D01*
X117098557Y-80813847D01*
X117123051Y-80833949D01*
X117143153Y-80858443D01*
X117158091Y-80886389D01*
X117167290Y-80916715D01*
X117171000Y-80954386D01*
X117171000Y-83129614D01*
X117167290Y-83167285D01*
X117158091Y-83197611D01*
X117143153Y-83225557D01*
X117123051Y-83250051D01*
X117098557Y-83270153D01*
X117070611Y-83285091D01*
X117040285Y-83294290D01*
X117002614Y-83298000D01*
X114137386Y-83298000D01*
X114099715Y-83294290D01*
X114069389Y-83285091D01*
X114041443Y-83270153D01*
X114016949Y-83250051D01*
X113996847Y-83225557D01*
X113981909Y-83197611D01*
X113972710Y-83167285D01*
X113969000Y-83129614D01*
X113969000Y-80954386D01*
X113972710Y-80916715D01*
X113981909Y-80886389D01*
X113996847Y-80858443D01*
X114016949Y-80833949D01*
X114041443Y-80813847D01*
X114069389Y-80798909D01*
X114099715Y-80789710D01*
X114137386Y-80786000D01*
X117002614Y-80786000D01*
X117040285Y-80789710D01*
X117040285Y-80789710D01*
G37*
G36*
X134700674Y-81937465D02*
G01*
X134738367Y-81948899D01*
X134773103Y-81967466D01*
X134803548Y-81992452D01*
X134828534Y-82022897D01*
X134847101Y-82057633D01*
X134858535Y-82095326D01*
X134863000Y-82140661D01*
X134863000Y-82977339D01*
X134858535Y-83022674D01*
X134847101Y-83060367D01*
X134828534Y-83095103D01*
X134803548Y-83125548D01*
X134773103Y-83150534D01*
X134738367Y-83169101D01*
X134700674Y-83180535D01*
X134655339Y-83185000D01*
X133568661Y-83185000D01*
X133523326Y-83180535D01*
X133485633Y-83169101D01*
X133450897Y-83150534D01*
X133420452Y-83125548D01*
X133395466Y-83095103D01*
X133376899Y-83060367D01*
X133365465Y-83022674D01*
X133361000Y-82977339D01*
X133361000Y-82140661D01*
X133365465Y-82095326D01*
X133376899Y-82057633D01*
X133395466Y-82022897D01*
X133420452Y-81992452D01*
X133450897Y-81967466D01*
X133485633Y-81948899D01*
X133523326Y-81937465D01*
X133568661Y-81933000D01*
X134655339Y-81933000D01*
X134700674Y-81937465D01*
X134700674Y-81937465D01*
G37*
G36*
X154725000Y-82843000D02*
G01*
X153123000Y-82843000D01*
X153123000Y-81241000D01*
X154725000Y-81241000D01*
X154725000Y-82843000D01*
X154725000Y-82843000D01*
G37*
G36*
X125048674Y-81429465D02*
G01*
X125086367Y-81440899D01*
X125121103Y-81459466D01*
X125151548Y-81484452D01*
X125176534Y-81514897D01*
X125195101Y-81549633D01*
X125206535Y-81587326D01*
X125211000Y-81632661D01*
X125211000Y-82469339D01*
X125206535Y-82514674D01*
X125195101Y-82552367D01*
X125176534Y-82587103D01*
X125151548Y-82617548D01*
X125121103Y-82642534D01*
X125086367Y-82661101D01*
X125048674Y-82672535D01*
X125003339Y-82677000D01*
X123916661Y-82677000D01*
X123871326Y-82672535D01*
X123833633Y-82661101D01*
X123798897Y-82642534D01*
X123768452Y-82617548D01*
X123743466Y-82587103D01*
X123724899Y-82552367D01*
X123713465Y-82514674D01*
X123709000Y-82469339D01*
X123709000Y-81632661D01*
X123713465Y-81587326D01*
X123724899Y-81549633D01*
X123743466Y-81514897D01*
X123768452Y-81484452D01*
X123798897Y-81459466D01*
X123833633Y-81440899D01*
X123871326Y-81429465D01*
X123916661Y-81425000D01*
X125003339Y-81425000D01*
X125048674Y-81429465D01*
X125048674Y-81429465D01*
G37*
G36*
X131213000Y-82352000D02*
G01*
X129551000Y-82352000D01*
X129551000Y-81600000D01*
X131213000Y-81600000D01*
X131213000Y-82352000D01*
X131213000Y-82352000D01*
G37*
G36*
X128513000Y-82352000D02*
G01*
X126851000Y-82352000D01*
X126851000Y-79700000D01*
X128513000Y-79700000D01*
X128513000Y-82352000D01*
X128513000Y-82352000D01*
G37*
G36*
X142689562Y-80485181D02*
G01*
X142724481Y-80495774D01*
X142756663Y-80512976D01*
X142784873Y-80536127D01*
X142808024Y-80564337D01*
X142825226Y-80596519D01*
X142835819Y-80631438D01*
X142840000Y-80673895D01*
X142840000Y-82140105D01*
X142835819Y-82182562D01*
X142825226Y-82217481D01*
X142808024Y-82249663D01*
X142784873Y-82277873D01*
X142756663Y-82301024D01*
X142724481Y-82318226D01*
X142689562Y-82328819D01*
X142647105Y-82333000D01*
X141505895Y-82333000D01*
X141463438Y-82328819D01*
X141428519Y-82318226D01*
X141396337Y-82301024D01*
X141368127Y-82277873D01*
X141344976Y-82249663D01*
X141327774Y-82217481D01*
X141317181Y-82182562D01*
X141313000Y-82140105D01*
X141313000Y-80673895D01*
X141317181Y-80631438D01*
X141327774Y-80596519D01*
X141344976Y-80564337D01*
X141368127Y-80536127D01*
X141396337Y-80512976D01*
X141428519Y-80495774D01*
X141463438Y-80485181D01*
X141505895Y-80481000D01*
X142647105Y-80481000D01*
X142689562Y-80485181D01*
X142689562Y-80485181D01*
G37*
G36*
X139714562Y-80485181D02*
G01*
X139749481Y-80495774D01*
X139781663Y-80512976D01*
X139809873Y-80536127D01*
X139833024Y-80564337D01*
X139850226Y-80596519D01*
X139860819Y-80631438D01*
X139865000Y-80673895D01*
X139865000Y-82140105D01*
X139860819Y-82182562D01*
X139850226Y-82217481D01*
X139833024Y-82249663D01*
X139809873Y-82277873D01*
X139781663Y-82301024D01*
X139749481Y-82318226D01*
X139714562Y-82328819D01*
X139672105Y-82333000D01*
X138530895Y-82333000D01*
X138488438Y-82328819D01*
X138453519Y-82318226D01*
X138421337Y-82301024D01*
X138393127Y-82277873D01*
X138369976Y-82249663D01*
X138352774Y-82217481D01*
X138342181Y-82182562D01*
X138338000Y-82140105D01*
X138338000Y-80673895D01*
X138342181Y-80631438D01*
X138352774Y-80596519D01*
X138369976Y-80564337D01*
X138393127Y-80536127D01*
X138421337Y-80512976D01*
X138453519Y-80495774D01*
X138488438Y-80485181D01*
X138530895Y-80481000D01*
X139672105Y-80481000D01*
X139714562Y-80485181D01*
X139714562Y-80485181D01*
G37*
G36*
X111011562Y-80166681D02*
G01*
X111046481Y-80177274D01*
X111078663Y-80194476D01*
X111106873Y-80217627D01*
X111130024Y-80245837D01*
X111147226Y-80278019D01*
X111157819Y-80312938D01*
X111162000Y-80355395D01*
X111162000Y-81496605D01*
X111157819Y-81539062D01*
X111147226Y-81573981D01*
X111130024Y-81606163D01*
X111106873Y-81634373D01*
X111078663Y-81657524D01*
X111046481Y-81674726D01*
X111011562Y-81685319D01*
X110969105Y-81689500D01*
X109502895Y-81689500D01*
X109460438Y-81685319D01*
X109425519Y-81674726D01*
X109393337Y-81657524D01*
X109365127Y-81634373D01*
X109341976Y-81606163D01*
X109324774Y-81573981D01*
X109314181Y-81539062D01*
X109310000Y-81496605D01*
X109310000Y-80355395D01*
X109314181Y-80312938D01*
X109324774Y-80278019D01*
X109341976Y-80245837D01*
X109365127Y-80217627D01*
X109393337Y-80194476D01*
X109425519Y-80177274D01*
X109460438Y-80166681D01*
X109502895Y-80162500D01*
X110969105Y-80162500D01*
X111011562Y-80166681D01*
X111011562Y-80166681D01*
G37*
G36*
X181394000Y-81675200D02*
G01*
X179692000Y-81675200D01*
X179692000Y-79973200D01*
X181394000Y-79973200D01*
X181394000Y-81675200D01*
X181394000Y-81675200D01*
G37*
G36*
X171316142Y-80042442D02*
G01*
X171464101Y-80103729D01*
X171597255Y-80192699D01*
X171710501Y-80305945D01*
X171799471Y-80439099D01*
X171860758Y-80587058D01*
X171892000Y-80744125D01*
X171892000Y-80904275D01*
X171860758Y-81061342D01*
X171799471Y-81209301D01*
X171710501Y-81342455D01*
X171597255Y-81455701D01*
X171464101Y-81544671D01*
X171316142Y-81605958D01*
X171159075Y-81637200D01*
X170998925Y-81637200D01*
X170841858Y-81605958D01*
X170693899Y-81544671D01*
X170560745Y-81455701D01*
X170447499Y-81342455D01*
X170358529Y-81209301D01*
X170297242Y-81061342D01*
X170266000Y-80904275D01*
X170266000Y-80744125D01*
X170297242Y-80587058D01*
X170358529Y-80439099D01*
X170447499Y-80305945D01*
X170560745Y-80192699D01*
X170693899Y-80103729D01*
X170841858Y-80042442D01*
X170998925Y-80011200D01*
X171159075Y-80011200D01*
X171316142Y-80042442D01*
X171316142Y-80042442D01*
G37*
G36*
X174432000Y-81637200D02*
G01*
X172806000Y-81637200D01*
X172806000Y-80011200D01*
X174432000Y-80011200D01*
X174432000Y-81637200D01*
X174432000Y-81637200D01*
G37*
G36*
X168776142Y-80042442D02*
G01*
X168924101Y-80103729D01*
X169057255Y-80192699D01*
X169170501Y-80305945D01*
X169259471Y-80439099D01*
X169320758Y-80587058D01*
X169352000Y-80744125D01*
X169352000Y-80904275D01*
X169320758Y-81061342D01*
X169259471Y-81209301D01*
X169170501Y-81342455D01*
X169057255Y-81455701D01*
X168924101Y-81544671D01*
X168776142Y-81605958D01*
X168619075Y-81637200D01*
X168458925Y-81637200D01*
X168301858Y-81605958D01*
X168153899Y-81544671D01*
X168020745Y-81455701D01*
X167907499Y-81342455D01*
X167818529Y-81209301D01*
X167757242Y-81061342D01*
X167726000Y-80904275D01*
X167726000Y-80744125D01*
X167757242Y-80587058D01*
X167818529Y-80439099D01*
X167907499Y-80305945D01*
X168020745Y-80192699D01*
X168153899Y-80103729D01*
X168301858Y-80042442D01*
X168458925Y-80011200D01*
X168619075Y-80011200D01*
X168776142Y-80042442D01*
X168776142Y-80042442D01*
G37*
G36*
X166236142Y-80042442D02*
G01*
X166384101Y-80103729D01*
X166517255Y-80192699D01*
X166630501Y-80305945D01*
X166719471Y-80439099D01*
X166780758Y-80587058D01*
X166812000Y-80744125D01*
X166812000Y-80904275D01*
X166780758Y-81061342D01*
X166719471Y-81209301D01*
X166630501Y-81342455D01*
X166517255Y-81455701D01*
X166384101Y-81544671D01*
X166236142Y-81605958D01*
X166079075Y-81637200D01*
X165918925Y-81637200D01*
X165761858Y-81605958D01*
X165613899Y-81544671D01*
X165480745Y-81455701D01*
X165367499Y-81342455D01*
X165278529Y-81209301D01*
X165217242Y-81061342D01*
X165186000Y-80904275D01*
X165186000Y-80744125D01*
X165217242Y-80587058D01*
X165278529Y-80439099D01*
X165367499Y-80305945D01*
X165480745Y-80192699D01*
X165613899Y-80103729D01*
X165761858Y-80042442D01*
X165918925Y-80011200D01*
X166079075Y-80011200D01*
X166236142Y-80042442D01*
X166236142Y-80042442D01*
G37*
G36*
X134700674Y-79887465D02*
G01*
X134738367Y-79898899D01*
X134773103Y-79917466D01*
X134803548Y-79942452D01*
X134828534Y-79972897D01*
X134847101Y-80007633D01*
X134858535Y-80045326D01*
X134863000Y-80090661D01*
X134863000Y-80927339D01*
X134858535Y-80972674D01*
X134847101Y-81010367D01*
X134828534Y-81045103D01*
X134803548Y-81075548D01*
X134773103Y-81100534D01*
X134738367Y-81119101D01*
X134700674Y-81130535D01*
X134655339Y-81135000D01*
X133568661Y-81135000D01*
X133523326Y-81130535D01*
X133485633Y-81119101D01*
X133450897Y-81100534D01*
X133420452Y-81075548D01*
X133395466Y-81045103D01*
X133376899Y-81010367D01*
X133365465Y-80972674D01*
X133361000Y-80927339D01*
X133361000Y-80090661D01*
X133365465Y-80045326D01*
X133376899Y-80007633D01*
X133395466Y-79972897D01*
X133420452Y-79942452D01*
X133450897Y-79917466D01*
X133485633Y-79898899D01*
X133523326Y-79887465D01*
X133568661Y-79883000D01*
X134655339Y-79883000D01*
X134700674Y-79887465D01*
X134700674Y-79887465D01*
G37*
G36*
X121679562Y-79287181D02*
G01*
X121714481Y-79297774D01*
X121746663Y-79314976D01*
X121774873Y-79338127D01*
X121798024Y-79366337D01*
X121815226Y-79398519D01*
X121825819Y-79433438D01*
X121830000Y-79475895D01*
X121830000Y-80617105D01*
X121825819Y-80659562D01*
X121815226Y-80694481D01*
X121798024Y-80726663D01*
X121774873Y-80754873D01*
X121746663Y-80778024D01*
X121714481Y-80795226D01*
X121679562Y-80805819D01*
X121637105Y-80810000D01*
X120170895Y-80810000D01*
X120128438Y-80805819D01*
X120093519Y-80795226D01*
X120061337Y-80778024D01*
X120033127Y-80754873D01*
X120009976Y-80726663D01*
X119992774Y-80694481D01*
X119982181Y-80659562D01*
X119978000Y-80617105D01*
X119978000Y-79475895D01*
X119982181Y-79433438D01*
X119992774Y-79398519D01*
X120009976Y-79366337D01*
X120033127Y-79338127D01*
X120061337Y-79314976D01*
X120093519Y-79297774D01*
X120128438Y-79287181D01*
X120170895Y-79283000D01*
X121637105Y-79283000D01*
X121679562Y-79287181D01*
X121679562Y-79287181D01*
G37*
G36*
X106741000Y-80764000D02*
G01*
X105339000Y-80764000D01*
X105339000Y-80212000D01*
X106741000Y-80212000D01*
X106741000Y-80764000D01*
X106741000Y-80764000D01*
G37*
G36*
X125048674Y-79379465D02*
G01*
X125086367Y-79390899D01*
X125121103Y-79409466D01*
X125151548Y-79434452D01*
X125176534Y-79464897D01*
X125195101Y-79499633D01*
X125206535Y-79537326D01*
X125211000Y-79582661D01*
X125211000Y-80419339D01*
X125206535Y-80464674D01*
X125195101Y-80502367D01*
X125176534Y-80537103D01*
X125151548Y-80567548D01*
X125121103Y-80592534D01*
X125086367Y-80611101D01*
X125048674Y-80622535D01*
X125003339Y-80627000D01*
X123916661Y-80627000D01*
X123871326Y-80622535D01*
X123833633Y-80611101D01*
X123798897Y-80592534D01*
X123768452Y-80567548D01*
X123743466Y-80537103D01*
X123724899Y-80502367D01*
X123713465Y-80464674D01*
X123709000Y-80419339D01*
X123709000Y-79582661D01*
X123713465Y-79537326D01*
X123724899Y-79499633D01*
X123743466Y-79464897D01*
X123768452Y-79434452D01*
X123798897Y-79409466D01*
X123833633Y-79390899D01*
X123871326Y-79379465D01*
X123916661Y-79375000D01*
X125003339Y-79375000D01*
X125048674Y-79379465D01*
X125048674Y-79379465D01*
G37*
G36*
X131213000Y-80452000D02*
G01*
X129551000Y-80452000D01*
X129551000Y-79700000D01*
X131213000Y-79700000D01*
X131213000Y-80452000D01*
X131213000Y-80452000D01*
G37*
G36*
X117734928Y-78543764D02*
G01*
X117756009Y-78550160D01*
X117775445Y-78560548D01*
X117792476Y-78574524D01*
X117806452Y-78591555D01*
X117816840Y-78610991D01*
X117823236Y-78632072D01*
X117826000Y-78660140D01*
X117826000Y-80123860D01*
X117823236Y-80151928D01*
X117816840Y-80173009D01*
X117806452Y-80192445D01*
X117792476Y-80209476D01*
X117775445Y-80223452D01*
X117756009Y-80233840D01*
X117734928Y-80240236D01*
X117706860Y-80243000D01*
X117243140Y-80243000D01*
X117215072Y-80240236D01*
X117193991Y-80233840D01*
X117174555Y-80223452D01*
X117157524Y-80209476D01*
X117143548Y-80192445D01*
X117133160Y-80173009D01*
X117126764Y-80151928D01*
X117124000Y-80123860D01*
X117124000Y-78660140D01*
X117126764Y-78632072D01*
X117133160Y-78610991D01*
X117143548Y-78591555D01*
X117157524Y-78574524D01*
X117174555Y-78560548D01*
X117193991Y-78550160D01*
X117215072Y-78543764D01*
X117243140Y-78541000D01*
X117706860Y-78541000D01*
X117734928Y-78543764D01*
X117734928Y-78543764D01*
G37*
G36*
X115194928Y-78543764D02*
G01*
X115216009Y-78550160D01*
X115235445Y-78560548D01*
X115252476Y-78574524D01*
X115266452Y-78591555D01*
X115276840Y-78610991D01*
X115283236Y-78632072D01*
X115286000Y-78660140D01*
X115286000Y-80123860D01*
X115283236Y-80151928D01*
X115276840Y-80173009D01*
X115266452Y-80192445D01*
X115252476Y-80209476D01*
X115235445Y-80223452D01*
X115216009Y-80233840D01*
X115194928Y-80240236D01*
X115166860Y-80243000D01*
X114703140Y-80243000D01*
X114675072Y-80240236D01*
X114653991Y-80233840D01*
X114634555Y-80223452D01*
X114617524Y-80209476D01*
X114603548Y-80192445D01*
X114593160Y-80173009D01*
X114586764Y-80151928D01*
X114584000Y-80123860D01*
X114584000Y-78660140D01*
X114586764Y-78632072D01*
X114593160Y-78610991D01*
X114603548Y-78591555D01*
X114617524Y-78574524D01*
X114634555Y-78560548D01*
X114653991Y-78550160D01*
X114675072Y-78543764D01*
X114703140Y-78541000D01*
X115166860Y-78541000D01*
X115194928Y-78543764D01*
X115194928Y-78543764D01*
G37*
G36*
X116464928Y-78543764D02*
G01*
X116486009Y-78550160D01*
X116505445Y-78560548D01*
X116522476Y-78574524D01*
X116536452Y-78591555D01*
X116546840Y-78610991D01*
X116553236Y-78632072D01*
X116556000Y-78660140D01*
X116556000Y-80123860D01*
X116553236Y-80151928D01*
X116546840Y-80173009D01*
X116536452Y-80192445D01*
X116522476Y-80209476D01*
X116505445Y-80223452D01*
X116486009Y-80233840D01*
X116464928Y-80240236D01*
X116436860Y-80243000D01*
X115973140Y-80243000D01*
X115945072Y-80240236D01*
X115923991Y-80233840D01*
X115904555Y-80223452D01*
X115887524Y-80209476D01*
X115873548Y-80192445D01*
X115863160Y-80173009D01*
X115856764Y-80151928D01*
X115854000Y-80123860D01*
X115854000Y-78660140D01*
X115856764Y-78632072D01*
X115863160Y-78610991D01*
X115873548Y-78591555D01*
X115887524Y-78574524D01*
X115904555Y-78560548D01*
X115923991Y-78550160D01*
X115945072Y-78543764D01*
X115973140Y-78541000D01*
X116436860Y-78541000D01*
X116464928Y-78543764D01*
X116464928Y-78543764D01*
G37*
G36*
X113924928Y-78543764D02*
G01*
X113946009Y-78550160D01*
X113965445Y-78560548D01*
X113982476Y-78574524D01*
X113996452Y-78591555D01*
X114006840Y-78610991D01*
X114013236Y-78632072D01*
X114016000Y-78660140D01*
X114016000Y-80123860D01*
X114013236Y-80151928D01*
X114006840Y-80173009D01*
X113996452Y-80192445D01*
X113982476Y-80209476D01*
X113965445Y-80223452D01*
X113946009Y-80233840D01*
X113924928Y-80240236D01*
X113896860Y-80243000D01*
X113433140Y-80243000D01*
X113405072Y-80240236D01*
X113383991Y-80233840D01*
X113364555Y-80223452D01*
X113347524Y-80209476D01*
X113333548Y-80192445D01*
X113323160Y-80173009D01*
X113316764Y-80151928D01*
X113314000Y-80123860D01*
X113314000Y-78660140D01*
X113316764Y-78632072D01*
X113323160Y-78610991D01*
X113333548Y-78591555D01*
X113347524Y-78574524D01*
X113364555Y-78560548D01*
X113383991Y-78550160D01*
X113405072Y-78543764D01*
X113433140Y-78541000D01*
X113896860Y-78541000D01*
X113924928Y-78543764D01*
X113924928Y-78543764D01*
G37*
G36*
X106417121Y-77298228D02*
G01*
X106563402Y-77342602D01*
X106698204Y-77414655D01*
X106698207Y-77414657D01*
X106698208Y-77414658D01*
X106816369Y-77511631D01*
X106893540Y-77605663D01*
X106913345Y-77629796D01*
X106985398Y-77764598D01*
X107029772Y-77910879D01*
X107044754Y-78063000D01*
X107029772Y-78215121D01*
X106985398Y-78361402D01*
X106913345Y-78496204D01*
X106913343Y-78496207D01*
X106913342Y-78496208D01*
X106816369Y-78614369D01*
X106699455Y-78710319D01*
X106698204Y-78711345D01*
X106563402Y-78783398D01*
X106417121Y-78827772D01*
X106303118Y-78839000D01*
X105676882Y-78839000D01*
X105562879Y-78827772D01*
X105409210Y-78781157D01*
X105400751Y-78777654D01*
X105376717Y-78772876D01*
X105352213Y-78772878D01*
X105328180Y-78777661D01*
X105305542Y-78787041D01*
X105285169Y-78800656D01*
X105267844Y-78817985D01*
X105254232Y-78838361D01*
X105244857Y-78861000D01*
X105240079Y-78885034D01*
X105240081Y-78909538D01*
X105244864Y-78933571D01*
X105254244Y-78956209D01*
X105267851Y-78976572D01*
X105316807Y-79036225D01*
X105358686Y-79114574D01*
X105384475Y-79199590D01*
X105393182Y-79288000D01*
X105384475Y-79376410D01*
X105358686Y-79461426D01*
X105316807Y-79539775D01*
X105260449Y-79608449D01*
X105191775Y-79664807D01*
X105113426Y-79706686D01*
X105028410Y-79732475D01*
X104962158Y-79739000D01*
X104917842Y-79739000D01*
X104851590Y-79732475D01*
X104766574Y-79706686D01*
X104688225Y-79664807D01*
X104619551Y-79608449D01*
X104563193Y-79539775D01*
X104521314Y-79461426D01*
X104495525Y-79376410D01*
X104486818Y-79288000D01*
X104495525Y-79199590D01*
X104521314Y-79114574D01*
X104563193Y-79036225D01*
X104619551Y-78967551D01*
X104688225Y-78911193D01*
X104766574Y-78869314D01*
X104851590Y-78843525D01*
X104917842Y-78837000D01*
X104962158Y-78837000D01*
X105028412Y-78843525D01*
X105084523Y-78860546D01*
X105108556Y-78865326D01*
X105133060Y-78865326D01*
X105157093Y-78860545D01*
X105179732Y-78851168D01*
X105200106Y-78837554D01*
X105217433Y-78820227D01*
X105231047Y-78799852D01*
X105240424Y-78777213D01*
X105245204Y-78753180D01*
X105245204Y-78728676D01*
X105240423Y-78704643D01*
X105231046Y-78682004D01*
X105217432Y-78661630D01*
X105200105Y-78644303D01*
X105163633Y-78614371D01*
X105151003Y-78598981D01*
X105066658Y-78496208D01*
X105066657Y-78496207D01*
X105066655Y-78496204D01*
X104994602Y-78361402D01*
X104950228Y-78215121D01*
X104935246Y-78063000D01*
X104950228Y-77910879D01*
X104994602Y-77764598D01*
X105066655Y-77629796D01*
X105086461Y-77605663D01*
X105163631Y-77511631D01*
X105281792Y-77414658D01*
X105281793Y-77414657D01*
X105281796Y-77414655D01*
X105416598Y-77342602D01*
X105562879Y-77298228D01*
X105676882Y-77287000D01*
X106303118Y-77287000D01*
X106417121Y-77298228D01*
X106417121Y-77298228D01*
G37*
G36*
X180791228Y-77505903D02*
G01*
X180946100Y-77570053D01*
X181085481Y-77663185D01*
X181204015Y-77781719D01*
X181297147Y-77921100D01*
X181361297Y-78075972D01*
X181394000Y-78240384D01*
X181394000Y-78408016D01*
X181361297Y-78572428D01*
X181297147Y-78727300D01*
X181204015Y-78866681D01*
X181085481Y-78985215D01*
X180946100Y-79078347D01*
X180791228Y-79142497D01*
X180626816Y-79175200D01*
X180459184Y-79175200D01*
X180294772Y-79142497D01*
X180139900Y-79078347D01*
X180000519Y-78985215D01*
X179881985Y-78866681D01*
X179788853Y-78727300D01*
X179724703Y-78572428D01*
X179692000Y-78408016D01*
X179692000Y-78240384D01*
X179724703Y-78075972D01*
X179788853Y-77921100D01*
X179881985Y-77781719D01*
X180000519Y-77663185D01*
X180139900Y-77570053D01*
X180294772Y-77505903D01*
X180459184Y-77473200D01*
X180626816Y-77473200D01*
X180791228Y-77505903D01*
X180791228Y-77505903D01*
G37*
G36*
X111011562Y-77191681D02*
G01*
X111046481Y-77202274D01*
X111078663Y-77219476D01*
X111106873Y-77242627D01*
X111130024Y-77270837D01*
X111147226Y-77303019D01*
X111157819Y-77337938D01*
X111162000Y-77380395D01*
X111162000Y-78521605D01*
X111157819Y-78564062D01*
X111147226Y-78598981D01*
X111130024Y-78631163D01*
X111106873Y-78659373D01*
X111078663Y-78682524D01*
X111046481Y-78699726D01*
X111011562Y-78710319D01*
X110969105Y-78714500D01*
X109502895Y-78714500D01*
X109460438Y-78710319D01*
X109425519Y-78699726D01*
X109393337Y-78682524D01*
X109365127Y-78659373D01*
X109341976Y-78631163D01*
X109324774Y-78598981D01*
X109314181Y-78564062D01*
X109310000Y-78521605D01*
X109310000Y-77380395D01*
X109314181Y-77337938D01*
X109324774Y-77303019D01*
X109341976Y-77270837D01*
X109365127Y-77242627D01*
X109393337Y-77219476D01*
X109425519Y-77202274D01*
X109460438Y-77191681D01*
X109502895Y-77187500D01*
X110969105Y-77187500D01*
X111011562Y-77191681D01*
X111011562Y-77191681D01*
G37*
G36*
X161049562Y-77182181D02*
G01*
X161084481Y-77192774D01*
X161116663Y-77209976D01*
X161144873Y-77233127D01*
X161168024Y-77261337D01*
X161185226Y-77293519D01*
X161195819Y-77328438D01*
X161200000Y-77370895D01*
X161200000Y-78512105D01*
X161195819Y-78554562D01*
X161185226Y-78589481D01*
X161168024Y-78621663D01*
X161144873Y-78649873D01*
X161116663Y-78673024D01*
X161084481Y-78690226D01*
X161049562Y-78700819D01*
X161007105Y-78705000D01*
X159540895Y-78705000D01*
X159498438Y-78700819D01*
X159463519Y-78690226D01*
X159431337Y-78673024D01*
X159403127Y-78649873D01*
X159379976Y-78621663D01*
X159362774Y-78589481D01*
X159352181Y-78554562D01*
X159348000Y-78512105D01*
X159348000Y-77370895D01*
X159352181Y-77328438D01*
X159362774Y-77293519D01*
X159379976Y-77261337D01*
X159403127Y-77233127D01*
X159431337Y-77209976D01*
X159463519Y-77192774D01*
X159498438Y-77182181D01*
X159540895Y-77178000D01*
X161007105Y-77178000D01*
X161049562Y-77182181D01*
X161049562Y-77182181D01*
G37*
G36*
X102637715Y-77296058D02*
G01*
X102755722Y-77331855D01*
X102864468Y-77389981D01*
X102959790Y-77468210D01*
X103038019Y-77563532D01*
X103096145Y-77672278D01*
X103131942Y-77790285D01*
X103144028Y-77913000D01*
X103131942Y-78035715D01*
X103096145Y-78153722D01*
X103038019Y-78262468D01*
X102959790Y-78357790D01*
X102864468Y-78436019D01*
X102755722Y-78494145D01*
X102755719Y-78494146D01*
X102748921Y-78496208D01*
X102637715Y-78529942D01*
X102545746Y-78539000D01*
X101834254Y-78539000D01*
X101742285Y-78529942D01*
X101631079Y-78496208D01*
X101624281Y-78494146D01*
X101624278Y-78494145D01*
X101515532Y-78436019D01*
X101420210Y-78357790D01*
X101341981Y-78262468D01*
X101283855Y-78153722D01*
X101248058Y-78035715D01*
X101235972Y-77913000D01*
X101248058Y-77790285D01*
X101283855Y-77672278D01*
X101341981Y-77563532D01*
X101420210Y-77468210D01*
X101515532Y-77389981D01*
X101624278Y-77331855D01*
X101742285Y-77296058D01*
X101834254Y-77287000D01*
X102545746Y-77287000D01*
X102637715Y-77296058D01*
X102637715Y-77296058D01*
G37*
G36*
X139459562Y-76166181D02*
G01*
X139494481Y-76176774D01*
X139526663Y-76193976D01*
X139554873Y-76217127D01*
X139578024Y-76245337D01*
X139595226Y-76277519D01*
X139605819Y-76312438D01*
X139610000Y-76354895D01*
X139610000Y-77496105D01*
X139605819Y-77538562D01*
X139595226Y-77573481D01*
X139578024Y-77605663D01*
X139554873Y-77633873D01*
X139526663Y-77657024D01*
X139494481Y-77674226D01*
X139459562Y-77684819D01*
X139417105Y-77689000D01*
X137950895Y-77689000D01*
X137908438Y-77684819D01*
X137873519Y-77674226D01*
X137841337Y-77657024D01*
X137813127Y-77633873D01*
X137789976Y-77605663D01*
X137772774Y-77573481D01*
X137762181Y-77538562D01*
X137758000Y-77496105D01*
X137758000Y-76354895D01*
X137762181Y-76312438D01*
X137772774Y-76277519D01*
X137789976Y-76245337D01*
X137813127Y-76217127D01*
X137841337Y-76193976D01*
X137873519Y-76176774D01*
X137908438Y-76166181D01*
X137950895Y-76162000D01*
X139417105Y-76162000D01*
X139459562Y-76166181D01*
X139459562Y-76166181D01*
G37*
G36*
X118631562Y-74959681D02*
G01*
X118666481Y-74970274D01*
X118698663Y-74987476D01*
X118726873Y-75010627D01*
X118750024Y-75038837D01*
X118767226Y-75071019D01*
X118777819Y-75105938D01*
X118782000Y-75148395D01*
X118782000Y-76289605D01*
X118777819Y-76332062D01*
X118767226Y-76366981D01*
X118750024Y-76399163D01*
X118726873Y-76427373D01*
X118698663Y-76450524D01*
X118666481Y-76467726D01*
X118631562Y-76478319D01*
X118589105Y-76482500D01*
X117122895Y-76482500D01*
X117080438Y-76478319D01*
X117045519Y-76467726D01*
X117013337Y-76450524D01*
X116985127Y-76427373D01*
X116961976Y-76399163D01*
X116944774Y-76366981D01*
X116934181Y-76332062D01*
X116930000Y-76289605D01*
X116930000Y-75148395D01*
X116934181Y-75105938D01*
X116944774Y-75071019D01*
X116961976Y-75038837D01*
X116985127Y-75010627D01*
X117013337Y-74987476D01*
X117045519Y-74970274D01*
X117080438Y-74959681D01*
X117122895Y-74955500D01*
X118589105Y-74955500D01*
X118631562Y-74959681D01*
X118631562Y-74959681D01*
G37*
G36*
X114821562Y-74959681D02*
G01*
X114856481Y-74970274D01*
X114888663Y-74987476D01*
X114916873Y-75010627D01*
X114940024Y-75038837D01*
X114957226Y-75071019D01*
X114967819Y-75105938D01*
X114972000Y-75148395D01*
X114972000Y-76289605D01*
X114967819Y-76332062D01*
X114957226Y-76366981D01*
X114940024Y-76399163D01*
X114916873Y-76427373D01*
X114888663Y-76450524D01*
X114856481Y-76467726D01*
X114821562Y-76478319D01*
X114779105Y-76482500D01*
X113312895Y-76482500D01*
X113270438Y-76478319D01*
X113235519Y-76467726D01*
X113203337Y-76450524D01*
X113175127Y-76427373D01*
X113151976Y-76399163D01*
X113134774Y-76366981D01*
X113124181Y-76332062D01*
X113120000Y-76289605D01*
X113120000Y-75148395D01*
X113124181Y-75105938D01*
X113134774Y-75071019D01*
X113151976Y-75038837D01*
X113175127Y-75010627D01*
X113203337Y-74987476D01*
X113235519Y-74970274D01*
X113270438Y-74959681D01*
X113312895Y-74955500D01*
X114779105Y-74955500D01*
X114821562Y-74959681D01*
X114821562Y-74959681D01*
G37*
G36*
X133568674Y-74691465D02*
G01*
X133606367Y-74702899D01*
X133641103Y-74721466D01*
X133671548Y-74746452D01*
X133696534Y-74776897D01*
X133715101Y-74811633D01*
X133726535Y-74849326D01*
X133731000Y-74894661D01*
X133731000Y-75981339D01*
X133726535Y-76026674D01*
X133715101Y-76064367D01*
X133696534Y-76099103D01*
X133671548Y-76129548D01*
X133641103Y-76154534D01*
X133606367Y-76173101D01*
X133568674Y-76184535D01*
X133523339Y-76189000D01*
X132686661Y-76189000D01*
X132641326Y-76184535D01*
X132603633Y-76173101D01*
X132568897Y-76154534D01*
X132538452Y-76129548D01*
X132513466Y-76099103D01*
X132494899Y-76064367D01*
X132483465Y-76026674D01*
X132479000Y-75981339D01*
X132479000Y-74894661D01*
X132483465Y-74849326D01*
X132494899Y-74811633D01*
X132513466Y-74776897D01*
X132538452Y-74746452D01*
X132568897Y-74721466D01*
X132603633Y-74702899D01*
X132641326Y-74691465D01*
X132686661Y-74687000D01*
X133523339Y-74687000D01*
X133568674Y-74691465D01*
X133568674Y-74691465D01*
G37*
G36*
X131518674Y-74691465D02*
G01*
X131556367Y-74702899D01*
X131591103Y-74721466D01*
X131621548Y-74746452D01*
X131646534Y-74776897D01*
X131665101Y-74811633D01*
X131676535Y-74849326D01*
X131681000Y-74894661D01*
X131681000Y-75981339D01*
X131676535Y-76026674D01*
X131665101Y-76064367D01*
X131646534Y-76099103D01*
X131621548Y-76129548D01*
X131591103Y-76154534D01*
X131556367Y-76173101D01*
X131518674Y-76184535D01*
X131473339Y-76189000D01*
X130636661Y-76189000D01*
X130591326Y-76184535D01*
X130553633Y-76173101D01*
X130518897Y-76154534D01*
X130488452Y-76129548D01*
X130463466Y-76099103D01*
X130444899Y-76064367D01*
X130433465Y-76026674D01*
X130429000Y-75981339D01*
X130429000Y-74894661D01*
X130433465Y-74849326D01*
X130444899Y-74811633D01*
X130463466Y-74776897D01*
X130488452Y-74746452D01*
X130518897Y-74721466D01*
X130553633Y-74702899D01*
X130591326Y-74691465D01*
X130636661Y-74687000D01*
X131473339Y-74687000D01*
X131518674Y-74691465D01*
X131518674Y-74691465D01*
G37*
G36*
X126560562Y-74262181D02*
G01*
X126595481Y-74272774D01*
X126627663Y-74289976D01*
X126655873Y-74313127D01*
X126679024Y-74341337D01*
X126696226Y-74373519D01*
X126706819Y-74408438D01*
X126711000Y-74450895D01*
X126711000Y-75917105D01*
X126706819Y-75959562D01*
X126696226Y-75994481D01*
X126679024Y-76026663D01*
X126655873Y-76054873D01*
X126627663Y-76078024D01*
X126595481Y-76095226D01*
X126560562Y-76105819D01*
X126518105Y-76110000D01*
X125376895Y-76110000D01*
X125334438Y-76105819D01*
X125299519Y-76095226D01*
X125267337Y-76078024D01*
X125239127Y-76054873D01*
X125215976Y-76026663D01*
X125198774Y-75994481D01*
X125188181Y-75959562D01*
X125184000Y-75917105D01*
X125184000Y-74450895D01*
X125188181Y-74408438D01*
X125198774Y-74373519D01*
X125215976Y-74341337D01*
X125239127Y-74313127D01*
X125267337Y-74289976D01*
X125299519Y-74272774D01*
X125334438Y-74262181D01*
X125376895Y-74258000D01*
X126518105Y-74258000D01*
X126560562Y-74262181D01*
X126560562Y-74262181D01*
G37*
G36*
X123585562Y-74262181D02*
G01*
X123620481Y-74272774D01*
X123652663Y-74289976D01*
X123680873Y-74313127D01*
X123704024Y-74341337D01*
X123721226Y-74373519D01*
X123731819Y-74408438D01*
X123736000Y-74450895D01*
X123736000Y-75917105D01*
X123731819Y-75959562D01*
X123721226Y-75994481D01*
X123704024Y-76026663D01*
X123680873Y-76054873D01*
X123652663Y-76078024D01*
X123620481Y-76095226D01*
X123585562Y-76105819D01*
X123543105Y-76110000D01*
X122401895Y-76110000D01*
X122359438Y-76105819D01*
X122324519Y-76095226D01*
X122292337Y-76078024D01*
X122264127Y-76054873D01*
X122240976Y-76026663D01*
X122223774Y-75994481D01*
X122213181Y-75959562D01*
X122209000Y-75917105D01*
X122209000Y-74450895D01*
X122213181Y-74408438D01*
X122223774Y-74373519D01*
X122240976Y-74341337D01*
X122264127Y-74313127D01*
X122292337Y-74289976D01*
X122324519Y-74272774D01*
X122359438Y-74262181D01*
X122401895Y-74258000D01*
X123543105Y-74258000D01*
X123585562Y-74262181D01*
X123585562Y-74262181D01*
G37*
G36*
X161049562Y-74207181D02*
G01*
X161084481Y-74217774D01*
X161116663Y-74234976D01*
X161144873Y-74258127D01*
X161168024Y-74286337D01*
X161185226Y-74318519D01*
X161195819Y-74353438D01*
X161200000Y-74395895D01*
X161200000Y-75537105D01*
X161195819Y-75579562D01*
X161185226Y-75614481D01*
X161168024Y-75646663D01*
X161144873Y-75674873D01*
X161116663Y-75698024D01*
X161084481Y-75715226D01*
X161049562Y-75725819D01*
X161007105Y-75730000D01*
X159540895Y-75730000D01*
X159498438Y-75725819D01*
X159463519Y-75715226D01*
X159431337Y-75698024D01*
X159403127Y-75674873D01*
X159379976Y-75646663D01*
X159362774Y-75614481D01*
X159352181Y-75579562D01*
X159348000Y-75537105D01*
X159348000Y-74395895D01*
X159352181Y-74353438D01*
X159362774Y-74318519D01*
X159379976Y-74286337D01*
X159403127Y-74258127D01*
X159431337Y-74234976D01*
X159463519Y-74217774D01*
X159498438Y-74207181D01*
X159540895Y-74203000D01*
X161007105Y-74203000D01*
X161049562Y-74207181D01*
X161049562Y-74207181D01*
G37*
G36*
X154002571Y-73624863D02*
G01*
X154081023Y-73632590D01*
X154181682Y-73663125D01*
X154232013Y-73678392D01*
X154371165Y-73752771D01*
X154493133Y-73852867D01*
X154593229Y-73974835D01*
X154667608Y-74113987D01*
X154667608Y-74113988D01*
X154713410Y-74264977D01*
X154728875Y-74422000D01*
X154713410Y-74579023D01*
X154707507Y-74598481D01*
X154667608Y-74730013D01*
X154593229Y-74869165D01*
X154493133Y-74991133D01*
X154371165Y-75091229D01*
X154232013Y-75165608D01*
X154181682Y-75180875D01*
X154081023Y-75211410D01*
X154002571Y-75219137D01*
X153963346Y-75223000D01*
X153884654Y-75223000D01*
X153845429Y-75219137D01*
X153766977Y-75211410D01*
X153666318Y-75180875D01*
X153615987Y-75165608D01*
X153476835Y-75091229D01*
X153354867Y-74991133D01*
X153254771Y-74869165D01*
X153180392Y-74730013D01*
X153140493Y-74598481D01*
X153134590Y-74579023D01*
X153119125Y-74422000D01*
X153134590Y-74264977D01*
X153180392Y-74113988D01*
X153180392Y-74113987D01*
X153254771Y-73974835D01*
X153354867Y-73852867D01*
X153476835Y-73752771D01*
X153615987Y-73678392D01*
X153666318Y-73663125D01*
X153766977Y-73632590D01*
X153845429Y-73624863D01*
X153884654Y-73621000D01*
X153963346Y-73621000D01*
X154002571Y-73624863D01*
X154002571Y-73624863D01*
G37*
G36*
X106757562Y-72415181D02*
G01*
X106792481Y-72425774D01*
X106824663Y-72442976D01*
X106852873Y-72466127D01*
X106876024Y-72494337D01*
X106893226Y-72526519D01*
X106903819Y-72561438D01*
X106908000Y-72603895D01*
X106908000Y-74970105D01*
X106903819Y-75012562D01*
X106893226Y-75047481D01*
X106876024Y-75079663D01*
X106852873Y-75107873D01*
X106824663Y-75131024D01*
X106792481Y-75148226D01*
X106757562Y-75158819D01*
X106715105Y-75163000D01*
X105573895Y-75163000D01*
X105531438Y-75158819D01*
X105496519Y-75148226D01*
X105464337Y-75131024D01*
X105436127Y-75107873D01*
X105412976Y-75079663D01*
X105395774Y-75047481D01*
X105385181Y-75012562D01*
X105381000Y-74970105D01*
X105381000Y-72603895D01*
X105385181Y-72561438D01*
X105395774Y-72526519D01*
X105412976Y-72494337D01*
X105436127Y-72466127D01*
X105464337Y-72442976D01*
X105496519Y-72425774D01*
X105531438Y-72415181D01*
X105573895Y-72411000D01*
X106715105Y-72411000D01*
X106757562Y-72415181D01*
X106757562Y-72415181D01*
G37*
G36*
X109732562Y-72415181D02*
G01*
X109767481Y-72425774D01*
X109799663Y-72442976D01*
X109827873Y-72466127D01*
X109851024Y-72494337D01*
X109868226Y-72526519D01*
X109878819Y-72561438D01*
X109883000Y-72603895D01*
X109883000Y-74970105D01*
X109878819Y-75012562D01*
X109868226Y-75047481D01*
X109851024Y-75079663D01*
X109827873Y-75107873D01*
X109799663Y-75131024D01*
X109767481Y-75148226D01*
X109732562Y-75158819D01*
X109690105Y-75163000D01*
X108548895Y-75163000D01*
X108506438Y-75158819D01*
X108471519Y-75148226D01*
X108439337Y-75131024D01*
X108411127Y-75107873D01*
X108387976Y-75079663D01*
X108370774Y-75047481D01*
X108360181Y-75012562D01*
X108356000Y-74970105D01*
X108356000Y-72603895D01*
X108360181Y-72561438D01*
X108370774Y-72526519D01*
X108387976Y-72494337D01*
X108411127Y-72466127D01*
X108439337Y-72442976D01*
X108471519Y-72425774D01*
X108506438Y-72415181D01*
X108548895Y-72411000D01*
X109690105Y-72411000D01*
X109732562Y-72415181D01*
X109732562Y-72415181D01*
G37*
G36*
X139459562Y-73191181D02*
G01*
X139494481Y-73201774D01*
X139526663Y-73218976D01*
X139554873Y-73242127D01*
X139578024Y-73270337D01*
X139595226Y-73302519D01*
X139605819Y-73337438D01*
X139610000Y-73379895D01*
X139610000Y-74521105D01*
X139605819Y-74563562D01*
X139595226Y-74598481D01*
X139578024Y-74630663D01*
X139554873Y-74658873D01*
X139526663Y-74682024D01*
X139494481Y-74699226D01*
X139459562Y-74709819D01*
X139417105Y-74714000D01*
X137950895Y-74714000D01*
X137908438Y-74709819D01*
X137873519Y-74699226D01*
X137841337Y-74682024D01*
X137813127Y-74658873D01*
X137789976Y-74630663D01*
X137772774Y-74598481D01*
X137762181Y-74563562D01*
X137758000Y-74521105D01*
X137758000Y-73379895D01*
X137762181Y-73337438D01*
X137772774Y-73302519D01*
X137789976Y-73270337D01*
X137813127Y-73242127D01*
X137841337Y-73218976D01*
X137873519Y-73201774D01*
X137908438Y-73191181D01*
X137950895Y-73187000D01*
X139417105Y-73187000D01*
X139459562Y-73191181D01*
X139459562Y-73191181D01*
G37*
G36*
X118631562Y-71984681D02*
G01*
X118666481Y-71995274D01*
X118698663Y-72012476D01*
X118726873Y-72035627D01*
X118750024Y-72063837D01*
X118767226Y-72096019D01*
X118777819Y-72130938D01*
X118782000Y-72173395D01*
X118782000Y-73314605D01*
X118777819Y-73357062D01*
X118767226Y-73391981D01*
X118750024Y-73424163D01*
X118726873Y-73452373D01*
X118698663Y-73475524D01*
X118666481Y-73492726D01*
X118631562Y-73503319D01*
X118589105Y-73507500D01*
X117122895Y-73507500D01*
X117080438Y-73503319D01*
X117045519Y-73492726D01*
X117013337Y-73475524D01*
X116985127Y-73452373D01*
X116961976Y-73424163D01*
X116944774Y-73391981D01*
X116934181Y-73357062D01*
X116930000Y-73314605D01*
X116930000Y-72173395D01*
X116934181Y-72130938D01*
X116944774Y-72096019D01*
X116961976Y-72063837D01*
X116985127Y-72035627D01*
X117013337Y-72012476D01*
X117045519Y-71995274D01*
X117080438Y-71984681D01*
X117122895Y-71980500D01*
X118589105Y-71980500D01*
X118631562Y-71984681D01*
X118631562Y-71984681D01*
G37*
G36*
X114821562Y-71984681D02*
G01*
X114856481Y-71995274D01*
X114888663Y-72012476D01*
X114916873Y-72035627D01*
X114940024Y-72063837D01*
X114957226Y-72096019D01*
X114967819Y-72130938D01*
X114972000Y-72173395D01*
X114972000Y-73314605D01*
X114967819Y-73357062D01*
X114957226Y-73391981D01*
X114940024Y-73424163D01*
X114916873Y-73452373D01*
X114888663Y-73475524D01*
X114856481Y-73492726D01*
X114821562Y-73503319D01*
X114779105Y-73507500D01*
X113312895Y-73507500D01*
X113270438Y-73503319D01*
X113235519Y-73492726D01*
X113203337Y-73475524D01*
X113175127Y-73452373D01*
X113151976Y-73424163D01*
X113134774Y-73391981D01*
X113124181Y-73357062D01*
X113120000Y-73314605D01*
X113120000Y-72173395D01*
X113124181Y-72130938D01*
X113134774Y-72096019D01*
X113151976Y-72063837D01*
X113175127Y-72035627D01*
X113203337Y-72012476D01*
X113235519Y-71995274D01*
X113270438Y-71984681D01*
X113312895Y-71980500D01*
X114779105Y-71980500D01*
X114821562Y-71984681D01*
X114821562Y-71984681D01*
G37*
G36*
X172594294Y-71032833D02*
G01*
X172766695Y-71085131D01*
X172925583Y-71170058D01*
X173064849Y-71284351D01*
X173179142Y-71423617D01*
X173264069Y-71582505D01*
X173316367Y-71754906D01*
X173334025Y-71934200D01*
X173316367Y-72113494D01*
X173264069Y-72285895D01*
X173179142Y-72444783D01*
X173064849Y-72584049D01*
X172925583Y-72698342D01*
X172766695Y-72783269D01*
X172594294Y-72835567D01*
X172459931Y-72848800D01*
X172370069Y-72848800D01*
X172235706Y-72835567D01*
X172063305Y-72783269D01*
X171904417Y-72698342D01*
X171765151Y-72584049D01*
X171650858Y-72444783D01*
X171565931Y-72285895D01*
X171513633Y-72113494D01*
X171495975Y-71934200D01*
X171513633Y-71754906D01*
X171565931Y-71582505D01*
X171650858Y-71423617D01*
X171765151Y-71284351D01*
X171904417Y-71170058D01*
X172063305Y-71085131D01*
X172235706Y-71032833D01*
X172370069Y-71019600D01*
X172459931Y-71019600D01*
X172594294Y-71032833D01*
X172594294Y-71032833D01*
G37*
G36*
X170054294Y-71032833D02*
G01*
X170226695Y-71085131D01*
X170385583Y-71170058D01*
X170524849Y-71284351D01*
X170639142Y-71423617D01*
X170724069Y-71582505D01*
X170776367Y-71754906D01*
X170794025Y-71934200D01*
X170776367Y-72113494D01*
X170724069Y-72285895D01*
X170639142Y-72444783D01*
X170524849Y-72584049D01*
X170385583Y-72698342D01*
X170226695Y-72783269D01*
X170054294Y-72835567D01*
X169919931Y-72848800D01*
X169830069Y-72848800D01*
X169695706Y-72835567D01*
X169523305Y-72783269D01*
X169364417Y-72698342D01*
X169225151Y-72584049D01*
X169110858Y-72444783D01*
X169025931Y-72285895D01*
X168973633Y-72113494D01*
X168955975Y-71934200D01*
X168973633Y-71754906D01*
X169025931Y-71582505D01*
X169110858Y-71423617D01*
X169225151Y-71284351D01*
X169364417Y-71170058D01*
X169523305Y-71085131D01*
X169695706Y-71032833D01*
X169830069Y-71019600D01*
X169919931Y-71019600D01*
X170054294Y-71032833D01*
X170054294Y-71032833D01*
G37*
G36*
X168249600Y-72848800D02*
G01*
X166420400Y-72848800D01*
X166420400Y-71019600D01*
X168249600Y-71019600D01*
X168249600Y-72848800D01*
X168249600Y-72848800D01*
G37*
G36*
X158188674Y-70881465D02*
G01*
X158226367Y-70892899D01*
X158261103Y-70911466D01*
X158291548Y-70936452D01*
X158316534Y-70966897D01*
X158335101Y-71001633D01*
X158346535Y-71039326D01*
X158351000Y-71084661D01*
X158351000Y-72171339D01*
X158346535Y-72216674D01*
X158335101Y-72254367D01*
X158316534Y-72289103D01*
X158291548Y-72319548D01*
X158261103Y-72344534D01*
X158226367Y-72363101D01*
X158188674Y-72374535D01*
X158143339Y-72379000D01*
X157306661Y-72379000D01*
X157261326Y-72374535D01*
X157223633Y-72363101D01*
X157188897Y-72344534D01*
X157158452Y-72319548D01*
X157133466Y-72289103D01*
X157114899Y-72254367D01*
X157103465Y-72216674D01*
X157099000Y-72171339D01*
X157099000Y-71084661D01*
X157103465Y-71039326D01*
X157114899Y-71001633D01*
X157133466Y-70966897D01*
X157158452Y-70936452D01*
X157188897Y-70911466D01*
X157223633Y-70892899D01*
X157261326Y-70881465D01*
X157306661Y-70877000D01*
X158143339Y-70877000D01*
X158188674Y-70881465D01*
X158188674Y-70881465D01*
G37*
G36*
X160238674Y-70881465D02*
G01*
X160276367Y-70892899D01*
X160311103Y-70911466D01*
X160341548Y-70936452D01*
X160366534Y-70966897D01*
X160385101Y-71001633D01*
X160396535Y-71039326D01*
X160401000Y-71084661D01*
X160401000Y-72171339D01*
X160396535Y-72216674D01*
X160385101Y-72254367D01*
X160366534Y-72289103D01*
X160341548Y-72319548D01*
X160311103Y-72344534D01*
X160276367Y-72363101D01*
X160238674Y-72374535D01*
X160193339Y-72379000D01*
X159356661Y-72379000D01*
X159311326Y-72374535D01*
X159273633Y-72363101D01*
X159238897Y-72344534D01*
X159208452Y-72319548D01*
X159183466Y-72289103D01*
X159164899Y-72254367D01*
X159153465Y-72216674D01*
X159149000Y-72171339D01*
X159149000Y-71084661D01*
X159153465Y-71039326D01*
X159164899Y-71001633D01*
X159183466Y-70966897D01*
X159208452Y-70936452D01*
X159238897Y-70911466D01*
X159273633Y-70892899D01*
X159311326Y-70881465D01*
X159356661Y-70877000D01*
X160193339Y-70877000D01*
X160238674Y-70881465D01*
X160238674Y-70881465D01*
G37*
G36*
X154148549Y-69737116D02*
G01*
X154259734Y-69759232D01*
X154469203Y-69845997D01*
X154657720Y-69971960D01*
X154818040Y-70132280D01*
X154937209Y-70310629D01*
X154944004Y-70320799D01*
X154966668Y-70375514D01*
X155030768Y-70530266D01*
X155036008Y-70556608D01*
X155075000Y-70752635D01*
X155075000Y-70979365D01*
X155066997Y-71019600D01*
X155030768Y-71201734D01*
X154944003Y-71411203D01*
X154818040Y-71599720D01*
X154657720Y-71760040D01*
X154469203Y-71886003D01*
X154259734Y-71972768D01*
X154148549Y-71994884D01*
X154037365Y-72017000D01*
X153810635Y-72017000D01*
X153699451Y-71994884D01*
X153588266Y-71972768D01*
X153378797Y-71886003D01*
X153190280Y-71760040D01*
X153029960Y-71599720D01*
X152903997Y-71411203D01*
X152817232Y-71201734D01*
X152781003Y-71019600D01*
X152773000Y-70979365D01*
X152773000Y-70752635D01*
X152811992Y-70556608D01*
X152817232Y-70530266D01*
X152881332Y-70375514D01*
X152903996Y-70320799D01*
X152910791Y-70310629D01*
X153029960Y-70132280D01*
X153190280Y-69971960D01*
X153378797Y-69845997D01*
X153588266Y-69759232D01*
X153699451Y-69737116D01*
X153810635Y-69715000D01*
X154037365Y-69715000D01*
X154148549Y-69737116D01*
X154148549Y-69737116D01*
G37*
G36*
X147148549Y-69737116D02*
G01*
X147259734Y-69759232D01*
X147469203Y-69845997D01*
X147657720Y-69971960D01*
X147818040Y-70132280D01*
X147937209Y-70310629D01*
X147944004Y-70320799D01*
X147966668Y-70375514D01*
X148030768Y-70530266D01*
X148036008Y-70556608D01*
X148075000Y-70752635D01*
X148075000Y-70979365D01*
X148066997Y-71019600D01*
X148030768Y-71201734D01*
X147944003Y-71411203D01*
X147818040Y-71599720D01*
X147657720Y-71760040D01*
X147469203Y-71886003D01*
X147259734Y-71972768D01*
X147148549Y-71994884D01*
X147037365Y-72017000D01*
X146810635Y-72017000D01*
X146699451Y-71994884D01*
X146588266Y-71972768D01*
X146378797Y-71886003D01*
X146190280Y-71760040D01*
X146029960Y-71599720D01*
X145903997Y-71411203D01*
X145817232Y-71201734D01*
X145781003Y-71019600D01*
X145773000Y-70979365D01*
X145773000Y-70752635D01*
X145811992Y-70556608D01*
X145817232Y-70530266D01*
X145881332Y-70375514D01*
X145903996Y-70320799D01*
X145910791Y-70310629D01*
X146029960Y-70132280D01*
X146190280Y-69971960D01*
X146378797Y-69845997D01*
X146588266Y-69759232D01*
X146699451Y-69737116D01*
X146810635Y-69715000D01*
X147037365Y-69715000D01*
X147148549Y-69737116D01*
X147148549Y-69737116D01*
G37*
G36*
X134174000Y-71107200D02*
G01*
X132272000Y-71107200D01*
X132272000Y-69205200D01*
X134174000Y-69205200D01*
X134174000Y-71107200D01*
X134174000Y-71107200D01*
G37*
G36*
X126176000Y-71107200D02*
G01*
X124274000Y-71107200D01*
X124274000Y-69205200D01*
X126176000Y-69205200D01*
X126176000Y-71107200D01*
X126176000Y-71107200D01*
G37*
G36*
X142178000Y-71107200D02*
G01*
X140276000Y-71107200D01*
X140276000Y-69205200D01*
X142178000Y-69205200D01*
X142178000Y-71107200D01*
X142178000Y-71107200D01*
G37*
G36*
X182305473Y-65354919D02*
G01*
X182666437Y-65426719D01*
X183167087Y-65634095D01*
X183347561Y-65754684D01*
X183617660Y-65935158D01*
X184000842Y-66318340D01*
X184138185Y-66523889D01*
X184301905Y-66768913D01*
X184509281Y-67269563D01*
X184555043Y-67499624D01*
X184615000Y-67801049D01*
X184615000Y-68342951D01*
X184576892Y-68534534D01*
X184509281Y-68874437D01*
X184301905Y-69375087D01*
X184245521Y-69459471D01*
X184000842Y-69825660D01*
X183617660Y-70208842D01*
X183368217Y-70375514D01*
X183167087Y-70509905D01*
X182666437Y-70717281D01*
X182495914Y-70751200D01*
X182134951Y-70823000D01*
X181593049Y-70823000D01*
X181232086Y-70751200D01*
X181061563Y-70717281D01*
X180560913Y-70509905D01*
X180359783Y-70375514D01*
X180110340Y-70208842D01*
X179727158Y-69825660D01*
X179482479Y-69459471D01*
X179426095Y-69375087D01*
X179218719Y-68874437D01*
X179151108Y-68534534D01*
X179113000Y-68342951D01*
X179113000Y-67801049D01*
X179172957Y-67499624D01*
X179218719Y-67269563D01*
X179426095Y-66768913D01*
X179589815Y-66523889D01*
X179727158Y-66318340D01*
X180110340Y-65935158D01*
X180380439Y-65754684D01*
X180560913Y-65634095D01*
X181061563Y-65426719D01*
X181422527Y-65354919D01*
X181593049Y-65321000D01*
X182134951Y-65321000D01*
X182305473Y-65354919D01*
X182305473Y-65354919D01*
G37*
G36*
X103523694Y-65302060D02*
G01*
X103789437Y-65354919D01*
X104290087Y-65562295D01*
X104397543Y-65634095D01*
X104740660Y-65863358D01*
X105123842Y-66246540D01*
X105257565Y-66446671D01*
X105424905Y-66697113D01*
X105632281Y-67197763D01*
X105632281Y-67197764D01*
X105738000Y-67729249D01*
X105738000Y-68271151D01*
X105703545Y-68444367D01*
X105632281Y-68802637D01*
X105424905Y-69303287D01*
X105320546Y-69459471D01*
X105123842Y-69753860D01*
X104740660Y-70137042D01*
X104503411Y-70295566D01*
X104290087Y-70438105D01*
X103789437Y-70645481D01*
X103523694Y-70698340D01*
X103257951Y-70751200D01*
X102716049Y-70751200D01*
X102450306Y-70698340D01*
X102184563Y-70645481D01*
X101683913Y-70438105D01*
X101470589Y-70295566D01*
X101233340Y-70137042D01*
X100850158Y-69753860D01*
X100653454Y-69459471D01*
X100549095Y-69303287D01*
X100341719Y-68802637D01*
X100270455Y-68444367D01*
X100236000Y-68271151D01*
X100236000Y-67729249D01*
X100341719Y-67197764D01*
X100341719Y-67197763D01*
X100549095Y-66697113D01*
X100716435Y-66446671D01*
X100850158Y-66246540D01*
X101233340Y-65863358D01*
X101576457Y-65634095D01*
X101683913Y-65562295D01*
X102184563Y-65354919D01*
X102450306Y-65302060D01*
X102716049Y-65249200D01*
X103257951Y-65249200D01*
X103523694Y-65302060D01*
X103523694Y-65302060D01*
G37*
G36*
X113493562Y-69054181D02*
G01*
X113528481Y-69064774D01*
X113560663Y-69081976D01*
X113588873Y-69105127D01*
X113612024Y-69133337D01*
X113629226Y-69165519D01*
X113639819Y-69200438D01*
X113644000Y-69242895D01*
X113644000Y-70384105D01*
X113639819Y-70426562D01*
X113629226Y-70461481D01*
X113612024Y-70493663D01*
X113588873Y-70521873D01*
X113560663Y-70545024D01*
X113528481Y-70562226D01*
X113493562Y-70572819D01*
X113451105Y-70577000D01*
X111084895Y-70577000D01*
X111042438Y-70572819D01*
X111007519Y-70562226D01*
X110975337Y-70545024D01*
X110947127Y-70521873D01*
X110923976Y-70493663D01*
X110906774Y-70461481D01*
X110896181Y-70426562D01*
X110892000Y-70384105D01*
X110892000Y-69242895D01*
X110896181Y-69200438D01*
X110906774Y-69165519D01*
X110923976Y-69133337D01*
X110947127Y-69105127D01*
X110975337Y-69081976D01*
X111007519Y-69064774D01*
X111042438Y-69054181D01*
X111084895Y-69050000D01*
X113451105Y-69050000D01*
X113493562Y-69054181D01*
X113493562Y-69054181D01*
G37*
G36*
X118065562Y-69054181D02*
G01*
X118100481Y-69064774D01*
X118132663Y-69081976D01*
X118160873Y-69105127D01*
X118184024Y-69133337D01*
X118201226Y-69165519D01*
X118211819Y-69200438D01*
X118216000Y-69242895D01*
X118216000Y-70384105D01*
X118211819Y-70426562D01*
X118201226Y-70461481D01*
X118184024Y-70493663D01*
X118160873Y-70521873D01*
X118132663Y-70545024D01*
X118100481Y-70562226D01*
X118065562Y-70572819D01*
X118023105Y-70577000D01*
X115656895Y-70577000D01*
X115614438Y-70572819D01*
X115579519Y-70562226D01*
X115547337Y-70545024D01*
X115519127Y-70521873D01*
X115495976Y-70493663D01*
X115478774Y-70461481D01*
X115468181Y-70426562D01*
X115464000Y-70384105D01*
X115464000Y-69242895D01*
X115468181Y-69200438D01*
X115478774Y-69165519D01*
X115495976Y-69133337D01*
X115519127Y-69105127D01*
X115547337Y-69081976D01*
X115579519Y-69064774D01*
X115614438Y-69054181D01*
X115656895Y-69050000D01*
X118023105Y-69050000D01*
X118065562Y-69054181D01*
X118065562Y-69054181D01*
G37*
G36*
X170054294Y-68492833D02*
G01*
X170226695Y-68545131D01*
X170385583Y-68630058D01*
X170524849Y-68744351D01*
X170639142Y-68883617D01*
X170724069Y-69042505D01*
X170776367Y-69214906D01*
X170794025Y-69394200D01*
X170776367Y-69573494D01*
X170724069Y-69745895D01*
X170639142Y-69904783D01*
X170524849Y-70044049D01*
X170385583Y-70158342D01*
X170226695Y-70243269D01*
X170054294Y-70295567D01*
X169919931Y-70308800D01*
X169830069Y-70308800D01*
X169695706Y-70295567D01*
X169523305Y-70243269D01*
X169364417Y-70158342D01*
X169225151Y-70044049D01*
X169110858Y-69904783D01*
X169025931Y-69745895D01*
X168973633Y-69573494D01*
X168955975Y-69394200D01*
X168973633Y-69214906D01*
X169025931Y-69042505D01*
X169110858Y-68883617D01*
X169225151Y-68744351D01*
X169364417Y-68630058D01*
X169523305Y-68545131D01*
X169695706Y-68492833D01*
X169830069Y-68479600D01*
X169919931Y-68479600D01*
X170054294Y-68492833D01*
X170054294Y-68492833D01*
G37*
G36*
X167514294Y-68492833D02*
G01*
X167686695Y-68545131D01*
X167845583Y-68630058D01*
X167984849Y-68744351D01*
X168099142Y-68883617D01*
X168184069Y-69042505D01*
X168236367Y-69214906D01*
X168254025Y-69394200D01*
X168236367Y-69573494D01*
X168184069Y-69745895D01*
X168099142Y-69904783D01*
X167984849Y-70044049D01*
X167845583Y-70158342D01*
X167686695Y-70243269D01*
X167514294Y-70295567D01*
X167379931Y-70308800D01*
X167290069Y-70308800D01*
X167155706Y-70295567D01*
X166983305Y-70243269D01*
X166824417Y-70158342D01*
X166685151Y-70044049D01*
X166570858Y-69904783D01*
X166485931Y-69745895D01*
X166433633Y-69573494D01*
X166415975Y-69394200D01*
X166433633Y-69214906D01*
X166485931Y-69042505D01*
X166570858Y-68883617D01*
X166685151Y-68744351D01*
X166824417Y-68630058D01*
X166983305Y-68545131D01*
X167155706Y-68492833D01*
X167290069Y-68479600D01*
X167379931Y-68479600D01*
X167514294Y-68492833D01*
X167514294Y-68492833D01*
G37*
G36*
X172594294Y-68492833D02*
G01*
X172766695Y-68545131D01*
X172925583Y-68630058D01*
X173064849Y-68744351D01*
X173179142Y-68883617D01*
X173264069Y-69042505D01*
X173316367Y-69214906D01*
X173334025Y-69394200D01*
X173316367Y-69573494D01*
X173264069Y-69745895D01*
X173179142Y-69904783D01*
X173064849Y-70044049D01*
X172925583Y-70158342D01*
X172766695Y-70243269D01*
X172594294Y-70295567D01*
X172459931Y-70308800D01*
X172370069Y-70308800D01*
X172235706Y-70295567D01*
X172063305Y-70243269D01*
X171904417Y-70158342D01*
X171765151Y-70044049D01*
X171650858Y-69904783D01*
X171565931Y-69745895D01*
X171513633Y-69573494D01*
X171495975Y-69394200D01*
X171513633Y-69214906D01*
X171565931Y-69042505D01*
X171650858Y-68883617D01*
X171765151Y-68744351D01*
X171904417Y-68630058D01*
X172063305Y-68545131D01*
X172235706Y-68492833D01*
X172370069Y-68479600D01*
X172459931Y-68479600D01*
X172594294Y-68492833D01*
X172594294Y-68492833D01*
G37*
G36*
X152787512Y-67469927D02*
G01*
X152936812Y-67499624D01*
X153100784Y-67567544D01*
X153248354Y-67666147D01*
X153373853Y-67791646D01*
X153472456Y-67939216D01*
X153540376Y-68103188D01*
X153570073Y-68252488D01*
X153575000Y-68277258D01*
X153575000Y-68454742D01*
X153570154Y-68479103D01*
X153540376Y-68628812D01*
X153472456Y-68792784D01*
X153373853Y-68940354D01*
X153248354Y-69065853D01*
X153100784Y-69164456D01*
X152936812Y-69232376D01*
X152787512Y-69262073D01*
X152762742Y-69267000D01*
X152585258Y-69267000D01*
X152560488Y-69262073D01*
X152411188Y-69232376D01*
X152247216Y-69164456D01*
X152099646Y-69065853D01*
X151974147Y-68940354D01*
X151875544Y-68792784D01*
X151807624Y-68628812D01*
X151777846Y-68479103D01*
X151773000Y-68454742D01*
X151773000Y-68277258D01*
X151777927Y-68252488D01*
X151807624Y-68103188D01*
X151875544Y-67939216D01*
X151974147Y-67791646D01*
X152099646Y-67666147D01*
X152247216Y-67567544D01*
X152411188Y-67499624D01*
X152560488Y-67469927D01*
X152585258Y-67465000D01*
X152762742Y-67465000D01*
X152787512Y-67469927D01*
X152787512Y-67469927D01*
G37*
G36*
X148287512Y-67469927D02*
G01*
X148436812Y-67499624D01*
X148600784Y-67567544D01*
X148748354Y-67666147D01*
X148873853Y-67791646D01*
X148972456Y-67939216D01*
X149040376Y-68103188D01*
X149070073Y-68252488D01*
X149075000Y-68277258D01*
X149075000Y-68454742D01*
X149070154Y-68479103D01*
X149040376Y-68628812D01*
X148972456Y-68792784D01*
X148873853Y-68940354D01*
X148748354Y-69065853D01*
X148600784Y-69164456D01*
X148436812Y-69232376D01*
X148287512Y-69262073D01*
X148262742Y-69267000D01*
X148085258Y-69267000D01*
X148060488Y-69262073D01*
X147911188Y-69232376D01*
X147747216Y-69164456D01*
X147599646Y-69065853D01*
X147474147Y-68940354D01*
X147375544Y-68792784D01*
X147307624Y-68628812D01*
X147277846Y-68479103D01*
X147273000Y-68454742D01*
X147273000Y-68277258D01*
X147277927Y-68252488D01*
X147307624Y-68103188D01*
X147375544Y-67939216D01*
X147474147Y-67791646D01*
X147599646Y-67666147D01*
X147747216Y-67567544D01*
X147911188Y-67499624D01*
X148060488Y-67469927D01*
X148085258Y-67465000D01*
X148262742Y-67465000D01*
X148287512Y-67469927D01*
X148287512Y-67469927D01*
G37*
G36*
X160238674Y-67071465D02*
G01*
X160276367Y-67082899D01*
X160311103Y-67101466D01*
X160341548Y-67126452D01*
X160366534Y-67156897D01*
X160385101Y-67191633D01*
X160396535Y-67229326D01*
X160401000Y-67274661D01*
X160401000Y-68361339D01*
X160396535Y-68406674D01*
X160385101Y-68444367D01*
X160366534Y-68479103D01*
X160341548Y-68509548D01*
X160311103Y-68534534D01*
X160276367Y-68553101D01*
X160238674Y-68564535D01*
X160193339Y-68569000D01*
X159356661Y-68569000D01*
X159311326Y-68564535D01*
X159273633Y-68553101D01*
X159238897Y-68534534D01*
X159208452Y-68509548D01*
X159183466Y-68479103D01*
X159164899Y-68444367D01*
X159153465Y-68406674D01*
X159149000Y-68361339D01*
X159149000Y-67274661D01*
X159153465Y-67229326D01*
X159164899Y-67191633D01*
X159183466Y-67156897D01*
X159208452Y-67126452D01*
X159238897Y-67101466D01*
X159273633Y-67082899D01*
X159311326Y-67071465D01*
X159356661Y-67067000D01*
X160193339Y-67067000D01*
X160238674Y-67071465D01*
X160238674Y-67071465D01*
G37*
G36*
X158188674Y-67071465D02*
G01*
X158226367Y-67082899D01*
X158261103Y-67101466D01*
X158291548Y-67126452D01*
X158316534Y-67156897D01*
X158335101Y-67191633D01*
X158346535Y-67229326D01*
X158351000Y-67274661D01*
X158351000Y-68361339D01*
X158346535Y-68406674D01*
X158335101Y-68444367D01*
X158316534Y-68479103D01*
X158291548Y-68509548D01*
X158261103Y-68534534D01*
X158226367Y-68553101D01*
X158188674Y-68564535D01*
X158143339Y-68569000D01*
X157306661Y-68569000D01*
X157261326Y-68564535D01*
X157223633Y-68553101D01*
X157188897Y-68534534D01*
X157158452Y-68509548D01*
X157133466Y-68479103D01*
X157114899Y-68444367D01*
X157103465Y-68406674D01*
X157099000Y-68361339D01*
X157099000Y-67274661D01*
X157103465Y-67229326D01*
X157114899Y-67191633D01*
X157133466Y-67156897D01*
X157158452Y-67126452D01*
X157188897Y-67101466D01*
X157223633Y-67082899D01*
X157261326Y-67071465D01*
X157306661Y-67067000D01*
X158143339Y-67067000D01*
X158188674Y-67071465D01*
X158188674Y-67071465D01*
G37*
G36*
X133500395Y-66701746D02*
G01*
X133673466Y-66773434D01*
X133673467Y-66773435D01*
X133829227Y-66877510D01*
X133961690Y-67009973D01*
X133961691Y-67009975D01*
X134065766Y-67165734D01*
X134137454Y-67338805D01*
X134174000Y-67522533D01*
X134174000Y-67709867D01*
X134137454Y-67893595D01*
X134065766Y-68066666D01*
X134065765Y-68066667D01*
X133961690Y-68222427D01*
X133829227Y-68354890D01*
X133819575Y-68361339D01*
X133673466Y-68458966D01*
X133500395Y-68530654D01*
X133316667Y-68567200D01*
X133129333Y-68567200D01*
X132945605Y-68530654D01*
X132772534Y-68458966D01*
X132626425Y-68361339D01*
X132616773Y-68354890D01*
X132484310Y-68222427D01*
X132380235Y-68066667D01*
X132380234Y-68066666D01*
X132308546Y-67893595D01*
X132272000Y-67709867D01*
X132272000Y-67522533D01*
X132308546Y-67338805D01*
X132380234Y-67165734D01*
X132484309Y-67009975D01*
X132484310Y-67009973D01*
X132616773Y-66877510D01*
X132772533Y-66773435D01*
X132772534Y-66773434D01*
X132945605Y-66701746D01*
X133129333Y-66665200D01*
X133316667Y-66665200D01*
X133500395Y-66701746D01*
X133500395Y-66701746D01*
G37*
G36*
X125502395Y-66701746D02*
G01*
X125675466Y-66773434D01*
X125675467Y-66773435D01*
X125831227Y-66877510D01*
X125963690Y-67009973D01*
X125963691Y-67009975D01*
X126067766Y-67165734D01*
X126139454Y-67338805D01*
X126176000Y-67522533D01*
X126176000Y-67709867D01*
X126139454Y-67893595D01*
X126067766Y-68066666D01*
X126067765Y-68066667D01*
X125963690Y-68222427D01*
X125831227Y-68354890D01*
X125821575Y-68361339D01*
X125675466Y-68458966D01*
X125502395Y-68530654D01*
X125318667Y-68567200D01*
X125131333Y-68567200D01*
X124947605Y-68530654D01*
X124774534Y-68458966D01*
X124628425Y-68361339D01*
X124618773Y-68354890D01*
X124486310Y-68222427D01*
X124382235Y-68066667D01*
X124382234Y-68066666D01*
X124310546Y-67893595D01*
X124274000Y-67709867D01*
X124274000Y-67522533D01*
X124310546Y-67338805D01*
X124382234Y-67165734D01*
X124486309Y-67009975D01*
X124486310Y-67009973D01*
X124618773Y-66877510D01*
X124774533Y-66773435D01*
X124774534Y-66773434D01*
X124947605Y-66701746D01*
X125131333Y-66665200D01*
X125318667Y-66665200D01*
X125502395Y-66701746D01*
X125502395Y-66701746D01*
G37*
G36*
X141504395Y-66701746D02*
G01*
X141677466Y-66773434D01*
X141677467Y-66773435D01*
X141833227Y-66877510D01*
X141965690Y-67009973D01*
X141965691Y-67009975D01*
X142069766Y-67165734D01*
X142141454Y-67338805D01*
X142178000Y-67522533D01*
X142178000Y-67709867D01*
X142141454Y-67893595D01*
X142069766Y-68066666D01*
X142069765Y-68066667D01*
X141965690Y-68222427D01*
X141833227Y-68354890D01*
X141823575Y-68361339D01*
X141677466Y-68458966D01*
X141504395Y-68530654D01*
X141320667Y-68567200D01*
X141133333Y-68567200D01*
X140949605Y-68530654D01*
X140776534Y-68458966D01*
X140630425Y-68361339D01*
X140620773Y-68354890D01*
X140488310Y-68222427D01*
X140384235Y-68066667D01*
X140384234Y-68066666D01*
X140312546Y-67893595D01*
X140276000Y-67709867D01*
X140276000Y-67522533D01*
X140312546Y-67338805D01*
X140384234Y-67165734D01*
X140488309Y-67009975D01*
X140488310Y-67009973D01*
X140620773Y-66877510D01*
X140776533Y-66773435D01*
X140776534Y-66773434D01*
X140949605Y-66701746D01*
X141133333Y-66665200D01*
X141320667Y-66665200D01*
X141504395Y-66701746D01*
X141504395Y-66701746D01*
G37*
G36*
X113493562Y-66079181D02*
G01*
X113528481Y-66089774D01*
X113560663Y-66106976D01*
X113588873Y-66130127D01*
X113612024Y-66158337D01*
X113629226Y-66190519D01*
X113639819Y-66225438D01*
X113644000Y-66267895D01*
X113644000Y-67409105D01*
X113639819Y-67451562D01*
X113629226Y-67486481D01*
X113612024Y-67518663D01*
X113588873Y-67546873D01*
X113560663Y-67570024D01*
X113528481Y-67587226D01*
X113493562Y-67597819D01*
X113451105Y-67602000D01*
X111084895Y-67602000D01*
X111042438Y-67597819D01*
X111007519Y-67587226D01*
X110975337Y-67570024D01*
X110947127Y-67546873D01*
X110923976Y-67518663D01*
X110906774Y-67486481D01*
X110896181Y-67451562D01*
X110892000Y-67409105D01*
X110892000Y-66267895D01*
X110896181Y-66225438D01*
X110906774Y-66190519D01*
X110923976Y-66158337D01*
X110947127Y-66130127D01*
X110975337Y-66106976D01*
X111007519Y-66089774D01*
X111042438Y-66079181D01*
X111084895Y-66075000D01*
X113451105Y-66075000D01*
X113493562Y-66079181D01*
X113493562Y-66079181D01*
G37*
G36*
X118065562Y-66079181D02*
G01*
X118100481Y-66089774D01*
X118132663Y-66106976D01*
X118160873Y-66130127D01*
X118184024Y-66158337D01*
X118201226Y-66190519D01*
X118211819Y-66225438D01*
X118216000Y-66267895D01*
X118216000Y-67409105D01*
X118211819Y-67451562D01*
X118201226Y-67486481D01*
X118184024Y-67518663D01*
X118160873Y-67546873D01*
X118132663Y-67570024D01*
X118100481Y-67587226D01*
X118065562Y-67597819D01*
X118023105Y-67602000D01*
X115656895Y-67602000D01*
X115614438Y-67597819D01*
X115579519Y-67587226D01*
X115547337Y-67570024D01*
X115519127Y-67546873D01*
X115495976Y-67518663D01*
X115478774Y-67486481D01*
X115468181Y-67451562D01*
X115464000Y-67409105D01*
X115464000Y-66267895D01*
X115468181Y-66225438D01*
X115478774Y-66190519D01*
X115495976Y-66158337D01*
X115519127Y-66130127D01*
X115547337Y-66106976D01*
X115579519Y-66089774D01*
X115614438Y-66079181D01*
X115656895Y-66075000D01*
X118023105Y-66075000D01*
X118065562Y-66079181D01*
X118065562Y-66079181D01*
G37*
M02*
