G04 #@! TF.GenerationSoftware,KiCad,Pcbnew,(6.0.0-rc1-dev-1491-g0a4812be0)*
G04 #@! TF.CreationDate,2019-04-18T08:34:58+02:00
G04 #@! TF.ProjectId,mySensors_door_switch,6d795365-6e73-46f7-9273-5f646f6f725f,1.2*
G04 #@! TF.SameCoordinates,Original*
G04 #@! TF.FileFunction,Copper,L2,Bot*
G04 #@! TF.FilePolarity,Positive*
%FSLAX46Y46*%
G04 Gerber Fmt 4.6, Leading zero omitted, Abs format (unit mm)*
G04 Created by KiCad (PCBNEW (6.0.0-rc1-dev-1491-g0a4812be0)) date 2019-04-18 08:34:58*
%MOMM*%
%LPD*%
G04 APERTURE LIST*
%ADD10O,2.000000X1.700000*%
%ADD11C,0.100000*%
%ADD12C,1.700000*%
%ADD13C,0.800000*%
%ADD14C,5.400000*%
%ADD15O,1.700000X1.700000*%
%ADD16R,1.700000X1.700000*%
%ADD17C,1.727200*%
%ADD18R,1.727200X2.000000*%
%ADD19C,1.600000*%
%ADD20R,1.600000X1.600000*%
%ADD21O,1.800000X1.150000*%
%ADD22O,2.000000X1.450000*%
%ADD23R,1.500000X1.500000*%
%ADD24O,1.500000X1.500000*%
%ADD25R,1.800000X1.800000*%
%ADD26C,1.800000*%
%ADD27C,3.500120*%
%ADD28R,1.727200X1.727200*%
%ADD29O,1.727200X1.727200*%
%ADD30C,2.200000*%
%ADD31C,1.225000*%
%ADD32R,1.524000X1.524000*%
%ADD33C,1.524000*%
%ADD34C,2.410000*%
%ADD35C,0.500000*%
%ADD36C,1.500000*%
%ADD37C,1.200000*%
%ADD38C,0.350000*%
%ADD39C,0.279400*%
%ADD40C,0.500000*%
%ADD41C,0.800000*%
%ADD42C,0.254000*%
G04 APERTURE END LIST*
D10*
X104394000Y-94448000D03*
D11*
G36*
X105168504Y-91099204D02*
G01*
X105192773Y-91102804D01*
X105216571Y-91108765D01*
X105239671Y-91117030D01*
X105261849Y-91127520D01*
X105282893Y-91140133D01*
X105302598Y-91154747D01*
X105320777Y-91171223D01*
X105337253Y-91189402D01*
X105351867Y-91209107D01*
X105364480Y-91230151D01*
X105374970Y-91252329D01*
X105383235Y-91275429D01*
X105389196Y-91299227D01*
X105392796Y-91323496D01*
X105394000Y-91348000D01*
X105394000Y-92548000D01*
X105392796Y-92572504D01*
X105389196Y-92596773D01*
X105383235Y-92620571D01*
X105374970Y-92643671D01*
X105364480Y-92665849D01*
X105351867Y-92686893D01*
X105337253Y-92706598D01*
X105320777Y-92724777D01*
X105302598Y-92741253D01*
X105282893Y-92755867D01*
X105261849Y-92768480D01*
X105239671Y-92778970D01*
X105216571Y-92787235D01*
X105192773Y-92793196D01*
X105168504Y-92796796D01*
X105144000Y-92798000D01*
X103644000Y-92798000D01*
X103619496Y-92796796D01*
X103595227Y-92793196D01*
X103571429Y-92787235D01*
X103548329Y-92778970D01*
X103526151Y-92768480D01*
X103505107Y-92755867D01*
X103485402Y-92741253D01*
X103467223Y-92724777D01*
X103450747Y-92706598D01*
X103436133Y-92686893D01*
X103423520Y-92665849D01*
X103413030Y-92643671D01*
X103404765Y-92620571D01*
X103398804Y-92596773D01*
X103395204Y-92572504D01*
X103394000Y-92548000D01*
X103394000Y-91348000D01*
X103395204Y-91323496D01*
X103398804Y-91299227D01*
X103404765Y-91275429D01*
X103413030Y-91252329D01*
X103423520Y-91230151D01*
X103436133Y-91209107D01*
X103450747Y-91189402D01*
X103467223Y-91171223D01*
X103485402Y-91154747D01*
X103505107Y-91140133D01*
X103526151Y-91127520D01*
X103548329Y-91117030D01*
X103571429Y-91108765D01*
X103595227Y-91102804D01*
X103619496Y-91099204D01*
X103644000Y-91098000D01*
X105144000Y-91098000D01*
X105168504Y-91099204D01*
X105168504Y-91099204D01*
G37*
D12*
X104394000Y-91948000D03*
D13*
X183295891Y-66640109D03*
X181864000Y-66047000D03*
X180432109Y-66640109D03*
X179839000Y-68072000D03*
X180432109Y-69503891D03*
X181864000Y-70097000D03*
X183295891Y-69503891D03*
X183889000Y-68072000D03*
D14*
X181864000Y-68072000D03*
D15*
X155956000Y-86868000D03*
D16*
X153416000Y-86868000D03*
D17*
X161036000Y-88918000D03*
X163036000Y-88918000D03*
X165036000Y-88918000D03*
X167036000Y-88918000D03*
X169036000Y-88918000D03*
X171036000Y-88918000D03*
X173036000Y-88918000D03*
X175036000Y-88918000D03*
X175036000Y-106018000D03*
X173036000Y-106018000D03*
X171036000Y-106018000D03*
X169036000Y-106018000D03*
X167036000Y-106018000D03*
X165036000Y-106018000D03*
X163036000Y-106018000D03*
D18*
X161036000Y-106018000D03*
D19*
X180543000Y-78324200D03*
D20*
X180543000Y-80824200D03*
D21*
X102190000Y-85663000D03*
X102190000Y-77913000D03*
D22*
X105990000Y-85513000D03*
X105990000Y-78063000D03*
D23*
X153924000Y-82042000D03*
D24*
X153924000Y-74422000D03*
D25*
X141227000Y-70156200D03*
D26*
X141227000Y-67616200D03*
X133223000Y-67616200D03*
D25*
X133223000Y-70156200D03*
X125225000Y-70156200D03*
D26*
X125225000Y-67616200D03*
D27*
X180035000Y-91492200D03*
D13*
X183418891Y-105568109D03*
X181987000Y-104975000D03*
X180555109Y-105568109D03*
X179962000Y-107000000D03*
X180555109Y-108431891D03*
X181987000Y-109025000D03*
X183418891Y-108431891D03*
X184012000Y-107000000D03*
D14*
X181987000Y-107000000D03*
X102987000Y-107000000D03*
D13*
X105012000Y-107000000D03*
X104418891Y-108431891D03*
X102987000Y-109025000D03*
X101555109Y-108431891D03*
X100962000Y-107000000D03*
X101555109Y-105568109D03*
X102987000Y-104975000D03*
X104418891Y-105568109D03*
X104418891Y-66568309D03*
X102987000Y-65975200D03*
X101555109Y-66568309D03*
X100962000Y-68000200D03*
X101555109Y-69432091D03*
X102987000Y-70025200D03*
X104418891Y-69432091D03*
X105012000Y-68000200D03*
D14*
X102987000Y-68000200D03*
D28*
X167335000Y-71934200D03*
D29*
X167335000Y-69394200D03*
X169875000Y-71934200D03*
X169875000Y-69394200D03*
X172415000Y-71934200D03*
X172415000Y-69394200D03*
D16*
X155448000Y-105918000D03*
D15*
X155448000Y-103378000D03*
X155448000Y-100838000D03*
X155448000Y-98298000D03*
X155448000Y-95758000D03*
X155448000Y-93218000D03*
D30*
X153924000Y-70866000D03*
X146924000Y-70866000D03*
D12*
X152674000Y-68366000D03*
X148174000Y-68366000D03*
D11*
G36*
X129911504Y-89012204D02*
G01*
X129935773Y-89015804D01*
X129959571Y-89021765D01*
X129982671Y-89030030D01*
X130004849Y-89040520D01*
X130025893Y-89053133D01*
X130045598Y-89067747D01*
X130063777Y-89084223D01*
X130080253Y-89102402D01*
X130094867Y-89122107D01*
X130107480Y-89143151D01*
X130117970Y-89165329D01*
X130126235Y-89188429D01*
X130132196Y-89212227D01*
X130135796Y-89236496D01*
X130137000Y-89261000D01*
X130137000Y-89986000D01*
X130135796Y-90010504D01*
X130132196Y-90034773D01*
X130126235Y-90058571D01*
X130117970Y-90081671D01*
X130107480Y-90103849D01*
X130094867Y-90124893D01*
X130080253Y-90144598D01*
X130063777Y-90162777D01*
X130045598Y-90179253D01*
X130025893Y-90193867D01*
X130004849Y-90206480D01*
X129982671Y-90216970D01*
X129959571Y-90225235D01*
X129935773Y-90231196D01*
X129911504Y-90234796D01*
X129887000Y-90236000D01*
X125637000Y-90236000D01*
X125612496Y-90234796D01*
X125588227Y-90231196D01*
X125564429Y-90225235D01*
X125541329Y-90216970D01*
X125519151Y-90206480D01*
X125498107Y-90193867D01*
X125478402Y-90179253D01*
X125460223Y-90162777D01*
X125443747Y-90144598D01*
X125429133Y-90124893D01*
X125416520Y-90103849D01*
X125406030Y-90081671D01*
X125397765Y-90058571D01*
X125391804Y-90034773D01*
X125388204Y-90010504D01*
X125387000Y-89986000D01*
X125387000Y-89261000D01*
X125388204Y-89236496D01*
X125391804Y-89212227D01*
X125397765Y-89188429D01*
X125406030Y-89165329D01*
X125416520Y-89143151D01*
X125429133Y-89122107D01*
X125443747Y-89102402D01*
X125460223Y-89084223D01*
X125478402Y-89067747D01*
X125498107Y-89053133D01*
X125519151Y-89040520D01*
X125541329Y-89030030D01*
X125564429Y-89021765D01*
X125588227Y-89015804D01*
X125612496Y-89012204D01*
X125637000Y-89011000D01*
X129887000Y-89011000D01*
X129911504Y-89012204D01*
X129911504Y-89012204D01*
G37*
D31*
X127762000Y-89623500D03*
D11*
G36*
X129911504Y-92137204D02*
G01*
X129935773Y-92140804D01*
X129959571Y-92146765D01*
X129982671Y-92155030D01*
X130004849Y-92165520D01*
X130025893Y-92178133D01*
X130045598Y-92192747D01*
X130063777Y-92209223D01*
X130080253Y-92227402D01*
X130094867Y-92247107D01*
X130107480Y-92268151D01*
X130117970Y-92290329D01*
X130126235Y-92313429D01*
X130132196Y-92337227D01*
X130135796Y-92361496D01*
X130137000Y-92386000D01*
X130137000Y-93111000D01*
X130135796Y-93135504D01*
X130132196Y-93159773D01*
X130126235Y-93183571D01*
X130117970Y-93206671D01*
X130107480Y-93228849D01*
X130094867Y-93249893D01*
X130080253Y-93269598D01*
X130063777Y-93287777D01*
X130045598Y-93304253D01*
X130025893Y-93318867D01*
X130004849Y-93331480D01*
X129982671Y-93341970D01*
X129959571Y-93350235D01*
X129935773Y-93356196D01*
X129911504Y-93359796D01*
X129887000Y-93361000D01*
X125637000Y-93361000D01*
X125612496Y-93359796D01*
X125588227Y-93356196D01*
X125564429Y-93350235D01*
X125541329Y-93341970D01*
X125519151Y-93331480D01*
X125498107Y-93318867D01*
X125478402Y-93304253D01*
X125460223Y-93287777D01*
X125443747Y-93269598D01*
X125429133Y-93249893D01*
X125416520Y-93228849D01*
X125406030Y-93206671D01*
X125397765Y-93183571D01*
X125391804Y-93159773D01*
X125388204Y-93135504D01*
X125387000Y-93111000D01*
X125387000Y-92386000D01*
X125388204Y-92361496D01*
X125391804Y-92337227D01*
X125397765Y-92313429D01*
X125406030Y-92290329D01*
X125416520Y-92268151D01*
X125429133Y-92247107D01*
X125443747Y-92227402D01*
X125460223Y-92209223D01*
X125478402Y-92192747D01*
X125498107Y-92178133D01*
X125519151Y-92165520D01*
X125541329Y-92155030D01*
X125564429Y-92146765D01*
X125588227Y-92140804D01*
X125612496Y-92137204D01*
X125637000Y-92136000D01*
X129887000Y-92136000D01*
X129911504Y-92137204D01*
X129911504Y-92137204D01*
G37*
D31*
X127762000Y-92748500D03*
D32*
X173619000Y-80824200D03*
D33*
X173619000Y-83364200D03*
X171079000Y-80824200D03*
X171079000Y-83364200D03*
X168539000Y-80824200D03*
X168539000Y-83364200D03*
X165999000Y-80824200D03*
X165999000Y-83364200D03*
D11*
G36*
X116893927Y-80838207D02*
G01*
X116918257Y-80841816D01*
X116942117Y-80847792D01*
X116965276Y-80856079D01*
X116987511Y-80866595D01*
X117008608Y-80879240D01*
X117028364Y-80893893D01*
X117046589Y-80910411D01*
X117063107Y-80928636D01*
X117077760Y-80948392D01*
X117090405Y-80969489D01*
X117100921Y-80991724D01*
X117109208Y-81014883D01*
X117115184Y-81038743D01*
X117118793Y-81063073D01*
X117120000Y-81087640D01*
X117120000Y-82996360D01*
X117118793Y-83020927D01*
X117115184Y-83045257D01*
X117109208Y-83069117D01*
X117100921Y-83092276D01*
X117090405Y-83114511D01*
X117077760Y-83135608D01*
X117063107Y-83155364D01*
X117046589Y-83173589D01*
X117028364Y-83190107D01*
X117008608Y-83204760D01*
X116987511Y-83217405D01*
X116965276Y-83227921D01*
X116942117Y-83236208D01*
X116918257Y-83242184D01*
X116893927Y-83245793D01*
X116869360Y-83247000D01*
X114270640Y-83247000D01*
X114246073Y-83245793D01*
X114221743Y-83242184D01*
X114197883Y-83236208D01*
X114174724Y-83227921D01*
X114152489Y-83217405D01*
X114131392Y-83204760D01*
X114111636Y-83190107D01*
X114093411Y-83173589D01*
X114076893Y-83155364D01*
X114062240Y-83135608D01*
X114049595Y-83114511D01*
X114039079Y-83092276D01*
X114030792Y-83069117D01*
X114024816Y-83045257D01*
X114021207Y-83020927D01*
X114020000Y-82996360D01*
X114020000Y-81087640D01*
X114021207Y-81063073D01*
X114024816Y-81038743D01*
X114030792Y-81014883D01*
X114039079Y-80991724D01*
X114049595Y-80969489D01*
X114062240Y-80948392D01*
X114076893Y-80928636D01*
X114093411Y-80910411D01*
X114111636Y-80893893D01*
X114131392Y-80879240D01*
X114152489Y-80866595D01*
X114174724Y-80856079D01*
X114197883Y-80847792D01*
X114221743Y-80841816D01*
X114246073Y-80838207D01*
X114270640Y-80837000D01*
X116869360Y-80837000D01*
X116893927Y-80838207D01*
X116893927Y-80838207D01*
G37*
D34*
X115570000Y-82042000D03*
D35*
X116870000Y-81087000D03*
X116870000Y-82997000D03*
X115570000Y-81087000D03*
X115570000Y-82997000D03*
X114270000Y-81087000D03*
X114270000Y-82997000D03*
D36*
X142494000Y-81534000D03*
X147374000Y-81534000D03*
D13*
X139922100Y-93130800D03*
X117347000Y-86201400D03*
X124669300Y-102914700D03*
X126746000Y-100584000D03*
X145542000Y-96520000D03*
X122682000Y-81788000D03*
X122682000Y-84582000D03*
X123190000Y-90932000D03*
X123952000Y-91948000D03*
X148336000Y-77978000D03*
X149352000Y-79248000D03*
X150368000Y-80518000D03*
X138176000Y-80010000D03*
X137414000Y-82042000D03*
X138176000Y-83820000D03*
X136652000Y-85344000D03*
X137459000Y-88093000D03*
X156464000Y-76073000D03*
X154940000Y-76708000D03*
X173675100Y-75184000D03*
X175260000Y-77216000D03*
X175768000Y-75184000D03*
X182372000Y-72644000D03*
X182372000Y-75692000D03*
X176276000Y-67056000D03*
X180340000Y-96012000D03*
X180340000Y-98044000D03*
X180340000Y-100076000D03*
X180340000Y-102108000D03*
X136398000Y-102616000D03*
X135636000Y-99822000D03*
X133604000Y-96139000D03*
X132207000Y-94869000D03*
X120269000Y-68199000D03*
X120523000Y-70231000D03*
X120777000Y-72390000D03*
X141098700Y-93133100D03*
X141256000Y-105378000D03*
X139540400Y-102516900D03*
X140456000Y-101331500D03*
X137551300Y-100665200D03*
X137846000Y-95211500D03*
X133626800Y-76983100D03*
X127762000Y-76200000D03*
X136715500Y-96647000D03*
X142761800Y-98907500D03*
X141295500Y-99973400D03*
X116238900Y-100183100D03*
X113792000Y-105029000D03*
D37*
X112293400Y-77774800D03*
X118825315Y-85644684D03*
D13*
X118603400Y-89301300D03*
D38*
X142494000Y-81534000D02*
X142494000Y-90558900D01*
X142494000Y-90558900D02*
X139922100Y-93130800D01*
D39*
X103406400Y-85663000D02*
X104480000Y-85663000D01*
X104480000Y-85663000D02*
X104630000Y-85513000D01*
X102190000Y-85663000D02*
X103406400Y-85663000D01*
X103406400Y-104555600D02*
X102987000Y-104975000D01*
X103406400Y-104555600D02*
X104418900Y-105568100D01*
X173061500Y-78078100D02*
X164745900Y-78078100D01*
X164745900Y-78078100D02*
X155956000Y-86868000D01*
X173619000Y-79702200D02*
X173619000Y-78635600D01*
X173619000Y-78635600D02*
X173061500Y-78078100D01*
X173061500Y-78078100D02*
X173675100Y-77464500D01*
X173675100Y-77464500D02*
X173675100Y-75184000D01*
X173675100Y-71370900D02*
X172922000Y-70617800D01*
X172922000Y-70617800D02*
X172415000Y-70617800D01*
X108630000Y-81788000D02*
X105990000Y-84428000D01*
X114270000Y-81087000D02*
X109331000Y-81087000D01*
X109331000Y-81087000D02*
X108630000Y-81788000D01*
X108630000Y-81788000D02*
X105990000Y-79148000D01*
X115570000Y-81087000D02*
X114270000Y-81087000D01*
X116870000Y-81087000D02*
X115570000Y-81087000D01*
X116870000Y-82997000D02*
X116870000Y-85724400D01*
X116870000Y-85724400D02*
X117347000Y-86201400D01*
X115570000Y-82997000D02*
X116870000Y-82997000D01*
X114270000Y-82997000D02*
X115570000Y-82997000D01*
X172415000Y-69394200D02*
X172415000Y-70617800D01*
X173619000Y-80824200D02*
X173619000Y-79702200D01*
X179962000Y-107000000D02*
X180555100Y-106406900D01*
X180555100Y-106406900D02*
X180555100Y-105568100D01*
X179582000Y-107380000D02*
X179962000Y-107000000D01*
X156658000Y-105918000D02*
X158120000Y-107380000D01*
X158120000Y-107380000D02*
X179582000Y-107380000D01*
X179582000Y-107380000D02*
X179582000Y-107458800D01*
X179582000Y-107458800D02*
X180555100Y-108431900D01*
X155448000Y-105918000D02*
X156658000Y-105918000D01*
X155448000Y-103378000D02*
X155448000Y-105918000D01*
X115570000Y-81087000D02*
X115570000Y-82042000D01*
X105990000Y-85513000D02*
X104630000Y-85513000D01*
X105990000Y-85513000D02*
X105990000Y-84428000D01*
X105990000Y-78063000D02*
X105990000Y-79148000D01*
X184012000Y-107000000D02*
X183418900Y-106406900D01*
X183418900Y-106406900D02*
X183418900Y-105568100D01*
X184012000Y-107000000D02*
X183418900Y-107593100D01*
X183418900Y-107593100D02*
X183418900Y-108431900D01*
X104418900Y-108431900D02*
X105012000Y-107838800D01*
X105012000Y-107838800D02*
X105012000Y-107000000D01*
X115570000Y-82997000D02*
X115570000Y-82042000D01*
X173675100Y-75184000D02*
X173675100Y-71370900D01*
X101555100Y-69432100D02*
X100962000Y-68839000D01*
X100962000Y-68839000D02*
X100962000Y-68000200D01*
X100962000Y-68000200D02*
X101555100Y-67407100D01*
X101555100Y-67407100D02*
X101555100Y-66568300D01*
X105012000Y-68000200D02*
X104418900Y-67407100D01*
X104418900Y-67407100D02*
X104418900Y-66568300D01*
X105012000Y-68000200D02*
X104418900Y-68593300D01*
X104418900Y-68593300D02*
X104418900Y-69432100D01*
X106805376Y-68000200D02*
X107188000Y-67617576D01*
X102987000Y-68000200D02*
X106805376Y-68000200D01*
X102987000Y-68000200D02*
X103703800Y-68000200D01*
X103703800Y-68000200D02*
X105664000Y-66040000D01*
X102987000Y-68000200D02*
X102987000Y-71999000D01*
X102987000Y-68000200D02*
X102987000Y-68717000D01*
X102987000Y-68717000D02*
X101092000Y-70612000D01*
X117347000Y-86201400D02*
X117347000Y-89211200D01*
X120884300Y-92748500D02*
X124675500Y-92748500D01*
X124675500Y-92748500D02*
X127762000Y-92748500D01*
X117347000Y-89211200D02*
X120884300Y-92748500D01*
X102616000Y-103765200D02*
X103406400Y-104555600D01*
X103406400Y-85663000D02*
X102616000Y-86453400D01*
X102616000Y-86453400D02*
X102616000Y-103765200D01*
D38*
X147374000Y-81534000D02*
X147374000Y-86857800D01*
X147374000Y-86857800D02*
X141098700Y-93133100D01*
D40*
X153924000Y-82042000D02*
X153924000Y-80816700D01*
X167335000Y-69394200D02*
X165996100Y-69394200D01*
X165996100Y-69394200D02*
X154573600Y-80816700D01*
X154573600Y-80816700D02*
X153924000Y-80816700D01*
X180543000Y-80824200D02*
X179267700Y-80824200D01*
X176410500Y-83364200D02*
X176727700Y-83364200D01*
X176727700Y-83364200D02*
X179267700Y-80824200D01*
X173619000Y-83364200D02*
X176410500Y-83364200D01*
X179267700Y-79046902D02*
X179267700Y-80824200D01*
X179267700Y-77601498D02*
X179192999Y-77676199D01*
X179192999Y-78972201D02*
X179267700Y-79046902D01*
X179192999Y-77676199D02*
X179192999Y-78972201D01*
X179267700Y-74154770D02*
X179267700Y-77601498D01*
X167335000Y-69394200D02*
X167335000Y-69012000D01*
X167335000Y-69012000D02*
X168656000Y-67691000D01*
X168656000Y-67691000D02*
X172803930Y-67691000D01*
X172803930Y-67691000D02*
X179267700Y-74154770D01*
D38*
X141256000Y-105378000D02*
X152686000Y-105378000D01*
X152686000Y-105378000D02*
X153162000Y-104902000D01*
X153162000Y-103124000D02*
X155194000Y-101092000D01*
X153162000Y-104902000D02*
X153162000Y-103124000D01*
X155194000Y-101092000D02*
X155448000Y-100838000D01*
D40*
X153924000Y-79375000D02*
X153924000Y-80816700D01*
X142165200Y-67616200D02*
X144145000Y-69596000D01*
X141227000Y-67616200D02*
X142165200Y-67616200D01*
X144145000Y-69596000D02*
X144145000Y-71501000D01*
X144145000Y-71501000D02*
X145923000Y-73279000D01*
X145923000Y-73279000D02*
X147828000Y-73279000D01*
X147828000Y-73279000D02*
X153924000Y-79375000D01*
X176657000Y-104397000D02*
X175036000Y-106018000D01*
X176410500Y-83364200D02*
X176657000Y-83610700D01*
X176657000Y-83610700D02*
X176657000Y-104397000D01*
D39*
X165532400Y-81290800D02*
X144306300Y-102516900D01*
X144306300Y-102516900D02*
X139540400Y-102516900D01*
X165999000Y-80824200D02*
X165532400Y-81290800D01*
X165532400Y-81290800D02*
X167152500Y-82910900D01*
X167152500Y-82910900D02*
X167152500Y-88801500D01*
X167152500Y-88801500D02*
X167036000Y-88918000D01*
X140456000Y-101331500D02*
X144655700Y-101331500D01*
X144655700Y-101331500D02*
X159180500Y-86806700D01*
X159180500Y-86806700D02*
X159180500Y-85997200D01*
X159180500Y-85997200D02*
X165475600Y-79702100D01*
X165475600Y-79702100D02*
X167416900Y-79702100D01*
X167416900Y-79702100D02*
X168539000Y-80824200D01*
X169036000Y-88918000D02*
X169677800Y-88276200D01*
X169677800Y-88276200D02*
X169677800Y-81963000D01*
X169677800Y-81963000D02*
X168539000Y-80824200D01*
X169875000Y-69394200D02*
X168651400Y-69394200D01*
X168651400Y-69394200D02*
X168651400Y-69929500D01*
X168651400Y-69929500D02*
X167870400Y-70710500D01*
X167870400Y-70710500D02*
X166264300Y-70710500D01*
X166264300Y-70710500D02*
X166111300Y-70863500D01*
X166111300Y-70863500D02*
X166111300Y-72031500D01*
X166111300Y-72031500D02*
X153344200Y-84798600D01*
X153344200Y-84798600D02*
X153218800Y-84798600D01*
X153218800Y-84798600D02*
X137551300Y-100466100D01*
X137551300Y-100466100D02*
X137551300Y-100665200D01*
D38*
X137846000Y-95211500D02*
X133626800Y-90992300D01*
X133626800Y-90992300D02*
X133626800Y-76983100D01*
X136715500Y-96647000D02*
X132080000Y-92011500D01*
X132080000Y-80518000D02*
X127762000Y-76200000D01*
X132080000Y-92011500D02*
X132080000Y-80518000D01*
D39*
X142761800Y-98907500D02*
X146372900Y-98907500D01*
X146372900Y-98907500D02*
X158488700Y-86791700D01*
X158488700Y-86791700D02*
X158488700Y-85982300D01*
X158488700Y-85982300D02*
X165284500Y-79186500D01*
X165284500Y-79186500D02*
X169441300Y-79186500D01*
X169441300Y-79186500D02*
X171079000Y-80824200D01*
X171079000Y-83364200D02*
X172210500Y-82232700D01*
X172210500Y-82232700D02*
X172210500Y-80351000D01*
X172210500Y-80351000D02*
X170492800Y-78633300D01*
X170492800Y-78633300D02*
X165130800Y-78633300D01*
X165130800Y-78633300D02*
X157489300Y-86274800D01*
X157489300Y-86274800D02*
X157489300Y-87084200D01*
X157489300Y-87084200D02*
X146459700Y-98113800D01*
X146459700Y-98113800D02*
X142457700Y-98113800D01*
X142457700Y-98113800D02*
X141295500Y-99276000D01*
X141295500Y-99276000D02*
X141295500Y-99973400D01*
X165999000Y-83364200D02*
X164843700Y-83364200D01*
X164843700Y-83364200D02*
X159806600Y-88401300D01*
X159806600Y-88401300D02*
X159806600Y-89442200D01*
X159806600Y-89442200D02*
X163036000Y-92671600D01*
X163036000Y-92671600D02*
X163036000Y-106018000D01*
D38*
X116238900Y-100183100D02*
X116238900Y-102582100D01*
X116238900Y-102582100D02*
X114191999Y-104629001D01*
X114191999Y-104629001D02*
X113792000Y-105029000D01*
D41*
X118825315Y-78617115D02*
X118825315Y-84796156D01*
X118825315Y-84796156D02*
X118825315Y-85644684D01*
X112293400Y-77774800D02*
X117983000Y-77774800D01*
X117983000Y-77774800D02*
X118825315Y-78617115D01*
D39*
X127439800Y-89301300D02*
X127762000Y-89623500D01*
D38*
X118603400Y-89301300D02*
X127439800Y-89301300D01*
D42*
G36*
X179698231Y-65726626D02*
G01*
X181864000Y-67892395D01*
X184029769Y-65726626D01*
X183971831Y-65642000D01*
X184327400Y-65642000D01*
X184327400Y-65987035D01*
X184209374Y-65906231D01*
X182043605Y-68072000D01*
X184209374Y-70237769D01*
X184327400Y-70156964D01*
X184327401Y-104602047D01*
X184266373Y-104541019D01*
X184152768Y-104654624D01*
X183852589Y-104216172D01*
X183273644Y-103905704D01*
X182645254Y-103714148D01*
X181991569Y-103648866D01*
X181337707Y-103712366D01*
X180708797Y-103902208D01*
X180129008Y-104211096D01*
X180121411Y-104216172D01*
X179821231Y-104654626D01*
X181987000Y-106820395D01*
X182001143Y-106806253D01*
X182180748Y-106985858D01*
X182166605Y-107000000D01*
X182180748Y-107014143D01*
X182001143Y-107193748D01*
X181987000Y-107179605D01*
X181972858Y-107193748D01*
X181793253Y-107014143D01*
X181807395Y-107000000D01*
X179641626Y-104834231D01*
X179203172Y-105134411D01*
X178892704Y-105713356D01*
X178701148Y-106341746D01*
X178635866Y-106995431D01*
X178699366Y-107649293D01*
X178889208Y-108278203D01*
X179198096Y-108857992D01*
X179203172Y-108865589D01*
X179641624Y-109165768D01*
X179528019Y-109279373D01*
X179570646Y-109322000D01*
X176127000Y-109322000D01*
X176127000Y-107046341D01*
X176200039Y-106973302D01*
X176364042Y-106727853D01*
X176477010Y-106455125D01*
X176534600Y-106165599D01*
X176534600Y-105870401D01*
X176518105Y-105787474D01*
X177252049Y-105053530D01*
X177285817Y-105025817D01*
X177396411Y-104891059D01*
X177478589Y-104737313D01*
X177529195Y-104570490D01*
X177542000Y-104440477D01*
X177542000Y-104440467D01*
X177546281Y-104397001D01*
X177542000Y-104353535D01*
X177542000Y-91257292D01*
X177649940Y-91257292D01*
X177649940Y-91727108D01*
X177741597Y-92187896D01*
X177921387Y-92621949D01*
X178182403Y-93012587D01*
X178514613Y-93344797D01*
X178905251Y-93605813D01*
X179339304Y-93785603D01*
X179800092Y-93877260D01*
X180269908Y-93877260D01*
X180730696Y-93785603D01*
X181164749Y-93605813D01*
X181555387Y-93344797D01*
X181887597Y-93012587D01*
X182148613Y-92621949D01*
X182328403Y-92187896D01*
X182420060Y-91727108D01*
X182420060Y-91257292D01*
X182328403Y-90796504D01*
X182148613Y-90362451D01*
X181887597Y-89971813D01*
X181555387Y-89639603D01*
X181164749Y-89378587D01*
X180730696Y-89198797D01*
X180269908Y-89107140D01*
X179800092Y-89107140D01*
X179339304Y-89198797D01*
X178905251Y-89378587D01*
X178514613Y-89639603D01*
X178182403Y-89971813D01*
X177921387Y-90362451D01*
X177741597Y-90796504D01*
X177649940Y-91257292D01*
X177542000Y-91257292D01*
X177542000Y-83801478D01*
X179281123Y-82062356D01*
X179291815Y-82075385D01*
X179388506Y-82154737D01*
X179498820Y-82213702D01*
X179618518Y-82250012D01*
X179743000Y-82262272D01*
X181343000Y-82262272D01*
X181467482Y-82250012D01*
X181587180Y-82213702D01*
X181697494Y-82154737D01*
X181794185Y-82075385D01*
X181873537Y-81978694D01*
X181932502Y-81868380D01*
X181968812Y-81748682D01*
X181981072Y-81624200D01*
X181981072Y-80024200D01*
X181968812Y-79899718D01*
X181932502Y-79780020D01*
X181873537Y-79669706D01*
X181794185Y-79573015D01*
X181697494Y-79493663D01*
X181587180Y-79434698D01*
X181467482Y-79398388D01*
X181343000Y-79386128D01*
X181335785Y-79386128D01*
X181356097Y-79316902D01*
X180543000Y-78503805D01*
X180528858Y-78517948D01*
X180349253Y-78338343D01*
X180363395Y-78324200D01*
X180722605Y-78324200D01*
X181535702Y-79137297D01*
X181779671Y-79065714D01*
X181900571Y-78810204D01*
X181969300Y-78536016D01*
X181983217Y-78253688D01*
X181941787Y-77974070D01*
X181846603Y-77707908D01*
X181779671Y-77582686D01*
X181535702Y-77511103D01*
X180722605Y-78324200D01*
X180363395Y-78324200D01*
X180349253Y-78310058D01*
X180528858Y-78130453D01*
X180543000Y-78144595D01*
X181356097Y-77331498D01*
X181284514Y-77087529D01*
X181029004Y-76966629D01*
X180754816Y-76897900D01*
X180472488Y-76883983D01*
X180192870Y-76925413D01*
X180152700Y-76939778D01*
X180152700Y-74198235D01*
X180156981Y-74154769D01*
X180152700Y-74111303D01*
X180152700Y-74111293D01*
X180139895Y-73981280D01*
X180089289Y-73814457D01*
X180007111Y-73660711D01*
X179896517Y-73525953D01*
X179862751Y-73498242D01*
X176781883Y-70417374D01*
X179698231Y-70417374D01*
X179998411Y-70855828D01*
X180577356Y-71166296D01*
X181205746Y-71357852D01*
X181859431Y-71423134D01*
X182513293Y-71359634D01*
X183142203Y-71169792D01*
X183721992Y-70860904D01*
X183729589Y-70855828D01*
X184029769Y-70417374D01*
X181864000Y-68251605D01*
X179698231Y-70417374D01*
X176781883Y-70417374D01*
X174431940Y-68067431D01*
X178512866Y-68067431D01*
X178576366Y-68721293D01*
X178766208Y-69350203D01*
X179075096Y-69929992D01*
X179080172Y-69937589D01*
X179518626Y-70237769D01*
X181684395Y-68072000D01*
X179518626Y-65906231D01*
X179080172Y-66206411D01*
X178769704Y-66785356D01*
X178578148Y-67413746D01*
X178512866Y-68067431D01*
X174431940Y-68067431D01*
X173460464Y-67095956D01*
X173432747Y-67062183D01*
X173297989Y-66951589D01*
X173144243Y-66869411D01*
X172977420Y-66818805D01*
X172847407Y-66806000D01*
X172847399Y-66806000D01*
X172803930Y-66801719D01*
X172760461Y-66806000D01*
X168699465Y-66806000D01*
X168655999Y-66801719D01*
X168612533Y-66806000D01*
X168612523Y-66806000D01*
X168482510Y-66818805D01*
X168315687Y-66869411D01*
X168161941Y-66951589D01*
X168155439Y-66956925D01*
X168060953Y-67034468D01*
X168060951Y-67034470D01*
X168027183Y-67062183D01*
X167999470Y-67095951D01*
X167193096Y-67902326D01*
X167041223Y-67917284D01*
X166758736Y-68002975D01*
X166498394Y-68142131D01*
X166270203Y-68329403D01*
X166122647Y-68509200D01*
X166039565Y-68509200D01*
X165996099Y-68504919D01*
X165952633Y-68509200D01*
X165952623Y-68509200D01*
X165822610Y-68522005D01*
X165655787Y-68572611D01*
X165502041Y-68654789D01*
X165502039Y-68654790D01*
X165502040Y-68654790D01*
X165401053Y-68737668D01*
X165401051Y-68737670D01*
X165367283Y-68765383D01*
X165339570Y-68799151D01*
X154808839Y-79329883D01*
X154796195Y-79201510D01*
X154745589Y-79034687D01*
X154663411Y-78880941D01*
X154653811Y-78869243D01*
X154580532Y-78779953D01*
X154580530Y-78779951D01*
X154552817Y-78746183D01*
X154519051Y-78718472D01*
X150222579Y-74422000D01*
X152532299Y-74422000D01*
X152559040Y-74693507D01*
X152638236Y-74954581D01*
X152766843Y-75195188D01*
X152939919Y-75406081D01*
X153150812Y-75579157D01*
X153391419Y-75707764D01*
X153652493Y-75786960D01*
X153855963Y-75807000D01*
X153992037Y-75807000D01*
X154195507Y-75786960D01*
X154456581Y-75707764D01*
X154697188Y-75579157D01*
X154908081Y-75406081D01*
X155081157Y-75195188D01*
X155209764Y-74954581D01*
X155288960Y-74693507D01*
X155315701Y-74422000D01*
X155288960Y-74150493D01*
X155209764Y-73889419D01*
X155081157Y-73648812D01*
X154908081Y-73437919D01*
X154697188Y-73264843D01*
X154456581Y-73136236D01*
X154195507Y-73057040D01*
X153992037Y-73037000D01*
X153855963Y-73037000D01*
X153652493Y-73057040D01*
X153391419Y-73136236D01*
X153150812Y-73264843D01*
X152939919Y-73437919D01*
X152766843Y-73648812D01*
X152638236Y-73889419D01*
X152559040Y-74150493D01*
X152532299Y-74422000D01*
X150222579Y-74422000D01*
X148484534Y-72683956D01*
X148456817Y-72650183D01*
X148322059Y-72539589D01*
X148168313Y-72457411D01*
X148001490Y-72406805D01*
X147871477Y-72394000D01*
X147871469Y-72394000D01*
X147828000Y-72389719D01*
X147784531Y-72394000D01*
X147760104Y-72394000D01*
X148029998Y-72213663D01*
X148271663Y-71971998D01*
X148461537Y-71687831D01*
X148592325Y-71372081D01*
X148659000Y-71036883D01*
X148659000Y-70695117D01*
X148592325Y-70359919D01*
X148461537Y-70044169D01*
X148331034Y-69848857D01*
X148607158Y-69793932D01*
X148877411Y-69681990D01*
X149120632Y-69519475D01*
X149245710Y-69394397D01*
X151825208Y-69394397D01*
X151902843Y-69643472D01*
X152166883Y-69769371D01*
X152450411Y-69841339D01*
X152519573Y-69844955D01*
X152386463Y-70044169D01*
X152255675Y-70359919D01*
X152189000Y-70695117D01*
X152189000Y-71036883D01*
X152255675Y-71372081D01*
X152386463Y-71687831D01*
X152576337Y-71971998D01*
X152818002Y-72213663D01*
X153102169Y-72403537D01*
X153417919Y-72534325D01*
X153753117Y-72601000D01*
X154094883Y-72601000D01*
X154430081Y-72534325D01*
X154745831Y-72403537D01*
X155029998Y-72213663D01*
X155271663Y-71971998D01*
X155461537Y-71687831D01*
X155592325Y-71372081D01*
X155659000Y-71036883D01*
X155659000Y-70695117D01*
X155592325Y-70359919D01*
X155461537Y-70044169D01*
X155271663Y-69760002D01*
X155029998Y-69518337D01*
X154745831Y-69328463D01*
X154430081Y-69197675D01*
X154094883Y-69131000D01*
X153954408Y-69131000D01*
X154077371Y-68873117D01*
X154149339Y-68589589D01*
X154164611Y-68297469D01*
X154122599Y-68007981D01*
X154024919Y-67732253D01*
X153951472Y-67594843D01*
X153702397Y-67517208D01*
X152853605Y-68366000D01*
X152867748Y-68380143D01*
X152688143Y-68559748D01*
X152674000Y-68545605D01*
X151825208Y-69394397D01*
X149245710Y-69394397D01*
X149327475Y-69312632D01*
X149489990Y-69069411D01*
X149601932Y-68799158D01*
X149659000Y-68512260D01*
X149659000Y-68434531D01*
X151183389Y-68434531D01*
X151225401Y-68724019D01*
X151323081Y-68999747D01*
X151396528Y-69137157D01*
X151645603Y-69214792D01*
X152494395Y-68366000D01*
X151645603Y-67517208D01*
X151396528Y-67594843D01*
X151270629Y-67858883D01*
X151198661Y-68142411D01*
X151183389Y-68434531D01*
X149659000Y-68434531D01*
X149659000Y-68219740D01*
X149601932Y-67932842D01*
X149489990Y-67662589D01*
X149327475Y-67419368D01*
X149245710Y-67337603D01*
X151825208Y-67337603D01*
X152674000Y-68186395D01*
X153522792Y-67337603D01*
X153445157Y-67088528D01*
X153181117Y-66962629D01*
X152897589Y-66890661D01*
X152605469Y-66875389D01*
X152315981Y-66917401D01*
X152040253Y-67015081D01*
X151902843Y-67088528D01*
X151825208Y-67337603D01*
X149245710Y-67337603D01*
X149120632Y-67212525D01*
X148877411Y-67050010D01*
X148607158Y-66938068D01*
X148320260Y-66881000D01*
X148027740Y-66881000D01*
X147740842Y-66938068D01*
X147470589Y-67050010D01*
X147227368Y-67212525D01*
X147020525Y-67419368D01*
X146858010Y-67662589D01*
X146746068Y-67932842D01*
X146689000Y-68219740D01*
X146689000Y-68512260D01*
X146746068Y-68799158D01*
X146858010Y-69069411D01*
X146899162Y-69131000D01*
X146753117Y-69131000D01*
X146417919Y-69197675D01*
X146102169Y-69328463D01*
X145818002Y-69518337D01*
X145576337Y-69760002D01*
X145386463Y-70044169D01*
X145255675Y-70359919D01*
X145189000Y-70695117D01*
X145189000Y-71036883D01*
X145252699Y-71357121D01*
X145030000Y-71134422D01*
X145030000Y-69639466D01*
X145034281Y-69595999D01*
X145030000Y-69552533D01*
X145030000Y-69552523D01*
X145017195Y-69422510D01*
X144966589Y-69255687D01*
X144884411Y-69101941D01*
X144830797Y-69036613D01*
X144801532Y-69000953D01*
X144801530Y-69000951D01*
X144773817Y-68967183D01*
X144740050Y-68939471D01*
X142821734Y-67021156D01*
X142794017Y-66987383D01*
X142659259Y-66876789D01*
X142534520Y-66810115D01*
X142419312Y-66637695D01*
X142205505Y-66423888D01*
X141954095Y-66255901D01*
X141674743Y-66140189D01*
X141378184Y-66081200D01*
X141075816Y-66081200D01*
X140779257Y-66140189D01*
X140499905Y-66255901D01*
X140248495Y-66423888D01*
X140034688Y-66637695D01*
X139866701Y-66889105D01*
X139750989Y-67168457D01*
X139692000Y-67465016D01*
X139692000Y-67767384D01*
X139750989Y-68063943D01*
X139866701Y-68343295D01*
X140034688Y-68594705D01*
X140101127Y-68661144D01*
X140082820Y-68666698D01*
X139972506Y-68725663D01*
X139875815Y-68805015D01*
X139796463Y-68901706D01*
X139737498Y-69012020D01*
X139701188Y-69131718D01*
X139688928Y-69256200D01*
X139688928Y-71056200D01*
X139701188Y-71180682D01*
X139737498Y-71300380D01*
X139796463Y-71410694D01*
X139875815Y-71507385D01*
X139972506Y-71586737D01*
X140082820Y-71645702D01*
X140202518Y-71682012D01*
X140327000Y-71694272D01*
X142127000Y-71694272D01*
X142251482Y-71682012D01*
X142371180Y-71645702D01*
X142481494Y-71586737D01*
X142578185Y-71507385D01*
X142657537Y-71410694D01*
X142716502Y-71300380D01*
X142752812Y-71180682D01*
X142765072Y-71056200D01*
X142765072Y-69467651D01*
X143260000Y-69962579D01*
X143260001Y-71457521D01*
X143255719Y-71501000D01*
X143272805Y-71674490D01*
X143323412Y-71841313D01*
X143405590Y-71995059D01*
X143488468Y-72096046D01*
X143488471Y-72096049D01*
X143516184Y-72129817D01*
X143549951Y-72157529D01*
X145266470Y-73874049D01*
X145294183Y-73907817D01*
X145327951Y-73935530D01*
X145327953Y-73935532D01*
X145383696Y-73981279D01*
X145428941Y-74018411D01*
X145582687Y-74100589D01*
X145749510Y-74151195D01*
X145879523Y-74164000D01*
X145879531Y-74164000D01*
X145923000Y-74168281D01*
X145966469Y-74164000D01*
X147461422Y-74164000D01*
X153039000Y-79741579D01*
X153039001Y-80669378D01*
X152929820Y-80702498D01*
X152819506Y-80761463D01*
X152722815Y-80840815D01*
X152643463Y-80937506D01*
X152584498Y-81047820D01*
X152548188Y-81167518D01*
X152535928Y-81292000D01*
X152535928Y-82792000D01*
X152548188Y-82916482D01*
X152584498Y-83036180D01*
X152643463Y-83146494D01*
X152722815Y-83243185D01*
X152819506Y-83322537D01*
X152929820Y-83381502D01*
X153049518Y-83417812D01*
X153174000Y-83430072D01*
X153617137Y-83430072D01*
X152988223Y-84058986D01*
X152920901Y-84079408D01*
X152786317Y-84151344D01*
X152668354Y-84248154D01*
X152644098Y-84277710D01*
X137252439Y-99669370D01*
X137249402Y-99669974D01*
X137061044Y-99747995D01*
X136891526Y-99861263D01*
X136747363Y-100005426D01*
X136634095Y-100174944D01*
X136556074Y-100363302D01*
X136516300Y-100563261D01*
X136516300Y-100767139D01*
X136556074Y-100967098D01*
X136634095Y-101155456D01*
X136747363Y-101324974D01*
X136891526Y-101469137D01*
X137061044Y-101582405D01*
X137249402Y-101660426D01*
X137449361Y-101700200D01*
X137653239Y-101700200D01*
X137853198Y-101660426D01*
X138041556Y-101582405D01*
X138211074Y-101469137D01*
X138355237Y-101324974D01*
X138468505Y-101155456D01*
X138546526Y-100967098D01*
X138586300Y-100767139D01*
X138586300Y-100563261D01*
X138580233Y-100532758D01*
X151927928Y-87185064D01*
X151927928Y-87718000D01*
X151940188Y-87842482D01*
X151976498Y-87962180D01*
X152035463Y-88072494D01*
X152114815Y-88169185D01*
X152211506Y-88248537D01*
X152321820Y-88307502D01*
X152441518Y-88343812D01*
X152566000Y-88356072D01*
X154266000Y-88356072D01*
X154390482Y-88343812D01*
X154510180Y-88307502D01*
X154620494Y-88248537D01*
X154717185Y-88169185D01*
X154796537Y-88072494D01*
X154855502Y-87962180D01*
X154879966Y-87881534D01*
X154955731Y-87965588D01*
X155189080Y-88139641D01*
X155290134Y-88187774D01*
X146138809Y-97339100D01*
X142495752Y-97339100D01*
X142457699Y-97335352D01*
X142305832Y-97350310D01*
X142159801Y-97394608D01*
X142025217Y-97466544D01*
X141907254Y-97563354D01*
X141882998Y-97592911D01*
X140774616Y-98701293D01*
X140745054Y-98725554D01*
X140648244Y-98843518D01*
X140576308Y-98978102D01*
X140532010Y-99124132D01*
X140532010Y-99124133D01*
X140517052Y-99276000D01*
X140518140Y-99287049D01*
X140491563Y-99313626D01*
X140378295Y-99483144D01*
X140300274Y-99671502D01*
X140260500Y-99871461D01*
X140260500Y-100075339D01*
X140300274Y-100275298D01*
X140312482Y-100304771D01*
X140154102Y-100336274D01*
X139965744Y-100414295D01*
X139796226Y-100527563D01*
X139652063Y-100671726D01*
X139538795Y-100841244D01*
X139460774Y-101029602D01*
X139421000Y-101229561D01*
X139421000Y-101433439D01*
X139430937Y-101483397D01*
X139238502Y-101521674D01*
X139050144Y-101599695D01*
X138880626Y-101712963D01*
X138736463Y-101857126D01*
X138623195Y-102026644D01*
X138545174Y-102215002D01*
X138505400Y-102414961D01*
X138505400Y-102618839D01*
X138545174Y-102818798D01*
X138623195Y-103007156D01*
X138736463Y-103176674D01*
X138880626Y-103320837D01*
X139050144Y-103434105D01*
X139238502Y-103512126D01*
X139438461Y-103551900D01*
X139642339Y-103551900D01*
X139842298Y-103512126D01*
X140030656Y-103434105D01*
X140200174Y-103320837D01*
X140229411Y-103291600D01*
X144268247Y-103291600D01*
X144306300Y-103295348D01*
X144344353Y-103291600D01*
X144458168Y-103280390D01*
X144604199Y-103236092D01*
X144738783Y-103164156D01*
X144856746Y-103067346D01*
X144881007Y-103037784D01*
X154090425Y-93828366D01*
X154207294Y-94047014D01*
X154392866Y-94273134D01*
X154618986Y-94458706D01*
X154673791Y-94488000D01*
X154618986Y-94517294D01*
X154392866Y-94702866D01*
X154207294Y-94928986D01*
X154069401Y-95186966D01*
X153984487Y-95466889D01*
X153955815Y-95758000D01*
X153984487Y-96049111D01*
X154069401Y-96329034D01*
X154207294Y-96587014D01*
X154392866Y-96813134D01*
X154618986Y-96998706D01*
X154673791Y-97028000D01*
X154618986Y-97057294D01*
X154392866Y-97242866D01*
X154207294Y-97468986D01*
X154069401Y-97726966D01*
X153984487Y-98006889D01*
X153955815Y-98298000D01*
X153984487Y-98589111D01*
X154069401Y-98869034D01*
X154207294Y-99127014D01*
X154392866Y-99353134D01*
X154618986Y-99538706D01*
X154673791Y-99568000D01*
X154618986Y-99597294D01*
X154392866Y-99782866D01*
X154207294Y-100008986D01*
X154069401Y-100266966D01*
X153984487Y-100546889D01*
X153955815Y-100838000D01*
X153984487Y-101129111D01*
X153990745Y-101149742D01*
X152617383Y-102523105D01*
X152586473Y-102548472D01*
X152561108Y-102579380D01*
X152485251Y-102671811D01*
X152448329Y-102740889D01*
X152410038Y-102812527D01*
X152385453Y-102893574D01*
X152363721Y-102965213D01*
X152348081Y-103124000D01*
X152352001Y-103163798D01*
X152352000Y-104566488D01*
X152350488Y-104568000D01*
X141906700Y-104568000D01*
X141746256Y-104460795D01*
X141557898Y-104382774D01*
X141357939Y-104343000D01*
X141154061Y-104343000D01*
X140954102Y-104382774D01*
X140765744Y-104460795D01*
X140596226Y-104574063D01*
X140452063Y-104718226D01*
X140338795Y-104887744D01*
X140260774Y-105076102D01*
X140221000Y-105276061D01*
X140221000Y-105479939D01*
X140260774Y-105679898D01*
X140338795Y-105868256D01*
X140452063Y-106037774D01*
X140596226Y-106181937D01*
X140765744Y-106295205D01*
X140954102Y-106373226D01*
X141154061Y-106413000D01*
X141357939Y-106413000D01*
X141557898Y-106373226D01*
X141746256Y-106295205D01*
X141883128Y-106203750D01*
X153963000Y-106203750D01*
X153963000Y-106830542D01*
X153987403Y-106953223D01*
X154035270Y-107068785D01*
X154104763Y-107172789D01*
X154193211Y-107261237D01*
X154297215Y-107330730D01*
X154412777Y-107378597D01*
X154535458Y-107403000D01*
X155162250Y-107403000D01*
X155321000Y-107244250D01*
X155321000Y-106045000D01*
X155575000Y-106045000D01*
X155575000Y-107244250D01*
X155733750Y-107403000D01*
X156360542Y-107403000D01*
X156483223Y-107378597D01*
X156598785Y-107330730D01*
X156702789Y-107261237D01*
X156791237Y-107172789D01*
X156860730Y-107068785D01*
X156908597Y-106953223D01*
X156933000Y-106830542D01*
X156933000Y-106203750D01*
X156774250Y-106045000D01*
X155575000Y-106045000D01*
X155321000Y-106045000D01*
X154121750Y-106045000D01*
X153963000Y-106203750D01*
X141883128Y-106203750D01*
X141906700Y-106188000D01*
X152646212Y-106188000D01*
X152686000Y-106191919D01*
X152725788Y-106188000D01*
X152725791Y-106188000D01*
X152844788Y-106176280D01*
X152997473Y-106129963D01*
X153138189Y-106054749D01*
X153261528Y-105953528D01*
X153286900Y-105922612D01*
X153706614Y-105502898D01*
X153737528Y-105477528D01*
X153838749Y-105354189D01*
X153893748Y-105251293D01*
X153913963Y-105213474D01*
X153926052Y-105173621D01*
X153960280Y-105060788D01*
X153963000Y-105033171D01*
X153963000Y-105632250D01*
X154121750Y-105791000D01*
X155321000Y-105791000D01*
X155321000Y-103505000D01*
X155575000Y-103505000D01*
X155575000Y-105791000D01*
X156774250Y-105791000D01*
X156933000Y-105632250D01*
X156933000Y-105005458D01*
X156908597Y-104882777D01*
X156860730Y-104767215D01*
X156791237Y-104663211D01*
X156702789Y-104574763D01*
X156598785Y-104505270D01*
X156483223Y-104457403D01*
X156462393Y-104453260D01*
X156545588Y-104378269D01*
X156719641Y-104144920D01*
X156844825Y-103882099D01*
X156889476Y-103734890D01*
X156768155Y-103505000D01*
X155575000Y-103505000D01*
X155321000Y-103505000D01*
X155301000Y-103505000D01*
X155301000Y-103251000D01*
X155321000Y-103251000D01*
X155321000Y-103231000D01*
X155575000Y-103231000D01*
X155575000Y-103251000D01*
X156768155Y-103251000D01*
X156889476Y-103021110D01*
X156844825Y-102873901D01*
X156719641Y-102611080D01*
X156545588Y-102377731D01*
X156329355Y-102182822D01*
X156212477Y-102113201D01*
X156277014Y-102078706D01*
X156503134Y-101893134D01*
X156688706Y-101667014D01*
X156826599Y-101409034D01*
X156911513Y-101129111D01*
X156940185Y-100838000D01*
X156911513Y-100546889D01*
X156826599Y-100266966D01*
X156688706Y-100008986D01*
X156503134Y-99782866D01*
X156277014Y-99597294D01*
X156222209Y-99568000D01*
X156277014Y-99538706D01*
X156503134Y-99353134D01*
X156688706Y-99127014D01*
X156826599Y-98869034D01*
X156911513Y-98589111D01*
X156940185Y-98298000D01*
X156911513Y-98006889D01*
X156826599Y-97726966D01*
X156688706Y-97468986D01*
X156503134Y-97242866D01*
X156277014Y-97057294D01*
X156222209Y-97028000D01*
X156277014Y-96998706D01*
X156503134Y-96813134D01*
X156688706Y-96587014D01*
X156826599Y-96329034D01*
X156911513Y-96049111D01*
X156940185Y-95758000D01*
X156911513Y-95466889D01*
X156826599Y-95186966D01*
X156688706Y-94928986D01*
X156503134Y-94702866D01*
X156277014Y-94517294D01*
X156222209Y-94488000D01*
X156277014Y-94458706D01*
X156503134Y-94273134D01*
X156688706Y-94047014D01*
X156826599Y-93789034D01*
X156911513Y-93509111D01*
X156940185Y-93218000D01*
X156911513Y-92926889D01*
X156826599Y-92646966D01*
X156688706Y-92388986D01*
X156503134Y-92162866D01*
X156277014Y-91977294D01*
X156058366Y-91860425D01*
X159031900Y-88886891D01*
X159031901Y-89404137D01*
X159028152Y-89442200D01*
X159043110Y-89594067D01*
X159074401Y-89697218D01*
X159087409Y-89740099D01*
X159159345Y-89874683D01*
X159197684Y-89921399D01*
X159226166Y-89956104D01*
X159256155Y-89992646D01*
X159285711Y-90016902D01*
X159873000Y-90604191D01*
X159873000Y-104458014D01*
X159817906Y-104487463D01*
X159721215Y-104566815D01*
X159641863Y-104663506D01*
X159582898Y-104773820D01*
X159546588Y-104893518D01*
X159534328Y-105018000D01*
X159534328Y-107018000D01*
X159546588Y-107142482D01*
X159582898Y-107262180D01*
X159641863Y-107372494D01*
X159721215Y-107469185D01*
X159817906Y-107548537D01*
X159873000Y-107577986D01*
X159873000Y-109322000D01*
X105403354Y-109322000D01*
X105445981Y-109279373D01*
X105332376Y-109165768D01*
X105770828Y-108865589D01*
X106081296Y-108286644D01*
X106272852Y-107658254D01*
X106338134Y-107004569D01*
X106274634Y-106350707D01*
X106084792Y-105721797D01*
X105775904Y-105142008D01*
X105770828Y-105134411D01*
X105467965Y-104927061D01*
X112757000Y-104927061D01*
X112757000Y-105130939D01*
X112796774Y-105330898D01*
X112874795Y-105519256D01*
X112988063Y-105688774D01*
X113132226Y-105832937D01*
X113301744Y-105946205D01*
X113490102Y-106024226D01*
X113690061Y-106064000D01*
X113893939Y-106064000D01*
X114093898Y-106024226D01*
X114282256Y-105946205D01*
X114451774Y-105832937D01*
X114595937Y-105688774D01*
X114709205Y-105519256D01*
X114787226Y-105330898D01*
X114824871Y-105141641D01*
X116783518Y-103182995D01*
X116814428Y-103157628D01*
X116888521Y-103067345D01*
X116915649Y-103034290D01*
X116990862Y-102893574D01*
X116990863Y-102893573D01*
X117037180Y-102740888D01*
X117048900Y-102621891D01*
X117048900Y-102621889D01*
X117052819Y-102582101D01*
X117048900Y-102542313D01*
X117048900Y-100833800D01*
X117156105Y-100673356D01*
X117234126Y-100484998D01*
X117273900Y-100285039D01*
X117273900Y-100081161D01*
X117234126Y-99881202D01*
X117156105Y-99692844D01*
X117042837Y-99523326D01*
X116898674Y-99379163D01*
X116729156Y-99265895D01*
X116540798Y-99187874D01*
X116340839Y-99148100D01*
X116136961Y-99148100D01*
X115937002Y-99187874D01*
X115748644Y-99265895D01*
X115579126Y-99379163D01*
X115434963Y-99523326D01*
X115321695Y-99692844D01*
X115243674Y-99881202D01*
X115203900Y-100081161D01*
X115203900Y-100285039D01*
X115243674Y-100484998D01*
X115321695Y-100673356D01*
X115428900Y-100833800D01*
X115428901Y-102246586D01*
X113679359Y-103996129D01*
X113490102Y-104033774D01*
X113301744Y-104111795D01*
X113132226Y-104225063D01*
X112988063Y-104369226D01*
X112874795Y-104538744D01*
X112796774Y-104727102D01*
X112757000Y-104927061D01*
X105467965Y-104927061D01*
X105332374Y-104834231D01*
X103166605Y-107000000D01*
X103180748Y-107014143D01*
X103001143Y-107193748D01*
X102987000Y-107179605D01*
X102972858Y-107193748D01*
X102793253Y-107014143D01*
X102807395Y-107000000D01*
X102793253Y-106985858D01*
X102972858Y-106806253D01*
X102987000Y-106820395D01*
X105152769Y-104654626D01*
X104852589Y-104216172D01*
X104273644Y-103905704D01*
X103645254Y-103714148D01*
X102991569Y-103648866D01*
X102337707Y-103712366D01*
X101708797Y-103902208D01*
X101129008Y-104211096D01*
X101121411Y-104216172D01*
X100821232Y-104654624D01*
X100707627Y-104541019D01*
X100647400Y-104601246D01*
X100647400Y-94448000D01*
X102751815Y-94448000D01*
X102780487Y-94739111D01*
X102865401Y-95019034D01*
X103003294Y-95277014D01*
X103188866Y-95503134D01*
X103414986Y-95688706D01*
X103672966Y-95826599D01*
X103952889Y-95911513D01*
X104171050Y-95933000D01*
X104616950Y-95933000D01*
X104835111Y-95911513D01*
X105115034Y-95826599D01*
X105373014Y-95688706D01*
X105599134Y-95503134D01*
X105784706Y-95277014D01*
X105922599Y-95019034D01*
X106007513Y-94739111D01*
X106036185Y-94448000D01*
X106007513Y-94156889D01*
X105922599Y-93876966D01*
X105784706Y-93618986D01*
X105599134Y-93392866D01*
X105535663Y-93340777D01*
X105637386Y-93286405D01*
X105771962Y-93175962D01*
X105882405Y-93041386D01*
X105886219Y-93034250D01*
X124752000Y-93034250D01*
X124752000Y-93423542D01*
X124776403Y-93546223D01*
X124824270Y-93661785D01*
X124893763Y-93765789D01*
X124982211Y-93854237D01*
X125086215Y-93923730D01*
X125201777Y-93971597D01*
X125324458Y-93996000D01*
X127476250Y-93996000D01*
X127635000Y-93837250D01*
X127635000Y-92875500D01*
X127889000Y-92875500D01*
X127889000Y-93837250D01*
X128047750Y-93996000D01*
X130199542Y-93996000D01*
X130322223Y-93971597D01*
X130437785Y-93923730D01*
X130541789Y-93854237D01*
X130630237Y-93765789D01*
X130699730Y-93661785D01*
X130747597Y-93546223D01*
X130772000Y-93423542D01*
X130772000Y-93034250D01*
X130613250Y-92875500D01*
X127889000Y-92875500D01*
X127635000Y-92875500D01*
X124910750Y-92875500D01*
X124752000Y-93034250D01*
X105886219Y-93034250D01*
X105964472Y-92887850D01*
X106015008Y-92721254D01*
X106032072Y-92548000D01*
X106032072Y-92073458D01*
X124752000Y-92073458D01*
X124752000Y-92462750D01*
X124910750Y-92621500D01*
X127635000Y-92621500D01*
X127635000Y-91659750D01*
X127889000Y-91659750D01*
X127889000Y-92621500D01*
X130613250Y-92621500D01*
X130772000Y-92462750D01*
X130772000Y-92073458D01*
X130747597Y-91950777D01*
X130699730Y-91835215D01*
X130630237Y-91731211D01*
X130541789Y-91642763D01*
X130437785Y-91573270D01*
X130322223Y-91525403D01*
X130199542Y-91501000D01*
X128047750Y-91501000D01*
X127889000Y-91659750D01*
X127635000Y-91659750D01*
X127476250Y-91501000D01*
X125324458Y-91501000D01*
X125201777Y-91525403D01*
X125086215Y-91573270D01*
X124982211Y-91642763D01*
X124893763Y-91731211D01*
X124824270Y-91835215D01*
X124776403Y-91950777D01*
X124752000Y-92073458D01*
X106032072Y-92073458D01*
X106032072Y-91348000D01*
X106015008Y-91174746D01*
X105964472Y-91008150D01*
X105882405Y-90854614D01*
X105771962Y-90720038D01*
X105637386Y-90609595D01*
X105483850Y-90527528D01*
X105317254Y-90476992D01*
X105144000Y-90459928D01*
X103644000Y-90459928D01*
X103470746Y-90476992D01*
X103304150Y-90527528D01*
X103150614Y-90609595D01*
X103016038Y-90720038D01*
X102905595Y-90854614D01*
X102823528Y-91008150D01*
X102772992Y-91174746D01*
X102755928Y-91348000D01*
X102755928Y-92548000D01*
X102772992Y-92721254D01*
X102823528Y-92887850D01*
X102905595Y-93041386D01*
X103016038Y-93175962D01*
X103150614Y-93286405D01*
X103252337Y-93340777D01*
X103188866Y-93392866D01*
X103003294Y-93618986D01*
X102865401Y-93876966D01*
X102780487Y-94156889D01*
X102751815Y-94448000D01*
X100647400Y-94448000D01*
X100647400Y-89199361D01*
X117568400Y-89199361D01*
X117568400Y-89403239D01*
X117608174Y-89603198D01*
X117686195Y-89791556D01*
X117799463Y-89961074D01*
X117943626Y-90105237D01*
X118113144Y-90218505D01*
X118301502Y-90296526D01*
X118501461Y-90336300D01*
X118705339Y-90336300D01*
X118905298Y-90296526D01*
X119093656Y-90218505D01*
X119254100Y-90111300D01*
X124761269Y-90111300D01*
X124765992Y-90159254D01*
X124816528Y-90325850D01*
X124898595Y-90479386D01*
X125009038Y-90613962D01*
X125143614Y-90724405D01*
X125297150Y-90806472D01*
X125463746Y-90857008D01*
X125637000Y-90874072D01*
X129887000Y-90874072D01*
X130060254Y-90857008D01*
X130226850Y-90806472D01*
X130380386Y-90724405D01*
X130514962Y-90613962D01*
X130625405Y-90479386D01*
X130707472Y-90325850D01*
X130758008Y-90159254D01*
X130775072Y-89986000D01*
X130775072Y-89261000D01*
X130758008Y-89087746D01*
X130707472Y-88921150D01*
X130625405Y-88767614D01*
X130514962Y-88633038D01*
X130380386Y-88522595D01*
X130226850Y-88440528D01*
X130060254Y-88389992D01*
X129887000Y-88372928D01*
X125637000Y-88372928D01*
X125463746Y-88389992D01*
X125297150Y-88440528D01*
X125202163Y-88491300D01*
X119254100Y-88491300D01*
X119093656Y-88384095D01*
X118905298Y-88306074D01*
X118705339Y-88266300D01*
X118501461Y-88266300D01*
X118301502Y-88306074D01*
X118113144Y-88384095D01*
X117943626Y-88497363D01*
X117799463Y-88641526D01*
X117686195Y-88811044D01*
X117608174Y-88999402D01*
X117568400Y-89199361D01*
X100647400Y-89199361D01*
X100647400Y-85976677D01*
X100696365Y-85976677D01*
X100698504Y-86008715D01*
X100788364Y-86229644D01*
X100919598Y-86428797D01*
X101087163Y-86598521D01*
X101284620Y-86732294D01*
X101504381Y-86824974D01*
X101738000Y-86873000D01*
X102063000Y-86873000D01*
X102063000Y-85790000D01*
X102317000Y-85790000D01*
X102317000Y-86873000D01*
X102642000Y-86873000D01*
X102875619Y-86824974D01*
X103095380Y-86732294D01*
X103292837Y-86598521D01*
X103460402Y-86428797D01*
X103591636Y-86229644D01*
X103681496Y-86008715D01*
X103683635Y-85976677D01*
X103598927Y-85850258D01*
X104397481Y-85850258D01*
X104409922Y-85916117D01*
X104513643Y-86162979D01*
X104663531Y-86384863D01*
X104853827Y-86573242D01*
X105077217Y-86720876D01*
X105325117Y-86822092D01*
X105588000Y-86873000D01*
X105863000Y-86873000D01*
X105863000Y-85640000D01*
X106117000Y-85640000D01*
X106117000Y-86873000D01*
X106392000Y-86873000D01*
X106654883Y-86822092D01*
X106902783Y-86720876D01*
X107126173Y-86573242D01*
X107316469Y-86384863D01*
X107466357Y-86162979D01*
X107570078Y-85916117D01*
X107582519Y-85850258D01*
X107459518Y-85640000D01*
X106117000Y-85640000D01*
X105863000Y-85640000D01*
X104520482Y-85640000D01*
X104397481Y-85850258D01*
X103598927Y-85850258D01*
X103558550Y-85790000D01*
X102317000Y-85790000D01*
X102063000Y-85790000D01*
X100821450Y-85790000D01*
X100696365Y-85976677D01*
X100647400Y-85976677D01*
X100647400Y-85349323D01*
X100696365Y-85349323D01*
X100821450Y-85536000D01*
X102063000Y-85536000D01*
X102063000Y-84453000D01*
X102317000Y-84453000D01*
X102317000Y-85536000D01*
X103558550Y-85536000D01*
X103683635Y-85349323D01*
X103681496Y-85317285D01*
X103591636Y-85096356D01*
X103460402Y-84897203D01*
X103292837Y-84727479D01*
X103095380Y-84593706D01*
X102875619Y-84501026D01*
X102642000Y-84453000D01*
X102317000Y-84453000D01*
X102063000Y-84453000D01*
X101738000Y-84453000D01*
X101504381Y-84501026D01*
X101284620Y-84593706D01*
X101087163Y-84727479D01*
X100919598Y-84897203D01*
X100788364Y-85096356D01*
X100698504Y-85317285D01*
X100696365Y-85349323D01*
X100647400Y-85349323D01*
X100647400Y-84288000D01*
X103899993Y-84288000D01*
X103919976Y-84490895D01*
X103979159Y-84685993D01*
X104075266Y-84865797D01*
X104204604Y-85023396D01*
X104362203Y-85152734D01*
X104398193Y-85171971D01*
X104397481Y-85175742D01*
X104520482Y-85386000D01*
X105863000Y-85386000D01*
X105863000Y-84756789D01*
X105900841Y-84685993D01*
X105960024Y-84490895D01*
X105980007Y-84288000D01*
X105966711Y-84153000D01*
X106117000Y-84153000D01*
X106117000Y-85386000D01*
X107459518Y-85386000D01*
X107582519Y-85175742D01*
X107570078Y-85109883D01*
X107466357Y-84863021D01*
X107316469Y-84641137D01*
X107126173Y-84452758D01*
X106902783Y-84305124D01*
X106654883Y-84203908D01*
X106392000Y-84153000D01*
X106117000Y-84153000D01*
X105966711Y-84153000D01*
X105960024Y-84085105D01*
X105900841Y-83890007D01*
X105804734Y-83710203D01*
X105675396Y-83552604D01*
X105517797Y-83423266D01*
X105337993Y-83327159D01*
X105142895Y-83267976D01*
X104990838Y-83253000D01*
X104889162Y-83253000D01*
X104737105Y-83267976D01*
X104542007Y-83327159D01*
X104362203Y-83423266D01*
X104204604Y-83552604D01*
X104075266Y-83710203D01*
X103979159Y-83890007D01*
X103919976Y-84085105D01*
X103899993Y-84288000D01*
X100647400Y-84288000D01*
X100647400Y-82913009D01*
X113384693Y-82913009D01*
X113385000Y-82998639D01*
X113385000Y-83309542D01*
X113409403Y-83432223D01*
X113457270Y-83547785D01*
X113526763Y-83651789D01*
X113615211Y-83740237D01*
X113719215Y-83809730D01*
X113834777Y-83857597D01*
X113957458Y-83882000D01*
X114184436Y-83882000D01*
X114186009Y-83882307D01*
X114271639Y-83882000D01*
X115284250Y-83882000D01*
X115316943Y-83849307D01*
X115442998Y-83873912D01*
X115442998Y-83882000D01*
X115484436Y-83882000D01*
X115486009Y-83882307D01*
X115571639Y-83882000D01*
X115697002Y-83882000D01*
X115697002Y-83874252D01*
X115822559Y-83848809D01*
X115855750Y-83882000D01*
X116784436Y-83882000D01*
X116786009Y-83882307D01*
X116871639Y-83882000D01*
X117182542Y-83882000D01*
X117305223Y-83857597D01*
X117420785Y-83809730D01*
X117524789Y-83740237D01*
X117613237Y-83651789D01*
X117682730Y-83547785D01*
X117730597Y-83432223D01*
X117755000Y-83309542D01*
X117755000Y-83082564D01*
X117755307Y-83080991D01*
X117755000Y-82995361D01*
X117755000Y-82327750D01*
X117596250Y-82169000D01*
X117183407Y-82169000D01*
X117125092Y-82145090D01*
X116953991Y-82111693D01*
X116779662Y-82112318D01*
X116608805Y-82146941D01*
X116555550Y-82169000D01*
X115883407Y-82169000D01*
X115825092Y-82145090D01*
X115653991Y-82111693D01*
X115479662Y-82112318D01*
X115308805Y-82146941D01*
X115255550Y-82169000D01*
X114583407Y-82169000D01*
X114525092Y-82145090D01*
X114353991Y-82111693D01*
X114179662Y-82112318D01*
X114008805Y-82146941D01*
X113955550Y-82169000D01*
X113543750Y-82169000D01*
X113385000Y-82327750D01*
X113385000Y-82911436D01*
X113384693Y-82913009D01*
X100647400Y-82913009D01*
X100647400Y-81003009D01*
X113384693Y-81003009D01*
X113385000Y-81088639D01*
X113385000Y-81756250D01*
X113543750Y-81915000D01*
X113956593Y-81915000D01*
X114014908Y-81938910D01*
X114186009Y-81972307D01*
X114360338Y-81971682D01*
X114531195Y-81937059D01*
X114584450Y-81915000D01*
X115256593Y-81915000D01*
X115314908Y-81938910D01*
X115486009Y-81972307D01*
X115660338Y-81971682D01*
X115831195Y-81937059D01*
X115884450Y-81915000D01*
X116556593Y-81915000D01*
X116614908Y-81938910D01*
X116786009Y-81972307D01*
X116960338Y-81971682D01*
X117131195Y-81937059D01*
X117184450Y-81915000D01*
X117596250Y-81915000D01*
X117755000Y-81756250D01*
X117755000Y-81172564D01*
X117755307Y-81170991D01*
X117755000Y-81085361D01*
X117755000Y-80774458D01*
X117730597Y-80651777D01*
X117682730Y-80536215D01*
X117613237Y-80432211D01*
X117524789Y-80343763D01*
X117420785Y-80274270D01*
X117305223Y-80226403D01*
X117182542Y-80202000D01*
X116955564Y-80202000D01*
X116953991Y-80201693D01*
X116868361Y-80202000D01*
X115855750Y-80202000D01*
X115823057Y-80234693D01*
X115697002Y-80210088D01*
X115697002Y-80202000D01*
X115655564Y-80202000D01*
X115653991Y-80201693D01*
X115568361Y-80202000D01*
X115442998Y-80202000D01*
X115442998Y-80209748D01*
X115317441Y-80235191D01*
X115284250Y-80202000D01*
X114355564Y-80202000D01*
X114353991Y-80201693D01*
X114268361Y-80202000D01*
X113957458Y-80202000D01*
X113834777Y-80226403D01*
X113719215Y-80274270D01*
X113615211Y-80343763D01*
X113526763Y-80432211D01*
X113457270Y-80536215D01*
X113409403Y-80651777D01*
X113385000Y-80774458D01*
X113385000Y-81001436D01*
X113384693Y-81003009D01*
X100647400Y-81003009D01*
X100647400Y-79288000D01*
X103899993Y-79288000D01*
X103919976Y-79490895D01*
X103979159Y-79685993D01*
X104075266Y-79865797D01*
X104204604Y-80023396D01*
X104362203Y-80152734D01*
X104542007Y-80248841D01*
X104737105Y-80308024D01*
X104889162Y-80323000D01*
X104990838Y-80323000D01*
X105142895Y-80308024D01*
X105337993Y-80248841D01*
X105517797Y-80152734D01*
X105675396Y-80023396D01*
X105804734Y-79865797D01*
X105900841Y-79685993D01*
X105960024Y-79490895D01*
X105980007Y-79288000D01*
X105960024Y-79085105D01*
X105900841Y-78890007D01*
X105863000Y-78819211D01*
X105863000Y-78190000D01*
X106117000Y-78190000D01*
X106117000Y-79423000D01*
X106392000Y-79423000D01*
X106654883Y-79372092D01*
X106902783Y-79270876D01*
X107126173Y-79123242D01*
X107316469Y-78934863D01*
X107466357Y-78712979D01*
X107570078Y-78466117D01*
X107582519Y-78400258D01*
X107459518Y-78190000D01*
X106117000Y-78190000D01*
X105863000Y-78190000D01*
X104520482Y-78190000D01*
X104397481Y-78400258D01*
X104398193Y-78404029D01*
X104362203Y-78423266D01*
X104204604Y-78552604D01*
X104075266Y-78710203D01*
X103979159Y-78890007D01*
X103919976Y-79085105D01*
X103899993Y-79288000D01*
X100647400Y-79288000D01*
X100647400Y-78226677D01*
X100696365Y-78226677D01*
X100698504Y-78258715D01*
X100788364Y-78479644D01*
X100919598Y-78678797D01*
X101087163Y-78848521D01*
X101284620Y-78982294D01*
X101504381Y-79074974D01*
X101738000Y-79123000D01*
X102063000Y-79123000D01*
X102063000Y-78040000D01*
X102317000Y-78040000D01*
X102317000Y-79123000D01*
X102642000Y-79123000D01*
X102875619Y-79074974D01*
X103095380Y-78982294D01*
X103292837Y-78848521D01*
X103460402Y-78678797D01*
X103591636Y-78479644D01*
X103681496Y-78258715D01*
X103683635Y-78226677D01*
X103558550Y-78040000D01*
X102317000Y-78040000D01*
X102063000Y-78040000D01*
X100821450Y-78040000D01*
X100696365Y-78226677D01*
X100647400Y-78226677D01*
X100647400Y-77599323D01*
X100696365Y-77599323D01*
X100821450Y-77786000D01*
X102063000Y-77786000D01*
X102063000Y-76703000D01*
X102317000Y-76703000D01*
X102317000Y-77786000D01*
X103558550Y-77786000D01*
X103598926Y-77725742D01*
X104397481Y-77725742D01*
X104520482Y-77936000D01*
X105863000Y-77936000D01*
X105863000Y-76703000D01*
X106117000Y-76703000D01*
X106117000Y-77936000D01*
X107459518Y-77936000D01*
X107582519Y-77725742D01*
X107570078Y-77659883D01*
X107567255Y-77653163D01*
X111058400Y-77653163D01*
X111058400Y-77896437D01*
X111105860Y-78135036D01*
X111198957Y-78359792D01*
X111334113Y-78562067D01*
X111506133Y-78734087D01*
X111708408Y-78869243D01*
X111933164Y-78962340D01*
X112171763Y-79009800D01*
X112415037Y-79009800D01*
X112653636Y-78962340D01*
X112878392Y-78869243D01*
X112967355Y-78809800D01*
X117554290Y-78809800D01*
X117790315Y-79045826D01*
X117790316Y-84745309D01*
X117790315Y-84745319D01*
X117790315Y-84970729D01*
X117730872Y-85059692D01*
X117637775Y-85284448D01*
X117590315Y-85523047D01*
X117590315Y-85766321D01*
X117637775Y-86004920D01*
X117730872Y-86229676D01*
X117866028Y-86431951D01*
X118038048Y-86603971D01*
X118240323Y-86739127D01*
X118465079Y-86832224D01*
X118703678Y-86879684D01*
X118946952Y-86879684D01*
X119185551Y-86832224D01*
X119410307Y-86739127D01*
X119612582Y-86603971D01*
X119784602Y-86431951D01*
X119919758Y-86229676D01*
X120012855Y-86004920D01*
X120060315Y-85766321D01*
X120060315Y-85523047D01*
X120012855Y-85284448D01*
X119919758Y-85059692D01*
X119860315Y-84970729D01*
X119860315Y-78667942D01*
X119865321Y-78617114D01*
X119860315Y-78566286D01*
X119860315Y-78566277D01*
X119845339Y-78414220D01*
X119786156Y-78219122D01*
X119741211Y-78135036D01*
X119690049Y-78039317D01*
X119593118Y-77921207D01*
X119560711Y-77881719D01*
X119521223Y-77849312D01*
X118750807Y-77078897D01*
X118718396Y-77039404D01*
X118560797Y-76910066D01*
X118380993Y-76813959D01*
X118185895Y-76754776D01*
X118033838Y-76739800D01*
X118033828Y-76739800D01*
X117983000Y-76734794D01*
X117932172Y-76739800D01*
X112967355Y-76739800D01*
X112878392Y-76680357D01*
X112653636Y-76587260D01*
X112415037Y-76539800D01*
X112171763Y-76539800D01*
X111933164Y-76587260D01*
X111708408Y-76680357D01*
X111506133Y-76815513D01*
X111334113Y-76987533D01*
X111198957Y-77189808D01*
X111105860Y-77414564D01*
X111058400Y-77653163D01*
X107567255Y-77653163D01*
X107466357Y-77413021D01*
X107316469Y-77191137D01*
X107126173Y-77002758D01*
X106902783Y-76855124D01*
X106654883Y-76753908D01*
X106392000Y-76703000D01*
X106117000Y-76703000D01*
X105863000Y-76703000D01*
X105588000Y-76703000D01*
X105325117Y-76753908D01*
X105077217Y-76855124D01*
X104853827Y-77002758D01*
X104663531Y-77191137D01*
X104513643Y-77413021D01*
X104409922Y-77659883D01*
X104397481Y-77725742D01*
X103598926Y-77725742D01*
X103683635Y-77599323D01*
X103681496Y-77567285D01*
X103591636Y-77346356D01*
X103460402Y-77147203D01*
X103292837Y-76977479D01*
X103095380Y-76843706D01*
X102875619Y-76751026D01*
X102642000Y-76703000D01*
X102317000Y-76703000D01*
X102063000Y-76703000D01*
X101738000Y-76703000D01*
X101504381Y-76751026D01*
X101284620Y-76843706D01*
X101087163Y-76977479D01*
X100919598Y-77147203D01*
X100788364Y-77346356D01*
X100698504Y-77567285D01*
X100696365Y-77599323D01*
X100647400Y-77599323D01*
X100647400Y-76098061D01*
X126727000Y-76098061D01*
X126727000Y-76301939D01*
X126766774Y-76501898D01*
X126844795Y-76690256D01*
X126958063Y-76859774D01*
X127102226Y-77003937D01*
X127271744Y-77117205D01*
X127460102Y-77195226D01*
X127649359Y-77232871D01*
X131270001Y-80853514D01*
X131270000Y-91971712D01*
X131266081Y-92011500D01*
X131270000Y-92051288D01*
X131270000Y-92051290D01*
X131281720Y-92170287D01*
X131328037Y-92322972D01*
X131355152Y-92373700D01*
X131403251Y-92463689D01*
X131434703Y-92502013D01*
X131504472Y-92587028D01*
X131535388Y-92612400D01*
X135682629Y-96759642D01*
X135720274Y-96948898D01*
X135798295Y-97137256D01*
X135911563Y-97306774D01*
X136055726Y-97450937D01*
X136225244Y-97564205D01*
X136413602Y-97642226D01*
X136613561Y-97682000D01*
X136817439Y-97682000D01*
X137017398Y-97642226D01*
X137205756Y-97564205D01*
X137375274Y-97450937D01*
X137519437Y-97306774D01*
X137632705Y-97137256D01*
X137710726Y-96948898D01*
X137750500Y-96748939D01*
X137750500Y-96545061D01*
X137710726Y-96345102D01*
X137663223Y-96230420D01*
X137744061Y-96246500D01*
X137947939Y-96246500D01*
X138147898Y-96206726D01*
X138336256Y-96128705D01*
X138505774Y-96015437D01*
X138649937Y-95871274D01*
X138763205Y-95701756D01*
X138841226Y-95513398D01*
X138881000Y-95313439D01*
X138881000Y-95109561D01*
X138841226Y-94909602D01*
X138763205Y-94721244D01*
X138649937Y-94551726D01*
X138505774Y-94407563D01*
X138336256Y-94294295D01*
X138147898Y-94216274D01*
X137958642Y-94178629D01*
X136808874Y-93028861D01*
X138887100Y-93028861D01*
X138887100Y-93232739D01*
X138926874Y-93432698D01*
X139004895Y-93621056D01*
X139118163Y-93790574D01*
X139262326Y-93934737D01*
X139431844Y-94048005D01*
X139620202Y-94126026D01*
X139820161Y-94165800D01*
X140024039Y-94165800D01*
X140223998Y-94126026D01*
X140412356Y-94048005D01*
X140508679Y-93983644D01*
X140608444Y-94050305D01*
X140796802Y-94128326D01*
X140996761Y-94168100D01*
X141200639Y-94168100D01*
X141400598Y-94128326D01*
X141588956Y-94050305D01*
X141758474Y-93937037D01*
X141902637Y-93792874D01*
X142015905Y-93623356D01*
X142093926Y-93434998D01*
X142131571Y-93245741D01*
X147918618Y-87458695D01*
X147949528Y-87433328D01*
X148024359Y-87342146D01*
X148050749Y-87309990D01*
X148125962Y-87169274D01*
X148125963Y-87169273D01*
X148172280Y-87016588D01*
X148184000Y-86897591D01*
X148184000Y-86897589D01*
X148187919Y-86857801D01*
X148184000Y-86818013D01*
X148184000Y-82658500D01*
X148256886Y-82609799D01*
X148449799Y-82416886D01*
X148601371Y-82190043D01*
X148705775Y-81937989D01*
X148759000Y-81670411D01*
X148759000Y-81397589D01*
X148705775Y-81130011D01*
X148601371Y-80877957D01*
X148449799Y-80651114D01*
X148256886Y-80458201D01*
X148030043Y-80306629D01*
X147777989Y-80202225D01*
X147510411Y-80149000D01*
X147237589Y-80149000D01*
X146970011Y-80202225D01*
X146717957Y-80306629D01*
X146491114Y-80458201D01*
X146298201Y-80651114D01*
X146146629Y-80877957D01*
X146042225Y-81130011D01*
X145989000Y-81397589D01*
X145989000Y-81670411D01*
X146042225Y-81937989D01*
X146146629Y-82190043D01*
X146298201Y-82416886D01*
X146491114Y-82609799D01*
X146564000Y-82658500D01*
X146564001Y-86522286D01*
X143304000Y-89782288D01*
X143304000Y-82658500D01*
X143376886Y-82609799D01*
X143569799Y-82416886D01*
X143721371Y-82190043D01*
X143825775Y-81937989D01*
X143879000Y-81670411D01*
X143879000Y-81397589D01*
X143825775Y-81130011D01*
X143721371Y-80877957D01*
X143569799Y-80651114D01*
X143376886Y-80458201D01*
X143150043Y-80306629D01*
X142897989Y-80202225D01*
X142630411Y-80149000D01*
X142357589Y-80149000D01*
X142090011Y-80202225D01*
X141837957Y-80306629D01*
X141611114Y-80458201D01*
X141418201Y-80651114D01*
X141266629Y-80877957D01*
X141162225Y-81130011D01*
X141109000Y-81397589D01*
X141109000Y-81670411D01*
X141162225Y-81937989D01*
X141266629Y-82190043D01*
X141418201Y-82416886D01*
X141611114Y-82609799D01*
X141684000Y-82658500D01*
X141684001Y-90223386D01*
X139809459Y-92097929D01*
X139620202Y-92135574D01*
X139431844Y-92213595D01*
X139262326Y-92326863D01*
X139118163Y-92471026D01*
X139004895Y-92640544D01*
X138926874Y-92828902D01*
X138887100Y-93028861D01*
X136808874Y-93028861D01*
X134436800Y-90656788D01*
X134436800Y-77633800D01*
X134544005Y-77473356D01*
X134622026Y-77284998D01*
X134661800Y-77085039D01*
X134661800Y-76881161D01*
X134622026Y-76681202D01*
X134544005Y-76492844D01*
X134430737Y-76323326D01*
X134286574Y-76179163D01*
X134117056Y-76065895D01*
X133928698Y-75987874D01*
X133728739Y-75948100D01*
X133524861Y-75948100D01*
X133324902Y-75987874D01*
X133136544Y-76065895D01*
X132967026Y-76179163D01*
X132822863Y-76323326D01*
X132709595Y-76492844D01*
X132631574Y-76681202D01*
X132591800Y-76881161D01*
X132591800Y-77085039D01*
X132631574Y-77284998D01*
X132709595Y-77473356D01*
X132816801Y-77633801D01*
X132816801Y-80178160D01*
X132777701Y-80105009D01*
X132756749Y-80065810D01*
X132698727Y-79995111D01*
X132655528Y-79942472D01*
X132624618Y-79917105D01*
X128794871Y-76087359D01*
X128757226Y-75898102D01*
X128679205Y-75709744D01*
X128565937Y-75540226D01*
X128421774Y-75396063D01*
X128252256Y-75282795D01*
X128063898Y-75204774D01*
X127863939Y-75165000D01*
X127660061Y-75165000D01*
X127460102Y-75204774D01*
X127271744Y-75282795D01*
X127102226Y-75396063D01*
X126958063Y-75540226D01*
X126844795Y-75709744D01*
X126766774Y-75898102D01*
X126727000Y-76098061D01*
X100647400Y-76098061D01*
X100647400Y-70398954D01*
X100707627Y-70459181D01*
X100821232Y-70345576D01*
X101121411Y-70784028D01*
X101700356Y-71094496D01*
X102328746Y-71286052D01*
X102982431Y-71351334D01*
X103636293Y-71287834D01*
X104265203Y-71097992D01*
X104844992Y-70789104D01*
X104852589Y-70784028D01*
X105152769Y-70345574D01*
X102987000Y-68179805D01*
X102972858Y-68193948D01*
X102793253Y-68014343D01*
X102807395Y-68000200D01*
X102793253Y-67986058D01*
X102972858Y-67806453D01*
X102987000Y-67820595D01*
X103001143Y-67806453D01*
X103180748Y-67986058D01*
X103166605Y-68000200D01*
X105332374Y-70165969D01*
X105770828Y-69865789D01*
X106081296Y-69286844D01*
X106090637Y-69256200D01*
X123686928Y-69256200D01*
X123686928Y-71056200D01*
X123699188Y-71180682D01*
X123735498Y-71300380D01*
X123794463Y-71410694D01*
X123873815Y-71507385D01*
X123970506Y-71586737D01*
X124080820Y-71645702D01*
X124200518Y-71682012D01*
X124325000Y-71694272D01*
X126125000Y-71694272D01*
X126249482Y-71682012D01*
X126369180Y-71645702D01*
X126479494Y-71586737D01*
X126576185Y-71507385D01*
X126655537Y-71410694D01*
X126714502Y-71300380D01*
X126750812Y-71180682D01*
X126763072Y-71056200D01*
X126763072Y-69256200D01*
X131684928Y-69256200D01*
X131684928Y-71056200D01*
X131697188Y-71180682D01*
X131733498Y-71300380D01*
X131792463Y-71410694D01*
X131871815Y-71507385D01*
X131968506Y-71586737D01*
X132078820Y-71645702D01*
X132198518Y-71682012D01*
X132323000Y-71694272D01*
X134123000Y-71694272D01*
X134247482Y-71682012D01*
X134367180Y-71645702D01*
X134477494Y-71586737D01*
X134574185Y-71507385D01*
X134653537Y-71410694D01*
X134712502Y-71300380D01*
X134748812Y-71180682D01*
X134761072Y-71056200D01*
X134761072Y-69256200D01*
X134748812Y-69131718D01*
X134712502Y-69012020D01*
X134653537Y-68901706D01*
X134574185Y-68805015D01*
X134477494Y-68725663D01*
X134367180Y-68666698D01*
X134348873Y-68661144D01*
X134415312Y-68594705D01*
X134583299Y-68343295D01*
X134699011Y-68063943D01*
X134758000Y-67767384D01*
X134758000Y-67465016D01*
X134699011Y-67168457D01*
X134583299Y-66889105D01*
X134415312Y-66637695D01*
X134201505Y-66423888D01*
X133950095Y-66255901D01*
X133670743Y-66140189D01*
X133374184Y-66081200D01*
X133071816Y-66081200D01*
X132775257Y-66140189D01*
X132495905Y-66255901D01*
X132244495Y-66423888D01*
X132030688Y-66637695D01*
X131862701Y-66889105D01*
X131746989Y-67168457D01*
X131688000Y-67465016D01*
X131688000Y-67767384D01*
X131746989Y-68063943D01*
X131862701Y-68343295D01*
X132030688Y-68594705D01*
X132097127Y-68661144D01*
X132078820Y-68666698D01*
X131968506Y-68725663D01*
X131871815Y-68805015D01*
X131792463Y-68901706D01*
X131733498Y-69012020D01*
X131697188Y-69131718D01*
X131684928Y-69256200D01*
X126763072Y-69256200D01*
X126750812Y-69131718D01*
X126714502Y-69012020D01*
X126655537Y-68901706D01*
X126576185Y-68805015D01*
X126479494Y-68725663D01*
X126369180Y-68666698D01*
X126350873Y-68661144D01*
X126417312Y-68594705D01*
X126585299Y-68343295D01*
X126701011Y-68063943D01*
X126760000Y-67767384D01*
X126760000Y-67465016D01*
X126701011Y-67168457D01*
X126585299Y-66889105D01*
X126417312Y-66637695D01*
X126203505Y-66423888D01*
X125952095Y-66255901D01*
X125672743Y-66140189D01*
X125376184Y-66081200D01*
X125073816Y-66081200D01*
X124777257Y-66140189D01*
X124497905Y-66255901D01*
X124246495Y-66423888D01*
X124032688Y-66637695D01*
X123864701Y-66889105D01*
X123748989Y-67168457D01*
X123690000Y-67465016D01*
X123690000Y-67767384D01*
X123748989Y-68063943D01*
X123864701Y-68343295D01*
X124032688Y-68594705D01*
X124099127Y-68661144D01*
X124080820Y-68666698D01*
X123970506Y-68725663D01*
X123873815Y-68805015D01*
X123794463Y-68901706D01*
X123735498Y-69012020D01*
X123699188Y-69131718D01*
X123686928Y-69256200D01*
X106090637Y-69256200D01*
X106272852Y-68658454D01*
X106338134Y-68004769D01*
X106274634Y-67350907D01*
X106084792Y-66721997D01*
X105775904Y-66142208D01*
X105770828Y-66134611D01*
X105332376Y-65834432D01*
X105445981Y-65720827D01*
X105367154Y-65642000D01*
X179756169Y-65642000D01*
X179698231Y-65726626D01*
X179698231Y-65726626D01*
G37*
X179698231Y-65726626D02*
X181864000Y-67892395D01*
X184029769Y-65726626D01*
X183971831Y-65642000D01*
X184327400Y-65642000D01*
X184327400Y-65987035D01*
X184209374Y-65906231D01*
X182043605Y-68072000D01*
X184209374Y-70237769D01*
X184327400Y-70156964D01*
X184327401Y-104602047D01*
X184266373Y-104541019D01*
X184152768Y-104654624D01*
X183852589Y-104216172D01*
X183273644Y-103905704D01*
X182645254Y-103714148D01*
X181991569Y-103648866D01*
X181337707Y-103712366D01*
X180708797Y-103902208D01*
X180129008Y-104211096D01*
X180121411Y-104216172D01*
X179821231Y-104654626D01*
X181987000Y-106820395D01*
X182001143Y-106806253D01*
X182180748Y-106985858D01*
X182166605Y-107000000D01*
X182180748Y-107014143D01*
X182001143Y-107193748D01*
X181987000Y-107179605D01*
X181972858Y-107193748D01*
X181793253Y-107014143D01*
X181807395Y-107000000D01*
X179641626Y-104834231D01*
X179203172Y-105134411D01*
X178892704Y-105713356D01*
X178701148Y-106341746D01*
X178635866Y-106995431D01*
X178699366Y-107649293D01*
X178889208Y-108278203D01*
X179198096Y-108857992D01*
X179203172Y-108865589D01*
X179641624Y-109165768D01*
X179528019Y-109279373D01*
X179570646Y-109322000D01*
X176127000Y-109322000D01*
X176127000Y-107046341D01*
X176200039Y-106973302D01*
X176364042Y-106727853D01*
X176477010Y-106455125D01*
X176534600Y-106165599D01*
X176534600Y-105870401D01*
X176518105Y-105787474D01*
X177252049Y-105053530D01*
X177285817Y-105025817D01*
X177396411Y-104891059D01*
X177478589Y-104737313D01*
X177529195Y-104570490D01*
X177542000Y-104440477D01*
X177542000Y-104440467D01*
X177546281Y-104397001D01*
X177542000Y-104353535D01*
X177542000Y-91257292D01*
X177649940Y-91257292D01*
X177649940Y-91727108D01*
X177741597Y-92187896D01*
X177921387Y-92621949D01*
X178182403Y-93012587D01*
X178514613Y-93344797D01*
X178905251Y-93605813D01*
X179339304Y-93785603D01*
X179800092Y-93877260D01*
X180269908Y-93877260D01*
X180730696Y-93785603D01*
X181164749Y-93605813D01*
X181555387Y-93344797D01*
X181887597Y-93012587D01*
X182148613Y-92621949D01*
X182328403Y-92187896D01*
X182420060Y-91727108D01*
X182420060Y-91257292D01*
X182328403Y-90796504D01*
X182148613Y-90362451D01*
X181887597Y-89971813D01*
X181555387Y-89639603D01*
X181164749Y-89378587D01*
X180730696Y-89198797D01*
X180269908Y-89107140D01*
X179800092Y-89107140D01*
X179339304Y-89198797D01*
X178905251Y-89378587D01*
X178514613Y-89639603D01*
X178182403Y-89971813D01*
X177921387Y-90362451D01*
X177741597Y-90796504D01*
X177649940Y-91257292D01*
X177542000Y-91257292D01*
X177542000Y-83801478D01*
X179281123Y-82062356D01*
X179291815Y-82075385D01*
X179388506Y-82154737D01*
X179498820Y-82213702D01*
X179618518Y-82250012D01*
X179743000Y-82262272D01*
X181343000Y-82262272D01*
X181467482Y-82250012D01*
X181587180Y-82213702D01*
X181697494Y-82154737D01*
X181794185Y-82075385D01*
X181873537Y-81978694D01*
X181932502Y-81868380D01*
X181968812Y-81748682D01*
X181981072Y-81624200D01*
X181981072Y-80024200D01*
X181968812Y-79899718D01*
X181932502Y-79780020D01*
X181873537Y-79669706D01*
X181794185Y-79573015D01*
X181697494Y-79493663D01*
X181587180Y-79434698D01*
X181467482Y-79398388D01*
X181343000Y-79386128D01*
X181335785Y-79386128D01*
X181356097Y-79316902D01*
X180543000Y-78503805D01*
X180528858Y-78517948D01*
X180349253Y-78338343D01*
X180363395Y-78324200D01*
X180722605Y-78324200D01*
X181535702Y-79137297D01*
X181779671Y-79065714D01*
X181900571Y-78810204D01*
X181969300Y-78536016D01*
X181983217Y-78253688D01*
X181941787Y-77974070D01*
X181846603Y-77707908D01*
X181779671Y-77582686D01*
X181535702Y-77511103D01*
X180722605Y-78324200D01*
X180363395Y-78324200D01*
X180349253Y-78310058D01*
X180528858Y-78130453D01*
X180543000Y-78144595D01*
X181356097Y-77331498D01*
X181284514Y-77087529D01*
X181029004Y-76966629D01*
X180754816Y-76897900D01*
X180472488Y-76883983D01*
X180192870Y-76925413D01*
X180152700Y-76939778D01*
X180152700Y-74198235D01*
X180156981Y-74154769D01*
X180152700Y-74111303D01*
X180152700Y-74111293D01*
X180139895Y-73981280D01*
X180089289Y-73814457D01*
X180007111Y-73660711D01*
X179896517Y-73525953D01*
X179862751Y-73498242D01*
X176781883Y-70417374D01*
X179698231Y-70417374D01*
X179998411Y-70855828D01*
X180577356Y-71166296D01*
X181205746Y-71357852D01*
X181859431Y-71423134D01*
X182513293Y-71359634D01*
X183142203Y-71169792D01*
X183721992Y-70860904D01*
X183729589Y-70855828D01*
X184029769Y-70417374D01*
X181864000Y-68251605D01*
X179698231Y-70417374D01*
X176781883Y-70417374D01*
X174431940Y-68067431D01*
X178512866Y-68067431D01*
X178576366Y-68721293D01*
X178766208Y-69350203D01*
X179075096Y-69929992D01*
X179080172Y-69937589D01*
X179518626Y-70237769D01*
X181684395Y-68072000D01*
X179518626Y-65906231D01*
X179080172Y-66206411D01*
X178769704Y-66785356D01*
X178578148Y-67413746D01*
X178512866Y-68067431D01*
X174431940Y-68067431D01*
X173460464Y-67095956D01*
X173432747Y-67062183D01*
X173297989Y-66951589D01*
X173144243Y-66869411D01*
X172977420Y-66818805D01*
X172847407Y-66806000D01*
X172847399Y-66806000D01*
X172803930Y-66801719D01*
X172760461Y-66806000D01*
X168699465Y-66806000D01*
X168655999Y-66801719D01*
X168612533Y-66806000D01*
X168612523Y-66806000D01*
X168482510Y-66818805D01*
X168315687Y-66869411D01*
X168161941Y-66951589D01*
X168155439Y-66956925D01*
X168060953Y-67034468D01*
X168060951Y-67034470D01*
X168027183Y-67062183D01*
X167999470Y-67095951D01*
X167193096Y-67902326D01*
X167041223Y-67917284D01*
X166758736Y-68002975D01*
X166498394Y-68142131D01*
X166270203Y-68329403D01*
X166122647Y-68509200D01*
X166039565Y-68509200D01*
X165996099Y-68504919D01*
X165952633Y-68509200D01*
X165952623Y-68509200D01*
X165822610Y-68522005D01*
X165655787Y-68572611D01*
X165502041Y-68654789D01*
X165502039Y-68654790D01*
X165502040Y-68654790D01*
X165401053Y-68737668D01*
X165401051Y-68737670D01*
X165367283Y-68765383D01*
X165339570Y-68799151D01*
X154808839Y-79329883D01*
X154796195Y-79201510D01*
X154745589Y-79034687D01*
X154663411Y-78880941D01*
X154653811Y-78869243D01*
X154580532Y-78779953D01*
X154580530Y-78779951D01*
X154552817Y-78746183D01*
X154519051Y-78718472D01*
X150222579Y-74422000D01*
X152532299Y-74422000D01*
X152559040Y-74693507D01*
X152638236Y-74954581D01*
X152766843Y-75195188D01*
X152939919Y-75406081D01*
X153150812Y-75579157D01*
X153391419Y-75707764D01*
X153652493Y-75786960D01*
X153855963Y-75807000D01*
X153992037Y-75807000D01*
X154195507Y-75786960D01*
X154456581Y-75707764D01*
X154697188Y-75579157D01*
X154908081Y-75406081D01*
X155081157Y-75195188D01*
X155209764Y-74954581D01*
X155288960Y-74693507D01*
X155315701Y-74422000D01*
X155288960Y-74150493D01*
X155209764Y-73889419D01*
X155081157Y-73648812D01*
X154908081Y-73437919D01*
X154697188Y-73264843D01*
X154456581Y-73136236D01*
X154195507Y-73057040D01*
X153992037Y-73037000D01*
X153855963Y-73037000D01*
X153652493Y-73057040D01*
X153391419Y-73136236D01*
X153150812Y-73264843D01*
X152939919Y-73437919D01*
X152766843Y-73648812D01*
X152638236Y-73889419D01*
X152559040Y-74150493D01*
X152532299Y-74422000D01*
X150222579Y-74422000D01*
X148484534Y-72683956D01*
X148456817Y-72650183D01*
X148322059Y-72539589D01*
X148168313Y-72457411D01*
X148001490Y-72406805D01*
X147871477Y-72394000D01*
X147871469Y-72394000D01*
X147828000Y-72389719D01*
X147784531Y-72394000D01*
X147760104Y-72394000D01*
X148029998Y-72213663D01*
X148271663Y-71971998D01*
X148461537Y-71687831D01*
X148592325Y-71372081D01*
X148659000Y-71036883D01*
X148659000Y-70695117D01*
X148592325Y-70359919D01*
X148461537Y-70044169D01*
X148331034Y-69848857D01*
X148607158Y-69793932D01*
X148877411Y-69681990D01*
X149120632Y-69519475D01*
X149245710Y-69394397D01*
X151825208Y-69394397D01*
X151902843Y-69643472D01*
X152166883Y-69769371D01*
X152450411Y-69841339D01*
X152519573Y-69844955D01*
X152386463Y-70044169D01*
X152255675Y-70359919D01*
X152189000Y-70695117D01*
X152189000Y-71036883D01*
X152255675Y-71372081D01*
X152386463Y-71687831D01*
X152576337Y-71971998D01*
X152818002Y-72213663D01*
X153102169Y-72403537D01*
X153417919Y-72534325D01*
X153753117Y-72601000D01*
X154094883Y-72601000D01*
X154430081Y-72534325D01*
X154745831Y-72403537D01*
X155029998Y-72213663D01*
X155271663Y-71971998D01*
X155461537Y-71687831D01*
X155592325Y-71372081D01*
X155659000Y-71036883D01*
X155659000Y-70695117D01*
X155592325Y-70359919D01*
X155461537Y-70044169D01*
X155271663Y-69760002D01*
X155029998Y-69518337D01*
X154745831Y-69328463D01*
X154430081Y-69197675D01*
X154094883Y-69131000D01*
X153954408Y-69131000D01*
X154077371Y-68873117D01*
X154149339Y-68589589D01*
X154164611Y-68297469D01*
X154122599Y-68007981D01*
X154024919Y-67732253D01*
X153951472Y-67594843D01*
X153702397Y-67517208D01*
X152853605Y-68366000D01*
X152867748Y-68380143D01*
X152688143Y-68559748D01*
X152674000Y-68545605D01*
X151825208Y-69394397D01*
X149245710Y-69394397D01*
X149327475Y-69312632D01*
X149489990Y-69069411D01*
X149601932Y-68799158D01*
X149659000Y-68512260D01*
X149659000Y-68434531D01*
X151183389Y-68434531D01*
X151225401Y-68724019D01*
X151323081Y-68999747D01*
X151396528Y-69137157D01*
X151645603Y-69214792D01*
X152494395Y-68366000D01*
X151645603Y-67517208D01*
X151396528Y-67594843D01*
X151270629Y-67858883D01*
X151198661Y-68142411D01*
X151183389Y-68434531D01*
X149659000Y-68434531D01*
X149659000Y-68219740D01*
X149601932Y-67932842D01*
X149489990Y-67662589D01*
X149327475Y-67419368D01*
X149245710Y-67337603D01*
X151825208Y-67337603D01*
X152674000Y-68186395D01*
X153522792Y-67337603D01*
X153445157Y-67088528D01*
X153181117Y-66962629D01*
X152897589Y-66890661D01*
X152605469Y-66875389D01*
X152315981Y-66917401D01*
X152040253Y-67015081D01*
X151902843Y-67088528D01*
X151825208Y-67337603D01*
X149245710Y-67337603D01*
X149120632Y-67212525D01*
X148877411Y-67050010D01*
X148607158Y-66938068D01*
X148320260Y-66881000D01*
X148027740Y-66881000D01*
X147740842Y-66938068D01*
X147470589Y-67050010D01*
X147227368Y-67212525D01*
X147020525Y-67419368D01*
X146858010Y-67662589D01*
X146746068Y-67932842D01*
X146689000Y-68219740D01*
X146689000Y-68512260D01*
X146746068Y-68799158D01*
X146858010Y-69069411D01*
X146899162Y-69131000D01*
X146753117Y-69131000D01*
X146417919Y-69197675D01*
X146102169Y-69328463D01*
X145818002Y-69518337D01*
X145576337Y-69760002D01*
X145386463Y-70044169D01*
X145255675Y-70359919D01*
X145189000Y-70695117D01*
X145189000Y-71036883D01*
X145252699Y-71357121D01*
X145030000Y-71134422D01*
X145030000Y-69639466D01*
X145034281Y-69595999D01*
X145030000Y-69552533D01*
X145030000Y-69552523D01*
X145017195Y-69422510D01*
X144966589Y-69255687D01*
X144884411Y-69101941D01*
X144830797Y-69036613D01*
X144801532Y-69000953D01*
X144801530Y-69000951D01*
X144773817Y-68967183D01*
X144740050Y-68939471D01*
X142821734Y-67021156D01*
X142794017Y-66987383D01*
X142659259Y-66876789D01*
X142534520Y-66810115D01*
X142419312Y-66637695D01*
X142205505Y-66423888D01*
X141954095Y-66255901D01*
X141674743Y-66140189D01*
X141378184Y-66081200D01*
X141075816Y-66081200D01*
X140779257Y-66140189D01*
X140499905Y-66255901D01*
X140248495Y-66423888D01*
X140034688Y-66637695D01*
X139866701Y-66889105D01*
X139750989Y-67168457D01*
X139692000Y-67465016D01*
X139692000Y-67767384D01*
X139750989Y-68063943D01*
X139866701Y-68343295D01*
X140034688Y-68594705D01*
X140101127Y-68661144D01*
X140082820Y-68666698D01*
X139972506Y-68725663D01*
X139875815Y-68805015D01*
X139796463Y-68901706D01*
X139737498Y-69012020D01*
X139701188Y-69131718D01*
X139688928Y-69256200D01*
X139688928Y-71056200D01*
X139701188Y-71180682D01*
X139737498Y-71300380D01*
X139796463Y-71410694D01*
X139875815Y-71507385D01*
X139972506Y-71586737D01*
X140082820Y-71645702D01*
X140202518Y-71682012D01*
X140327000Y-71694272D01*
X142127000Y-71694272D01*
X142251482Y-71682012D01*
X142371180Y-71645702D01*
X142481494Y-71586737D01*
X142578185Y-71507385D01*
X142657537Y-71410694D01*
X142716502Y-71300380D01*
X142752812Y-71180682D01*
X142765072Y-71056200D01*
X142765072Y-69467651D01*
X143260000Y-69962579D01*
X143260001Y-71457521D01*
X143255719Y-71501000D01*
X143272805Y-71674490D01*
X143323412Y-71841313D01*
X143405590Y-71995059D01*
X143488468Y-72096046D01*
X143488471Y-72096049D01*
X143516184Y-72129817D01*
X143549951Y-72157529D01*
X145266470Y-73874049D01*
X145294183Y-73907817D01*
X145327951Y-73935530D01*
X145327953Y-73935532D01*
X145383696Y-73981279D01*
X145428941Y-74018411D01*
X145582687Y-74100589D01*
X145749510Y-74151195D01*
X145879523Y-74164000D01*
X145879531Y-74164000D01*
X145923000Y-74168281D01*
X145966469Y-74164000D01*
X147461422Y-74164000D01*
X153039000Y-79741579D01*
X153039001Y-80669378D01*
X152929820Y-80702498D01*
X152819506Y-80761463D01*
X152722815Y-80840815D01*
X152643463Y-80937506D01*
X152584498Y-81047820D01*
X152548188Y-81167518D01*
X152535928Y-81292000D01*
X152535928Y-82792000D01*
X152548188Y-82916482D01*
X152584498Y-83036180D01*
X152643463Y-83146494D01*
X152722815Y-83243185D01*
X152819506Y-83322537D01*
X152929820Y-83381502D01*
X153049518Y-83417812D01*
X153174000Y-83430072D01*
X153617137Y-83430072D01*
X152988223Y-84058986D01*
X152920901Y-84079408D01*
X152786317Y-84151344D01*
X152668354Y-84248154D01*
X152644098Y-84277710D01*
X137252439Y-99669370D01*
X137249402Y-99669974D01*
X137061044Y-99747995D01*
X136891526Y-99861263D01*
X136747363Y-100005426D01*
X136634095Y-100174944D01*
X136556074Y-100363302D01*
X136516300Y-100563261D01*
X136516300Y-100767139D01*
X136556074Y-100967098D01*
X136634095Y-101155456D01*
X136747363Y-101324974D01*
X136891526Y-101469137D01*
X137061044Y-101582405D01*
X137249402Y-101660426D01*
X137449361Y-101700200D01*
X137653239Y-101700200D01*
X137853198Y-101660426D01*
X138041556Y-101582405D01*
X138211074Y-101469137D01*
X138355237Y-101324974D01*
X138468505Y-101155456D01*
X138546526Y-100967098D01*
X138586300Y-100767139D01*
X138586300Y-100563261D01*
X138580233Y-100532758D01*
X151927928Y-87185064D01*
X151927928Y-87718000D01*
X151940188Y-87842482D01*
X151976498Y-87962180D01*
X152035463Y-88072494D01*
X152114815Y-88169185D01*
X152211506Y-88248537D01*
X152321820Y-88307502D01*
X152441518Y-88343812D01*
X152566000Y-88356072D01*
X154266000Y-88356072D01*
X154390482Y-88343812D01*
X154510180Y-88307502D01*
X154620494Y-88248537D01*
X154717185Y-88169185D01*
X154796537Y-88072494D01*
X154855502Y-87962180D01*
X154879966Y-87881534D01*
X154955731Y-87965588D01*
X155189080Y-88139641D01*
X155290134Y-88187774D01*
X146138809Y-97339100D01*
X142495752Y-97339100D01*
X142457699Y-97335352D01*
X142305832Y-97350310D01*
X142159801Y-97394608D01*
X142025217Y-97466544D01*
X141907254Y-97563354D01*
X141882998Y-97592911D01*
X140774616Y-98701293D01*
X140745054Y-98725554D01*
X140648244Y-98843518D01*
X140576308Y-98978102D01*
X140532010Y-99124132D01*
X140532010Y-99124133D01*
X140517052Y-99276000D01*
X140518140Y-99287049D01*
X140491563Y-99313626D01*
X140378295Y-99483144D01*
X140300274Y-99671502D01*
X140260500Y-99871461D01*
X140260500Y-100075339D01*
X140300274Y-100275298D01*
X140312482Y-100304771D01*
X140154102Y-100336274D01*
X139965744Y-100414295D01*
X139796226Y-100527563D01*
X139652063Y-100671726D01*
X139538795Y-100841244D01*
X139460774Y-101029602D01*
X139421000Y-101229561D01*
X139421000Y-101433439D01*
X139430937Y-101483397D01*
X139238502Y-101521674D01*
X139050144Y-101599695D01*
X138880626Y-101712963D01*
X138736463Y-101857126D01*
X138623195Y-102026644D01*
X138545174Y-102215002D01*
X138505400Y-102414961D01*
X138505400Y-102618839D01*
X138545174Y-102818798D01*
X138623195Y-103007156D01*
X138736463Y-103176674D01*
X138880626Y-103320837D01*
X139050144Y-103434105D01*
X139238502Y-103512126D01*
X139438461Y-103551900D01*
X139642339Y-103551900D01*
X139842298Y-103512126D01*
X140030656Y-103434105D01*
X140200174Y-103320837D01*
X140229411Y-103291600D01*
X144268247Y-103291600D01*
X144306300Y-103295348D01*
X144344353Y-103291600D01*
X144458168Y-103280390D01*
X144604199Y-103236092D01*
X144738783Y-103164156D01*
X144856746Y-103067346D01*
X144881007Y-103037784D01*
X154090425Y-93828366D01*
X154207294Y-94047014D01*
X154392866Y-94273134D01*
X154618986Y-94458706D01*
X154673791Y-94488000D01*
X154618986Y-94517294D01*
X154392866Y-94702866D01*
X154207294Y-94928986D01*
X154069401Y-95186966D01*
X153984487Y-95466889D01*
X153955815Y-95758000D01*
X153984487Y-96049111D01*
X154069401Y-96329034D01*
X154207294Y-96587014D01*
X154392866Y-96813134D01*
X154618986Y-96998706D01*
X154673791Y-97028000D01*
X154618986Y-97057294D01*
X154392866Y-97242866D01*
X154207294Y-97468986D01*
X154069401Y-97726966D01*
X153984487Y-98006889D01*
X153955815Y-98298000D01*
X153984487Y-98589111D01*
X154069401Y-98869034D01*
X154207294Y-99127014D01*
X154392866Y-99353134D01*
X154618986Y-99538706D01*
X154673791Y-99568000D01*
X154618986Y-99597294D01*
X154392866Y-99782866D01*
X154207294Y-100008986D01*
X154069401Y-100266966D01*
X153984487Y-100546889D01*
X153955815Y-100838000D01*
X153984487Y-101129111D01*
X153990745Y-101149742D01*
X152617383Y-102523105D01*
X152586473Y-102548472D01*
X152561108Y-102579380D01*
X152485251Y-102671811D01*
X152448329Y-102740889D01*
X152410038Y-102812527D01*
X152385453Y-102893574D01*
X152363721Y-102965213D01*
X152348081Y-103124000D01*
X152352001Y-103163798D01*
X152352000Y-104566488D01*
X152350488Y-104568000D01*
X141906700Y-104568000D01*
X141746256Y-104460795D01*
X141557898Y-104382774D01*
X141357939Y-104343000D01*
X141154061Y-104343000D01*
X140954102Y-104382774D01*
X140765744Y-104460795D01*
X140596226Y-104574063D01*
X140452063Y-104718226D01*
X140338795Y-104887744D01*
X140260774Y-105076102D01*
X140221000Y-105276061D01*
X140221000Y-105479939D01*
X140260774Y-105679898D01*
X140338795Y-105868256D01*
X140452063Y-106037774D01*
X140596226Y-106181937D01*
X140765744Y-106295205D01*
X140954102Y-106373226D01*
X141154061Y-106413000D01*
X141357939Y-106413000D01*
X141557898Y-106373226D01*
X141746256Y-106295205D01*
X141883128Y-106203750D01*
X153963000Y-106203750D01*
X153963000Y-106830542D01*
X153987403Y-106953223D01*
X154035270Y-107068785D01*
X154104763Y-107172789D01*
X154193211Y-107261237D01*
X154297215Y-107330730D01*
X154412777Y-107378597D01*
X154535458Y-107403000D01*
X155162250Y-107403000D01*
X155321000Y-107244250D01*
X155321000Y-106045000D01*
X155575000Y-106045000D01*
X155575000Y-107244250D01*
X155733750Y-107403000D01*
X156360542Y-107403000D01*
X156483223Y-107378597D01*
X156598785Y-107330730D01*
X156702789Y-107261237D01*
X156791237Y-107172789D01*
X156860730Y-107068785D01*
X156908597Y-106953223D01*
X156933000Y-106830542D01*
X156933000Y-106203750D01*
X156774250Y-106045000D01*
X155575000Y-106045000D01*
X155321000Y-106045000D01*
X154121750Y-106045000D01*
X153963000Y-106203750D01*
X141883128Y-106203750D01*
X141906700Y-106188000D01*
X152646212Y-106188000D01*
X152686000Y-106191919D01*
X152725788Y-106188000D01*
X152725791Y-106188000D01*
X152844788Y-106176280D01*
X152997473Y-106129963D01*
X153138189Y-106054749D01*
X153261528Y-105953528D01*
X153286900Y-105922612D01*
X153706614Y-105502898D01*
X153737528Y-105477528D01*
X153838749Y-105354189D01*
X153893748Y-105251293D01*
X153913963Y-105213474D01*
X153926052Y-105173621D01*
X153960280Y-105060788D01*
X153963000Y-105033171D01*
X153963000Y-105632250D01*
X154121750Y-105791000D01*
X155321000Y-105791000D01*
X155321000Y-103505000D01*
X155575000Y-103505000D01*
X155575000Y-105791000D01*
X156774250Y-105791000D01*
X156933000Y-105632250D01*
X156933000Y-105005458D01*
X156908597Y-104882777D01*
X156860730Y-104767215D01*
X156791237Y-104663211D01*
X156702789Y-104574763D01*
X156598785Y-104505270D01*
X156483223Y-104457403D01*
X156462393Y-104453260D01*
X156545588Y-104378269D01*
X156719641Y-104144920D01*
X156844825Y-103882099D01*
X156889476Y-103734890D01*
X156768155Y-103505000D01*
X155575000Y-103505000D01*
X155321000Y-103505000D01*
X155301000Y-103505000D01*
X155301000Y-103251000D01*
X155321000Y-103251000D01*
X155321000Y-103231000D01*
X155575000Y-103231000D01*
X155575000Y-103251000D01*
X156768155Y-103251000D01*
X156889476Y-103021110D01*
X156844825Y-102873901D01*
X156719641Y-102611080D01*
X156545588Y-102377731D01*
X156329355Y-102182822D01*
X156212477Y-102113201D01*
X156277014Y-102078706D01*
X156503134Y-101893134D01*
X156688706Y-101667014D01*
X156826599Y-101409034D01*
X156911513Y-101129111D01*
X156940185Y-100838000D01*
X156911513Y-100546889D01*
X156826599Y-100266966D01*
X156688706Y-100008986D01*
X156503134Y-99782866D01*
X156277014Y-99597294D01*
X156222209Y-99568000D01*
X156277014Y-99538706D01*
X156503134Y-99353134D01*
X156688706Y-99127014D01*
X156826599Y-98869034D01*
X156911513Y-98589111D01*
X156940185Y-98298000D01*
X156911513Y-98006889D01*
X156826599Y-97726966D01*
X156688706Y-97468986D01*
X156503134Y-97242866D01*
X156277014Y-97057294D01*
X156222209Y-97028000D01*
X156277014Y-96998706D01*
X156503134Y-96813134D01*
X156688706Y-96587014D01*
X156826599Y-96329034D01*
X156911513Y-96049111D01*
X156940185Y-95758000D01*
X156911513Y-95466889D01*
X156826599Y-95186966D01*
X156688706Y-94928986D01*
X156503134Y-94702866D01*
X156277014Y-94517294D01*
X156222209Y-94488000D01*
X156277014Y-94458706D01*
X156503134Y-94273134D01*
X156688706Y-94047014D01*
X156826599Y-93789034D01*
X156911513Y-93509111D01*
X156940185Y-93218000D01*
X156911513Y-92926889D01*
X156826599Y-92646966D01*
X156688706Y-92388986D01*
X156503134Y-92162866D01*
X156277014Y-91977294D01*
X156058366Y-91860425D01*
X159031900Y-88886891D01*
X159031901Y-89404137D01*
X159028152Y-89442200D01*
X159043110Y-89594067D01*
X159074401Y-89697218D01*
X159087409Y-89740099D01*
X159159345Y-89874683D01*
X159197684Y-89921399D01*
X159226166Y-89956104D01*
X159256155Y-89992646D01*
X159285711Y-90016902D01*
X159873000Y-90604191D01*
X159873000Y-104458014D01*
X159817906Y-104487463D01*
X159721215Y-104566815D01*
X159641863Y-104663506D01*
X159582898Y-104773820D01*
X159546588Y-104893518D01*
X159534328Y-105018000D01*
X159534328Y-107018000D01*
X159546588Y-107142482D01*
X159582898Y-107262180D01*
X159641863Y-107372494D01*
X159721215Y-107469185D01*
X159817906Y-107548537D01*
X159873000Y-107577986D01*
X159873000Y-109322000D01*
X105403354Y-109322000D01*
X105445981Y-109279373D01*
X105332376Y-109165768D01*
X105770828Y-108865589D01*
X106081296Y-108286644D01*
X106272852Y-107658254D01*
X106338134Y-107004569D01*
X106274634Y-106350707D01*
X106084792Y-105721797D01*
X105775904Y-105142008D01*
X105770828Y-105134411D01*
X105467965Y-104927061D01*
X112757000Y-104927061D01*
X112757000Y-105130939D01*
X112796774Y-105330898D01*
X112874795Y-105519256D01*
X112988063Y-105688774D01*
X113132226Y-105832937D01*
X113301744Y-105946205D01*
X113490102Y-106024226D01*
X113690061Y-106064000D01*
X113893939Y-106064000D01*
X114093898Y-106024226D01*
X114282256Y-105946205D01*
X114451774Y-105832937D01*
X114595937Y-105688774D01*
X114709205Y-105519256D01*
X114787226Y-105330898D01*
X114824871Y-105141641D01*
X116783518Y-103182995D01*
X116814428Y-103157628D01*
X116888521Y-103067345D01*
X116915649Y-103034290D01*
X116990862Y-102893574D01*
X116990863Y-102893573D01*
X117037180Y-102740888D01*
X117048900Y-102621891D01*
X117048900Y-102621889D01*
X117052819Y-102582101D01*
X117048900Y-102542313D01*
X117048900Y-100833800D01*
X117156105Y-100673356D01*
X117234126Y-100484998D01*
X117273900Y-100285039D01*
X117273900Y-100081161D01*
X117234126Y-99881202D01*
X117156105Y-99692844D01*
X117042837Y-99523326D01*
X116898674Y-99379163D01*
X116729156Y-99265895D01*
X116540798Y-99187874D01*
X116340839Y-99148100D01*
X116136961Y-99148100D01*
X115937002Y-99187874D01*
X115748644Y-99265895D01*
X115579126Y-99379163D01*
X115434963Y-99523326D01*
X115321695Y-99692844D01*
X115243674Y-99881202D01*
X115203900Y-100081161D01*
X115203900Y-100285039D01*
X115243674Y-100484998D01*
X115321695Y-100673356D01*
X115428900Y-100833800D01*
X115428901Y-102246586D01*
X113679359Y-103996129D01*
X113490102Y-104033774D01*
X113301744Y-104111795D01*
X113132226Y-104225063D01*
X112988063Y-104369226D01*
X112874795Y-104538744D01*
X112796774Y-104727102D01*
X112757000Y-104927061D01*
X105467965Y-104927061D01*
X105332374Y-104834231D01*
X103166605Y-107000000D01*
X103180748Y-107014143D01*
X103001143Y-107193748D01*
X102987000Y-107179605D01*
X102972858Y-107193748D01*
X102793253Y-107014143D01*
X102807395Y-107000000D01*
X102793253Y-106985858D01*
X102972858Y-106806253D01*
X102987000Y-106820395D01*
X105152769Y-104654626D01*
X104852589Y-104216172D01*
X104273644Y-103905704D01*
X103645254Y-103714148D01*
X102991569Y-103648866D01*
X102337707Y-103712366D01*
X101708797Y-103902208D01*
X101129008Y-104211096D01*
X101121411Y-104216172D01*
X100821232Y-104654624D01*
X100707627Y-104541019D01*
X100647400Y-104601246D01*
X100647400Y-94448000D01*
X102751815Y-94448000D01*
X102780487Y-94739111D01*
X102865401Y-95019034D01*
X103003294Y-95277014D01*
X103188866Y-95503134D01*
X103414986Y-95688706D01*
X103672966Y-95826599D01*
X103952889Y-95911513D01*
X104171050Y-95933000D01*
X104616950Y-95933000D01*
X104835111Y-95911513D01*
X105115034Y-95826599D01*
X105373014Y-95688706D01*
X105599134Y-95503134D01*
X105784706Y-95277014D01*
X105922599Y-95019034D01*
X106007513Y-94739111D01*
X106036185Y-94448000D01*
X106007513Y-94156889D01*
X105922599Y-93876966D01*
X105784706Y-93618986D01*
X105599134Y-93392866D01*
X105535663Y-93340777D01*
X105637386Y-93286405D01*
X105771962Y-93175962D01*
X105882405Y-93041386D01*
X105886219Y-93034250D01*
X124752000Y-93034250D01*
X124752000Y-93423542D01*
X124776403Y-93546223D01*
X124824270Y-93661785D01*
X124893763Y-93765789D01*
X124982211Y-93854237D01*
X125086215Y-93923730D01*
X125201777Y-93971597D01*
X125324458Y-93996000D01*
X127476250Y-93996000D01*
X127635000Y-93837250D01*
X127635000Y-92875500D01*
X127889000Y-92875500D01*
X127889000Y-93837250D01*
X128047750Y-93996000D01*
X130199542Y-93996000D01*
X130322223Y-93971597D01*
X130437785Y-93923730D01*
X130541789Y-93854237D01*
X130630237Y-93765789D01*
X130699730Y-93661785D01*
X130747597Y-93546223D01*
X130772000Y-93423542D01*
X130772000Y-93034250D01*
X130613250Y-92875500D01*
X127889000Y-92875500D01*
X127635000Y-92875500D01*
X124910750Y-92875500D01*
X124752000Y-93034250D01*
X105886219Y-93034250D01*
X105964472Y-92887850D01*
X106015008Y-92721254D01*
X106032072Y-92548000D01*
X106032072Y-92073458D01*
X124752000Y-92073458D01*
X124752000Y-92462750D01*
X124910750Y-92621500D01*
X127635000Y-92621500D01*
X127635000Y-91659750D01*
X127889000Y-91659750D01*
X127889000Y-92621500D01*
X130613250Y-92621500D01*
X130772000Y-92462750D01*
X130772000Y-92073458D01*
X130747597Y-91950777D01*
X130699730Y-91835215D01*
X130630237Y-91731211D01*
X130541789Y-91642763D01*
X130437785Y-91573270D01*
X130322223Y-91525403D01*
X130199542Y-91501000D01*
X128047750Y-91501000D01*
X127889000Y-91659750D01*
X127635000Y-91659750D01*
X127476250Y-91501000D01*
X125324458Y-91501000D01*
X125201777Y-91525403D01*
X125086215Y-91573270D01*
X124982211Y-91642763D01*
X124893763Y-91731211D01*
X124824270Y-91835215D01*
X124776403Y-91950777D01*
X124752000Y-92073458D01*
X106032072Y-92073458D01*
X106032072Y-91348000D01*
X106015008Y-91174746D01*
X105964472Y-91008150D01*
X105882405Y-90854614D01*
X105771962Y-90720038D01*
X105637386Y-90609595D01*
X105483850Y-90527528D01*
X105317254Y-90476992D01*
X105144000Y-90459928D01*
X103644000Y-90459928D01*
X103470746Y-90476992D01*
X103304150Y-90527528D01*
X103150614Y-90609595D01*
X103016038Y-90720038D01*
X102905595Y-90854614D01*
X102823528Y-91008150D01*
X102772992Y-91174746D01*
X102755928Y-91348000D01*
X102755928Y-92548000D01*
X102772992Y-92721254D01*
X102823528Y-92887850D01*
X102905595Y-93041386D01*
X103016038Y-93175962D01*
X103150614Y-93286405D01*
X103252337Y-93340777D01*
X103188866Y-93392866D01*
X103003294Y-93618986D01*
X102865401Y-93876966D01*
X102780487Y-94156889D01*
X102751815Y-94448000D01*
X100647400Y-94448000D01*
X100647400Y-89199361D01*
X117568400Y-89199361D01*
X117568400Y-89403239D01*
X117608174Y-89603198D01*
X117686195Y-89791556D01*
X117799463Y-89961074D01*
X117943626Y-90105237D01*
X118113144Y-90218505D01*
X118301502Y-90296526D01*
X118501461Y-90336300D01*
X118705339Y-90336300D01*
X118905298Y-90296526D01*
X119093656Y-90218505D01*
X119254100Y-90111300D01*
X124761269Y-90111300D01*
X124765992Y-90159254D01*
X124816528Y-90325850D01*
X124898595Y-90479386D01*
X125009038Y-90613962D01*
X125143614Y-90724405D01*
X125297150Y-90806472D01*
X125463746Y-90857008D01*
X125637000Y-90874072D01*
X129887000Y-90874072D01*
X130060254Y-90857008D01*
X130226850Y-90806472D01*
X130380386Y-90724405D01*
X130514962Y-90613962D01*
X130625405Y-90479386D01*
X130707472Y-90325850D01*
X130758008Y-90159254D01*
X130775072Y-89986000D01*
X130775072Y-89261000D01*
X130758008Y-89087746D01*
X130707472Y-88921150D01*
X130625405Y-88767614D01*
X130514962Y-88633038D01*
X130380386Y-88522595D01*
X130226850Y-88440528D01*
X130060254Y-88389992D01*
X129887000Y-88372928D01*
X125637000Y-88372928D01*
X125463746Y-88389992D01*
X125297150Y-88440528D01*
X125202163Y-88491300D01*
X119254100Y-88491300D01*
X119093656Y-88384095D01*
X118905298Y-88306074D01*
X118705339Y-88266300D01*
X118501461Y-88266300D01*
X118301502Y-88306074D01*
X118113144Y-88384095D01*
X117943626Y-88497363D01*
X117799463Y-88641526D01*
X117686195Y-88811044D01*
X117608174Y-88999402D01*
X117568400Y-89199361D01*
X100647400Y-89199361D01*
X100647400Y-85976677D01*
X100696365Y-85976677D01*
X100698504Y-86008715D01*
X100788364Y-86229644D01*
X100919598Y-86428797D01*
X101087163Y-86598521D01*
X101284620Y-86732294D01*
X101504381Y-86824974D01*
X101738000Y-86873000D01*
X102063000Y-86873000D01*
X102063000Y-85790000D01*
X102317000Y-85790000D01*
X102317000Y-86873000D01*
X102642000Y-86873000D01*
X102875619Y-86824974D01*
X103095380Y-86732294D01*
X103292837Y-86598521D01*
X103460402Y-86428797D01*
X103591636Y-86229644D01*
X103681496Y-86008715D01*
X103683635Y-85976677D01*
X103598927Y-85850258D01*
X104397481Y-85850258D01*
X104409922Y-85916117D01*
X104513643Y-86162979D01*
X104663531Y-86384863D01*
X104853827Y-86573242D01*
X105077217Y-86720876D01*
X105325117Y-86822092D01*
X105588000Y-86873000D01*
X105863000Y-86873000D01*
X105863000Y-85640000D01*
X106117000Y-85640000D01*
X106117000Y-86873000D01*
X106392000Y-86873000D01*
X106654883Y-86822092D01*
X106902783Y-86720876D01*
X107126173Y-86573242D01*
X107316469Y-86384863D01*
X107466357Y-86162979D01*
X107570078Y-85916117D01*
X107582519Y-85850258D01*
X107459518Y-85640000D01*
X106117000Y-85640000D01*
X105863000Y-85640000D01*
X104520482Y-85640000D01*
X104397481Y-85850258D01*
X103598927Y-85850258D01*
X103558550Y-85790000D01*
X102317000Y-85790000D01*
X102063000Y-85790000D01*
X100821450Y-85790000D01*
X100696365Y-85976677D01*
X100647400Y-85976677D01*
X100647400Y-85349323D01*
X100696365Y-85349323D01*
X100821450Y-85536000D01*
X102063000Y-85536000D01*
X102063000Y-84453000D01*
X102317000Y-84453000D01*
X102317000Y-85536000D01*
X103558550Y-85536000D01*
X103683635Y-85349323D01*
X103681496Y-85317285D01*
X103591636Y-85096356D01*
X103460402Y-84897203D01*
X103292837Y-84727479D01*
X103095380Y-84593706D01*
X102875619Y-84501026D01*
X102642000Y-84453000D01*
X102317000Y-84453000D01*
X102063000Y-84453000D01*
X101738000Y-84453000D01*
X101504381Y-84501026D01*
X101284620Y-84593706D01*
X101087163Y-84727479D01*
X100919598Y-84897203D01*
X100788364Y-85096356D01*
X100698504Y-85317285D01*
X100696365Y-85349323D01*
X100647400Y-85349323D01*
X100647400Y-84288000D01*
X103899993Y-84288000D01*
X103919976Y-84490895D01*
X103979159Y-84685993D01*
X104075266Y-84865797D01*
X104204604Y-85023396D01*
X104362203Y-85152734D01*
X104398193Y-85171971D01*
X104397481Y-85175742D01*
X104520482Y-85386000D01*
X105863000Y-85386000D01*
X105863000Y-84756789D01*
X105900841Y-84685993D01*
X105960024Y-84490895D01*
X105980007Y-84288000D01*
X105966711Y-84153000D01*
X106117000Y-84153000D01*
X106117000Y-85386000D01*
X107459518Y-85386000D01*
X107582519Y-85175742D01*
X107570078Y-85109883D01*
X107466357Y-84863021D01*
X107316469Y-84641137D01*
X107126173Y-84452758D01*
X106902783Y-84305124D01*
X106654883Y-84203908D01*
X106392000Y-84153000D01*
X106117000Y-84153000D01*
X105966711Y-84153000D01*
X105960024Y-84085105D01*
X105900841Y-83890007D01*
X105804734Y-83710203D01*
X105675396Y-83552604D01*
X105517797Y-83423266D01*
X105337993Y-83327159D01*
X105142895Y-83267976D01*
X104990838Y-83253000D01*
X104889162Y-83253000D01*
X104737105Y-83267976D01*
X104542007Y-83327159D01*
X104362203Y-83423266D01*
X104204604Y-83552604D01*
X104075266Y-83710203D01*
X103979159Y-83890007D01*
X103919976Y-84085105D01*
X103899993Y-84288000D01*
X100647400Y-84288000D01*
X100647400Y-82913009D01*
X113384693Y-82913009D01*
X113385000Y-82998639D01*
X113385000Y-83309542D01*
X113409403Y-83432223D01*
X113457270Y-83547785D01*
X113526763Y-83651789D01*
X113615211Y-83740237D01*
X113719215Y-83809730D01*
X113834777Y-83857597D01*
X113957458Y-83882000D01*
X114184436Y-83882000D01*
X114186009Y-83882307D01*
X114271639Y-83882000D01*
X115284250Y-83882000D01*
X115316943Y-83849307D01*
X115442998Y-83873912D01*
X115442998Y-83882000D01*
X115484436Y-83882000D01*
X115486009Y-83882307D01*
X115571639Y-83882000D01*
X115697002Y-83882000D01*
X115697002Y-83874252D01*
X115822559Y-83848809D01*
X115855750Y-83882000D01*
X116784436Y-83882000D01*
X116786009Y-83882307D01*
X116871639Y-83882000D01*
X117182542Y-83882000D01*
X117305223Y-83857597D01*
X117420785Y-83809730D01*
X117524789Y-83740237D01*
X117613237Y-83651789D01*
X117682730Y-83547785D01*
X117730597Y-83432223D01*
X117755000Y-83309542D01*
X117755000Y-83082564D01*
X117755307Y-83080991D01*
X117755000Y-82995361D01*
X117755000Y-82327750D01*
X117596250Y-82169000D01*
X117183407Y-82169000D01*
X117125092Y-82145090D01*
X116953991Y-82111693D01*
X116779662Y-82112318D01*
X116608805Y-82146941D01*
X116555550Y-82169000D01*
X115883407Y-82169000D01*
X115825092Y-82145090D01*
X115653991Y-82111693D01*
X115479662Y-82112318D01*
X115308805Y-82146941D01*
X115255550Y-82169000D01*
X114583407Y-82169000D01*
X114525092Y-82145090D01*
X114353991Y-82111693D01*
X114179662Y-82112318D01*
X114008805Y-82146941D01*
X113955550Y-82169000D01*
X113543750Y-82169000D01*
X113385000Y-82327750D01*
X113385000Y-82911436D01*
X113384693Y-82913009D01*
X100647400Y-82913009D01*
X100647400Y-81003009D01*
X113384693Y-81003009D01*
X113385000Y-81088639D01*
X113385000Y-81756250D01*
X113543750Y-81915000D01*
X113956593Y-81915000D01*
X114014908Y-81938910D01*
X114186009Y-81972307D01*
X114360338Y-81971682D01*
X114531195Y-81937059D01*
X114584450Y-81915000D01*
X115256593Y-81915000D01*
X115314908Y-81938910D01*
X115486009Y-81972307D01*
X115660338Y-81971682D01*
X115831195Y-81937059D01*
X115884450Y-81915000D01*
X116556593Y-81915000D01*
X116614908Y-81938910D01*
X116786009Y-81972307D01*
X116960338Y-81971682D01*
X117131195Y-81937059D01*
X117184450Y-81915000D01*
X117596250Y-81915000D01*
X117755000Y-81756250D01*
X117755000Y-81172564D01*
X117755307Y-81170991D01*
X117755000Y-81085361D01*
X117755000Y-80774458D01*
X117730597Y-80651777D01*
X117682730Y-80536215D01*
X117613237Y-80432211D01*
X117524789Y-80343763D01*
X117420785Y-80274270D01*
X117305223Y-80226403D01*
X117182542Y-80202000D01*
X116955564Y-80202000D01*
X116953991Y-80201693D01*
X116868361Y-80202000D01*
X115855750Y-80202000D01*
X115823057Y-80234693D01*
X115697002Y-80210088D01*
X115697002Y-80202000D01*
X115655564Y-80202000D01*
X115653991Y-80201693D01*
X115568361Y-80202000D01*
X115442998Y-80202000D01*
X115442998Y-80209748D01*
X115317441Y-80235191D01*
X115284250Y-80202000D01*
X114355564Y-80202000D01*
X114353991Y-80201693D01*
X114268361Y-80202000D01*
X113957458Y-80202000D01*
X113834777Y-80226403D01*
X113719215Y-80274270D01*
X113615211Y-80343763D01*
X113526763Y-80432211D01*
X113457270Y-80536215D01*
X113409403Y-80651777D01*
X113385000Y-80774458D01*
X113385000Y-81001436D01*
X113384693Y-81003009D01*
X100647400Y-81003009D01*
X100647400Y-79288000D01*
X103899993Y-79288000D01*
X103919976Y-79490895D01*
X103979159Y-79685993D01*
X104075266Y-79865797D01*
X104204604Y-80023396D01*
X104362203Y-80152734D01*
X104542007Y-80248841D01*
X104737105Y-80308024D01*
X104889162Y-80323000D01*
X104990838Y-80323000D01*
X105142895Y-80308024D01*
X105337993Y-80248841D01*
X105517797Y-80152734D01*
X105675396Y-80023396D01*
X105804734Y-79865797D01*
X105900841Y-79685993D01*
X105960024Y-79490895D01*
X105980007Y-79288000D01*
X105960024Y-79085105D01*
X105900841Y-78890007D01*
X105863000Y-78819211D01*
X105863000Y-78190000D01*
X106117000Y-78190000D01*
X106117000Y-79423000D01*
X106392000Y-79423000D01*
X106654883Y-79372092D01*
X106902783Y-79270876D01*
X107126173Y-79123242D01*
X107316469Y-78934863D01*
X107466357Y-78712979D01*
X107570078Y-78466117D01*
X107582519Y-78400258D01*
X107459518Y-78190000D01*
X106117000Y-78190000D01*
X105863000Y-78190000D01*
X104520482Y-78190000D01*
X104397481Y-78400258D01*
X104398193Y-78404029D01*
X104362203Y-78423266D01*
X104204604Y-78552604D01*
X104075266Y-78710203D01*
X103979159Y-78890007D01*
X103919976Y-79085105D01*
X103899993Y-79288000D01*
X100647400Y-79288000D01*
X100647400Y-78226677D01*
X100696365Y-78226677D01*
X100698504Y-78258715D01*
X100788364Y-78479644D01*
X100919598Y-78678797D01*
X101087163Y-78848521D01*
X101284620Y-78982294D01*
X101504381Y-79074974D01*
X101738000Y-79123000D01*
X102063000Y-79123000D01*
X102063000Y-78040000D01*
X102317000Y-78040000D01*
X102317000Y-79123000D01*
X102642000Y-79123000D01*
X102875619Y-79074974D01*
X103095380Y-78982294D01*
X103292837Y-78848521D01*
X103460402Y-78678797D01*
X103591636Y-78479644D01*
X103681496Y-78258715D01*
X103683635Y-78226677D01*
X103558550Y-78040000D01*
X102317000Y-78040000D01*
X102063000Y-78040000D01*
X100821450Y-78040000D01*
X100696365Y-78226677D01*
X100647400Y-78226677D01*
X100647400Y-77599323D01*
X100696365Y-77599323D01*
X100821450Y-77786000D01*
X102063000Y-77786000D01*
X102063000Y-76703000D01*
X102317000Y-76703000D01*
X102317000Y-77786000D01*
X103558550Y-77786000D01*
X103598926Y-77725742D01*
X104397481Y-77725742D01*
X104520482Y-77936000D01*
X105863000Y-77936000D01*
X105863000Y-76703000D01*
X106117000Y-76703000D01*
X106117000Y-77936000D01*
X107459518Y-77936000D01*
X107582519Y-77725742D01*
X107570078Y-77659883D01*
X107567255Y-77653163D01*
X111058400Y-77653163D01*
X111058400Y-77896437D01*
X111105860Y-78135036D01*
X111198957Y-78359792D01*
X111334113Y-78562067D01*
X111506133Y-78734087D01*
X111708408Y-78869243D01*
X111933164Y-78962340D01*
X112171763Y-79009800D01*
X112415037Y-79009800D01*
X112653636Y-78962340D01*
X112878392Y-78869243D01*
X112967355Y-78809800D01*
X117554290Y-78809800D01*
X117790315Y-79045826D01*
X117790316Y-84745309D01*
X117790315Y-84745319D01*
X117790315Y-84970729D01*
X117730872Y-85059692D01*
X117637775Y-85284448D01*
X117590315Y-85523047D01*
X117590315Y-85766321D01*
X117637775Y-86004920D01*
X117730872Y-86229676D01*
X117866028Y-86431951D01*
X118038048Y-86603971D01*
X118240323Y-86739127D01*
X118465079Y-86832224D01*
X118703678Y-86879684D01*
X118946952Y-86879684D01*
X119185551Y-86832224D01*
X119410307Y-86739127D01*
X119612582Y-86603971D01*
X119784602Y-86431951D01*
X119919758Y-86229676D01*
X120012855Y-86004920D01*
X120060315Y-85766321D01*
X120060315Y-85523047D01*
X120012855Y-85284448D01*
X119919758Y-85059692D01*
X119860315Y-84970729D01*
X119860315Y-78667942D01*
X119865321Y-78617114D01*
X119860315Y-78566286D01*
X119860315Y-78566277D01*
X119845339Y-78414220D01*
X119786156Y-78219122D01*
X119741211Y-78135036D01*
X119690049Y-78039317D01*
X119593118Y-77921207D01*
X119560711Y-77881719D01*
X119521223Y-77849312D01*
X118750807Y-77078897D01*
X118718396Y-77039404D01*
X118560797Y-76910066D01*
X118380993Y-76813959D01*
X118185895Y-76754776D01*
X118033838Y-76739800D01*
X118033828Y-76739800D01*
X117983000Y-76734794D01*
X117932172Y-76739800D01*
X112967355Y-76739800D01*
X112878392Y-76680357D01*
X112653636Y-76587260D01*
X112415037Y-76539800D01*
X112171763Y-76539800D01*
X111933164Y-76587260D01*
X111708408Y-76680357D01*
X111506133Y-76815513D01*
X111334113Y-76987533D01*
X111198957Y-77189808D01*
X111105860Y-77414564D01*
X111058400Y-77653163D01*
X107567255Y-77653163D01*
X107466357Y-77413021D01*
X107316469Y-77191137D01*
X107126173Y-77002758D01*
X106902783Y-76855124D01*
X106654883Y-76753908D01*
X106392000Y-76703000D01*
X106117000Y-76703000D01*
X105863000Y-76703000D01*
X105588000Y-76703000D01*
X105325117Y-76753908D01*
X105077217Y-76855124D01*
X104853827Y-77002758D01*
X104663531Y-77191137D01*
X104513643Y-77413021D01*
X104409922Y-77659883D01*
X104397481Y-77725742D01*
X103598926Y-77725742D01*
X103683635Y-77599323D01*
X103681496Y-77567285D01*
X103591636Y-77346356D01*
X103460402Y-77147203D01*
X103292837Y-76977479D01*
X103095380Y-76843706D01*
X102875619Y-76751026D01*
X102642000Y-76703000D01*
X102317000Y-76703000D01*
X102063000Y-76703000D01*
X101738000Y-76703000D01*
X101504381Y-76751026D01*
X101284620Y-76843706D01*
X101087163Y-76977479D01*
X100919598Y-77147203D01*
X100788364Y-77346356D01*
X100698504Y-77567285D01*
X100696365Y-77599323D01*
X100647400Y-77599323D01*
X100647400Y-76098061D01*
X126727000Y-76098061D01*
X126727000Y-76301939D01*
X126766774Y-76501898D01*
X126844795Y-76690256D01*
X126958063Y-76859774D01*
X127102226Y-77003937D01*
X127271744Y-77117205D01*
X127460102Y-77195226D01*
X127649359Y-77232871D01*
X131270001Y-80853514D01*
X131270000Y-91971712D01*
X131266081Y-92011500D01*
X131270000Y-92051288D01*
X131270000Y-92051290D01*
X131281720Y-92170287D01*
X131328037Y-92322972D01*
X131355152Y-92373700D01*
X131403251Y-92463689D01*
X131434703Y-92502013D01*
X131504472Y-92587028D01*
X131535388Y-92612400D01*
X135682629Y-96759642D01*
X135720274Y-96948898D01*
X135798295Y-97137256D01*
X135911563Y-97306774D01*
X136055726Y-97450937D01*
X136225244Y-97564205D01*
X136413602Y-97642226D01*
X136613561Y-97682000D01*
X136817439Y-97682000D01*
X137017398Y-97642226D01*
X137205756Y-97564205D01*
X137375274Y-97450937D01*
X137519437Y-97306774D01*
X137632705Y-97137256D01*
X137710726Y-96948898D01*
X137750500Y-96748939D01*
X137750500Y-96545061D01*
X137710726Y-96345102D01*
X137663223Y-96230420D01*
X137744061Y-96246500D01*
X137947939Y-96246500D01*
X138147898Y-96206726D01*
X138336256Y-96128705D01*
X138505774Y-96015437D01*
X138649937Y-95871274D01*
X138763205Y-95701756D01*
X138841226Y-95513398D01*
X138881000Y-95313439D01*
X138881000Y-95109561D01*
X138841226Y-94909602D01*
X138763205Y-94721244D01*
X138649937Y-94551726D01*
X138505774Y-94407563D01*
X138336256Y-94294295D01*
X138147898Y-94216274D01*
X137958642Y-94178629D01*
X136808874Y-93028861D01*
X138887100Y-93028861D01*
X138887100Y-93232739D01*
X138926874Y-93432698D01*
X139004895Y-93621056D01*
X139118163Y-93790574D01*
X139262326Y-93934737D01*
X139431844Y-94048005D01*
X139620202Y-94126026D01*
X139820161Y-94165800D01*
X140024039Y-94165800D01*
X140223998Y-94126026D01*
X140412356Y-94048005D01*
X140508679Y-93983644D01*
X140608444Y-94050305D01*
X140796802Y-94128326D01*
X140996761Y-94168100D01*
X141200639Y-94168100D01*
X141400598Y-94128326D01*
X141588956Y-94050305D01*
X141758474Y-93937037D01*
X141902637Y-93792874D01*
X142015905Y-93623356D01*
X142093926Y-93434998D01*
X142131571Y-93245741D01*
X147918618Y-87458695D01*
X147949528Y-87433328D01*
X148024359Y-87342146D01*
X148050749Y-87309990D01*
X148125962Y-87169274D01*
X148125963Y-87169273D01*
X148172280Y-87016588D01*
X148184000Y-86897591D01*
X148184000Y-86897589D01*
X148187919Y-86857801D01*
X148184000Y-86818013D01*
X148184000Y-82658500D01*
X148256886Y-82609799D01*
X148449799Y-82416886D01*
X148601371Y-82190043D01*
X148705775Y-81937989D01*
X148759000Y-81670411D01*
X148759000Y-81397589D01*
X148705775Y-81130011D01*
X148601371Y-80877957D01*
X148449799Y-80651114D01*
X148256886Y-80458201D01*
X148030043Y-80306629D01*
X147777989Y-80202225D01*
X147510411Y-80149000D01*
X147237589Y-80149000D01*
X146970011Y-80202225D01*
X146717957Y-80306629D01*
X146491114Y-80458201D01*
X146298201Y-80651114D01*
X146146629Y-80877957D01*
X146042225Y-81130011D01*
X145989000Y-81397589D01*
X145989000Y-81670411D01*
X146042225Y-81937989D01*
X146146629Y-82190043D01*
X146298201Y-82416886D01*
X146491114Y-82609799D01*
X146564000Y-82658500D01*
X146564001Y-86522286D01*
X143304000Y-89782288D01*
X143304000Y-82658500D01*
X143376886Y-82609799D01*
X143569799Y-82416886D01*
X143721371Y-82190043D01*
X143825775Y-81937989D01*
X143879000Y-81670411D01*
X143879000Y-81397589D01*
X143825775Y-81130011D01*
X143721371Y-80877957D01*
X143569799Y-80651114D01*
X143376886Y-80458201D01*
X143150043Y-80306629D01*
X142897989Y-80202225D01*
X142630411Y-80149000D01*
X142357589Y-80149000D01*
X142090011Y-80202225D01*
X141837957Y-80306629D01*
X141611114Y-80458201D01*
X141418201Y-80651114D01*
X141266629Y-80877957D01*
X141162225Y-81130011D01*
X141109000Y-81397589D01*
X141109000Y-81670411D01*
X141162225Y-81937989D01*
X141266629Y-82190043D01*
X141418201Y-82416886D01*
X141611114Y-82609799D01*
X141684000Y-82658500D01*
X141684001Y-90223386D01*
X139809459Y-92097929D01*
X139620202Y-92135574D01*
X139431844Y-92213595D01*
X139262326Y-92326863D01*
X139118163Y-92471026D01*
X139004895Y-92640544D01*
X138926874Y-92828902D01*
X138887100Y-93028861D01*
X136808874Y-93028861D01*
X134436800Y-90656788D01*
X134436800Y-77633800D01*
X134544005Y-77473356D01*
X134622026Y-77284998D01*
X134661800Y-77085039D01*
X134661800Y-76881161D01*
X134622026Y-76681202D01*
X134544005Y-76492844D01*
X134430737Y-76323326D01*
X134286574Y-76179163D01*
X134117056Y-76065895D01*
X133928698Y-75987874D01*
X133728739Y-75948100D01*
X133524861Y-75948100D01*
X133324902Y-75987874D01*
X133136544Y-76065895D01*
X132967026Y-76179163D01*
X132822863Y-76323326D01*
X132709595Y-76492844D01*
X132631574Y-76681202D01*
X132591800Y-76881161D01*
X132591800Y-77085039D01*
X132631574Y-77284998D01*
X132709595Y-77473356D01*
X132816801Y-77633801D01*
X132816801Y-80178160D01*
X132777701Y-80105009D01*
X132756749Y-80065810D01*
X132698727Y-79995111D01*
X132655528Y-79942472D01*
X132624618Y-79917105D01*
X128794871Y-76087359D01*
X128757226Y-75898102D01*
X128679205Y-75709744D01*
X128565937Y-75540226D01*
X128421774Y-75396063D01*
X128252256Y-75282795D01*
X128063898Y-75204774D01*
X127863939Y-75165000D01*
X127660061Y-75165000D01*
X127460102Y-75204774D01*
X127271744Y-75282795D01*
X127102226Y-75396063D01*
X126958063Y-75540226D01*
X126844795Y-75709744D01*
X126766774Y-75898102D01*
X126727000Y-76098061D01*
X100647400Y-76098061D01*
X100647400Y-70398954D01*
X100707627Y-70459181D01*
X100821232Y-70345576D01*
X101121411Y-70784028D01*
X101700356Y-71094496D01*
X102328746Y-71286052D01*
X102982431Y-71351334D01*
X103636293Y-71287834D01*
X104265203Y-71097992D01*
X104844992Y-70789104D01*
X104852589Y-70784028D01*
X105152769Y-70345574D01*
X102987000Y-68179805D01*
X102972858Y-68193948D01*
X102793253Y-68014343D01*
X102807395Y-68000200D01*
X102793253Y-67986058D01*
X102972858Y-67806453D01*
X102987000Y-67820595D01*
X103001143Y-67806453D01*
X103180748Y-67986058D01*
X103166605Y-68000200D01*
X105332374Y-70165969D01*
X105770828Y-69865789D01*
X106081296Y-69286844D01*
X106090637Y-69256200D01*
X123686928Y-69256200D01*
X123686928Y-71056200D01*
X123699188Y-71180682D01*
X123735498Y-71300380D01*
X123794463Y-71410694D01*
X123873815Y-71507385D01*
X123970506Y-71586737D01*
X124080820Y-71645702D01*
X124200518Y-71682012D01*
X124325000Y-71694272D01*
X126125000Y-71694272D01*
X126249482Y-71682012D01*
X126369180Y-71645702D01*
X126479494Y-71586737D01*
X126576185Y-71507385D01*
X126655537Y-71410694D01*
X126714502Y-71300380D01*
X126750812Y-71180682D01*
X126763072Y-71056200D01*
X126763072Y-69256200D01*
X131684928Y-69256200D01*
X131684928Y-71056200D01*
X131697188Y-71180682D01*
X131733498Y-71300380D01*
X131792463Y-71410694D01*
X131871815Y-71507385D01*
X131968506Y-71586737D01*
X132078820Y-71645702D01*
X132198518Y-71682012D01*
X132323000Y-71694272D01*
X134123000Y-71694272D01*
X134247482Y-71682012D01*
X134367180Y-71645702D01*
X134477494Y-71586737D01*
X134574185Y-71507385D01*
X134653537Y-71410694D01*
X134712502Y-71300380D01*
X134748812Y-71180682D01*
X134761072Y-71056200D01*
X134761072Y-69256200D01*
X134748812Y-69131718D01*
X134712502Y-69012020D01*
X134653537Y-68901706D01*
X134574185Y-68805015D01*
X134477494Y-68725663D01*
X134367180Y-68666698D01*
X134348873Y-68661144D01*
X134415312Y-68594705D01*
X134583299Y-68343295D01*
X134699011Y-68063943D01*
X134758000Y-67767384D01*
X134758000Y-67465016D01*
X134699011Y-67168457D01*
X134583299Y-66889105D01*
X134415312Y-66637695D01*
X134201505Y-66423888D01*
X133950095Y-66255901D01*
X133670743Y-66140189D01*
X133374184Y-66081200D01*
X133071816Y-66081200D01*
X132775257Y-66140189D01*
X132495905Y-66255901D01*
X132244495Y-66423888D01*
X132030688Y-66637695D01*
X131862701Y-66889105D01*
X131746989Y-67168457D01*
X131688000Y-67465016D01*
X131688000Y-67767384D01*
X131746989Y-68063943D01*
X131862701Y-68343295D01*
X132030688Y-68594705D01*
X132097127Y-68661144D01*
X132078820Y-68666698D01*
X131968506Y-68725663D01*
X131871815Y-68805015D01*
X131792463Y-68901706D01*
X131733498Y-69012020D01*
X131697188Y-69131718D01*
X131684928Y-69256200D01*
X126763072Y-69256200D01*
X126750812Y-69131718D01*
X126714502Y-69012020D01*
X126655537Y-68901706D01*
X126576185Y-68805015D01*
X126479494Y-68725663D01*
X126369180Y-68666698D01*
X126350873Y-68661144D01*
X126417312Y-68594705D01*
X126585299Y-68343295D01*
X126701011Y-68063943D01*
X126760000Y-67767384D01*
X126760000Y-67465016D01*
X126701011Y-67168457D01*
X126585299Y-66889105D01*
X126417312Y-66637695D01*
X126203505Y-66423888D01*
X125952095Y-66255901D01*
X125672743Y-66140189D01*
X125376184Y-66081200D01*
X125073816Y-66081200D01*
X124777257Y-66140189D01*
X124497905Y-66255901D01*
X124246495Y-66423888D01*
X124032688Y-66637695D01*
X123864701Y-66889105D01*
X123748989Y-67168457D01*
X123690000Y-67465016D01*
X123690000Y-67767384D01*
X123748989Y-68063943D01*
X123864701Y-68343295D01*
X124032688Y-68594705D01*
X124099127Y-68661144D01*
X124080820Y-68666698D01*
X123970506Y-68725663D01*
X123873815Y-68805015D01*
X123794463Y-68901706D01*
X123735498Y-69012020D01*
X123699188Y-69131718D01*
X123686928Y-69256200D01*
X106090637Y-69256200D01*
X106272852Y-68658454D01*
X106338134Y-68004769D01*
X106274634Y-67350907D01*
X106084792Y-66721997D01*
X105775904Y-66142208D01*
X105770828Y-66134611D01*
X105332376Y-65834432D01*
X105445981Y-65720827D01*
X105367154Y-65642000D01*
X179756169Y-65642000D01*
X179698231Y-65726626D01*
G36*
X171198890Y-88873000D02*
G01*
X170873110Y-88873000D01*
X171021858Y-88724253D01*
X171036000Y-88738395D01*
X171050143Y-88724253D01*
X171198890Y-88873000D01*
X171198890Y-88873000D01*
G37*
X171198890Y-88873000D02*
X170873110Y-88873000D01*
X171021858Y-88724253D01*
X171036000Y-88738395D01*
X171050143Y-88724253D01*
X171198890Y-88873000D01*
G36*
X175198890Y-88873000D02*
G01*
X174873110Y-88873000D01*
X175021858Y-88724253D01*
X175036000Y-88738395D01*
X175050143Y-88724253D01*
X175198890Y-88873000D01*
X175198890Y-88873000D01*
G37*
X175198890Y-88873000D02*
X174873110Y-88873000D01*
X175021858Y-88724253D01*
X175036000Y-88738395D01*
X175050143Y-88724253D01*
X175198890Y-88873000D01*
G36*
X178382700Y-74521349D02*
G01*
X178382701Y-77314763D01*
X178371410Y-77335887D01*
X178347543Y-77414564D01*
X178329709Y-77473356D01*
X178320804Y-77502710D01*
X178307999Y-77632723D01*
X178307999Y-77632730D01*
X178303718Y-77676199D01*
X178307999Y-77719669D01*
X178308000Y-78928723D01*
X178303718Y-78972201D01*
X178320804Y-79145691D01*
X178371411Y-79312514D01*
X178382700Y-79333635D01*
X178382701Y-80457620D01*
X176361122Y-82479200D01*
X174707818Y-82479200D01*
X174704120Y-82473665D01*
X174509535Y-82279080D01*
X174422912Y-82221200D01*
X174443542Y-82221200D01*
X174566223Y-82196797D01*
X174681785Y-82148930D01*
X174785789Y-82079437D01*
X174874237Y-81990989D01*
X174943730Y-81886985D01*
X174991597Y-81771423D01*
X175016000Y-81648742D01*
X175016000Y-81109950D01*
X174857250Y-80951200D01*
X173746000Y-80951200D01*
X173746000Y-80971200D01*
X173492000Y-80971200D01*
X173492000Y-80951200D01*
X173472000Y-80951200D01*
X173472000Y-80697200D01*
X173492000Y-80697200D01*
X173492000Y-79585950D01*
X173746000Y-79585950D01*
X173746000Y-80697200D01*
X174857250Y-80697200D01*
X175016000Y-80538450D01*
X175016000Y-79999658D01*
X174991597Y-79876977D01*
X174943730Y-79761415D01*
X174874237Y-79657411D01*
X174785789Y-79568963D01*
X174681785Y-79499470D01*
X174566223Y-79451603D01*
X174443542Y-79427200D01*
X173904750Y-79427200D01*
X173746000Y-79585950D01*
X173492000Y-79585950D01*
X173333250Y-79427200D01*
X172794458Y-79427200D01*
X172671777Y-79451603D01*
X172556215Y-79499470D01*
X172495278Y-79540187D01*
X171067507Y-78112416D01*
X171043246Y-78082854D01*
X170925283Y-77986044D01*
X170790699Y-77914108D01*
X170644668Y-77869810D01*
X170530853Y-77858600D01*
X170492800Y-77854852D01*
X170454747Y-77858600D01*
X165168853Y-77858600D01*
X165130800Y-77854852D01*
X165092747Y-77858600D01*
X164978932Y-77869810D01*
X164832901Y-77914108D01*
X164698317Y-77986044D01*
X164580354Y-78082854D01*
X164556098Y-78112410D01*
X156968416Y-85700093D01*
X156938854Y-85724354D01*
X156922020Y-85744866D01*
X156722920Y-85596359D01*
X156460099Y-85471175D01*
X156312890Y-85426524D01*
X156083000Y-85547845D01*
X156083000Y-86741000D01*
X156103000Y-86741000D01*
X156103000Y-86995000D01*
X156083000Y-86995000D01*
X156083000Y-87015000D01*
X155829000Y-87015000D01*
X155829000Y-86995000D01*
X155809000Y-86995000D01*
X155809000Y-86741000D01*
X155829000Y-86741000D01*
X155829000Y-85547845D01*
X155599110Y-85426524D01*
X155451901Y-85471175D01*
X155189080Y-85596359D01*
X154955731Y-85770412D01*
X154879966Y-85854466D01*
X154855502Y-85773820D01*
X154796537Y-85663506D01*
X154717185Y-85566815D01*
X154620494Y-85487463D01*
X154510180Y-85428498D01*
X154390482Y-85392188D01*
X154266000Y-85379928D01*
X153857016Y-85379928D01*
X153894646Y-85349046D01*
X153918907Y-85319484D01*
X166006328Y-73232064D01*
X166020215Y-73248985D01*
X166116906Y-73328337D01*
X166227220Y-73387302D01*
X166346918Y-73423612D01*
X166471400Y-73435872D01*
X168198600Y-73435872D01*
X168323082Y-73423612D01*
X168442780Y-73387302D01*
X168553094Y-73328337D01*
X168649785Y-73248985D01*
X168729137Y-73152294D01*
X168788102Y-73041980D01*
X168803586Y-72990935D01*
X168810203Y-72998997D01*
X169038394Y-73186269D01*
X169298736Y-73325425D01*
X169581223Y-73411116D01*
X169801381Y-73432800D01*
X169948619Y-73432800D01*
X170168777Y-73411116D01*
X170451264Y-73325425D01*
X170711606Y-73186269D01*
X170939797Y-72998997D01*
X171127069Y-72770806D01*
X171145000Y-72737260D01*
X171162931Y-72770806D01*
X171350203Y-72998997D01*
X171578394Y-73186269D01*
X171838736Y-73325425D01*
X172121223Y-73411116D01*
X172341381Y-73432800D01*
X172488619Y-73432800D01*
X172708777Y-73411116D01*
X172991264Y-73325425D01*
X173251606Y-73186269D01*
X173479797Y-72998997D01*
X173667069Y-72770806D01*
X173806225Y-72510464D01*
X173891916Y-72227977D01*
X173920851Y-71934200D01*
X173891916Y-71640423D01*
X173806225Y-71357936D01*
X173667069Y-71097594D01*
X173479797Y-70869403D01*
X173251606Y-70682131D01*
X173211567Y-70660730D01*
X173425293Y-70501054D01*
X173621817Y-70282688D01*
X173771964Y-70030178D01*
X173803214Y-69941863D01*
X178382700Y-74521349D01*
X178382700Y-74521349D01*
G37*
X178382700Y-74521349D02*
X178382701Y-77314763D01*
X178371410Y-77335887D01*
X178347543Y-77414564D01*
X178329709Y-77473356D01*
X178320804Y-77502710D01*
X178307999Y-77632723D01*
X178307999Y-77632730D01*
X178303718Y-77676199D01*
X178307999Y-77719669D01*
X178308000Y-78928723D01*
X178303718Y-78972201D01*
X178320804Y-79145691D01*
X178371411Y-79312514D01*
X178382700Y-79333635D01*
X178382701Y-80457620D01*
X176361122Y-82479200D01*
X174707818Y-82479200D01*
X174704120Y-82473665D01*
X174509535Y-82279080D01*
X174422912Y-82221200D01*
X174443542Y-82221200D01*
X174566223Y-82196797D01*
X174681785Y-82148930D01*
X174785789Y-82079437D01*
X174874237Y-81990989D01*
X174943730Y-81886985D01*
X174991597Y-81771423D01*
X175016000Y-81648742D01*
X175016000Y-81109950D01*
X174857250Y-80951200D01*
X173746000Y-80951200D01*
X173746000Y-80971200D01*
X173492000Y-80971200D01*
X173492000Y-80951200D01*
X173472000Y-80951200D01*
X173472000Y-80697200D01*
X173492000Y-80697200D01*
X173492000Y-79585950D01*
X173746000Y-79585950D01*
X173746000Y-80697200D01*
X174857250Y-80697200D01*
X175016000Y-80538450D01*
X175016000Y-79999658D01*
X174991597Y-79876977D01*
X174943730Y-79761415D01*
X174874237Y-79657411D01*
X174785789Y-79568963D01*
X174681785Y-79499470D01*
X174566223Y-79451603D01*
X174443542Y-79427200D01*
X173904750Y-79427200D01*
X173746000Y-79585950D01*
X173492000Y-79585950D01*
X173333250Y-79427200D01*
X172794458Y-79427200D01*
X172671777Y-79451603D01*
X172556215Y-79499470D01*
X172495278Y-79540187D01*
X171067507Y-78112416D01*
X171043246Y-78082854D01*
X170925283Y-77986044D01*
X170790699Y-77914108D01*
X170644668Y-77869810D01*
X170530853Y-77858600D01*
X170492800Y-77854852D01*
X170454747Y-77858600D01*
X165168853Y-77858600D01*
X165130800Y-77854852D01*
X165092747Y-77858600D01*
X164978932Y-77869810D01*
X164832901Y-77914108D01*
X164698317Y-77986044D01*
X164580354Y-78082854D01*
X164556098Y-78112410D01*
X156968416Y-85700093D01*
X156938854Y-85724354D01*
X156922020Y-85744866D01*
X156722920Y-85596359D01*
X156460099Y-85471175D01*
X156312890Y-85426524D01*
X156083000Y-85547845D01*
X156083000Y-86741000D01*
X156103000Y-86741000D01*
X156103000Y-86995000D01*
X156083000Y-86995000D01*
X156083000Y-87015000D01*
X155829000Y-87015000D01*
X155829000Y-86995000D01*
X155809000Y-86995000D01*
X155809000Y-86741000D01*
X155829000Y-86741000D01*
X155829000Y-85547845D01*
X155599110Y-85426524D01*
X155451901Y-85471175D01*
X155189080Y-85596359D01*
X154955731Y-85770412D01*
X154879966Y-85854466D01*
X154855502Y-85773820D01*
X154796537Y-85663506D01*
X154717185Y-85566815D01*
X154620494Y-85487463D01*
X154510180Y-85428498D01*
X154390482Y-85392188D01*
X154266000Y-85379928D01*
X153857016Y-85379928D01*
X153894646Y-85349046D01*
X153918907Y-85319484D01*
X166006328Y-73232064D01*
X166020215Y-73248985D01*
X166116906Y-73328337D01*
X166227220Y-73387302D01*
X166346918Y-73423612D01*
X166471400Y-73435872D01*
X168198600Y-73435872D01*
X168323082Y-73423612D01*
X168442780Y-73387302D01*
X168553094Y-73328337D01*
X168649785Y-73248985D01*
X168729137Y-73152294D01*
X168788102Y-73041980D01*
X168803586Y-72990935D01*
X168810203Y-72998997D01*
X169038394Y-73186269D01*
X169298736Y-73325425D01*
X169581223Y-73411116D01*
X169801381Y-73432800D01*
X169948619Y-73432800D01*
X170168777Y-73411116D01*
X170451264Y-73325425D01*
X170711606Y-73186269D01*
X170939797Y-72998997D01*
X171127069Y-72770806D01*
X171145000Y-72737260D01*
X171162931Y-72770806D01*
X171350203Y-72998997D01*
X171578394Y-73186269D01*
X171838736Y-73325425D01*
X172121223Y-73411116D01*
X172341381Y-73432800D01*
X172488619Y-73432800D01*
X172708777Y-73411116D01*
X172991264Y-73325425D01*
X173251606Y-73186269D01*
X173479797Y-72998997D01*
X173667069Y-72770806D01*
X173806225Y-72510464D01*
X173891916Y-72227977D01*
X173920851Y-71934200D01*
X173891916Y-71640423D01*
X173806225Y-71357936D01*
X173667069Y-71097594D01*
X173479797Y-70869403D01*
X173251606Y-70682131D01*
X173211567Y-70660730D01*
X173425293Y-70501054D01*
X173621817Y-70282688D01*
X173771964Y-70030178D01*
X173803214Y-69941863D01*
X178382700Y-74521349D01*
G36*
X172542000Y-69267200D02*
G01*
X172562000Y-69267200D01*
X172562000Y-69521200D01*
X172542000Y-69521200D01*
X172542000Y-69541200D01*
X172288000Y-69541200D01*
X172288000Y-69521200D01*
X172268000Y-69521200D01*
X172268000Y-69267200D01*
X172288000Y-69267200D01*
X172288000Y-69247200D01*
X172542000Y-69247200D01*
X172542000Y-69267200D01*
X172542000Y-69267200D01*
G37*
X172542000Y-69267200D02*
X172562000Y-69267200D01*
X172562000Y-69521200D01*
X172542000Y-69521200D01*
X172542000Y-69541200D01*
X172288000Y-69541200D01*
X172288000Y-69521200D01*
X172268000Y-69521200D01*
X172268000Y-69267200D01*
X172288000Y-69267200D01*
X172288000Y-69247200D01*
X172542000Y-69247200D01*
X172542000Y-69267200D01*
M02*
