G04 #@! TF.GenerationSoftware,KiCad,Pcbnew,5.1.0-unknown-9bfce26~94~ubuntu16.04.1*
G04 #@! TF.CreationDate,2019-03-28T22:01:40+01:00*
G04 #@! TF.ProjectId,mySensors_door_switch,6d795365-6e73-46f7-9273-5f646f6f725f,1.0*
G04 #@! TF.SameCoordinates,Original*
G04 #@! TF.FileFunction,Paste,Top*
G04 #@! TF.FilePolarity,Positive*
%FSLAX46Y46*%
G04 Gerber Fmt 4.6, Leading zero omitted, Abs format (unit mm)*
G04 Created by KiCad (PCBNEW 5.1.0-unknown-9bfce26~94~ubuntu16.04.1) date 2019-03-28 22:01:40*
%MOMM*%
%LPD*%
G04 APERTURE LIST*
%ADD10C,0.100000*%
%ADD11C,1.150000*%
%ADD12R,1.220000X0.650000*%
%ADD13R,1.200000X3.000000*%
%ADD14R,1.600000X0.550000*%
%ADD15R,0.550000X1.600000*%
%ADD16C,1.425000*%
%ADD17R,0.800000X0.900000*%
%ADD18R,1.560000X0.650000*%
%ADD19R,1.300000X0.450000*%
%ADD20R,1.450000X0.450000*%
%ADD21C,0.600000*%
%ADD22C,0.970000*%
%ADD23R,0.650000X1.560000*%
G04 APERTURE END LIST*
D10*
G36*
X113885505Y-88716204D02*
G01*
X113909773Y-88719804D01*
X113933572Y-88725765D01*
X113956671Y-88734030D01*
X113978850Y-88744520D01*
X113999893Y-88757132D01*
X114019599Y-88771747D01*
X114037777Y-88788223D01*
X114054253Y-88806401D01*
X114068868Y-88826107D01*
X114081480Y-88847150D01*
X114091970Y-88869329D01*
X114100235Y-88892428D01*
X114106196Y-88916227D01*
X114109796Y-88940495D01*
X114111000Y-88964999D01*
X114111000Y-89615001D01*
X114109796Y-89639505D01*
X114106196Y-89663773D01*
X114100235Y-89687572D01*
X114091970Y-89710671D01*
X114081480Y-89732850D01*
X114068868Y-89753893D01*
X114054253Y-89773599D01*
X114037777Y-89791777D01*
X114019599Y-89808253D01*
X113999893Y-89822868D01*
X113978850Y-89835480D01*
X113956671Y-89845970D01*
X113933572Y-89854235D01*
X113909773Y-89860196D01*
X113885505Y-89863796D01*
X113861001Y-89865000D01*
X112960999Y-89865000D01*
X112936495Y-89863796D01*
X112912227Y-89860196D01*
X112888428Y-89854235D01*
X112865329Y-89845970D01*
X112843150Y-89835480D01*
X112822107Y-89822868D01*
X112802401Y-89808253D01*
X112784223Y-89791777D01*
X112767747Y-89773599D01*
X112753132Y-89753893D01*
X112740520Y-89732850D01*
X112730030Y-89710671D01*
X112721765Y-89687572D01*
X112715804Y-89663773D01*
X112712204Y-89639505D01*
X112711000Y-89615001D01*
X112711000Y-88964999D01*
X112712204Y-88940495D01*
X112715804Y-88916227D01*
X112721765Y-88892428D01*
X112730030Y-88869329D01*
X112740520Y-88847150D01*
X112753132Y-88826107D01*
X112767747Y-88806401D01*
X112784223Y-88788223D01*
X112802401Y-88771747D01*
X112822107Y-88757132D01*
X112843150Y-88744520D01*
X112865329Y-88734030D01*
X112888428Y-88725765D01*
X112912227Y-88719804D01*
X112936495Y-88716204D01*
X112960999Y-88715000D01*
X113861001Y-88715000D01*
X113885505Y-88716204D01*
X113885505Y-88716204D01*
G37*
D11*
X113411000Y-89290000D03*
D10*
G36*
X113885505Y-86666204D02*
G01*
X113909773Y-86669804D01*
X113933572Y-86675765D01*
X113956671Y-86684030D01*
X113978850Y-86694520D01*
X113999893Y-86707132D01*
X114019599Y-86721747D01*
X114037777Y-86738223D01*
X114054253Y-86756401D01*
X114068868Y-86776107D01*
X114081480Y-86797150D01*
X114091970Y-86819329D01*
X114100235Y-86842428D01*
X114106196Y-86866227D01*
X114109796Y-86890495D01*
X114111000Y-86914999D01*
X114111000Y-87565001D01*
X114109796Y-87589505D01*
X114106196Y-87613773D01*
X114100235Y-87637572D01*
X114091970Y-87660671D01*
X114081480Y-87682850D01*
X114068868Y-87703893D01*
X114054253Y-87723599D01*
X114037777Y-87741777D01*
X114019599Y-87758253D01*
X113999893Y-87772868D01*
X113978850Y-87785480D01*
X113956671Y-87795970D01*
X113933572Y-87804235D01*
X113909773Y-87810196D01*
X113885505Y-87813796D01*
X113861001Y-87815000D01*
X112960999Y-87815000D01*
X112936495Y-87813796D01*
X112912227Y-87810196D01*
X112888428Y-87804235D01*
X112865329Y-87795970D01*
X112843150Y-87785480D01*
X112822107Y-87772868D01*
X112802401Y-87758253D01*
X112784223Y-87741777D01*
X112767747Y-87723599D01*
X112753132Y-87703893D01*
X112740520Y-87682850D01*
X112730030Y-87660671D01*
X112721765Y-87637572D01*
X112715804Y-87613773D01*
X112712204Y-87589505D01*
X112711000Y-87565001D01*
X112711000Y-86914999D01*
X112712204Y-86890495D01*
X112715804Y-86866227D01*
X112721765Y-86842428D01*
X112730030Y-86819329D01*
X112740520Y-86797150D01*
X112753132Y-86776107D01*
X112767747Y-86756401D01*
X112784223Y-86738223D01*
X112802401Y-86721747D01*
X112822107Y-86707132D01*
X112843150Y-86694520D01*
X112865329Y-86684030D01*
X112888428Y-86675765D01*
X112912227Y-86669804D01*
X112936495Y-86666204D01*
X112960999Y-86665000D01*
X113861001Y-86665000D01*
X113885505Y-86666204D01*
X113885505Y-86666204D01*
G37*
D11*
X113411000Y-87240000D03*
D12*
X127214000Y-94996000D03*
X129834000Y-94046000D03*
X129834000Y-95946000D03*
D10*
G36*
X131157505Y-86938204D02*
G01*
X131181773Y-86941804D01*
X131205572Y-86947765D01*
X131228671Y-86956030D01*
X131250850Y-86966520D01*
X131271893Y-86979132D01*
X131291599Y-86993747D01*
X131309777Y-87010223D01*
X131326253Y-87028401D01*
X131340868Y-87048107D01*
X131353480Y-87069150D01*
X131363970Y-87091329D01*
X131372235Y-87114428D01*
X131378196Y-87138227D01*
X131381796Y-87162495D01*
X131383000Y-87186999D01*
X131383000Y-87837001D01*
X131381796Y-87861505D01*
X131378196Y-87885773D01*
X131372235Y-87909572D01*
X131363970Y-87932671D01*
X131353480Y-87954850D01*
X131340868Y-87975893D01*
X131326253Y-87995599D01*
X131309777Y-88013777D01*
X131291599Y-88030253D01*
X131271893Y-88044868D01*
X131250850Y-88057480D01*
X131228671Y-88067970D01*
X131205572Y-88076235D01*
X131181773Y-88082196D01*
X131157505Y-88085796D01*
X131133001Y-88087000D01*
X130232999Y-88087000D01*
X130208495Y-88085796D01*
X130184227Y-88082196D01*
X130160428Y-88076235D01*
X130137329Y-88067970D01*
X130115150Y-88057480D01*
X130094107Y-88044868D01*
X130074401Y-88030253D01*
X130056223Y-88013777D01*
X130039747Y-87995599D01*
X130025132Y-87975893D01*
X130012520Y-87954850D01*
X130002030Y-87932671D01*
X129993765Y-87909572D01*
X129987804Y-87885773D01*
X129984204Y-87861505D01*
X129983000Y-87837001D01*
X129983000Y-87186999D01*
X129984204Y-87162495D01*
X129987804Y-87138227D01*
X129993765Y-87114428D01*
X130002030Y-87091329D01*
X130012520Y-87069150D01*
X130025132Y-87048107D01*
X130039747Y-87028401D01*
X130056223Y-87010223D01*
X130074401Y-86993747D01*
X130094107Y-86979132D01*
X130115150Y-86966520D01*
X130137329Y-86956030D01*
X130160428Y-86947765D01*
X130184227Y-86941804D01*
X130208495Y-86938204D01*
X130232999Y-86937000D01*
X131133001Y-86937000D01*
X131157505Y-86938204D01*
X131157505Y-86938204D01*
G37*
D11*
X130683000Y-87512000D03*
D10*
G36*
X131157505Y-84888204D02*
G01*
X131181773Y-84891804D01*
X131205572Y-84897765D01*
X131228671Y-84906030D01*
X131250850Y-84916520D01*
X131271893Y-84929132D01*
X131291599Y-84943747D01*
X131309777Y-84960223D01*
X131326253Y-84978401D01*
X131340868Y-84998107D01*
X131353480Y-85019150D01*
X131363970Y-85041329D01*
X131372235Y-85064428D01*
X131378196Y-85088227D01*
X131381796Y-85112495D01*
X131383000Y-85136999D01*
X131383000Y-85787001D01*
X131381796Y-85811505D01*
X131378196Y-85835773D01*
X131372235Y-85859572D01*
X131363970Y-85882671D01*
X131353480Y-85904850D01*
X131340868Y-85925893D01*
X131326253Y-85945599D01*
X131309777Y-85963777D01*
X131291599Y-85980253D01*
X131271893Y-85994868D01*
X131250850Y-86007480D01*
X131228671Y-86017970D01*
X131205572Y-86026235D01*
X131181773Y-86032196D01*
X131157505Y-86035796D01*
X131133001Y-86037000D01*
X130232999Y-86037000D01*
X130208495Y-86035796D01*
X130184227Y-86032196D01*
X130160428Y-86026235D01*
X130137329Y-86017970D01*
X130115150Y-86007480D01*
X130094107Y-85994868D01*
X130074401Y-85980253D01*
X130056223Y-85963777D01*
X130039747Y-85945599D01*
X130025132Y-85925893D01*
X130012520Y-85904850D01*
X130002030Y-85882671D01*
X129993765Y-85859572D01*
X129987804Y-85835773D01*
X129984204Y-85811505D01*
X129983000Y-85787001D01*
X129983000Y-85136999D01*
X129984204Y-85112495D01*
X129987804Y-85088227D01*
X129993765Y-85064428D01*
X130002030Y-85041329D01*
X130012520Y-85019150D01*
X130025132Y-84998107D01*
X130039747Y-84978401D01*
X130056223Y-84960223D01*
X130074401Y-84943747D01*
X130094107Y-84929132D01*
X130115150Y-84916520D01*
X130137329Y-84906030D01*
X130160428Y-84897765D01*
X130184227Y-84891804D01*
X130208495Y-84888204D01*
X130232999Y-84887000D01*
X131133001Y-84887000D01*
X131157505Y-84888204D01*
X131157505Y-84888204D01*
G37*
D11*
X130683000Y-85462000D03*
D10*
G36*
X110710505Y-96209204D02*
G01*
X110734773Y-96212804D01*
X110758572Y-96218765D01*
X110781671Y-96227030D01*
X110803850Y-96237520D01*
X110824893Y-96250132D01*
X110844599Y-96264747D01*
X110862777Y-96281223D01*
X110879253Y-96299401D01*
X110893868Y-96319107D01*
X110906480Y-96340150D01*
X110916970Y-96362329D01*
X110925235Y-96385428D01*
X110931196Y-96409227D01*
X110934796Y-96433495D01*
X110936000Y-96457999D01*
X110936000Y-97108001D01*
X110934796Y-97132505D01*
X110931196Y-97156773D01*
X110925235Y-97180572D01*
X110916970Y-97203671D01*
X110906480Y-97225850D01*
X110893868Y-97246893D01*
X110879253Y-97266599D01*
X110862777Y-97284777D01*
X110844599Y-97301253D01*
X110824893Y-97315868D01*
X110803850Y-97328480D01*
X110781671Y-97338970D01*
X110758572Y-97347235D01*
X110734773Y-97353196D01*
X110710505Y-97356796D01*
X110686001Y-97358000D01*
X109785999Y-97358000D01*
X109761495Y-97356796D01*
X109737227Y-97353196D01*
X109713428Y-97347235D01*
X109690329Y-97338970D01*
X109668150Y-97328480D01*
X109647107Y-97315868D01*
X109627401Y-97301253D01*
X109609223Y-97284777D01*
X109592747Y-97266599D01*
X109578132Y-97246893D01*
X109565520Y-97225850D01*
X109555030Y-97203671D01*
X109546765Y-97180572D01*
X109540804Y-97156773D01*
X109537204Y-97132505D01*
X109536000Y-97108001D01*
X109536000Y-96457999D01*
X109537204Y-96433495D01*
X109540804Y-96409227D01*
X109546765Y-96385428D01*
X109555030Y-96362329D01*
X109565520Y-96340150D01*
X109578132Y-96319107D01*
X109592747Y-96299401D01*
X109609223Y-96281223D01*
X109627401Y-96264747D01*
X109647107Y-96250132D01*
X109668150Y-96237520D01*
X109690329Y-96227030D01*
X109713428Y-96218765D01*
X109737227Y-96212804D01*
X109761495Y-96209204D01*
X109785999Y-96208000D01*
X110686001Y-96208000D01*
X110710505Y-96209204D01*
X110710505Y-96209204D01*
G37*
D11*
X110236000Y-96783000D03*
D10*
G36*
X110710505Y-94159204D02*
G01*
X110734773Y-94162804D01*
X110758572Y-94168765D01*
X110781671Y-94177030D01*
X110803850Y-94187520D01*
X110824893Y-94200132D01*
X110844599Y-94214747D01*
X110862777Y-94231223D01*
X110879253Y-94249401D01*
X110893868Y-94269107D01*
X110906480Y-94290150D01*
X110916970Y-94312329D01*
X110925235Y-94335428D01*
X110931196Y-94359227D01*
X110934796Y-94383495D01*
X110936000Y-94407999D01*
X110936000Y-95058001D01*
X110934796Y-95082505D01*
X110931196Y-95106773D01*
X110925235Y-95130572D01*
X110916970Y-95153671D01*
X110906480Y-95175850D01*
X110893868Y-95196893D01*
X110879253Y-95216599D01*
X110862777Y-95234777D01*
X110844599Y-95251253D01*
X110824893Y-95265868D01*
X110803850Y-95278480D01*
X110781671Y-95288970D01*
X110758572Y-95297235D01*
X110734773Y-95303196D01*
X110710505Y-95306796D01*
X110686001Y-95308000D01*
X109785999Y-95308000D01*
X109761495Y-95306796D01*
X109737227Y-95303196D01*
X109713428Y-95297235D01*
X109690329Y-95288970D01*
X109668150Y-95278480D01*
X109647107Y-95265868D01*
X109627401Y-95251253D01*
X109609223Y-95234777D01*
X109592747Y-95216599D01*
X109578132Y-95196893D01*
X109565520Y-95175850D01*
X109555030Y-95153671D01*
X109546765Y-95130572D01*
X109540804Y-95106773D01*
X109537204Y-95082505D01*
X109536000Y-95058001D01*
X109536000Y-94407999D01*
X109537204Y-94383495D01*
X109540804Y-94359227D01*
X109546765Y-94335428D01*
X109555030Y-94312329D01*
X109565520Y-94290150D01*
X109578132Y-94269107D01*
X109592747Y-94249401D01*
X109609223Y-94231223D01*
X109627401Y-94214747D01*
X109647107Y-94200132D01*
X109668150Y-94187520D01*
X109690329Y-94177030D01*
X109713428Y-94168765D01*
X109737227Y-94162804D01*
X109761495Y-94159204D01*
X109785999Y-94158000D01*
X110686001Y-94158000D01*
X110710505Y-94159204D01*
X110710505Y-94159204D01*
G37*
D11*
X110236000Y-94733000D03*
D10*
G36*
X132300505Y-106623204D02*
G01*
X132324773Y-106626804D01*
X132348572Y-106632765D01*
X132371671Y-106641030D01*
X132393850Y-106651520D01*
X132414893Y-106664132D01*
X132434599Y-106678747D01*
X132452777Y-106695223D01*
X132469253Y-106713401D01*
X132483868Y-106733107D01*
X132496480Y-106754150D01*
X132506970Y-106776329D01*
X132515235Y-106799428D01*
X132521196Y-106823227D01*
X132524796Y-106847495D01*
X132526000Y-106871999D01*
X132526000Y-107522001D01*
X132524796Y-107546505D01*
X132521196Y-107570773D01*
X132515235Y-107594572D01*
X132506970Y-107617671D01*
X132496480Y-107639850D01*
X132483868Y-107660893D01*
X132469253Y-107680599D01*
X132452777Y-107698777D01*
X132434599Y-107715253D01*
X132414893Y-107729868D01*
X132393850Y-107742480D01*
X132371671Y-107752970D01*
X132348572Y-107761235D01*
X132324773Y-107767196D01*
X132300505Y-107770796D01*
X132276001Y-107772000D01*
X131375999Y-107772000D01*
X131351495Y-107770796D01*
X131327227Y-107767196D01*
X131303428Y-107761235D01*
X131280329Y-107752970D01*
X131258150Y-107742480D01*
X131237107Y-107729868D01*
X131217401Y-107715253D01*
X131199223Y-107698777D01*
X131182747Y-107680599D01*
X131168132Y-107660893D01*
X131155520Y-107639850D01*
X131145030Y-107617671D01*
X131136765Y-107594572D01*
X131130804Y-107570773D01*
X131127204Y-107546505D01*
X131126000Y-107522001D01*
X131126000Y-106871999D01*
X131127204Y-106847495D01*
X131130804Y-106823227D01*
X131136765Y-106799428D01*
X131145030Y-106776329D01*
X131155520Y-106754150D01*
X131168132Y-106733107D01*
X131182747Y-106713401D01*
X131199223Y-106695223D01*
X131217401Y-106678747D01*
X131237107Y-106664132D01*
X131258150Y-106651520D01*
X131280329Y-106641030D01*
X131303428Y-106632765D01*
X131327227Y-106626804D01*
X131351495Y-106623204D01*
X131375999Y-106622000D01*
X132276001Y-106622000D01*
X132300505Y-106623204D01*
X132300505Y-106623204D01*
G37*
D11*
X131826000Y-107197000D03*
D10*
G36*
X132300505Y-104573204D02*
G01*
X132324773Y-104576804D01*
X132348572Y-104582765D01*
X132371671Y-104591030D01*
X132393850Y-104601520D01*
X132414893Y-104614132D01*
X132434599Y-104628747D01*
X132452777Y-104645223D01*
X132469253Y-104663401D01*
X132483868Y-104683107D01*
X132496480Y-104704150D01*
X132506970Y-104726329D01*
X132515235Y-104749428D01*
X132521196Y-104773227D01*
X132524796Y-104797495D01*
X132526000Y-104821999D01*
X132526000Y-105472001D01*
X132524796Y-105496505D01*
X132521196Y-105520773D01*
X132515235Y-105544572D01*
X132506970Y-105567671D01*
X132496480Y-105589850D01*
X132483868Y-105610893D01*
X132469253Y-105630599D01*
X132452777Y-105648777D01*
X132434599Y-105665253D01*
X132414893Y-105679868D01*
X132393850Y-105692480D01*
X132371671Y-105702970D01*
X132348572Y-105711235D01*
X132324773Y-105717196D01*
X132300505Y-105720796D01*
X132276001Y-105722000D01*
X131375999Y-105722000D01*
X131351495Y-105720796D01*
X131327227Y-105717196D01*
X131303428Y-105711235D01*
X131280329Y-105702970D01*
X131258150Y-105692480D01*
X131237107Y-105679868D01*
X131217401Y-105665253D01*
X131199223Y-105648777D01*
X131182747Y-105630599D01*
X131168132Y-105610893D01*
X131155520Y-105589850D01*
X131145030Y-105567671D01*
X131136765Y-105544572D01*
X131130804Y-105520773D01*
X131127204Y-105496505D01*
X131126000Y-105472001D01*
X131126000Y-104821999D01*
X131127204Y-104797495D01*
X131130804Y-104773227D01*
X131136765Y-104749428D01*
X131145030Y-104726329D01*
X131155520Y-104704150D01*
X131168132Y-104683107D01*
X131182747Y-104663401D01*
X131199223Y-104645223D01*
X131217401Y-104628747D01*
X131237107Y-104614132D01*
X131258150Y-104601520D01*
X131280329Y-104591030D01*
X131303428Y-104582765D01*
X131327227Y-104576804D01*
X131351495Y-104573204D01*
X131375999Y-104572000D01*
X132276001Y-104572000D01*
X132300505Y-104573204D01*
X132300505Y-104573204D01*
G37*
D11*
X131826000Y-105147000D03*
D10*
G36*
X160124505Y-70929204D02*
G01*
X160148773Y-70932804D01*
X160172572Y-70938765D01*
X160195671Y-70947030D01*
X160217850Y-70957520D01*
X160238893Y-70970132D01*
X160258599Y-70984747D01*
X160276777Y-71001223D01*
X160293253Y-71019401D01*
X160307868Y-71039107D01*
X160320480Y-71060150D01*
X160330970Y-71082329D01*
X160339235Y-71105428D01*
X160345196Y-71129227D01*
X160348796Y-71153495D01*
X160350000Y-71177999D01*
X160350000Y-72078001D01*
X160348796Y-72102505D01*
X160345196Y-72126773D01*
X160339235Y-72150572D01*
X160330970Y-72173671D01*
X160320480Y-72195850D01*
X160307868Y-72216893D01*
X160293253Y-72236599D01*
X160276777Y-72254777D01*
X160258599Y-72271253D01*
X160238893Y-72285868D01*
X160217850Y-72298480D01*
X160195671Y-72308970D01*
X160172572Y-72317235D01*
X160148773Y-72323196D01*
X160124505Y-72326796D01*
X160100001Y-72328000D01*
X159449999Y-72328000D01*
X159425495Y-72326796D01*
X159401227Y-72323196D01*
X159377428Y-72317235D01*
X159354329Y-72308970D01*
X159332150Y-72298480D01*
X159311107Y-72285868D01*
X159291401Y-72271253D01*
X159273223Y-72254777D01*
X159256747Y-72236599D01*
X159242132Y-72216893D01*
X159229520Y-72195850D01*
X159219030Y-72173671D01*
X159210765Y-72150572D01*
X159204804Y-72126773D01*
X159201204Y-72102505D01*
X159200000Y-72078001D01*
X159200000Y-71177999D01*
X159201204Y-71153495D01*
X159204804Y-71129227D01*
X159210765Y-71105428D01*
X159219030Y-71082329D01*
X159229520Y-71060150D01*
X159242132Y-71039107D01*
X159256747Y-71019401D01*
X159273223Y-71001223D01*
X159291401Y-70984747D01*
X159311107Y-70970132D01*
X159332150Y-70957520D01*
X159354329Y-70947030D01*
X159377428Y-70938765D01*
X159401227Y-70932804D01*
X159425495Y-70929204D01*
X159449999Y-70928000D01*
X160100001Y-70928000D01*
X160124505Y-70929204D01*
X160124505Y-70929204D01*
G37*
D11*
X159775000Y-71628000D03*
D10*
G36*
X158074505Y-70929204D02*
G01*
X158098773Y-70932804D01*
X158122572Y-70938765D01*
X158145671Y-70947030D01*
X158167850Y-70957520D01*
X158188893Y-70970132D01*
X158208599Y-70984747D01*
X158226777Y-71001223D01*
X158243253Y-71019401D01*
X158257868Y-71039107D01*
X158270480Y-71060150D01*
X158280970Y-71082329D01*
X158289235Y-71105428D01*
X158295196Y-71129227D01*
X158298796Y-71153495D01*
X158300000Y-71177999D01*
X158300000Y-72078001D01*
X158298796Y-72102505D01*
X158295196Y-72126773D01*
X158289235Y-72150572D01*
X158280970Y-72173671D01*
X158270480Y-72195850D01*
X158257868Y-72216893D01*
X158243253Y-72236599D01*
X158226777Y-72254777D01*
X158208599Y-72271253D01*
X158188893Y-72285868D01*
X158167850Y-72298480D01*
X158145671Y-72308970D01*
X158122572Y-72317235D01*
X158098773Y-72323196D01*
X158074505Y-72326796D01*
X158050001Y-72328000D01*
X157399999Y-72328000D01*
X157375495Y-72326796D01*
X157351227Y-72323196D01*
X157327428Y-72317235D01*
X157304329Y-72308970D01*
X157282150Y-72298480D01*
X157261107Y-72285868D01*
X157241401Y-72271253D01*
X157223223Y-72254777D01*
X157206747Y-72236599D01*
X157192132Y-72216893D01*
X157179520Y-72195850D01*
X157169030Y-72173671D01*
X157160765Y-72150572D01*
X157154804Y-72126773D01*
X157151204Y-72102505D01*
X157150000Y-72078001D01*
X157150000Y-71177999D01*
X157151204Y-71153495D01*
X157154804Y-71129227D01*
X157160765Y-71105428D01*
X157169030Y-71082329D01*
X157179520Y-71060150D01*
X157192132Y-71039107D01*
X157206747Y-71019401D01*
X157223223Y-71001223D01*
X157241401Y-70984747D01*
X157261107Y-70970132D01*
X157282150Y-70957520D01*
X157304329Y-70947030D01*
X157327428Y-70938765D01*
X157351227Y-70932804D01*
X157375495Y-70929204D01*
X157399999Y-70928000D01*
X158050001Y-70928000D01*
X158074505Y-70929204D01*
X158074505Y-70929204D01*
G37*
D11*
X157725000Y-71628000D03*
D10*
G36*
X151604505Y-102559204D02*
G01*
X151628773Y-102562804D01*
X151652572Y-102568765D01*
X151675671Y-102577030D01*
X151697850Y-102587520D01*
X151718893Y-102600132D01*
X151738599Y-102614747D01*
X151756777Y-102631223D01*
X151773253Y-102649401D01*
X151787868Y-102669107D01*
X151800480Y-102690150D01*
X151810970Y-102712329D01*
X151819235Y-102735428D01*
X151825196Y-102759227D01*
X151828796Y-102783495D01*
X151830000Y-102807999D01*
X151830000Y-103458001D01*
X151828796Y-103482505D01*
X151825196Y-103506773D01*
X151819235Y-103530572D01*
X151810970Y-103553671D01*
X151800480Y-103575850D01*
X151787868Y-103596893D01*
X151773253Y-103616599D01*
X151756777Y-103634777D01*
X151738599Y-103651253D01*
X151718893Y-103665868D01*
X151697850Y-103678480D01*
X151675671Y-103688970D01*
X151652572Y-103697235D01*
X151628773Y-103703196D01*
X151604505Y-103706796D01*
X151580001Y-103708000D01*
X150679999Y-103708000D01*
X150655495Y-103706796D01*
X150631227Y-103703196D01*
X150607428Y-103697235D01*
X150584329Y-103688970D01*
X150562150Y-103678480D01*
X150541107Y-103665868D01*
X150521401Y-103651253D01*
X150503223Y-103634777D01*
X150486747Y-103616599D01*
X150472132Y-103596893D01*
X150459520Y-103575850D01*
X150449030Y-103553671D01*
X150440765Y-103530572D01*
X150434804Y-103506773D01*
X150431204Y-103482505D01*
X150430000Y-103458001D01*
X150430000Y-102807999D01*
X150431204Y-102783495D01*
X150434804Y-102759227D01*
X150440765Y-102735428D01*
X150449030Y-102712329D01*
X150459520Y-102690150D01*
X150472132Y-102669107D01*
X150486747Y-102649401D01*
X150503223Y-102631223D01*
X150521401Y-102614747D01*
X150541107Y-102600132D01*
X150562150Y-102587520D01*
X150584329Y-102577030D01*
X150607428Y-102568765D01*
X150631227Y-102562804D01*
X150655495Y-102559204D01*
X150679999Y-102558000D01*
X151580001Y-102558000D01*
X151604505Y-102559204D01*
X151604505Y-102559204D01*
G37*
D11*
X151130000Y-103133000D03*
D10*
G36*
X151604505Y-100509204D02*
G01*
X151628773Y-100512804D01*
X151652572Y-100518765D01*
X151675671Y-100527030D01*
X151697850Y-100537520D01*
X151718893Y-100550132D01*
X151738599Y-100564747D01*
X151756777Y-100581223D01*
X151773253Y-100599401D01*
X151787868Y-100619107D01*
X151800480Y-100640150D01*
X151810970Y-100662329D01*
X151819235Y-100685428D01*
X151825196Y-100709227D01*
X151828796Y-100733495D01*
X151830000Y-100757999D01*
X151830000Y-101408001D01*
X151828796Y-101432505D01*
X151825196Y-101456773D01*
X151819235Y-101480572D01*
X151810970Y-101503671D01*
X151800480Y-101525850D01*
X151787868Y-101546893D01*
X151773253Y-101566599D01*
X151756777Y-101584777D01*
X151738599Y-101601253D01*
X151718893Y-101615868D01*
X151697850Y-101628480D01*
X151675671Y-101638970D01*
X151652572Y-101647235D01*
X151628773Y-101653196D01*
X151604505Y-101656796D01*
X151580001Y-101658000D01*
X150679999Y-101658000D01*
X150655495Y-101656796D01*
X150631227Y-101653196D01*
X150607428Y-101647235D01*
X150584329Y-101638970D01*
X150562150Y-101628480D01*
X150541107Y-101615868D01*
X150521401Y-101601253D01*
X150503223Y-101584777D01*
X150486747Y-101566599D01*
X150472132Y-101546893D01*
X150459520Y-101525850D01*
X150449030Y-101503671D01*
X150440765Y-101480572D01*
X150434804Y-101456773D01*
X150431204Y-101432505D01*
X150430000Y-101408001D01*
X150430000Y-100757999D01*
X150431204Y-100733495D01*
X150434804Y-100709227D01*
X150440765Y-100685428D01*
X150449030Y-100662329D01*
X150459520Y-100640150D01*
X150472132Y-100619107D01*
X150486747Y-100599401D01*
X150503223Y-100581223D01*
X150521401Y-100564747D01*
X150541107Y-100550132D01*
X150562150Y-100537520D01*
X150584329Y-100527030D01*
X150607428Y-100518765D01*
X150631227Y-100512804D01*
X150655495Y-100509204D01*
X150679999Y-100508000D01*
X151580001Y-100508000D01*
X151604505Y-100509204D01*
X151604505Y-100509204D01*
G37*
D11*
X151130000Y-101083000D03*
D10*
G36*
X148948505Y-106489204D02*
G01*
X148972773Y-106492804D01*
X148996572Y-106498765D01*
X149019671Y-106507030D01*
X149041850Y-106517520D01*
X149062893Y-106530132D01*
X149082599Y-106544747D01*
X149100777Y-106561223D01*
X149117253Y-106579401D01*
X149131868Y-106599107D01*
X149144480Y-106620150D01*
X149154970Y-106642329D01*
X149163235Y-106665428D01*
X149169196Y-106689227D01*
X149172796Y-106713495D01*
X149174000Y-106737999D01*
X149174000Y-107638001D01*
X149172796Y-107662505D01*
X149169196Y-107686773D01*
X149163235Y-107710572D01*
X149154970Y-107733671D01*
X149144480Y-107755850D01*
X149131868Y-107776893D01*
X149117253Y-107796599D01*
X149100777Y-107814777D01*
X149082599Y-107831253D01*
X149062893Y-107845868D01*
X149041850Y-107858480D01*
X149019671Y-107868970D01*
X148996572Y-107877235D01*
X148972773Y-107883196D01*
X148948505Y-107886796D01*
X148924001Y-107888000D01*
X148273999Y-107888000D01*
X148249495Y-107886796D01*
X148225227Y-107883196D01*
X148201428Y-107877235D01*
X148178329Y-107868970D01*
X148156150Y-107858480D01*
X148135107Y-107845868D01*
X148115401Y-107831253D01*
X148097223Y-107814777D01*
X148080747Y-107796599D01*
X148066132Y-107776893D01*
X148053520Y-107755850D01*
X148043030Y-107733671D01*
X148034765Y-107710572D01*
X148028804Y-107686773D01*
X148025204Y-107662505D01*
X148024000Y-107638001D01*
X148024000Y-106737999D01*
X148025204Y-106713495D01*
X148028804Y-106689227D01*
X148034765Y-106665428D01*
X148043030Y-106642329D01*
X148053520Y-106620150D01*
X148066132Y-106599107D01*
X148080747Y-106579401D01*
X148097223Y-106561223D01*
X148115401Y-106544747D01*
X148135107Y-106530132D01*
X148156150Y-106517520D01*
X148178329Y-106507030D01*
X148201428Y-106498765D01*
X148225227Y-106492804D01*
X148249495Y-106489204D01*
X148273999Y-106488000D01*
X148924001Y-106488000D01*
X148948505Y-106489204D01*
X148948505Y-106489204D01*
G37*
D11*
X148599000Y-107188000D03*
D10*
G36*
X146898505Y-106489204D02*
G01*
X146922773Y-106492804D01*
X146946572Y-106498765D01*
X146969671Y-106507030D01*
X146991850Y-106517520D01*
X147012893Y-106530132D01*
X147032599Y-106544747D01*
X147050777Y-106561223D01*
X147067253Y-106579401D01*
X147081868Y-106599107D01*
X147094480Y-106620150D01*
X147104970Y-106642329D01*
X147113235Y-106665428D01*
X147119196Y-106689227D01*
X147122796Y-106713495D01*
X147124000Y-106737999D01*
X147124000Y-107638001D01*
X147122796Y-107662505D01*
X147119196Y-107686773D01*
X147113235Y-107710572D01*
X147104970Y-107733671D01*
X147094480Y-107755850D01*
X147081868Y-107776893D01*
X147067253Y-107796599D01*
X147050777Y-107814777D01*
X147032599Y-107831253D01*
X147012893Y-107845868D01*
X146991850Y-107858480D01*
X146969671Y-107868970D01*
X146946572Y-107877235D01*
X146922773Y-107883196D01*
X146898505Y-107886796D01*
X146874001Y-107888000D01*
X146223999Y-107888000D01*
X146199495Y-107886796D01*
X146175227Y-107883196D01*
X146151428Y-107877235D01*
X146128329Y-107868970D01*
X146106150Y-107858480D01*
X146085107Y-107845868D01*
X146065401Y-107831253D01*
X146047223Y-107814777D01*
X146030747Y-107796599D01*
X146016132Y-107776893D01*
X146003520Y-107755850D01*
X145993030Y-107733671D01*
X145984765Y-107710572D01*
X145978804Y-107686773D01*
X145975204Y-107662505D01*
X145974000Y-107638001D01*
X145974000Y-106737999D01*
X145975204Y-106713495D01*
X145978804Y-106689227D01*
X145984765Y-106665428D01*
X145993030Y-106642329D01*
X146003520Y-106620150D01*
X146016132Y-106599107D01*
X146030747Y-106579401D01*
X146047223Y-106561223D01*
X146065401Y-106544747D01*
X146085107Y-106530132D01*
X146106150Y-106517520D01*
X146128329Y-106507030D01*
X146151428Y-106498765D01*
X146175227Y-106492804D01*
X146199495Y-106489204D01*
X146223999Y-106488000D01*
X146874001Y-106488000D01*
X146898505Y-106489204D01*
X146898505Y-106489204D01*
G37*
D11*
X146549000Y-107188000D03*
D10*
G36*
X143360505Y-106489204D02*
G01*
X143384773Y-106492804D01*
X143408572Y-106498765D01*
X143431671Y-106507030D01*
X143453850Y-106517520D01*
X143474893Y-106530132D01*
X143494599Y-106544747D01*
X143512777Y-106561223D01*
X143529253Y-106579401D01*
X143543868Y-106599107D01*
X143556480Y-106620150D01*
X143566970Y-106642329D01*
X143575235Y-106665428D01*
X143581196Y-106689227D01*
X143584796Y-106713495D01*
X143586000Y-106737999D01*
X143586000Y-107638001D01*
X143584796Y-107662505D01*
X143581196Y-107686773D01*
X143575235Y-107710572D01*
X143566970Y-107733671D01*
X143556480Y-107755850D01*
X143543868Y-107776893D01*
X143529253Y-107796599D01*
X143512777Y-107814777D01*
X143494599Y-107831253D01*
X143474893Y-107845868D01*
X143453850Y-107858480D01*
X143431671Y-107868970D01*
X143408572Y-107877235D01*
X143384773Y-107883196D01*
X143360505Y-107886796D01*
X143336001Y-107888000D01*
X142685999Y-107888000D01*
X142661495Y-107886796D01*
X142637227Y-107883196D01*
X142613428Y-107877235D01*
X142590329Y-107868970D01*
X142568150Y-107858480D01*
X142547107Y-107845868D01*
X142527401Y-107831253D01*
X142509223Y-107814777D01*
X142492747Y-107796599D01*
X142478132Y-107776893D01*
X142465520Y-107755850D01*
X142455030Y-107733671D01*
X142446765Y-107710572D01*
X142440804Y-107686773D01*
X142437204Y-107662505D01*
X142436000Y-107638001D01*
X142436000Y-106737999D01*
X142437204Y-106713495D01*
X142440804Y-106689227D01*
X142446765Y-106665428D01*
X142455030Y-106642329D01*
X142465520Y-106620150D01*
X142478132Y-106599107D01*
X142492747Y-106579401D01*
X142509223Y-106561223D01*
X142527401Y-106544747D01*
X142547107Y-106530132D01*
X142568150Y-106517520D01*
X142590329Y-106507030D01*
X142613428Y-106498765D01*
X142637227Y-106492804D01*
X142661495Y-106489204D01*
X142685999Y-106488000D01*
X143336001Y-106488000D01*
X143360505Y-106489204D01*
X143360505Y-106489204D01*
G37*
D11*
X143011000Y-107188000D03*
D10*
G36*
X141310505Y-106489204D02*
G01*
X141334773Y-106492804D01*
X141358572Y-106498765D01*
X141381671Y-106507030D01*
X141403850Y-106517520D01*
X141424893Y-106530132D01*
X141444599Y-106544747D01*
X141462777Y-106561223D01*
X141479253Y-106579401D01*
X141493868Y-106599107D01*
X141506480Y-106620150D01*
X141516970Y-106642329D01*
X141525235Y-106665428D01*
X141531196Y-106689227D01*
X141534796Y-106713495D01*
X141536000Y-106737999D01*
X141536000Y-107638001D01*
X141534796Y-107662505D01*
X141531196Y-107686773D01*
X141525235Y-107710572D01*
X141516970Y-107733671D01*
X141506480Y-107755850D01*
X141493868Y-107776893D01*
X141479253Y-107796599D01*
X141462777Y-107814777D01*
X141444599Y-107831253D01*
X141424893Y-107845868D01*
X141403850Y-107858480D01*
X141381671Y-107868970D01*
X141358572Y-107877235D01*
X141334773Y-107883196D01*
X141310505Y-107886796D01*
X141286001Y-107888000D01*
X140635999Y-107888000D01*
X140611495Y-107886796D01*
X140587227Y-107883196D01*
X140563428Y-107877235D01*
X140540329Y-107868970D01*
X140518150Y-107858480D01*
X140497107Y-107845868D01*
X140477401Y-107831253D01*
X140459223Y-107814777D01*
X140442747Y-107796599D01*
X140428132Y-107776893D01*
X140415520Y-107755850D01*
X140405030Y-107733671D01*
X140396765Y-107710572D01*
X140390804Y-107686773D01*
X140387204Y-107662505D01*
X140386000Y-107638001D01*
X140386000Y-106737999D01*
X140387204Y-106713495D01*
X140390804Y-106689227D01*
X140396765Y-106665428D01*
X140405030Y-106642329D01*
X140415520Y-106620150D01*
X140428132Y-106599107D01*
X140442747Y-106579401D01*
X140459223Y-106561223D01*
X140477401Y-106544747D01*
X140497107Y-106530132D01*
X140518150Y-106517520D01*
X140540329Y-106507030D01*
X140563428Y-106498765D01*
X140587227Y-106492804D01*
X140611495Y-106489204D01*
X140635999Y-106488000D01*
X141286001Y-106488000D01*
X141310505Y-106489204D01*
X141310505Y-106489204D01*
G37*
D11*
X140961000Y-107188000D03*
D10*
G36*
X136230505Y-106489204D02*
G01*
X136254773Y-106492804D01*
X136278572Y-106498765D01*
X136301671Y-106507030D01*
X136323850Y-106517520D01*
X136344893Y-106530132D01*
X136364599Y-106544747D01*
X136382777Y-106561223D01*
X136399253Y-106579401D01*
X136413868Y-106599107D01*
X136426480Y-106620150D01*
X136436970Y-106642329D01*
X136445235Y-106665428D01*
X136451196Y-106689227D01*
X136454796Y-106713495D01*
X136456000Y-106737999D01*
X136456000Y-107638001D01*
X136454796Y-107662505D01*
X136451196Y-107686773D01*
X136445235Y-107710572D01*
X136436970Y-107733671D01*
X136426480Y-107755850D01*
X136413868Y-107776893D01*
X136399253Y-107796599D01*
X136382777Y-107814777D01*
X136364599Y-107831253D01*
X136344893Y-107845868D01*
X136323850Y-107858480D01*
X136301671Y-107868970D01*
X136278572Y-107877235D01*
X136254773Y-107883196D01*
X136230505Y-107886796D01*
X136206001Y-107888000D01*
X135555999Y-107888000D01*
X135531495Y-107886796D01*
X135507227Y-107883196D01*
X135483428Y-107877235D01*
X135460329Y-107868970D01*
X135438150Y-107858480D01*
X135417107Y-107845868D01*
X135397401Y-107831253D01*
X135379223Y-107814777D01*
X135362747Y-107796599D01*
X135348132Y-107776893D01*
X135335520Y-107755850D01*
X135325030Y-107733671D01*
X135316765Y-107710572D01*
X135310804Y-107686773D01*
X135307204Y-107662505D01*
X135306000Y-107638001D01*
X135306000Y-106737999D01*
X135307204Y-106713495D01*
X135310804Y-106689227D01*
X135316765Y-106665428D01*
X135325030Y-106642329D01*
X135335520Y-106620150D01*
X135348132Y-106599107D01*
X135362747Y-106579401D01*
X135379223Y-106561223D01*
X135397401Y-106544747D01*
X135417107Y-106530132D01*
X135438150Y-106517520D01*
X135460329Y-106507030D01*
X135483428Y-106498765D01*
X135507227Y-106492804D01*
X135531495Y-106489204D01*
X135555999Y-106488000D01*
X136206001Y-106488000D01*
X136230505Y-106489204D01*
X136230505Y-106489204D01*
G37*
D11*
X135881000Y-107188000D03*
D10*
G36*
X138280505Y-106489204D02*
G01*
X138304773Y-106492804D01*
X138328572Y-106498765D01*
X138351671Y-106507030D01*
X138373850Y-106517520D01*
X138394893Y-106530132D01*
X138414599Y-106544747D01*
X138432777Y-106561223D01*
X138449253Y-106579401D01*
X138463868Y-106599107D01*
X138476480Y-106620150D01*
X138486970Y-106642329D01*
X138495235Y-106665428D01*
X138501196Y-106689227D01*
X138504796Y-106713495D01*
X138506000Y-106737999D01*
X138506000Y-107638001D01*
X138504796Y-107662505D01*
X138501196Y-107686773D01*
X138495235Y-107710572D01*
X138486970Y-107733671D01*
X138476480Y-107755850D01*
X138463868Y-107776893D01*
X138449253Y-107796599D01*
X138432777Y-107814777D01*
X138414599Y-107831253D01*
X138394893Y-107845868D01*
X138373850Y-107858480D01*
X138351671Y-107868970D01*
X138328572Y-107877235D01*
X138304773Y-107883196D01*
X138280505Y-107886796D01*
X138256001Y-107888000D01*
X137605999Y-107888000D01*
X137581495Y-107886796D01*
X137557227Y-107883196D01*
X137533428Y-107877235D01*
X137510329Y-107868970D01*
X137488150Y-107858480D01*
X137467107Y-107845868D01*
X137447401Y-107831253D01*
X137429223Y-107814777D01*
X137412747Y-107796599D01*
X137398132Y-107776893D01*
X137385520Y-107755850D01*
X137375030Y-107733671D01*
X137366765Y-107710572D01*
X137360804Y-107686773D01*
X137357204Y-107662505D01*
X137356000Y-107638001D01*
X137356000Y-106737999D01*
X137357204Y-106713495D01*
X137360804Y-106689227D01*
X137366765Y-106665428D01*
X137375030Y-106642329D01*
X137385520Y-106620150D01*
X137398132Y-106599107D01*
X137412747Y-106579401D01*
X137429223Y-106561223D01*
X137447401Y-106544747D01*
X137467107Y-106530132D01*
X137488150Y-106517520D01*
X137510329Y-106507030D01*
X137533428Y-106498765D01*
X137557227Y-106492804D01*
X137581495Y-106489204D01*
X137605999Y-106488000D01*
X138256001Y-106488000D01*
X138280505Y-106489204D01*
X138280505Y-106489204D01*
G37*
D11*
X137931000Y-107188000D03*
D10*
G36*
X138770505Y-90487204D02*
G01*
X138794773Y-90490804D01*
X138818572Y-90496765D01*
X138841671Y-90505030D01*
X138863850Y-90515520D01*
X138884893Y-90528132D01*
X138904599Y-90542747D01*
X138922777Y-90559223D01*
X138939253Y-90577401D01*
X138953868Y-90597107D01*
X138966480Y-90618150D01*
X138976970Y-90640329D01*
X138985235Y-90663428D01*
X138991196Y-90687227D01*
X138994796Y-90711495D01*
X138996000Y-90735999D01*
X138996000Y-91636001D01*
X138994796Y-91660505D01*
X138991196Y-91684773D01*
X138985235Y-91708572D01*
X138976970Y-91731671D01*
X138966480Y-91753850D01*
X138953868Y-91774893D01*
X138939253Y-91794599D01*
X138922777Y-91812777D01*
X138904599Y-91829253D01*
X138884893Y-91843868D01*
X138863850Y-91856480D01*
X138841671Y-91866970D01*
X138818572Y-91875235D01*
X138794773Y-91881196D01*
X138770505Y-91884796D01*
X138746001Y-91886000D01*
X138095999Y-91886000D01*
X138071495Y-91884796D01*
X138047227Y-91881196D01*
X138023428Y-91875235D01*
X138000329Y-91866970D01*
X137978150Y-91856480D01*
X137957107Y-91843868D01*
X137937401Y-91829253D01*
X137919223Y-91812777D01*
X137902747Y-91794599D01*
X137888132Y-91774893D01*
X137875520Y-91753850D01*
X137865030Y-91731671D01*
X137856765Y-91708572D01*
X137850804Y-91684773D01*
X137847204Y-91660505D01*
X137846000Y-91636001D01*
X137846000Y-90735999D01*
X137847204Y-90711495D01*
X137850804Y-90687227D01*
X137856765Y-90663428D01*
X137865030Y-90640329D01*
X137875520Y-90618150D01*
X137888132Y-90597107D01*
X137902747Y-90577401D01*
X137919223Y-90559223D01*
X137937401Y-90542747D01*
X137957107Y-90528132D01*
X137978150Y-90515520D01*
X138000329Y-90505030D01*
X138023428Y-90496765D01*
X138047227Y-90490804D01*
X138071495Y-90487204D01*
X138095999Y-90486000D01*
X138746001Y-90486000D01*
X138770505Y-90487204D01*
X138770505Y-90487204D01*
G37*
D11*
X138421000Y-91186000D03*
D10*
G36*
X140820505Y-90487204D02*
G01*
X140844773Y-90490804D01*
X140868572Y-90496765D01*
X140891671Y-90505030D01*
X140913850Y-90515520D01*
X140934893Y-90528132D01*
X140954599Y-90542747D01*
X140972777Y-90559223D01*
X140989253Y-90577401D01*
X141003868Y-90597107D01*
X141016480Y-90618150D01*
X141026970Y-90640329D01*
X141035235Y-90663428D01*
X141041196Y-90687227D01*
X141044796Y-90711495D01*
X141046000Y-90735999D01*
X141046000Y-91636001D01*
X141044796Y-91660505D01*
X141041196Y-91684773D01*
X141035235Y-91708572D01*
X141026970Y-91731671D01*
X141016480Y-91753850D01*
X141003868Y-91774893D01*
X140989253Y-91794599D01*
X140972777Y-91812777D01*
X140954599Y-91829253D01*
X140934893Y-91843868D01*
X140913850Y-91856480D01*
X140891671Y-91866970D01*
X140868572Y-91875235D01*
X140844773Y-91881196D01*
X140820505Y-91884796D01*
X140796001Y-91886000D01*
X140145999Y-91886000D01*
X140121495Y-91884796D01*
X140097227Y-91881196D01*
X140073428Y-91875235D01*
X140050329Y-91866970D01*
X140028150Y-91856480D01*
X140007107Y-91843868D01*
X139987401Y-91829253D01*
X139969223Y-91812777D01*
X139952747Y-91794599D01*
X139938132Y-91774893D01*
X139925520Y-91753850D01*
X139915030Y-91731671D01*
X139906765Y-91708572D01*
X139900804Y-91684773D01*
X139897204Y-91660505D01*
X139896000Y-91636001D01*
X139896000Y-90735999D01*
X139897204Y-90711495D01*
X139900804Y-90687227D01*
X139906765Y-90663428D01*
X139915030Y-90640329D01*
X139925520Y-90618150D01*
X139938132Y-90597107D01*
X139952747Y-90577401D01*
X139969223Y-90559223D01*
X139987401Y-90542747D01*
X140007107Y-90528132D01*
X140028150Y-90515520D01*
X140050329Y-90505030D01*
X140073428Y-90496765D01*
X140097227Y-90490804D01*
X140121495Y-90487204D01*
X140145999Y-90486000D01*
X140796001Y-90486000D01*
X140820505Y-90487204D01*
X140820505Y-90487204D01*
G37*
D11*
X140471000Y-91186000D03*
D10*
G36*
X146662505Y-90487204D02*
G01*
X146686773Y-90490804D01*
X146710572Y-90496765D01*
X146733671Y-90505030D01*
X146755850Y-90515520D01*
X146776893Y-90528132D01*
X146796599Y-90542747D01*
X146814777Y-90559223D01*
X146831253Y-90577401D01*
X146845868Y-90597107D01*
X146858480Y-90618150D01*
X146868970Y-90640329D01*
X146877235Y-90663428D01*
X146883196Y-90687227D01*
X146886796Y-90711495D01*
X146888000Y-90735999D01*
X146888000Y-91636001D01*
X146886796Y-91660505D01*
X146883196Y-91684773D01*
X146877235Y-91708572D01*
X146868970Y-91731671D01*
X146858480Y-91753850D01*
X146845868Y-91774893D01*
X146831253Y-91794599D01*
X146814777Y-91812777D01*
X146796599Y-91829253D01*
X146776893Y-91843868D01*
X146755850Y-91856480D01*
X146733671Y-91866970D01*
X146710572Y-91875235D01*
X146686773Y-91881196D01*
X146662505Y-91884796D01*
X146638001Y-91886000D01*
X145987999Y-91886000D01*
X145963495Y-91884796D01*
X145939227Y-91881196D01*
X145915428Y-91875235D01*
X145892329Y-91866970D01*
X145870150Y-91856480D01*
X145849107Y-91843868D01*
X145829401Y-91829253D01*
X145811223Y-91812777D01*
X145794747Y-91794599D01*
X145780132Y-91774893D01*
X145767520Y-91753850D01*
X145757030Y-91731671D01*
X145748765Y-91708572D01*
X145742804Y-91684773D01*
X145739204Y-91660505D01*
X145738000Y-91636001D01*
X145738000Y-90735999D01*
X145739204Y-90711495D01*
X145742804Y-90687227D01*
X145748765Y-90663428D01*
X145757030Y-90640329D01*
X145767520Y-90618150D01*
X145780132Y-90597107D01*
X145794747Y-90577401D01*
X145811223Y-90559223D01*
X145829401Y-90542747D01*
X145849107Y-90528132D01*
X145870150Y-90515520D01*
X145892329Y-90505030D01*
X145915428Y-90496765D01*
X145939227Y-90490804D01*
X145963495Y-90487204D01*
X145987999Y-90486000D01*
X146638001Y-90486000D01*
X146662505Y-90487204D01*
X146662505Y-90487204D01*
G37*
D11*
X146313000Y-91186000D03*
D10*
G36*
X144612505Y-90487204D02*
G01*
X144636773Y-90490804D01*
X144660572Y-90496765D01*
X144683671Y-90505030D01*
X144705850Y-90515520D01*
X144726893Y-90528132D01*
X144746599Y-90542747D01*
X144764777Y-90559223D01*
X144781253Y-90577401D01*
X144795868Y-90597107D01*
X144808480Y-90618150D01*
X144818970Y-90640329D01*
X144827235Y-90663428D01*
X144833196Y-90687227D01*
X144836796Y-90711495D01*
X144838000Y-90735999D01*
X144838000Y-91636001D01*
X144836796Y-91660505D01*
X144833196Y-91684773D01*
X144827235Y-91708572D01*
X144818970Y-91731671D01*
X144808480Y-91753850D01*
X144795868Y-91774893D01*
X144781253Y-91794599D01*
X144764777Y-91812777D01*
X144746599Y-91829253D01*
X144726893Y-91843868D01*
X144705850Y-91856480D01*
X144683671Y-91866970D01*
X144660572Y-91875235D01*
X144636773Y-91881196D01*
X144612505Y-91884796D01*
X144588001Y-91886000D01*
X143937999Y-91886000D01*
X143913495Y-91884796D01*
X143889227Y-91881196D01*
X143865428Y-91875235D01*
X143842329Y-91866970D01*
X143820150Y-91856480D01*
X143799107Y-91843868D01*
X143779401Y-91829253D01*
X143761223Y-91812777D01*
X143744747Y-91794599D01*
X143730132Y-91774893D01*
X143717520Y-91753850D01*
X143707030Y-91731671D01*
X143698765Y-91708572D01*
X143692804Y-91684773D01*
X143689204Y-91660505D01*
X143688000Y-91636001D01*
X143688000Y-90735999D01*
X143689204Y-90711495D01*
X143692804Y-90687227D01*
X143698765Y-90663428D01*
X143707030Y-90640329D01*
X143717520Y-90618150D01*
X143730132Y-90597107D01*
X143744747Y-90577401D01*
X143761223Y-90559223D01*
X143779401Y-90542747D01*
X143799107Y-90528132D01*
X143820150Y-90515520D01*
X143842329Y-90505030D01*
X143865428Y-90496765D01*
X143889227Y-90490804D01*
X143913495Y-90487204D01*
X143937999Y-90486000D01*
X144588001Y-90486000D01*
X144612505Y-90487204D01*
X144612505Y-90487204D01*
G37*
D11*
X144263000Y-91186000D03*
D13*
X161036000Y-87618000D03*
X163036000Y-87618000D03*
X165036000Y-87618000D03*
X167036000Y-87618000D03*
X169036000Y-87618000D03*
X171036000Y-87618000D03*
X173036000Y-87618000D03*
X175036000Y-87618000D03*
X175036000Y-107318000D03*
X173036000Y-107318000D03*
X171036000Y-107318000D03*
X169036000Y-107318000D03*
X167036000Y-107318000D03*
X165036000Y-107318000D03*
X163036000Y-107318000D03*
X161036000Y-107318000D03*
D14*
X147506000Y-96006000D03*
X147506000Y-96806000D03*
X147506000Y-97606000D03*
X147506000Y-98406000D03*
X147506000Y-99206000D03*
X147506000Y-100006000D03*
X147506000Y-100806000D03*
X147506000Y-101606000D03*
D15*
X146056000Y-103056000D03*
X145256000Y-103056000D03*
X144456000Y-103056000D03*
X143656000Y-103056000D03*
X142856000Y-103056000D03*
X142056000Y-103056000D03*
X141256000Y-103056000D03*
X140456000Y-103056000D03*
D14*
X139006000Y-101606000D03*
X139006000Y-100806000D03*
X139006000Y-100006000D03*
X139006000Y-99206000D03*
X139006000Y-98406000D03*
X139006000Y-97606000D03*
X139006000Y-96806000D03*
X139006000Y-96006000D03*
D15*
X140456000Y-94556000D03*
X141256000Y-94556000D03*
X142056000Y-94556000D03*
X142856000Y-94556000D03*
X143656000Y-94556000D03*
X144456000Y-94556000D03*
X145256000Y-94556000D03*
X146056000Y-94556000D03*
D10*
G36*
X127649504Y-87644204D02*
G01*
X127673773Y-87647804D01*
X127697571Y-87653765D01*
X127720671Y-87662030D01*
X127742849Y-87672520D01*
X127763893Y-87685133D01*
X127783598Y-87699747D01*
X127801777Y-87716223D01*
X127818253Y-87734402D01*
X127832867Y-87754107D01*
X127845480Y-87775151D01*
X127855970Y-87797329D01*
X127864235Y-87820429D01*
X127870196Y-87844227D01*
X127873796Y-87868496D01*
X127875000Y-87893000D01*
X127875000Y-88818000D01*
X127873796Y-88842504D01*
X127870196Y-88866773D01*
X127864235Y-88890571D01*
X127855970Y-88913671D01*
X127845480Y-88935849D01*
X127832867Y-88956893D01*
X127818253Y-88976598D01*
X127801777Y-88994777D01*
X127783598Y-89011253D01*
X127763893Y-89025867D01*
X127742849Y-89038480D01*
X127720671Y-89048970D01*
X127697571Y-89057235D01*
X127673773Y-89063196D01*
X127649504Y-89066796D01*
X127625000Y-89068000D01*
X126375000Y-89068000D01*
X126350496Y-89066796D01*
X126326227Y-89063196D01*
X126302429Y-89057235D01*
X126279329Y-89048970D01*
X126257151Y-89038480D01*
X126236107Y-89025867D01*
X126216402Y-89011253D01*
X126198223Y-88994777D01*
X126181747Y-88976598D01*
X126167133Y-88956893D01*
X126154520Y-88935849D01*
X126144030Y-88913671D01*
X126135765Y-88890571D01*
X126129804Y-88866773D01*
X126126204Y-88842504D01*
X126125000Y-88818000D01*
X126125000Y-87893000D01*
X126126204Y-87868496D01*
X126129804Y-87844227D01*
X126135765Y-87820429D01*
X126144030Y-87797329D01*
X126154520Y-87775151D01*
X126167133Y-87754107D01*
X126181747Y-87734402D01*
X126198223Y-87716223D01*
X126216402Y-87699747D01*
X126236107Y-87685133D01*
X126257151Y-87672520D01*
X126279329Y-87662030D01*
X126302429Y-87653765D01*
X126326227Y-87647804D01*
X126350496Y-87644204D01*
X126375000Y-87643000D01*
X127625000Y-87643000D01*
X127649504Y-87644204D01*
X127649504Y-87644204D01*
G37*
D16*
X127000000Y-88355500D03*
D10*
G36*
X127649504Y-84669204D02*
G01*
X127673773Y-84672804D01*
X127697571Y-84678765D01*
X127720671Y-84687030D01*
X127742849Y-84697520D01*
X127763893Y-84710133D01*
X127783598Y-84724747D01*
X127801777Y-84741223D01*
X127818253Y-84759402D01*
X127832867Y-84779107D01*
X127845480Y-84800151D01*
X127855970Y-84822329D01*
X127864235Y-84845429D01*
X127870196Y-84869227D01*
X127873796Y-84893496D01*
X127875000Y-84918000D01*
X127875000Y-85843000D01*
X127873796Y-85867504D01*
X127870196Y-85891773D01*
X127864235Y-85915571D01*
X127855970Y-85938671D01*
X127845480Y-85960849D01*
X127832867Y-85981893D01*
X127818253Y-86001598D01*
X127801777Y-86019777D01*
X127783598Y-86036253D01*
X127763893Y-86050867D01*
X127742849Y-86063480D01*
X127720671Y-86073970D01*
X127697571Y-86082235D01*
X127673773Y-86088196D01*
X127649504Y-86091796D01*
X127625000Y-86093000D01*
X126375000Y-86093000D01*
X126350496Y-86091796D01*
X126326227Y-86088196D01*
X126302429Y-86082235D01*
X126279329Y-86073970D01*
X126257151Y-86063480D01*
X126236107Y-86050867D01*
X126216402Y-86036253D01*
X126198223Y-86019777D01*
X126181747Y-86001598D01*
X126167133Y-85981893D01*
X126154520Y-85960849D01*
X126144030Y-85938671D01*
X126135765Y-85915571D01*
X126129804Y-85891773D01*
X126126204Y-85867504D01*
X126125000Y-85843000D01*
X126125000Y-84918000D01*
X126126204Y-84893496D01*
X126129804Y-84869227D01*
X126135765Y-84845429D01*
X126144030Y-84822329D01*
X126154520Y-84800151D01*
X126167133Y-84779107D01*
X126181747Y-84759402D01*
X126198223Y-84741223D01*
X126216402Y-84724747D01*
X126236107Y-84710133D01*
X126257151Y-84697520D01*
X126279329Y-84687030D01*
X126302429Y-84678765D01*
X126326227Y-84672804D01*
X126350496Y-84669204D01*
X126375000Y-84668000D01*
X127625000Y-84668000D01*
X127649504Y-84669204D01*
X127649504Y-84669204D01*
G37*
D16*
X127000000Y-85380500D03*
D10*
G36*
X106631504Y-72463204D02*
G01*
X106655773Y-72466804D01*
X106679571Y-72472765D01*
X106702671Y-72481030D01*
X106724849Y-72491520D01*
X106745893Y-72504133D01*
X106765598Y-72518747D01*
X106783777Y-72535223D01*
X106800253Y-72553402D01*
X106814867Y-72573107D01*
X106827480Y-72594151D01*
X106837970Y-72616329D01*
X106846235Y-72639429D01*
X106852196Y-72663227D01*
X106855796Y-72687496D01*
X106857000Y-72712000D01*
X106857000Y-74862000D01*
X106855796Y-74886504D01*
X106852196Y-74910773D01*
X106846235Y-74934571D01*
X106837970Y-74957671D01*
X106827480Y-74979849D01*
X106814867Y-75000893D01*
X106800253Y-75020598D01*
X106783777Y-75038777D01*
X106765598Y-75055253D01*
X106745893Y-75069867D01*
X106724849Y-75082480D01*
X106702671Y-75092970D01*
X106679571Y-75101235D01*
X106655773Y-75107196D01*
X106631504Y-75110796D01*
X106607000Y-75112000D01*
X105682000Y-75112000D01*
X105657496Y-75110796D01*
X105633227Y-75107196D01*
X105609429Y-75101235D01*
X105586329Y-75092970D01*
X105564151Y-75082480D01*
X105543107Y-75069867D01*
X105523402Y-75055253D01*
X105505223Y-75038777D01*
X105488747Y-75020598D01*
X105474133Y-75000893D01*
X105461520Y-74979849D01*
X105451030Y-74957671D01*
X105442765Y-74934571D01*
X105436804Y-74910773D01*
X105433204Y-74886504D01*
X105432000Y-74862000D01*
X105432000Y-72712000D01*
X105433204Y-72687496D01*
X105436804Y-72663227D01*
X105442765Y-72639429D01*
X105451030Y-72616329D01*
X105461520Y-72594151D01*
X105474133Y-72573107D01*
X105488747Y-72553402D01*
X105505223Y-72535223D01*
X105523402Y-72518747D01*
X105543107Y-72504133D01*
X105564151Y-72491520D01*
X105586329Y-72481030D01*
X105609429Y-72472765D01*
X105633227Y-72466804D01*
X105657496Y-72463204D01*
X105682000Y-72462000D01*
X106607000Y-72462000D01*
X106631504Y-72463204D01*
X106631504Y-72463204D01*
G37*
D16*
X106144500Y-73787000D03*
D10*
G36*
X109606504Y-72463204D02*
G01*
X109630773Y-72466804D01*
X109654571Y-72472765D01*
X109677671Y-72481030D01*
X109699849Y-72491520D01*
X109720893Y-72504133D01*
X109740598Y-72518747D01*
X109758777Y-72535223D01*
X109775253Y-72553402D01*
X109789867Y-72573107D01*
X109802480Y-72594151D01*
X109812970Y-72616329D01*
X109821235Y-72639429D01*
X109827196Y-72663227D01*
X109830796Y-72687496D01*
X109832000Y-72712000D01*
X109832000Y-74862000D01*
X109830796Y-74886504D01*
X109827196Y-74910773D01*
X109821235Y-74934571D01*
X109812970Y-74957671D01*
X109802480Y-74979849D01*
X109789867Y-75000893D01*
X109775253Y-75020598D01*
X109758777Y-75038777D01*
X109740598Y-75055253D01*
X109720893Y-75069867D01*
X109699849Y-75082480D01*
X109677671Y-75092970D01*
X109654571Y-75101235D01*
X109630773Y-75107196D01*
X109606504Y-75110796D01*
X109582000Y-75112000D01*
X108657000Y-75112000D01*
X108632496Y-75110796D01*
X108608227Y-75107196D01*
X108584429Y-75101235D01*
X108561329Y-75092970D01*
X108539151Y-75082480D01*
X108518107Y-75069867D01*
X108498402Y-75055253D01*
X108480223Y-75038777D01*
X108463747Y-75020598D01*
X108449133Y-75000893D01*
X108436520Y-74979849D01*
X108426030Y-74957671D01*
X108417765Y-74934571D01*
X108411804Y-74910773D01*
X108408204Y-74886504D01*
X108407000Y-74862000D01*
X108407000Y-72712000D01*
X108408204Y-72687496D01*
X108411804Y-72663227D01*
X108417765Y-72639429D01*
X108426030Y-72616329D01*
X108436520Y-72594151D01*
X108449133Y-72573107D01*
X108463747Y-72553402D01*
X108480223Y-72535223D01*
X108498402Y-72518747D01*
X108518107Y-72504133D01*
X108539151Y-72491520D01*
X108561329Y-72481030D01*
X108584429Y-72472765D01*
X108608227Y-72466804D01*
X108632496Y-72463204D01*
X108657000Y-72462000D01*
X109582000Y-72462000D01*
X109606504Y-72463204D01*
X109606504Y-72463204D01*
G37*
D16*
X109119500Y-73787000D03*
D10*
G36*
X126434504Y-74310204D02*
G01*
X126458773Y-74313804D01*
X126482571Y-74319765D01*
X126505671Y-74328030D01*
X126527849Y-74338520D01*
X126548893Y-74351133D01*
X126568598Y-74365747D01*
X126586777Y-74382223D01*
X126603253Y-74400402D01*
X126617867Y-74420107D01*
X126630480Y-74441151D01*
X126640970Y-74463329D01*
X126649235Y-74486429D01*
X126655196Y-74510227D01*
X126658796Y-74534496D01*
X126660000Y-74559000D01*
X126660000Y-75809000D01*
X126658796Y-75833504D01*
X126655196Y-75857773D01*
X126649235Y-75881571D01*
X126640970Y-75904671D01*
X126630480Y-75926849D01*
X126617867Y-75947893D01*
X126603253Y-75967598D01*
X126586777Y-75985777D01*
X126568598Y-76002253D01*
X126548893Y-76016867D01*
X126527849Y-76029480D01*
X126505671Y-76039970D01*
X126482571Y-76048235D01*
X126458773Y-76054196D01*
X126434504Y-76057796D01*
X126410000Y-76059000D01*
X125485000Y-76059000D01*
X125460496Y-76057796D01*
X125436227Y-76054196D01*
X125412429Y-76048235D01*
X125389329Y-76039970D01*
X125367151Y-76029480D01*
X125346107Y-76016867D01*
X125326402Y-76002253D01*
X125308223Y-75985777D01*
X125291747Y-75967598D01*
X125277133Y-75947893D01*
X125264520Y-75926849D01*
X125254030Y-75904671D01*
X125245765Y-75881571D01*
X125239804Y-75857773D01*
X125236204Y-75833504D01*
X125235000Y-75809000D01*
X125235000Y-74559000D01*
X125236204Y-74534496D01*
X125239804Y-74510227D01*
X125245765Y-74486429D01*
X125254030Y-74463329D01*
X125264520Y-74441151D01*
X125277133Y-74420107D01*
X125291747Y-74400402D01*
X125308223Y-74382223D01*
X125326402Y-74365747D01*
X125346107Y-74351133D01*
X125367151Y-74338520D01*
X125389329Y-74328030D01*
X125412429Y-74319765D01*
X125436227Y-74313804D01*
X125460496Y-74310204D01*
X125485000Y-74309000D01*
X126410000Y-74309000D01*
X126434504Y-74310204D01*
X126434504Y-74310204D01*
G37*
D16*
X125947500Y-75184000D03*
D10*
G36*
X123459504Y-74310204D02*
G01*
X123483773Y-74313804D01*
X123507571Y-74319765D01*
X123530671Y-74328030D01*
X123552849Y-74338520D01*
X123573893Y-74351133D01*
X123593598Y-74365747D01*
X123611777Y-74382223D01*
X123628253Y-74400402D01*
X123642867Y-74420107D01*
X123655480Y-74441151D01*
X123665970Y-74463329D01*
X123674235Y-74486429D01*
X123680196Y-74510227D01*
X123683796Y-74534496D01*
X123685000Y-74559000D01*
X123685000Y-75809000D01*
X123683796Y-75833504D01*
X123680196Y-75857773D01*
X123674235Y-75881571D01*
X123665970Y-75904671D01*
X123655480Y-75926849D01*
X123642867Y-75947893D01*
X123628253Y-75967598D01*
X123611777Y-75985777D01*
X123593598Y-76002253D01*
X123573893Y-76016867D01*
X123552849Y-76029480D01*
X123530671Y-76039970D01*
X123507571Y-76048235D01*
X123483773Y-76054196D01*
X123459504Y-76057796D01*
X123435000Y-76059000D01*
X122510000Y-76059000D01*
X122485496Y-76057796D01*
X122461227Y-76054196D01*
X122437429Y-76048235D01*
X122414329Y-76039970D01*
X122392151Y-76029480D01*
X122371107Y-76016867D01*
X122351402Y-76002253D01*
X122333223Y-75985777D01*
X122316747Y-75967598D01*
X122302133Y-75947893D01*
X122289520Y-75926849D01*
X122279030Y-75904671D01*
X122270765Y-75881571D01*
X122264804Y-75857773D01*
X122261204Y-75833504D01*
X122260000Y-75809000D01*
X122260000Y-74559000D01*
X122261204Y-74534496D01*
X122264804Y-74510227D01*
X122270765Y-74486429D01*
X122279030Y-74463329D01*
X122289520Y-74441151D01*
X122302133Y-74420107D01*
X122316747Y-74400402D01*
X122333223Y-74382223D01*
X122351402Y-74365747D01*
X122371107Y-74351133D01*
X122392151Y-74338520D01*
X122414329Y-74328030D01*
X122437429Y-74319765D01*
X122461227Y-74313804D01*
X122485496Y-74310204D01*
X122510000Y-74309000D01*
X123435000Y-74309000D01*
X123459504Y-74310204D01*
X123459504Y-74310204D01*
G37*
D16*
X122972500Y-75184000D03*
D10*
G36*
X134761504Y-82310204D02*
G01*
X134785773Y-82313804D01*
X134809571Y-82319765D01*
X134832671Y-82328030D01*
X134854849Y-82338520D01*
X134875893Y-82351133D01*
X134895598Y-82365747D01*
X134913777Y-82382223D01*
X134930253Y-82400402D01*
X134944867Y-82420107D01*
X134957480Y-82441151D01*
X134967970Y-82463329D01*
X134976235Y-82486429D01*
X134982196Y-82510227D01*
X134985796Y-82534496D01*
X134987000Y-82559000D01*
X134987000Y-83484000D01*
X134985796Y-83508504D01*
X134982196Y-83532773D01*
X134976235Y-83556571D01*
X134967970Y-83579671D01*
X134957480Y-83601849D01*
X134944867Y-83622893D01*
X134930253Y-83642598D01*
X134913777Y-83660777D01*
X134895598Y-83677253D01*
X134875893Y-83691867D01*
X134854849Y-83704480D01*
X134832671Y-83714970D01*
X134809571Y-83723235D01*
X134785773Y-83729196D01*
X134761504Y-83732796D01*
X134737000Y-83734000D01*
X133487000Y-83734000D01*
X133462496Y-83732796D01*
X133438227Y-83729196D01*
X133414429Y-83723235D01*
X133391329Y-83714970D01*
X133369151Y-83704480D01*
X133348107Y-83691867D01*
X133328402Y-83677253D01*
X133310223Y-83660777D01*
X133293747Y-83642598D01*
X133279133Y-83622893D01*
X133266520Y-83601849D01*
X133256030Y-83579671D01*
X133247765Y-83556571D01*
X133241804Y-83532773D01*
X133238204Y-83508504D01*
X133237000Y-83484000D01*
X133237000Y-82559000D01*
X133238204Y-82534496D01*
X133241804Y-82510227D01*
X133247765Y-82486429D01*
X133256030Y-82463329D01*
X133266520Y-82441151D01*
X133279133Y-82420107D01*
X133293747Y-82400402D01*
X133310223Y-82382223D01*
X133328402Y-82365747D01*
X133348107Y-82351133D01*
X133369151Y-82338520D01*
X133391329Y-82328030D01*
X133414429Y-82319765D01*
X133438227Y-82313804D01*
X133462496Y-82310204D01*
X133487000Y-82309000D01*
X134737000Y-82309000D01*
X134761504Y-82310204D01*
X134761504Y-82310204D01*
G37*
D16*
X134112000Y-83021500D03*
D10*
G36*
X134761504Y-79335204D02*
G01*
X134785773Y-79338804D01*
X134809571Y-79344765D01*
X134832671Y-79353030D01*
X134854849Y-79363520D01*
X134875893Y-79376133D01*
X134895598Y-79390747D01*
X134913777Y-79407223D01*
X134930253Y-79425402D01*
X134944867Y-79445107D01*
X134957480Y-79466151D01*
X134967970Y-79488329D01*
X134976235Y-79511429D01*
X134982196Y-79535227D01*
X134985796Y-79559496D01*
X134987000Y-79584000D01*
X134987000Y-80509000D01*
X134985796Y-80533504D01*
X134982196Y-80557773D01*
X134976235Y-80581571D01*
X134967970Y-80604671D01*
X134957480Y-80626849D01*
X134944867Y-80647893D01*
X134930253Y-80667598D01*
X134913777Y-80685777D01*
X134895598Y-80702253D01*
X134875893Y-80716867D01*
X134854849Y-80729480D01*
X134832671Y-80739970D01*
X134809571Y-80748235D01*
X134785773Y-80754196D01*
X134761504Y-80757796D01*
X134737000Y-80759000D01*
X133487000Y-80759000D01*
X133462496Y-80757796D01*
X133438227Y-80754196D01*
X133414429Y-80748235D01*
X133391329Y-80739970D01*
X133369151Y-80729480D01*
X133348107Y-80716867D01*
X133328402Y-80702253D01*
X133310223Y-80685777D01*
X133293747Y-80667598D01*
X133279133Y-80647893D01*
X133266520Y-80626849D01*
X133256030Y-80604671D01*
X133247765Y-80581571D01*
X133241804Y-80557773D01*
X133238204Y-80533504D01*
X133237000Y-80509000D01*
X133237000Y-79584000D01*
X133238204Y-79559496D01*
X133241804Y-79535227D01*
X133247765Y-79511429D01*
X133256030Y-79488329D01*
X133266520Y-79466151D01*
X133279133Y-79445107D01*
X133293747Y-79425402D01*
X133310223Y-79407223D01*
X133328402Y-79390747D01*
X133348107Y-79376133D01*
X133369151Y-79363520D01*
X133391329Y-79353030D01*
X133414429Y-79344765D01*
X133438227Y-79338804D01*
X133462496Y-79335204D01*
X133487000Y-79334000D01*
X134737000Y-79334000D01*
X134761504Y-79335204D01*
X134761504Y-79335204D01*
G37*
D16*
X134112000Y-80046500D03*
D10*
G36*
X125109504Y-82310204D02*
G01*
X125133773Y-82313804D01*
X125157571Y-82319765D01*
X125180671Y-82328030D01*
X125202849Y-82338520D01*
X125223893Y-82351133D01*
X125243598Y-82365747D01*
X125261777Y-82382223D01*
X125278253Y-82400402D01*
X125292867Y-82420107D01*
X125305480Y-82441151D01*
X125315970Y-82463329D01*
X125324235Y-82486429D01*
X125330196Y-82510227D01*
X125333796Y-82534496D01*
X125335000Y-82559000D01*
X125335000Y-83484000D01*
X125333796Y-83508504D01*
X125330196Y-83532773D01*
X125324235Y-83556571D01*
X125315970Y-83579671D01*
X125305480Y-83601849D01*
X125292867Y-83622893D01*
X125278253Y-83642598D01*
X125261777Y-83660777D01*
X125243598Y-83677253D01*
X125223893Y-83691867D01*
X125202849Y-83704480D01*
X125180671Y-83714970D01*
X125157571Y-83723235D01*
X125133773Y-83729196D01*
X125109504Y-83732796D01*
X125085000Y-83734000D01*
X123835000Y-83734000D01*
X123810496Y-83732796D01*
X123786227Y-83729196D01*
X123762429Y-83723235D01*
X123739329Y-83714970D01*
X123717151Y-83704480D01*
X123696107Y-83691867D01*
X123676402Y-83677253D01*
X123658223Y-83660777D01*
X123641747Y-83642598D01*
X123627133Y-83622893D01*
X123614520Y-83601849D01*
X123604030Y-83579671D01*
X123595765Y-83556571D01*
X123589804Y-83532773D01*
X123586204Y-83508504D01*
X123585000Y-83484000D01*
X123585000Y-82559000D01*
X123586204Y-82534496D01*
X123589804Y-82510227D01*
X123595765Y-82486429D01*
X123604030Y-82463329D01*
X123614520Y-82441151D01*
X123627133Y-82420107D01*
X123641747Y-82400402D01*
X123658223Y-82382223D01*
X123676402Y-82365747D01*
X123696107Y-82351133D01*
X123717151Y-82338520D01*
X123739329Y-82328030D01*
X123762429Y-82319765D01*
X123786227Y-82313804D01*
X123810496Y-82310204D01*
X123835000Y-82309000D01*
X125085000Y-82309000D01*
X125109504Y-82310204D01*
X125109504Y-82310204D01*
G37*
D16*
X124460000Y-83021500D03*
D10*
G36*
X125109504Y-79335204D02*
G01*
X125133773Y-79338804D01*
X125157571Y-79344765D01*
X125180671Y-79353030D01*
X125202849Y-79363520D01*
X125223893Y-79376133D01*
X125243598Y-79390747D01*
X125261777Y-79407223D01*
X125278253Y-79425402D01*
X125292867Y-79445107D01*
X125305480Y-79466151D01*
X125315970Y-79488329D01*
X125324235Y-79511429D01*
X125330196Y-79535227D01*
X125333796Y-79559496D01*
X125335000Y-79584000D01*
X125335000Y-80509000D01*
X125333796Y-80533504D01*
X125330196Y-80557773D01*
X125324235Y-80581571D01*
X125315970Y-80604671D01*
X125305480Y-80626849D01*
X125292867Y-80647893D01*
X125278253Y-80667598D01*
X125261777Y-80685777D01*
X125243598Y-80702253D01*
X125223893Y-80716867D01*
X125202849Y-80729480D01*
X125180671Y-80739970D01*
X125157571Y-80748235D01*
X125133773Y-80754196D01*
X125109504Y-80757796D01*
X125085000Y-80759000D01*
X123835000Y-80759000D01*
X123810496Y-80757796D01*
X123786227Y-80754196D01*
X123762429Y-80748235D01*
X123739329Y-80739970D01*
X123717151Y-80729480D01*
X123696107Y-80716867D01*
X123676402Y-80702253D01*
X123658223Y-80685777D01*
X123641747Y-80667598D01*
X123627133Y-80647893D01*
X123614520Y-80626849D01*
X123604030Y-80604671D01*
X123595765Y-80581571D01*
X123589804Y-80557773D01*
X123586204Y-80533504D01*
X123585000Y-80509000D01*
X123585000Y-79584000D01*
X123586204Y-79559496D01*
X123589804Y-79535227D01*
X123595765Y-79511429D01*
X123604030Y-79488329D01*
X123614520Y-79466151D01*
X123627133Y-79445107D01*
X123641747Y-79425402D01*
X123658223Y-79407223D01*
X123676402Y-79390747D01*
X123696107Y-79376133D01*
X123717151Y-79363520D01*
X123739329Y-79353030D01*
X123762429Y-79344765D01*
X123786227Y-79338804D01*
X123810496Y-79335204D01*
X123835000Y-79334000D01*
X125085000Y-79334000D01*
X125109504Y-79335204D01*
X125109504Y-79335204D01*
G37*
D16*
X124460000Y-80046500D03*
D10*
G36*
X110885504Y-77239704D02*
G01*
X110909773Y-77243304D01*
X110933571Y-77249265D01*
X110956671Y-77257530D01*
X110978849Y-77268020D01*
X110999893Y-77280633D01*
X111019598Y-77295247D01*
X111037777Y-77311723D01*
X111054253Y-77329902D01*
X111068867Y-77349607D01*
X111081480Y-77370651D01*
X111091970Y-77392829D01*
X111100235Y-77415929D01*
X111106196Y-77439727D01*
X111109796Y-77463996D01*
X111111000Y-77488500D01*
X111111000Y-78413500D01*
X111109796Y-78438004D01*
X111106196Y-78462273D01*
X111100235Y-78486071D01*
X111091970Y-78509171D01*
X111081480Y-78531349D01*
X111068867Y-78552393D01*
X111054253Y-78572098D01*
X111037777Y-78590277D01*
X111019598Y-78606753D01*
X110999893Y-78621367D01*
X110978849Y-78633980D01*
X110956671Y-78644470D01*
X110933571Y-78652735D01*
X110909773Y-78658696D01*
X110885504Y-78662296D01*
X110861000Y-78663500D01*
X109611000Y-78663500D01*
X109586496Y-78662296D01*
X109562227Y-78658696D01*
X109538429Y-78652735D01*
X109515329Y-78644470D01*
X109493151Y-78633980D01*
X109472107Y-78621367D01*
X109452402Y-78606753D01*
X109434223Y-78590277D01*
X109417747Y-78572098D01*
X109403133Y-78552393D01*
X109390520Y-78531349D01*
X109380030Y-78509171D01*
X109371765Y-78486071D01*
X109365804Y-78462273D01*
X109362204Y-78438004D01*
X109361000Y-78413500D01*
X109361000Y-77488500D01*
X109362204Y-77463996D01*
X109365804Y-77439727D01*
X109371765Y-77415929D01*
X109380030Y-77392829D01*
X109390520Y-77370651D01*
X109403133Y-77349607D01*
X109417747Y-77329902D01*
X109434223Y-77311723D01*
X109452402Y-77295247D01*
X109472107Y-77280633D01*
X109493151Y-77268020D01*
X109515329Y-77257530D01*
X109538429Y-77249265D01*
X109562227Y-77243304D01*
X109586496Y-77239704D01*
X109611000Y-77238500D01*
X110861000Y-77238500D01*
X110885504Y-77239704D01*
X110885504Y-77239704D01*
G37*
D16*
X110236000Y-77951000D03*
D10*
G36*
X110885504Y-80214704D02*
G01*
X110909773Y-80218304D01*
X110933571Y-80224265D01*
X110956671Y-80232530D01*
X110978849Y-80243020D01*
X110999893Y-80255633D01*
X111019598Y-80270247D01*
X111037777Y-80286723D01*
X111054253Y-80304902D01*
X111068867Y-80324607D01*
X111081480Y-80345651D01*
X111091970Y-80367829D01*
X111100235Y-80390929D01*
X111106196Y-80414727D01*
X111109796Y-80438996D01*
X111111000Y-80463500D01*
X111111000Y-81388500D01*
X111109796Y-81413004D01*
X111106196Y-81437273D01*
X111100235Y-81461071D01*
X111091970Y-81484171D01*
X111081480Y-81506349D01*
X111068867Y-81527393D01*
X111054253Y-81547098D01*
X111037777Y-81565277D01*
X111019598Y-81581753D01*
X110999893Y-81596367D01*
X110978849Y-81608980D01*
X110956671Y-81619470D01*
X110933571Y-81627735D01*
X110909773Y-81633696D01*
X110885504Y-81637296D01*
X110861000Y-81638500D01*
X109611000Y-81638500D01*
X109586496Y-81637296D01*
X109562227Y-81633696D01*
X109538429Y-81627735D01*
X109515329Y-81619470D01*
X109493151Y-81608980D01*
X109472107Y-81596367D01*
X109452402Y-81581753D01*
X109434223Y-81565277D01*
X109417747Y-81547098D01*
X109403133Y-81527393D01*
X109390520Y-81506349D01*
X109380030Y-81484171D01*
X109371765Y-81461071D01*
X109365804Y-81437273D01*
X109362204Y-81413004D01*
X109361000Y-81388500D01*
X109361000Y-80463500D01*
X109362204Y-80438996D01*
X109365804Y-80414727D01*
X109371765Y-80390929D01*
X109380030Y-80367829D01*
X109390520Y-80345651D01*
X109403133Y-80324607D01*
X109417747Y-80304902D01*
X109434223Y-80286723D01*
X109452402Y-80270247D01*
X109472107Y-80255633D01*
X109493151Y-80243020D01*
X109515329Y-80232530D01*
X109538429Y-80224265D01*
X109562227Y-80218304D01*
X109586496Y-80214704D01*
X109611000Y-80213500D01*
X110861000Y-80213500D01*
X110885504Y-80214704D01*
X110885504Y-80214704D01*
G37*
D16*
X110236000Y-80926000D03*
D10*
G36*
X134054504Y-74564204D02*
G01*
X134078773Y-74567804D01*
X134102571Y-74573765D01*
X134125671Y-74582030D01*
X134147849Y-74592520D01*
X134168893Y-74605133D01*
X134188598Y-74619747D01*
X134206777Y-74636223D01*
X134223253Y-74654402D01*
X134237867Y-74674107D01*
X134250480Y-74695151D01*
X134260970Y-74717329D01*
X134269235Y-74740429D01*
X134275196Y-74764227D01*
X134278796Y-74788496D01*
X134280000Y-74813000D01*
X134280000Y-76063000D01*
X134278796Y-76087504D01*
X134275196Y-76111773D01*
X134269235Y-76135571D01*
X134260970Y-76158671D01*
X134250480Y-76180849D01*
X134237867Y-76201893D01*
X134223253Y-76221598D01*
X134206777Y-76239777D01*
X134188598Y-76256253D01*
X134168893Y-76270867D01*
X134147849Y-76283480D01*
X134125671Y-76293970D01*
X134102571Y-76302235D01*
X134078773Y-76308196D01*
X134054504Y-76311796D01*
X134030000Y-76313000D01*
X133105000Y-76313000D01*
X133080496Y-76311796D01*
X133056227Y-76308196D01*
X133032429Y-76302235D01*
X133009329Y-76293970D01*
X132987151Y-76283480D01*
X132966107Y-76270867D01*
X132946402Y-76256253D01*
X132928223Y-76239777D01*
X132911747Y-76221598D01*
X132897133Y-76201893D01*
X132884520Y-76180849D01*
X132874030Y-76158671D01*
X132865765Y-76135571D01*
X132859804Y-76111773D01*
X132856204Y-76087504D01*
X132855000Y-76063000D01*
X132855000Y-74813000D01*
X132856204Y-74788496D01*
X132859804Y-74764227D01*
X132865765Y-74740429D01*
X132874030Y-74717329D01*
X132884520Y-74695151D01*
X132897133Y-74674107D01*
X132911747Y-74654402D01*
X132928223Y-74636223D01*
X132946402Y-74619747D01*
X132966107Y-74605133D01*
X132987151Y-74592520D01*
X133009329Y-74582030D01*
X133032429Y-74573765D01*
X133056227Y-74567804D01*
X133080496Y-74564204D01*
X133105000Y-74563000D01*
X134030000Y-74563000D01*
X134054504Y-74564204D01*
X134054504Y-74564204D01*
G37*
D16*
X133567500Y-75438000D03*
D10*
G36*
X131079504Y-74564204D02*
G01*
X131103773Y-74567804D01*
X131127571Y-74573765D01*
X131150671Y-74582030D01*
X131172849Y-74592520D01*
X131193893Y-74605133D01*
X131213598Y-74619747D01*
X131231777Y-74636223D01*
X131248253Y-74654402D01*
X131262867Y-74674107D01*
X131275480Y-74695151D01*
X131285970Y-74717329D01*
X131294235Y-74740429D01*
X131300196Y-74764227D01*
X131303796Y-74788496D01*
X131305000Y-74813000D01*
X131305000Y-76063000D01*
X131303796Y-76087504D01*
X131300196Y-76111773D01*
X131294235Y-76135571D01*
X131285970Y-76158671D01*
X131275480Y-76180849D01*
X131262867Y-76201893D01*
X131248253Y-76221598D01*
X131231777Y-76239777D01*
X131213598Y-76256253D01*
X131193893Y-76270867D01*
X131172849Y-76283480D01*
X131150671Y-76293970D01*
X131127571Y-76302235D01*
X131103773Y-76308196D01*
X131079504Y-76311796D01*
X131055000Y-76313000D01*
X130130000Y-76313000D01*
X130105496Y-76311796D01*
X130081227Y-76308196D01*
X130057429Y-76302235D01*
X130034329Y-76293970D01*
X130012151Y-76283480D01*
X129991107Y-76270867D01*
X129971402Y-76256253D01*
X129953223Y-76239777D01*
X129936747Y-76221598D01*
X129922133Y-76201893D01*
X129909520Y-76180849D01*
X129899030Y-76158671D01*
X129890765Y-76135571D01*
X129884804Y-76111773D01*
X129881204Y-76087504D01*
X129880000Y-76063000D01*
X129880000Y-74813000D01*
X129881204Y-74788496D01*
X129884804Y-74764227D01*
X129890765Y-74740429D01*
X129899030Y-74717329D01*
X129909520Y-74695151D01*
X129922133Y-74674107D01*
X129936747Y-74654402D01*
X129953223Y-74636223D01*
X129971402Y-74619747D01*
X129991107Y-74605133D01*
X130012151Y-74592520D01*
X130034329Y-74582030D01*
X130057429Y-74573765D01*
X130081227Y-74567804D01*
X130105496Y-74564204D01*
X130130000Y-74563000D01*
X131055000Y-74563000D01*
X131079504Y-74564204D01*
X131079504Y-74564204D01*
G37*
D16*
X130592500Y-75438000D03*
D10*
G36*
X139333504Y-76214204D02*
G01*
X139357773Y-76217804D01*
X139381571Y-76223765D01*
X139404671Y-76232030D01*
X139426849Y-76242520D01*
X139447893Y-76255133D01*
X139467598Y-76269747D01*
X139485777Y-76286223D01*
X139502253Y-76304402D01*
X139516867Y-76324107D01*
X139529480Y-76345151D01*
X139539970Y-76367329D01*
X139548235Y-76390429D01*
X139554196Y-76414227D01*
X139557796Y-76438496D01*
X139559000Y-76463000D01*
X139559000Y-77388000D01*
X139557796Y-77412504D01*
X139554196Y-77436773D01*
X139548235Y-77460571D01*
X139539970Y-77483671D01*
X139529480Y-77505849D01*
X139516867Y-77526893D01*
X139502253Y-77546598D01*
X139485777Y-77564777D01*
X139467598Y-77581253D01*
X139447893Y-77595867D01*
X139426849Y-77608480D01*
X139404671Y-77618970D01*
X139381571Y-77627235D01*
X139357773Y-77633196D01*
X139333504Y-77636796D01*
X139309000Y-77638000D01*
X138059000Y-77638000D01*
X138034496Y-77636796D01*
X138010227Y-77633196D01*
X137986429Y-77627235D01*
X137963329Y-77618970D01*
X137941151Y-77608480D01*
X137920107Y-77595867D01*
X137900402Y-77581253D01*
X137882223Y-77564777D01*
X137865747Y-77546598D01*
X137851133Y-77526893D01*
X137838520Y-77505849D01*
X137828030Y-77483671D01*
X137819765Y-77460571D01*
X137813804Y-77436773D01*
X137810204Y-77412504D01*
X137809000Y-77388000D01*
X137809000Y-76463000D01*
X137810204Y-76438496D01*
X137813804Y-76414227D01*
X137819765Y-76390429D01*
X137828030Y-76367329D01*
X137838520Y-76345151D01*
X137851133Y-76324107D01*
X137865747Y-76304402D01*
X137882223Y-76286223D01*
X137900402Y-76269747D01*
X137920107Y-76255133D01*
X137941151Y-76242520D01*
X137963329Y-76232030D01*
X137986429Y-76223765D01*
X138010227Y-76217804D01*
X138034496Y-76214204D01*
X138059000Y-76213000D01*
X139309000Y-76213000D01*
X139333504Y-76214204D01*
X139333504Y-76214204D01*
G37*
D16*
X138684000Y-76925500D03*
D10*
G36*
X139333504Y-73239204D02*
G01*
X139357773Y-73242804D01*
X139381571Y-73248765D01*
X139404671Y-73257030D01*
X139426849Y-73267520D01*
X139447893Y-73280133D01*
X139467598Y-73294747D01*
X139485777Y-73311223D01*
X139502253Y-73329402D01*
X139516867Y-73349107D01*
X139529480Y-73370151D01*
X139539970Y-73392329D01*
X139548235Y-73415429D01*
X139554196Y-73439227D01*
X139557796Y-73463496D01*
X139559000Y-73488000D01*
X139559000Y-74413000D01*
X139557796Y-74437504D01*
X139554196Y-74461773D01*
X139548235Y-74485571D01*
X139539970Y-74508671D01*
X139529480Y-74530849D01*
X139516867Y-74551893D01*
X139502253Y-74571598D01*
X139485777Y-74589777D01*
X139467598Y-74606253D01*
X139447893Y-74620867D01*
X139426849Y-74633480D01*
X139404671Y-74643970D01*
X139381571Y-74652235D01*
X139357773Y-74658196D01*
X139333504Y-74661796D01*
X139309000Y-74663000D01*
X138059000Y-74663000D01*
X138034496Y-74661796D01*
X138010227Y-74658196D01*
X137986429Y-74652235D01*
X137963329Y-74643970D01*
X137941151Y-74633480D01*
X137920107Y-74620867D01*
X137900402Y-74606253D01*
X137882223Y-74589777D01*
X137865747Y-74571598D01*
X137851133Y-74551893D01*
X137838520Y-74530849D01*
X137828030Y-74508671D01*
X137819765Y-74485571D01*
X137813804Y-74461773D01*
X137810204Y-74437504D01*
X137809000Y-74413000D01*
X137809000Y-73488000D01*
X137810204Y-73463496D01*
X137813804Y-73439227D01*
X137819765Y-73415429D01*
X137828030Y-73392329D01*
X137838520Y-73370151D01*
X137851133Y-73349107D01*
X137865747Y-73329402D01*
X137882223Y-73311223D01*
X137900402Y-73294747D01*
X137920107Y-73280133D01*
X137941151Y-73267520D01*
X137963329Y-73257030D01*
X137986429Y-73248765D01*
X138010227Y-73242804D01*
X138034496Y-73239204D01*
X138059000Y-73238000D01*
X139309000Y-73238000D01*
X139333504Y-73239204D01*
X139333504Y-73239204D01*
G37*
D16*
X138684000Y-73950500D03*
D10*
G36*
X133999504Y-101868204D02*
G01*
X134023773Y-101871804D01*
X134047571Y-101877765D01*
X134070671Y-101886030D01*
X134092849Y-101896520D01*
X134113893Y-101909133D01*
X134133598Y-101923747D01*
X134151777Y-101940223D01*
X134168253Y-101958402D01*
X134182867Y-101978107D01*
X134195480Y-101999151D01*
X134205970Y-102021329D01*
X134214235Y-102044429D01*
X134220196Y-102068227D01*
X134223796Y-102092496D01*
X134225000Y-102117000D01*
X134225000Y-103042000D01*
X134223796Y-103066504D01*
X134220196Y-103090773D01*
X134214235Y-103114571D01*
X134205970Y-103137671D01*
X134195480Y-103159849D01*
X134182867Y-103180893D01*
X134168253Y-103200598D01*
X134151777Y-103218777D01*
X134133598Y-103235253D01*
X134113893Y-103249867D01*
X134092849Y-103262480D01*
X134070671Y-103272970D01*
X134047571Y-103281235D01*
X134023773Y-103287196D01*
X133999504Y-103290796D01*
X133975000Y-103292000D01*
X132725000Y-103292000D01*
X132700496Y-103290796D01*
X132676227Y-103287196D01*
X132652429Y-103281235D01*
X132629329Y-103272970D01*
X132607151Y-103262480D01*
X132586107Y-103249867D01*
X132566402Y-103235253D01*
X132548223Y-103218777D01*
X132531747Y-103200598D01*
X132517133Y-103180893D01*
X132504520Y-103159849D01*
X132494030Y-103137671D01*
X132485765Y-103114571D01*
X132479804Y-103090773D01*
X132476204Y-103066504D01*
X132475000Y-103042000D01*
X132475000Y-102117000D01*
X132476204Y-102092496D01*
X132479804Y-102068227D01*
X132485765Y-102044429D01*
X132494030Y-102021329D01*
X132504520Y-101999151D01*
X132517133Y-101978107D01*
X132531747Y-101958402D01*
X132548223Y-101940223D01*
X132566402Y-101923747D01*
X132586107Y-101909133D01*
X132607151Y-101896520D01*
X132629329Y-101886030D01*
X132652429Y-101877765D01*
X132676227Y-101871804D01*
X132700496Y-101868204D01*
X132725000Y-101867000D01*
X133975000Y-101867000D01*
X133999504Y-101868204D01*
X133999504Y-101868204D01*
G37*
D16*
X133350000Y-102579500D03*
D10*
G36*
X133999504Y-98893204D02*
G01*
X134023773Y-98896804D01*
X134047571Y-98902765D01*
X134070671Y-98911030D01*
X134092849Y-98921520D01*
X134113893Y-98934133D01*
X134133598Y-98948747D01*
X134151777Y-98965223D01*
X134168253Y-98983402D01*
X134182867Y-99003107D01*
X134195480Y-99024151D01*
X134205970Y-99046329D01*
X134214235Y-99069429D01*
X134220196Y-99093227D01*
X134223796Y-99117496D01*
X134225000Y-99142000D01*
X134225000Y-100067000D01*
X134223796Y-100091504D01*
X134220196Y-100115773D01*
X134214235Y-100139571D01*
X134205970Y-100162671D01*
X134195480Y-100184849D01*
X134182867Y-100205893D01*
X134168253Y-100225598D01*
X134151777Y-100243777D01*
X134133598Y-100260253D01*
X134113893Y-100274867D01*
X134092849Y-100287480D01*
X134070671Y-100297970D01*
X134047571Y-100306235D01*
X134023773Y-100312196D01*
X133999504Y-100315796D01*
X133975000Y-100317000D01*
X132725000Y-100317000D01*
X132700496Y-100315796D01*
X132676227Y-100312196D01*
X132652429Y-100306235D01*
X132629329Y-100297970D01*
X132607151Y-100287480D01*
X132586107Y-100274867D01*
X132566402Y-100260253D01*
X132548223Y-100243777D01*
X132531747Y-100225598D01*
X132517133Y-100205893D01*
X132504520Y-100184849D01*
X132494030Y-100162671D01*
X132485765Y-100139571D01*
X132479804Y-100115773D01*
X132476204Y-100091504D01*
X132475000Y-100067000D01*
X132475000Y-99142000D01*
X132476204Y-99117496D01*
X132479804Y-99093227D01*
X132485765Y-99069429D01*
X132494030Y-99046329D01*
X132504520Y-99024151D01*
X132517133Y-99003107D01*
X132531747Y-98983402D01*
X132548223Y-98965223D01*
X132566402Y-98948747D01*
X132586107Y-98934133D01*
X132607151Y-98921520D01*
X132629329Y-98911030D01*
X132652429Y-98902765D01*
X132676227Y-98896804D01*
X132700496Y-98893204D01*
X132725000Y-98892000D01*
X133975000Y-98892000D01*
X133999504Y-98893204D01*
X133999504Y-98893204D01*
G37*
D16*
X133350000Y-99604500D03*
D10*
G36*
X123331504Y-106948204D02*
G01*
X123355773Y-106951804D01*
X123379571Y-106957765D01*
X123402671Y-106966030D01*
X123424849Y-106976520D01*
X123445893Y-106989133D01*
X123465598Y-107003747D01*
X123483777Y-107020223D01*
X123500253Y-107038402D01*
X123514867Y-107058107D01*
X123527480Y-107079151D01*
X123537970Y-107101329D01*
X123546235Y-107124429D01*
X123552196Y-107148227D01*
X123555796Y-107172496D01*
X123557000Y-107197000D01*
X123557000Y-108122000D01*
X123555796Y-108146504D01*
X123552196Y-108170773D01*
X123546235Y-108194571D01*
X123537970Y-108217671D01*
X123527480Y-108239849D01*
X123514867Y-108260893D01*
X123500253Y-108280598D01*
X123483777Y-108298777D01*
X123465598Y-108315253D01*
X123445893Y-108329867D01*
X123424849Y-108342480D01*
X123402671Y-108352970D01*
X123379571Y-108361235D01*
X123355773Y-108367196D01*
X123331504Y-108370796D01*
X123307000Y-108372000D01*
X122057000Y-108372000D01*
X122032496Y-108370796D01*
X122008227Y-108367196D01*
X121984429Y-108361235D01*
X121961329Y-108352970D01*
X121939151Y-108342480D01*
X121918107Y-108329867D01*
X121898402Y-108315253D01*
X121880223Y-108298777D01*
X121863747Y-108280598D01*
X121849133Y-108260893D01*
X121836520Y-108239849D01*
X121826030Y-108217671D01*
X121817765Y-108194571D01*
X121811804Y-108170773D01*
X121808204Y-108146504D01*
X121807000Y-108122000D01*
X121807000Y-107197000D01*
X121808204Y-107172496D01*
X121811804Y-107148227D01*
X121817765Y-107124429D01*
X121826030Y-107101329D01*
X121836520Y-107079151D01*
X121849133Y-107058107D01*
X121863747Y-107038402D01*
X121880223Y-107020223D01*
X121898402Y-107003747D01*
X121918107Y-106989133D01*
X121939151Y-106976520D01*
X121961329Y-106966030D01*
X121984429Y-106957765D01*
X122008227Y-106951804D01*
X122032496Y-106948204D01*
X122057000Y-106947000D01*
X123307000Y-106947000D01*
X123331504Y-106948204D01*
X123331504Y-106948204D01*
G37*
D16*
X122682000Y-107659500D03*
D10*
G36*
X123331504Y-103973204D02*
G01*
X123355773Y-103976804D01*
X123379571Y-103982765D01*
X123402671Y-103991030D01*
X123424849Y-104001520D01*
X123445893Y-104014133D01*
X123465598Y-104028747D01*
X123483777Y-104045223D01*
X123500253Y-104063402D01*
X123514867Y-104083107D01*
X123527480Y-104104151D01*
X123537970Y-104126329D01*
X123546235Y-104149429D01*
X123552196Y-104173227D01*
X123555796Y-104197496D01*
X123557000Y-104222000D01*
X123557000Y-105147000D01*
X123555796Y-105171504D01*
X123552196Y-105195773D01*
X123546235Y-105219571D01*
X123537970Y-105242671D01*
X123527480Y-105264849D01*
X123514867Y-105285893D01*
X123500253Y-105305598D01*
X123483777Y-105323777D01*
X123465598Y-105340253D01*
X123445893Y-105354867D01*
X123424849Y-105367480D01*
X123402671Y-105377970D01*
X123379571Y-105386235D01*
X123355773Y-105392196D01*
X123331504Y-105395796D01*
X123307000Y-105397000D01*
X122057000Y-105397000D01*
X122032496Y-105395796D01*
X122008227Y-105392196D01*
X121984429Y-105386235D01*
X121961329Y-105377970D01*
X121939151Y-105367480D01*
X121918107Y-105354867D01*
X121898402Y-105340253D01*
X121880223Y-105323777D01*
X121863747Y-105305598D01*
X121849133Y-105285893D01*
X121836520Y-105264849D01*
X121826030Y-105242671D01*
X121817765Y-105219571D01*
X121811804Y-105195773D01*
X121808204Y-105171504D01*
X121807000Y-105147000D01*
X121807000Y-104222000D01*
X121808204Y-104197496D01*
X121811804Y-104173227D01*
X121817765Y-104149429D01*
X121826030Y-104126329D01*
X121836520Y-104104151D01*
X121849133Y-104083107D01*
X121863747Y-104063402D01*
X121880223Y-104045223D01*
X121898402Y-104028747D01*
X121918107Y-104014133D01*
X121939151Y-104001520D01*
X121961329Y-103991030D01*
X121984429Y-103982765D01*
X122008227Y-103976804D01*
X122032496Y-103973204D01*
X122057000Y-103972000D01*
X123307000Y-103972000D01*
X123331504Y-103973204D01*
X123331504Y-103973204D01*
G37*
D16*
X122682000Y-104684500D03*
D17*
X122682000Y-101330000D03*
X121732000Y-99330000D03*
X123632000Y-99330000D03*
D10*
G36*
X117616504Y-87209204D02*
G01*
X117640773Y-87212804D01*
X117664571Y-87218765D01*
X117687671Y-87227030D01*
X117709849Y-87237520D01*
X117730893Y-87250133D01*
X117750598Y-87264747D01*
X117768777Y-87281223D01*
X117785253Y-87299402D01*
X117799867Y-87319107D01*
X117812480Y-87340151D01*
X117822970Y-87362329D01*
X117831235Y-87385429D01*
X117837196Y-87409227D01*
X117840796Y-87433496D01*
X117842000Y-87458000D01*
X117842000Y-88383000D01*
X117840796Y-88407504D01*
X117837196Y-88431773D01*
X117831235Y-88455571D01*
X117822970Y-88478671D01*
X117812480Y-88500849D01*
X117799867Y-88521893D01*
X117785253Y-88541598D01*
X117768777Y-88559777D01*
X117750598Y-88576253D01*
X117730893Y-88590867D01*
X117709849Y-88603480D01*
X117687671Y-88613970D01*
X117664571Y-88622235D01*
X117640773Y-88628196D01*
X117616504Y-88631796D01*
X117592000Y-88633000D01*
X116342000Y-88633000D01*
X116317496Y-88631796D01*
X116293227Y-88628196D01*
X116269429Y-88622235D01*
X116246329Y-88613970D01*
X116224151Y-88603480D01*
X116203107Y-88590867D01*
X116183402Y-88576253D01*
X116165223Y-88559777D01*
X116148747Y-88541598D01*
X116134133Y-88521893D01*
X116121520Y-88500849D01*
X116111030Y-88478671D01*
X116102765Y-88455571D01*
X116096804Y-88431773D01*
X116093204Y-88407504D01*
X116092000Y-88383000D01*
X116092000Y-87458000D01*
X116093204Y-87433496D01*
X116096804Y-87409227D01*
X116102765Y-87385429D01*
X116111030Y-87362329D01*
X116121520Y-87340151D01*
X116134133Y-87319107D01*
X116148747Y-87299402D01*
X116165223Y-87281223D01*
X116183402Y-87264747D01*
X116203107Y-87250133D01*
X116224151Y-87237520D01*
X116246329Y-87227030D01*
X116269429Y-87218765D01*
X116293227Y-87212804D01*
X116317496Y-87209204D01*
X116342000Y-87208000D01*
X117592000Y-87208000D01*
X117616504Y-87209204D01*
X117616504Y-87209204D01*
G37*
D16*
X116967000Y-87920500D03*
D10*
G36*
X117616504Y-90184204D02*
G01*
X117640773Y-90187804D01*
X117664571Y-90193765D01*
X117687671Y-90202030D01*
X117709849Y-90212520D01*
X117730893Y-90225133D01*
X117750598Y-90239747D01*
X117768777Y-90256223D01*
X117785253Y-90274402D01*
X117799867Y-90294107D01*
X117812480Y-90315151D01*
X117822970Y-90337329D01*
X117831235Y-90360429D01*
X117837196Y-90384227D01*
X117840796Y-90408496D01*
X117842000Y-90433000D01*
X117842000Y-91358000D01*
X117840796Y-91382504D01*
X117837196Y-91406773D01*
X117831235Y-91430571D01*
X117822970Y-91453671D01*
X117812480Y-91475849D01*
X117799867Y-91496893D01*
X117785253Y-91516598D01*
X117768777Y-91534777D01*
X117750598Y-91551253D01*
X117730893Y-91565867D01*
X117709849Y-91578480D01*
X117687671Y-91588970D01*
X117664571Y-91597235D01*
X117640773Y-91603196D01*
X117616504Y-91606796D01*
X117592000Y-91608000D01*
X116342000Y-91608000D01*
X116317496Y-91606796D01*
X116293227Y-91603196D01*
X116269429Y-91597235D01*
X116246329Y-91588970D01*
X116224151Y-91578480D01*
X116203107Y-91565867D01*
X116183402Y-91551253D01*
X116165223Y-91534777D01*
X116148747Y-91516598D01*
X116134133Y-91496893D01*
X116121520Y-91475849D01*
X116111030Y-91453671D01*
X116102765Y-91430571D01*
X116096804Y-91406773D01*
X116093204Y-91382504D01*
X116092000Y-91358000D01*
X116092000Y-90433000D01*
X116093204Y-90408496D01*
X116096804Y-90384227D01*
X116102765Y-90360429D01*
X116111030Y-90337329D01*
X116121520Y-90315151D01*
X116134133Y-90294107D01*
X116148747Y-90274402D01*
X116165223Y-90256223D01*
X116183402Y-90239747D01*
X116203107Y-90225133D01*
X116224151Y-90212520D01*
X116246329Y-90202030D01*
X116269429Y-90193765D01*
X116293227Y-90187804D01*
X116317496Y-90184204D01*
X116342000Y-90183000D01*
X117592000Y-90183000D01*
X117616504Y-90184204D01*
X117616504Y-90184204D01*
G37*
D16*
X116967000Y-90895500D03*
D10*
G36*
X114695504Y-72032704D02*
G01*
X114719773Y-72036304D01*
X114743571Y-72042265D01*
X114766671Y-72050530D01*
X114788849Y-72061020D01*
X114809893Y-72073633D01*
X114829598Y-72088247D01*
X114847777Y-72104723D01*
X114864253Y-72122902D01*
X114878867Y-72142607D01*
X114891480Y-72163651D01*
X114901970Y-72185829D01*
X114910235Y-72208929D01*
X114916196Y-72232727D01*
X114919796Y-72256996D01*
X114921000Y-72281500D01*
X114921000Y-73206500D01*
X114919796Y-73231004D01*
X114916196Y-73255273D01*
X114910235Y-73279071D01*
X114901970Y-73302171D01*
X114891480Y-73324349D01*
X114878867Y-73345393D01*
X114864253Y-73365098D01*
X114847777Y-73383277D01*
X114829598Y-73399753D01*
X114809893Y-73414367D01*
X114788849Y-73426980D01*
X114766671Y-73437470D01*
X114743571Y-73445735D01*
X114719773Y-73451696D01*
X114695504Y-73455296D01*
X114671000Y-73456500D01*
X113421000Y-73456500D01*
X113396496Y-73455296D01*
X113372227Y-73451696D01*
X113348429Y-73445735D01*
X113325329Y-73437470D01*
X113303151Y-73426980D01*
X113282107Y-73414367D01*
X113262402Y-73399753D01*
X113244223Y-73383277D01*
X113227747Y-73365098D01*
X113213133Y-73345393D01*
X113200520Y-73324349D01*
X113190030Y-73302171D01*
X113181765Y-73279071D01*
X113175804Y-73255273D01*
X113172204Y-73231004D01*
X113171000Y-73206500D01*
X113171000Y-72281500D01*
X113172204Y-72256996D01*
X113175804Y-72232727D01*
X113181765Y-72208929D01*
X113190030Y-72185829D01*
X113200520Y-72163651D01*
X113213133Y-72142607D01*
X113227747Y-72122902D01*
X113244223Y-72104723D01*
X113262402Y-72088247D01*
X113282107Y-72073633D01*
X113303151Y-72061020D01*
X113325329Y-72050530D01*
X113348429Y-72042265D01*
X113372227Y-72036304D01*
X113396496Y-72032704D01*
X113421000Y-72031500D01*
X114671000Y-72031500D01*
X114695504Y-72032704D01*
X114695504Y-72032704D01*
G37*
D16*
X114046000Y-72744000D03*
D10*
G36*
X114695504Y-75007704D02*
G01*
X114719773Y-75011304D01*
X114743571Y-75017265D01*
X114766671Y-75025530D01*
X114788849Y-75036020D01*
X114809893Y-75048633D01*
X114829598Y-75063247D01*
X114847777Y-75079723D01*
X114864253Y-75097902D01*
X114878867Y-75117607D01*
X114891480Y-75138651D01*
X114901970Y-75160829D01*
X114910235Y-75183929D01*
X114916196Y-75207727D01*
X114919796Y-75231996D01*
X114921000Y-75256500D01*
X114921000Y-76181500D01*
X114919796Y-76206004D01*
X114916196Y-76230273D01*
X114910235Y-76254071D01*
X114901970Y-76277171D01*
X114891480Y-76299349D01*
X114878867Y-76320393D01*
X114864253Y-76340098D01*
X114847777Y-76358277D01*
X114829598Y-76374753D01*
X114809893Y-76389367D01*
X114788849Y-76401980D01*
X114766671Y-76412470D01*
X114743571Y-76420735D01*
X114719773Y-76426696D01*
X114695504Y-76430296D01*
X114671000Y-76431500D01*
X113421000Y-76431500D01*
X113396496Y-76430296D01*
X113372227Y-76426696D01*
X113348429Y-76420735D01*
X113325329Y-76412470D01*
X113303151Y-76401980D01*
X113282107Y-76389367D01*
X113262402Y-76374753D01*
X113244223Y-76358277D01*
X113227747Y-76340098D01*
X113213133Y-76320393D01*
X113200520Y-76299349D01*
X113190030Y-76277171D01*
X113181765Y-76254071D01*
X113175804Y-76230273D01*
X113172204Y-76206004D01*
X113171000Y-76181500D01*
X113171000Y-75256500D01*
X113172204Y-75231996D01*
X113175804Y-75207727D01*
X113181765Y-75183929D01*
X113190030Y-75160829D01*
X113200520Y-75138651D01*
X113213133Y-75117607D01*
X113227747Y-75097902D01*
X113244223Y-75079723D01*
X113262402Y-75063247D01*
X113282107Y-75048633D01*
X113303151Y-75036020D01*
X113325329Y-75025530D01*
X113348429Y-75017265D01*
X113372227Y-75011304D01*
X113396496Y-75007704D01*
X113421000Y-75006500D01*
X114671000Y-75006500D01*
X114695504Y-75007704D01*
X114695504Y-75007704D01*
G37*
D16*
X114046000Y-75719000D03*
D10*
G36*
X140731504Y-84978204D02*
G01*
X140755773Y-84981804D01*
X140779571Y-84987765D01*
X140802671Y-84996030D01*
X140824849Y-85006520D01*
X140845893Y-85019133D01*
X140865598Y-85033747D01*
X140883777Y-85050223D01*
X140900253Y-85068402D01*
X140914867Y-85088107D01*
X140927480Y-85109151D01*
X140937970Y-85131329D01*
X140946235Y-85154429D01*
X140952196Y-85178227D01*
X140955796Y-85202496D01*
X140957000Y-85227000D01*
X140957000Y-86477000D01*
X140955796Y-86501504D01*
X140952196Y-86525773D01*
X140946235Y-86549571D01*
X140937970Y-86572671D01*
X140927480Y-86594849D01*
X140914867Y-86615893D01*
X140900253Y-86635598D01*
X140883777Y-86653777D01*
X140865598Y-86670253D01*
X140845893Y-86684867D01*
X140824849Y-86697480D01*
X140802671Y-86707970D01*
X140779571Y-86716235D01*
X140755773Y-86722196D01*
X140731504Y-86725796D01*
X140707000Y-86727000D01*
X139782000Y-86727000D01*
X139757496Y-86725796D01*
X139733227Y-86722196D01*
X139709429Y-86716235D01*
X139686329Y-86707970D01*
X139664151Y-86697480D01*
X139643107Y-86684867D01*
X139623402Y-86670253D01*
X139605223Y-86653777D01*
X139588747Y-86635598D01*
X139574133Y-86615893D01*
X139561520Y-86594849D01*
X139551030Y-86572671D01*
X139542765Y-86549571D01*
X139536804Y-86525773D01*
X139533204Y-86501504D01*
X139532000Y-86477000D01*
X139532000Y-85227000D01*
X139533204Y-85202496D01*
X139536804Y-85178227D01*
X139542765Y-85154429D01*
X139551030Y-85131329D01*
X139561520Y-85109151D01*
X139574133Y-85088107D01*
X139588747Y-85068402D01*
X139605223Y-85050223D01*
X139623402Y-85033747D01*
X139643107Y-85019133D01*
X139664151Y-85006520D01*
X139686329Y-84996030D01*
X139709429Y-84987765D01*
X139733227Y-84981804D01*
X139757496Y-84978204D01*
X139782000Y-84977000D01*
X140707000Y-84977000D01*
X140731504Y-84978204D01*
X140731504Y-84978204D01*
G37*
D16*
X140244500Y-85852000D03*
D10*
G36*
X143706504Y-84978204D02*
G01*
X143730773Y-84981804D01*
X143754571Y-84987765D01*
X143777671Y-84996030D01*
X143799849Y-85006520D01*
X143820893Y-85019133D01*
X143840598Y-85033747D01*
X143858777Y-85050223D01*
X143875253Y-85068402D01*
X143889867Y-85088107D01*
X143902480Y-85109151D01*
X143912970Y-85131329D01*
X143921235Y-85154429D01*
X143927196Y-85178227D01*
X143930796Y-85202496D01*
X143932000Y-85227000D01*
X143932000Y-86477000D01*
X143930796Y-86501504D01*
X143927196Y-86525773D01*
X143921235Y-86549571D01*
X143912970Y-86572671D01*
X143902480Y-86594849D01*
X143889867Y-86615893D01*
X143875253Y-86635598D01*
X143858777Y-86653777D01*
X143840598Y-86670253D01*
X143820893Y-86684867D01*
X143799849Y-86697480D01*
X143777671Y-86707970D01*
X143754571Y-86716235D01*
X143730773Y-86722196D01*
X143706504Y-86725796D01*
X143682000Y-86727000D01*
X142757000Y-86727000D01*
X142732496Y-86725796D01*
X142708227Y-86722196D01*
X142684429Y-86716235D01*
X142661329Y-86707970D01*
X142639151Y-86697480D01*
X142618107Y-86684867D01*
X142598402Y-86670253D01*
X142580223Y-86653777D01*
X142563747Y-86635598D01*
X142549133Y-86615893D01*
X142536520Y-86594849D01*
X142526030Y-86572671D01*
X142517765Y-86549571D01*
X142511804Y-86525773D01*
X142508204Y-86501504D01*
X142507000Y-86477000D01*
X142507000Y-85227000D01*
X142508204Y-85202496D01*
X142511804Y-85178227D01*
X142517765Y-85154429D01*
X142526030Y-85131329D01*
X142536520Y-85109151D01*
X142549133Y-85088107D01*
X142563747Y-85068402D01*
X142580223Y-85050223D01*
X142598402Y-85033747D01*
X142618107Y-85019133D01*
X142639151Y-85006520D01*
X142661329Y-84996030D01*
X142684429Y-84987765D01*
X142708227Y-84981804D01*
X142732496Y-84978204D01*
X142757000Y-84977000D01*
X143682000Y-84977000D01*
X143706504Y-84978204D01*
X143706504Y-84978204D01*
G37*
D16*
X143219500Y-85852000D03*
D18*
X130382000Y-80076000D03*
X130382000Y-81976000D03*
X127682000Y-81976000D03*
X127682000Y-81026000D03*
X127682000Y-80076000D03*
D10*
G36*
X118052504Y-94122204D02*
G01*
X118076773Y-94125804D01*
X118100571Y-94131765D01*
X118123671Y-94140030D01*
X118145849Y-94150520D01*
X118166893Y-94163133D01*
X118186598Y-94177747D01*
X118204777Y-94194223D01*
X118221253Y-94212402D01*
X118235867Y-94232107D01*
X118248480Y-94253151D01*
X118258970Y-94275329D01*
X118267235Y-94298429D01*
X118273196Y-94322227D01*
X118276796Y-94346496D01*
X118278000Y-94371000D01*
X118278000Y-95621000D01*
X118276796Y-95645504D01*
X118273196Y-95669773D01*
X118267235Y-95693571D01*
X118258970Y-95716671D01*
X118248480Y-95738849D01*
X118235867Y-95759893D01*
X118221253Y-95779598D01*
X118204777Y-95797777D01*
X118186598Y-95814253D01*
X118166893Y-95828867D01*
X118145849Y-95841480D01*
X118123671Y-95851970D01*
X118100571Y-95860235D01*
X118076773Y-95866196D01*
X118052504Y-95869796D01*
X118028000Y-95871000D01*
X117103000Y-95871000D01*
X117078496Y-95869796D01*
X117054227Y-95866196D01*
X117030429Y-95860235D01*
X117007329Y-95851970D01*
X116985151Y-95841480D01*
X116964107Y-95828867D01*
X116944402Y-95814253D01*
X116926223Y-95797777D01*
X116909747Y-95779598D01*
X116895133Y-95759893D01*
X116882520Y-95738849D01*
X116872030Y-95716671D01*
X116863765Y-95693571D01*
X116857804Y-95669773D01*
X116854204Y-95645504D01*
X116853000Y-95621000D01*
X116853000Y-94371000D01*
X116854204Y-94346496D01*
X116857804Y-94322227D01*
X116863765Y-94298429D01*
X116872030Y-94275329D01*
X116882520Y-94253151D01*
X116895133Y-94232107D01*
X116909747Y-94212402D01*
X116926223Y-94194223D01*
X116944402Y-94177747D01*
X116964107Y-94163133D01*
X116985151Y-94150520D01*
X117007329Y-94140030D01*
X117030429Y-94131765D01*
X117054227Y-94125804D01*
X117078496Y-94122204D01*
X117103000Y-94121000D01*
X118028000Y-94121000D01*
X118052504Y-94122204D01*
X118052504Y-94122204D01*
G37*
D16*
X117565500Y-94996000D03*
D10*
G36*
X115077504Y-94122204D02*
G01*
X115101773Y-94125804D01*
X115125571Y-94131765D01*
X115148671Y-94140030D01*
X115170849Y-94150520D01*
X115191893Y-94163133D01*
X115211598Y-94177747D01*
X115229777Y-94194223D01*
X115246253Y-94212402D01*
X115260867Y-94232107D01*
X115273480Y-94253151D01*
X115283970Y-94275329D01*
X115292235Y-94298429D01*
X115298196Y-94322227D01*
X115301796Y-94346496D01*
X115303000Y-94371000D01*
X115303000Y-95621000D01*
X115301796Y-95645504D01*
X115298196Y-95669773D01*
X115292235Y-95693571D01*
X115283970Y-95716671D01*
X115273480Y-95738849D01*
X115260867Y-95759893D01*
X115246253Y-95779598D01*
X115229777Y-95797777D01*
X115211598Y-95814253D01*
X115191893Y-95828867D01*
X115170849Y-95841480D01*
X115148671Y-95851970D01*
X115125571Y-95860235D01*
X115101773Y-95866196D01*
X115077504Y-95869796D01*
X115053000Y-95871000D01*
X114128000Y-95871000D01*
X114103496Y-95869796D01*
X114079227Y-95866196D01*
X114055429Y-95860235D01*
X114032329Y-95851970D01*
X114010151Y-95841480D01*
X113989107Y-95828867D01*
X113969402Y-95814253D01*
X113951223Y-95797777D01*
X113934747Y-95779598D01*
X113920133Y-95759893D01*
X113907520Y-95738849D01*
X113897030Y-95716671D01*
X113888765Y-95693571D01*
X113882804Y-95669773D01*
X113879204Y-95645504D01*
X113878000Y-95621000D01*
X113878000Y-94371000D01*
X113879204Y-94346496D01*
X113882804Y-94322227D01*
X113888765Y-94298429D01*
X113897030Y-94275329D01*
X113907520Y-94253151D01*
X113920133Y-94232107D01*
X113934747Y-94212402D01*
X113951223Y-94194223D01*
X113969402Y-94177747D01*
X113989107Y-94163133D01*
X114010151Y-94150520D01*
X114032329Y-94140030D01*
X114055429Y-94131765D01*
X114079227Y-94125804D01*
X114103496Y-94122204D01*
X114128000Y-94121000D01*
X115053000Y-94121000D01*
X115077504Y-94122204D01*
X115077504Y-94122204D01*
G37*
D16*
X114590500Y-94996000D03*
D10*
G36*
X149548504Y-84978204D02*
G01*
X149572773Y-84981804D01*
X149596571Y-84987765D01*
X149619671Y-84996030D01*
X149641849Y-85006520D01*
X149662893Y-85019133D01*
X149682598Y-85033747D01*
X149700777Y-85050223D01*
X149717253Y-85068402D01*
X149731867Y-85088107D01*
X149744480Y-85109151D01*
X149754970Y-85131329D01*
X149763235Y-85154429D01*
X149769196Y-85178227D01*
X149772796Y-85202496D01*
X149774000Y-85227000D01*
X149774000Y-86477000D01*
X149772796Y-86501504D01*
X149769196Y-86525773D01*
X149763235Y-86549571D01*
X149754970Y-86572671D01*
X149744480Y-86594849D01*
X149731867Y-86615893D01*
X149717253Y-86635598D01*
X149700777Y-86653777D01*
X149682598Y-86670253D01*
X149662893Y-86684867D01*
X149641849Y-86697480D01*
X149619671Y-86707970D01*
X149596571Y-86716235D01*
X149572773Y-86722196D01*
X149548504Y-86725796D01*
X149524000Y-86727000D01*
X148599000Y-86727000D01*
X148574496Y-86725796D01*
X148550227Y-86722196D01*
X148526429Y-86716235D01*
X148503329Y-86707970D01*
X148481151Y-86697480D01*
X148460107Y-86684867D01*
X148440402Y-86670253D01*
X148422223Y-86653777D01*
X148405747Y-86635598D01*
X148391133Y-86615893D01*
X148378520Y-86594849D01*
X148368030Y-86572671D01*
X148359765Y-86549571D01*
X148353804Y-86525773D01*
X148350204Y-86501504D01*
X148349000Y-86477000D01*
X148349000Y-85227000D01*
X148350204Y-85202496D01*
X148353804Y-85178227D01*
X148359765Y-85154429D01*
X148368030Y-85131329D01*
X148378520Y-85109151D01*
X148391133Y-85088107D01*
X148405747Y-85068402D01*
X148422223Y-85050223D01*
X148440402Y-85033747D01*
X148460107Y-85019133D01*
X148481151Y-85006520D01*
X148503329Y-84996030D01*
X148526429Y-84987765D01*
X148550227Y-84981804D01*
X148574496Y-84978204D01*
X148599000Y-84977000D01*
X149524000Y-84977000D01*
X149548504Y-84978204D01*
X149548504Y-84978204D01*
G37*
D16*
X149061500Y-85852000D03*
D10*
G36*
X146573504Y-84978204D02*
G01*
X146597773Y-84981804D01*
X146621571Y-84987765D01*
X146644671Y-84996030D01*
X146666849Y-85006520D01*
X146687893Y-85019133D01*
X146707598Y-85033747D01*
X146725777Y-85050223D01*
X146742253Y-85068402D01*
X146756867Y-85088107D01*
X146769480Y-85109151D01*
X146779970Y-85131329D01*
X146788235Y-85154429D01*
X146794196Y-85178227D01*
X146797796Y-85202496D01*
X146799000Y-85227000D01*
X146799000Y-86477000D01*
X146797796Y-86501504D01*
X146794196Y-86525773D01*
X146788235Y-86549571D01*
X146779970Y-86572671D01*
X146769480Y-86594849D01*
X146756867Y-86615893D01*
X146742253Y-86635598D01*
X146725777Y-86653777D01*
X146707598Y-86670253D01*
X146687893Y-86684867D01*
X146666849Y-86697480D01*
X146644671Y-86707970D01*
X146621571Y-86716235D01*
X146597773Y-86722196D01*
X146573504Y-86725796D01*
X146549000Y-86727000D01*
X145624000Y-86727000D01*
X145599496Y-86725796D01*
X145575227Y-86722196D01*
X145551429Y-86716235D01*
X145528329Y-86707970D01*
X145506151Y-86697480D01*
X145485107Y-86684867D01*
X145465402Y-86670253D01*
X145447223Y-86653777D01*
X145430747Y-86635598D01*
X145416133Y-86615893D01*
X145403520Y-86594849D01*
X145393030Y-86572671D01*
X145384765Y-86549571D01*
X145378804Y-86525773D01*
X145375204Y-86501504D01*
X145374000Y-86477000D01*
X145374000Y-85227000D01*
X145375204Y-85202496D01*
X145378804Y-85178227D01*
X145384765Y-85154429D01*
X145393030Y-85131329D01*
X145403520Y-85109151D01*
X145416133Y-85088107D01*
X145430747Y-85068402D01*
X145447223Y-85050223D01*
X145465402Y-85033747D01*
X145485107Y-85019133D01*
X145506151Y-85006520D01*
X145528329Y-84996030D01*
X145551429Y-84987765D01*
X145575227Y-84981804D01*
X145599496Y-84978204D01*
X145624000Y-84977000D01*
X146549000Y-84977000D01*
X146573504Y-84978204D01*
X146573504Y-84978204D01*
G37*
D16*
X146086500Y-85852000D03*
D19*
X106040000Y-83088000D03*
X106040000Y-80488000D03*
D10*
G36*
X127395504Y-106948204D02*
G01*
X127419773Y-106951804D01*
X127443571Y-106957765D01*
X127466671Y-106966030D01*
X127488849Y-106976520D01*
X127509893Y-106989133D01*
X127529598Y-107003747D01*
X127547777Y-107020223D01*
X127564253Y-107038402D01*
X127578867Y-107058107D01*
X127591480Y-107079151D01*
X127601970Y-107101329D01*
X127610235Y-107124429D01*
X127616196Y-107148227D01*
X127619796Y-107172496D01*
X127621000Y-107197000D01*
X127621000Y-108122000D01*
X127619796Y-108146504D01*
X127616196Y-108170773D01*
X127610235Y-108194571D01*
X127601970Y-108217671D01*
X127591480Y-108239849D01*
X127578867Y-108260893D01*
X127564253Y-108280598D01*
X127547777Y-108298777D01*
X127529598Y-108315253D01*
X127509893Y-108329867D01*
X127488849Y-108342480D01*
X127466671Y-108352970D01*
X127443571Y-108361235D01*
X127419773Y-108367196D01*
X127395504Y-108370796D01*
X127371000Y-108372000D01*
X126121000Y-108372000D01*
X126096496Y-108370796D01*
X126072227Y-108367196D01*
X126048429Y-108361235D01*
X126025329Y-108352970D01*
X126003151Y-108342480D01*
X125982107Y-108329867D01*
X125962402Y-108315253D01*
X125944223Y-108298777D01*
X125927747Y-108280598D01*
X125913133Y-108260893D01*
X125900520Y-108239849D01*
X125890030Y-108217671D01*
X125881765Y-108194571D01*
X125875804Y-108170773D01*
X125872204Y-108146504D01*
X125871000Y-108122000D01*
X125871000Y-107197000D01*
X125872204Y-107172496D01*
X125875804Y-107148227D01*
X125881765Y-107124429D01*
X125890030Y-107101329D01*
X125900520Y-107079151D01*
X125913133Y-107058107D01*
X125927747Y-107038402D01*
X125944223Y-107020223D01*
X125962402Y-107003747D01*
X125982107Y-106989133D01*
X126003151Y-106976520D01*
X126025329Y-106966030D01*
X126048429Y-106957765D01*
X126072227Y-106951804D01*
X126096496Y-106948204D01*
X126121000Y-106947000D01*
X127371000Y-106947000D01*
X127395504Y-106948204D01*
X127395504Y-106948204D01*
G37*
D16*
X126746000Y-107659500D03*
D10*
G36*
X127395504Y-103973204D02*
G01*
X127419773Y-103976804D01*
X127443571Y-103982765D01*
X127466671Y-103991030D01*
X127488849Y-104001520D01*
X127509893Y-104014133D01*
X127529598Y-104028747D01*
X127547777Y-104045223D01*
X127564253Y-104063402D01*
X127578867Y-104083107D01*
X127591480Y-104104151D01*
X127601970Y-104126329D01*
X127610235Y-104149429D01*
X127616196Y-104173227D01*
X127619796Y-104197496D01*
X127621000Y-104222000D01*
X127621000Y-105147000D01*
X127619796Y-105171504D01*
X127616196Y-105195773D01*
X127610235Y-105219571D01*
X127601970Y-105242671D01*
X127591480Y-105264849D01*
X127578867Y-105285893D01*
X127564253Y-105305598D01*
X127547777Y-105323777D01*
X127529598Y-105340253D01*
X127509893Y-105354867D01*
X127488849Y-105367480D01*
X127466671Y-105377970D01*
X127443571Y-105386235D01*
X127419773Y-105392196D01*
X127395504Y-105395796D01*
X127371000Y-105397000D01*
X126121000Y-105397000D01*
X126096496Y-105395796D01*
X126072227Y-105392196D01*
X126048429Y-105386235D01*
X126025329Y-105377970D01*
X126003151Y-105367480D01*
X125982107Y-105354867D01*
X125962402Y-105340253D01*
X125944223Y-105323777D01*
X125927747Y-105305598D01*
X125913133Y-105285893D01*
X125900520Y-105264849D01*
X125890030Y-105242671D01*
X125881765Y-105219571D01*
X125875804Y-105195773D01*
X125872204Y-105171504D01*
X125871000Y-105147000D01*
X125871000Y-104222000D01*
X125872204Y-104197496D01*
X125875804Y-104173227D01*
X125881765Y-104149429D01*
X125890030Y-104126329D01*
X125900520Y-104104151D01*
X125913133Y-104083107D01*
X125927747Y-104063402D01*
X125944223Y-104045223D01*
X125962402Y-104028747D01*
X125982107Y-104014133D01*
X126003151Y-104001520D01*
X126025329Y-103991030D01*
X126048429Y-103982765D01*
X126072227Y-103976804D01*
X126096496Y-103973204D01*
X126121000Y-103972000D01*
X127371000Y-103972000D01*
X127395504Y-103973204D01*
X127395504Y-103973204D01*
G37*
D16*
X126746000Y-104684500D03*
D10*
G36*
X143779504Y-75326204D02*
G01*
X143803773Y-75329804D01*
X143827571Y-75335765D01*
X143850671Y-75344030D01*
X143872849Y-75354520D01*
X143893893Y-75367133D01*
X143913598Y-75381747D01*
X143931777Y-75398223D01*
X143948253Y-75416402D01*
X143962867Y-75436107D01*
X143975480Y-75457151D01*
X143985970Y-75479329D01*
X143994235Y-75502429D01*
X144000196Y-75526227D01*
X144003796Y-75550496D01*
X144005000Y-75575000D01*
X144005000Y-76825000D01*
X144003796Y-76849504D01*
X144000196Y-76873773D01*
X143994235Y-76897571D01*
X143985970Y-76920671D01*
X143975480Y-76942849D01*
X143962867Y-76963893D01*
X143948253Y-76983598D01*
X143931777Y-77001777D01*
X143913598Y-77018253D01*
X143893893Y-77032867D01*
X143872849Y-77045480D01*
X143850671Y-77055970D01*
X143827571Y-77064235D01*
X143803773Y-77070196D01*
X143779504Y-77073796D01*
X143755000Y-77075000D01*
X142830000Y-77075000D01*
X142805496Y-77073796D01*
X142781227Y-77070196D01*
X142757429Y-77064235D01*
X142734329Y-77055970D01*
X142712151Y-77045480D01*
X142691107Y-77032867D01*
X142671402Y-77018253D01*
X142653223Y-77001777D01*
X142636747Y-76983598D01*
X142622133Y-76963893D01*
X142609520Y-76942849D01*
X142599030Y-76920671D01*
X142590765Y-76897571D01*
X142584804Y-76873773D01*
X142581204Y-76849504D01*
X142580000Y-76825000D01*
X142580000Y-75575000D01*
X142581204Y-75550496D01*
X142584804Y-75526227D01*
X142590765Y-75502429D01*
X142599030Y-75479329D01*
X142609520Y-75457151D01*
X142622133Y-75436107D01*
X142636747Y-75416402D01*
X142653223Y-75398223D01*
X142671402Y-75381747D01*
X142691107Y-75367133D01*
X142712151Y-75354520D01*
X142734329Y-75344030D01*
X142757429Y-75335765D01*
X142781227Y-75329804D01*
X142805496Y-75326204D01*
X142830000Y-75325000D01*
X143755000Y-75325000D01*
X143779504Y-75326204D01*
X143779504Y-75326204D01*
G37*
D16*
X143292500Y-76200000D03*
D10*
G36*
X146754504Y-75326204D02*
G01*
X146778773Y-75329804D01*
X146802571Y-75335765D01*
X146825671Y-75344030D01*
X146847849Y-75354520D01*
X146868893Y-75367133D01*
X146888598Y-75381747D01*
X146906777Y-75398223D01*
X146923253Y-75416402D01*
X146937867Y-75436107D01*
X146950480Y-75457151D01*
X146960970Y-75479329D01*
X146969235Y-75502429D01*
X146975196Y-75526227D01*
X146978796Y-75550496D01*
X146980000Y-75575000D01*
X146980000Y-76825000D01*
X146978796Y-76849504D01*
X146975196Y-76873773D01*
X146969235Y-76897571D01*
X146960970Y-76920671D01*
X146950480Y-76942849D01*
X146937867Y-76963893D01*
X146923253Y-76983598D01*
X146906777Y-77001777D01*
X146888598Y-77018253D01*
X146868893Y-77032867D01*
X146847849Y-77045480D01*
X146825671Y-77055970D01*
X146802571Y-77064235D01*
X146778773Y-77070196D01*
X146754504Y-77073796D01*
X146730000Y-77075000D01*
X145805000Y-77075000D01*
X145780496Y-77073796D01*
X145756227Y-77070196D01*
X145732429Y-77064235D01*
X145709329Y-77055970D01*
X145687151Y-77045480D01*
X145666107Y-77032867D01*
X145646402Y-77018253D01*
X145628223Y-77001777D01*
X145611747Y-76983598D01*
X145597133Y-76963893D01*
X145584520Y-76942849D01*
X145574030Y-76920671D01*
X145565765Y-76897571D01*
X145559804Y-76873773D01*
X145556204Y-76849504D01*
X145555000Y-76825000D01*
X145555000Y-75575000D01*
X145556204Y-75550496D01*
X145559804Y-75526227D01*
X145565765Y-75502429D01*
X145574030Y-75479329D01*
X145584520Y-75457151D01*
X145597133Y-75436107D01*
X145611747Y-75416402D01*
X145628223Y-75398223D01*
X145646402Y-75381747D01*
X145666107Y-75367133D01*
X145687151Y-75354520D01*
X145709329Y-75344030D01*
X145732429Y-75335765D01*
X145756227Y-75329804D01*
X145780496Y-75326204D01*
X145805000Y-75325000D01*
X146730000Y-75325000D01*
X146754504Y-75326204D01*
X146754504Y-75326204D01*
G37*
D16*
X146267500Y-76200000D03*
D10*
G36*
X157749504Y-66944204D02*
G01*
X157773773Y-66947804D01*
X157797571Y-66953765D01*
X157820671Y-66962030D01*
X157842849Y-66972520D01*
X157863893Y-66985133D01*
X157883598Y-66999747D01*
X157901777Y-67016223D01*
X157918253Y-67034402D01*
X157932867Y-67054107D01*
X157945480Y-67075151D01*
X157955970Y-67097329D01*
X157964235Y-67120429D01*
X157970196Y-67144227D01*
X157973796Y-67168496D01*
X157975000Y-67193000D01*
X157975000Y-68443000D01*
X157973796Y-68467504D01*
X157970196Y-68491773D01*
X157964235Y-68515571D01*
X157955970Y-68538671D01*
X157945480Y-68560849D01*
X157932867Y-68581893D01*
X157918253Y-68601598D01*
X157901777Y-68619777D01*
X157883598Y-68636253D01*
X157863893Y-68650867D01*
X157842849Y-68663480D01*
X157820671Y-68673970D01*
X157797571Y-68682235D01*
X157773773Y-68688196D01*
X157749504Y-68691796D01*
X157725000Y-68693000D01*
X156800000Y-68693000D01*
X156775496Y-68691796D01*
X156751227Y-68688196D01*
X156727429Y-68682235D01*
X156704329Y-68673970D01*
X156682151Y-68663480D01*
X156661107Y-68650867D01*
X156641402Y-68636253D01*
X156623223Y-68619777D01*
X156606747Y-68601598D01*
X156592133Y-68581893D01*
X156579520Y-68560849D01*
X156569030Y-68538671D01*
X156560765Y-68515571D01*
X156554804Y-68491773D01*
X156551204Y-68467504D01*
X156550000Y-68443000D01*
X156550000Y-67193000D01*
X156551204Y-67168496D01*
X156554804Y-67144227D01*
X156560765Y-67120429D01*
X156569030Y-67097329D01*
X156579520Y-67075151D01*
X156592133Y-67054107D01*
X156606747Y-67034402D01*
X156623223Y-67016223D01*
X156641402Y-66999747D01*
X156661107Y-66985133D01*
X156682151Y-66972520D01*
X156704329Y-66962030D01*
X156727429Y-66953765D01*
X156751227Y-66947804D01*
X156775496Y-66944204D01*
X156800000Y-66943000D01*
X157725000Y-66943000D01*
X157749504Y-66944204D01*
X157749504Y-66944204D01*
G37*
D16*
X157262500Y-67818000D03*
D10*
G36*
X160724504Y-66944204D02*
G01*
X160748773Y-66947804D01*
X160772571Y-66953765D01*
X160795671Y-66962030D01*
X160817849Y-66972520D01*
X160838893Y-66985133D01*
X160858598Y-66999747D01*
X160876777Y-67016223D01*
X160893253Y-67034402D01*
X160907867Y-67054107D01*
X160920480Y-67075151D01*
X160930970Y-67097329D01*
X160939235Y-67120429D01*
X160945196Y-67144227D01*
X160948796Y-67168496D01*
X160950000Y-67193000D01*
X160950000Y-68443000D01*
X160948796Y-68467504D01*
X160945196Y-68491773D01*
X160939235Y-68515571D01*
X160930970Y-68538671D01*
X160920480Y-68560849D01*
X160907867Y-68581893D01*
X160893253Y-68601598D01*
X160876777Y-68619777D01*
X160858598Y-68636253D01*
X160838893Y-68650867D01*
X160817849Y-68663480D01*
X160795671Y-68673970D01*
X160772571Y-68682235D01*
X160748773Y-68688196D01*
X160724504Y-68691796D01*
X160700000Y-68693000D01*
X159775000Y-68693000D01*
X159750496Y-68691796D01*
X159726227Y-68688196D01*
X159702429Y-68682235D01*
X159679329Y-68673970D01*
X159657151Y-68663480D01*
X159636107Y-68650867D01*
X159616402Y-68636253D01*
X159598223Y-68619777D01*
X159581747Y-68601598D01*
X159567133Y-68581893D01*
X159554520Y-68560849D01*
X159544030Y-68538671D01*
X159535765Y-68515571D01*
X159529804Y-68491773D01*
X159526204Y-68467504D01*
X159525000Y-68443000D01*
X159525000Y-67193000D01*
X159526204Y-67168496D01*
X159529804Y-67144227D01*
X159535765Y-67120429D01*
X159544030Y-67097329D01*
X159554520Y-67075151D01*
X159567133Y-67054107D01*
X159581747Y-67034402D01*
X159598223Y-67016223D01*
X159616402Y-66999747D01*
X159636107Y-66985133D01*
X159657151Y-66972520D01*
X159679329Y-66962030D01*
X159702429Y-66953765D01*
X159726227Y-66947804D01*
X159750496Y-66944204D01*
X159775000Y-66943000D01*
X160700000Y-66943000D01*
X160724504Y-66944204D01*
X160724504Y-66944204D01*
G37*
D16*
X160237500Y-67818000D03*
D10*
G36*
X160923504Y-74255204D02*
G01*
X160947773Y-74258804D01*
X160971571Y-74264765D01*
X160994671Y-74273030D01*
X161016849Y-74283520D01*
X161037893Y-74296133D01*
X161057598Y-74310747D01*
X161075777Y-74327223D01*
X161092253Y-74345402D01*
X161106867Y-74365107D01*
X161119480Y-74386151D01*
X161129970Y-74408329D01*
X161138235Y-74431429D01*
X161144196Y-74455227D01*
X161147796Y-74479496D01*
X161149000Y-74504000D01*
X161149000Y-75429000D01*
X161147796Y-75453504D01*
X161144196Y-75477773D01*
X161138235Y-75501571D01*
X161129970Y-75524671D01*
X161119480Y-75546849D01*
X161106867Y-75567893D01*
X161092253Y-75587598D01*
X161075777Y-75605777D01*
X161057598Y-75622253D01*
X161037893Y-75636867D01*
X161016849Y-75649480D01*
X160994671Y-75659970D01*
X160971571Y-75668235D01*
X160947773Y-75674196D01*
X160923504Y-75677796D01*
X160899000Y-75679000D01*
X159649000Y-75679000D01*
X159624496Y-75677796D01*
X159600227Y-75674196D01*
X159576429Y-75668235D01*
X159553329Y-75659970D01*
X159531151Y-75649480D01*
X159510107Y-75636867D01*
X159490402Y-75622253D01*
X159472223Y-75605777D01*
X159455747Y-75587598D01*
X159441133Y-75567893D01*
X159428520Y-75546849D01*
X159418030Y-75524671D01*
X159409765Y-75501571D01*
X159403804Y-75477773D01*
X159400204Y-75453504D01*
X159399000Y-75429000D01*
X159399000Y-74504000D01*
X159400204Y-74479496D01*
X159403804Y-74455227D01*
X159409765Y-74431429D01*
X159418030Y-74408329D01*
X159428520Y-74386151D01*
X159441133Y-74365107D01*
X159455747Y-74345402D01*
X159472223Y-74327223D01*
X159490402Y-74310747D01*
X159510107Y-74296133D01*
X159531151Y-74283520D01*
X159553329Y-74273030D01*
X159576429Y-74264765D01*
X159600227Y-74258804D01*
X159624496Y-74255204D01*
X159649000Y-74254000D01*
X160899000Y-74254000D01*
X160923504Y-74255204D01*
X160923504Y-74255204D01*
G37*
D16*
X160274000Y-74966500D03*
D10*
G36*
X160923504Y-77230204D02*
G01*
X160947773Y-77233804D01*
X160971571Y-77239765D01*
X160994671Y-77248030D01*
X161016849Y-77258520D01*
X161037893Y-77271133D01*
X161057598Y-77285747D01*
X161075777Y-77302223D01*
X161092253Y-77320402D01*
X161106867Y-77340107D01*
X161119480Y-77361151D01*
X161129970Y-77383329D01*
X161138235Y-77406429D01*
X161144196Y-77430227D01*
X161147796Y-77454496D01*
X161149000Y-77479000D01*
X161149000Y-78404000D01*
X161147796Y-78428504D01*
X161144196Y-78452773D01*
X161138235Y-78476571D01*
X161129970Y-78499671D01*
X161119480Y-78521849D01*
X161106867Y-78542893D01*
X161092253Y-78562598D01*
X161075777Y-78580777D01*
X161057598Y-78597253D01*
X161037893Y-78611867D01*
X161016849Y-78624480D01*
X160994671Y-78634970D01*
X160971571Y-78643235D01*
X160947773Y-78649196D01*
X160923504Y-78652796D01*
X160899000Y-78654000D01*
X159649000Y-78654000D01*
X159624496Y-78652796D01*
X159600227Y-78649196D01*
X159576429Y-78643235D01*
X159553329Y-78634970D01*
X159531151Y-78624480D01*
X159510107Y-78611867D01*
X159490402Y-78597253D01*
X159472223Y-78580777D01*
X159455747Y-78562598D01*
X159441133Y-78542893D01*
X159428520Y-78521849D01*
X159418030Y-78499671D01*
X159409765Y-78476571D01*
X159403804Y-78452773D01*
X159400204Y-78428504D01*
X159399000Y-78404000D01*
X159399000Y-77479000D01*
X159400204Y-77454496D01*
X159403804Y-77430227D01*
X159409765Y-77406429D01*
X159418030Y-77383329D01*
X159428520Y-77361151D01*
X159441133Y-77340107D01*
X159455747Y-77320402D01*
X159472223Y-77302223D01*
X159490402Y-77285747D01*
X159510107Y-77271133D01*
X159531151Y-77258520D01*
X159553329Y-77248030D01*
X159576429Y-77239765D01*
X159600227Y-77233804D01*
X159624496Y-77230204D01*
X159649000Y-77229000D01*
X160899000Y-77229000D01*
X160923504Y-77230204D01*
X160923504Y-77230204D01*
G37*
D16*
X160274000Y-77941500D03*
D10*
G36*
X124656504Y-94122204D02*
G01*
X124680773Y-94125804D01*
X124704571Y-94131765D01*
X124727671Y-94140030D01*
X124749849Y-94150520D01*
X124770893Y-94163133D01*
X124790598Y-94177747D01*
X124808777Y-94194223D01*
X124825253Y-94212402D01*
X124839867Y-94232107D01*
X124852480Y-94253151D01*
X124862970Y-94275329D01*
X124871235Y-94298429D01*
X124877196Y-94322227D01*
X124880796Y-94346496D01*
X124882000Y-94371000D01*
X124882000Y-95621000D01*
X124880796Y-95645504D01*
X124877196Y-95669773D01*
X124871235Y-95693571D01*
X124862970Y-95716671D01*
X124852480Y-95738849D01*
X124839867Y-95759893D01*
X124825253Y-95779598D01*
X124808777Y-95797777D01*
X124790598Y-95814253D01*
X124770893Y-95828867D01*
X124749849Y-95841480D01*
X124727671Y-95851970D01*
X124704571Y-95860235D01*
X124680773Y-95866196D01*
X124656504Y-95869796D01*
X124632000Y-95871000D01*
X123707000Y-95871000D01*
X123682496Y-95869796D01*
X123658227Y-95866196D01*
X123634429Y-95860235D01*
X123611329Y-95851970D01*
X123589151Y-95841480D01*
X123568107Y-95828867D01*
X123548402Y-95814253D01*
X123530223Y-95797777D01*
X123513747Y-95779598D01*
X123499133Y-95759893D01*
X123486520Y-95738849D01*
X123476030Y-95716671D01*
X123467765Y-95693571D01*
X123461804Y-95669773D01*
X123458204Y-95645504D01*
X123457000Y-95621000D01*
X123457000Y-94371000D01*
X123458204Y-94346496D01*
X123461804Y-94322227D01*
X123467765Y-94298429D01*
X123476030Y-94275329D01*
X123486520Y-94253151D01*
X123499133Y-94232107D01*
X123513747Y-94212402D01*
X123530223Y-94194223D01*
X123548402Y-94177747D01*
X123568107Y-94163133D01*
X123589151Y-94150520D01*
X123611329Y-94140030D01*
X123634429Y-94131765D01*
X123658227Y-94125804D01*
X123682496Y-94122204D01*
X123707000Y-94121000D01*
X124632000Y-94121000D01*
X124656504Y-94122204D01*
X124656504Y-94122204D01*
G37*
D16*
X124169500Y-94996000D03*
D10*
G36*
X121681504Y-94122204D02*
G01*
X121705773Y-94125804D01*
X121729571Y-94131765D01*
X121752671Y-94140030D01*
X121774849Y-94150520D01*
X121795893Y-94163133D01*
X121815598Y-94177747D01*
X121833777Y-94194223D01*
X121850253Y-94212402D01*
X121864867Y-94232107D01*
X121877480Y-94253151D01*
X121887970Y-94275329D01*
X121896235Y-94298429D01*
X121902196Y-94322227D01*
X121905796Y-94346496D01*
X121907000Y-94371000D01*
X121907000Y-95621000D01*
X121905796Y-95645504D01*
X121902196Y-95669773D01*
X121896235Y-95693571D01*
X121887970Y-95716671D01*
X121877480Y-95738849D01*
X121864867Y-95759893D01*
X121850253Y-95779598D01*
X121833777Y-95797777D01*
X121815598Y-95814253D01*
X121795893Y-95828867D01*
X121774849Y-95841480D01*
X121752671Y-95851970D01*
X121729571Y-95860235D01*
X121705773Y-95866196D01*
X121681504Y-95869796D01*
X121657000Y-95871000D01*
X120732000Y-95871000D01*
X120707496Y-95869796D01*
X120683227Y-95866196D01*
X120659429Y-95860235D01*
X120636329Y-95851970D01*
X120614151Y-95841480D01*
X120593107Y-95828867D01*
X120573402Y-95814253D01*
X120555223Y-95797777D01*
X120538747Y-95779598D01*
X120524133Y-95759893D01*
X120511520Y-95738849D01*
X120501030Y-95716671D01*
X120492765Y-95693571D01*
X120486804Y-95669773D01*
X120483204Y-95645504D01*
X120482000Y-95621000D01*
X120482000Y-94371000D01*
X120483204Y-94346496D01*
X120486804Y-94322227D01*
X120492765Y-94298429D01*
X120501030Y-94275329D01*
X120511520Y-94253151D01*
X120524133Y-94232107D01*
X120538747Y-94212402D01*
X120555223Y-94194223D01*
X120573402Y-94177747D01*
X120593107Y-94163133D01*
X120614151Y-94150520D01*
X120636329Y-94140030D01*
X120659429Y-94131765D01*
X120683227Y-94125804D01*
X120707496Y-94122204D01*
X120732000Y-94121000D01*
X121657000Y-94121000D01*
X121681504Y-94122204D01*
X121681504Y-94122204D01*
G37*
D16*
X121194500Y-94996000D03*
D10*
G36*
X113367504Y-66127204D02*
G01*
X113391773Y-66130804D01*
X113415571Y-66136765D01*
X113438671Y-66145030D01*
X113460849Y-66155520D01*
X113481893Y-66168133D01*
X113501598Y-66182747D01*
X113519777Y-66199223D01*
X113536253Y-66217402D01*
X113550867Y-66237107D01*
X113563480Y-66258151D01*
X113573970Y-66280329D01*
X113582235Y-66303429D01*
X113588196Y-66327227D01*
X113591796Y-66351496D01*
X113593000Y-66376000D01*
X113593000Y-67301000D01*
X113591796Y-67325504D01*
X113588196Y-67349773D01*
X113582235Y-67373571D01*
X113573970Y-67396671D01*
X113563480Y-67418849D01*
X113550867Y-67439893D01*
X113536253Y-67459598D01*
X113519777Y-67477777D01*
X113501598Y-67494253D01*
X113481893Y-67508867D01*
X113460849Y-67521480D01*
X113438671Y-67531970D01*
X113415571Y-67540235D01*
X113391773Y-67546196D01*
X113367504Y-67549796D01*
X113343000Y-67551000D01*
X111193000Y-67551000D01*
X111168496Y-67549796D01*
X111144227Y-67546196D01*
X111120429Y-67540235D01*
X111097329Y-67531970D01*
X111075151Y-67521480D01*
X111054107Y-67508867D01*
X111034402Y-67494253D01*
X111016223Y-67477777D01*
X110999747Y-67459598D01*
X110985133Y-67439893D01*
X110972520Y-67418849D01*
X110962030Y-67396671D01*
X110953765Y-67373571D01*
X110947804Y-67349773D01*
X110944204Y-67325504D01*
X110943000Y-67301000D01*
X110943000Y-66376000D01*
X110944204Y-66351496D01*
X110947804Y-66327227D01*
X110953765Y-66303429D01*
X110962030Y-66280329D01*
X110972520Y-66258151D01*
X110985133Y-66237107D01*
X110999747Y-66217402D01*
X111016223Y-66199223D01*
X111034402Y-66182747D01*
X111054107Y-66168133D01*
X111075151Y-66155520D01*
X111097329Y-66145030D01*
X111120429Y-66136765D01*
X111144227Y-66130804D01*
X111168496Y-66127204D01*
X111193000Y-66126000D01*
X113343000Y-66126000D01*
X113367504Y-66127204D01*
X113367504Y-66127204D01*
G37*
D16*
X112268000Y-66838500D03*
D10*
G36*
X113367504Y-69102204D02*
G01*
X113391773Y-69105804D01*
X113415571Y-69111765D01*
X113438671Y-69120030D01*
X113460849Y-69130520D01*
X113481893Y-69143133D01*
X113501598Y-69157747D01*
X113519777Y-69174223D01*
X113536253Y-69192402D01*
X113550867Y-69212107D01*
X113563480Y-69233151D01*
X113573970Y-69255329D01*
X113582235Y-69278429D01*
X113588196Y-69302227D01*
X113591796Y-69326496D01*
X113593000Y-69351000D01*
X113593000Y-70276000D01*
X113591796Y-70300504D01*
X113588196Y-70324773D01*
X113582235Y-70348571D01*
X113573970Y-70371671D01*
X113563480Y-70393849D01*
X113550867Y-70414893D01*
X113536253Y-70434598D01*
X113519777Y-70452777D01*
X113501598Y-70469253D01*
X113481893Y-70483867D01*
X113460849Y-70496480D01*
X113438671Y-70506970D01*
X113415571Y-70515235D01*
X113391773Y-70521196D01*
X113367504Y-70524796D01*
X113343000Y-70526000D01*
X111193000Y-70526000D01*
X111168496Y-70524796D01*
X111144227Y-70521196D01*
X111120429Y-70515235D01*
X111097329Y-70506970D01*
X111075151Y-70496480D01*
X111054107Y-70483867D01*
X111034402Y-70469253D01*
X111016223Y-70452777D01*
X110999747Y-70434598D01*
X110985133Y-70414893D01*
X110972520Y-70393849D01*
X110962030Y-70371671D01*
X110953765Y-70348571D01*
X110947804Y-70324773D01*
X110944204Y-70300504D01*
X110943000Y-70276000D01*
X110943000Y-69351000D01*
X110944204Y-69326496D01*
X110947804Y-69302227D01*
X110953765Y-69278429D01*
X110962030Y-69255329D01*
X110972520Y-69233151D01*
X110985133Y-69212107D01*
X110999747Y-69192402D01*
X111016223Y-69174223D01*
X111034402Y-69157747D01*
X111054107Y-69143133D01*
X111075151Y-69130520D01*
X111097329Y-69120030D01*
X111120429Y-69111765D01*
X111144227Y-69105804D01*
X111168496Y-69102204D01*
X111193000Y-69101000D01*
X113343000Y-69101000D01*
X113367504Y-69102204D01*
X113367504Y-69102204D01*
G37*
D16*
X112268000Y-69813500D03*
D10*
G36*
X117939504Y-66127204D02*
G01*
X117963773Y-66130804D01*
X117987571Y-66136765D01*
X118010671Y-66145030D01*
X118032849Y-66155520D01*
X118053893Y-66168133D01*
X118073598Y-66182747D01*
X118091777Y-66199223D01*
X118108253Y-66217402D01*
X118122867Y-66237107D01*
X118135480Y-66258151D01*
X118145970Y-66280329D01*
X118154235Y-66303429D01*
X118160196Y-66327227D01*
X118163796Y-66351496D01*
X118165000Y-66376000D01*
X118165000Y-67301000D01*
X118163796Y-67325504D01*
X118160196Y-67349773D01*
X118154235Y-67373571D01*
X118145970Y-67396671D01*
X118135480Y-67418849D01*
X118122867Y-67439893D01*
X118108253Y-67459598D01*
X118091777Y-67477777D01*
X118073598Y-67494253D01*
X118053893Y-67508867D01*
X118032849Y-67521480D01*
X118010671Y-67531970D01*
X117987571Y-67540235D01*
X117963773Y-67546196D01*
X117939504Y-67549796D01*
X117915000Y-67551000D01*
X115765000Y-67551000D01*
X115740496Y-67549796D01*
X115716227Y-67546196D01*
X115692429Y-67540235D01*
X115669329Y-67531970D01*
X115647151Y-67521480D01*
X115626107Y-67508867D01*
X115606402Y-67494253D01*
X115588223Y-67477777D01*
X115571747Y-67459598D01*
X115557133Y-67439893D01*
X115544520Y-67418849D01*
X115534030Y-67396671D01*
X115525765Y-67373571D01*
X115519804Y-67349773D01*
X115516204Y-67325504D01*
X115515000Y-67301000D01*
X115515000Y-66376000D01*
X115516204Y-66351496D01*
X115519804Y-66327227D01*
X115525765Y-66303429D01*
X115534030Y-66280329D01*
X115544520Y-66258151D01*
X115557133Y-66237107D01*
X115571747Y-66217402D01*
X115588223Y-66199223D01*
X115606402Y-66182747D01*
X115626107Y-66168133D01*
X115647151Y-66155520D01*
X115669329Y-66145030D01*
X115692429Y-66136765D01*
X115716227Y-66130804D01*
X115740496Y-66127204D01*
X115765000Y-66126000D01*
X117915000Y-66126000D01*
X117939504Y-66127204D01*
X117939504Y-66127204D01*
G37*
D16*
X116840000Y-66838500D03*
D10*
G36*
X117939504Y-69102204D02*
G01*
X117963773Y-69105804D01*
X117987571Y-69111765D01*
X118010671Y-69120030D01*
X118032849Y-69130520D01*
X118053893Y-69143133D01*
X118073598Y-69157747D01*
X118091777Y-69174223D01*
X118108253Y-69192402D01*
X118122867Y-69212107D01*
X118135480Y-69233151D01*
X118145970Y-69255329D01*
X118154235Y-69278429D01*
X118160196Y-69302227D01*
X118163796Y-69326496D01*
X118165000Y-69351000D01*
X118165000Y-70276000D01*
X118163796Y-70300504D01*
X118160196Y-70324773D01*
X118154235Y-70348571D01*
X118145970Y-70371671D01*
X118135480Y-70393849D01*
X118122867Y-70414893D01*
X118108253Y-70434598D01*
X118091777Y-70452777D01*
X118073598Y-70469253D01*
X118053893Y-70483867D01*
X118032849Y-70496480D01*
X118010671Y-70506970D01*
X117987571Y-70515235D01*
X117963773Y-70521196D01*
X117939504Y-70524796D01*
X117915000Y-70526000D01*
X115765000Y-70526000D01*
X115740496Y-70524796D01*
X115716227Y-70521196D01*
X115692429Y-70515235D01*
X115669329Y-70506970D01*
X115647151Y-70496480D01*
X115626107Y-70483867D01*
X115606402Y-70469253D01*
X115588223Y-70452777D01*
X115571747Y-70434598D01*
X115557133Y-70414893D01*
X115544520Y-70393849D01*
X115534030Y-70371671D01*
X115525765Y-70348571D01*
X115519804Y-70324773D01*
X115516204Y-70300504D01*
X115515000Y-70276000D01*
X115515000Y-69351000D01*
X115516204Y-69326496D01*
X115519804Y-69302227D01*
X115525765Y-69278429D01*
X115534030Y-69255329D01*
X115544520Y-69233151D01*
X115557133Y-69212107D01*
X115571747Y-69192402D01*
X115588223Y-69174223D01*
X115606402Y-69157747D01*
X115626107Y-69143133D01*
X115647151Y-69130520D01*
X115669329Y-69120030D01*
X115692429Y-69111765D01*
X115716227Y-69105804D01*
X115740496Y-69102204D01*
X115765000Y-69101000D01*
X117915000Y-69101000D01*
X117939504Y-69102204D01*
X117939504Y-69102204D01*
G37*
D16*
X116840000Y-69813500D03*
D10*
G36*
X121553504Y-82310204D02*
G01*
X121577773Y-82313804D01*
X121601571Y-82319765D01*
X121624671Y-82328030D01*
X121646849Y-82338520D01*
X121667893Y-82351133D01*
X121687598Y-82365747D01*
X121705777Y-82382223D01*
X121722253Y-82400402D01*
X121736867Y-82420107D01*
X121749480Y-82441151D01*
X121759970Y-82463329D01*
X121768235Y-82486429D01*
X121774196Y-82510227D01*
X121777796Y-82534496D01*
X121779000Y-82559000D01*
X121779000Y-83484000D01*
X121777796Y-83508504D01*
X121774196Y-83532773D01*
X121768235Y-83556571D01*
X121759970Y-83579671D01*
X121749480Y-83601849D01*
X121736867Y-83622893D01*
X121722253Y-83642598D01*
X121705777Y-83660777D01*
X121687598Y-83677253D01*
X121667893Y-83691867D01*
X121646849Y-83704480D01*
X121624671Y-83714970D01*
X121601571Y-83723235D01*
X121577773Y-83729196D01*
X121553504Y-83732796D01*
X121529000Y-83734000D01*
X120279000Y-83734000D01*
X120254496Y-83732796D01*
X120230227Y-83729196D01*
X120206429Y-83723235D01*
X120183329Y-83714970D01*
X120161151Y-83704480D01*
X120140107Y-83691867D01*
X120120402Y-83677253D01*
X120102223Y-83660777D01*
X120085747Y-83642598D01*
X120071133Y-83622893D01*
X120058520Y-83601849D01*
X120048030Y-83579671D01*
X120039765Y-83556571D01*
X120033804Y-83532773D01*
X120030204Y-83508504D01*
X120029000Y-83484000D01*
X120029000Y-82559000D01*
X120030204Y-82534496D01*
X120033804Y-82510227D01*
X120039765Y-82486429D01*
X120048030Y-82463329D01*
X120058520Y-82441151D01*
X120071133Y-82420107D01*
X120085747Y-82400402D01*
X120102223Y-82382223D01*
X120120402Y-82365747D01*
X120140107Y-82351133D01*
X120161151Y-82338520D01*
X120183329Y-82328030D01*
X120206429Y-82319765D01*
X120230227Y-82313804D01*
X120254496Y-82310204D01*
X120279000Y-82309000D01*
X121529000Y-82309000D01*
X121553504Y-82310204D01*
X121553504Y-82310204D01*
G37*
D16*
X120904000Y-83021500D03*
D10*
G36*
X121553504Y-79335204D02*
G01*
X121577773Y-79338804D01*
X121601571Y-79344765D01*
X121624671Y-79353030D01*
X121646849Y-79363520D01*
X121667893Y-79376133D01*
X121687598Y-79390747D01*
X121705777Y-79407223D01*
X121722253Y-79425402D01*
X121736867Y-79445107D01*
X121749480Y-79466151D01*
X121759970Y-79488329D01*
X121768235Y-79511429D01*
X121774196Y-79535227D01*
X121777796Y-79559496D01*
X121779000Y-79584000D01*
X121779000Y-80509000D01*
X121777796Y-80533504D01*
X121774196Y-80557773D01*
X121768235Y-80581571D01*
X121759970Y-80604671D01*
X121749480Y-80626849D01*
X121736867Y-80647893D01*
X121722253Y-80667598D01*
X121705777Y-80685777D01*
X121687598Y-80702253D01*
X121667893Y-80716867D01*
X121646849Y-80729480D01*
X121624671Y-80739970D01*
X121601571Y-80748235D01*
X121577773Y-80754196D01*
X121553504Y-80757796D01*
X121529000Y-80759000D01*
X120279000Y-80759000D01*
X120254496Y-80757796D01*
X120230227Y-80754196D01*
X120206429Y-80748235D01*
X120183329Y-80739970D01*
X120161151Y-80729480D01*
X120140107Y-80716867D01*
X120120402Y-80702253D01*
X120102223Y-80685777D01*
X120085747Y-80667598D01*
X120071133Y-80647893D01*
X120058520Y-80626849D01*
X120048030Y-80604671D01*
X120039765Y-80581571D01*
X120033804Y-80557773D01*
X120030204Y-80533504D01*
X120029000Y-80509000D01*
X120029000Y-79584000D01*
X120030204Y-79559496D01*
X120033804Y-79535227D01*
X120039765Y-79511429D01*
X120048030Y-79488329D01*
X120058520Y-79466151D01*
X120071133Y-79445107D01*
X120085747Y-79425402D01*
X120102223Y-79407223D01*
X120120402Y-79390747D01*
X120140107Y-79376133D01*
X120161151Y-79363520D01*
X120183329Y-79353030D01*
X120206429Y-79344765D01*
X120230227Y-79338804D01*
X120254496Y-79335204D01*
X120279000Y-79334000D01*
X121529000Y-79334000D01*
X121553504Y-79335204D01*
X121553504Y-79335204D01*
G37*
D16*
X120904000Y-80046500D03*
D20*
X118266000Y-107401000D03*
X118266000Y-106751000D03*
X118266000Y-106101000D03*
X118266000Y-105451000D03*
X112366000Y-105451000D03*
X112366000Y-106101000D03*
X112366000Y-106751000D03*
X112366000Y-107401000D03*
D10*
G36*
X110377504Y-102884204D02*
G01*
X110401773Y-102887804D01*
X110425571Y-102893765D01*
X110448671Y-102902030D01*
X110470849Y-102912520D01*
X110491893Y-102925133D01*
X110511598Y-102939747D01*
X110529777Y-102956223D01*
X110546253Y-102974402D01*
X110560867Y-102994107D01*
X110573480Y-103015151D01*
X110583970Y-103037329D01*
X110592235Y-103060429D01*
X110598196Y-103084227D01*
X110601796Y-103108496D01*
X110603000Y-103133000D01*
X110603000Y-104058000D01*
X110601796Y-104082504D01*
X110598196Y-104106773D01*
X110592235Y-104130571D01*
X110583970Y-104153671D01*
X110573480Y-104175849D01*
X110560867Y-104196893D01*
X110546253Y-104216598D01*
X110529777Y-104234777D01*
X110511598Y-104251253D01*
X110491893Y-104265867D01*
X110470849Y-104278480D01*
X110448671Y-104288970D01*
X110425571Y-104297235D01*
X110401773Y-104303196D01*
X110377504Y-104306796D01*
X110353000Y-104308000D01*
X109103000Y-104308000D01*
X109078496Y-104306796D01*
X109054227Y-104303196D01*
X109030429Y-104297235D01*
X109007329Y-104288970D01*
X108985151Y-104278480D01*
X108964107Y-104265867D01*
X108944402Y-104251253D01*
X108926223Y-104234777D01*
X108909747Y-104216598D01*
X108895133Y-104196893D01*
X108882520Y-104175849D01*
X108872030Y-104153671D01*
X108863765Y-104130571D01*
X108857804Y-104106773D01*
X108854204Y-104082504D01*
X108853000Y-104058000D01*
X108853000Y-103133000D01*
X108854204Y-103108496D01*
X108857804Y-103084227D01*
X108863765Y-103060429D01*
X108872030Y-103037329D01*
X108882520Y-103015151D01*
X108895133Y-102994107D01*
X108909747Y-102974402D01*
X108926223Y-102956223D01*
X108944402Y-102939747D01*
X108964107Y-102925133D01*
X108985151Y-102912520D01*
X109007329Y-102902030D01*
X109030429Y-102893765D01*
X109054227Y-102887804D01*
X109078496Y-102884204D01*
X109103000Y-102883000D01*
X110353000Y-102883000D01*
X110377504Y-102884204D01*
X110377504Y-102884204D01*
G37*
D16*
X109728000Y-103595500D03*
D10*
G36*
X110377504Y-99909204D02*
G01*
X110401773Y-99912804D01*
X110425571Y-99918765D01*
X110448671Y-99927030D01*
X110470849Y-99937520D01*
X110491893Y-99950133D01*
X110511598Y-99964747D01*
X110529777Y-99981223D01*
X110546253Y-99999402D01*
X110560867Y-100019107D01*
X110573480Y-100040151D01*
X110583970Y-100062329D01*
X110592235Y-100085429D01*
X110598196Y-100109227D01*
X110601796Y-100133496D01*
X110603000Y-100158000D01*
X110603000Y-101083000D01*
X110601796Y-101107504D01*
X110598196Y-101131773D01*
X110592235Y-101155571D01*
X110583970Y-101178671D01*
X110573480Y-101200849D01*
X110560867Y-101221893D01*
X110546253Y-101241598D01*
X110529777Y-101259777D01*
X110511598Y-101276253D01*
X110491893Y-101290867D01*
X110470849Y-101303480D01*
X110448671Y-101313970D01*
X110425571Y-101322235D01*
X110401773Y-101328196D01*
X110377504Y-101331796D01*
X110353000Y-101333000D01*
X109103000Y-101333000D01*
X109078496Y-101331796D01*
X109054227Y-101328196D01*
X109030429Y-101322235D01*
X109007329Y-101313970D01*
X108985151Y-101303480D01*
X108964107Y-101290867D01*
X108944402Y-101276253D01*
X108926223Y-101259777D01*
X108909747Y-101241598D01*
X108895133Y-101221893D01*
X108882520Y-101200849D01*
X108872030Y-101178671D01*
X108863765Y-101155571D01*
X108857804Y-101131773D01*
X108854204Y-101107504D01*
X108853000Y-101083000D01*
X108853000Y-100158000D01*
X108854204Y-100133496D01*
X108857804Y-100109227D01*
X108863765Y-100085429D01*
X108872030Y-100062329D01*
X108882520Y-100040151D01*
X108895133Y-100019107D01*
X108909747Y-99999402D01*
X108926223Y-99981223D01*
X108944402Y-99964747D01*
X108964107Y-99950133D01*
X108985151Y-99937520D01*
X109007329Y-99927030D01*
X109030429Y-99918765D01*
X109054227Y-99912804D01*
X109078496Y-99909204D01*
X109103000Y-99908000D01*
X110353000Y-99908000D01*
X110377504Y-99909204D01*
X110377504Y-99909204D01*
G37*
D16*
X109728000Y-100620500D03*
D10*
G36*
X118505504Y-72032704D02*
G01*
X118529773Y-72036304D01*
X118553571Y-72042265D01*
X118576671Y-72050530D01*
X118598849Y-72061020D01*
X118619893Y-72073633D01*
X118639598Y-72088247D01*
X118657777Y-72104723D01*
X118674253Y-72122902D01*
X118688867Y-72142607D01*
X118701480Y-72163651D01*
X118711970Y-72185829D01*
X118720235Y-72208929D01*
X118726196Y-72232727D01*
X118729796Y-72256996D01*
X118731000Y-72281500D01*
X118731000Y-73206500D01*
X118729796Y-73231004D01*
X118726196Y-73255273D01*
X118720235Y-73279071D01*
X118711970Y-73302171D01*
X118701480Y-73324349D01*
X118688867Y-73345393D01*
X118674253Y-73365098D01*
X118657777Y-73383277D01*
X118639598Y-73399753D01*
X118619893Y-73414367D01*
X118598849Y-73426980D01*
X118576671Y-73437470D01*
X118553571Y-73445735D01*
X118529773Y-73451696D01*
X118505504Y-73455296D01*
X118481000Y-73456500D01*
X117231000Y-73456500D01*
X117206496Y-73455296D01*
X117182227Y-73451696D01*
X117158429Y-73445735D01*
X117135329Y-73437470D01*
X117113151Y-73426980D01*
X117092107Y-73414367D01*
X117072402Y-73399753D01*
X117054223Y-73383277D01*
X117037747Y-73365098D01*
X117023133Y-73345393D01*
X117010520Y-73324349D01*
X117000030Y-73302171D01*
X116991765Y-73279071D01*
X116985804Y-73255273D01*
X116982204Y-73231004D01*
X116981000Y-73206500D01*
X116981000Y-72281500D01*
X116982204Y-72256996D01*
X116985804Y-72232727D01*
X116991765Y-72208929D01*
X117000030Y-72185829D01*
X117010520Y-72163651D01*
X117023133Y-72142607D01*
X117037747Y-72122902D01*
X117054223Y-72104723D01*
X117072402Y-72088247D01*
X117092107Y-72073633D01*
X117113151Y-72061020D01*
X117135329Y-72050530D01*
X117158429Y-72042265D01*
X117182227Y-72036304D01*
X117206496Y-72032704D01*
X117231000Y-72031500D01*
X118481000Y-72031500D01*
X118505504Y-72032704D01*
X118505504Y-72032704D01*
G37*
D16*
X117856000Y-72744000D03*
D10*
G36*
X118505504Y-75007704D02*
G01*
X118529773Y-75011304D01*
X118553571Y-75017265D01*
X118576671Y-75025530D01*
X118598849Y-75036020D01*
X118619893Y-75048633D01*
X118639598Y-75063247D01*
X118657777Y-75079723D01*
X118674253Y-75097902D01*
X118688867Y-75117607D01*
X118701480Y-75138651D01*
X118711970Y-75160829D01*
X118720235Y-75183929D01*
X118726196Y-75207727D01*
X118729796Y-75231996D01*
X118731000Y-75256500D01*
X118731000Y-76181500D01*
X118729796Y-76206004D01*
X118726196Y-76230273D01*
X118720235Y-76254071D01*
X118711970Y-76277171D01*
X118701480Y-76299349D01*
X118688867Y-76320393D01*
X118674253Y-76340098D01*
X118657777Y-76358277D01*
X118639598Y-76374753D01*
X118619893Y-76389367D01*
X118598849Y-76401980D01*
X118576671Y-76412470D01*
X118553571Y-76420735D01*
X118529773Y-76426696D01*
X118505504Y-76430296D01*
X118481000Y-76431500D01*
X117231000Y-76431500D01*
X117206496Y-76430296D01*
X117182227Y-76426696D01*
X117158429Y-76420735D01*
X117135329Y-76412470D01*
X117113151Y-76401980D01*
X117092107Y-76389367D01*
X117072402Y-76374753D01*
X117054223Y-76358277D01*
X117037747Y-76340098D01*
X117023133Y-76320393D01*
X117010520Y-76299349D01*
X117000030Y-76277171D01*
X116991765Y-76254071D01*
X116985804Y-76230273D01*
X116982204Y-76206004D01*
X116981000Y-76181500D01*
X116981000Y-75256500D01*
X116982204Y-75231996D01*
X116985804Y-75207727D01*
X116991765Y-75183929D01*
X117000030Y-75160829D01*
X117010520Y-75138651D01*
X117023133Y-75117607D01*
X117037747Y-75097902D01*
X117054223Y-75079723D01*
X117072402Y-75063247D01*
X117092107Y-75048633D01*
X117113151Y-75036020D01*
X117135329Y-75025530D01*
X117158429Y-75017265D01*
X117182227Y-75011304D01*
X117206496Y-75007704D01*
X117231000Y-75006500D01*
X118481000Y-75006500D01*
X118505504Y-75007704D01*
X118505504Y-75007704D01*
G37*
D16*
X117856000Y-75719000D03*
D10*
G36*
X110885504Y-87136204D02*
G01*
X110909773Y-87139804D01*
X110933571Y-87145765D01*
X110956671Y-87154030D01*
X110978849Y-87164520D01*
X110999893Y-87177133D01*
X111019598Y-87191747D01*
X111037777Y-87208223D01*
X111054253Y-87226402D01*
X111068867Y-87246107D01*
X111081480Y-87267151D01*
X111091970Y-87289329D01*
X111100235Y-87312429D01*
X111106196Y-87336227D01*
X111109796Y-87360496D01*
X111111000Y-87385000D01*
X111111000Y-88310000D01*
X111109796Y-88334504D01*
X111106196Y-88358773D01*
X111100235Y-88382571D01*
X111091970Y-88405671D01*
X111081480Y-88427849D01*
X111068867Y-88448893D01*
X111054253Y-88468598D01*
X111037777Y-88486777D01*
X111019598Y-88503253D01*
X110999893Y-88517867D01*
X110978849Y-88530480D01*
X110956671Y-88540970D01*
X110933571Y-88549235D01*
X110909773Y-88555196D01*
X110885504Y-88558796D01*
X110861000Y-88560000D01*
X109611000Y-88560000D01*
X109586496Y-88558796D01*
X109562227Y-88555196D01*
X109538429Y-88549235D01*
X109515329Y-88540970D01*
X109493151Y-88530480D01*
X109472107Y-88517867D01*
X109452402Y-88503253D01*
X109434223Y-88486777D01*
X109417747Y-88468598D01*
X109403133Y-88448893D01*
X109390520Y-88427849D01*
X109380030Y-88405671D01*
X109371765Y-88382571D01*
X109365804Y-88358773D01*
X109362204Y-88334504D01*
X109361000Y-88310000D01*
X109361000Y-87385000D01*
X109362204Y-87360496D01*
X109365804Y-87336227D01*
X109371765Y-87312429D01*
X109380030Y-87289329D01*
X109390520Y-87267151D01*
X109403133Y-87246107D01*
X109417747Y-87226402D01*
X109434223Y-87208223D01*
X109452402Y-87191747D01*
X109472107Y-87177133D01*
X109493151Y-87164520D01*
X109515329Y-87154030D01*
X109538429Y-87145765D01*
X109562227Y-87139804D01*
X109586496Y-87136204D01*
X109611000Y-87135000D01*
X110861000Y-87135000D01*
X110885504Y-87136204D01*
X110885504Y-87136204D01*
G37*
D16*
X110236000Y-87847500D03*
D10*
G36*
X110885504Y-84161204D02*
G01*
X110909773Y-84164804D01*
X110933571Y-84170765D01*
X110956671Y-84179030D01*
X110978849Y-84189520D01*
X110999893Y-84202133D01*
X111019598Y-84216747D01*
X111037777Y-84233223D01*
X111054253Y-84251402D01*
X111068867Y-84271107D01*
X111081480Y-84292151D01*
X111091970Y-84314329D01*
X111100235Y-84337429D01*
X111106196Y-84361227D01*
X111109796Y-84385496D01*
X111111000Y-84410000D01*
X111111000Y-85335000D01*
X111109796Y-85359504D01*
X111106196Y-85383773D01*
X111100235Y-85407571D01*
X111091970Y-85430671D01*
X111081480Y-85452849D01*
X111068867Y-85473893D01*
X111054253Y-85493598D01*
X111037777Y-85511777D01*
X111019598Y-85528253D01*
X110999893Y-85542867D01*
X110978849Y-85555480D01*
X110956671Y-85565970D01*
X110933571Y-85574235D01*
X110909773Y-85580196D01*
X110885504Y-85583796D01*
X110861000Y-85585000D01*
X109611000Y-85585000D01*
X109586496Y-85583796D01*
X109562227Y-85580196D01*
X109538429Y-85574235D01*
X109515329Y-85565970D01*
X109493151Y-85555480D01*
X109472107Y-85542867D01*
X109452402Y-85528253D01*
X109434223Y-85511777D01*
X109417747Y-85493598D01*
X109403133Y-85473893D01*
X109390520Y-85452849D01*
X109380030Y-85430671D01*
X109371765Y-85407571D01*
X109365804Y-85383773D01*
X109362204Y-85359504D01*
X109361000Y-85335000D01*
X109361000Y-84410000D01*
X109362204Y-84385496D01*
X109365804Y-84361227D01*
X109371765Y-84337429D01*
X109380030Y-84314329D01*
X109390520Y-84292151D01*
X109403133Y-84271107D01*
X109417747Y-84251402D01*
X109434223Y-84233223D01*
X109452402Y-84216747D01*
X109472107Y-84202133D01*
X109493151Y-84189520D01*
X109515329Y-84179030D01*
X109538429Y-84170765D01*
X109562227Y-84164804D01*
X109586496Y-84161204D01*
X109611000Y-84160000D01*
X110861000Y-84160000D01*
X110885504Y-84161204D01*
X110885504Y-84161204D01*
G37*
D16*
X110236000Y-84872500D03*
D10*
G36*
X113829703Y-78592722D02*
G01*
X113844264Y-78594882D01*
X113858543Y-78598459D01*
X113872403Y-78603418D01*
X113885710Y-78609712D01*
X113898336Y-78617280D01*
X113910159Y-78626048D01*
X113921066Y-78635934D01*
X113930952Y-78646841D01*
X113939720Y-78658664D01*
X113947288Y-78671290D01*
X113953582Y-78684597D01*
X113958541Y-78698457D01*
X113962118Y-78712736D01*
X113964278Y-78727297D01*
X113965000Y-78742000D01*
X113965000Y-80042000D01*
X113964278Y-80056703D01*
X113962118Y-80071264D01*
X113958541Y-80085543D01*
X113953582Y-80099403D01*
X113947288Y-80112710D01*
X113939720Y-80125336D01*
X113930952Y-80137159D01*
X113921066Y-80148066D01*
X113910159Y-80157952D01*
X113898336Y-80166720D01*
X113885710Y-80174288D01*
X113872403Y-80180582D01*
X113858543Y-80185541D01*
X113844264Y-80189118D01*
X113829703Y-80191278D01*
X113815000Y-80192000D01*
X113515000Y-80192000D01*
X113500297Y-80191278D01*
X113485736Y-80189118D01*
X113471457Y-80185541D01*
X113457597Y-80180582D01*
X113444290Y-80174288D01*
X113431664Y-80166720D01*
X113419841Y-80157952D01*
X113408934Y-80148066D01*
X113399048Y-80137159D01*
X113390280Y-80125336D01*
X113382712Y-80112710D01*
X113376418Y-80099403D01*
X113371459Y-80085543D01*
X113367882Y-80071264D01*
X113365722Y-80056703D01*
X113365000Y-80042000D01*
X113365000Y-78742000D01*
X113365722Y-78727297D01*
X113367882Y-78712736D01*
X113371459Y-78698457D01*
X113376418Y-78684597D01*
X113382712Y-78671290D01*
X113390280Y-78658664D01*
X113399048Y-78646841D01*
X113408934Y-78635934D01*
X113419841Y-78626048D01*
X113431664Y-78617280D01*
X113444290Y-78609712D01*
X113457597Y-78603418D01*
X113471457Y-78598459D01*
X113485736Y-78594882D01*
X113500297Y-78592722D01*
X113515000Y-78592000D01*
X113815000Y-78592000D01*
X113829703Y-78592722D01*
X113829703Y-78592722D01*
G37*
D21*
X113665000Y-79392000D03*
D10*
G36*
X115099703Y-78592722D02*
G01*
X115114264Y-78594882D01*
X115128543Y-78598459D01*
X115142403Y-78603418D01*
X115155710Y-78609712D01*
X115168336Y-78617280D01*
X115180159Y-78626048D01*
X115191066Y-78635934D01*
X115200952Y-78646841D01*
X115209720Y-78658664D01*
X115217288Y-78671290D01*
X115223582Y-78684597D01*
X115228541Y-78698457D01*
X115232118Y-78712736D01*
X115234278Y-78727297D01*
X115235000Y-78742000D01*
X115235000Y-80042000D01*
X115234278Y-80056703D01*
X115232118Y-80071264D01*
X115228541Y-80085543D01*
X115223582Y-80099403D01*
X115217288Y-80112710D01*
X115209720Y-80125336D01*
X115200952Y-80137159D01*
X115191066Y-80148066D01*
X115180159Y-80157952D01*
X115168336Y-80166720D01*
X115155710Y-80174288D01*
X115142403Y-80180582D01*
X115128543Y-80185541D01*
X115114264Y-80189118D01*
X115099703Y-80191278D01*
X115085000Y-80192000D01*
X114785000Y-80192000D01*
X114770297Y-80191278D01*
X114755736Y-80189118D01*
X114741457Y-80185541D01*
X114727597Y-80180582D01*
X114714290Y-80174288D01*
X114701664Y-80166720D01*
X114689841Y-80157952D01*
X114678934Y-80148066D01*
X114669048Y-80137159D01*
X114660280Y-80125336D01*
X114652712Y-80112710D01*
X114646418Y-80099403D01*
X114641459Y-80085543D01*
X114637882Y-80071264D01*
X114635722Y-80056703D01*
X114635000Y-80042000D01*
X114635000Y-78742000D01*
X114635722Y-78727297D01*
X114637882Y-78712736D01*
X114641459Y-78698457D01*
X114646418Y-78684597D01*
X114652712Y-78671290D01*
X114660280Y-78658664D01*
X114669048Y-78646841D01*
X114678934Y-78635934D01*
X114689841Y-78626048D01*
X114701664Y-78617280D01*
X114714290Y-78609712D01*
X114727597Y-78603418D01*
X114741457Y-78598459D01*
X114755736Y-78594882D01*
X114770297Y-78592722D01*
X114785000Y-78592000D01*
X115085000Y-78592000D01*
X115099703Y-78592722D01*
X115099703Y-78592722D01*
G37*
D21*
X114935000Y-79392000D03*
D10*
G36*
X116369703Y-78592722D02*
G01*
X116384264Y-78594882D01*
X116398543Y-78598459D01*
X116412403Y-78603418D01*
X116425710Y-78609712D01*
X116438336Y-78617280D01*
X116450159Y-78626048D01*
X116461066Y-78635934D01*
X116470952Y-78646841D01*
X116479720Y-78658664D01*
X116487288Y-78671290D01*
X116493582Y-78684597D01*
X116498541Y-78698457D01*
X116502118Y-78712736D01*
X116504278Y-78727297D01*
X116505000Y-78742000D01*
X116505000Y-80042000D01*
X116504278Y-80056703D01*
X116502118Y-80071264D01*
X116498541Y-80085543D01*
X116493582Y-80099403D01*
X116487288Y-80112710D01*
X116479720Y-80125336D01*
X116470952Y-80137159D01*
X116461066Y-80148066D01*
X116450159Y-80157952D01*
X116438336Y-80166720D01*
X116425710Y-80174288D01*
X116412403Y-80180582D01*
X116398543Y-80185541D01*
X116384264Y-80189118D01*
X116369703Y-80191278D01*
X116355000Y-80192000D01*
X116055000Y-80192000D01*
X116040297Y-80191278D01*
X116025736Y-80189118D01*
X116011457Y-80185541D01*
X115997597Y-80180582D01*
X115984290Y-80174288D01*
X115971664Y-80166720D01*
X115959841Y-80157952D01*
X115948934Y-80148066D01*
X115939048Y-80137159D01*
X115930280Y-80125336D01*
X115922712Y-80112710D01*
X115916418Y-80099403D01*
X115911459Y-80085543D01*
X115907882Y-80071264D01*
X115905722Y-80056703D01*
X115905000Y-80042000D01*
X115905000Y-78742000D01*
X115905722Y-78727297D01*
X115907882Y-78712736D01*
X115911459Y-78698457D01*
X115916418Y-78684597D01*
X115922712Y-78671290D01*
X115930280Y-78658664D01*
X115939048Y-78646841D01*
X115948934Y-78635934D01*
X115959841Y-78626048D01*
X115971664Y-78617280D01*
X115984290Y-78609712D01*
X115997597Y-78603418D01*
X116011457Y-78598459D01*
X116025736Y-78594882D01*
X116040297Y-78592722D01*
X116055000Y-78592000D01*
X116355000Y-78592000D01*
X116369703Y-78592722D01*
X116369703Y-78592722D01*
G37*
D21*
X116205000Y-79392000D03*
D10*
G36*
X117639703Y-78592722D02*
G01*
X117654264Y-78594882D01*
X117668543Y-78598459D01*
X117682403Y-78603418D01*
X117695710Y-78609712D01*
X117708336Y-78617280D01*
X117720159Y-78626048D01*
X117731066Y-78635934D01*
X117740952Y-78646841D01*
X117749720Y-78658664D01*
X117757288Y-78671290D01*
X117763582Y-78684597D01*
X117768541Y-78698457D01*
X117772118Y-78712736D01*
X117774278Y-78727297D01*
X117775000Y-78742000D01*
X117775000Y-80042000D01*
X117774278Y-80056703D01*
X117772118Y-80071264D01*
X117768541Y-80085543D01*
X117763582Y-80099403D01*
X117757288Y-80112710D01*
X117749720Y-80125336D01*
X117740952Y-80137159D01*
X117731066Y-80148066D01*
X117720159Y-80157952D01*
X117708336Y-80166720D01*
X117695710Y-80174288D01*
X117682403Y-80180582D01*
X117668543Y-80185541D01*
X117654264Y-80189118D01*
X117639703Y-80191278D01*
X117625000Y-80192000D01*
X117325000Y-80192000D01*
X117310297Y-80191278D01*
X117295736Y-80189118D01*
X117281457Y-80185541D01*
X117267597Y-80180582D01*
X117254290Y-80174288D01*
X117241664Y-80166720D01*
X117229841Y-80157952D01*
X117218934Y-80148066D01*
X117209048Y-80137159D01*
X117200280Y-80125336D01*
X117192712Y-80112710D01*
X117186418Y-80099403D01*
X117181459Y-80085543D01*
X117177882Y-80071264D01*
X117175722Y-80056703D01*
X117175000Y-80042000D01*
X117175000Y-78742000D01*
X117175722Y-78727297D01*
X117177882Y-78712736D01*
X117181459Y-78698457D01*
X117186418Y-78684597D01*
X117192712Y-78671290D01*
X117200280Y-78658664D01*
X117209048Y-78646841D01*
X117218934Y-78635934D01*
X117229841Y-78626048D01*
X117241664Y-78617280D01*
X117254290Y-78609712D01*
X117267597Y-78603418D01*
X117281457Y-78598459D01*
X117295736Y-78594882D01*
X117310297Y-78592722D01*
X117325000Y-78592000D01*
X117625000Y-78592000D01*
X117639703Y-78592722D01*
X117639703Y-78592722D01*
G37*
D21*
X117475000Y-79392000D03*
D10*
G36*
X117639703Y-83892722D02*
G01*
X117654264Y-83894882D01*
X117668543Y-83898459D01*
X117682403Y-83903418D01*
X117695710Y-83909712D01*
X117708336Y-83917280D01*
X117720159Y-83926048D01*
X117731066Y-83935934D01*
X117740952Y-83946841D01*
X117749720Y-83958664D01*
X117757288Y-83971290D01*
X117763582Y-83984597D01*
X117768541Y-83998457D01*
X117772118Y-84012736D01*
X117774278Y-84027297D01*
X117775000Y-84042000D01*
X117775000Y-85342000D01*
X117774278Y-85356703D01*
X117772118Y-85371264D01*
X117768541Y-85385543D01*
X117763582Y-85399403D01*
X117757288Y-85412710D01*
X117749720Y-85425336D01*
X117740952Y-85437159D01*
X117731066Y-85448066D01*
X117720159Y-85457952D01*
X117708336Y-85466720D01*
X117695710Y-85474288D01*
X117682403Y-85480582D01*
X117668543Y-85485541D01*
X117654264Y-85489118D01*
X117639703Y-85491278D01*
X117625000Y-85492000D01*
X117325000Y-85492000D01*
X117310297Y-85491278D01*
X117295736Y-85489118D01*
X117281457Y-85485541D01*
X117267597Y-85480582D01*
X117254290Y-85474288D01*
X117241664Y-85466720D01*
X117229841Y-85457952D01*
X117218934Y-85448066D01*
X117209048Y-85437159D01*
X117200280Y-85425336D01*
X117192712Y-85412710D01*
X117186418Y-85399403D01*
X117181459Y-85385543D01*
X117177882Y-85371264D01*
X117175722Y-85356703D01*
X117175000Y-85342000D01*
X117175000Y-84042000D01*
X117175722Y-84027297D01*
X117177882Y-84012736D01*
X117181459Y-83998457D01*
X117186418Y-83984597D01*
X117192712Y-83971290D01*
X117200280Y-83958664D01*
X117209048Y-83946841D01*
X117218934Y-83935934D01*
X117229841Y-83926048D01*
X117241664Y-83917280D01*
X117254290Y-83909712D01*
X117267597Y-83903418D01*
X117281457Y-83898459D01*
X117295736Y-83894882D01*
X117310297Y-83892722D01*
X117325000Y-83892000D01*
X117625000Y-83892000D01*
X117639703Y-83892722D01*
X117639703Y-83892722D01*
G37*
D21*
X117475000Y-84692000D03*
D10*
G36*
X116369703Y-83892722D02*
G01*
X116384264Y-83894882D01*
X116398543Y-83898459D01*
X116412403Y-83903418D01*
X116425710Y-83909712D01*
X116438336Y-83917280D01*
X116450159Y-83926048D01*
X116461066Y-83935934D01*
X116470952Y-83946841D01*
X116479720Y-83958664D01*
X116487288Y-83971290D01*
X116493582Y-83984597D01*
X116498541Y-83998457D01*
X116502118Y-84012736D01*
X116504278Y-84027297D01*
X116505000Y-84042000D01*
X116505000Y-85342000D01*
X116504278Y-85356703D01*
X116502118Y-85371264D01*
X116498541Y-85385543D01*
X116493582Y-85399403D01*
X116487288Y-85412710D01*
X116479720Y-85425336D01*
X116470952Y-85437159D01*
X116461066Y-85448066D01*
X116450159Y-85457952D01*
X116438336Y-85466720D01*
X116425710Y-85474288D01*
X116412403Y-85480582D01*
X116398543Y-85485541D01*
X116384264Y-85489118D01*
X116369703Y-85491278D01*
X116355000Y-85492000D01*
X116055000Y-85492000D01*
X116040297Y-85491278D01*
X116025736Y-85489118D01*
X116011457Y-85485541D01*
X115997597Y-85480582D01*
X115984290Y-85474288D01*
X115971664Y-85466720D01*
X115959841Y-85457952D01*
X115948934Y-85448066D01*
X115939048Y-85437159D01*
X115930280Y-85425336D01*
X115922712Y-85412710D01*
X115916418Y-85399403D01*
X115911459Y-85385543D01*
X115907882Y-85371264D01*
X115905722Y-85356703D01*
X115905000Y-85342000D01*
X115905000Y-84042000D01*
X115905722Y-84027297D01*
X115907882Y-84012736D01*
X115911459Y-83998457D01*
X115916418Y-83984597D01*
X115922712Y-83971290D01*
X115930280Y-83958664D01*
X115939048Y-83946841D01*
X115948934Y-83935934D01*
X115959841Y-83926048D01*
X115971664Y-83917280D01*
X115984290Y-83909712D01*
X115997597Y-83903418D01*
X116011457Y-83898459D01*
X116025736Y-83894882D01*
X116040297Y-83892722D01*
X116055000Y-83892000D01*
X116355000Y-83892000D01*
X116369703Y-83892722D01*
X116369703Y-83892722D01*
G37*
D21*
X116205000Y-84692000D03*
D10*
G36*
X115099703Y-83892722D02*
G01*
X115114264Y-83894882D01*
X115128543Y-83898459D01*
X115142403Y-83903418D01*
X115155710Y-83909712D01*
X115168336Y-83917280D01*
X115180159Y-83926048D01*
X115191066Y-83935934D01*
X115200952Y-83946841D01*
X115209720Y-83958664D01*
X115217288Y-83971290D01*
X115223582Y-83984597D01*
X115228541Y-83998457D01*
X115232118Y-84012736D01*
X115234278Y-84027297D01*
X115235000Y-84042000D01*
X115235000Y-85342000D01*
X115234278Y-85356703D01*
X115232118Y-85371264D01*
X115228541Y-85385543D01*
X115223582Y-85399403D01*
X115217288Y-85412710D01*
X115209720Y-85425336D01*
X115200952Y-85437159D01*
X115191066Y-85448066D01*
X115180159Y-85457952D01*
X115168336Y-85466720D01*
X115155710Y-85474288D01*
X115142403Y-85480582D01*
X115128543Y-85485541D01*
X115114264Y-85489118D01*
X115099703Y-85491278D01*
X115085000Y-85492000D01*
X114785000Y-85492000D01*
X114770297Y-85491278D01*
X114755736Y-85489118D01*
X114741457Y-85485541D01*
X114727597Y-85480582D01*
X114714290Y-85474288D01*
X114701664Y-85466720D01*
X114689841Y-85457952D01*
X114678934Y-85448066D01*
X114669048Y-85437159D01*
X114660280Y-85425336D01*
X114652712Y-85412710D01*
X114646418Y-85399403D01*
X114641459Y-85385543D01*
X114637882Y-85371264D01*
X114635722Y-85356703D01*
X114635000Y-85342000D01*
X114635000Y-84042000D01*
X114635722Y-84027297D01*
X114637882Y-84012736D01*
X114641459Y-83998457D01*
X114646418Y-83984597D01*
X114652712Y-83971290D01*
X114660280Y-83958664D01*
X114669048Y-83946841D01*
X114678934Y-83935934D01*
X114689841Y-83926048D01*
X114701664Y-83917280D01*
X114714290Y-83909712D01*
X114727597Y-83903418D01*
X114741457Y-83898459D01*
X114755736Y-83894882D01*
X114770297Y-83892722D01*
X114785000Y-83892000D01*
X115085000Y-83892000D01*
X115099703Y-83892722D01*
X115099703Y-83892722D01*
G37*
D21*
X114935000Y-84692000D03*
D10*
G36*
X113829703Y-83892722D02*
G01*
X113844264Y-83894882D01*
X113858543Y-83898459D01*
X113872403Y-83903418D01*
X113885710Y-83909712D01*
X113898336Y-83917280D01*
X113910159Y-83926048D01*
X113921066Y-83935934D01*
X113930952Y-83946841D01*
X113939720Y-83958664D01*
X113947288Y-83971290D01*
X113953582Y-83984597D01*
X113958541Y-83998457D01*
X113962118Y-84012736D01*
X113964278Y-84027297D01*
X113965000Y-84042000D01*
X113965000Y-85342000D01*
X113964278Y-85356703D01*
X113962118Y-85371264D01*
X113958541Y-85385543D01*
X113953582Y-85399403D01*
X113947288Y-85412710D01*
X113939720Y-85425336D01*
X113930952Y-85437159D01*
X113921066Y-85448066D01*
X113910159Y-85457952D01*
X113898336Y-85466720D01*
X113885710Y-85474288D01*
X113872403Y-85480582D01*
X113858543Y-85485541D01*
X113844264Y-85489118D01*
X113829703Y-85491278D01*
X113815000Y-85492000D01*
X113515000Y-85492000D01*
X113500297Y-85491278D01*
X113485736Y-85489118D01*
X113471457Y-85485541D01*
X113457597Y-85480582D01*
X113444290Y-85474288D01*
X113431664Y-85466720D01*
X113419841Y-85457952D01*
X113408934Y-85448066D01*
X113399048Y-85437159D01*
X113390280Y-85425336D01*
X113382712Y-85412710D01*
X113376418Y-85399403D01*
X113371459Y-85385543D01*
X113367882Y-85371264D01*
X113365722Y-85356703D01*
X113365000Y-85342000D01*
X113365000Y-84042000D01*
X113365722Y-84027297D01*
X113367882Y-84012736D01*
X113371459Y-83998457D01*
X113376418Y-83984597D01*
X113382712Y-83971290D01*
X113390280Y-83958664D01*
X113399048Y-83946841D01*
X113408934Y-83935934D01*
X113419841Y-83926048D01*
X113431664Y-83917280D01*
X113444290Y-83909712D01*
X113457597Y-83903418D01*
X113471457Y-83898459D01*
X113485736Y-83894882D01*
X113500297Y-83892722D01*
X113515000Y-83892000D01*
X113815000Y-83892000D01*
X113829703Y-83892722D01*
X113829703Y-83892722D01*
G37*
D21*
X113665000Y-84692000D03*
D10*
G36*
X116751269Y-80958168D02*
G01*
X116774809Y-80961660D01*
X116797894Y-80967442D01*
X116820301Y-80975459D01*
X116841814Y-80985634D01*
X116862226Y-80997869D01*
X116881340Y-81012045D01*
X116898973Y-81028027D01*
X116914955Y-81045660D01*
X116929131Y-81064774D01*
X116941366Y-81085186D01*
X116951541Y-81106699D01*
X116959558Y-81129106D01*
X116965340Y-81152191D01*
X116968832Y-81175731D01*
X116970000Y-81199500D01*
X116970000Y-81684500D01*
X116968832Y-81708269D01*
X116965340Y-81731809D01*
X116959558Y-81754894D01*
X116951541Y-81777301D01*
X116941366Y-81798814D01*
X116929131Y-81819226D01*
X116914955Y-81838340D01*
X116898973Y-81855973D01*
X116881340Y-81871955D01*
X116862226Y-81886131D01*
X116841814Y-81898366D01*
X116820301Y-81908541D01*
X116797894Y-81916558D01*
X116774809Y-81922340D01*
X116751269Y-81925832D01*
X116727500Y-81927000D01*
X115962500Y-81927000D01*
X115938731Y-81925832D01*
X115915191Y-81922340D01*
X115892106Y-81916558D01*
X115869699Y-81908541D01*
X115848186Y-81898366D01*
X115827774Y-81886131D01*
X115808660Y-81871955D01*
X115791027Y-81855973D01*
X115775045Y-81838340D01*
X115760869Y-81819226D01*
X115748634Y-81798814D01*
X115738459Y-81777301D01*
X115730442Y-81754894D01*
X115724660Y-81731809D01*
X115721168Y-81708269D01*
X115720000Y-81684500D01*
X115720000Y-81199500D01*
X115721168Y-81175731D01*
X115724660Y-81152191D01*
X115730442Y-81129106D01*
X115738459Y-81106699D01*
X115748634Y-81085186D01*
X115760869Y-81064774D01*
X115775045Y-81045660D01*
X115791027Y-81028027D01*
X115808660Y-81012045D01*
X115827774Y-80997869D01*
X115848186Y-80985634D01*
X115869699Y-80975459D01*
X115892106Y-80967442D01*
X115915191Y-80961660D01*
X115938731Y-80958168D01*
X115962500Y-80957000D01*
X116727500Y-80957000D01*
X116751269Y-80958168D01*
X116751269Y-80958168D01*
G37*
D22*
X116345000Y-81442000D03*
D10*
G36*
X115201269Y-80958168D02*
G01*
X115224809Y-80961660D01*
X115247894Y-80967442D01*
X115270301Y-80975459D01*
X115291814Y-80985634D01*
X115312226Y-80997869D01*
X115331340Y-81012045D01*
X115348973Y-81028027D01*
X115364955Y-81045660D01*
X115379131Y-81064774D01*
X115391366Y-81085186D01*
X115401541Y-81106699D01*
X115409558Y-81129106D01*
X115415340Y-81152191D01*
X115418832Y-81175731D01*
X115420000Y-81199500D01*
X115420000Y-81684500D01*
X115418832Y-81708269D01*
X115415340Y-81731809D01*
X115409558Y-81754894D01*
X115401541Y-81777301D01*
X115391366Y-81798814D01*
X115379131Y-81819226D01*
X115364955Y-81838340D01*
X115348973Y-81855973D01*
X115331340Y-81871955D01*
X115312226Y-81886131D01*
X115291814Y-81898366D01*
X115270301Y-81908541D01*
X115247894Y-81916558D01*
X115224809Y-81922340D01*
X115201269Y-81925832D01*
X115177500Y-81927000D01*
X114412500Y-81927000D01*
X114388731Y-81925832D01*
X114365191Y-81922340D01*
X114342106Y-81916558D01*
X114319699Y-81908541D01*
X114298186Y-81898366D01*
X114277774Y-81886131D01*
X114258660Y-81871955D01*
X114241027Y-81855973D01*
X114225045Y-81838340D01*
X114210869Y-81819226D01*
X114198634Y-81798814D01*
X114188459Y-81777301D01*
X114180442Y-81754894D01*
X114174660Y-81731809D01*
X114171168Y-81708269D01*
X114170000Y-81684500D01*
X114170000Y-81199500D01*
X114171168Y-81175731D01*
X114174660Y-81152191D01*
X114180442Y-81129106D01*
X114188459Y-81106699D01*
X114198634Y-81085186D01*
X114210869Y-81064774D01*
X114225045Y-81045660D01*
X114241027Y-81028027D01*
X114258660Y-81012045D01*
X114277774Y-80997869D01*
X114298186Y-80985634D01*
X114319699Y-80975459D01*
X114342106Y-80967442D01*
X114365191Y-80961660D01*
X114388731Y-80958168D01*
X114412500Y-80957000D01*
X115177500Y-80957000D01*
X115201269Y-80958168D01*
X115201269Y-80958168D01*
G37*
D22*
X114795000Y-81442000D03*
D10*
G36*
X116751269Y-82158168D02*
G01*
X116774809Y-82161660D01*
X116797894Y-82167442D01*
X116820301Y-82175459D01*
X116841814Y-82185634D01*
X116862226Y-82197869D01*
X116881340Y-82212045D01*
X116898973Y-82228027D01*
X116914955Y-82245660D01*
X116929131Y-82264774D01*
X116941366Y-82285186D01*
X116951541Y-82306699D01*
X116959558Y-82329106D01*
X116965340Y-82352191D01*
X116968832Y-82375731D01*
X116970000Y-82399500D01*
X116970000Y-82884500D01*
X116968832Y-82908269D01*
X116965340Y-82931809D01*
X116959558Y-82954894D01*
X116951541Y-82977301D01*
X116941366Y-82998814D01*
X116929131Y-83019226D01*
X116914955Y-83038340D01*
X116898973Y-83055973D01*
X116881340Y-83071955D01*
X116862226Y-83086131D01*
X116841814Y-83098366D01*
X116820301Y-83108541D01*
X116797894Y-83116558D01*
X116774809Y-83122340D01*
X116751269Y-83125832D01*
X116727500Y-83127000D01*
X115962500Y-83127000D01*
X115938731Y-83125832D01*
X115915191Y-83122340D01*
X115892106Y-83116558D01*
X115869699Y-83108541D01*
X115848186Y-83098366D01*
X115827774Y-83086131D01*
X115808660Y-83071955D01*
X115791027Y-83055973D01*
X115775045Y-83038340D01*
X115760869Y-83019226D01*
X115748634Y-82998814D01*
X115738459Y-82977301D01*
X115730442Y-82954894D01*
X115724660Y-82931809D01*
X115721168Y-82908269D01*
X115720000Y-82884500D01*
X115720000Y-82399500D01*
X115721168Y-82375731D01*
X115724660Y-82352191D01*
X115730442Y-82329106D01*
X115738459Y-82306699D01*
X115748634Y-82285186D01*
X115760869Y-82264774D01*
X115775045Y-82245660D01*
X115791027Y-82228027D01*
X115808660Y-82212045D01*
X115827774Y-82197869D01*
X115848186Y-82185634D01*
X115869699Y-82175459D01*
X115892106Y-82167442D01*
X115915191Y-82161660D01*
X115938731Y-82158168D01*
X115962500Y-82157000D01*
X116727500Y-82157000D01*
X116751269Y-82158168D01*
X116751269Y-82158168D01*
G37*
D22*
X116345000Y-82642000D03*
D10*
G36*
X115201269Y-82158168D02*
G01*
X115224809Y-82161660D01*
X115247894Y-82167442D01*
X115270301Y-82175459D01*
X115291814Y-82185634D01*
X115312226Y-82197869D01*
X115331340Y-82212045D01*
X115348973Y-82228027D01*
X115364955Y-82245660D01*
X115379131Y-82264774D01*
X115391366Y-82285186D01*
X115401541Y-82306699D01*
X115409558Y-82329106D01*
X115415340Y-82352191D01*
X115418832Y-82375731D01*
X115420000Y-82399500D01*
X115420000Y-82884500D01*
X115418832Y-82908269D01*
X115415340Y-82931809D01*
X115409558Y-82954894D01*
X115401541Y-82977301D01*
X115391366Y-82998814D01*
X115379131Y-83019226D01*
X115364955Y-83038340D01*
X115348973Y-83055973D01*
X115331340Y-83071955D01*
X115312226Y-83086131D01*
X115291814Y-83098366D01*
X115270301Y-83108541D01*
X115247894Y-83116558D01*
X115224809Y-83122340D01*
X115201269Y-83125832D01*
X115177500Y-83127000D01*
X114412500Y-83127000D01*
X114388731Y-83125832D01*
X114365191Y-83122340D01*
X114342106Y-83116558D01*
X114319699Y-83108541D01*
X114298186Y-83098366D01*
X114277774Y-83086131D01*
X114258660Y-83071955D01*
X114241027Y-83055973D01*
X114225045Y-83038340D01*
X114210869Y-83019226D01*
X114198634Y-82998814D01*
X114188459Y-82977301D01*
X114180442Y-82954894D01*
X114174660Y-82931809D01*
X114171168Y-82908269D01*
X114170000Y-82884500D01*
X114170000Y-82399500D01*
X114171168Y-82375731D01*
X114174660Y-82352191D01*
X114180442Y-82329106D01*
X114188459Y-82306699D01*
X114198634Y-82285186D01*
X114210869Y-82264774D01*
X114225045Y-82245660D01*
X114241027Y-82228027D01*
X114258660Y-82212045D01*
X114277774Y-82197869D01*
X114298186Y-82185634D01*
X114319699Y-82175459D01*
X114342106Y-82167442D01*
X114365191Y-82161660D01*
X114388731Y-82158168D01*
X114412500Y-82157000D01*
X115177500Y-82157000D01*
X115201269Y-82158168D01*
X115201269Y-82158168D01*
G37*
D22*
X114795000Y-82642000D03*
D23*
X113350000Y-101172000D03*
X114300000Y-101172000D03*
X115250000Y-101172000D03*
X115250000Y-98472000D03*
X113350000Y-98472000D03*
X114300000Y-98472000D03*
M02*
