G04 #@! TF.GenerationSoftware,KiCad,Pcbnew,(6.0.0-rc1-dev-1491-g0a4812be0)*
G04 #@! TF.CreationDate,2019-04-29T14:54:42+02:00
G04 #@! TF.ProjectId,mySensors_door_switch,6d795365-6e73-46f7-9273-5f646f6f725f,1.2*
G04 #@! TF.SameCoordinates,Original*
G04 #@! TF.FileFunction,Soldermask,Top*
G04 #@! TF.FilePolarity,Negative*
%FSLAX46Y46*%
G04 Gerber Fmt 4.6, Leading zero omitted, Abs format (unit mm)*
G04 Created by KiCad (PCBNEW (6.0.0-rc1-dev-1491-g0a4812be0)) date 2019-04-29 14:54:42*
%MOMM*%
%LPD*%
G04 APERTURE LIST*
%ADD10C,0.100000*%
G04 APERTURE END LIST*
D10*
X148618500Y-68366000D02*
G75*
G03X148618500Y-68366000I-444500J0D01*
G01*
X153118500Y-68366000D02*
G75*
G03X153118500Y-68366000I-444500J0D01*
G01*
X154559000Y-70866000D02*
G75*
G03X154559000Y-70866000I-635000J0D01*
G01*
X147559000Y-70866000D02*
G75*
G03X147559000Y-70866000I-635000J0D01*
G01*
G36*
X182410611Y-104279366D02*
G01*
X182789437Y-104354719D01*
X183290087Y-104562095D01*
X183539370Y-104728661D01*
X183740663Y-104863161D01*
X184123839Y-105246337D01*
X184123841Y-105246340D01*
X184424905Y-105696913D01*
X184625801Y-106181920D01*
X184632281Y-106197564D01*
X184738000Y-106729049D01*
X184738000Y-107270951D01*
X184703901Y-107442376D01*
X184632281Y-107802437D01*
X184424905Y-108303087D01*
X184145888Y-108720665D01*
X184123839Y-108753663D01*
X183740663Y-109136839D01*
X183740660Y-109136841D01*
X183290087Y-109437905D01*
X182789437Y-109645281D01*
X182523693Y-109698141D01*
X182257951Y-109751000D01*
X181716049Y-109751000D01*
X181450307Y-109698141D01*
X181184563Y-109645281D01*
X180683913Y-109437905D01*
X180233340Y-109136841D01*
X180233337Y-109136839D01*
X179850161Y-108753663D01*
X179828112Y-108720665D01*
X179549095Y-108303087D01*
X179341719Y-107802437D01*
X179270099Y-107442376D01*
X179236000Y-107270951D01*
X179236000Y-106729049D01*
X179341719Y-106197564D01*
X179348199Y-106181920D01*
X179549095Y-105696913D01*
X179850159Y-105246340D01*
X179850161Y-105246337D01*
X180233337Y-104863161D01*
X180434630Y-104728661D01*
X180683913Y-104562095D01*
X181184563Y-104354719D01*
X181563389Y-104279366D01*
X181716049Y-104249000D01*
X182257951Y-104249000D01*
X182410611Y-104279366D01*
X182410611Y-104279366D01*
G37*
G36*
X103410611Y-104279366D02*
G01*
X103789437Y-104354719D01*
X104290087Y-104562095D01*
X104539370Y-104728661D01*
X104740663Y-104863161D01*
X105123839Y-105246337D01*
X105123841Y-105246340D01*
X105424905Y-105696913D01*
X105625801Y-106181920D01*
X105632281Y-106197564D01*
X105738000Y-106729049D01*
X105738000Y-107270951D01*
X105703901Y-107442376D01*
X105632281Y-107802437D01*
X105424905Y-108303087D01*
X105145888Y-108720665D01*
X105123839Y-108753663D01*
X104740663Y-109136839D01*
X104740660Y-109136841D01*
X104290087Y-109437905D01*
X103789437Y-109645281D01*
X103523693Y-109698141D01*
X103257951Y-109751000D01*
X102716049Y-109751000D01*
X102450307Y-109698141D01*
X102184563Y-109645281D01*
X101683913Y-109437905D01*
X101233340Y-109136841D01*
X101233337Y-109136839D01*
X100850161Y-108753663D01*
X100828112Y-108720665D01*
X100549095Y-108303087D01*
X100341719Y-107802437D01*
X100270099Y-107442376D01*
X100236000Y-107270951D01*
X100236000Y-106729049D01*
X100341719Y-106197564D01*
X100348199Y-106181920D01*
X100549095Y-105696913D01*
X100850159Y-105246340D01*
X100850161Y-105246337D01*
X101233337Y-104863161D01*
X101434630Y-104728661D01*
X101683913Y-104562095D01*
X102184563Y-104354719D01*
X102563389Y-104279366D01*
X102716049Y-104249000D01*
X103257951Y-104249000D01*
X103410611Y-104279366D01*
X103410611Y-104279366D01*
G37*
G36*
X164744600Y-105874006D02*
G01*
X164747002Y-105898392D01*
X164754115Y-105921841D01*
X164765666Y-105943452D01*
X164781212Y-105962394D01*
X164800154Y-105977940D01*
X164821765Y-105989491D01*
X164845214Y-105996604D01*
X164869600Y-105999006D01*
X164893986Y-105996604D01*
X164917435Y-105989491D01*
X164939046Y-105977940D01*
X164957988Y-105962394D01*
X164973534Y-105943452D01*
X164985085Y-105921842D01*
X165012521Y-105855605D01*
X165019492Y-105838775D01*
X165119584Y-105688977D01*
X165119586Y-105688974D01*
X165246974Y-105561586D01*
X165255180Y-105556103D01*
X165396775Y-105461492D01*
X165563221Y-105392548D01*
X165563222Y-105392548D01*
X165563224Y-105392547D01*
X165739918Y-105357400D01*
X165920082Y-105357400D01*
X166096776Y-105392547D01*
X166096778Y-105392548D01*
X166096779Y-105392548D01*
X166263225Y-105461492D01*
X166404820Y-105556103D01*
X166413026Y-105561586D01*
X166540414Y-105688974D01*
X166540416Y-105688977D01*
X166640508Y-105838775D01*
X166693943Y-105967780D01*
X166713475Y-106014933D01*
X166714513Y-106018355D01*
X166726063Y-106039967D01*
X166741608Y-106058909D01*
X166760549Y-106074456D01*
X166782160Y-106086008D01*
X166805608Y-106093122D01*
X166829995Y-106095525D01*
X166854381Y-106093124D01*
X166877830Y-106086012D01*
X166899442Y-106074462D01*
X166918384Y-106058917D01*
X166933931Y-106039976D01*
X166945483Y-106018365D01*
X166946522Y-106014940D01*
X166969516Y-105959428D01*
X167019492Y-105838775D01*
X167119584Y-105688977D01*
X167119586Y-105688974D01*
X167246974Y-105561586D01*
X167255180Y-105556103D01*
X167396775Y-105461492D01*
X167563221Y-105392548D01*
X167563222Y-105392548D01*
X167563224Y-105392547D01*
X167739918Y-105357400D01*
X167920082Y-105357400D01*
X168096776Y-105392547D01*
X168096778Y-105392548D01*
X168096779Y-105392548D01*
X168263225Y-105461492D01*
X168404820Y-105556103D01*
X168413026Y-105561586D01*
X168540414Y-105688974D01*
X168540416Y-105688977D01*
X168640508Y-105838775D01*
X168693943Y-105967780D01*
X168713475Y-106014933D01*
X168714513Y-106018355D01*
X168726063Y-106039967D01*
X168741608Y-106058909D01*
X168760549Y-106074456D01*
X168782160Y-106086008D01*
X168805608Y-106093122D01*
X168829995Y-106095525D01*
X168854381Y-106093124D01*
X168877830Y-106086012D01*
X168899442Y-106074462D01*
X168918384Y-106058917D01*
X168933931Y-106039976D01*
X168945483Y-106018365D01*
X168946522Y-106014940D01*
X168969516Y-105959428D01*
X169019492Y-105838775D01*
X169119584Y-105688977D01*
X169119586Y-105688974D01*
X169246974Y-105561586D01*
X169255180Y-105556103D01*
X169396775Y-105461492D01*
X169563221Y-105392548D01*
X169563222Y-105392548D01*
X169563224Y-105392547D01*
X169739918Y-105357400D01*
X169920082Y-105357400D01*
X170096776Y-105392547D01*
X170096778Y-105392548D01*
X170096779Y-105392548D01*
X170263225Y-105461492D01*
X170404820Y-105556103D01*
X170413026Y-105561586D01*
X170540414Y-105688974D01*
X170540416Y-105688977D01*
X170640508Y-105838775D01*
X170693943Y-105967780D01*
X170713475Y-106014933D01*
X170714513Y-106018355D01*
X170726063Y-106039967D01*
X170741608Y-106058909D01*
X170760549Y-106074456D01*
X170782160Y-106086008D01*
X170805608Y-106093122D01*
X170829995Y-106095525D01*
X170854381Y-106093124D01*
X170877830Y-106086012D01*
X170899442Y-106074462D01*
X170918384Y-106058917D01*
X170933931Y-106039976D01*
X170945483Y-106018365D01*
X170946522Y-106014940D01*
X170969516Y-105959428D01*
X171019492Y-105838775D01*
X171119584Y-105688977D01*
X171119586Y-105688974D01*
X171246974Y-105561586D01*
X171255180Y-105556103D01*
X171396775Y-105461492D01*
X171563221Y-105392548D01*
X171563222Y-105392548D01*
X171563224Y-105392547D01*
X171739918Y-105357400D01*
X171920082Y-105357400D01*
X172096776Y-105392547D01*
X172096778Y-105392548D01*
X172096779Y-105392548D01*
X172263225Y-105461492D01*
X172404820Y-105556103D01*
X172413026Y-105561586D01*
X172540414Y-105688974D01*
X172540416Y-105688977D01*
X172640508Y-105838775D01*
X172693943Y-105967780D01*
X172713475Y-106014933D01*
X172714513Y-106018355D01*
X172726063Y-106039967D01*
X172741608Y-106058909D01*
X172760549Y-106074456D01*
X172782160Y-106086008D01*
X172805608Y-106093122D01*
X172829995Y-106095525D01*
X172854381Y-106093124D01*
X172877830Y-106086012D01*
X172899442Y-106074462D01*
X172918384Y-106058917D01*
X172933931Y-106039976D01*
X172945483Y-106018365D01*
X172946522Y-106014940D01*
X172969516Y-105959428D01*
X173019492Y-105838775D01*
X173119584Y-105688977D01*
X173119586Y-105688974D01*
X173246974Y-105561586D01*
X173255180Y-105556103D01*
X173396775Y-105461492D01*
X173563221Y-105392548D01*
X173563222Y-105392548D01*
X173563224Y-105392547D01*
X173739918Y-105357400D01*
X173920082Y-105357400D01*
X174096776Y-105392547D01*
X174096778Y-105392548D01*
X174096779Y-105392548D01*
X174263225Y-105461492D01*
X174404820Y-105556103D01*
X174413026Y-105561586D01*
X174540414Y-105688974D01*
X174540416Y-105688977D01*
X174640508Y-105838775D01*
X174693943Y-105967780D01*
X174713475Y-106014933D01*
X174714513Y-106018355D01*
X174726063Y-106039967D01*
X174741608Y-106058909D01*
X174760549Y-106074456D01*
X174782160Y-106086008D01*
X174805608Y-106093122D01*
X174829995Y-106095525D01*
X174854381Y-106093124D01*
X174877830Y-106086012D01*
X174899442Y-106074462D01*
X174918384Y-106058917D01*
X174933931Y-106039976D01*
X174945483Y-106018365D01*
X174946522Y-106014940D01*
X174969516Y-105959428D01*
X175019492Y-105838775D01*
X175119584Y-105688977D01*
X175119586Y-105688974D01*
X175246974Y-105561586D01*
X175255180Y-105556103D01*
X175396775Y-105461492D01*
X175563221Y-105392548D01*
X175563222Y-105392548D01*
X175563224Y-105392547D01*
X175739918Y-105357400D01*
X175920082Y-105357400D01*
X176096776Y-105392547D01*
X176096778Y-105392548D01*
X176096779Y-105392548D01*
X176263225Y-105461492D01*
X176404820Y-105556103D01*
X176413026Y-105561586D01*
X176540414Y-105688974D01*
X176540416Y-105688977D01*
X176640508Y-105838775D01*
X176693943Y-105967780D01*
X176713475Y-106014933D01*
X176714513Y-106018355D01*
X176726063Y-106039967D01*
X176741608Y-106058909D01*
X176760549Y-106074456D01*
X176782160Y-106086008D01*
X176805608Y-106093122D01*
X176829995Y-106095525D01*
X176854381Y-106093124D01*
X176877830Y-106086012D01*
X176899442Y-106074462D01*
X176918384Y-106058917D01*
X176933931Y-106039976D01*
X176945483Y-106018365D01*
X176946522Y-106014940D01*
X176969516Y-105959428D01*
X177019492Y-105838775D01*
X177119584Y-105688977D01*
X177119586Y-105688974D01*
X177246974Y-105561586D01*
X177255180Y-105556103D01*
X177396775Y-105461492D01*
X177563221Y-105392548D01*
X177563222Y-105392548D01*
X177563224Y-105392547D01*
X177739918Y-105357400D01*
X177920082Y-105357400D01*
X178096776Y-105392547D01*
X178096778Y-105392548D01*
X178096779Y-105392548D01*
X178263225Y-105461492D01*
X178404820Y-105556103D01*
X178413026Y-105561586D01*
X178540414Y-105688974D01*
X178540416Y-105688977D01*
X178640508Y-105838775D01*
X178708025Y-106001777D01*
X178709453Y-106005224D01*
X178744600Y-106181918D01*
X178744600Y-106362082D01*
X178710424Y-106533897D01*
X178709452Y-106538779D01*
X178640508Y-106705225D01*
X178586288Y-106786371D01*
X178540414Y-106855026D01*
X178517612Y-106877828D01*
X178502066Y-106896770D01*
X178490515Y-106918381D01*
X178483402Y-106941830D01*
X178481000Y-106966216D01*
X178481000Y-109123000D01*
X177179000Y-109123000D01*
X177179000Y-106966216D01*
X177176598Y-106941830D01*
X177169485Y-106918381D01*
X177157934Y-106896770D01*
X177142388Y-106877828D01*
X177119586Y-106855026D01*
X177073712Y-106786371D01*
X177019492Y-106705225D01*
X176950548Y-106538779D01*
X176950547Y-106538776D01*
X176946525Y-106529067D01*
X176945487Y-106525645D01*
X176933937Y-106504033D01*
X176918392Y-106485091D01*
X176899451Y-106469544D01*
X176877840Y-106457992D01*
X176854392Y-106450878D01*
X176830005Y-106448475D01*
X176805619Y-106450876D01*
X176782170Y-106457988D01*
X176760558Y-106469538D01*
X176741616Y-106485083D01*
X176726069Y-106504024D01*
X176714517Y-106525635D01*
X176713478Y-106529060D01*
X176698607Y-106564962D01*
X176640508Y-106705225D01*
X176586288Y-106786371D01*
X176540414Y-106855026D01*
X176517612Y-106877828D01*
X176502066Y-106896770D01*
X176490515Y-106918381D01*
X176483402Y-106941830D01*
X176481000Y-106966216D01*
X176481000Y-109123000D01*
X175179000Y-109123000D01*
X175179000Y-106966216D01*
X175176598Y-106941830D01*
X175169485Y-106918381D01*
X175157934Y-106896770D01*
X175142388Y-106877828D01*
X175119586Y-106855026D01*
X175073712Y-106786371D01*
X175019492Y-106705225D01*
X174950548Y-106538779D01*
X174950547Y-106538776D01*
X174946525Y-106529067D01*
X174945487Y-106525645D01*
X174933937Y-106504033D01*
X174918392Y-106485091D01*
X174899451Y-106469544D01*
X174877840Y-106457992D01*
X174854392Y-106450878D01*
X174830005Y-106448475D01*
X174805619Y-106450876D01*
X174782170Y-106457988D01*
X174760558Y-106469538D01*
X174741616Y-106485083D01*
X174726069Y-106504024D01*
X174714517Y-106525635D01*
X174713478Y-106529060D01*
X174698607Y-106564962D01*
X174640508Y-106705225D01*
X174586288Y-106786371D01*
X174540414Y-106855026D01*
X174517612Y-106877828D01*
X174502066Y-106896770D01*
X174490515Y-106918381D01*
X174483402Y-106941830D01*
X174481000Y-106966216D01*
X174481000Y-109123000D01*
X173179000Y-109123000D01*
X173179000Y-106966216D01*
X173176598Y-106941830D01*
X173169485Y-106918381D01*
X173157934Y-106896770D01*
X173142388Y-106877828D01*
X173119586Y-106855026D01*
X173073712Y-106786371D01*
X173019492Y-106705225D01*
X172950548Y-106538779D01*
X172950547Y-106538776D01*
X172946525Y-106529067D01*
X172945487Y-106525645D01*
X172933937Y-106504033D01*
X172918392Y-106485091D01*
X172899451Y-106469544D01*
X172877840Y-106457992D01*
X172854392Y-106450878D01*
X172830005Y-106448475D01*
X172805619Y-106450876D01*
X172782170Y-106457988D01*
X172760558Y-106469538D01*
X172741616Y-106485083D01*
X172726069Y-106504024D01*
X172714517Y-106525635D01*
X172713478Y-106529060D01*
X172698607Y-106564962D01*
X172640508Y-106705225D01*
X172586288Y-106786371D01*
X172540414Y-106855026D01*
X172517612Y-106877828D01*
X172502066Y-106896770D01*
X172490515Y-106918381D01*
X172483402Y-106941830D01*
X172481000Y-106966216D01*
X172481000Y-109123000D01*
X171179000Y-109123000D01*
X171179000Y-106966216D01*
X171176598Y-106941830D01*
X171169485Y-106918381D01*
X171157934Y-106896770D01*
X171142388Y-106877828D01*
X171119586Y-106855026D01*
X171073712Y-106786371D01*
X171019492Y-106705225D01*
X170950548Y-106538779D01*
X170950547Y-106538776D01*
X170946525Y-106529067D01*
X170945487Y-106525645D01*
X170933937Y-106504033D01*
X170918392Y-106485091D01*
X170899451Y-106469544D01*
X170877840Y-106457992D01*
X170854392Y-106450878D01*
X170830005Y-106448475D01*
X170805619Y-106450876D01*
X170782170Y-106457988D01*
X170760558Y-106469538D01*
X170741616Y-106485083D01*
X170726069Y-106504024D01*
X170714517Y-106525635D01*
X170713478Y-106529060D01*
X170698607Y-106564962D01*
X170640508Y-106705225D01*
X170586288Y-106786371D01*
X170540414Y-106855026D01*
X170517612Y-106877828D01*
X170502066Y-106896770D01*
X170490515Y-106918381D01*
X170483402Y-106941830D01*
X170481000Y-106966216D01*
X170481000Y-109123000D01*
X169179000Y-109123000D01*
X169179000Y-106966216D01*
X169176598Y-106941830D01*
X169169485Y-106918381D01*
X169157934Y-106896770D01*
X169142388Y-106877828D01*
X169119586Y-106855026D01*
X169073712Y-106786371D01*
X169019492Y-106705225D01*
X168950548Y-106538779D01*
X168950547Y-106538776D01*
X168946525Y-106529067D01*
X168945487Y-106525645D01*
X168933937Y-106504033D01*
X168918392Y-106485091D01*
X168899451Y-106469544D01*
X168877840Y-106457992D01*
X168854392Y-106450878D01*
X168830005Y-106448475D01*
X168805619Y-106450876D01*
X168782170Y-106457988D01*
X168760558Y-106469538D01*
X168741616Y-106485083D01*
X168726069Y-106504024D01*
X168714517Y-106525635D01*
X168713478Y-106529060D01*
X168698607Y-106564962D01*
X168640508Y-106705225D01*
X168586288Y-106786371D01*
X168540414Y-106855026D01*
X168517612Y-106877828D01*
X168502066Y-106896770D01*
X168490515Y-106918381D01*
X168483402Y-106941830D01*
X168481000Y-106966216D01*
X168481000Y-109123000D01*
X167179000Y-109123000D01*
X167179000Y-106966216D01*
X167176598Y-106941830D01*
X167169485Y-106918381D01*
X167157934Y-106896770D01*
X167142388Y-106877828D01*
X167119586Y-106855026D01*
X167073712Y-106786371D01*
X167019492Y-106705225D01*
X166950548Y-106538779D01*
X166950547Y-106538776D01*
X166946525Y-106529067D01*
X166945487Y-106525645D01*
X166933937Y-106504033D01*
X166918392Y-106485091D01*
X166899451Y-106469544D01*
X166877840Y-106457992D01*
X166854392Y-106450878D01*
X166830005Y-106448475D01*
X166805619Y-106450876D01*
X166782170Y-106457988D01*
X166760558Y-106469538D01*
X166741616Y-106485083D01*
X166726069Y-106504024D01*
X166714517Y-106525635D01*
X166713478Y-106529060D01*
X166698607Y-106564962D01*
X166640508Y-106705225D01*
X166586288Y-106786371D01*
X166540414Y-106855026D01*
X166517612Y-106877828D01*
X166502066Y-106896770D01*
X166490515Y-106918381D01*
X166483402Y-106941830D01*
X166481000Y-106966216D01*
X166481000Y-109123000D01*
X165179000Y-109123000D01*
X165179000Y-106966216D01*
X165176598Y-106941830D01*
X165169485Y-106918381D01*
X165157934Y-106896770D01*
X165142388Y-106877828D01*
X165119586Y-106855026D01*
X165073712Y-106786371D01*
X165019492Y-106705225D01*
X164985083Y-106622155D01*
X164973534Y-106600547D01*
X164957988Y-106581605D01*
X164939046Y-106566060D01*
X164917435Y-106554509D01*
X164893986Y-106547396D01*
X164869600Y-106544994D01*
X164845213Y-106547396D01*
X164821764Y-106554509D01*
X164800153Y-106566060D01*
X164781211Y-106581606D01*
X164765666Y-106600548D01*
X164754115Y-106622159D01*
X164747002Y-106645608D01*
X164744600Y-106669994D01*
X164744600Y-107323000D01*
X164606000Y-107323000D01*
X164581614Y-107325402D01*
X164558165Y-107332515D01*
X164536554Y-107344066D01*
X164517612Y-107359612D01*
X164502066Y-107378554D01*
X164490515Y-107400165D01*
X164483402Y-107423614D01*
X164481000Y-107448000D01*
X164481000Y-109123000D01*
X163179000Y-109123000D01*
X163179000Y-107448000D01*
X163176598Y-107423614D01*
X163169485Y-107400165D01*
X163157934Y-107378554D01*
X163142388Y-107359612D01*
X163123446Y-107344066D01*
X163101835Y-107332515D01*
X163078386Y-107325402D01*
X163054000Y-107323000D01*
X162915400Y-107323000D01*
X162915400Y-105221000D01*
X164744600Y-105221000D01*
X164744600Y-105874006D01*
X164744600Y-105874006D01*
G37*
G36*
X151778562Y-107281181D02*
G01*
X151813477Y-107291773D01*
X151845665Y-107308978D01*
X151873873Y-107332127D01*
X151897022Y-107360335D01*
X151914227Y-107392523D01*
X151924819Y-107427438D01*
X151929000Y-107469895D01*
X151929000Y-108611105D01*
X151924819Y-108653562D01*
X151914227Y-108688477D01*
X151897022Y-108720665D01*
X151873873Y-108748873D01*
X151845665Y-108772022D01*
X151813477Y-108789227D01*
X151778562Y-108799819D01*
X151736105Y-108804000D01*
X150269895Y-108804000D01*
X150227438Y-108799819D01*
X150192523Y-108789227D01*
X150160335Y-108772022D01*
X150132127Y-108748873D01*
X150108978Y-108720665D01*
X150091773Y-108688477D01*
X150081181Y-108653562D01*
X150077000Y-108611105D01*
X150077000Y-107469895D01*
X150081181Y-107427438D01*
X150091773Y-107392523D01*
X150108978Y-107360335D01*
X150132127Y-107332127D01*
X150160335Y-107308978D01*
X150192523Y-107291773D01*
X150227438Y-107281181D01*
X150269895Y-107277000D01*
X151736105Y-107277000D01*
X151778562Y-107281181D01*
X151778562Y-107281181D01*
G37*
G36*
X127013562Y-106682181D02*
G01*
X127048477Y-106692773D01*
X127080665Y-106709978D01*
X127108873Y-106733127D01*
X127132022Y-106761335D01*
X127149227Y-106793523D01*
X127159819Y-106828438D01*
X127164000Y-106870895D01*
X127164000Y-108012105D01*
X127159819Y-108054562D01*
X127149227Y-108089477D01*
X127132022Y-108121665D01*
X127108873Y-108149873D01*
X127080665Y-108173022D01*
X127048477Y-108190227D01*
X127013562Y-108200819D01*
X126971105Y-108205000D01*
X125504895Y-108205000D01*
X125462438Y-108200819D01*
X125427523Y-108190227D01*
X125395335Y-108173022D01*
X125367127Y-108149873D01*
X125343978Y-108121665D01*
X125326773Y-108089477D01*
X125316181Y-108054562D01*
X125312000Y-108012105D01*
X125312000Y-106870895D01*
X125316181Y-106828438D01*
X125326773Y-106793523D01*
X125343978Y-106761335D01*
X125367127Y-106733127D01*
X125395335Y-106709978D01*
X125427523Y-106692773D01*
X125462438Y-106682181D01*
X125504895Y-106678000D01*
X126971105Y-106678000D01*
X127013562Y-106682181D01*
X127013562Y-106682181D01*
G37*
G36*
X123457562Y-106646181D02*
G01*
X123492477Y-106656773D01*
X123524665Y-106673978D01*
X123552873Y-106697127D01*
X123576022Y-106725335D01*
X123593227Y-106757523D01*
X123603819Y-106792438D01*
X123608000Y-106834895D01*
X123608000Y-107976105D01*
X123603819Y-108018562D01*
X123593227Y-108053477D01*
X123576022Y-108085665D01*
X123552873Y-108113873D01*
X123524665Y-108137022D01*
X123492477Y-108154227D01*
X123457562Y-108164819D01*
X123415105Y-108169000D01*
X121948895Y-108169000D01*
X121906438Y-108164819D01*
X121871523Y-108154227D01*
X121839335Y-108137022D01*
X121811127Y-108113873D01*
X121787978Y-108085665D01*
X121770773Y-108053477D01*
X121760181Y-108018562D01*
X121756000Y-107976105D01*
X121756000Y-106834895D01*
X121760181Y-106792438D01*
X121770773Y-106757523D01*
X121787978Y-106725335D01*
X121811127Y-106697127D01*
X121839335Y-106673978D01*
X121871523Y-106656773D01*
X121906438Y-106646181D01*
X121948895Y-106642000D01*
X123415105Y-106642000D01*
X123457562Y-106646181D01*
X123457562Y-106646181D01*
G37*
G36*
X155020677Y-106575465D02*
G01*
X155058364Y-106586898D01*
X155093103Y-106605466D01*
X155123548Y-106630452D01*
X155148534Y-106660897D01*
X155167102Y-106695636D01*
X155178535Y-106733323D01*
X155183000Y-106778661D01*
X155183000Y-107615339D01*
X155178535Y-107660677D01*
X155167102Y-107698364D01*
X155148534Y-107733103D01*
X155123548Y-107763548D01*
X155093103Y-107788534D01*
X155058364Y-107807102D01*
X155020677Y-107818535D01*
X154975339Y-107823000D01*
X153888661Y-107823000D01*
X153843323Y-107818535D01*
X153805636Y-107807102D01*
X153770897Y-107788534D01*
X153740452Y-107763548D01*
X153715466Y-107733103D01*
X153696898Y-107698364D01*
X153685465Y-107660677D01*
X153681000Y-107615339D01*
X153681000Y-106778661D01*
X153685465Y-106733323D01*
X153696898Y-106695636D01*
X153715466Y-106660897D01*
X153740452Y-106630452D01*
X153770897Y-106605466D01*
X153805636Y-106586898D01*
X153843323Y-106575465D01*
X153888661Y-106571000D01*
X154975339Y-106571000D01*
X155020677Y-106575465D01*
X155020677Y-106575465D01*
G37*
G36*
X145241677Y-106448465D02*
G01*
X145279364Y-106459898D01*
X145314103Y-106478466D01*
X145344548Y-106503452D01*
X145369534Y-106533897D01*
X145388102Y-106568636D01*
X145399535Y-106606323D01*
X145404000Y-106651661D01*
X145404000Y-107488339D01*
X145399535Y-107533677D01*
X145388102Y-107571364D01*
X145369534Y-107606103D01*
X145344548Y-107636548D01*
X145314103Y-107661534D01*
X145279364Y-107680102D01*
X145241677Y-107691535D01*
X145196339Y-107696000D01*
X144109661Y-107696000D01*
X144064323Y-107691535D01*
X144026636Y-107680102D01*
X143991897Y-107661534D01*
X143961452Y-107636548D01*
X143936466Y-107606103D01*
X143917898Y-107571364D01*
X143906465Y-107533677D01*
X143902000Y-107488339D01*
X143902000Y-106651661D01*
X143906465Y-106606323D01*
X143917898Y-106568636D01*
X143936466Y-106533897D01*
X143961452Y-106503452D01*
X143991897Y-106478466D01*
X144026636Y-106459898D01*
X144064323Y-106448465D01*
X144109661Y-106444000D01*
X145196339Y-106444000D01*
X145241677Y-106448465D01*
X145241677Y-106448465D01*
G37*
G36*
X147400677Y-106448465D02*
G01*
X147438364Y-106459898D01*
X147473103Y-106478466D01*
X147503548Y-106503452D01*
X147528534Y-106533897D01*
X147547102Y-106568636D01*
X147558535Y-106606323D01*
X147563000Y-106651661D01*
X147563000Y-107488339D01*
X147558535Y-107533677D01*
X147547102Y-107571364D01*
X147528534Y-107606103D01*
X147503548Y-107636548D01*
X147473103Y-107661534D01*
X147438364Y-107680102D01*
X147400677Y-107691535D01*
X147355339Y-107696000D01*
X146268661Y-107696000D01*
X146223323Y-107691535D01*
X146185636Y-107680102D01*
X146150897Y-107661534D01*
X146120452Y-107636548D01*
X146095466Y-107606103D01*
X146076898Y-107571364D01*
X146065465Y-107533677D01*
X146061000Y-107488339D01*
X146061000Y-106651661D01*
X146065465Y-106606323D01*
X146076898Y-106568636D01*
X146095466Y-106533897D01*
X146120452Y-106503452D01*
X146150897Y-106478466D01*
X146185636Y-106459898D01*
X146223323Y-106448465D01*
X146268661Y-106444000D01*
X147355339Y-106444000D01*
X147400677Y-106448465D01*
X147400677Y-106448465D01*
G37*
G36*
X143082677Y-106448465D02*
G01*
X143120364Y-106459898D01*
X143155103Y-106478466D01*
X143185548Y-106503452D01*
X143210534Y-106533897D01*
X143229102Y-106568636D01*
X143240535Y-106606323D01*
X143245000Y-106651661D01*
X143245000Y-107488339D01*
X143240535Y-107533677D01*
X143229102Y-107571364D01*
X143210534Y-107606103D01*
X143185548Y-107636548D01*
X143155103Y-107661534D01*
X143120364Y-107680102D01*
X143082677Y-107691535D01*
X143037339Y-107696000D01*
X141950661Y-107696000D01*
X141905323Y-107691535D01*
X141867636Y-107680102D01*
X141832897Y-107661534D01*
X141802452Y-107636548D01*
X141777466Y-107606103D01*
X141758898Y-107571364D01*
X141747465Y-107533677D01*
X141743000Y-107488339D01*
X141743000Y-106651661D01*
X141747465Y-106606323D01*
X141758898Y-106568636D01*
X141777466Y-106533897D01*
X141802452Y-106503452D01*
X141832897Y-106478466D01*
X141867636Y-106459898D01*
X141905323Y-106448465D01*
X141950661Y-106444000D01*
X143037339Y-106444000D01*
X143082677Y-106448465D01*
X143082677Y-106448465D01*
G37*
G36*
X119042000Y-107677000D02*
G01*
X117490000Y-107677000D01*
X117490000Y-105175000D01*
X119042000Y-105175000D01*
X119042000Y-107677000D01*
X119042000Y-107677000D01*
G37*
G36*
X113142000Y-107677000D02*
G01*
X111590000Y-107677000D01*
X111590000Y-105175000D01*
X113142000Y-105175000D01*
X113142000Y-107677000D01*
X113142000Y-107677000D01*
G37*
G36*
X159651000Y-107581000D02*
G01*
X157849000Y-107581000D01*
X157849000Y-105779000D01*
X159651000Y-105779000D01*
X159651000Y-107581000D01*
X159651000Y-107581000D01*
G37*
G36*
X151778562Y-104306181D02*
G01*
X151813477Y-104316773D01*
X151845665Y-104333978D01*
X151873873Y-104357127D01*
X151897022Y-104385335D01*
X151914227Y-104417523D01*
X151924819Y-104452438D01*
X151929000Y-104494895D01*
X151929000Y-105636105D01*
X151924819Y-105678562D01*
X151914227Y-105713477D01*
X151897022Y-105745665D01*
X151873873Y-105773873D01*
X151845665Y-105797022D01*
X151813477Y-105814227D01*
X151778562Y-105824819D01*
X151736105Y-105829000D01*
X150269895Y-105829000D01*
X150227438Y-105824819D01*
X150192523Y-105814227D01*
X150160335Y-105797022D01*
X150132127Y-105773873D01*
X150108978Y-105745665D01*
X150091773Y-105713477D01*
X150081181Y-105678562D01*
X150077000Y-105636105D01*
X150077000Y-104494895D01*
X150081181Y-104452438D01*
X150091773Y-104417523D01*
X150108978Y-104385335D01*
X150132127Y-104357127D01*
X150160335Y-104333978D01*
X150192523Y-104316773D01*
X150227438Y-104306181D01*
X150269895Y-104302000D01*
X151736105Y-104302000D01*
X151778562Y-104306181D01*
X151778562Y-104306181D01*
G37*
G36*
X155020677Y-104525465D02*
G01*
X155058364Y-104536898D01*
X155093103Y-104555466D01*
X155123548Y-104580452D01*
X155148534Y-104610897D01*
X155167102Y-104645636D01*
X155178535Y-104683323D01*
X155183000Y-104728661D01*
X155183000Y-105565339D01*
X155178535Y-105610677D01*
X155167102Y-105648364D01*
X155148534Y-105683103D01*
X155123548Y-105713548D01*
X155093103Y-105738534D01*
X155058364Y-105757102D01*
X155020677Y-105768535D01*
X154975339Y-105773000D01*
X153888661Y-105773000D01*
X153843323Y-105768535D01*
X153805636Y-105757102D01*
X153770897Y-105738534D01*
X153740452Y-105713548D01*
X153715466Y-105683103D01*
X153696898Y-105648364D01*
X153685465Y-105610677D01*
X153681000Y-105565339D01*
X153681000Y-104728661D01*
X153685465Y-104683323D01*
X153696898Y-104645636D01*
X153715466Y-104610897D01*
X153740452Y-104580452D01*
X153770897Y-104555466D01*
X153805636Y-104536898D01*
X153843323Y-104525465D01*
X153888661Y-104521000D01*
X154975339Y-104521000D01*
X155020677Y-104525465D01*
X155020677Y-104525465D01*
G37*
G36*
X145241677Y-104398465D02*
G01*
X145279364Y-104409898D01*
X145314103Y-104428466D01*
X145344548Y-104453452D01*
X145369534Y-104483897D01*
X145388102Y-104518636D01*
X145399535Y-104556323D01*
X145404000Y-104601661D01*
X145404000Y-105438339D01*
X145399535Y-105483677D01*
X145388102Y-105521364D01*
X145369534Y-105556103D01*
X145344548Y-105586548D01*
X145314103Y-105611534D01*
X145279364Y-105630102D01*
X145241677Y-105641535D01*
X145196339Y-105646000D01*
X144109661Y-105646000D01*
X144064323Y-105641535D01*
X144026636Y-105630102D01*
X143991897Y-105611534D01*
X143961452Y-105586548D01*
X143936466Y-105556103D01*
X143917898Y-105521364D01*
X143906465Y-105483677D01*
X143902000Y-105438339D01*
X143902000Y-104601661D01*
X143906465Y-104556323D01*
X143917898Y-104518636D01*
X143936466Y-104483897D01*
X143961452Y-104453452D01*
X143991897Y-104428466D01*
X144026636Y-104409898D01*
X144064323Y-104398465D01*
X144109661Y-104394000D01*
X145196339Y-104394000D01*
X145241677Y-104398465D01*
X145241677Y-104398465D01*
G37*
G36*
X143082677Y-104398465D02*
G01*
X143120364Y-104409898D01*
X143155103Y-104428466D01*
X143185548Y-104453452D01*
X143210534Y-104483897D01*
X143229102Y-104518636D01*
X143240535Y-104556323D01*
X143245000Y-104601661D01*
X143245000Y-105438339D01*
X143240535Y-105483677D01*
X143229102Y-105521364D01*
X143210534Y-105556103D01*
X143185548Y-105586548D01*
X143155103Y-105611534D01*
X143120364Y-105630102D01*
X143082677Y-105641535D01*
X143037339Y-105646000D01*
X141950661Y-105646000D01*
X141905323Y-105641535D01*
X141867636Y-105630102D01*
X141832897Y-105611534D01*
X141802452Y-105586548D01*
X141777466Y-105556103D01*
X141758898Y-105521364D01*
X141747465Y-105483677D01*
X141743000Y-105438339D01*
X141743000Y-104601661D01*
X141747465Y-104556323D01*
X141758898Y-104518636D01*
X141777466Y-104483897D01*
X141802452Y-104453452D01*
X141832897Y-104428466D01*
X141867636Y-104409898D01*
X141905323Y-104398465D01*
X141950661Y-104394000D01*
X143037339Y-104394000D01*
X143082677Y-104398465D01*
X143082677Y-104398465D01*
G37*
G36*
X147400677Y-104398465D02*
G01*
X147438364Y-104409898D01*
X147473103Y-104428466D01*
X147503548Y-104453452D01*
X147528534Y-104483897D01*
X147547102Y-104518636D01*
X147558535Y-104556323D01*
X147563000Y-104601661D01*
X147563000Y-105438339D01*
X147558535Y-105483677D01*
X147547102Y-105521364D01*
X147528534Y-105556103D01*
X147503548Y-105586548D01*
X147473103Y-105611534D01*
X147438364Y-105630102D01*
X147400677Y-105641535D01*
X147355339Y-105646000D01*
X146268661Y-105646000D01*
X146223323Y-105641535D01*
X146185636Y-105630102D01*
X146150897Y-105611534D01*
X146120452Y-105586548D01*
X146095466Y-105556103D01*
X146076898Y-105521364D01*
X146065465Y-105483677D01*
X146061000Y-105438339D01*
X146061000Y-104601661D01*
X146065465Y-104556323D01*
X146076898Y-104518636D01*
X146095466Y-104483897D01*
X146120452Y-104453452D01*
X146150897Y-104428466D01*
X146185636Y-104409898D01*
X146223323Y-104398465D01*
X146268661Y-104394000D01*
X147355339Y-104394000D01*
X147400677Y-104398465D01*
X147400677Y-104398465D01*
G37*
G36*
X127013562Y-103707181D02*
G01*
X127048477Y-103717773D01*
X127080665Y-103734978D01*
X127108873Y-103758127D01*
X127132022Y-103786335D01*
X127149227Y-103818523D01*
X127159819Y-103853438D01*
X127164000Y-103895895D01*
X127164000Y-105037105D01*
X127159819Y-105079562D01*
X127149227Y-105114477D01*
X127132022Y-105146665D01*
X127108873Y-105174873D01*
X127080665Y-105198022D01*
X127048477Y-105215227D01*
X127013562Y-105225819D01*
X126971105Y-105230000D01*
X125504895Y-105230000D01*
X125462438Y-105225819D01*
X125427523Y-105215227D01*
X125395335Y-105198022D01*
X125367127Y-105174873D01*
X125343978Y-105146665D01*
X125326773Y-105114477D01*
X125316181Y-105079562D01*
X125312000Y-105037105D01*
X125312000Y-103895895D01*
X125316181Y-103853438D01*
X125326773Y-103818523D01*
X125343978Y-103786335D01*
X125367127Y-103758127D01*
X125395335Y-103734978D01*
X125427523Y-103717773D01*
X125462438Y-103707181D01*
X125504895Y-103703000D01*
X126971105Y-103703000D01*
X127013562Y-103707181D01*
X127013562Y-103707181D01*
G37*
G36*
X123457562Y-103671181D02*
G01*
X123492477Y-103681773D01*
X123524665Y-103698978D01*
X123552873Y-103722127D01*
X123576022Y-103750335D01*
X123593227Y-103782523D01*
X123603819Y-103817438D01*
X123608000Y-103859895D01*
X123608000Y-105001105D01*
X123603819Y-105043562D01*
X123593227Y-105078477D01*
X123576022Y-105110665D01*
X123552873Y-105138873D01*
X123524665Y-105162022D01*
X123492477Y-105179227D01*
X123457562Y-105189819D01*
X123415105Y-105194000D01*
X121948895Y-105194000D01*
X121906438Y-105189819D01*
X121871523Y-105179227D01*
X121839335Y-105162022D01*
X121811127Y-105138873D01*
X121787978Y-105110665D01*
X121770773Y-105078477D01*
X121760181Y-105043562D01*
X121756000Y-105001105D01*
X121756000Y-103859895D01*
X121760181Y-103817438D01*
X121770773Y-103782523D01*
X121787978Y-103750335D01*
X121811127Y-103722127D01*
X121839335Y-103698978D01*
X121871523Y-103681773D01*
X121906438Y-103671181D01*
X121948895Y-103667000D01*
X123415105Y-103667000D01*
X123457562Y-103671181D01*
X123457562Y-103671181D01*
G37*
G36*
X158860443Y-103245519D02*
G01*
X158926627Y-103252037D01*
X159039853Y-103286384D01*
X159096467Y-103303557D01*
X159235087Y-103377652D01*
X159252991Y-103387222D01*
X159288729Y-103416552D01*
X159390186Y-103499814D01*
X159473448Y-103601271D01*
X159502778Y-103637009D01*
X159502779Y-103637011D01*
X159586443Y-103793533D01*
X159586443Y-103793534D01*
X159637963Y-103963373D01*
X159655359Y-104140000D01*
X159637963Y-104316627D01*
X159608207Y-104414718D01*
X159586443Y-104486467D01*
X159536206Y-104580452D01*
X159502778Y-104642991D01*
X159500607Y-104645636D01*
X159390186Y-104780186D01*
X159289082Y-104863159D01*
X159252991Y-104892778D01*
X159252989Y-104892779D01*
X159096467Y-104976443D01*
X159039853Y-104993616D01*
X158926627Y-105027963D01*
X158860442Y-105034482D01*
X158794260Y-105041000D01*
X158705740Y-105041000D01*
X158639557Y-105034481D01*
X158573373Y-105027963D01*
X158460147Y-104993616D01*
X158403533Y-104976443D01*
X158247011Y-104892779D01*
X158247009Y-104892778D01*
X158210918Y-104863159D01*
X158109814Y-104780186D01*
X157999393Y-104645636D01*
X157997222Y-104642991D01*
X157963794Y-104580452D01*
X157913557Y-104486467D01*
X157891793Y-104414718D01*
X157862037Y-104316627D01*
X157844641Y-104140000D01*
X157862037Y-103963373D01*
X157913557Y-103793534D01*
X157913557Y-103793533D01*
X157997221Y-103637011D01*
X157997222Y-103637009D01*
X158026552Y-103601271D01*
X158109814Y-103499814D01*
X158211271Y-103416552D01*
X158247009Y-103387222D01*
X158264913Y-103377652D01*
X158403533Y-103303557D01*
X158460147Y-103286384D01*
X158573373Y-103252037D01*
X158639558Y-103245518D01*
X158705740Y-103239000D01*
X158794260Y-103239000D01*
X158860443Y-103245519D01*
X158860443Y-103245519D01*
G37*
G36*
X110249562Y-102836181D02*
G01*
X110284477Y-102846773D01*
X110316665Y-102863978D01*
X110344873Y-102887127D01*
X110368022Y-102915335D01*
X110385227Y-102947523D01*
X110395819Y-102982438D01*
X110400000Y-103024895D01*
X110400000Y-104166105D01*
X110395819Y-104208562D01*
X110385227Y-104243477D01*
X110368022Y-104275665D01*
X110344873Y-104303873D01*
X110316665Y-104327022D01*
X110284477Y-104344227D01*
X110249562Y-104354819D01*
X110207105Y-104359000D01*
X108740895Y-104359000D01*
X108698438Y-104354819D01*
X108663523Y-104344227D01*
X108631335Y-104327022D01*
X108603127Y-104303873D01*
X108579978Y-104275665D01*
X108562773Y-104243477D01*
X108552181Y-104208562D01*
X108548000Y-104166105D01*
X108548000Y-103024895D01*
X108552181Y-102982438D01*
X108562773Y-102947523D01*
X108579978Y-102915335D01*
X108603127Y-102887127D01*
X108631335Y-102863978D01*
X108663523Y-102846773D01*
X108698438Y-102836181D01*
X108740895Y-102832000D01*
X110207105Y-102832000D01*
X110249562Y-102836181D01*
X110249562Y-102836181D01*
G37*
G36*
X133021294Y-102476633D02*
G01*
X133193694Y-102528931D01*
X133193696Y-102528932D01*
X133352583Y-102613859D01*
X133491849Y-102728151D01*
X133606141Y-102867417D01*
X133690315Y-103024895D01*
X133691069Y-103026306D01*
X133743367Y-103198706D01*
X133761025Y-103378000D01*
X133743367Y-103557294D01*
X133691069Y-103729694D01*
X133691068Y-103729696D01*
X133606141Y-103888583D01*
X133491849Y-104027849D01*
X133352583Y-104142141D01*
X133256265Y-104193624D01*
X133193694Y-104227069D01*
X133021294Y-104279367D01*
X132886931Y-104292600D01*
X132797069Y-104292600D01*
X132662706Y-104279367D01*
X132490306Y-104227069D01*
X132427735Y-104193624D01*
X132331417Y-104142141D01*
X132192151Y-104027849D01*
X132077859Y-103888583D01*
X131992932Y-103729696D01*
X131992931Y-103729694D01*
X131940633Y-103557294D01*
X131922975Y-103378000D01*
X131940633Y-103198706D01*
X131992931Y-103026306D01*
X131993685Y-103024895D01*
X132077859Y-102867417D01*
X132192151Y-102728151D01*
X132331417Y-102613859D01*
X132490304Y-102528932D01*
X132490306Y-102528931D01*
X132662706Y-102476633D01*
X132797069Y-102463400D01*
X132886931Y-102463400D01*
X133021294Y-102476633D01*
X133021294Y-102476633D01*
G37*
G36*
X136296600Y-104292600D02*
G01*
X134467400Y-104292600D01*
X134467400Y-102463400D01*
X136296600Y-102463400D01*
X136296600Y-104292600D01*
X136296600Y-104292600D01*
G37*
G36*
X149938000Y-103653000D02*
G01*
X143686000Y-103653000D01*
X143686000Y-101951000D01*
X149938000Y-101951000D01*
X149938000Y-103653000D01*
X149938000Y-103653000D01*
G37*
G36*
X158860443Y-100705519D02*
G01*
X158926627Y-100712037D01*
X159038341Y-100745925D01*
X159096467Y-100763557D01*
X159169654Y-100802677D01*
X159252991Y-100847222D01*
X159286964Y-100875103D01*
X159390186Y-100959814D01*
X159473448Y-101061271D01*
X159502778Y-101097009D01*
X159502779Y-101097011D01*
X159586443Y-101253533D01*
X159586443Y-101253534D01*
X159637963Y-101423373D01*
X159655359Y-101600000D01*
X159637963Y-101776627D01*
X159603616Y-101889853D01*
X159586443Y-101946467D01*
X159584020Y-101951000D01*
X159502778Y-102102991D01*
X159473448Y-102138729D01*
X159390186Y-102240186D01*
X159288729Y-102323448D01*
X159252991Y-102352778D01*
X159252989Y-102352779D01*
X159096467Y-102436443D01*
X159039853Y-102453616D01*
X158926627Y-102487963D01*
X158860442Y-102494482D01*
X158794260Y-102501000D01*
X158705740Y-102501000D01*
X158639558Y-102494482D01*
X158573373Y-102487963D01*
X158460147Y-102453616D01*
X158403533Y-102436443D01*
X158247011Y-102352779D01*
X158247009Y-102352778D01*
X158211271Y-102323448D01*
X158109814Y-102240186D01*
X158026552Y-102138729D01*
X157997222Y-102102991D01*
X157915980Y-101951000D01*
X157913557Y-101946467D01*
X157896384Y-101889853D01*
X157862037Y-101776627D01*
X157844641Y-101600000D01*
X157862037Y-101423373D01*
X157913557Y-101253534D01*
X157913557Y-101253533D01*
X157997221Y-101097011D01*
X157997222Y-101097009D01*
X158026552Y-101061271D01*
X158109814Y-100959814D01*
X158213036Y-100875103D01*
X158247009Y-100847222D01*
X158330346Y-100802677D01*
X158403533Y-100763557D01*
X158461659Y-100745925D01*
X158573373Y-100712037D01*
X158639557Y-100705519D01*
X158705740Y-100699000D01*
X158794260Y-100699000D01*
X158860443Y-100705519D01*
X158860443Y-100705519D01*
G37*
G36*
X122117000Y-102466000D02*
G01*
X121215000Y-102466000D01*
X121215000Y-101464000D01*
X122117000Y-101464000D01*
X122117000Y-102466000D01*
X122117000Y-102466000D01*
G37*
G36*
X127835000Y-102466000D02*
G01*
X126333000Y-102466000D01*
X126333000Y-101364000D01*
X127835000Y-101364000D01*
X127835000Y-102466000D01*
X127835000Y-102466000D01*
G37*
G36*
X115626000Y-102003000D02*
G01*
X112974000Y-102003000D01*
X112974000Y-100341000D01*
X115626000Y-100341000D01*
X115626000Y-102003000D01*
X115626000Y-102003000D01*
G37*
G36*
X133021294Y-99936633D02*
G01*
X133193694Y-99988931D01*
X133193696Y-99988932D01*
X133352583Y-100073859D01*
X133491849Y-100188151D01*
X133606141Y-100327417D01*
X133680215Y-100466000D01*
X133691069Y-100486306D01*
X133743367Y-100658706D01*
X133761025Y-100838000D01*
X133743367Y-101017294D01*
X133691069Y-101189694D01*
X133691068Y-101189696D01*
X133606141Y-101348583D01*
X133491849Y-101487849D01*
X133352583Y-101602141D01*
X133210661Y-101678000D01*
X133193694Y-101687069D01*
X133021294Y-101739367D01*
X132886931Y-101752600D01*
X132797069Y-101752600D01*
X132662706Y-101739367D01*
X132490306Y-101687069D01*
X132473339Y-101678000D01*
X132331417Y-101602141D01*
X132192151Y-101487849D01*
X132077859Y-101348583D01*
X131992932Y-101189696D01*
X131992931Y-101189694D01*
X131940633Y-101017294D01*
X131922975Y-100838000D01*
X131940633Y-100658706D01*
X131992931Y-100486306D01*
X132003785Y-100466000D01*
X132077859Y-100327417D01*
X132192151Y-100188151D01*
X132331417Y-100073859D01*
X132490304Y-99988932D01*
X132490306Y-99988931D01*
X132662706Y-99936633D01*
X132797069Y-99923400D01*
X132886931Y-99923400D01*
X133021294Y-99936633D01*
X133021294Y-99936633D01*
G37*
G36*
X135561294Y-99936633D02*
G01*
X135733694Y-99988931D01*
X135733696Y-99988932D01*
X135892583Y-100073859D01*
X136031849Y-100188151D01*
X136146141Y-100327417D01*
X136220215Y-100466000D01*
X136231069Y-100486306D01*
X136283367Y-100658706D01*
X136301025Y-100838000D01*
X136283367Y-101017294D01*
X136231069Y-101189694D01*
X136231068Y-101189696D01*
X136146141Y-101348583D01*
X136031849Y-101487849D01*
X135892583Y-101602141D01*
X135750661Y-101678000D01*
X135733694Y-101687069D01*
X135561294Y-101739367D01*
X135426931Y-101752600D01*
X135337069Y-101752600D01*
X135202706Y-101739367D01*
X135030306Y-101687069D01*
X135013339Y-101678000D01*
X134871417Y-101602141D01*
X134732151Y-101487849D01*
X134617859Y-101348583D01*
X134532932Y-101189696D01*
X134532931Y-101189694D01*
X134480633Y-101017294D01*
X134462975Y-100838000D01*
X134480633Y-100658706D01*
X134532931Y-100486306D01*
X134543785Y-100466000D01*
X134617859Y-100327417D01*
X134732151Y-100188151D01*
X134871417Y-100073859D01*
X135030304Y-99988932D01*
X135030306Y-99988931D01*
X135202706Y-99936633D01*
X135337069Y-99923400D01*
X135426931Y-99923400D01*
X135561294Y-99936633D01*
X135561294Y-99936633D01*
G37*
G36*
X143413000Y-101678000D02*
G01*
X141711000Y-101678000D01*
X141711000Y-95426000D01*
X143413000Y-95426000D01*
X143413000Y-101678000D01*
X143413000Y-101678000D01*
G37*
G36*
X151913000Y-101678000D02*
G01*
X150211000Y-101678000D01*
X150211000Y-95426000D01*
X151913000Y-95426000D01*
X151913000Y-101678000D01*
X151913000Y-101678000D01*
G37*
G36*
X125635000Y-101516000D02*
G01*
X124133000Y-101516000D01*
X124133000Y-100414000D01*
X125635000Y-100414000D01*
X125635000Y-101516000D01*
X125635000Y-101516000D01*
G37*
G36*
X110249562Y-99861181D02*
G01*
X110284477Y-99871773D01*
X110316665Y-99888978D01*
X110344873Y-99912127D01*
X110368022Y-99940335D01*
X110385227Y-99972523D01*
X110395819Y-100007438D01*
X110400000Y-100049895D01*
X110400000Y-101191105D01*
X110395819Y-101233562D01*
X110385227Y-101268477D01*
X110368022Y-101300665D01*
X110344873Y-101328873D01*
X110316665Y-101352022D01*
X110284477Y-101369227D01*
X110249562Y-101379819D01*
X110207105Y-101384000D01*
X108740895Y-101384000D01*
X108698438Y-101379819D01*
X108663523Y-101369227D01*
X108631335Y-101352022D01*
X108603127Y-101328873D01*
X108579978Y-101300665D01*
X108562773Y-101268477D01*
X108552181Y-101233562D01*
X108548000Y-101191105D01*
X108548000Y-100049895D01*
X108552181Y-100007438D01*
X108562773Y-99972523D01*
X108579978Y-99940335D01*
X108603127Y-99912127D01*
X108631335Y-99888978D01*
X108663523Y-99871773D01*
X108698438Y-99861181D01*
X108740895Y-99857000D01*
X110207105Y-99857000D01*
X110249562Y-99861181D01*
X110249562Y-99861181D01*
G37*
G36*
X155274677Y-99717465D02*
G01*
X155312364Y-99728898D01*
X155347103Y-99747466D01*
X155377548Y-99772452D01*
X155402534Y-99802897D01*
X155421102Y-99837636D01*
X155432535Y-99875323D01*
X155437000Y-99920661D01*
X155437000Y-100757339D01*
X155432535Y-100802677D01*
X155421102Y-100840364D01*
X155402534Y-100875103D01*
X155377548Y-100905548D01*
X155347103Y-100930534D01*
X155312364Y-100949102D01*
X155274677Y-100960535D01*
X155229339Y-100965000D01*
X154142661Y-100965000D01*
X154097323Y-100960535D01*
X154059636Y-100949102D01*
X154024897Y-100930534D01*
X153994452Y-100905548D01*
X153969466Y-100875103D01*
X153950898Y-100840364D01*
X153939465Y-100802677D01*
X153935000Y-100757339D01*
X153935000Y-99920661D01*
X153939465Y-99875323D01*
X153950898Y-99837636D01*
X153969466Y-99802897D01*
X153994452Y-99772452D01*
X154024897Y-99747466D01*
X154059636Y-99728898D01*
X154097323Y-99717465D01*
X154142661Y-99713000D01*
X155229339Y-99713000D01*
X155274677Y-99717465D01*
X155274677Y-99717465D01*
G37*
G36*
X127835000Y-100566000D02*
G01*
X126333000Y-100566000D01*
X126333000Y-99464000D01*
X127835000Y-99464000D01*
X127835000Y-100566000D01*
X127835000Y-100566000D01*
G37*
G36*
X123067000Y-100466000D02*
G01*
X122165000Y-100466000D01*
X122165000Y-99464000D01*
X123067000Y-99464000D01*
X123067000Y-100466000D01*
X123067000Y-100466000D01*
G37*
G36*
X121167000Y-100466000D02*
G01*
X120265000Y-100466000D01*
X120265000Y-99464000D01*
X121167000Y-99464000D01*
X121167000Y-100466000D01*
X121167000Y-100466000D01*
G37*
G36*
X158860443Y-98165519D02*
G01*
X158926627Y-98172037D01*
X159039853Y-98206384D01*
X159096467Y-98223557D01*
X159235087Y-98297652D01*
X159252991Y-98307222D01*
X159288729Y-98336552D01*
X159390186Y-98419814D01*
X159437937Y-98478000D01*
X159502778Y-98557009D01*
X159502779Y-98557011D01*
X159586443Y-98713533D01*
X159586443Y-98713534D01*
X159637963Y-98883373D01*
X159655359Y-99060000D01*
X159637963Y-99236627D01*
X159617829Y-99303000D01*
X159586443Y-99406467D01*
X159512348Y-99545087D01*
X159502778Y-99562991D01*
X159473448Y-99598729D01*
X159390186Y-99700186D01*
X159318679Y-99758869D01*
X159252991Y-99812778D01*
X159252989Y-99812779D01*
X159096467Y-99896443D01*
X159044763Y-99912127D01*
X158926627Y-99947963D01*
X158860443Y-99954481D01*
X158794260Y-99961000D01*
X158705740Y-99961000D01*
X158639557Y-99954481D01*
X158573373Y-99947963D01*
X158455237Y-99912127D01*
X158403533Y-99896443D01*
X158247011Y-99812779D01*
X158247009Y-99812778D01*
X158181321Y-99758869D01*
X158109814Y-99700186D01*
X158026552Y-99598729D01*
X157997222Y-99562991D01*
X157987652Y-99545087D01*
X157913557Y-99406467D01*
X157882171Y-99303000D01*
X157862037Y-99236627D01*
X157844641Y-99060000D01*
X157862037Y-98883373D01*
X157913557Y-98713534D01*
X157913557Y-98713533D01*
X157997221Y-98557011D01*
X157997222Y-98557009D01*
X158062063Y-98478000D01*
X158109814Y-98419814D01*
X158211271Y-98336552D01*
X158247009Y-98307222D01*
X158264913Y-98297652D01*
X158403533Y-98223557D01*
X158460147Y-98206384D01*
X158573373Y-98172037D01*
X158639557Y-98165519D01*
X158705740Y-98159000D01*
X158794260Y-98159000D01*
X158860443Y-98165519D01*
X158860443Y-98165519D01*
G37*
G36*
X115626000Y-99303000D02*
G01*
X112974000Y-99303000D01*
X112974000Y-97641000D01*
X115626000Y-97641000D01*
X115626000Y-99303000D01*
X115626000Y-99303000D01*
G37*
G36*
X135561294Y-97396633D02*
G01*
X135733694Y-97448931D01*
X135733696Y-97448932D01*
X135892583Y-97533859D01*
X136031849Y-97648151D01*
X136146141Y-97787417D01*
X136190636Y-97870661D01*
X136231069Y-97946306D01*
X136283367Y-98118706D01*
X136301025Y-98298000D01*
X136283367Y-98477294D01*
X136233152Y-98642827D01*
X136231068Y-98649696D01*
X136146141Y-98808583D01*
X136031849Y-98947849D01*
X135892583Y-99062141D01*
X135733696Y-99147068D01*
X135733694Y-99147069D01*
X135561294Y-99199367D01*
X135426931Y-99212600D01*
X135337069Y-99212600D01*
X135202706Y-99199367D01*
X135030306Y-99147069D01*
X135030304Y-99147068D01*
X134871417Y-99062141D01*
X134732151Y-98947849D01*
X134617859Y-98808583D01*
X134532932Y-98649696D01*
X134530848Y-98642827D01*
X134480633Y-98477294D01*
X134462975Y-98298000D01*
X134480633Y-98118706D01*
X134532931Y-97946306D01*
X134573364Y-97870661D01*
X134617859Y-97787417D01*
X134732151Y-97648151D01*
X134871417Y-97533859D01*
X135030304Y-97448932D01*
X135030306Y-97448931D01*
X135202706Y-97396633D01*
X135337069Y-97383400D01*
X135426931Y-97383400D01*
X135561294Y-97396633D01*
X135561294Y-97396633D01*
G37*
G36*
X133021294Y-97396633D02*
G01*
X133193694Y-97448931D01*
X133193696Y-97448932D01*
X133352583Y-97533859D01*
X133491849Y-97648151D01*
X133606141Y-97787417D01*
X133650636Y-97870661D01*
X133691069Y-97946306D01*
X133743367Y-98118706D01*
X133761025Y-98298000D01*
X133743367Y-98477294D01*
X133693152Y-98642827D01*
X133691068Y-98649696D01*
X133606141Y-98808583D01*
X133491849Y-98947849D01*
X133352583Y-99062141D01*
X133193696Y-99147068D01*
X133193694Y-99147069D01*
X133021294Y-99199367D01*
X132886931Y-99212600D01*
X132797069Y-99212600D01*
X132662706Y-99199367D01*
X132490306Y-99147069D01*
X132490304Y-99147068D01*
X132331417Y-99062141D01*
X132192151Y-98947849D01*
X132077859Y-98808583D01*
X131992932Y-98649696D01*
X131990848Y-98642827D01*
X131940633Y-98477294D01*
X131922975Y-98298000D01*
X131940633Y-98118706D01*
X131992931Y-97946306D01*
X132033364Y-97870661D01*
X132077859Y-97787417D01*
X132192151Y-97648151D01*
X132331417Y-97533859D01*
X132490304Y-97448932D01*
X132490306Y-97448931D01*
X132662706Y-97396633D01*
X132797069Y-97383400D01*
X132886931Y-97383400D01*
X133021294Y-97396633D01*
X133021294Y-97396633D01*
G37*
G36*
X155274677Y-97667465D02*
G01*
X155312364Y-97678898D01*
X155347103Y-97697466D01*
X155377548Y-97722452D01*
X155402534Y-97752897D01*
X155421102Y-97787636D01*
X155432535Y-97825323D01*
X155437000Y-97870661D01*
X155437000Y-98707339D01*
X155432535Y-98752677D01*
X155421102Y-98790364D01*
X155402534Y-98825103D01*
X155377548Y-98855548D01*
X155347103Y-98880534D01*
X155312364Y-98899102D01*
X155274677Y-98910535D01*
X155229339Y-98915000D01*
X154142661Y-98915000D01*
X154097323Y-98910535D01*
X154059636Y-98899102D01*
X154024897Y-98880534D01*
X153994452Y-98855548D01*
X153969466Y-98825103D01*
X153950898Y-98790364D01*
X153939465Y-98752677D01*
X153935000Y-98707339D01*
X153935000Y-97870661D01*
X153939465Y-97825323D01*
X153950898Y-97787636D01*
X153969466Y-97752897D01*
X153994452Y-97722452D01*
X154024897Y-97697466D01*
X154059636Y-97678898D01*
X154097323Y-97667465D01*
X154142661Y-97663000D01*
X155229339Y-97663000D01*
X155274677Y-97667465D01*
X155274677Y-97667465D01*
G37*
G36*
X158860442Y-95625518D02*
G01*
X158926627Y-95632037D01*
X159039119Y-95666161D01*
X159096467Y-95683557D01*
X159233164Y-95756624D01*
X159252991Y-95767222D01*
X159258279Y-95771562D01*
X159390186Y-95879814D01*
X159461729Y-95966991D01*
X159502778Y-96017009D01*
X159502779Y-96017011D01*
X159586443Y-96173533D01*
X159586443Y-96173534D01*
X159637963Y-96343373D01*
X159655359Y-96520000D01*
X159637963Y-96696627D01*
X159603616Y-96809853D01*
X159586443Y-96866467D01*
X159580278Y-96878000D01*
X159502778Y-97022991D01*
X159473448Y-97058729D01*
X159390186Y-97160186D01*
X159288729Y-97243448D01*
X159252991Y-97272778D01*
X159252989Y-97272779D01*
X159096467Y-97356443D01*
X159039853Y-97373616D01*
X158926627Y-97407963D01*
X158860442Y-97414482D01*
X158794260Y-97421000D01*
X158705740Y-97421000D01*
X158639558Y-97414482D01*
X158573373Y-97407963D01*
X158460147Y-97373616D01*
X158403533Y-97356443D01*
X158247011Y-97272779D01*
X158247009Y-97272778D01*
X158211271Y-97243448D01*
X158109814Y-97160186D01*
X158026552Y-97058729D01*
X157997222Y-97022991D01*
X157919722Y-96878000D01*
X157913557Y-96866467D01*
X157896384Y-96809853D01*
X157862037Y-96696627D01*
X157844641Y-96520000D01*
X157862037Y-96343373D01*
X157913557Y-96173534D01*
X157913557Y-96173533D01*
X157997221Y-96017011D01*
X157997222Y-96017009D01*
X158038271Y-95966991D01*
X158109814Y-95879814D01*
X158241721Y-95771562D01*
X158247009Y-95767222D01*
X158266836Y-95756624D01*
X158403533Y-95683557D01*
X158460881Y-95666161D01*
X158573373Y-95632037D01*
X158639558Y-95625518D01*
X158705740Y-95619000D01*
X158794260Y-95619000D01*
X158860442Y-95625518D01*
X158860442Y-95625518D01*
G37*
G36*
X111586677Y-95907465D02*
G01*
X111624364Y-95918898D01*
X111659103Y-95937466D01*
X111689548Y-95962452D01*
X111714534Y-95992897D01*
X111733102Y-96027636D01*
X111744535Y-96065323D01*
X111749000Y-96110661D01*
X111749000Y-96947339D01*
X111744535Y-96992677D01*
X111733102Y-97030364D01*
X111714534Y-97065103D01*
X111689548Y-97095548D01*
X111659103Y-97120534D01*
X111624364Y-97139102D01*
X111586677Y-97150535D01*
X111541339Y-97155000D01*
X110454661Y-97155000D01*
X110409323Y-97150535D01*
X110371636Y-97139102D01*
X110336897Y-97120534D01*
X110306452Y-97095548D01*
X110281466Y-97065103D01*
X110262898Y-97030364D01*
X110251465Y-96992677D01*
X110247000Y-96947339D01*
X110247000Y-96110661D01*
X110251465Y-96065323D01*
X110262898Y-96027636D01*
X110281466Y-95992897D01*
X110306452Y-95962452D01*
X110336897Y-95937466D01*
X110371636Y-95918898D01*
X110409323Y-95907465D01*
X110454661Y-95903000D01*
X111541339Y-95903000D01*
X111586677Y-95907465D01*
X111586677Y-95907465D01*
G37*
G36*
X155592177Y-95462965D02*
G01*
X155629864Y-95474398D01*
X155664603Y-95492966D01*
X155695048Y-95517952D01*
X155720034Y-95548397D01*
X155738602Y-95583136D01*
X155750035Y-95620823D01*
X155754500Y-95666161D01*
X155754500Y-96502839D01*
X155750035Y-96548177D01*
X155738602Y-96585864D01*
X155720034Y-96620603D01*
X155695048Y-96651048D01*
X155664603Y-96676034D01*
X155629864Y-96694602D01*
X155592177Y-96706035D01*
X155546839Y-96710500D01*
X154460161Y-96710500D01*
X154414823Y-96706035D01*
X154377136Y-96694602D01*
X154342397Y-96676034D01*
X154311952Y-96651048D01*
X154286966Y-96620603D01*
X154268398Y-96585864D01*
X154256965Y-96548177D01*
X154252500Y-96502839D01*
X154252500Y-95666161D01*
X154256965Y-95620823D01*
X154268398Y-95583136D01*
X154286966Y-95548397D01*
X154311952Y-95517952D01*
X154342397Y-95492966D01*
X154377136Y-95474398D01*
X154414823Y-95462965D01*
X154460161Y-95458500D01*
X155546839Y-95458500D01*
X155592177Y-95462965D01*
X155592177Y-95462965D01*
G37*
G36*
X106686442Y-94569518D02*
G01*
X106752627Y-94576037D01*
X106835077Y-94601048D01*
X106922467Y-94627557D01*
X106984098Y-94660500D01*
X107078991Y-94711222D01*
X107105257Y-94732778D01*
X107216186Y-94823814D01*
X107299448Y-94925271D01*
X107328778Y-94961009D01*
X107328779Y-94961011D01*
X107412443Y-95117533D01*
X107429616Y-95174147D01*
X107463963Y-95287373D01*
X107481359Y-95464000D01*
X107463963Y-95640627D01*
X107436648Y-95730673D01*
X107412443Y-95810467D01*
X107352826Y-95922000D01*
X107328778Y-95966991D01*
X107315871Y-95982718D01*
X107216186Y-96104186D01*
X107114729Y-96187448D01*
X107078991Y-96216778D01*
X107078989Y-96216779D01*
X106922467Y-96300443D01*
X106865853Y-96317616D01*
X106752627Y-96351963D01*
X106686443Y-96358481D01*
X106620260Y-96365000D01*
X106231740Y-96365000D01*
X106165557Y-96358481D01*
X106099373Y-96351963D01*
X105986147Y-96317616D01*
X105929533Y-96300443D01*
X105773011Y-96216779D01*
X105773009Y-96216778D01*
X105737271Y-96187448D01*
X105635814Y-96104186D01*
X105536129Y-95982718D01*
X105523222Y-95966991D01*
X105499174Y-95922000D01*
X105439557Y-95810467D01*
X105415352Y-95730673D01*
X105388037Y-95640627D01*
X105370641Y-95464000D01*
X105388037Y-95287373D01*
X105422384Y-95174147D01*
X105439557Y-95117533D01*
X105523221Y-94961011D01*
X105523222Y-94961009D01*
X105552552Y-94925271D01*
X105635814Y-94823814D01*
X105746743Y-94732778D01*
X105773009Y-94711222D01*
X105867902Y-94660500D01*
X105929533Y-94627557D01*
X106016923Y-94601048D01*
X106099373Y-94576037D01*
X106165558Y-94569518D01*
X106231740Y-94563000D01*
X106620260Y-94563000D01*
X106686442Y-94569518D01*
X106686442Y-94569518D01*
G37*
G36*
X123766562Y-94074181D02*
G01*
X123801477Y-94084773D01*
X123833665Y-94101978D01*
X123861873Y-94125127D01*
X123885022Y-94153335D01*
X123902227Y-94185523D01*
X123912819Y-94220438D01*
X123917000Y-94262895D01*
X123917000Y-95729105D01*
X123912819Y-95771562D01*
X123902227Y-95806477D01*
X123885022Y-95838665D01*
X123861873Y-95866873D01*
X123833665Y-95890022D01*
X123801477Y-95907227D01*
X123766562Y-95917819D01*
X123724105Y-95922000D01*
X122582895Y-95922000D01*
X122540438Y-95917819D01*
X122505523Y-95907227D01*
X122473335Y-95890022D01*
X122445127Y-95866873D01*
X122421978Y-95838665D01*
X122404773Y-95806477D01*
X122394181Y-95771562D01*
X122390000Y-95729105D01*
X122390000Y-94262895D01*
X122394181Y-94220438D01*
X122404773Y-94185523D01*
X122421978Y-94153335D01*
X122445127Y-94125127D01*
X122473335Y-94101978D01*
X122505523Y-94084773D01*
X122540438Y-94074181D01*
X122582895Y-94070000D01*
X123724105Y-94070000D01*
X123766562Y-94074181D01*
X123766562Y-94074181D01*
G37*
G36*
X118178562Y-94074181D02*
G01*
X118213477Y-94084773D01*
X118245665Y-94101978D01*
X118273873Y-94125127D01*
X118297022Y-94153335D01*
X118314227Y-94185523D01*
X118324819Y-94220438D01*
X118329000Y-94262895D01*
X118329000Y-95729105D01*
X118324819Y-95771562D01*
X118314227Y-95806477D01*
X118297022Y-95838665D01*
X118273873Y-95866873D01*
X118245665Y-95890022D01*
X118213477Y-95907227D01*
X118178562Y-95917819D01*
X118136105Y-95922000D01*
X116994895Y-95922000D01*
X116952438Y-95917819D01*
X116917523Y-95907227D01*
X116885335Y-95890022D01*
X116857127Y-95866873D01*
X116833978Y-95838665D01*
X116816773Y-95806477D01*
X116806181Y-95771562D01*
X116802000Y-95729105D01*
X116802000Y-94262895D01*
X116806181Y-94220438D01*
X116816773Y-94185523D01*
X116833978Y-94153335D01*
X116857127Y-94125127D01*
X116885335Y-94101978D01*
X116917523Y-94084773D01*
X116952438Y-94074181D01*
X116994895Y-94070000D01*
X118136105Y-94070000D01*
X118178562Y-94074181D01*
X118178562Y-94074181D01*
G37*
G36*
X115203562Y-94074181D02*
G01*
X115238477Y-94084773D01*
X115270665Y-94101978D01*
X115298873Y-94125127D01*
X115322022Y-94153335D01*
X115339227Y-94185523D01*
X115349819Y-94220438D01*
X115354000Y-94262895D01*
X115354000Y-95729105D01*
X115349819Y-95771562D01*
X115339227Y-95806477D01*
X115322022Y-95838665D01*
X115298873Y-95866873D01*
X115270665Y-95890022D01*
X115238477Y-95907227D01*
X115203562Y-95917819D01*
X115161105Y-95922000D01*
X114019895Y-95922000D01*
X113977438Y-95917819D01*
X113942523Y-95907227D01*
X113910335Y-95890022D01*
X113882127Y-95866873D01*
X113858978Y-95838665D01*
X113841773Y-95806477D01*
X113831181Y-95771562D01*
X113827000Y-95729105D01*
X113827000Y-94262895D01*
X113831181Y-94220438D01*
X113841773Y-94185523D01*
X113858978Y-94153335D01*
X113882127Y-94125127D01*
X113910335Y-94101978D01*
X113942523Y-94084773D01*
X113977438Y-94074181D01*
X114019895Y-94070000D01*
X115161105Y-94070000D01*
X115203562Y-94074181D01*
X115203562Y-94074181D01*
G37*
G36*
X120791562Y-94074181D02*
G01*
X120826477Y-94084773D01*
X120858665Y-94101978D01*
X120886873Y-94125127D01*
X120910022Y-94153335D01*
X120927227Y-94185523D01*
X120937819Y-94220438D01*
X120942000Y-94262895D01*
X120942000Y-95729105D01*
X120937819Y-95771562D01*
X120927227Y-95806477D01*
X120910022Y-95838665D01*
X120886873Y-95866873D01*
X120858665Y-95890022D01*
X120826477Y-95907227D01*
X120791562Y-95917819D01*
X120749105Y-95922000D01*
X119607895Y-95922000D01*
X119565438Y-95917819D01*
X119530523Y-95907227D01*
X119498335Y-95890022D01*
X119470127Y-95866873D01*
X119446978Y-95838665D01*
X119429773Y-95806477D01*
X119419181Y-95771562D01*
X119415000Y-95729105D01*
X119415000Y-94262895D01*
X119419181Y-94220438D01*
X119429773Y-94185523D01*
X119446978Y-94153335D01*
X119470127Y-94125127D01*
X119498335Y-94101978D01*
X119530523Y-94084773D01*
X119565438Y-94074181D01*
X119607895Y-94070000D01*
X120749105Y-94070000D01*
X120791562Y-94074181D01*
X120791562Y-94074181D01*
G37*
G36*
X149938000Y-95153000D02*
G01*
X143686000Y-95153000D01*
X143686000Y-93451000D01*
X149938000Y-93451000D01*
X149938000Y-95153000D01*
X149938000Y-95153000D01*
G37*
G36*
X111586677Y-93857465D02*
G01*
X111624364Y-93868898D01*
X111659103Y-93887466D01*
X111689548Y-93912452D01*
X111714534Y-93942897D01*
X111733102Y-93977636D01*
X111744535Y-94015323D01*
X111749000Y-94060661D01*
X111749000Y-94897339D01*
X111744535Y-94942677D01*
X111733102Y-94980364D01*
X111714534Y-95015103D01*
X111689548Y-95045548D01*
X111659103Y-95070534D01*
X111624364Y-95089102D01*
X111586677Y-95100535D01*
X111541339Y-95105000D01*
X110454661Y-95105000D01*
X110409323Y-95100535D01*
X110371636Y-95089102D01*
X110336897Y-95070534D01*
X110306452Y-95045548D01*
X110281466Y-95015103D01*
X110262898Y-94980364D01*
X110251465Y-94942677D01*
X110247000Y-94897339D01*
X110247000Y-94060661D01*
X110251465Y-94015323D01*
X110262898Y-93977636D01*
X110281466Y-93942897D01*
X110306452Y-93912452D01*
X110336897Y-93887466D01*
X110371636Y-93868898D01*
X110409323Y-93857465D01*
X110454661Y-93853000D01*
X111541339Y-93853000D01*
X111586677Y-93857465D01*
X111586677Y-93857465D01*
G37*
G36*
X158860443Y-93085519D02*
G01*
X158926627Y-93092037D01*
X159039853Y-93126384D01*
X159096467Y-93143557D01*
X159235087Y-93217652D01*
X159252991Y-93227222D01*
X159288729Y-93256552D01*
X159390186Y-93339814D01*
X159450846Y-93413730D01*
X159502778Y-93477009D01*
X159502779Y-93477011D01*
X159586443Y-93633533D01*
X159586443Y-93633534D01*
X159637963Y-93803373D01*
X159655359Y-93980000D01*
X159637963Y-94156627D01*
X159628124Y-94189061D01*
X159586443Y-94326467D01*
X159524996Y-94441425D01*
X159502778Y-94482991D01*
X159494988Y-94492483D01*
X159390186Y-94620186D01*
X159288729Y-94703448D01*
X159252991Y-94732778D01*
X159252989Y-94732779D01*
X159096467Y-94816443D01*
X159072164Y-94823815D01*
X158926627Y-94867963D01*
X158860443Y-94874481D01*
X158794260Y-94881000D01*
X158705740Y-94881000D01*
X158639557Y-94874481D01*
X158573373Y-94867963D01*
X158427836Y-94823815D01*
X158403533Y-94816443D01*
X158247011Y-94732779D01*
X158247009Y-94732778D01*
X158211271Y-94703448D01*
X158109814Y-94620186D01*
X158005012Y-94492483D01*
X157997222Y-94482991D01*
X157975004Y-94441425D01*
X157913557Y-94326467D01*
X157871876Y-94189061D01*
X157862037Y-94156627D01*
X157844641Y-93980000D01*
X157862037Y-93803373D01*
X157913557Y-93633534D01*
X157913557Y-93633533D01*
X157997221Y-93477011D01*
X157997222Y-93477009D01*
X158049154Y-93413730D01*
X158109814Y-93339814D01*
X158211271Y-93256552D01*
X158247009Y-93227222D01*
X158264913Y-93217652D01*
X158403533Y-93143557D01*
X158460147Y-93126384D01*
X158573373Y-93092037D01*
X158639557Y-93085519D01*
X158705740Y-93079000D01*
X158794260Y-93079000D01*
X158860443Y-93085519D01*
X158860443Y-93085519D01*
G37*
G36*
X155592177Y-93412965D02*
G01*
X155629864Y-93424398D01*
X155664603Y-93442966D01*
X155695048Y-93467952D01*
X155720034Y-93498397D01*
X155738602Y-93533136D01*
X155750035Y-93570823D01*
X155754500Y-93616161D01*
X155754500Y-94452839D01*
X155750035Y-94498177D01*
X155738602Y-94535864D01*
X155720034Y-94570603D01*
X155695048Y-94601048D01*
X155664603Y-94626034D01*
X155629864Y-94644602D01*
X155592177Y-94656035D01*
X155546839Y-94660500D01*
X154460161Y-94660500D01*
X154414823Y-94656035D01*
X154377136Y-94644602D01*
X154342397Y-94626034D01*
X154311952Y-94601048D01*
X154286966Y-94570603D01*
X154268398Y-94535864D01*
X154256965Y-94498177D01*
X154252500Y-94452839D01*
X154252500Y-93616161D01*
X154256965Y-93570823D01*
X154268398Y-93533136D01*
X154286966Y-93498397D01*
X154311952Y-93467952D01*
X154342397Y-93442966D01*
X154377136Y-93424398D01*
X154414823Y-93412965D01*
X154460161Y-93408500D01*
X155546839Y-93408500D01*
X155592177Y-93412965D01*
X155592177Y-93412965D01*
G37*
G36*
X107334600Y-92066989D02*
G01*
X107367649Y-92077014D01*
X107398106Y-92093294D01*
X107424799Y-92115201D01*
X107446706Y-92141894D01*
X107462986Y-92172351D01*
X107473011Y-92205400D01*
X107477000Y-92245904D01*
X107477000Y-93682096D01*
X107473011Y-93722600D01*
X107462986Y-93755649D01*
X107446706Y-93786106D01*
X107424799Y-93812799D01*
X107398106Y-93834706D01*
X107367649Y-93850986D01*
X107334600Y-93861011D01*
X107294096Y-93865000D01*
X105557904Y-93865000D01*
X105517400Y-93861011D01*
X105484351Y-93850986D01*
X105453894Y-93834706D01*
X105427201Y-93812799D01*
X105405294Y-93786106D01*
X105389014Y-93755649D01*
X105378989Y-93722600D01*
X105375000Y-93682096D01*
X105375000Y-92245904D01*
X105378989Y-92205400D01*
X105389014Y-92172351D01*
X105405294Y-92141894D01*
X105427201Y-92115201D01*
X105453894Y-92093294D01*
X105484351Y-92077014D01*
X105517400Y-92066989D01*
X105557904Y-92063000D01*
X107294096Y-92063000D01*
X107334600Y-92066989D01*
X107334600Y-92066989D01*
G37*
G36*
X147901677Y-90185465D02*
G01*
X147939364Y-90196898D01*
X147974103Y-90215466D01*
X148004548Y-90240452D01*
X148029534Y-90270897D01*
X148048102Y-90305636D01*
X148059535Y-90343323D01*
X148064000Y-90388661D01*
X148064000Y-91475339D01*
X148059535Y-91520677D01*
X148048102Y-91558364D01*
X148029534Y-91593103D01*
X148004548Y-91623548D01*
X147974103Y-91648534D01*
X147939364Y-91667102D01*
X147901677Y-91678535D01*
X147856339Y-91683000D01*
X147019661Y-91683000D01*
X146974323Y-91678535D01*
X146936636Y-91667102D01*
X146901897Y-91648534D01*
X146871452Y-91623548D01*
X146846466Y-91593103D01*
X146827898Y-91558364D01*
X146816465Y-91520677D01*
X146812000Y-91475339D01*
X146812000Y-90388661D01*
X146816465Y-90343323D01*
X146827898Y-90305636D01*
X146846466Y-90270897D01*
X146871452Y-90240452D01*
X146901897Y-90215466D01*
X146936636Y-90196898D01*
X146974323Y-90185465D01*
X147019661Y-90181000D01*
X147856339Y-90181000D01*
X147901677Y-90185465D01*
X147901677Y-90185465D01*
G37*
G36*
X149951677Y-90185465D02*
G01*
X149989364Y-90196898D01*
X150024103Y-90215466D01*
X150054548Y-90240452D01*
X150079534Y-90270897D01*
X150098102Y-90305636D01*
X150109535Y-90343323D01*
X150114000Y-90388661D01*
X150114000Y-91475339D01*
X150109535Y-91520677D01*
X150098102Y-91558364D01*
X150079534Y-91593103D01*
X150054548Y-91623548D01*
X150024103Y-91648534D01*
X149989364Y-91667102D01*
X149951677Y-91678535D01*
X149906339Y-91683000D01*
X149069661Y-91683000D01*
X149024323Y-91678535D01*
X148986636Y-91667102D01*
X148951897Y-91648534D01*
X148921452Y-91623548D01*
X148896466Y-91593103D01*
X148877898Y-91558364D01*
X148866465Y-91520677D01*
X148862000Y-91475339D01*
X148862000Y-90388661D01*
X148866465Y-90343323D01*
X148877898Y-90305636D01*
X148896466Y-90270897D01*
X148921452Y-90240452D01*
X148951897Y-90215466D01*
X148986636Y-90196898D01*
X149024323Y-90185465D01*
X149069661Y-90181000D01*
X149906339Y-90181000D01*
X149951677Y-90185465D01*
X149951677Y-90185465D01*
G37*
G36*
X117742562Y-90136181D02*
G01*
X117777477Y-90146773D01*
X117809665Y-90163978D01*
X117837873Y-90187127D01*
X117861022Y-90215335D01*
X117878227Y-90247523D01*
X117888819Y-90282438D01*
X117893000Y-90324895D01*
X117893000Y-91466105D01*
X117888819Y-91508562D01*
X117878227Y-91543477D01*
X117861022Y-91575665D01*
X117837873Y-91603873D01*
X117809665Y-91627022D01*
X117777477Y-91644227D01*
X117742562Y-91654819D01*
X117700105Y-91659000D01*
X116233895Y-91659000D01*
X116191438Y-91654819D01*
X116156523Y-91644227D01*
X116124335Y-91627022D01*
X116096127Y-91603873D01*
X116072978Y-91575665D01*
X116055773Y-91543477D01*
X116045181Y-91508562D01*
X116041000Y-91466105D01*
X116041000Y-90324895D01*
X116045181Y-90282438D01*
X116055773Y-90247523D01*
X116072978Y-90215335D01*
X116096127Y-90187127D01*
X116124335Y-90163978D01*
X116156523Y-90146773D01*
X116191438Y-90136181D01*
X116233895Y-90132000D01*
X117700105Y-90132000D01*
X117742562Y-90136181D01*
X117742562Y-90136181D01*
G37*
G36*
X142781643Y-88637781D02*
G01*
X142927415Y-88698162D01*
X143058611Y-88785824D01*
X143170176Y-88897389D01*
X143257838Y-89028585D01*
X143318219Y-89174357D01*
X143349000Y-89329107D01*
X143349000Y-89486893D01*
X143318219Y-89641643D01*
X143257838Y-89787415D01*
X143170176Y-89918611D01*
X143058611Y-90030176D01*
X142927415Y-90117838D01*
X142781643Y-90178219D01*
X142626893Y-90209000D01*
X142469107Y-90209000D01*
X142314357Y-90178219D01*
X142168585Y-90117838D01*
X142037389Y-90030176D01*
X141925824Y-89918611D01*
X141838162Y-89787415D01*
X141777781Y-89641643D01*
X141747000Y-89486893D01*
X141747000Y-89329107D01*
X141777781Y-89174357D01*
X141838162Y-89028585D01*
X141925824Y-88897389D01*
X142037389Y-88785824D01*
X142168585Y-88698162D01*
X142314357Y-88637781D01*
X142469107Y-88607000D01*
X142626893Y-88607000D01*
X142781643Y-88637781D01*
X142781643Y-88637781D01*
G37*
G36*
X137901643Y-88637781D02*
G01*
X138047415Y-88698162D01*
X138178611Y-88785824D01*
X138290176Y-88897389D01*
X138377838Y-89028585D01*
X138438219Y-89174357D01*
X138469000Y-89329107D01*
X138469000Y-89486893D01*
X138438219Y-89641643D01*
X138377838Y-89787415D01*
X138290176Y-89918611D01*
X138178611Y-90030176D01*
X138047415Y-90117838D01*
X137901643Y-90178219D01*
X137746893Y-90209000D01*
X137589107Y-90209000D01*
X137434357Y-90178219D01*
X137288585Y-90117838D01*
X137157389Y-90030176D01*
X137045824Y-89918611D01*
X136958162Y-89787415D01*
X136897781Y-89641643D01*
X136867000Y-89486893D01*
X136867000Y-89329107D01*
X136897781Y-89174357D01*
X136958162Y-89028585D01*
X137045824Y-88897389D01*
X137157389Y-88785824D01*
X137288585Y-88698162D01*
X137434357Y-88637781D01*
X137589107Y-88607000D01*
X137746893Y-88607000D01*
X137901643Y-88637781D01*
X137901643Y-88637781D01*
G37*
G36*
X164481000Y-88477784D02*
G01*
X164483402Y-88502170D01*
X164490515Y-88525619D01*
X164502066Y-88547230D01*
X164517612Y-88566172D01*
X164540414Y-88588974D01*
X164540416Y-88588977D01*
X164640508Y-88738775D01*
X164659639Y-88784962D01*
X164713475Y-88914933D01*
X164714513Y-88918355D01*
X164726063Y-88939967D01*
X164741608Y-88958909D01*
X164760549Y-88974456D01*
X164782160Y-88986008D01*
X164805608Y-88993122D01*
X164829995Y-88995525D01*
X164854381Y-88993124D01*
X164877830Y-88986012D01*
X164899442Y-88974462D01*
X164918384Y-88958917D01*
X164933931Y-88939976D01*
X164945483Y-88918365D01*
X164946522Y-88914940D01*
X165000361Y-88784962D01*
X165019492Y-88738775D01*
X165119584Y-88588977D01*
X165119586Y-88588974D01*
X165142388Y-88566172D01*
X165157934Y-88547230D01*
X165169485Y-88525619D01*
X165176598Y-88502170D01*
X165179000Y-88477784D01*
X165179000Y-86321000D01*
X166481000Y-86321000D01*
X166481000Y-88477784D01*
X166483402Y-88502170D01*
X166490515Y-88525619D01*
X166502066Y-88547230D01*
X166517612Y-88566172D01*
X166540414Y-88588974D01*
X166540416Y-88588977D01*
X166640508Y-88738775D01*
X166659639Y-88784962D01*
X166713475Y-88914933D01*
X166714513Y-88918355D01*
X166726063Y-88939967D01*
X166741608Y-88958909D01*
X166760549Y-88974456D01*
X166782160Y-88986008D01*
X166805608Y-88993122D01*
X166829995Y-88995525D01*
X166854381Y-88993124D01*
X166877830Y-88986012D01*
X166899442Y-88974462D01*
X166918384Y-88958917D01*
X166933931Y-88939976D01*
X166945483Y-88918365D01*
X166946522Y-88914940D01*
X167000361Y-88784962D01*
X167019492Y-88738775D01*
X167119584Y-88588977D01*
X167119586Y-88588974D01*
X167142388Y-88566172D01*
X167157934Y-88547230D01*
X167169485Y-88525619D01*
X167176598Y-88502170D01*
X167179000Y-88477784D01*
X167179000Y-86321000D01*
X168481000Y-86321000D01*
X168481000Y-88477784D01*
X168483402Y-88502170D01*
X168490515Y-88525619D01*
X168502066Y-88547230D01*
X168517612Y-88566172D01*
X168540414Y-88588974D01*
X168540416Y-88588977D01*
X168640508Y-88738775D01*
X168659639Y-88784962D01*
X168713475Y-88914933D01*
X168714513Y-88918355D01*
X168726063Y-88939967D01*
X168741608Y-88958909D01*
X168760549Y-88974456D01*
X168782160Y-88986008D01*
X168805608Y-88993122D01*
X168829995Y-88995525D01*
X168854381Y-88993124D01*
X168877830Y-88986012D01*
X168899442Y-88974462D01*
X168918384Y-88958917D01*
X168933931Y-88939976D01*
X168945483Y-88918365D01*
X168946522Y-88914940D01*
X169000361Y-88784962D01*
X169019492Y-88738775D01*
X169119584Y-88588977D01*
X169119586Y-88588974D01*
X169142388Y-88566172D01*
X169157934Y-88547230D01*
X169169485Y-88525619D01*
X169176598Y-88502170D01*
X169179000Y-88477784D01*
X169179000Y-86321000D01*
X170481000Y-86321000D01*
X170481000Y-88477784D01*
X170483402Y-88502170D01*
X170490515Y-88525619D01*
X170502066Y-88547230D01*
X170517612Y-88566172D01*
X170540414Y-88588974D01*
X170540416Y-88588977D01*
X170640508Y-88738775D01*
X170659639Y-88784962D01*
X170713475Y-88914933D01*
X170714513Y-88918355D01*
X170726063Y-88939967D01*
X170741608Y-88958909D01*
X170760549Y-88974456D01*
X170782160Y-88986008D01*
X170805608Y-88993122D01*
X170829995Y-88995525D01*
X170854381Y-88993124D01*
X170877830Y-88986012D01*
X170899442Y-88974462D01*
X170918384Y-88958917D01*
X170933931Y-88939976D01*
X170945483Y-88918365D01*
X170946522Y-88914940D01*
X171000361Y-88784962D01*
X171019492Y-88738775D01*
X171119584Y-88588977D01*
X171119586Y-88588974D01*
X171142388Y-88566172D01*
X171157934Y-88547230D01*
X171169485Y-88525619D01*
X171176598Y-88502170D01*
X171179000Y-88477784D01*
X171179000Y-86321000D01*
X172481000Y-86321000D01*
X172481000Y-88477784D01*
X172483402Y-88502170D01*
X172490515Y-88525619D01*
X172502066Y-88547230D01*
X172517612Y-88566172D01*
X172540414Y-88588974D01*
X172540416Y-88588977D01*
X172640508Y-88738775D01*
X172659639Y-88784962D01*
X172713475Y-88914933D01*
X172714513Y-88918355D01*
X172726063Y-88939967D01*
X172741608Y-88958909D01*
X172760549Y-88974456D01*
X172782160Y-88986008D01*
X172805608Y-88993122D01*
X172829995Y-88995525D01*
X172854381Y-88993124D01*
X172877830Y-88986012D01*
X172899442Y-88974462D01*
X172918384Y-88958917D01*
X172933931Y-88939976D01*
X172945483Y-88918365D01*
X172946522Y-88914940D01*
X173000361Y-88784962D01*
X173019492Y-88738775D01*
X173119584Y-88588977D01*
X173119586Y-88588974D01*
X173142388Y-88566172D01*
X173157934Y-88547230D01*
X173169485Y-88525619D01*
X173176598Y-88502170D01*
X173179000Y-88477784D01*
X173179000Y-86321000D01*
X174481000Y-86321000D01*
X174481000Y-88477784D01*
X174483402Y-88502170D01*
X174490515Y-88525619D01*
X174502066Y-88547230D01*
X174517612Y-88566172D01*
X174540414Y-88588974D01*
X174540416Y-88588977D01*
X174640508Y-88738775D01*
X174659639Y-88784962D01*
X174713475Y-88914933D01*
X174714513Y-88918355D01*
X174726063Y-88939967D01*
X174741608Y-88958909D01*
X174760549Y-88974456D01*
X174782160Y-88986008D01*
X174805608Y-88993122D01*
X174829995Y-88995525D01*
X174854381Y-88993124D01*
X174877830Y-88986012D01*
X174899442Y-88974462D01*
X174918384Y-88958917D01*
X174933931Y-88939976D01*
X174945483Y-88918365D01*
X174946522Y-88914940D01*
X175000361Y-88784962D01*
X175019492Y-88738775D01*
X175119584Y-88588977D01*
X175119586Y-88588974D01*
X175142388Y-88566172D01*
X175157934Y-88547230D01*
X175169485Y-88525619D01*
X175176598Y-88502170D01*
X175179000Y-88477784D01*
X175179000Y-86321000D01*
X176481000Y-86321000D01*
X176481000Y-88477784D01*
X176483402Y-88502170D01*
X176490515Y-88525619D01*
X176502066Y-88547230D01*
X176517612Y-88566172D01*
X176540414Y-88588974D01*
X176540416Y-88588977D01*
X176640508Y-88738775D01*
X176659639Y-88784962D01*
X176713475Y-88914933D01*
X176714513Y-88918355D01*
X176726063Y-88939967D01*
X176741608Y-88958909D01*
X176760549Y-88974456D01*
X176782160Y-88986008D01*
X176805608Y-88993122D01*
X176829995Y-88995525D01*
X176854381Y-88993124D01*
X176877830Y-88986012D01*
X176899442Y-88974462D01*
X176918384Y-88958917D01*
X176933931Y-88939976D01*
X176945483Y-88918365D01*
X176946522Y-88914940D01*
X177000361Y-88784962D01*
X177019492Y-88738775D01*
X177119584Y-88588977D01*
X177119586Y-88588974D01*
X177142388Y-88566172D01*
X177157934Y-88547230D01*
X177169485Y-88525619D01*
X177176598Y-88502170D01*
X177179000Y-88477784D01*
X177179000Y-86321000D01*
X178481000Y-86321000D01*
X178481000Y-88477784D01*
X178483402Y-88502170D01*
X178490515Y-88525619D01*
X178502066Y-88547230D01*
X178517612Y-88566172D01*
X178540414Y-88588974D01*
X178540416Y-88588977D01*
X178640508Y-88738775D01*
X178659639Y-88784962D01*
X178709453Y-88905224D01*
X178744600Y-89081918D01*
X178744600Y-89262082D01*
X178710383Y-89434103D01*
X178709452Y-89438779D01*
X178640508Y-89605225D01*
X178640507Y-89605226D01*
X178540414Y-89755026D01*
X178413026Y-89882414D01*
X178413023Y-89882416D01*
X178263225Y-89982508D01*
X178096779Y-90051452D01*
X178096778Y-90051452D01*
X178096776Y-90051453D01*
X177920082Y-90086600D01*
X177739918Y-90086600D01*
X177563224Y-90051453D01*
X177563222Y-90051452D01*
X177563221Y-90051452D01*
X177396775Y-89982508D01*
X177246977Y-89882416D01*
X177246974Y-89882414D01*
X177119586Y-89755026D01*
X177019493Y-89605226D01*
X177019492Y-89605225D01*
X176950548Y-89438779D01*
X176950547Y-89438776D01*
X176946525Y-89429067D01*
X176945487Y-89425645D01*
X176933937Y-89404033D01*
X176918392Y-89385091D01*
X176899451Y-89369544D01*
X176877840Y-89357992D01*
X176854392Y-89350878D01*
X176830005Y-89348475D01*
X176805619Y-89350876D01*
X176782170Y-89357988D01*
X176760558Y-89369538D01*
X176741616Y-89385083D01*
X176726069Y-89404024D01*
X176714517Y-89425635D01*
X176713478Y-89429060D01*
X176709453Y-89438776D01*
X176709452Y-89438779D01*
X176640508Y-89605225D01*
X176640507Y-89605226D01*
X176540414Y-89755026D01*
X176413026Y-89882414D01*
X176413023Y-89882416D01*
X176263225Y-89982508D01*
X176096779Y-90051452D01*
X176096778Y-90051452D01*
X176096776Y-90051453D01*
X175920082Y-90086600D01*
X175739918Y-90086600D01*
X175563224Y-90051453D01*
X175563222Y-90051452D01*
X175563221Y-90051452D01*
X175396775Y-89982508D01*
X175246977Y-89882416D01*
X175246974Y-89882414D01*
X175119586Y-89755026D01*
X175019493Y-89605226D01*
X175019492Y-89605225D01*
X174950548Y-89438779D01*
X174950547Y-89438776D01*
X174946525Y-89429067D01*
X174945487Y-89425645D01*
X174933937Y-89404033D01*
X174918392Y-89385091D01*
X174899451Y-89369544D01*
X174877840Y-89357992D01*
X174854392Y-89350878D01*
X174830005Y-89348475D01*
X174805619Y-89350876D01*
X174782170Y-89357988D01*
X174760558Y-89369538D01*
X174741616Y-89385083D01*
X174726069Y-89404024D01*
X174714517Y-89425635D01*
X174713478Y-89429060D01*
X174709453Y-89438776D01*
X174709452Y-89438779D01*
X174640508Y-89605225D01*
X174640507Y-89605226D01*
X174540414Y-89755026D01*
X174413026Y-89882414D01*
X174413023Y-89882416D01*
X174263225Y-89982508D01*
X174096779Y-90051452D01*
X174096778Y-90051452D01*
X174096776Y-90051453D01*
X173920082Y-90086600D01*
X173739918Y-90086600D01*
X173563224Y-90051453D01*
X173563222Y-90051452D01*
X173563221Y-90051452D01*
X173396775Y-89982508D01*
X173246977Y-89882416D01*
X173246974Y-89882414D01*
X173119586Y-89755026D01*
X173019493Y-89605226D01*
X173019492Y-89605225D01*
X172950548Y-89438779D01*
X172950547Y-89438776D01*
X172946525Y-89429067D01*
X172945487Y-89425645D01*
X172933937Y-89404033D01*
X172918392Y-89385091D01*
X172899451Y-89369544D01*
X172877840Y-89357992D01*
X172854392Y-89350878D01*
X172830005Y-89348475D01*
X172805619Y-89350876D01*
X172782170Y-89357988D01*
X172760558Y-89369538D01*
X172741616Y-89385083D01*
X172726069Y-89404024D01*
X172714517Y-89425635D01*
X172713478Y-89429060D01*
X172709453Y-89438776D01*
X172709452Y-89438779D01*
X172640508Y-89605225D01*
X172640507Y-89605226D01*
X172540414Y-89755026D01*
X172413026Y-89882414D01*
X172413023Y-89882416D01*
X172263225Y-89982508D01*
X172096779Y-90051452D01*
X172096778Y-90051452D01*
X172096776Y-90051453D01*
X171920082Y-90086600D01*
X171739918Y-90086600D01*
X171563224Y-90051453D01*
X171563222Y-90051452D01*
X171563221Y-90051452D01*
X171396775Y-89982508D01*
X171246977Y-89882416D01*
X171246974Y-89882414D01*
X171119586Y-89755026D01*
X171019493Y-89605226D01*
X171019492Y-89605225D01*
X170950548Y-89438779D01*
X170950547Y-89438776D01*
X170946525Y-89429067D01*
X170945487Y-89425645D01*
X170933937Y-89404033D01*
X170918392Y-89385091D01*
X170899451Y-89369544D01*
X170877840Y-89357992D01*
X170854392Y-89350878D01*
X170830005Y-89348475D01*
X170805619Y-89350876D01*
X170782170Y-89357988D01*
X170760558Y-89369538D01*
X170741616Y-89385083D01*
X170726069Y-89404024D01*
X170714517Y-89425635D01*
X170713478Y-89429060D01*
X170709453Y-89438776D01*
X170709452Y-89438779D01*
X170640508Y-89605225D01*
X170640507Y-89605226D01*
X170540414Y-89755026D01*
X170413026Y-89882414D01*
X170413023Y-89882416D01*
X170263225Y-89982508D01*
X170096779Y-90051452D01*
X170096778Y-90051452D01*
X170096776Y-90051453D01*
X169920082Y-90086600D01*
X169739918Y-90086600D01*
X169563224Y-90051453D01*
X169563222Y-90051452D01*
X169563221Y-90051452D01*
X169396775Y-89982508D01*
X169246977Y-89882416D01*
X169246974Y-89882414D01*
X169119586Y-89755026D01*
X169019493Y-89605226D01*
X169019492Y-89605225D01*
X168950548Y-89438779D01*
X168950547Y-89438776D01*
X168946525Y-89429067D01*
X168945487Y-89425645D01*
X168933937Y-89404033D01*
X168918392Y-89385091D01*
X168899451Y-89369544D01*
X168877840Y-89357992D01*
X168854392Y-89350878D01*
X168830005Y-89348475D01*
X168805619Y-89350876D01*
X168782170Y-89357988D01*
X168760558Y-89369538D01*
X168741616Y-89385083D01*
X168726069Y-89404024D01*
X168714517Y-89425635D01*
X168713478Y-89429060D01*
X168709453Y-89438776D01*
X168709452Y-89438779D01*
X168640508Y-89605225D01*
X168640507Y-89605226D01*
X168540414Y-89755026D01*
X168413026Y-89882414D01*
X168413023Y-89882416D01*
X168263225Y-89982508D01*
X168096779Y-90051452D01*
X168096778Y-90051452D01*
X168096776Y-90051453D01*
X167920082Y-90086600D01*
X167739918Y-90086600D01*
X167563224Y-90051453D01*
X167563222Y-90051452D01*
X167563221Y-90051452D01*
X167396775Y-89982508D01*
X167246977Y-89882416D01*
X167246974Y-89882414D01*
X167119586Y-89755026D01*
X167019493Y-89605226D01*
X167019492Y-89605225D01*
X166950548Y-89438779D01*
X166950547Y-89438776D01*
X166946525Y-89429067D01*
X166945487Y-89425645D01*
X166933937Y-89404033D01*
X166918392Y-89385091D01*
X166899451Y-89369544D01*
X166877840Y-89357992D01*
X166854392Y-89350878D01*
X166830005Y-89348475D01*
X166805619Y-89350876D01*
X166782170Y-89357988D01*
X166760558Y-89369538D01*
X166741616Y-89385083D01*
X166726069Y-89404024D01*
X166714517Y-89425635D01*
X166713478Y-89429060D01*
X166709453Y-89438776D01*
X166709452Y-89438779D01*
X166640508Y-89605225D01*
X166640507Y-89605226D01*
X166540414Y-89755026D01*
X166413026Y-89882414D01*
X166413023Y-89882416D01*
X166263225Y-89982508D01*
X166096779Y-90051452D01*
X166096778Y-90051452D01*
X166096776Y-90051453D01*
X165920082Y-90086600D01*
X165739918Y-90086600D01*
X165563224Y-90051453D01*
X165563222Y-90051452D01*
X165563221Y-90051452D01*
X165396775Y-89982508D01*
X165246977Y-89882416D01*
X165246974Y-89882414D01*
X165119586Y-89755026D01*
X165019493Y-89605226D01*
X165019492Y-89605225D01*
X164950548Y-89438779D01*
X164950547Y-89438776D01*
X164946525Y-89429067D01*
X164945487Y-89425645D01*
X164933937Y-89404033D01*
X164918392Y-89385091D01*
X164899451Y-89369544D01*
X164877840Y-89357992D01*
X164854392Y-89350878D01*
X164830005Y-89348475D01*
X164805619Y-89350876D01*
X164782170Y-89357988D01*
X164760558Y-89369538D01*
X164741616Y-89385083D01*
X164726069Y-89404024D01*
X164714517Y-89425635D01*
X164713478Y-89429060D01*
X164709453Y-89438776D01*
X164709452Y-89438779D01*
X164640508Y-89605225D01*
X164640507Y-89605226D01*
X164540414Y-89755026D01*
X164413026Y-89882414D01*
X164413023Y-89882416D01*
X164263225Y-89982508D01*
X164096779Y-90051452D01*
X164096778Y-90051452D01*
X164096776Y-90051453D01*
X163920082Y-90086600D01*
X163739918Y-90086600D01*
X163563224Y-90051453D01*
X163563222Y-90051452D01*
X163563221Y-90051452D01*
X163396775Y-89982508D01*
X163246977Y-89882416D01*
X163246974Y-89882414D01*
X163119586Y-89755026D01*
X163019493Y-89605226D01*
X163019492Y-89605225D01*
X162950548Y-89438779D01*
X162949618Y-89434103D01*
X162915400Y-89262082D01*
X162915400Y-89081918D01*
X162950547Y-88905224D01*
X163000361Y-88784962D01*
X163019492Y-88738775D01*
X163119584Y-88588977D01*
X163119586Y-88588974D01*
X163142388Y-88566172D01*
X163157934Y-88547230D01*
X163169485Y-88525619D01*
X163176598Y-88502170D01*
X163179000Y-88477784D01*
X163179000Y-86321000D01*
X164481000Y-86321000D01*
X164481000Y-88477784D01*
X164481000Y-88477784D01*
G37*
G36*
X113999677Y-88668465D02*
G01*
X114037364Y-88679898D01*
X114072103Y-88698466D01*
X114102548Y-88723452D01*
X114127534Y-88753897D01*
X114146102Y-88788636D01*
X114157535Y-88826323D01*
X114162000Y-88871661D01*
X114162000Y-89708339D01*
X114157535Y-89753677D01*
X114146102Y-89791364D01*
X114127534Y-89826103D01*
X114102548Y-89856548D01*
X114072103Y-89881534D01*
X114037364Y-89900102D01*
X113999677Y-89911535D01*
X113954339Y-89916000D01*
X112867661Y-89916000D01*
X112822323Y-89911535D01*
X112784636Y-89900102D01*
X112749897Y-89881534D01*
X112719452Y-89856548D01*
X112694466Y-89826103D01*
X112675898Y-89791364D01*
X112664465Y-89753677D01*
X112660000Y-89708339D01*
X112660000Y-88871661D01*
X112664465Y-88826323D01*
X112675898Y-88788636D01*
X112694466Y-88753897D01*
X112719452Y-88723452D01*
X112749897Y-88698466D01*
X112784636Y-88679898D01*
X112822323Y-88668465D01*
X112867661Y-88664000D01*
X113954339Y-88664000D01*
X113999677Y-88668465D01*
X113999677Y-88668465D01*
G37*
G36*
X147901677Y-88026465D02*
G01*
X147939364Y-88037898D01*
X147974103Y-88056466D01*
X148004548Y-88081452D01*
X148029534Y-88111897D01*
X148048102Y-88146636D01*
X148059535Y-88184323D01*
X148064000Y-88229661D01*
X148064000Y-89316339D01*
X148059535Y-89361677D01*
X148048102Y-89399364D01*
X148029534Y-89434103D01*
X148004548Y-89464548D01*
X147974103Y-89489534D01*
X147939364Y-89508102D01*
X147901677Y-89519535D01*
X147856339Y-89524000D01*
X147019661Y-89524000D01*
X146974323Y-89519535D01*
X146936636Y-89508102D01*
X146901897Y-89489534D01*
X146871452Y-89464548D01*
X146846466Y-89434103D01*
X146827898Y-89399364D01*
X146816465Y-89361677D01*
X146812000Y-89316339D01*
X146812000Y-88229661D01*
X146816465Y-88184323D01*
X146827898Y-88146636D01*
X146846466Y-88111897D01*
X146871452Y-88081452D01*
X146901897Y-88056466D01*
X146936636Y-88037898D01*
X146974323Y-88026465D01*
X147019661Y-88022000D01*
X147856339Y-88022000D01*
X147901677Y-88026465D01*
X147901677Y-88026465D01*
G37*
G36*
X149951677Y-88026465D02*
G01*
X149989364Y-88037898D01*
X150024103Y-88056466D01*
X150054548Y-88081452D01*
X150079534Y-88111897D01*
X150098102Y-88146636D01*
X150109535Y-88184323D01*
X150114000Y-88229661D01*
X150114000Y-89316339D01*
X150109535Y-89361677D01*
X150098102Y-89399364D01*
X150079534Y-89434103D01*
X150054548Y-89464548D01*
X150024103Y-89489534D01*
X149989364Y-89508102D01*
X149951677Y-89519535D01*
X149906339Y-89524000D01*
X149069661Y-89524000D01*
X149024323Y-89519535D01*
X148986636Y-89508102D01*
X148951897Y-89489534D01*
X148921452Y-89464548D01*
X148896466Y-89434103D01*
X148877898Y-89399364D01*
X148866465Y-89361677D01*
X148862000Y-89316339D01*
X148862000Y-88229661D01*
X148866465Y-88184323D01*
X148877898Y-88146636D01*
X148896466Y-88111897D01*
X148921452Y-88081452D01*
X148951897Y-88056466D01*
X148986636Y-88037898D01*
X149024323Y-88026465D01*
X149069661Y-88022000D01*
X149906339Y-88022000D01*
X149951677Y-88026465D01*
X149951677Y-88026465D01*
G37*
G36*
X127775562Y-87596181D02*
G01*
X127810477Y-87606773D01*
X127842665Y-87623978D01*
X127870873Y-87647127D01*
X127894022Y-87675335D01*
X127911227Y-87707523D01*
X127921819Y-87742438D01*
X127926000Y-87784895D01*
X127926000Y-88926105D01*
X127921819Y-88968562D01*
X127911227Y-89003477D01*
X127894022Y-89035665D01*
X127870873Y-89063873D01*
X127842665Y-89087022D01*
X127810477Y-89104227D01*
X127775562Y-89114819D01*
X127733105Y-89119000D01*
X126266895Y-89119000D01*
X126224438Y-89114819D01*
X126189523Y-89104227D01*
X126157335Y-89087022D01*
X126129127Y-89063873D01*
X126105978Y-89035665D01*
X126088773Y-89003477D01*
X126078181Y-88968562D01*
X126074000Y-88926105D01*
X126074000Y-87784895D01*
X126078181Y-87742438D01*
X126088773Y-87707523D01*
X126105978Y-87675335D01*
X126129127Y-87647127D01*
X126157335Y-87623978D01*
X126189523Y-87606773D01*
X126224438Y-87596181D01*
X126266895Y-87592000D01*
X127733105Y-87592000D01*
X127775562Y-87596181D01*
X127775562Y-87596181D01*
G37*
G36*
X117742562Y-87161181D02*
G01*
X117777477Y-87171773D01*
X117809665Y-87188978D01*
X117837873Y-87212127D01*
X117861022Y-87240335D01*
X117878227Y-87272523D01*
X117888819Y-87307438D01*
X117893000Y-87349895D01*
X117893000Y-88491105D01*
X117888819Y-88533562D01*
X117878227Y-88568477D01*
X117861022Y-88600665D01*
X117837873Y-88628873D01*
X117809665Y-88652022D01*
X117777477Y-88669227D01*
X117742562Y-88679819D01*
X117700105Y-88684000D01*
X116233895Y-88684000D01*
X116191438Y-88679819D01*
X116156523Y-88669227D01*
X116124335Y-88652022D01*
X116096127Y-88628873D01*
X116072978Y-88600665D01*
X116055773Y-88568477D01*
X116045181Y-88533562D01*
X116041000Y-88491105D01*
X116041000Y-87349895D01*
X116045181Y-87307438D01*
X116055773Y-87272523D01*
X116072978Y-87240335D01*
X116096127Y-87212127D01*
X116124335Y-87188978D01*
X116156523Y-87171773D01*
X116191438Y-87161181D01*
X116233895Y-87157000D01*
X117700105Y-87157000D01*
X117742562Y-87161181D01*
X117742562Y-87161181D01*
G37*
G36*
X111011562Y-87088181D02*
G01*
X111046477Y-87098773D01*
X111078665Y-87115978D01*
X111106873Y-87139127D01*
X111130022Y-87167335D01*
X111147227Y-87199523D01*
X111157819Y-87234438D01*
X111162000Y-87276895D01*
X111162000Y-88418105D01*
X111157819Y-88460562D01*
X111147227Y-88495477D01*
X111130022Y-88527665D01*
X111106873Y-88555873D01*
X111078665Y-88579022D01*
X111046477Y-88596227D01*
X111011562Y-88606819D01*
X110969105Y-88611000D01*
X109502895Y-88611000D01*
X109460438Y-88606819D01*
X109425523Y-88596227D01*
X109393335Y-88579022D01*
X109365127Y-88555873D01*
X109341978Y-88527665D01*
X109324773Y-88495477D01*
X109314181Y-88460562D01*
X109310000Y-88418105D01*
X109310000Y-87276895D01*
X109314181Y-87234438D01*
X109324773Y-87199523D01*
X109341978Y-87167335D01*
X109365127Y-87139127D01*
X109393335Y-87115978D01*
X109425523Y-87098773D01*
X109460438Y-87088181D01*
X109502895Y-87084000D01*
X110969105Y-87084000D01*
X111011562Y-87088181D01*
X111011562Y-87088181D01*
G37*
G36*
X131271677Y-86890465D02*
G01*
X131309364Y-86901898D01*
X131344103Y-86920466D01*
X131374548Y-86945452D01*
X131399534Y-86975897D01*
X131418102Y-87010636D01*
X131429535Y-87048323D01*
X131434000Y-87093661D01*
X131434000Y-87930339D01*
X131429535Y-87975677D01*
X131418102Y-88013364D01*
X131399534Y-88048103D01*
X131374548Y-88078548D01*
X131344103Y-88103534D01*
X131309364Y-88122102D01*
X131271677Y-88133535D01*
X131226339Y-88138000D01*
X130139661Y-88138000D01*
X130094323Y-88133535D01*
X130056636Y-88122102D01*
X130021897Y-88103534D01*
X129991452Y-88078548D01*
X129966466Y-88048103D01*
X129947898Y-88013364D01*
X129936465Y-87975677D01*
X129932000Y-87930339D01*
X129932000Y-87093661D01*
X129936465Y-87048323D01*
X129947898Y-87010636D01*
X129966466Y-86975897D01*
X129991452Y-86945452D01*
X130021897Y-86920466D01*
X130056636Y-86901898D01*
X130094323Y-86890465D01*
X130139661Y-86886000D01*
X131226339Y-86886000D01*
X131271677Y-86890465D01*
X131271677Y-86890465D01*
G37*
G36*
X113999677Y-86618465D02*
G01*
X114037364Y-86629898D01*
X114072103Y-86648466D01*
X114102548Y-86673452D01*
X114127534Y-86703897D01*
X114146102Y-86738636D01*
X114157535Y-86776323D01*
X114162000Y-86821661D01*
X114162000Y-87658339D01*
X114157535Y-87703677D01*
X114146102Y-87741364D01*
X114127534Y-87776103D01*
X114102548Y-87806548D01*
X114072103Y-87831534D01*
X114037364Y-87850102D01*
X113999677Y-87861535D01*
X113954339Y-87866000D01*
X112867661Y-87866000D01*
X112822323Y-87861535D01*
X112784636Y-87850102D01*
X112749897Y-87831534D01*
X112719452Y-87806548D01*
X112694466Y-87776103D01*
X112675898Y-87741364D01*
X112664465Y-87703677D01*
X112660000Y-87658339D01*
X112660000Y-86821661D01*
X112664465Y-86776323D01*
X112675898Y-86738636D01*
X112694466Y-86703897D01*
X112719452Y-86673452D01*
X112749897Y-86648466D01*
X112784636Y-86629898D01*
X112822323Y-86618465D01*
X112867661Y-86614000D01*
X113954339Y-86614000D01*
X113999677Y-86618465D01*
X113999677Y-86618465D01*
G37*
G36*
X182090905Y-82790789D02*
G01*
X182389350Y-82850153D01*
X182717122Y-82985921D01*
X183012109Y-83183025D01*
X183262975Y-83433891D01*
X183460079Y-83728878D01*
X183595847Y-84056650D01*
X183639155Y-84274376D01*
X183664135Y-84399958D01*
X183665060Y-84404611D01*
X183665060Y-84759389D01*
X183595847Y-85107350D01*
X183460079Y-85435122D01*
X183262975Y-85730109D01*
X183012109Y-85980975D01*
X182717122Y-86178079D01*
X182389350Y-86313847D01*
X182090905Y-86373211D01*
X182041390Y-86383060D01*
X181686610Y-86383060D01*
X181637095Y-86373211D01*
X181338650Y-86313847D01*
X181010878Y-86178079D01*
X180715891Y-85980975D01*
X180465025Y-85730109D01*
X180267921Y-85435122D01*
X180132153Y-85107350D01*
X180062940Y-84759389D01*
X180062940Y-84404611D01*
X180063866Y-84399958D01*
X180088845Y-84274376D01*
X180132153Y-84056650D01*
X180267921Y-83728878D01*
X180465025Y-83433891D01*
X180715891Y-83183025D01*
X181010878Y-82985921D01*
X181338650Y-82850153D01*
X181637095Y-82790789D01*
X181686610Y-82780940D01*
X182041390Y-82780940D01*
X182090905Y-82790789D01*
X182090905Y-82790789D01*
G37*
G36*
X102637714Y-85046058D02*
G01*
X102637717Y-85046059D01*
X102755719Y-85081854D01*
X102755721Y-85081855D01*
X102864471Y-85139983D01*
X102959790Y-85218210D01*
X103038017Y-85313529D01*
X103063327Y-85360881D01*
X103096146Y-85422281D01*
X103115342Y-85485562D01*
X103131942Y-85540286D01*
X103144028Y-85663000D01*
X103131942Y-85785714D01*
X103096145Y-85903721D01*
X103038017Y-86012471D01*
X102959790Y-86107790D01*
X102864471Y-86186017D01*
X102864469Y-86186018D01*
X102755719Y-86244146D01*
X102659683Y-86273278D01*
X102637714Y-86279942D01*
X102545747Y-86289000D01*
X101834253Y-86289000D01*
X101742286Y-86279942D01*
X101720317Y-86273278D01*
X101624281Y-86244146D01*
X101515531Y-86186018D01*
X101515529Y-86186017D01*
X101420210Y-86107790D01*
X101341983Y-86012471D01*
X101283855Y-85903721D01*
X101248058Y-85785714D01*
X101235972Y-85663000D01*
X101248058Y-85540286D01*
X101264658Y-85485562D01*
X101283854Y-85422281D01*
X101316673Y-85360881D01*
X101341983Y-85313529D01*
X101420210Y-85218210D01*
X101515529Y-85139983D01*
X101624279Y-85081855D01*
X101624281Y-85081854D01*
X101742283Y-85046059D01*
X101742286Y-85046058D01*
X101834253Y-85037000D01*
X102545747Y-85037000D01*
X102637714Y-85046058D01*
X102637714Y-85046058D01*
G37*
G36*
X105028413Y-83843525D02*
G01*
X105103456Y-83866290D01*
X105113425Y-83869314D01*
X105191774Y-83911193D01*
X105260448Y-83967552D01*
X105316807Y-84036226D01*
X105358686Y-84114575D01*
X105358687Y-84114579D01*
X105384475Y-84199587D01*
X105393182Y-84288000D01*
X105384475Y-84376413D01*
X105361710Y-84451456D01*
X105358686Y-84461425D01*
X105330191Y-84514735D01*
X105316807Y-84539775D01*
X105291496Y-84570615D01*
X105267850Y-84599429D01*
X105254239Y-84619798D01*
X105244862Y-84642437D01*
X105240081Y-84666471D01*
X105240081Y-84690975D01*
X105244861Y-84715008D01*
X105254238Y-84737648D01*
X105267852Y-84758022D01*
X105285179Y-84775350D01*
X105305553Y-84788964D01*
X105328192Y-84798341D01*
X105352226Y-84803122D01*
X105376730Y-84803122D01*
X105400763Y-84798342D01*
X105409212Y-84794843D01*
X105416599Y-84792602D01*
X105416601Y-84792601D01*
X105562878Y-84748229D01*
X105562881Y-84748228D01*
X105676882Y-84737000D01*
X106303118Y-84737000D01*
X106417119Y-84748228D01*
X106417122Y-84748229D01*
X106563399Y-84792601D01*
X106563401Y-84792602D01*
X106698210Y-84864659D01*
X106816369Y-84961631D01*
X106913341Y-85079790D01*
X106913342Y-85079792D01*
X106985399Y-85214601D01*
X107015408Y-85313529D01*
X107029772Y-85360881D01*
X107044754Y-85513000D01*
X107029772Y-85665119D01*
X107029771Y-85665122D01*
X107006570Y-85741608D01*
X106985398Y-85811401D01*
X106913341Y-85946210D01*
X106816369Y-86064369D01*
X106698210Y-86161341D01*
X106652043Y-86186018D01*
X106563399Y-86233399D01*
X106444352Y-86269511D01*
X106417119Y-86277772D01*
X106303118Y-86289000D01*
X105676882Y-86289000D01*
X105562881Y-86277772D01*
X105535648Y-86269511D01*
X105416601Y-86233399D01*
X105327957Y-86186018D01*
X105281790Y-86161341D01*
X105163631Y-86064369D01*
X105066659Y-85946210D01*
X104994602Y-85811401D01*
X104973431Y-85741608D01*
X104950229Y-85665122D01*
X104950228Y-85665119D01*
X104935246Y-85513000D01*
X104950228Y-85360881D01*
X104964592Y-85313529D01*
X104994601Y-85214601D01*
X105066658Y-85079792D01*
X105066659Y-85079790D01*
X105163632Y-84961630D01*
X105200105Y-84931696D01*
X105217432Y-84914369D01*
X105231046Y-84893994D01*
X105240423Y-84871355D01*
X105245203Y-84847322D01*
X105245203Y-84822817D01*
X105240422Y-84798784D01*
X105231044Y-84776145D01*
X105217430Y-84755771D01*
X105200103Y-84738444D01*
X105179728Y-84724830D01*
X105157089Y-84715453D01*
X105133056Y-84710673D01*
X105108551Y-84710673D01*
X105084524Y-84715453D01*
X105063489Y-84721833D01*
X105028411Y-84732475D01*
X104962158Y-84739000D01*
X104917842Y-84739000D01*
X104851587Y-84732475D01*
X104776544Y-84709710D01*
X104766575Y-84706686D01*
X104688226Y-84664807D01*
X104619552Y-84608448D01*
X104563193Y-84539774D01*
X104521314Y-84461425D01*
X104518290Y-84451456D01*
X104495525Y-84376413D01*
X104486818Y-84288000D01*
X104495525Y-84199587D01*
X104521313Y-84114579D01*
X104521314Y-84114575D01*
X104563193Y-84036226D01*
X104619552Y-83967552D01*
X104688226Y-83911193D01*
X104766575Y-83869314D01*
X104776544Y-83866290D01*
X104851587Y-83843525D01*
X104917842Y-83837000D01*
X104962158Y-83837000D01*
X105028413Y-83843525D01*
X105028413Y-83843525D01*
G37*
G36*
X127775562Y-84621181D02*
G01*
X127810477Y-84631773D01*
X127842665Y-84648978D01*
X127870873Y-84672127D01*
X127894022Y-84700335D01*
X127911227Y-84732523D01*
X127921819Y-84767438D01*
X127926000Y-84809895D01*
X127926000Y-85951105D01*
X127921819Y-85993562D01*
X127911227Y-86028477D01*
X127894022Y-86060665D01*
X127870873Y-86088873D01*
X127842665Y-86112022D01*
X127810477Y-86129227D01*
X127775562Y-86139819D01*
X127733105Y-86144000D01*
X126266895Y-86144000D01*
X126224438Y-86139819D01*
X126189523Y-86129227D01*
X126157335Y-86112022D01*
X126129127Y-86088873D01*
X126105978Y-86060665D01*
X126088773Y-86028477D01*
X126078181Y-85993562D01*
X126074000Y-85951105D01*
X126074000Y-84809895D01*
X126078181Y-84767438D01*
X126088773Y-84732523D01*
X126105978Y-84700335D01*
X126129127Y-84672127D01*
X126157335Y-84648978D01*
X126189523Y-84631773D01*
X126224438Y-84621181D01*
X126266895Y-84617000D01*
X127733105Y-84617000D01*
X127775562Y-84621181D01*
X127775562Y-84621181D01*
G37*
G36*
X131271677Y-84840465D02*
G01*
X131309364Y-84851898D01*
X131344103Y-84870466D01*
X131374548Y-84895452D01*
X131399534Y-84925897D01*
X131418102Y-84960636D01*
X131429535Y-84998323D01*
X131434000Y-85043661D01*
X131434000Y-85880339D01*
X131429535Y-85925677D01*
X131418102Y-85963364D01*
X131399534Y-85998103D01*
X131374548Y-86028548D01*
X131344103Y-86053534D01*
X131309364Y-86072102D01*
X131271677Y-86083535D01*
X131226339Y-86088000D01*
X130139661Y-86088000D01*
X130094323Y-86083535D01*
X130056636Y-86072102D01*
X130021897Y-86053534D01*
X129991452Y-86028548D01*
X129966466Y-85998103D01*
X129947898Y-85963364D01*
X129936465Y-85925677D01*
X129932000Y-85880339D01*
X129932000Y-85043661D01*
X129936465Y-84998323D01*
X129947898Y-84960636D01*
X129966466Y-84925897D01*
X129991452Y-84895452D01*
X130021897Y-84870466D01*
X130056636Y-84851898D01*
X130094323Y-84840465D01*
X130139661Y-84836000D01*
X131226339Y-84836000D01*
X131271677Y-84840465D01*
X131271677Y-84840465D01*
G37*
G36*
X137809562Y-83914181D02*
G01*
X137844477Y-83924773D01*
X137876665Y-83941978D01*
X137904873Y-83965127D01*
X137928022Y-83993335D01*
X137945227Y-84025523D01*
X137955819Y-84060438D01*
X137960000Y-84102895D01*
X137960000Y-85569105D01*
X137955819Y-85611562D01*
X137945227Y-85646477D01*
X137928022Y-85678665D01*
X137904873Y-85706873D01*
X137876665Y-85730022D01*
X137844477Y-85747227D01*
X137809562Y-85757819D01*
X137767105Y-85762000D01*
X136625895Y-85762000D01*
X136583438Y-85757819D01*
X136548523Y-85747227D01*
X136516335Y-85730022D01*
X136488127Y-85706873D01*
X136464978Y-85678665D01*
X136447773Y-85646477D01*
X136437181Y-85611562D01*
X136433000Y-85569105D01*
X136433000Y-84102895D01*
X136437181Y-84060438D01*
X136447773Y-84025523D01*
X136464978Y-83993335D01*
X136488127Y-83965127D01*
X136516335Y-83941978D01*
X136548523Y-83924773D01*
X136583438Y-83914181D01*
X136625895Y-83910000D01*
X137767105Y-83910000D01*
X137809562Y-83914181D01*
X137809562Y-83914181D01*
G37*
G36*
X147007562Y-83914181D02*
G01*
X147042477Y-83924773D01*
X147074665Y-83941978D01*
X147102873Y-83965127D01*
X147126022Y-83993335D01*
X147143227Y-84025523D01*
X147153819Y-84060438D01*
X147158000Y-84102895D01*
X147158000Y-85569105D01*
X147153819Y-85611562D01*
X147143227Y-85646477D01*
X147126022Y-85678665D01*
X147102873Y-85706873D01*
X147074665Y-85730022D01*
X147042477Y-85747227D01*
X147007562Y-85757819D01*
X146965105Y-85762000D01*
X145823895Y-85762000D01*
X145781438Y-85757819D01*
X145746523Y-85747227D01*
X145714335Y-85730022D01*
X145686127Y-85706873D01*
X145662978Y-85678665D01*
X145645773Y-85646477D01*
X145635181Y-85611562D01*
X145631000Y-85569105D01*
X145631000Y-84102895D01*
X145635181Y-84060438D01*
X145645773Y-84025523D01*
X145662978Y-83993335D01*
X145686127Y-83965127D01*
X145714335Y-83941978D01*
X145746523Y-83924773D01*
X145781438Y-83914181D01*
X145823895Y-83910000D01*
X146965105Y-83910000D01*
X147007562Y-83914181D01*
X147007562Y-83914181D01*
G37*
G36*
X144032562Y-83914181D02*
G01*
X144067477Y-83924773D01*
X144099665Y-83941978D01*
X144127873Y-83965127D01*
X144151022Y-83993335D01*
X144168227Y-84025523D01*
X144178819Y-84060438D01*
X144183000Y-84102895D01*
X144183000Y-85569105D01*
X144178819Y-85611562D01*
X144168227Y-85646477D01*
X144151022Y-85678665D01*
X144127873Y-85706873D01*
X144099665Y-85730022D01*
X144067477Y-85747227D01*
X144032562Y-85757819D01*
X143990105Y-85762000D01*
X142848895Y-85762000D01*
X142806438Y-85757819D01*
X142771523Y-85747227D01*
X142739335Y-85730022D01*
X142711127Y-85706873D01*
X142687978Y-85678665D01*
X142670773Y-85646477D01*
X142660181Y-85611562D01*
X142656000Y-85569105D01*
X142656000Y-84102895D01*
X142660181Y-84060438D01*
X142670773Y-84025523D01*
X142687978Y-83993335D01*
X142711127Y-83965127D01*
X142739335Y-83941978D01*
X142771523Y-83924773D01*
X142806438Y-83914181D01*
X142848895Y-83910000D01*
X143990105Y-83910000D01*
X144032562Y-83914181D01*
X144032562Y-83914181D01*
G37*
G36*
X140784562Y-83914181D02*
G01*
X140819477Y-83924773D01*
X140851665Y-83941978D01*
X140879873Y-83965127D01*
X140903022Y-83993335D01*
X140920227Y-84025523D01*
X140930819Y-84060438D01*
X140935000Y-84102895D01*
X140935000Y-85569105D01*
X140930819Y-85611562D01*
X140920227Y-85646477D01*
X140903022Y-85678665D01*
X140879873Y-85706873D01*
X140851665Y-85730022D01*
X140819477Y-85747227D01*
X140784562Y-85757819D01*
X140742105Y-85762000D01*
X139600895Y-85762000D01*
X139558438Y-85757819D01*
X139523523Y-85747227D01*
X139491335Y-85730022D01*
X139463127Y-85706873D01*
X139439978Y-85678665D01*
X139422773Y-85646477D01*
X139412181Y-85611562D01*
X139408000Y-85569105D01*
X139408000Y-84102895D01*
X139412181Y-84060438D01*
X139422773Y-84025523D01*
X139439978Y-83993335D01*
X139463127Y-83965127D01*
X139491335Y-83941978D01*
X139523523Y-83924773D01*
X139558438Y-83914181D01*
X139600895Y-83910000D01*
X140742105Y-83910000D01*
X140784562Y-83914181D01*
X140784562Y-83914181D01*
G37*
G36*
X111011562Y-84113181D02*
G01*
X111046477Y-84123773D01*
X111078665Y-84140978D01*
X111106873Y-84164127D01*
X111130022Y-84192335D01*
X111147227Y-84224523D01*
X111157819Y-84259438D01*
X111162000Y-84301895D01*
X111162000Y-85443105D01*
X111157819Y-85485562D01*
X111147227Y-85520477D01*
X111130022Y-85552665D01*
X111106873Y-85580873D01*
X111078665Y-85604022D01*
X111046477Y-85621227D01*
X111011562Y-85631819D01*
X110969105Y-85636000D01*
X109502895Y-85636000D01*
X109460438Y-85631819D01*
X109425523Y-85621227D01*
X109393335Y-85604022D01*
X109365127Y-85580873D01*
X109341978Y-85552665D01*
X109324773Y-85520477D01*
X109314181Y-85485562D01*
X109310000Y-85443105D01*
X109310000Y-84301895D01*
X109314181Y-84259438D01*
X109324773Y-84224523D01*
X109341978Y-84192335D01*
X109365127Y-84164127D01*
X109393335Y-84140978D01*
X109425523Y-84123773D01*
X109460438Y-84113181D01*
X109502895Y-84109000D01*
X110969105Y-84109000D01*
X111011562Y-84113181D01*
X111011562Y-84113181D01*
G37*
G36*
X115194928Y-83843764D02*
G01*
X115216011Y-83850160D01*
X115235442Y-83860546D01*
X115252475Y-83874525D01*
X115266454Y-83891558D01*
X115276840Y-83910989D01*
X115283236Y-83932072D01*
X115286000Y-83960140D01*
X115286000Y-85423860D01*
X115283236Y-85451928D01*
X115276840Y-85473011D01*
X115266454Y-85492442D01*
X115252475Y-85509475D01*
X115235442Y-85523454D01*
X115216011Y-85533840D01*
X115194928Y-85540236D01*
X115166860Y-85543000D01*
X114703140Y-85543000D01*
X114675072Y-85540236D01*
X114653989Y-85533840D01*
X114634558Y-85523454D01*
X114617525Y-85509475D01*
X114603546Y-85492442D01*
X114593160Y-85473011D01*
X114586764Y-85451928D01*
X114584000Y-85423860D01*
X114584000Y-83960140D01*
X114586764Y-83932072D01*
X114593160Y-83910989D01*
X114603546Y-83891558D01*
X114617525Y-83874525D01*
X114634558Y-83860546D01*
X114653989Y-83850160D01*
X114675072Y-83843764D01*
X114703140Y-83841000D01*
X115166860Y-83841000D01*
X115194928Y-83843764D01*
X115194928Y-83843764D01*
G37*
G36*
X113924928Y-83843764D02*
G01*
X113946011Y-83850160D01*
X113965442Y-83860546D01*
X113982475Y-83874525D01*
X113996454Y-83891558D01*
X114006840Y-83910989D01*
X114013236Y-83932072D01*
X114016000Y-83960140D01*
X114016000Y-85423860D01*
X114013236Y-85451928D01*
X114006840Y-85473011D01*
X113996454Y-85492442D01*
X113982475Y-85509475D01*
X113965442Y-85523454D01*
X113946011Y-85533840D01*
X113924928Y-85540236D01*
X113896860Y-85543000D01*
X113433140Y-85543000D01*
X113405072Y-85540236D01*
X113383989Y-85533840D01*
X113364558Y-85523454D01*
X113347525Y-85509475D01*
X113333546Y-85492442D01*
X113323160Y-85473011D01*
X113316764Y-85451928D01*
X113314000Y-85423860D01*
X113314000Y-83960140D01*
X113316764Y-83932072D01*
X113323160Y-83910989D01*
X113333546Y-83891558D01*
X113347525Y-83874525D01*
X113364558Y-83860546D01*
X113383989Y-83850160D01*
X113405072Y-83843764D01*
X113433140Y-83841000D01*
X113896860Y-83841000D01*
X113924928Y-83843764D01*
X113924928Y-83843764D01*
G37*
G36*
X117734928Y-83843764D02*
G01*
X117756011Y-83850160D01*
X117775442Y-83860546D01*
X117792475Y-83874525D01*
X117806454Y-83891558D01*
X117816840Y-83910989D01*
X117823236Y-83932072D01*
X117826000Y-83960140D01*
X117826000Y-85423860D01*
X117823236Y-85451928D01*
X117816840Y-85473011D01*
X117806454Y-85492442D01*
X117792475Y-85509475D01*
X117775442Y-85523454D01*
X117756011Y-85533840D01*
X117734928Y-85540236D01*
X117706860Y-85543000D01*
X117243140Y-85543000D01*
X117215072Y-85540236D01*
X117193989Y-85533840D01*
X117174558Y-85523454D01*
X117157525Y-85509475D01*
X117143546Y-85492442D01*
X117133160Y-85473011D01*
X117126764Y-85451928D01*
X117124000Y-85423860D01*
X117124000Y-83960140D01*
X117126764Y-83932072D01*
X117133160Y-83910989D01*
X117143546Y-83891558D01*
X117157525Y-83874525D01*
X117174558Y-83860546D01*
X117193989Y-83850160D01*
X117215072Y-83843764D01*
X117243140Y-83841000D01*
X117706860Y-83841000D01*
X117734928Y-83843764D01*
X117734928Y-83843764D01*
G37*
G36*
X116464928Y-83843764D02*
G01*
X116486011Y-83850160D01*
X116505442Y-83860546D01*
X116522475Y-83874525D01*
X116536454Y-83891558D01*
X116546840Y-83910989D01*
X116553236Y-83932072D01*
X116556000Y-83960140D01*
X116556000Y-85423860D01*
X116553236Y-85451928D01*
X116546840Y-85473011D01*
X116536454Y-85492442D01*
X116522475Y-85509475D01*
X116505442Y-85523454D01*
X116486011Y-85533840D01*
X116464928Y-85540236D01*
X116436860Y-85543000D01*
X115973140Y-85543000D01*
X115945072Y-85540236D01*
X115923989Y-85533840D01*
X115904558Y-85523454D01*
X115887525Y-85509475D01*
X115873546Y-85492442D01*
X115863160Y-85473011D01*
X115856764Y-85451928D01*
X115854000Y-85423860D01*
X115854000Y-83960140D01*
X115856764Y-83932072D01*
X115863160Y-83910989D01*
X115873546Y-83891558D01*
X115887525Y-83874525D01*
X115904558Y-83860546D01*
X115923989Y-83850160D01*
X115945072Y-83843764D01*
X115973140Y-83841000D01*
X116436860Y-83841000D01*
X116464928Y-83843764D01*
X116464928Y-83843764D01*
G37*
G36*
X169030142Y-82836442D02*
G01*
X169178102Y-82897730D01*
X169200696Y-82912827D01*
X169311257Y-82986701D01*
X169424499Y-83099943D01*
X169467489Y-83164282D01*
X169513470Y-83233098D01*
X169574758Y-83381058D01*
X169606000Y-83538125D01*
X169606000Y-83698275D01*
X169574758Y-83855342D01*
X169513470Y-84003302D01*
X169491471Y-84036226D01*
X169429220Y-84129392D01*
X169424498Y-84136458D01*
X169311258Y-84249698D01*
X169178102Y-84338670D01*
X169030142Y-84399958D01*
X168873075Y-84431200D01*
X168712925Y-84431200D01*
X168555858Y-84399958D01*
X168407898Y-84338670D01*
X168274742Y-84249698D01*
X168161502Y-84136458D01*
X168156781Y-84129392D01*
X168094529Y-84036226D01*
X168072530Y-84003302D01*
X168011242Y-83855342D01*
X167980000Y-83698275D01*
X167980000Y-83538125D01*
X168011242Y-83381058D01*
X168072530Y-83233098D01*
X168118511Y-83164282D01*
X168161501Y-83099943D01*
X168274743Y-82986701D01*
X168385304Y-82912827D01*
X168407898Y-82897730D01*
X168555858Y-82836442D01*
X168712925Y-82805200D01*
X168873075Y-82805200D01*
X169030142Y-82836442D01*
X169030142Y-82836442D01*
G37*
G36*
X171570142Y-82836442D02*
G01*
X171718102Y-82897730D01*
X171740696Y-82912827D01*
X171851257Y-82986701D01*
X171964499Y-83099943D01*
X172007489Y-83164282D01*
X172053470Y-83233098D01*
X172114758Y-83381058D01*
X172146000Y-83538125D01*
X172146000Y-83698275D01*
X172114758Y-83855342D01*
X172053470Y-84003302D01*
X172031471Y-84036226D01*
X171969220Y-84129392D01*
X171964498Y-84136458D01*
X171851258Y-84249698D01*
X171718102Y-84338670D01*
X171570142Y-84399958D01*
X171413075Y-84431200D01*
X171252925Y-84431200D01*
X171095858Y-84399958D01*
X170947898Y-84338670D01*
X170814742Y-84249698D01*
X170701502Y-84136458D01*
X170696781Y-84129392D01*
X170634529Y-84036226D01*
X170612530Y-84003302D01*
X170551242Y-83855342D01*
X170520000Y-83698275D01*
X170520000Y-83538125D01*
X170551242Y-83381058D01*
X170612530Y-83233098D01*
X170658511Y-83164282D01*
X170701501Y-83099943D01*
X170814743Y-82986701D01*
X170925304Y-82912827D01*
X170947898Y-82897730D01*
X171095858Y-82836442D01*
X171252925Y-82805200D01*
X171413075Y-82805200D01*
X171570142Y-82836442D01*
X171570142Y-82836442D01*
G37*
G36*
X174110142Y-82836442D02*
G01*
X174258102Y-82897730D01*
X174280696Y-82912827D01*
X174391257Y-82986701D01*
X174504499Y-83099943D01*
X174547489Y-83164282D01*
X174593470Y-83233098D01*
X174654758Y-83381058D01*
X174686000Y-83538125D01*
X174686000Y-83698275D01*
X174654758Y-83855342D01*
X174593470Y-84003302D01*
X174571471Y-84036226D01*
X174509220Y-84129392D01*
X174504498Y-84136458D01*
X174391258Y-84249698D01*
X174258102Y-84338670D01*
X174110142Y-84399958D01*
X173953075Y-84431200D01*
X173792925Y-84431200D01*
X173635858Y-84399958D01*
X173487898Y-84338670D01*
X173354742Y-84249698D01*
X173241502Y-84136458D01*
X173236781Y-84129392D01*
X173174529Y-84036226D01*
X173152530Y-84003302D01*
X173091242Y-83855342D01*
X173060000Y-83698275D01*
X173060000Y-83538125D01*
X173091242Y-83381058D01*
X173152530Y-83233098D01*
X173198511Y-83164282D01*
X173241501Y-83099943D01*
X173354743Y-82986701D01*
X173465304Y-82912827D01*
X173487898Y-82897730D01*
X173635858Y-82836442D01*
X173792925Y-82805200D01*
X173953075Y-82805200D01*
X174110142Y-82836442D01*
X174110142Y-82836442D01*
G37*
G36*
X176650142Y-82836442D02*
G01*
X176798102Y-82897730D01*
X176820696Y-82912827D01*
X176931257Y-82986701D01*
X177044499Y-83099943D01*
X177087489Y-83164282D01*
X177133470Y-83233098D01*
X177194758Y-83381058D01*
X177226000Y-83538125D01*
X177226000Y-83698275D01*
X177194758Y-83855342D01*
X177133470Y-84003302D01*
X177111471Y-84036226D01*
X177049220Y-84129392D01*
X177044498Y-84136458D01*
X176931258Y-84249698D01*
X176798102Y-84338670D01*
X176650142Y-84399958D01*
X176493075Y-84431200D01*
X176332925Y-84431200D01*
X176175858Y-84399958D01*
X176027898Y-84338670D01*
X175894742Y-84249698D01*
X175781502Y-84136458D01*
X175776781Y-84129392D01*
X175714529Y-84036226D01*
X175692530Y-84003302D01*
X175631242Y-83855342D01*
X175600000Y-83698275D01*
X175600000Y-83538125D01*
X175631242Y-83381058D01*
X175692530Y-83233098D01*
X175738511Y-83164282D01*
X175781501Y-83099943D01*
X175894743Y-82986701D01*
X176005304Y-82912827D01*
X176027898Y-82897730D01*
X176175858Y-82836442D01*
X176332925Y-82805200D01*
X176493075Y-82805200D01*
X176650142Y-82836442D01*
X176650142Y-82836442D01*
G37*
G36*
X121679562Y-82262181D02*
G01*
X121714477Y-82272773D01*
X121746665Y-82289978D01*
X121774873Y-82313127D01*
X121798022Y-82341335D01*
X121815227Y-82373523D01*
X121825819Y-82408438D01*
X121830000Y-82450895D01*
X121830000Y-83592105D01*
X121825819Y-83634562D01*
X121815227Y-83669477D01*
X121798022Y-83701665D01*
X121774873Y-83729873D01*
X121746665Y-83753022D01*
X121714477Y-83770227D01*
X121679562Y-83780819D01*
X121637105Y-83785000D01*
X120170895Y-83785000D01*
X120128438Y-83780819D01*
X120093523Y-83770227D01*
X120061335Y-83753022D01*
X120033127Y-83729873D01*
X120009978Y-83701665D01*
X119992773Y-83669477D01*
X119982181Y-83634562D01*
X119978000Y-83592105D01*
X119978000Y-82450895D01*
X119982181Y-82408438D01*
X119992773Y-82373523D01*
X120009978Y-82341335D01*
X120033127Y-82313127D01*
X120061335Y-82289978D01*
X120093523Y-82272773D01*
X120128438Y-82262181D01*
X120170895Y-82258000D01*
X121637105Y-82258000D01*
X121679562Y-82262181D01*
X121679562Y-82262181D01*
G37*
G36*
X106741000Y-83364000D02*
G01*
X105339000Y-83364000D01*
X105339000Y-82812000D01*
X106741000Y-82812000D01*
X106741000Y-83364000D01*
X106741000Y-83364000D01*
G37*
G36*
X117040285Y-80789710D02*
G01*
X117070608Y-80798908D01*
X117098556Y-80813847D01*
X117123051Y-80833949D01*
X117143153Y-80858444D01*
X117158092Y-80886392D01*
X117167290Y-80916715D01*
X117171000Y-80954386D01*
X117171000Y-83129614D01*
X117167290Y-83167285D01*
X117158092Y-83197608D01*
X117143153Y-83225556D01*
X117123051Y-83250051D01*
X117098556Y-83270153D01*
X117070608Y-83285092D01*
X117040285Y-83294290D01*
X117002614Y-83298000D01*
X114137386Y-83298000D01*
X114099715Y-83294290D01*
X114069392Y-83285092D01*
X114041444Y-83270153D01*
X114016949Y-83250051D01*
X113996847Y-83225556D01*
X113981908Y-83197608D01*
X113972710Y-83167285D01*
X113969000Y-83129614D01*
X113969000Y-80954386D01*
X113972710Y-80916715D01*
X113981908Y-80886392D01*
X113996847Y-80858444D01*
X114016949Y-80833949D01*
X114041444Y-80813847D01*
X114069392Y-80798908D01*
X114099715Y-80789710D01*
X114137386Y-80786000D01*
X117002614Y-80786000D01*
X117040285Y-80789710D01*
X117040285Y-80789710D01*
G37*
G36*
X134700677Y-81937465D02*
G01*
X134738364Y-81948898D01*
X134773103Y-81967466D01*
X134803548Y-81992452D01*
X134828534Y-82022897D01*
X134847102Y-82057636D01*
X134858535Y-82095323D01*
X134863000Y-82140661D01*
X134863000Y-82977339D01*
X134858535Y-83022677D01*
X134847102Y-83060364D01*
X134828534Y-83095103D01*
X134803548Y-83125548D01*
X134773103Y-83150534D01*
X134738364Y-83169102D01*
X134700677Y-83180535D01*
X134655339Y-83185000D01*
X133568661Y-83185000D01*
X133523323Y-83180535D01*
X133485636Y-83169102D01*
X133450897Y-83150534D01*
X133420452Y-83125548D01*
X133395466Y-83095103D01*
X133376898Y-83060364D01*
X133365465Y-83022677D01*
X133361000Y-82977339D01*
X133361000Y-82140661D01*
X133365465Y-82095323D01*
X133376898Y-82057636D01*
X133395466Y-82022897D01*
X133420452Y-81992452D01*
X133450897Y-81967466D01*
X133485636Y-81948898D01*
X133523323Y-81937465D01*
X133568661Y-81933000D01*
X134655339Y-81933000D01*
X134700677Y-81937465D01*
X134700677Y-81937465D01*
G37*
G36*
X125048677Y-81429465D02*
G01*
X125086364Y-81440898D01*
X125121103Y-81459466D01*
X125151548Y-81484452D01*
X125176534Y-81514897D01*
X125195102Y-81549636D01*
X125206535Y-81587323D01*
X125211000Y-81632661D01*
X125211000Y-82469339D01*
X125206535Y-82514677D01*
X125195102Y-82552364D01*
X125176534Y-82587103D01*
X125151548Y-82617548D01*
X125121103Y-82642534D01*
X125086364Y-82661102D01*
X125048677Y-82672535D01*
X125003339Y-82677000D01*
X123916661Y-82677000D01*
X123871323Y-82672535D01*
X123833636Y-82661102D01*
X123798897Y-82642534D01*
X123768452Y-82617548D01*
X123743466Y-82587103D01*
X123724898Y-82552364D01*
X123713465Y-82514677D01*
X123709000Y-82469339D01*
X123709000Y-81632661D01*
X123713465Y-81587323D01*
X123724898Y-81549636D01*
X123743466Y-81514897D01*
X123768452Y-81484452D01*
X123798897Y-81459466D01*
X123833636Y-81440898D01*
X123871323Y-81429465D01*
X123916661Y-81425000D01*
X125003339Y-81425000D01*
X125048677Y-81429465D01*
X125048677Y-81429465D01*
G37*
G36*
X128513000Y-82352000D02*
G01*
X126851000Y-82352000D01*
X126851000Y-79700000D01*
X128513000Y-79700000D01*
X128513000Y-82352000D01*
X128513000Y-82352000D01*
G37*
G36*
X131213000Y-82352000D02*
G01*
X129551000Y-82352000D01*
X129551000Y-81600000D01*
X131213000Y-81600000D01*
X131213000Y-82352000D01*
X131213000Y-82352000D01*
G37*
G36*
X143959562Y-80231181D02*
G01*
X143994477Y-80241773D01*
X144026665Y-80258978D01*
X144054873Y-80282127D01*
X144078022Y-80310335D01*
X144095227Y-80342523D01*
X144105819Y-80377438D01*
X144110000Y-80419895D01*
X144110000Y-81886105D01*
X144105819Y-81928562D01*
X144095227Y-81963477D01*
X144078022Y-81995665D01*
X144054873Y-82023873D01*
X144026665Y-82047022D01*
X143994477Y-82064227D01*
X143959562Y-82074819D01*
X143917105Y-82079000D01*
X142775895Y-82079000D01*
X142733438Y-82074819D01*
X142698523Y-82064227D01*
X142666335Y-82047022D01*
X142638127Y-82023873D01*
X142614978Y-81995665D01*
X142597773Y-81963477D01*
X142587181Y-81928562D01*
X142583000Y-81886105D01*
X142583000Y-80419895D01*
X142587181Y-80377438D01*
X142597773Y-80342523D01*
X142614978Y-80310335D01*
X142638127Y-80282127D01*
X142666335Y-80258978D01*
X142698523Y-80241773D01*
X142733438Y-80231181D01*
X142775895Y-80227000D01*
X143917105Y-80227000D01*
X143959562Y-80231181D01*
X143959562Y-80231181D01*
G37*
G36*
X140984562Y-80231181D02*
G01*
X141019477Y-80241773D01*
X141051665Y-80258978D01*
X141079873Y-80282127D01*
X141103022Y-80310335D01*
X141120227Y-80342523D01*
X141130819Y-80377438D01*
X141135000Y-80419895D01*
X141135000Y-81886105D01*
X141130819Y-81928562D01*
X141120227Y-81963477D01*
X141103022Y-81995665D01*
X141079873Y-82023873D01*
X141051665Y-82047022D01*
X141019477Y-82064227D01*
X140984562Y-82074819D01*
X140942105Y-82079000D01*
X139800895Y-82079000D01*
X139758438Y-82074819D01*
X139723523Y-82064227D01*
X139691335Y-82047022D01*
X139663127Y-82023873D01*
X139639978Y-81995665D01*
X139622773Y-81963477D01*
X139612181Y-81928562D01*
X139608000Y-81886105D01*
X139608000Y-80419895D01*
X139612181Y-80377438D01*
X139622773Y-80342523D01*
X139639978Y-80310335D01*
X139663127Y-80282127D01*
X139691335Y-80258978D01*
X139723523Y-80241773D01*
X139758438Y-80231181D01*
X139800895Y-80227000D01*
X140942105Y-80227000D01*
X140984562Y-80231181D01*
X140984562Y-80231181D01*
G37*
G36*
X171570142Y-80296442D02*
G01*
X171718102Y-80357730D01*
X171747597Y-80377438D01*
X171851257Y-80446701D01*
X171964499Y-80559943D01*
X171995461Y-80606282D01*
X172053470Y-80693098D01*
X172114758Y-80841058D01*
X172146000Y-80998125D01*
X172146000Y-81158275D01*
X172114758Y-81315342D01*
X172053470Y-81463302D01*
X172025797Y-81504718D01*
X171966798Y-81593017D01*
X171964498Y-81596458D01*
X171851258Y-81709698D01*
X171718102Y-81798670D01*
X171570142Y-81859958D01*
X171413075Y-81891200D01*
X171252925Y-81891200D01*
X171095858Y-81859958D01*
X170947898Y-81798670D01*
X170814742Y-81709698D01*
X170701502Y-81596458D01*
X170699203Y-81593017D01*
X170640203Y-81504718D01*
X170612530Y-81463302D01*
X170551242Y-81315342D01*
X170520000Y-81158275D01*
X170520000Y-80998125D01*
X170551242Y-80841058D01*
X170612530Y-80693098D01*
X170670539Y-80606282D01*
X170701501Y-80559943D01*
X170814743Y-80446701D01*
X170918403Y-80377438D01*
X170947898Y-80357730D01*
X171095858Y-80296442D01*
X171252925Y-80265200D01*
X171413075Y-80265200D01*
X171570142Y-80296442D01*
X171570142Y-80296442D01*
G37*
G36*
X174110142Y-80296442D02*
G01*
X174258102Y-80357730D01*
X174287597Y-80377438D01*
X174391257Y-80446701D01*
X174504499Y-80559943D01*
X174535461Y-80606282D01*
X174593470Y-80693098D01*
X174654758Y-80841058D01*
X174686000Y-80998125D01*
X174686000Y-81158275D01*
X174654758Y-81315342D01*
X174593470Y-81463302D01*
X174565797Y-81504718D01*
X174506798Y-81593017D01*
X174504498Y-81596458D01*
X174391258Y-81709698D01*
X174258102Y-81798670D01*
X174110142Y-81859958D01*
X173953075Y-81891200D01*
X173792925Y-81891200D01*
X173635858Y-81859958D01*
X173487898Y-81798670D01*
X173354742Y-81709698D01*
X173241502Y-81596458D01*
X173239203Y-81593017D01*
X173180203Y-81504718D01*
X173152530Y-81463302D01*
X173091242Y-81315342D01*
X173060000Y-81158275D01*
X173060000Y-80998125D01*
X173091242Y-80841058D01*
X173152530Y-80693098D01*
X173210539Y-80606282D01*
X173241501Y-80559943D01*
X173354743Y-80446701D01*
X173458403Y-80377438D01*
X173487898Y-80357730D01*
X173635858Y-80296442D01*
X173792925Y-80265200D01*
X173953075Y-80265200D01*
X174110142Y-80296442D01*
X174110142Y-80296442D01*
G37*
G36*
X169030142Y-80296442D02*
G01*
X169178102Y-80357730D01*
X169207597Y-80377438D01*
X169311257Y-80446701D01*
X169424499Y-80559943D01*
X169455461Y-80606282D01*
X169513470Y-80693098D01*
X169574758Y-80841058D01*
X169606000Y-80998125D01*
X169606000Y-81158275D01*
X169574758Y-81315342D01*
X169513470Y-81463302D01*
X169485797Y-81504718D01*
X169426798Y-81593017D01*
X169424498Y-81596458D01*
X169311258Y-81709698D01*
X169178102Y-81798670D01*
X169030142Y-81859958D01*
X168873075Y-81891200D01*
X168712925Y-81891200D01*
X168555858Y-81859958D01*
X168407898Y-81798670D01*
X168274742Y-81709698D01*
X168161502Y-81596458D01*
X168159203Y-81593017D01*
X168100203Y-81504718D01*
X168072530Y-81463302D01*
X168011242Y-81315342D01*
X167980000Y-81158275D01*
X167980000Y-80998125D01*
X168011242Y-80841058D01*
X168072530Y-80693098D01*
X168130539Y-80606282D01*
X168161501Y-80559943D01*
X168274743Y-80446701D01*
X168378403Y-80377438D01*
X168407898Y-80357730D01*
X168555858Y-80296442D01*
X168712925Y-80265200D01*
X168873075Y-80265200D01*
X169030142Y-80296442D01*
X169030142Y-80296442D01*
G37*
G36*
X177226000Y-81891200D02*
G01*
X175600000Y-81891200D01*
X175600000Y-80265200D01*
X177226000Y-80265200D01*
X177226000Y-81891200D01*
X177226000Y-81891200D01*
G37*
G36*
X111011562Y-80166681D02*
G01*
X111046477Y-80177273D01*
X111078665Y-80194478D01*
X111106873Y-80217627D01*
X111130022Y-80245835D01*
X111147227Y-80278023D01*
X111157819Y-80312938D01*
X111162000Y-80355395D01*
X111162000Y-81496605D01*
X111157819Y-81539062D01*
X111147227Y-81573977D01*
X111130022Y-81606165D01*
X111106873Y-81634373D01*
X111078665Y-81657522D01*
X111046477Y-81674727D01*
X111011562Y-81685319D01*
X110969105Y-81689500D01*
X109502895Y-81689500D01*
X109460438Y-81685319D01*
X109425523Y-81674727D01*
X109393335Y-81657522D01*
X109365127Y-81634373D01*
X109341978Y-81606165D01*
X109324773Y-81573977D01*
X109314181Y-81539062D01*
X109310000Y-81496605D01*
X109310000Y-80355395D01*
X109314181Y-80312938D01*
X109324773Y-80278023D01*
X109341978Y-80245835D01*
X109365127Y-80217627D01*
X109393335Y-80194478D01*
X109425523Y-80177273D01*
X109460438Y-80166681D01*
X109502895Y-80162500D01*
X110969105Y-80162500D01*
X111011562Y-80166681D01*
X111011562Y-80166681D01*
G37*
G36*
X134700677Y-79887465D02*
G01*
X134738364Y-79898898D01*
X134773103Y-79917466D01*
X134803548Y-79942452D01*
X134828534Y-79972897D01*
X134847102Y-80007636D01*
X134858535Y-80045323D01*
X134863000Y-80090661D01*
X134863000Y-80927339D01*
X134858535Y-80972677D01*
X134847102Y-81010364D01*
X134828534Y-81045103D01*
X134803548Y-81075548D01*
X134773103Y-81100534D01*
X134738364Y-81119102D01*
X134700677Y-81130535D01*
X134655339Y-81135000D01*
X133568661Y-81135000D01*
X133523323Y-81130535D01*
X133485636Y-81119102D01*
X133450897Y-81100534D01*
X133420452Y-81075548D01*
X133395466Y-81045103D01*
X133376898Y-81010364D01*
X133365465Y-80972677D01*
X133361000Y-80927339D01*
X133361000Y-80090661D01*
X133365465Y-80045323D01*
X133376898Y-80007636D01*
X133395466Y-79972897D01*
X133420452Y-79942452D01*
X133450897Y-79917466D01*
X133485636Y-79898898D01*
X133523323Y-79887465D01*
X133568661Y-79883000D01*
X134655339Y-79883000D01*
X134700677Y-79887465D01*
X134700677Y-79887465D01*
G37*
G36*
X121679562Y-79287181D02*
G01*
X121714477Y-79297773D01*
X121746665Y-79314978D01*
X121774873Y-79338127D01*
X121798022Y-79366335D01*
X121815227Y-79398523D01*
X121825819Y-79433438D01*
X121830000Y-79475895D01*
X121830000Y-80617105D01*
X121825819Y-80659562D01*
X121815227Y-80694477D01*
X121798022Y-80726665D01*
X121774873Y-80754873D01*
X121746665Y-80778022D01*
X121714477Y-80795227D01*
X121679562Y-80805819D01*
X121637105Y-80810000D01*
X120170895Y-80810000D01*
X120128438Y-80805819D01*
X120093523Y-80795227D01*
X120061335Y-80778022D01*
X120033127Y-80754873D01*
X120009978Y-80726665D01*
X119992773Y-80694477D01*
X119982181Y-80659562D01*
X119978000Y-80617105D01*
X119978000Y-79475895D01*
X119982181Y-79433438D01*
X119992773Y-79398523D01*
X120009978Y-79366335D01*
X120033127Y-79338127D01*
X120061335Y-79314978D01*
X120093523Y-79297773D01*
X120128438Y-79287181D01*
X120170895Y-79283000D01*
X121637105Y-79283000D01*
X121679562Y-79287181D01*
X121679562Y-79287181D01*
G37*
G36*
X106741000Y-80764000D02*
G01*
X105339000Y-80764000D01*
X105339000Y-80212000D01*
X106741000Y-80212000D01*
X106741000Y-80764000D01*
X106741000Y-80764000D01*
G37*
G36*
X125048677Y-79379465D02*
G01*
X125086364Y-79390898D01*
X125121103Y-79409466D01*
X125151548Y-79434452D01*
X125176534Y-79464897D01*
X125195102Y-79499636D01*
X125206535Y-79537323D01*
X125211000Y-79582661D01*
X125211000Y-80419339D01*
X125206535Y-80464677D01*
X125195102Y-80502364D01*
X125176534Y-80537103D01*
X125151548Y-80567548D01*
X125121103Y-80592534D01*
X125086364Y-80611102D01*
X125048677Y-80622535D01*
X125003339Y-80627000D01*
X123916661Y-80627000D01*
X123871323Y-80622535D01*
X123833636Y-80611102D01*
X123798897Y-80592534D01*
X123768452Y-80567548D01*
X123743466Y-80537103D01*
X123724898Y-80502364D01*
X123713465Y-80464677D01*
X123709000Y-80419339D01*
X123709000Y-79582661D01*
X123713465Y-79537323D01*
X123724898Y-79499636D01*
X123743466Y-79464897D01*
X123768452Y-79434452D01*
X123798897Y-79409466D01*
X123833636Y-79390898D01*
X123871323Y-79379465D01*
X123916661Y-79375000D01*
X125003339Y-79375000D01*
X125048677Y-79379465D01*
X125048677Y-79379465D01*
G37*
G36*
X131213000Y-80452000D02*
G01*
X129551000Y-80452000D01*
X129551000Y-79700000D01*
X131213000Y-79700000D01*
X131213000Y-80452000D01*
X131213000Y-80452000D01*
G37*
G36*
X115194928Y-78543764D02*
G01*
X115216011Y-78550160D01*
X115235442Y-78560546D01*
X115252475Y-78574525D01*
X115266454Y-78591558D01*
X115276840Y-78610989D01*
X115283236Y-78632072D01*
X115286000Y-78660140D01*
X115286000Y-80123860D01*
X115283236Y-80151928D01*
X115276840Y-80173011D01*
X115266454Y-80192442D01*
X115252475Y-80209475D01*
X115235442Y-80223454D01*
X115216011Y-80233840D01*
X115194928Y-80240236D01*
X115166860Y-80243000D01*
X114703140Y-80243000D01*
X114675072Y-80240236D01*
X114653989Y-80233840D01*
X114634558Y-80223454D01*
X114617525Y-80209475D01*
X114603546Y-80192442D01*
X114593160Y-80173011D01*
X114586764Y-80151928D01*
X114584000Y-80123860D01*
X114584000Y-78660140D01*
X114586764Y-78632072D01*
X114593160Y-78610989D01*
X114603546Y-78591558D01*
X114617525Y-78574525D01*
X114634558Y-78560546D01*
X114653989Y-78550160D01*
X114675072Y-78543764D01*
X114703140Y-78541000D01*
X115166860Y-78541000D01*
X115194928Y-78543764D01*
X115194928Y-78543764D01*
G37*
G36*
X116464928Y-78543764D02*
G01*
X116486011Y-78550160D01*
X116505442Y-78560546D01*
X116522475Y-78574525D01*
X116536454Y-78591558D01*
X116546840Y-78610989D01*
X116553236Y-78632072D01*
X116556000Y-78660140D01*
X116556000Y-80123860D01*
X116553236Y-80151928D01*
X116546840Y-80173011D01*
X116536454Y-80192442D01*
X116522475Y-80209475D01*
X116505442Y-80223454D01*
X116486011Y-80233840D01*
X116464928Y-80240236D01*
X116436860Y-80243000D01*
X115973140Y-80243000D01*
X115945072Y-80240236D01*
X115923989Y-80233840D01*
X115904558Y-80223454D01*
X115887525Y-80209475D01*
X115873546Y-80192442D01*
X115863160Y-80173011D01*
X115856764Y-80151928D01*
X115854000Y-80123860D01*
X115854000Y-78660140D01*
X115856764Y-78632072D01*
X115863160Y-78610989D01*
X115873546Y-78591558D01*
X115887525Y-78574525D01*
X115904558Y-78560546D01*
X115923989Y-78550160D01*
X115945072Y-78543764D01*
X115973140Y-78541000D01*
X116436860Y-78541000D01*
X116464928Y-78543764D01*
X116464928Y-78543764D01*
G37*
G36*
X117734928Y-78543764D02*
G01*
X117756011Y-78550160D01*
X117775442Y-78560546D01*
X117792475Y-78574525D01*
X117806454Y-78591558D01*
X117816840Y-78610989D01*
X117823236Y-78632072D01*
X117826000Y-78660140D01*
X117826000Y-80123860D01*
X117823236Y-80151928D01*
X117816840Y-80173011D01*
X117806454Y-80192442D01*
X117792475Y-80209475D01*
X117775442Y-80223454D01*
X117756011Y-80233840D01*
X117734928Y-80240236D01*
X117706860Y-80243000D01*
X117243140Y-80243000D01*
X117215072Y-80240236D01*
X117193989Y-80233840D01*
X117174558Y-80223454D01*
X117157525Y-80209475D01*
X117143546Y-80192442D01*
X117133160Y-80173011D01*
X117126764Y-80151928D01*
X117124000Y-80123860D01*
X117124000Y-78660140D01*
X117126764Y-78632072D01*
X117133160Y-78610989D01*
X117143546Y-78591558D01*
X117157525Y-78574525D01*
X117174558Y-78560546D01*
X117193989Y-78550160D01*
X117215072Y-78543764D01*
X117243140Y-78541000D01*
X117706860Y-78541000D01*
X117734928Y-78543764D01*
X117734928Y-78543764D01*
G37*
G36*
X113924928Y-78543764D02*
G01*
X113946011Y-78550160D01*
X113965442Y-78560546D01*
X113982475Y-78574525D01*
X113996454Y-78591558D01*
X114006840Y-78610989D01*
X114013236Y-78632072D01*
X114016000Y-78660140D01*
X114016000Y-80123860D01*
X114013236Y-80151928D01*
X114006840Y-80173011D01*
X113996454Y-80192442D01*
X113982475Y-80209475D01*
X113965442Y-80223454D01*
X113946011Y-80233840D01*
X113924928Y-80240236D01*
X113896860Y-80243000D01*
X113433140Y-80243000D01*
X113405072Y-80240236D01*
X113383989Y-80233840D01*
X113364558Y-80223454D01*
X113347525Y-80209475D01*
X113333546Y-80192442D01*
X113323160Y-80173011D01*
X113316764Y-80151928D01*
X113314000Y-80123860D01*
X113314000Y-78660140D01*
X113316764Y-78632072D01*
X113323160Y-78610989D01*
X113333546Y-78591558D01*
X113347525Y-78574525D01*
X113364558Y-78560546D01*
X113383989Y-78550160D01*
X113405072Y-78543764D01*
X113433140Y-78541000D01*
X113896860Y-78541000D01*
X113924928Y-78543764D01*
X113924928Y-78543764D01*
G37*
G36*
X106417119Y-77298228D02*
G01*
X106417122Y-77298229D01*
X106563399Y-77342601D01*
X106563401Y-77342602D01*
X106698210Y-77414659D01*
X106816369Y-77511631D01*
X106913341Y-77629790D01*
X106913342Y-77629792D01*
X106985399Y-77764601D01*
X107010084Y-77845978D01*
X107029772Y-77910881D01*
X107044754Y-78063000D01*
X107029772Y-78215119D01*
X107029771Y-78215122D01*
X106986494Y-78357790D01*
X106985398Y-78361401D01*
X106913341Y-78496210D01*
X106816369Y-78614369D01*
X106698210Y-78711341D01*
X106698208Y-78711342D01*
X106563399Y-78783399D01*
X106506509Y-78800656D01*
X106417119Y-78827772D01*
X106303118Y-78839000D01*
X105676882Y-78839000D01*
X105562881Y-78827772D01*
X105473491Y-78800656D01*
X105416601Y-78783399D01*
X105416599Y-78783398D01*
X105409208Y-78781156D01*
X105400754Y-78777655D01*
X105376721Y-78772877D01*
X105352216Y-78772879D01*
X105328183Y-78777662D01*
X105305545Y-78787041D01*
X105285172Y-78800656D01*
X105267846Y-78817985D01*
X105254234Y-78838361D01*
X105244858Y-78861001D01*
X105240080Y-78885034D01*
X105240082Y-78909539D01*
X105244865Y-78933572D01*
X105254244Y-78956210D01*
X105267850Y-78976571D01*
X105291496Y-79005385D01*
X105316807Y-79036225D01*
X105330191Y-79061265D01*
X105358686Y-79114575D01*
X105358687Y-79114579D01*
X105384475Y-79199587D01*
X105393182Y-79288000D01*
X105384475Y-79376413D01*
X105367176Y-79433438D01*
X105358686Y-79461425D01*
X105316807Y-79539774D01*
X105260448Y-79608448D01*
X105191774Y-79664807D01*
X105113425Y-79706686D01*
X105103456Y-79709710D01*
X105028413Y-79732475D01*
X104962158Y-79739000D01*
X104917842Y-79739000D01*
X104851587Y-79732475D01*
X104776544Y-79709710D01*
X104766575Y-79706686D01*
X104688226Y-79664807D01*
X104619552Y-79608448D01*
X104563193Y-79539774D01*
X104521314Y-79461425D01*
X104512824Y-79433438D01*
X104495525Y-79376413D01*
X104486818Y-79288000D01*
X104495525Y-79199587D01*
X104521313Y-79114579D01*
X104521314Y-79114575D01*
X104563193Y-79036226D01*
X104619552Y-78967552D01*
X104688226Y-78911193D01*
X104766575Y-78869314D01*
X104779719Y-78865327D01*
X104851587Y-78843525D01*
X104917842Y-78837000D01*
X104962158Y-78837000D01*
X105028411Y-78843525D01*
X105063489Y-78854167D01*
X105084524Y-78860547D01*
X105108551Y-78865327D01*
X105133055Y-78865327D01*
X105157089Y-78860547D01*
X105179728Y-78851170D01*
X105200103Y-78837556D01*
X105217430Y-78820230D01*
X105231044Y-78799855D01*
X105240422Y-78777216D01*
X105245203Y-78753183D01*
X105245203Y-78728679D01*
X105240423Y-78704645D01*
X105231046Y-78682006D01*
X105217432Y-78661631D01*
X105200105Y-78644304D01*
X105163632Y-78614370D01*
X105066659Y-78496210D01*
X104994602Y-78361401D01*
X104993507Y-78357790D01*
X104950229Y-78215122D01*
X104950228Y-78215119D01*
X104935246Y-78063000D01*
X104950228Y-77910881D01*
X104969916Y-77845978D01*
X104994601Y-77764601D01*
X105066658Y-77629792D01*
X105066659Y-77629790D01*
X105163631Y-77511631D01*
X105281790Y-77414659D01*
X105416599Y-77342602D01*
X105416601Y-77342601D01*
X105562878Y-77298229D01*
X105562881Y-77298228D01*
X105676882Y-77287000D01*
X106303118Y-77287000D01*
X106417119Y-77298228D01*
X106417119Y-77298228D01*
G37*
G36*
X150763562Y-77818181D02*
G01*
X150798477Y-77828773D01*
X150830665Y-77845978D01*
X150858873Y-77869127D01*
X150882022Y-77897335D01*
X150899227Y-77929523D01*
X150909819Y-77964438D01*
X150914000Y-78006895D01*
X150914000Y-79473105D01*
X150909819Y-79515562D01*
X150899227Y-79550477D01*
X150882022Y-79582665D01*
X150858873Y-79610873D01*
X150830665Y-79634022D01*
X150798477Y-79651227D01*
X150763562Y-79661819D01*
X150721105Y-79666000D01*
X149579895Y-79666000D01*
X149537438Y-79661819D01*
X149502523Y-79651227D01*
X149470335Y-79634022D01*
X149442127Y-79610873D01*
X149418978Y-79582665D01*
X149401773Y-79550477D01*
X149391181Y-79515562D01*
X149387000Y-79473105D01*
X149387000Y-78006895D01*
X149391181Y-77964438D01*
X149401773Y-77929523D01*
X149418978Y-77897335D01*
X149442127Y-77869127D01*
X149470335Y-77845978D01*
X149502523Y-77828773D01*
X149537438Y-77818181D01*
X149579895Y-77814000D01*
X150721105Y-77814000D01*
X150763562Y-77818181D01*
X150763562Y-77818181D01*
G37*
G36*
X153738562Y-77818181D02*
G01*
X153773477Y-77828773D01*
X153805665Y-77845978D01*
X153833873Y-77869127D01*
X153857022Y-77897335D01*
X153874227Y-77929523D01*
X153884819Y-77964438D01*
X153889000Y-78006895D01*
X153889000Y-79473105D01*
X153884819Y-79515562D01*
X153874227Y-79550477D01*
X153857022Y-79582665D01*
X153833873Y-79610873D01*
X153805665Y-79634022D01*
X153773477Y-79651227D01*
X153738562Y-79661819D01*
X153696105Y-79666000D01*
X152554895Y-79666000D01*
X152512438Y-79661819D01*
X152477523Y-79651227D01*
X152445335Y-79634022D01*
X152417127Y-79610873D01*
X152393978Y-79582665D01*
X152376773Y-79550477D01*
X152366181Y-79515562D01*
X152362000Y-79473105D01*
X152362000Y-78006895D01*
X152366181Y-77964438D01*
X152376773Y-77929523D01*
X152393978Y-77897335D01*
X152417127Y-77869127D01*
X152445335Y-77845978D01*
X152477523Y-77828773D01*
X152512438Y-77818181D01*
X152554895Y-77814000D01*
X153696105Y-77814000D01*
X153738562Y-77818181D01*
X153738562Y-77818181D01*
G37*
G36*
X111011562Y-77191681D02*
G01*
X111046477Y-77202273D01*
X111078665Y-77219478D01*
X111106873Y-77242627D01*
X111130022Y-77270835D01*
X111147227Y-77303023D01*
X111157819Y-77337938D01*
X111162000Y-77380395D01*
X111162000Y-78521605D01*
X111157819Y-78564062D01*
X111147227Y-78598977D01*
X111130022Y-78631165D01*
X111106873Y-78659373D01*
X111078665Y-78682522D01*
X111046477Y-78699727D01*
X111011562Y-78710319D01*
X110969105Y-78714500D01*
X109502895Y-78714500D01*
X109460438Y-78710319D01*
X109425523Y-78699727D01*
X109393335Y-78682522D01*
X109365127Y-78659373D01*
X109341978Y-78631165D01*
X109324773Y-78598977D01*
X109314181Y-78564062D01*
X109310000Y-78521605D01*
X109310000Y-77380395D01*
X109314181Y-77337938D01*
X109324773Y-77303023D01*
X109341978Y-77270835D01*
X109365127Y-77242627D01*
X109393335Y-77219478D01*
X109425523Y-77202273D01*
X109460438Y-77191681D01*
X109502895Y-77187500D01*
X110969105Y-77187500D01*
X111011562Y-77191681D01*
X111011562Y-77191681D01*
G37*
G36*
X102637714Y-77296058D02*
G01*
X102644871Y-77298229D01*
X102755719Y-77331854D01*
X102755721Y-77331855D01*
X102864471Y-77389983D01*
X102959790Y-77468210D01*
X103038017Y-77563529D01*
X103096145Y-77672279D01*
X103131942Y-77790286D01*
X103144028Y-77913000D01*
X103131942Y-78035714D01*
X103096145Y-78153721D01*
X103038017Y-78262471D01*
X102959790Y-78357790D01*
X102864471Y-78436017D01*
X102864469Y-78436018D01*
X102755719Y-78494146D01*
X102659683Y-78523278D01*
X102637714Y-78529942D01*
X102545747Y-78539000D01*
X101834253Y-78539000D01*
X101742286Y-78529942D01*
X101720317Y-78523278D01*
X101624281Y-78494146D01*
X101515531Y-78436018D01*
X101515529Y-78436017D01*
X101420210Y-78357790D01*
X101341983Y-78262471D01*
X101283855Y-78153721D01*
X101248058Y-78035714D01*
X101235972Y-77913000D01*
X101248058Y-77790286D01*
X101283855Y-77672279D01*
X101341983Y-77563529D01*
X101420210Y-77468210D01*
X101515529Y-77389983D01*
X101624279Y-77331855D01*
X101624281Y-77331854D01*
X101735129Y-77298229D01*
X101742286Y-77296058D01*
X101834253Y-77287000D01*
X102545747Y-77287000D01*
X102637714Y-77296058D01*
X102637714Y-77296058D01*
G37*
G36*
X181445000Y-78067000D02*
G01*
X179743000Y-78067000D01*
X179743000Y-76365000D01*
X181445000Y-76365000D01*
X181445000Y-78067000D01*
X181445000Y-78067000D01*
G37*
G36*
X118631562Y-74959681D02*
G01*
X118666477Y-74970273D01*
X118698665Y-74987478D01*
X118726873Y-75010627D01*
X118750022Y-75038835D01*
X118767227Y-75071023D01*
X118777819Y-75105938D01*
X118782000Y-75148395D01*
X118782000Y-76289605D01*
X118777819Y-76332062D01*
X118767227Y-76366977D01*
X118750022Y-76399165D01*
X118726873Y-76427373D01*
X118698665Y-76450522D01*
X118666477Y-76467727D01*
X118631562Y-76478319D01*
X118589105Y-76482500D01*
X117122895Y-76482500D01*
X117080438Y-76478319D01*
X117045523Y-76467727D01*
X117013335Y-76450522D01*
X116985127Y-76427373D01*
X116961978Y-76399165D01*
X116944773Y-76366977D01*
X116934181Y-76332062D01*
X116930000Y-76289605D01*
X116930000Y-75148395D01*
X116934181Y-75105938D01*
X116944773Y-75071023D01*
X116961978Y-75038835D01*
X116985127Y-75010627D01*
X117013335Y-74987478D01*
X117045523Y-74970273D01*
X117080438Y-74959681D01*
X117122895Y-74955500D01*
X118589105Y-74955500D01*
X118631562Y-74959681D01*
X118631562Y-74959681D01*
G37*
G36*
X114821562Y-74959681D02*
G01*
X114856477Y-74970273D01*
X114888665Y-74987478D01*
X114916873Y-75010627D01*
X114940022Y-75038835D01*
X114957227Y-75071023D01*
X114967819Y-75105938D01*
X114972000Y-75148395D01*
X114972000Y-76289605D01*
X114967819Y-76332062D01*
X114957227Y-76366977D01*
X114940022Y-76399165D01*
X114916873Y-76427373D01*
X114888665Y-76450522D01*
X114856477Y-76467727D01*
X114821562Y-76478319D01*
X114779105Y-76482500D01*
X113312895Y-76482500D01*
X113270438Y-76478319D01*
X113235523Y-76467727D01*
X113203335Y-76450522D01*
X113175127Y-76427373D01*
X113151978Y-76399165D01*
X113134773Y-76366977D01*
X113124181Y-76332062D01*
X113120000Y-76289605D01*
X113120000Y-75148395D01*
X113124181Y-75105938D01*
X113134773Y-75071023D01*
X113151978Y-75038835D01*
X113175127Y-75010627D01*
X113203335Y-74987478D01*
X113235523Y-74970273D01*
X113270438Y-74959681D01*
X113312895Y-74955500D01*
X114779105Y-74955500D01*
X114821562Y-74959681D01*
X114821562Y-74959681D01*
G37*
G36*
X140784562Y-74516181D02*
G01*
X140819477Y-74526773D01*
X140851665Y-74543978D01*
X140879873Y-74567127D01*
X140903022Y-74595335D01*
X140920227Y-74627523D01*
X140930819Y-74662438D01*
X140935000Y-74704895D01*
X140935000Y-76171105D01*
X140930819Y-76213562D01*
X140920227Y-76248477D01*
X140903022Y-76280665D01*
X140879873Y-76308873D01*
X140851665Y-76332022D01*
X140819477Y-76349227D01*
X140784562Y-76359819D01*
X140742105Y-76364000D01*
X139600895Y-76364000D01*
X139558438Y-76359819D01*
X139523523Y-76349227D01*
X139491335Y-76332022D01*
X139463127Y-76308873D01*
X139439978Y-76280665D01*
X139422773Y-76248477D01*
X139412181Y-76213562D01*
X139408000Y-76171105D01*
X139408000Y-74704895D01*
X139412181Y-74662438D01*
X139422773Y-74627523D01*
X139439978Y-74595335D01*
X139463127Y-74567127D01*
X139491335Y-74543978D01*
X139523523Y-74526773D01*
X139558438Y-74516181D01*
X139600895Y-74512000D01*
X140742105Y-74512000D01*
X140784562Y-74516181D01*
X140784562Y-74516181D01*
G37*
G36*
X137809562Y-74516181D02*
G01*
X137844477Y-74526773D01*
X137876665Y-74543978D01*
X137904873Y-74567127D01*
X137928022Y-74595335D01*
X137945227Y-74627523D01*
X137955819Y-74662438D01*
X137960000Y-74704895D01*
X137960000Y-76171105D01*
X137955819Y-76213562D01*
X137945227Y-76248477D01*
X137928022Y-76280665D01*
X137904873Y-76308873D01*
X137876665Y-76332022D01*
X137844477Y-76349227D01*
X137809562Y-76359819D01*
X137767105Y-76364000D01*
X136625895Y-76364000D01*
X136583438Y-76359819D01*
X136548523Y-76349227D01*
X136516335Y-76332022D01*
X136488127Y-76308873D01*
X136464978Y-76280665D01*
X136447773Y-76248477D01*
X136437181Y-76213562D01*
X136433000Y-76171105D01*
X136433000Y-74704895D01*
X136437181Y-74662438D01*
X136447773Y-74627523D01*
X136464978Y-74595335D01*
X136488127Y-74567127D01*
X136516335Y-74543978D01*
X136548523Y-74526773D01*
X136583438Y-74516181D01*
X136625895Y-74512000D01*
X137767105Y-74512000D01*
X137809562Y-74516181D01*
X137809562Y-74516181D01*
G37*
G36*
X131518677Y-74691465D02*
G01*
X131556364Y-74702898D01*
X131591103Y-74721466D01*
X131621548Y-74746452D01*
X131646534Y-74776897D01*
X131665102Y-74811636D01*
X131676535Y-74849323D01*
X131681000Y-74894661D01*
X131681000Y-75981339D01*
X131676535Y-76026677D01*
X131665102Y-76064364D01*
X131646534Y-76099103D01*
X131621548Y-76129548D01*
X131591103Y-76154534D01*
X131556364Y-76173102D01*
X131518677Y-76184535D01*
X131473339Y-76189000D01*
X130636661Y-76189000D01*
X130591323Y-76184535D01*
X130553636Y-76173102D01*
X130518897Y-76154534D01*
X130488452Y-76129548D01*
X130463466Y-76099103D01*
X130444898Y-76064364D01*
X130433465Y-76026677D01*
X130429000Y-75981339D01*
X130429000Y-74894661D01*
X130433465Y-74849323D01*
X130444898Y-74811636D01*
X130463466Y-74776897D01*
X130488452Y-74746452D01*
X130518897Y-74721466D01*
X130553636Y-74702898D01*
X130591323Y-74691465D01*
X130636661Y-74687000D01*
X131473339Y-74687000D01*
X131518677Y-74691465D01*
X131518677Y-74691465D01*
G37*
G36*
X133568677Y-74691465D02*
G01*
X133606364Y-74702898D01*
X133641103Y-74721466D01*
X133671548Y-74746452D01*
X133696534Y-74776897D01*
X133715102Y-74811636D01*
X133726535Y-74849323D01*
X133731000Y-74894661D01*
X133731000Y-75981339D01*
X133726535Y-76026677D01*
X133715102Y-76064364D01*
X133696534Y-76099103D01*
X133671548Y-76129548D01*
X133641103Y-76154534D01*
X133606364Y-76173102D01*
X133568677Y-76184535D01*
X133523339Y-76189000D01*
X132686661Y-76189000D01*
X132641323Y-76184535D01*
X132603636Y-76173102D01*
X132568897Y-76154534D01*
X132538452Y-76129548D01*
X132513466Y-76099103D01*
X132494898Y-76064364D01*
X132483465Y-76026677D01*
X132479000Y-75981339D01*
X132479000Y-74894661D01*
X132483465Y-74849323D01*
X132494898Y-74811636D01*
X132513466Y-74776897D01*
X132538452Y-74746452D01*
X132568897Y-74721466D01*
X132603636Y-74702898D01*
X132641323Y-74691465D01*
X132686661Y-74687000D01*
X133523339Y-74687000D01*
X133568677Y-74691465D01*
X133568677Y-74691465D01*
G37*
G36*
X123585562Y-74262181D02*
G01*
X123620477Y-74272773D01*
X123652665Y-74289978D01*
X123680873Y-74313127D01*
X123704022Y-74341335D01*
X123721227Y-74373523D01*
X123731819Y-74408438D01*
X123736000Y-74450895D01*
X123736000Y-75917105D01*
X123731819Y-75959562D01*
X123721227Y-75994477D01*
X123704022Y-76026665D01*
X123680873Y-76054873D01*
X123652665Y-76078022D01*
X123620477Y-76095227D01*
X123585562Y-76105819D01*
X123543105Y-76110000D01*
X122401895Y-76110000D01*
X122359438Y-76105819D01*
X122324523Y-76095227D01*
X122292335Y-76078022D01*
X122264127Y-76054873D01*
X122240978Y-76026665D01*
X122223773Y-75994477D01*
X122213181Y-75959562D01*
X122209000Y-75917105D01*
X122209000Y-74450895D01*
X122213181Y-74408438D01*
X122223773Y-74373523D01*
X122240978Y-74341335D01*
X122264127Y-74313127D01*
X122292335Y-74289978D01*
X122324523Y-74272773D01*
X122359438Y-74262181D01*
X122401895Y-74258000D01*
X123543105Y-74258000D01*
X123585562Y-74262181D01*
X123585562Y-74262181D01*
G37*
G36*
X126560562Y-74262181D02*
G01*
X126595477Y-74272773D01*
X126627665Y-74289978D01*
X126655873Y-74313127D01*
X126679022Y-74341335D01*
X126696227Y-74373523D01*
X126706819Y-74408438D01*
X126711000Y-74450895D01*
X126711000Y-75917105D01*
X126706819Y-75959562D01*
X126696227Y-75994477D01*
X126679022Y-76026665D01*
X126655873Y-76054873D01*
X126627665Y-76078022D01*
X126595477Y-76095227D01*
X126560562Y-76105819D01*
X126518105Y-76110000D01*
X125376895Y-76110000D01*
X125334438Y-76105819D01*
X125299523Y-76095227D01*
X125267335Y-76078022D01*
X125239127Y-76054873D01*
X125215978Y-76026665D01*
X125198773Y-75994477D01*
X125188181Y-75959562D01*
X125184000Y-75917105D01*
X125184000Y-74450895D01*
X125188181Y-74408438D01*
X125198773Y-74373523D01*
X125215978Y-74341335D01*
X125239127Y-74313127D01*
X125267335Y-74289978D01*
X125299523Y-74272773D01*
X125334438Y-74262181D01*
X125376895Y-74258000D01*
X126518105Y-74258000D01*
X126560562Y-74262181D01*
X126560562Y-74262181D01*
G37*
G36*
X153294025Y-74394590D02*
G01*
X153445012Y-74440392D01*
X153584165Y-74514770D01*
X153706133Y-74614867D01*
X153806230Y-74736835D01*
X153880608Y-74875988D01*
X153926410Y-75026975D01*
X153941875Y-75184000D01*
X153926410Y-75341025D01*
X153880608Y-75492012D01*
X153806230Y-75631165D01*
X153706133Y-75753133D01*
X153584165Y-75853230D01*
X153445012Y-75927608D01*
X153294025Y-75973410D01*
X153176346Y-75985000D01*
X153097654Y-75985000D01*
X152979975Y-75973410D01*
X152828988Y-75927608D01*
X152689835Y-75853230D01*
X152567867Y-75753133D01*
X152467770Y-75631165D01*
X152393392Y-75492012D01*
X152347590Y-75341025D01*
X152332125Y-75184000D01*
X152347590Y-75026975D01*
X152393392Y-74875988D01*
X152467770Y-74736835D01*
X152567867Y-74614867D01*
X152689835Y-74514770D01*
X152828988Y-74440392D01*
X152979975Y-74394590D01*
X153097654Y-74383000D01*
X153176346Y-74383000D01*
X153294025Y-74394590D01*
X153294025Y-74394590D01*
G37*
G36*
X146318000Y-75985000D02*
G01*
X144716000Y-75985000D01*
X144716000Y-74383000D01*
X146318000Y-74383000D01*
X146318000Y-75985000D01*
X146318000Y-75985000D01*
G37*
G36*
X180842228Y-73897703D02*
G01*
X180997100Y-73961853D01*
X181136481Y-74054985D01*
X181255015Y-74173519D01*
X181348147Y-74312900D01*
X181412297Y-74467772D01*
X181445000Y-74632184D01*
X181445000Y-74799816D01*
X181412297Y-74964228D01*
X181348147Y-75119100D01*
X181255015Y-75258481D01*
X181136481Y-75377015D01*
X180997100Y-75470147D01*
X180842228Y-75534297D01*
X180677816Y-75567000D01*
X180510184Y-75567000D01*
X180345772Y-75534297D01*
X180190900Y-75470147D01*
X180051519Y-75377015D01*
X179932985Y-75258481D01*
X179839853Y-75119100D01*
X179775703Y-74964228D01*
X179743000Y-74799816D01*
X179743000Y-74632184D01*
X179775703Y-74467772D01*
X179839853Y-74312900D01*
X179932985Y-74173519D01*
X180051519Y-74054985D01*
X180190900Y-73961853D01*
X180345772Y-73897703D01*
X180510184Y-73865000D01*
X180677816Y-73865000D01*
X180842228Y-73897703D01*
X180842228Y-73897703D01*
G37*
G36*
X106757562Y-72415181D02*
G01*
X106792477Y-72425773D01*
X106824665Y-72442978D01*
X106852873Y-72466127D01*
X106876022Y-72494335D01*
X106893227Y-72526523D01*
X106903819Y-72561438D01*
X106908000Y-72603895D01*
X106908000Y-74970105D01*
X106903819Y-75012562D01*
X106893227Y-75047477D01*
X106876022Y-75079665D01*
X106852873Y-75107873D01*
X106824665Y-75131022D01*
X106792477Y-75148227D01*
X106757562Y-75158819D01*
X106715105Y-75163000D01*
X105573895Y-75163000D01*
X105531438Y-75158819D01*
X105496523Y-75148227D01*
X105464335Y-75131022D01*
X105436127Y-75107873D01*
X105412978Y-75079665D01*
X105395773Y-75047477D01*
X105385181Y-75012562D01*
X105381000Y-74970105D01*
X105381000Y-72603895D01*
X105385181Y-72561438D01*
X105395773Y-72526523D01*
X105412978Y-72494335D01*
X105436127Y-72466127D01*
X105464335Y-72442978D01*
X105496523Y-72425773D01*
X105531438Y-72415181D01*
X105573895Y-72411000D01*
X106715105Y-72411000D01*
X106757562Y-72415181D01*
X106757562Y-72415181D01*
G37*
G36*
X109732562Y-72415181D02*
G01*
X109767477Y-72425773D01*
X109799665Y-72442978D01*
X109827873Y-72466127D01*
X109851022Y-72494335D01*
X109868227Y-72526523D01*
X109878819Y-72561438D01*
X109883000Y-72603895D01*
X109883000Y-74970105D01*
X109878819Y-75012562D01*
X109868227Y-75047477D01*
X109851022Y-75079665D01*
X109827873Y-75107873D01*
X109799665Y-75131022D01*
X109767477Y-75148227D01*
X109732562Y-75158819D01*
X109690105Y-75163000D01*
X108548895Y-75163000D01*
X108506438Y-75158819D01*
X108471523Y-75148227D01*
X108439335Y-75131022D01*
X108411127Y-75107873D01*
X108387978Y-75079665D01*
X108370773Y-75047477D01*
X108360181Y-75012562D01*
X108356000Y-74970105D01*
X108356000Y-72603895D01*
X108360181Y-72561438D01*
X108370773Y-72526523D01*
X108387978Y-72494335D01*
X108411127Y-72466127D01*
X108439335Y-72442978D01*
X108471523Y-72425773D01*
X108506438Y-72415181D01*
X108548895Y-72411000D01*
X109690105Y-72411000D01*
X109732562Y-72415181D01*
X109732562Y-72415181D01*
G37*
G36*
X167750442Y-73019518D02*
G01*
X167816627Y-73026037D01*
X167929853Y-73060384D01*
X167986467Y-73077557D01*
X168125087Y-73151652D01*
X168142991Y-73161222D01*
X168178729Y-73190552D01*
X168280186Y-73273814D01*
X168348505Y-73357062D01*
X168392778Y-73411009D01*
X168392779Y-73411011D01*
X168476443Y-73567533D01*
X168476443Y-73567534D01*
X168527963Y-73737373D01*
X168545359Y-73914000D01*
X168527963Y-74090627D01*
X168502818Y-74173519D01*
X168476443Y-74260467D01*
X168416012Y-74373523D01*
X168392778Y-74416991D01*
X168363448Y-74452729D01*
X168280186Y-74554186D01*
X168190823Y-74627523D01*
X168142991Y-74666778D01*
X168142989Y-74666779D01*
X167986467Y-74750443D01*
X167932814Y-74766718D01*
X167816627Y-74801963D01*
X167755717Y-74807962D01*
X167684260Y-74815000D01*
X167595740Y-74815000D01*
X167524283Y-74807962D01*
X167463373Y-74801963D01*
X167347186Y-74766718D01*
X167293533Y-74750443D01*
X167137011Y-74666779D01*
X167137009Y-74666778D01*
X167089177Y-74627523D01*
X166999814Y-74554186D01*
X166916552Y-74452729D01*
X166887222Y-74416991D01*
X166863988Y-74373523D01*
X166803557Y-74260467D01*
X166777182Y-74173519D01*
X166752037Y-74090627D01*
X166734641Y-73914000D01*
X166752037Y-73737373D01*
X166803557Y-73567534D01*
X166803557Y-73567533D01*
X166887221Y-73411011D01*
X166887222Y-73411009D01*
X166931495Y-73357062D01*
X166999814Y-73273814D01*
X167101271Y-73190552D01*
X167137009Y-73161222D01*
X167154913Y-73151652D01*
X167293533Y-73077557D01*
X167350147Y-73060384D01*
X167463373Y-73026037D01*
X167529558Y-73019518D01*
X167595740Y-73013000D01*
X167684260Y-73013000D01*
X167750442Y-73019518D01*
X167750442Y-73019518D01*
G37*
G36*
X166001000Y-74815000D02*
G01*
X164199000Y-74815000D01*
X164199000Y-73013000D01*
X166001000Y-73013000D01*
X166001000Y-74815000D01*
X166001000Y-74815000D01*
G37*
G36*
X118631562Y-71984681D02*
G01*
X118666477Y-71995273D01*
X118698665Y-72012478D01*
X118726873Y-72035627D01*
X118750022Y-72063835D01*
X118767227Y-72096023D01*
X118777819Y-72130938D01*
X118782000Y-72173395D01*
X118782000Y-73314605D01*
X118777819Y-73357062D01*
X118767227Y-73391977D01*
X118750022Y-73424165D01*
X118726873Y-73452373D01*
X118698665Y-73475522D01*
X118666477Y-73492727D01*
X118631562Y-73503319D01*
X118589105Y-73507500D01*
X117122895Y-73507500D01*
X117080438Y-73503319D01*
X117045523Y-73492727D01*
X117013335Y-73475522D01*
X116985127Y-73452373D01*
X116961978Y-73424165D01*
X116944773Y-73391977D01*
X116934181Y-73357062D01*
X116930000Y-73314605D01*
X116930000Y-72173395D01*
X116934181Y-72130938D01*
X116944773Y-72096023D01*
X116961978Y-72063835D01*
X116985127Y-72035627D01*
X117013335Y-72012478D01*
X117045523Y-71995273D01*
X117080438Y-71984681D01*
X117122895Y-71980500D01*
X118589105Y-71980500D01*
X118631562Y-71984681D01*
X118631562Y-71984681D01*
G37*
G36*
X114821562Y-71984681D02*
G01*
X114856477Y-71995273D01*
X114888665Y-72012478D01*
X114916873Y-72035627D01*
X114940022Y-72063835D01*
X114957227Y-72096023D01*
X114967819Y-72130938D01*
X114972000Y-72173395D01*
X114972000Y-73314605D01*
X114967819Y-73357062D01*
X114957227Y-73391977D01*
X114940022Y-73424165D01*
X114916873Y-73452373D01*
X114888665Y-73475522D01*
X114856477Y-73492727D01*
X114821562Y-73503319D01*
X114779105Y-73507500D01*
X113312895Y-73507500D01*
X113270438Y-73503319D01*
X113235523Y-73492727D01*
X113203335Y-73475522D01*
X113175127Y-73452373D01*
X113151978Y-73424165D01*
X113134773Y-73391977D01*
X113124181Y-73357062D01*
X113120000Y-73314605D01*
X113120000Y-72173395D01*
X113124181Y-72130938D01*
X113134773Y-72096023D01*
X113151978Y-72063835D01*
X113175127Y-72035627D01*
X113203335Y-72012478D01*
X113235523Y-71995273D01*
X113270438Y-71984681D01*
X113312895Y-71980500D01*
X114779105Y-71980500D01*
X114821562Y-71984681D01*
X114821562Y-71984681D01*
G37*
G36*
X154259734Y-69759232D02*
G01*
X154469202Y-69845996D01*
X154657723Y-69971962D01*
X154818038Y-70132277D01*
X154944004Y-70320798D01*
X155030768Y-70530266D01*
X155075000Y-70752635D01*
X155075000Y-70979365D01*
X155030768Y-71201734D01*
X154944004Y-71411202D01*
X154818038Y-71599723D01*
X154657723Y-71760038D01*
X154469202Y-71886004D01*
X154259734Y-71972768D01*
X154037365Y-72017000D01*
X153810635Y-72017000D01*
X153588266Y-71972768D01*
X153378798Y-71886004D01*
X153190277Y-71760038D01*
X153029962Y-71599723D01*
X152903996Y-71411202D01*
X152817232Y-71201734D01*
X152773000Y-70979365D01*
X152773000Y-70752635D01*
X152817232Y-70530266D01*
X152903996Y-70320798D01*
X153029962Y-70132277D01*
X153190277Y-69971962D01*
X153378798Y-69845996D01*
X153588266Y-69759232D01*
X153810635Y-69715000D01*
X154037365Y-69715000D01*
X154259734Y-69759232D01*
X154259734Y-69759232D01*
G37*
G36*
X147259734Y-69759232D02*
G01*
X147469202Y-69845996D01*
X147657723Y-69971962D01*
X147818038Y-70132277D01*
X147944004Y-70320798D01*
X148030768Y-70530266D01*
X148075000Y-70752635D01*
X148075000Y-70979365D01*
X148030768Y-71201734D01*
X147944004Y-71411202D01*
X147818038Y-71599723D01*
X147657723Y-71760038D01*
X147469202Y-71886004D01*
X147259734Y-71972768D01*
X147037365Y-72017000D01*
X146810635Y-72017000D01*
X146588266Y-71972768D01*
X146378798Y-71886004D01*
X146190277Y-71760038D01*
X146029962Y-71599723D01*
X145903996Y-71411202D01*
X145817232Y-71201734D01*
X145773000Y-70979365D01*
X145773000Y-70752635D01*
X145817232Y-70530266D01*
X145903996Y-70320798D01*
X146029962Y-70132277D01*
X146190277Y-69971962D01*
X146378798Y-69845996D01*
X146588266Y-69759232D01*
X146810635Y-69715000D01*
X147037365Y-69715000D01*
X147259734Y-69759232D01*
X147259734Y-69759232D01*
G37*
G36*
X134174000Y-71107200D02*
G01*
X132272000Y-71107200D01*
X132272000Y-69205200D01*
X134174000Y-69205200D01*
X134174000Y-71107200D01*
X134174000Y-71107200D01*
G37*
G36*
X142178000Y-71107200D02*
G01*
X140276000Y-71107200D01*
X140276000Y-69205200D01*
X142178000Y-69205200D01*
X142178000Y-71107200D01*
X142178000Y-71107200D01*
G37*
G36*
X126176000Y-71107200D02*
G01*
X124274000Y-71107200D01*
X124274000Y-69205200D01*
X126176000Y-69205200D01*
X126176000Y-71107200D01*
X126176000Y-71107200D01*
G37*
G36*
X182305473Y-65354919D02*
G01*
X182666437Y-65426719D01*
X183167087Y-65634095D01*
X183465324Y-65833371D01*
X183617663Y-65935161D01*
X184000839Y-66318337D01*
X184000841Y-66318340D01*
X184301905Y-66768913D01*
X184509281Y-67269563D01*
X184542511Y-67436624D01*
X184615000Y-67801049D01*
X184615000Y-68342951D01*
X184570394Y-68567200D01*
X184509281Y-68874437D01*
X184301905Y-69375087D01*
X184011636Y-69809504D01*
X184000839Y-69825663D01*
X183617663Y-70208839D01*
X183617660Y-70208841D01*
X183167087Y-70509905D01*
X182666437Y-70717281D01*
X182495914Y-70751200D01*
X182134951Y-70823000D01*
X181593049Y-70823000D01*
X181232086Y-70751200D01*
X181061563Y-70717281D01*
X180560913Y-70509905D01*
X180110340Y-70208841D01*
X180110337Y-70208839D01*
X179727161Y-69825663D01*
X179716364Y-69809504D01*
X179426095Y-69375087D01*
X179218719Y-68874437D01*
X179157606Y-68567200D01*
X179113000Y-68342951D01*
X179113000Y-67801049D01*
X179185489Y-67436624D01*
X179218719Y-67269563D01*
X179426095Y-66768913D01*
X179727159Y-66318340D01*
X179727161Y-66318337D01*
X180110337Y-65935161D01*
X180262676Y-65833371D01*
X180560913Y-65634095D01*
X181061563Y-65426719D01*
X181422527Y-65354919D01*
X181593049Y-65321000D01*
X182134951Y-65321000D01*
X182305473Y-65354919D01*
X182305473Y-65354919D01*
G37*
G36*
X103523694Y-65302060D02*
G01*
X103789437Y-65354919D01*
X104290087Y-65562295D01*
X104585230Y-65759504D01*
X104740663Y-65863361D01*
X105123839Y-66246537D01*
X105123841Y-66246540D01*
X105424905Y-66697113D01*
X105632281Y-67197763D01*
X105636200Y-67217466D01*
X105738000Y-67729249D01*
X105738000Y-68271151D01*
X105702859Y-68447815D01*
X105632281Y-68802637D01*
X105424905Y-69303287D01*
X105140996Y-69728186D01*
X105123839Y-69753863D01*
X104740663Y-70137039D01*
X104740660Y-70137041D01*
X104290087Y-70438105D01*
X103789437Y-70645481D01*
X103523694Y-70698340D01*
X103257951Y-70751200D01*
X102716049Y-70751200D01*
X102450306Y-70698340D01*
X102184563Y-70645481D01*
X101683913Y-70438105D01*
X101233340Y-70137041D01*
X101233337Y-70137039D01*
X100850161Y-69753863D01*
X100833004Y-69728186D01*
X100549095Y-69303287D01*
X100341719Y-68802637D01*
X100271141Y-68447815D01*
X100236000Y-68271151D01*
X100236000Y-67729249D01*
X100337800Y-67217466D01*
X100341719Y-67197763D01*
X100549095Y-66697113D01*
X100850159Y-66246540D01*
X100850161Y-66246537D01*
X101233337Y-65863361D01*
X101388770Y-65759504D01*
X101683913Y-65562295D01*
X102184563Y-65354919D01*
X102450306Y-65302060D01*
X102716049Y-65249200D01*
X103257951Y-65249200D01*
X103523694Y-65302060D01*
X103523694Y-65302060D01*
G37*
G36*
X118065562Y-69054181D02*
G01*
X118100477Y-69064773D01*
X118132665Y-69081978D01*
X118160873Y-69105127D01*
X118184022Y-69133335D01*
X118201227Y-69165523D01*
X118211819Y-69200438D01*
X118216000Y-69242895D01*
X118216000Y-70384105D01*
X118211819Y-70426562D01*
X118201227Y-70461477D01*
X118184022Y-70493665D01*
X118160873Y-70521873D01*
X118132665Y-70545022D01*
X118100477Y-70562227D01*
X118065562Y-70572819D01*
X118023105Y-70577000D01*
X115656895Y-70577000D01*
X115614438Y-70572819D01*
X115579523Y-70562227D01*
X115547335Y-70545022D01*
X115519127Y-70521873D01*
X115495978Y-70493665D01*
X115478773Y-70461477D01*
X115468181Y-70426562D01*
X115464000Y-70384105D01*
X115464000Y-69242895D01*
X115468181Y-69200438D01*
X115478773Y-69165523D01*
X115495978Y-69133335D01*
X115519127Y-69105127D01*
X115547335Y-69081978D01*
X115579523Y-69064773D01*
X115614438Y-69054181D01*
X115656895Y-69050000D01*
X118023105Y-69050000D01*
X118065562Y-69054181D01*
X118065562Y-69054181D01*
G37*
G36*
X113493562Y-69054181D02*
G01*
X113528477Y-69064773D01*
X113560665Y-69081978D01*
X113588873Y-69105127D01*
X113612022Y-69133335D01*
X113629227Y-69165523D01*
X113639819Y-69200438D01*
X113644000Y-69242895D01*
X113644000Y-70384105D01*
X113639819Y-70426562D01*
X113629227Y-70461477D01*
X113612022Y-70493665D01*
X113588873Y-70521873D01*
X113560665Y-70545022D01*
X113528477Y-70562227D01*
X113493562Y-70572819D01*
X113451105Y-70577000D01*
X111084895Y-70577000D01*
X111042438Y-70572819D01*
X111007523Y-70562227D01*
X110975335Y-70545022D01*
X110947127Y-70521873D01*
X110923978Y-70493665D01*
X110906773Y-70461477D01*
X110896181Y-70426562D01*
X110892000Y-70384105D01*
X110892000Y-69242895D01*
X110896181Y-69200438D01*
X110906773Y-69165523D01*
X110923978Y-69133335D01*
X110947127Y-69105127D01*
X110975335Y-69081978D01*
X111007523Y-69064773D01*
X111042438Y-69054181D01*
X111084895Y-69050000D01*
X113451105Y-69050000D01*
X113493562Y-69054181D01*
X113493562Y-69054181D01*
G37*
G36*
X157560677Y-69237465D02*
G01*
X157598364Y-69248898D01*
X157633103Y-69267466D01*
X157663548Y-69292452D01*
X157688534Y-69322897D01*
X157707102Y-69357636D01*
X157718535Y-69395323D01*
X157723000Y-69440661D01*
X157723000Y-70277339D01*
X157718535Y-70322677D01*
X157707102Y-70360364D01*
X157688534Y-70395103D01*
X157663548Y-70425548D01*
X157633103Y-70450534D01*
X157598364Y-70469102D01*
X157560677Y-70480535D01*
X157515339Y-70485000D01*
X156428661Y-70485000D01*
X156383323Y-70480535D01*
X156345636Y-70469102D01*
X156310897Y-70450534D01*
X156280452Y-70425548D01*
X156255466Y-70395103D01*
X156236898Y-70360364D01*
X156225465Y-70322677D01*
X156221000Y-70277339D01*
X156221000Y-69440661D01*
X156225465Y-69395323D01*
X156236898Y-69357636D01*
X156255466Y-69322897D01*
X156280452Y-69292452D01*
X156310897Y-69267466D01*
X156345636Y-69248898D01*
X156383323Y-69237465D01*
X156428661Y-69233000D01*
X157515339Y-69233000D01*
X157560677Y-69237465D01*
X157560677Y-69237465D01*
G37*
G36*
X166001000Y-69989000D02*
G01*
X164199000Y-69989000D01*
X164199000Y-68187000D01*
X166001000Y-68187000D01*
X166001000Y-69989000D01*
X166001000Y-69989000D01*
G37*
G36*
X167750443Y-68193519D02*
G01*
X167816627Y-68200037D01*
X167929853Y-68234384D01*
X167986467Y-68251557D01*
X168103359Y-68314038D01*
X168142991Y-68335222D01*
X168161624Y-68350514D01*
X168280186Y-68447814D01*
X168348169Y-68530653D01*
X168392778Y-68585009D01*
X168392779Y-68585011D01*
X168476443Y-68741533D01*
X168493616Y-68798147D01*
X168527963Y-68911373D01*
X168545359Y-69088000D01*
X168527963Y-69264627D01*
X168499749Y-69357636D01*
X168476443Y-69434467D01*
X168438649Y-69505173D01*
X168392778Y-69590991D01*
X168364433Y-69625529D01*
X168280186Y-69728186D01*
X168203174Y-69791387D01*
X168142991Y-69840778D01*
X168142989Y-69840779D01*
X167986467Y-69924443D01*
X167943228Y-69937559D01*
X167816627Y-69975963D01*
X167767718Y-69980780D01*
X167684260Y-69989000D01*
X167595740Y-69989000D01*
X167512282Y-69980780D01*
X167463373Y-69975963D01*
X167336772Y-69937559D01*
X167293533Y-69924443D01*
X167137011Y-69840779D01*
X167137009Y-69840778D01*
X167076826Y-69791387D01*
X166999814Y-69728186D01*
X166915567Y-69625529D01*
X166887222Y-69590991D01*
X166841351Y-69505173D01*
X166803557Y-69434467D01*
X166780251Y-69357636D01*
X166752037Y-69264627D01*
X166734641Y-69088000D01*
X166752037Y-68911373D01*
X166786384Y-68798147D01*
X166803557Y-68741533D01*
X166887221Y-68585011D01*
X166887222Y-68585009D01*
X166931831Y-68530653D01*
X166999814Y-68447814D01*
X167118376Y-68350514D01*
X167137009Y-68335222D01*
X167176641Y-68314038D01*
X167293533Y-68251557D01*
X167350147Y-68234384D01*
X167463373Y-68200037D01*
X167529557Y-68193519D01*
X167595740Y-68187000D01*
X167684260Y-68187000D01*
X167750443Y-68193519D01*
X167750443Y-68193519D01*
G37*
G36*
X148436812Y-67499624D02*
G01*
X148600784Y-67567544D01*
X148748354Y-67666147D01*
X148873853Y-67791646D01*
X148972456Y-67939216D01*
X149040376Y-68103188D01*
X149075000Y-68277259D01*
X149075000Y-68454741D01*
X149040376Y-68628812D01*
X148972456Y-68792784D01*
X148873853Y-68940354D01*
X148748354Y-69065853D01*
X148600784Y-69164456D01*
X148436812Y-69232376D01*
X148262741Y-69267000D01*
X148085259Y-69267000D01*
X147911188Y-69232376D01*
X147747216Y-69164456D01*
X147599646Y-69065853D01*
X147474147Y-68940354D01*
X147375544Y-68792784D01*
X147307624Y-68628812D01*
X147273000Y-68454741D01*
X147273000Y-68277259D01*
X147307624Y-68103188D01*
X147375544Y-67939216D01*
X147474147Y-67791646D01*
X147599646Y-67666147D01*
X147747216Y-67567544D01*
X147911188Y-67499624D01*
X148085259Y-67465000D01*
X148262741Y-67465000D01*
X148436812Y-67499624D01*
X148436812Y-67499624D01*
G37*
G36*
X152936812Y-67499624D02*
G01*
X153100784Y-67567544D01*
X153248354Y-67666147D01*
X153373853Y-67791646D01*
X153472456Y-67939216D01*
X153540376Y-68103188D01*
X153575000Y-68277259D01*
X153575000Y-68454741D01*
X153540376Y-68628812D01*
X153472456Y-68792784D01*
X153373853Y-68940354D01*
X153248354Y-69065853D01*
X153100784Y-69164456D01*
X152936812Y-69232376D01*
X152762741Y-69267000D01*
X152585259Y-69267000D01*
X152411188Y-69232376D01*
X152247216Y-69164456D01*
X152099646Y-69065853D01*
X151974147Y-68940354D01*
X151875544Y-68792784D01*
X151807624Y-68628812D01*
X151773000Y-68454741D01*
X151773000Y-68277259D01*
X151807624Y-68103188D01*
X151875544Y-67939216D01*
X151974147Y-67791646D01*
X152099646Y-67666147D01*
X152247216Y-67567544D01*
X152411188Y-67499624D01*
X152585259Y-67465000D01*
X152762741Y-67465000D01*
X152936812Y-67499624D01*
X152936812Y-67499624D01*
G37*
G36*
X141504396Y-66701746D02*
G01*
X141677466Y-66773434D01*
X141833230Y-66877512D01*
X141965688Y-67009970D01*
X142069766Y-67165734D01*
X142141454Y-67338804D01*
X142178000Y-67522533D01*
X142178000Y-67709867D01*
X142141454Y-67893596D01*
X142069766Y-68066666D01*
X141965688Y-68222430D01*
X141833230Y-68354888D01*
X141677466Y-68458966D01*
X141504396Y-68530654D01*
X141320667Y-68567200D01*
X141133333Y-68567200D01*
X140949604Y-68530654D01*
X140776534Y-68458966D01*
X140620770Y-68354888D01*
X140488312Y-68222430D01*
X140384234Y-68066666D01*
X140312546Y-67893596D01*
X140276000Y-67709867D01*
X140276000Y-67522533D01*
X140312546Y-67338804D01*
X140384234Y-67165734D01*
X140488312Y-67009970D01*
X140620770Y-66877512D01*
X140776534Y-66773434D01*
X140949604Y-66701746D01*
X141133333Y-66665200D01*
X141320667Y-66665200D01*
X141504396Y-66701746D01*
X141504396Y-66701746D01*
G37*
G36*
X133500396Y-66701746D02*
G01*
X133673466Y-66773434D01*
X133829230Y-66877512D01*
X133961688Y-67009970D01*
X134065766Y-67165734D01*
X134137454Y-67338804D01*
X134174000Y-67522533D01*
X134174000Y-67709867D01*
X134137454Y-67893596D01*
X134065766Y-68066666D01*
X133961688Y-68222430D01*
X133829230Y-68354888D01*
X133673466Y-68458966D01*
X133500396Y-68530654D01*
X133316667Y-68567200D01*
X133129333Y-68567200D01*
X132945604Y-68530654D01*
X132772534Y-68458966D01*
X132616770Y-68354888D01*
X132484312Y-68222430D01*
X132380234Y-68066666D01*
X132308546Y-67893596D01*
X132272000Y-67709867D01*
X132272000Y-67522533D01*
X132308546Y-67338804D01*
X132380234Y-67165734D01*
X132484312Y-67009970D01*
X132616770Y-66877512D01*
X132772534Y-66773434D01*
X132945604Y-66701746D01*
X133129333Y-66665200D01*
X133316667Y-66665200D01*
X133500396Y-66701746D01*
X133500396Y-66701746D01*
G37*
G36*
X125502396Y-66701746D02*
G01*
X125675466Y-66773434D01*
X125831230Y-66877512D01*
X125963688Y-67009970D01*
X126067766Y-67165734D01*
X126139454Y-67338804D01*
X126176000Y-67522533D01*
X126176000Y-67709867D01*
X126139454Y-67893596D01*
X126067766Y-68066666D01*
X125963688Y-68222430D01*
X125831230Y-68354888D01*
X125675466Y-68458966D01*
X125502396Y-68530654D01*
X125318667Y-68567200D01*
X125131333Y-68567200D01*
X124947604Y-68530654D01*
X124774534Y-68458966D01*
X124618770Y-68354888D01*
X124486312Y-68222430D01*
X124382234Y-68066666D01*
X124310546Y-67893596D01*
X124274000Y-67709867D01*
X124274000Y-67522533D01*
X124310546Y-67338804D01*
X124382234Y-67165734D01*
X124486312Y-67009970D01*
X124618770Y-66877512D01*
X124774534Y-66773434D01*
X124947604Y-66701746D01*
X125131333Y-66665200D01*
X125318667Y-66665200D01*
X125502396Y-66701746D01*
X125502396Y-66701746D01*
G37*
G36*
X157560677Y-67187465D02*
G01*
X157598364Y-67198898D01*
X157633103Y-67217466D01*
X157663548Y-67242452D01*
X157688534Y-67272897D01*
X157707102Y-67307636D01*
X157718535Y-67345323D01*
X157723000Y-67390661D01*
X157723000Y-68227339D01*
X157718535Y-68272677D01*
X157707102Y-68310364D01*
X157688534Y-68345103D01*
X157663548Y-68375548D01*
X157633103Y-68400534D01*
X157598364Y-68419102D01*
X157560677Y-68430535D01*
X157515339Y-68435000D01*
X156428661Y-68435000D01*
X156383323Y-68430535D01*
X156345636Y-68419102D01*
X156310897Y-68400534D01*
X156280452Y-68375548D01*
X156255466Y-68345103D01*
X156236898Y-68310364D01*
X156225465Y-68272677D01*
X156221000Y-68227339D01*
X156221000Y-67390661D01*
X156225465Y-67345323D01*
X156236898Y-67307636D01*
X156255466Y-67272897D01*
X156280452Y-67242452D01*
X156310897Y-67217466D01*
X156345636Y-67198898D01*
X156383323Y-67187465D01*
X156428661Y-67183000D01*
X157515339Y-67183000D01*
X157560677Y-67187465D01*
X157560677Y-67187465D01*
G37*
G36*
X118065562Y-66079181D02*
G01*
X118100477Y-66089773D01*
X118132665Y-66106978D01*
X118160873Y-66130127D01*
X118184022Y-66158335D01*
X118201227Y-66190523D01*
X118211819Y-66225438D01*
X118216000Y-66267895D01*
X118216000Y-67409105D01*
X118211819Y-67451562D01*
X118201227Y-67486477D01*
X118184022Y-67518665D01*
X118160873Y-67546873D01*
X118132665Y-67570022D01*
X118100477Y-67587227D01*
X118065562Y-67597819D01*
X118023105Y-67602000D01*
X115656895Y-67602000D01*
X115614438Y-67597819D01*
X115579523Y-67587227D01*
X115547335Y-67570022D01*
X115519127Y-67546873D01*
X115495978Y-67518665D01*
X115478773Y-67486477D01*
X115468181Y-67451562D01*
X115464000Y-67409105D01*
X115464000Y-66267895D01*
X115468181Y-66225438D01*
X115478773Y-66190523D01*
X115495978Y-66158335D01*
X115519127Y-66130127D01*
X115547335Y-66106978D01*
X115579523Y-66089773D01*
X115614438Y-66079181D01*
X115656895Y-66075000D01*
X118023105Y-66075000D01*
X118065562Y-66079181D01*
X118065562Y-66079181D01*
G37*
G36*
X113493562Y-66079181D02*
G01*
X113528477Y-66089773D01*
X113560665Y-66106978D01*
X113588873Y-66130127D01*
X113612022Y-66158335D01*
X113629227Y-66190523D01*
X113639819Y-66225438D01*
X113644000Y-66267895D01*
X113644000Y-67409105D01*
X113639819Y-67451562D01*
X113629227Y-67486477D01*
X113612022Y-67518665D01*
X113588873Y-67546873D01*
X113560665Y-67570022D01*
X113528477Y-67587227D01*
X113493562Y-67597819D01*
X113451105Y-67602000D01*
X111084895Y-67602000D01*
X111042438Y-67597819D01*
X111007523Y-67587227D01*
X110975335Y-67570022D01*
X110947127Y-67546873D01*
X110923978Y-67518665D01*
X110906773Y-67486477D01*
X110896181Y-67451562D01*
X110892000Y-67409105D01*
X110892000Y-66267895D01*
X110896181Y-66225438D01*
X110906773Y-66190523D01*
X110923978Y-66158335D01*
X110947127Y-66130127D01*
X110975335Y-66106978D01*
X111007523Y-66089773D01*
X111042438Y-66079181D01*
X111084895Y-66075000D01*
X113451105Y-66075000D01*
X113493562Y-66079181D01*
X113493562Y-66079181D01*
G37*
M02*
