M48
; DRILL file {KiCad (6.0.0-rc1-dev-1491-g0a4812be0)} date 2019-01-24 14:07:53
; FORMAT={-:-/ absolute / inch / decimal}
; #@! TF.CreationDate,2019-01-24T14:07:53+01:00
; #@! TF.GenerationSoftware,Kicad,Pcbnew,(6.0.0-rc1-dev-1491-g0a4812be0)
; #@! TF.FileFunction,Plated,1,2,PTH
FMAT,2
INCH
T1C0.0079
T2C0.0157
T3C0.0197
T4C0.0217
T5C0.0236
T6C0.0295
T7C0.0300
T8C0.0315
T9C0.0335
T10C0.0354
T11C0.0394
T12C0.0400
T13C0.0472
T14C0.0512
T15C0.1063
%
G90
G05
T1
X4.5388Y-3.2024
X4.5388Y-3.2776
X4.59Y-3.2024
X4.59Y-3.2776
X4.6412Y-3.2024
X4.6412Y-3.2776
T2
X4.1391Y-3.4999
X5.3649Y-3.6699
X5.416Y-4.0956
X5.4507Y-3.9972
X5.4701Y-3.5607
X5.479Y-4.0313
X5.6024Y-3.8959
X5.6632Y-3.8707
T3
X6.9571Y-4.1806
X6.9805Y-4.1242
X6.9805Y-4.2369
X7.0369Y-4.1008
X7.0369Y-4.2603
X7.0932Y-4.1242
X7.0932Y-4.2369
X7.1166Y-4.1806
X3.8469Y-4.1806
X3.8702Y-4.1242
X3.8702Y-4.2369
X3.9266Y-4.1008
X3.9266Y-4.2603
X3.983Y-4.1242
X3.983Y-4.2369
X4.0063Y-4.1806
X3.8469Y-2.6451
X3.8702Y-2.5887
X3.8702Y-2.7015
X3.9266Y-2.5654
X3.9266Y-2.7248
X3.983Y-2.5887
X3.983Y-2.7015
X4.0063Y-2.6451
X6.9571Y-2.6451
X6.9805Y-2.5887
X6.9805Y-2.7015
X7.0369Y-2.5654
X7.0369Y-2.7248
X7.0932Y-2.5887
X7.0932Y-2.7015
X7.1166Y-2.6451
T5
X4.6748Y-3.0582
T6
X5.9821Y-2.99
X5.9821Y-3.29
T7
X6.4074Y-3.15
X6.4074Y-3.25
X6.5074Y-3.15
X6.5074Y-3.25
X6.6074Y-3.15
X6.6074Y-3.25
X6.7074Y-3.15
X6.7074Y-3.25
T8
X6.2074Y-3.4507
X6.2074Y-4.1239
X6.2861Y-3.4507
X6.2861Y-4.1239
X6.3649Y-3.4507
X6.3649Y-4.1239
X6.4436Y-3.4507
X6.4436Y-4.1239
X6.5224Y-3.4507
X6.5224Y-4.1239
X6.6011Y-3.4507
X6.6011Y-4.1239
X6.6798Y-3.4507
X6.6798Y-4.1239
X6.7586Y-3.4507
X6.7586Y-4.1239
X5.4521Y-3.24
X5.6443Y-3.24
X6.98Y-3.0516
X6.98Y-3.15
T10
X6.0321Y-2.63
X6.0321Y-2.73
X5.4021Y-2.63
X5.4021Y-2.73
X5.7221Y-2.63
X5.7221Y-2.73
T11
X3.91Y-2.85
X3.91Y-2.95
X4.988Y-4.1018
X5.088Y-4.1018
X4.8Y-2.66
X4.9772Y-2.66
X5.9421Y-3.63
X5.9421Y-3.73
X5.9421Y-3.83
X5.9421Y-3.93
X5.9421Y-4.03
X5.9421Y-4.13
T12
X6.46Y-2.7
X6.46Y-2.8
X6.56Y-2.7
X6.56Y-2.8
X6.66Y-2.7
X6.66Y-2.8
T13
X6.96Y-3.57
T14
X4.7508Y-2.7584
X5.0264Y-2.7584
T15
X7.0369Y-4.1806
X3.9266Y-4.1806
X3.9266Y-2.6451
X7.0369Y-2.6451
T4
G00X3.902Y-3.1274
M15
G01X3.8764Y-3.1274
M16
G05
G00X3.902Y-3.4326
M15
G01X3.8764Y-3.4326
M16
G05
T9
G00X4.0496Y-3.1333
M15
G01X4.028Y-3.1333
M16
G05
G00X4.0496Y-3.4267
M15
G01X4.028Y-3.4267
M16
G05
T0
M30
