G04 #@! TF.GenerationSoftware,KiCad,Pcbnew,(6.0.0-rc1-dev-1491-g0a4812be0)*
G04 #@! TF.CreationDate,2019-04-29T14:19:23+02:00
G04 #@! TF.ProjectId,mySensors_door_switch,6d795365-6e73-46f7-9273-5f646f6f725f,1.2*
G04 #@! TF.SameCoordinates,Original*
G04 #@! TF.FileFunction,Paste,Top*
G04 #@! TF.FilePolarity,Positive*
%FSLAX46Y46*%
G04 Gerber Fmt 4.6, Leading zero omitted, Abs format (unit mm)*
G04 Created by KiCad (PCBNEW (6.0.0-rc1-dev-1491-g0a4812be0)) date 2019-04-29 14:19:23*
%MOMM*%
%LPD*%
G04 APERTURE LIST*
%ADD10R,1.400000X1.000000*%
%ADD11C,0.100000*%
%ADD12C,1.150000*%
%ADD13R,1.200000X3.000000*%
%ADD14R,1.600000X0.550000*%
%ADD15R,0.550000X1.600000*%
%ADD16C,1.425000*%
%ADD17R,0.800000X0.900000*%
%ADD18R,1.560000X0.650000*%
%ADD19R,1.300000X0.450000*%
%ADD20R,1.450000X0.450000*%
%ADD21C,0.600000*%
%ADD22C,0.970000*%
%ADD23R,0.650000X1.560000*%
G04 APERTURE END LIST*
D10*
X124884000Y-100965000D03*
X127084000Y-100015000D03*
X127084000Y-101915000D03*
D11*
G36*
X124934505Y-81477204D02*
G01*
X124958773Y-81480804D01*
X124982572Y-81486765D01*
X125005671Y-81495030D01*
X125027850Y-81505520D01*
X125048893Y-81518132D01*
X125068599Y-81532747D01*
X125086777Y-81549223D01*
X125103253Y-81567401D01*
X125117868Y-81587107D01*
X125130480Y-81608150D01*
X125140970Y-81630329D01*
X125149235Y-81653428D01*
X125155196Y-81677227D01*
X125158796Y-81701495D01*
X125160000Y-81725999D01*
X125160000Y-82376001D01*
X125158796Y-82400505D01*
X125155196Y-82424773D01*
X125149235Y-82448572D01*
X125140970Y-82471671D01*
X125130480Y-82493850D01*
X125117868Y-82514893D01*
X125103253Y-82534599D01*
X125086777Y-82552777D01*
X125068599Y-82569253D01*
X125048893Y-82583868D01*
X125027850Y-82596480D01*
X125005671Y-82606970D01*
X124982572Y-82615235D01*
X124958773Y-82621196D01*
X124934505Y-82624796D01*
X124910001Y-82626000D01*
X124009999Y-82626000D01*
X123985495Y-82624796D01*
X123961227Y-82621196D01*
X123937428Y-82615235D01*
X123914329Y-82606970D01*
X123892150Y-82596480D01*
X123871107Y-82583868D01*
X123851401Y-82569253D01*
X123833223Y-82552777D01*
X123816747Y-82534599D01*
X123802132Y-82514893D01*
X123789520Y-82493850D01*
X123779030Y-82471671D01*
X123770765Y-82448572D01*
X123764804Y-82424773D01*
X123761204Y-82400505D01*
X123760000Y-82376001D01*
X123760000Y-81725999D01*
X123761204Y-81701495D01*
X123764804Y-81677227D01*
X123770765Y-81653428D01*
X123779030Y-81630329D01*
X123789520Y-81608150D01*
X123802132Y-81587107D01*
X123816747Y-81567401D01*
X123833223Y-81549223D01*
X123851401Y-81532747D01*
X123871107Y-81518132D01*
X123892150Y-81505520D01*
X123914329Y-81495030D01*
X123937428Y-81486765D01*
X123961227Y-81480804D01*
X123985495Y-81477204D01*
X124009999Y-81476000D01*
X124910001Y-81476000D01*
X124934505Y-81477204D01*
X124934505Y-81477204D01*
G37*
D12*
X124460000Y-82051000D03*
D11*
G36*
X124934505Y-79427204D02*
G01*
X124958773Y-79430804D01*
X124982572Y-79436765D01*
X125005671Y-79445030D01*
X125027850Y-79455520D01*
X125048893Y-79468132D01*
X125068599Y-79482747D01*
X125086777Y-79499223D01*
X125103253Y-79517401D01*
X125117868Y-79537107D01*
X125130480Y-79558150D01*
X125140970Y-79580329D01*
X125149235Y-79603428D01*
X125155196Y-79627227D01*
X125158796Y-79651495D01*
X125160000Y-79675999D01*
X125160000Y-80326001D01*
X125158796Y-80350505D01*
X125155196Y-80374773D01*
X125149235Y-80398572D01*
X125140970Y-80421671D01*
X125130480Y-80443850D01*
X125117868Y-80464893D01*
X125103253Y-80484599D01*
X125086777Y-80502777D01*
X125068599Y-80519253D01*
X125048893Y-80533868D01*
X125027850Y-80546480D01*
X125005671Y-80556970D01*
X124982572Y-80565235D01*
X124958773Y-80571196D01*
X124934505Y-80574796D01*
X124910001Y-80576000D01*
X124009999Y-80576000D01*
X123985495Y-80574796D01*
X123961227Y-80571196D01*
X123937428Y-80565235D01*
X123914329Y-80556970D01*
X123892150Y-80546480D01*
X123871107Y-80533868D01*
X123851401Y-80519253D01*
X123833223Y-80502777D01*
X123816747Y-80484599D01*
X123802132Y-80464893D01*
X123789520Y-80443850D01*
X123779030Y-80421671D01*
X123770765Y-80398572D01*
X123764804Y-80374773D01*
X123761204Y-80350505D01*
X123760000Y-80326001D01*
X123760000Y-79675999D01*
X123761204Y-79651495D01*
X123764804Y-79627227D01*
X123770765Y-79603428D01*
X123779030Y-79580329D01*
X123789520Y-79558150D01*
X123802132Y-79537107D01*
X123816747Y-79517401D01*
X123833223Y-79499223D01*
X123851401Y-79482747D01*
X123871107Y-79468132D01*
X123892150Y-79455520D01*
X123914329Y-79445030D01*
X123937428Y-79436765D01*
X123961227Y-79430804D01*
X123985495Y-79427204D01*
X124009999Y-79426000D01*
X124910001Y-79426000D01*
X124934505Y-79427204D01*
X124934505Y-79427204D01*
G37*
D12*
X124460000Y-80001000D03*
D11*
G36*
X134586505Y-81985204D02*
G01*
X134610773Y-81988804D01*
X134634572Y-81994765D01*
X134657671Y-82003030D01*
X134679850Y-82013520D01*
X134700893Y-82026132D01*
X134720599Y-82040747D01*
X134738777Y-82057223D01*
X134755253Y-82075401D01*
X134769868Y-82095107D01*
X134782480Y-82116150D01*
X134792970Y-82138329D01*
X134801235Y-82161428D01*
X134807196Y-82185227D01*
X134810796Y-82209495D01*
X134812000Y-82233999D01*
X134812000Y-82884001D01*
X134810796Y-82908505D01*
X134807196Y-82932773D01*
X134801235Y-82956572D01*
X134792970Y-82979671D01*
X134782480Y-83001850D01*
X134769868Y-83022893D01*
X134755253Y-83042599D01*
X134738777Y-83060777D01*
X134720599Y-83077253D01*
X134700893Y-83091868D01*
X134679850Y-83104480D01*
X134657671Y-83114970D01*
X134634572Y-83123235D01*
X134610773Y-83129196D01*
X134586505Y-83132796D01*
X134562001Y-83134000D01*
X133661999Y-83134000D01*
X133637495Y-83132796D01*
X133613227Y-83129196D01*
X133589428Y-83123235D01*
X133566329Y-83114970D01*
X133544150Y-83104480D01*
X133523107Y-83091868D01*
X133503401Y-83077253D01*
X133485223Y-83060777D01*
X133468747Y-83042599D01*
X133454132Y-83022893D01*
X133441520Y-83001850D01*
X133431030Y-82979671D01*
X133422765Y-82956572D01*
X133416804Y-82932773D01*
X133413204Y-82908505D01*
X133412000Y-82884001D01*
X133412000Y-82233999D01*
X133413204Y-82209495D01*
X133416804Y-82185227D01*
X133422765Y-82161428D01*
X133431030Y-82138329D01*
X133441520Y-82116150D01*
X133454132Y-82095107D01*
X133468747Y-82075401D01*
X133485223Y-82057223D01*
X133503401Y-82040747D01*
X133523107Y-82026132D01*
X133544150Y-82013520D01*
X133566329Y-82003030D01*
X133589428Y-81994765D01*
X133613227Y-81988804D01*
X133637495Y-81985204D01*
X133661999Y-81984000D01*
X134562001Y-81984000D01*
X134586505Y-81985204D01*
X134586505Y-81985204D01*
G37*
D12*
X134112000Y-82559000D03*
D11*
G36*
X134586505Y-79935204D02*
G01*
X134610773Y-79938804D01*
X134634572Y-79944765D01*
X134657671Y-79953030D01*
X134679850Y-79963520D01*
X134700893Y-79976132D01*
X134720599Y-79990747D01*
X134738777Y-80007223D01*
X134755253Y-80025401D01*
X134769868Y-80045107D01*
X134782480Y-80066150D01*
X134792970Y-80088329D01*
X134801235Y-80111428D01*
X134807196Y-80135227D01*
X134810796Y-80159495D01*
X134812000Y-80183999D01*
X134812000Y-80834001D01*
X134810796Y-80858505D01*
X134807196Y-80882773D01*
X134801235Y-80906572D01*
X134792970Y-80929671D01*
X134782480Y-80951850D01*
X134769868Y-80972893D01*
X134755253Y-80992599D01*
X134738777Y-81010777D01*
X134720599Y-81027253D01*
X134700893Y-81041868D01*
X134679850Y-81054480D01*
X134657671Y-81064970D01*
X134634572Y-81073235D01*
X134610773Y-81079196D01*
X134586505Y-81082796D01*
X134562001Y-81084000D01*
X133661999Y-81084000D01*
X133637495Y-81082796D01*
X133613227Y-81079196D01*
X133589428Y-81073235D01*
X133566329Y-81064970D01*
X133544150Y-81054480D01*
X133523107Y-81041868D01*
X133503401Y-81027253D01*
X133485223Y-81010777D01*
X133468747Y-80992599D01*
X133454132Y-80972893D01*
X133441520Y-80951850D01*
X133431030Y-80929671D01*
X133422765Y-80906572D01*
X133416804Y-80882773D01*
X133413204Y-80858505D01*
X133412000Y-80834001D01*
X133412000Y-80183999D01*
X133413204Y-80159495D01*
X133416804Y-80135227D01*
X133422765Y-80111428D01*
X133431030Y-80088329D01*
X133441520Y-80066150D01*
X133454132Y-80045107D01*
X133468747Y-80025401D01*
X133485223Y-80007223D01*
X133503401Y-79990747D01*
X133523107Y-79976132D01*
X133544150Y-79963520D01*
X133566329Y-79953030D01*
X133589428Y-79944765D01*
X133613227Y-79938804D01*
X133637495Y-79935204D01*
X133661999Y-79934000D01*
X134562001Y-79934000D01*
X134586505Y-79935204D01*
X134586505Y-79935204D01*
G37*
D12*
X134112000Y-80509000D03*
D11*
G36*
X149837505Y-90233204D02*
G01*
X149861773Y-90236804D01*
X149885572Y-90242765D01*
X149908671Y-90251030D01*
X149930850Y-90261520D01*
X149951893Y-90274132D01*
X149971599Y-90288747D01*
X149989777Y-90305223D01*
X150006253Y-90323401D01*
X150020868Y-90343107D01*
X150033480Y-90364150D01*
X150043970Y-90386329D01*
X150052235Y-90409428D01*
X150058196Y-90433227D01*
X150061796Y-90457495D01*
X150063000Y-90481999D01*
X150063000Y-91382001D01*
X150061796Y-91406505D01*
X150058196Y-91430773D01*
X150052235Y-91454572D01*
X150043970Y-91477671D01*
X150033480Y-91499850D01*
X150020868Y-91520893D01*
X150006253Y-91540599D01*
X149989777Y-91558777D01*
X149971599Y-91575253D01*
X149951893Y-91589868D01*
X149930850Y-91602480D01*
X149908671Y-91612970D01*
X149885572Y-91621235D01*
X149861773Y-91627196D01*
X149837505Y-91630796D01*
X149813001Y-91632000D01*
X149162999Y-91632000D01*
X149138495Y-91630796D01*
X149114227Y-91627196D01*
X149090428Y-91621235D01*
X149067329Y-91612970D01*
X149045150Y-91602480D01*
X149024107Y-91589868D01*
X149004401Y-91575253D01*
X148986223Y-91558777D01*
X148969747Y-91540599D01*
X148955132Y-91520893D01*
X148942520Y-91499850D01*
X148932030Y-91477671D01*
X148923765Y-91454572D01*
X148917804Y-91430773D01*
X148914204Y-91406505D01*
X148913000Y-91382001D01*
X148913000Y-90481999D01*
X148914204Y-90457495D01*
X148917804Y-90433227D01*
X148923765Y-90409428D01*
X148932030Y-90386329D01*
X148942520Y-90364150D01*
X148955132Y-90343107D01*
X148969747Y-90323401D01*
X148986223Y-90305223D01*
X149004401Y-90288747D01*
X149024107Y-90274132D01*
X149045150Y-90261520D01*
X149067329Y-90251030D01*
X149090428Y-90242765D01*
X149114227Y-90236804D01*
X149138495Y-90233204D01*
X149162999Y-90232000D01*
X149813001Y-90232000D01*
X149837505Y-90233204D01*
X149837505Y-90233204D01*
G37*
D12*
X149488000Y-90932000D03*
D11*
G36*
X147787505Y-90233204D02*
G01*
X147811773Y-90236804D01*
X147835572Y-90242765D01*
X147858671Y-90251030D01*
X147880850Y-90261520D01*
X147901893Y-90274132D01*
X147921599Y-90288747D01*
X147939777Y-90305223D01*
X147956253Y-90323401D01*
X147970868Y-90343107D01*
X147983480Y-90364150D01*
X147993970Y-90386329D01*
X148002235Y-90409428D01*
X148008196Y-90433227D01*
X148011796Y-90457495D01*
X148013000Y-90481999D01*
X148013000Y-91382001D01*
X148011796Y-91406505D01*
X148008196Y-91430773D01*
X148002235Y-91454572D01*
X147993970Y-91477671D01*
X147983480Y-91499850D01*
X147970868Y-91520893D01*
X147956253Y-91540599D01*
X147939777Y-91558777D01*
X147921599Y-91575253D01*
X147901893Y-91589868D01*
X147880850Y-91602480D01*
X147858671Y-91612970D01*
X147835572Y-91621235D01*
X147811773Y-91627196D01*
X147787505Y-91630796D01*
X147763001Y-91632000D01*
X147112999Y-91632000D01*
X147088495Y-91630796D01*
X147064227Y-91627196D01*
X147040428Y-91621235D01*
X147017329Y-91612970D01*
X146995150Y-91602480D01*
X146974107Y-91589868D01*
X146954401Y-91575253D01*
X146936223Y-91558777D01*
X146919747Y-91540599D01*
X146905132Y-91520893D01*
X146892520Y-91499850D01*
X146882030Y-91477671D01*
X146873765Y-91454572D01*
X146867804Y-91430773D01*
X146864204Y-91406505D01*
X146863000Y-91382001D01*
X146863000Y-90481999D01*
X146864204Y-90457495D01*
X146867804Y-90433227D01*
X146873765Y-90409428D01*
X146882030Y-90386329D01*
X146892520Y-90364150D01*
X146905132Y-90343107D01*
X146919747Y-90323401D01*
X146936223Y-90305223D01*
X146954401Y-90288747D01*
X146974107Y-90274132D01*
X146995150Y-90261520D01*
X147017329Y-90251030D01*
X147040428Y-90242765D01*
X147064227Y-90236804D01*
X147088495Y-90233204D01*
X147112999Y-90232000D01*
X147763001Y-90232000D01*
X147787505Y-90233204D01*
X147787505Y-90233204D01*
G37*
D12*
X147438000Y-90932000D03*
D11*
G36*
X149837505Y-88074204D02*
G01*
X149861773Y-88077804D01*
X149885572Y-88083765D01*
X149908671Y-88092030D01*
X149930850Y-88102520D01*
X149951893Y-88115132D01*
X149971599Y-88129747D01*
X149989777Y-88146223D01*
X150006253Y-88164401D01*
X150020868Y-88184107D01*
X150033480Y-88205150D01*
X150043970Y-88227329D01*
X150052235Y-88250428D01*
X150058196Y-88274227D01*
X150061796Y-88298495D01*
X150063000Y-88322999D01*
X150063000Y-89223001D01*
X150061796Y-89247505D01*
X150058196Y-89271773D01*
X150052235Y-89295572D01*
X150043970Y-89318671D01*
X150033480Y-89340850D01*
X150020868Y-89361893D01*
X150006253Y-89381599D01*
X149989777Y-89399777D01*
X149971599Y-89416253D01*
X149951893Y-89430868D01*
X149930850Y-89443480D01*
X149908671Y-89453970D01*
X149885572Y-89462235D01*
X149861773Y-89468196D01*
X149837505Y-89471796D01*
X149813001Y-89473000D01*
X149162999Y-89473000D01*
X149138495Y-89471796D01*
X149114227Y-89468196D01*
X149090428Y-89462235D01*
X149067329Y-89453970D01*
X149045150Y-89443480D01*
X149024107Y-89430868D01*
X149004401Y-89416253D01*
X148986223Y-89399777D01*
X148969747Y-89381599D01*
X148955132Y-89361893D01*
X148942520Y-89340850D01*
X148932030Y-89318671D01*
X148923765Y-89295572D01*
X148917804Y-89271773D01*
X148914204Y-89247505D01*
X148913000Y-89223001D01*
X148913000Y-88322999D01*
X148914204Y-88298495D01*
X148917804Y-88274227D01*
X148923765Y-88250428D01*
X148932030Y-88227329D01*
X148942520Y-88205150D01*
X148955132Y-88184107D01*
X148969747Y-88164401D01*
X148986223Y-88146223D01*
X149004401Y-88129747D01*
X149024107Y-88115132D01*
X149045150Y-88102520D01*
X149067329Y-88092030D01*
X149090428Y-88083765D01*
X149114227Y-88077804D01*
X149138495Y-88074204D01*
X149162999Y-88073000D01*
X149813001Y-88073000D01*
X149837505Y-88074204D01*
X149837505Y-88074204D01*
G37*
D12*
X149488000Y-88773000D03*
D11*
G36*
X147787505Y-88074204D02*
G01*
X147811773Y-88077804D01*
X147835572Y-88083765D01*
X147858671Y-88092030D01*
X147880850Y-88102520D01*
X147901893Y-88115132D01*
X147921599Y-88129747D01*
X147939777Y-88146223D01*
X147956253Y-88164401D01*
X147970868Y-88184107D01*
X147983480Y-88205150D01*
X147993970Y-88227329D01*
X148002235Y-88250428D01*
X148008196Y-88274227D01*
X148011796Y-88298495D01*
X148013000Y-88322999D01*
X148013000Y-89223001D01*
X148011796Y-89247505D01*
X148008196Y-89271773D01*
X148002235Y-89295572D01*
X147993970Y-89318671D01*
X147983480Y-89340850D01*
X147970868Y-89361893D01*
X147956253Y-89381599D01*
X147939777Y-89399777D01*
X147921599Y-89416253D01*
X147901893Y-89430868D01*
X147880850Y-89443480D01*
X147858671Y-89453970D01*
X147835572Y-89462235D01*
X147811773Y-89468196D01*
X147787505Y-89471796D01*
X147763001Y-89473000D01*
X147112999Y-89473000D01*
X147088495Y-89471796D01*
X147064227Y-89468196D01*
X147040428Y-89462235D01*
X147017329Y-89453970D01*
X146995150Y-89443480D01*
X146974107Y-89430868D01*
X146954401Y-89416253D01*
X146936223Y-89399777D01*
X146919747Y-89381599D01*
X146905132Y-89361893D01*
X146892520Y-89340850D01*
X146882030Y-89318671D01*
X146873765Y-89295572D01*
X146867804Y-89271773D01*
X146864204Y-89247505D01*
X146863000Y-89223001D01*
X146863000Y-88322999D01*
X146864204Y-88298495D01*
X146867804Y-88274227D01*
X146873765Y-88250428D01*
X146882030Y-88227329D01*
X146892520Y-88205150D01*
X146905132Y-88184107D01*
X146919747Y-88164401D01*
X146936223Y-88146223D01*
X146954401Y-88129747D01*
X146974107Y-88115132D01*
X146995150Y-88102520D01*
X147017329Y-88092030D01*
X147040428Y-88083765D01*
X147064227Y-88077804D01*
X147088495Y-88074204D01*
X147112999Y-88073000D01*
X147763001Y-88073000D01*
X147787505Y-88074204D01*
X147787505Y-88074204D01*
G37*
D12*
X147438000Y-88773000D03*
D11*
G36*
X142968505Y-106496204D02*
G01*
X142992773Y-106499804D01*
X143016572Y-106505765D01*
X143039671Y-106514030D01*
X143061850Y-106524520D01*
X143082893Y-106537132D01*
X143102599Y-106551747D01*
X143120777Y-106568223D01*
X143137253Y-106586401D01*
X143151868Y-106606107D01*
X143164480Y-106627150D01*
X143174970Y-106649329D01*
X143183235Y-106672428D01*
X143189196Y-106696227D01*
X143192796Y-106720495D01*
X143194000Y-106744999D01*
X143194000Y-107395001D01*
X143192796Y-107419505D01*
X143189196Y-107443773D01*
X143183235Y-107467572D01*
X143174970Y-107490671D01*
X143164480Y-107512850D01*
X143151868Y-107533893D01*
X143137253Y-107553599D01*
X143120777Y-107571777D01*
X143102599Y-107588253D01*
X143082893Y-107602868D01*
X143061850Y-107615480D01*
X143039671Y-107625970D01*
X143016572Y-107634235D01*
X142992773Y-107640196D01*
X142968505Y-107643796D01*
X142944001Y-107645000D01*
X142043999Y-107645000D01*
X142019495Y-107643796D01*
X141995227Y-107640196D01*
X141971428Y-107634235D01*
X141948329Y-107625970D01*
X141926150Y-107615480D01*
X141905107Y-107602868D01*
X141885401Y-107588253D01*
X141867223Y-107571777D01*
X141850747Y-107553599D01*
X141836132Y-107533893D01*
X141823520Y-107512850D01*
X141813030Y-107490671D01*
X141804765Y-107467572D01*
X141798804Y-107443773D01*
X141795204Y-107419505D01*
X141794000Y-107395001D01*
X141794000Y-106744999D01*
X141795204Y-106720495D01*
X141798804Y-106696227D01*
X141804765Y-106672428D01*
X141813030Y-106649329D01*
X141823520Y-106627150D01*
X141836132Y-106606107D01*
X141850747Y-106586401D01*
X141867223Y-106568223D01*
X141885401Y-106551747D01*
X141905107Y-106537132D01*
X141926150Y-106524520D01*
X141948329Y-106514030D01*
X141971428Y-106505765D01*
X141995227Y-106499804D01*
X142019495Y-106496204D01*
X142043999Y-106495000D01*
X142944001Y-106495000D01*
X142968505Y-106496204D01*
X142968505Y-106496204D01*
G37*
D12*
X142494000Y-107070000D03*
D11*
G36*
X142968505Y-104446204D02*
G01*
X142992773Y-104449804D01*
X143016572Y-104455765D01*
X143039671Y-104464030D01*
X143061850Y-104474520D01*
X143082893Y-104487132D01*
X143102599Y-104501747D01*
X143120777Y-104518223D01*
X143137253Y-104536401D01*
X143151868Y-104556107D01*
X143164480Y-104577150D01*
X143174970Y-104599329D01*
X143183235Y-104622428D01*
X143189196Y-104646227D01*
X143192796Y-104670495D01*
X143194000Y-104694999D01*
X143194000Y-105345001D01*
X143192796Y-105369505D01*
X143189196Y-105393773D01*
X143183235Y-105417572D01*
X143174970Y-105440671D01*
X143164480Y-105462850D01*
X143151868Y-105483893D01*
X143137253Y-105503599D01*
X143120777Y-105521777D01*
X143102599Y-105538253D01*
X143082893Y-105552868D01*
X143061850Y-105565480D01*
X143039671Y-105575970D01*
X143016572Y-105584235D01*
X142992773Y-105590196D01*
X142968505Y-105593796D01*
X142944001Y-105595000D01*
X142043999Y-105595000D01*
X142019495Y-105593796D01*
X141995227Y-105590196D01*
X141971428Y-105584235D01*
X141948329Y-105575970D01*
X141926150Y-105565480D01*
X141905107Y-105552868D01*
X141885401Y-105538253D01*
X141867223Y-105521777D01*
X141850747Y-105503599D01*
X141836132Y-105483893D01*
X141823520Y-105462850D01*
X141813030Y-105440671D01*
X141804765Y-105417572D01*
X141798804Y-105393773D01*
X141795204Y-105369505D01*
X141794000Y-105345001D01*
X141794000Y-104694999D01*
X141795204Y-104670495D01*
X141798804Y-104646227D01*
X141804765Y-104622428D01*
X141813030Y-104599329D01*
X141823520Y-104577150D01*
X141836132Y-104556107D01*
X141850747Y-104536401D01*
X141867223Y-104518223D01*
X141885401Y-104501747D01*
X141905107Y-104487132D01*
X141926150Y-104474520D01*
X141948329Y-104464030D01*
X141971428Y-104455765D01*
X141995227Y-104449804D01*
X142019495Y-104446204D01*
X142043999Y-104445000D01*
X142944001Y-104445000D01*
X142968505Y-104446204D01*
X142968505Y-104446204D01*
G37*
D12*
X142494000Y-105020000D03*
D11*
G36*
X145127505Y-106496204D02*
G01*
X145151773Y-106499804D01*
X145175572Y-106505765D01*
X145198671Y-106514030D01*
X145220850Y-106524520D01*
X145241893Y-106537132D01*
X145261599Y-106551747D01*
X145279777Y-106568223D01*
X145296253Y-106586401D01*
X145310868Y-106606107D01*
X145323480Y-106627150D01*
X145333970Y-106649329D01*
X145342235Y-106672428D01*
X145348196Y-106696227D01*
X145351796Y-106720495D01*
X145353000Y-106744999D01*
X145353000Y-107395001D01*
X145351796Y-107419505D01*
X145348196Y-107443773D01*
X145342235Y-107467572D01*
X145333970Y-107490671D01*
X145323480Y-107512850D01*
X145310868Y-107533893D01*
X145296253Y-107553599D01*
X145279777Y-107571777D01*
X145261599Y-107588253D01*
X145241893Y-107602868D01*
X145220850Y-107615480D01*
X145198671Y-107625970D01*
X145175572Y-107634235D01*
X145151773Y-107640196D01*
X145127505Y-107643796D01*
X145103001Y-107645000D01*
X144202999Y-107645000D01*
X144178495Y-107643796D01*
X144154227Y-107640196D01*
X144130428Y-107634235D01*
X144107329Y-107625970D01*
X144085150Y-107615480D01*
X144064107Y-107602868D01*
X144044401Y-107588253D01*
X144026223Y-107571777D01*
X144009747Y-107553599D01*
X143995132Y-107533893D01*
X143982520Y-107512850D01*
X143972030Y-107490671D01*
X143963765Y-107467572D01*
X143957804Y-107443773D01*
X143954204Y-107419505D01*
X143953000Y-107395001D01*
X143953000Y-106744999D01*
X143954204Y-106720495D01*
X143957804Y-106696227D01*
X143963765Y-106672428D01*
X143972030Y-106649329D01*
X143982520Y-106627150D01*
X143995132Y-106606107D01*
X144009747Y-106586401D01*
X144026223Y-106568223D01*
X144044401Y-106551747D01*
X144064107Y-106537132D01*
X144085150Y-106524520D01*
X144107329Y-106514030D01*
X144130428Y-106505765D01*
X144154227Y-106499804D01*
X144178495Y-106496204D01*
X144202999Y-106495000D01*
X145103001Y-106495000D01*
X145127505Y-106496204D01*
X145127505Y-106496204D01*
G37*
D12*
X144653000Y-107070000D03*
D11*
G36*
X145127505Y-104446204D02*
G01*
X145151773Y-104449804D01*
X145175572Y-104455765D01*
X145198671Y-104464030D01*
X145220850Y-104474520D01*
X145241893Y-104487132D01*
X145261599Y-104501747D01*
X145279777Y-104518223D01*
X145296253Y-104536401D01*
X145310868Y-104556107D01*
X145323480Y-104577150D01*
X145333970Y-104599329D01*
X145342235Y-104622428D01*
X145348196Y-104646227D01*
X145351796Y-104670495D01*
X145353000Y-104694999D01*
X145353000Y-105345001D01*
X145351796Y-105369505D01*
X145348196Y-105393773D01*
X145342235Y-105417572D01*
X145333970Y-105440671D01*
X145323480Y-105462850D01*
X145310868Y-105483893D01*
X145296253Y-105503599D01*
X145279777Y-105521777D01*
X145261599Y-105538253D01*
X145241893Y-105552868D01*
X145220850Y-105565480D01*
X145198671Y-105575970D01*
X145175572Y-105584235D01*
X145151773Y-105590196D01*
X145127505Y-105593796D01*
X145103001Y-105595000D01*
X144202999Y-105595000D01*
X144178495Y-105593796D01*
X144154227Y-105590196D01*
X144130428Y-105584235D01*
X144107329Y-105575970D01*
X144085150Y-105565480D01*
X144064107Y-105552868D01*
X144044401Y-105538253D01*
X144026223Y-105521777D01*
X144009747Y-105503599D01*
X143995132Y-105483893D01*
X143982520Y-105462850D01*
X143972030Y-105440671D01*
X143963765Y-105417572D01*
X143957804Y-105393773D01*
X143954204Y-105369505D01*
X143953000Y-105345001D01*
X143953000Y-104694999D01*
X143954204Y-104670495D01*
X143957804Y-104646227D01*
X143963765Y-104622428D01*
X143972030Y-104599329D01*
X143982520Y-104577150D01*
X143995132Y-104556107D01*
X144009747Y-104536401D01*
X144026223Y-104518223D01*
X144044401Y-104501747D01*
X144064107Y-104487132D01*
X144085150Y-104474520D01*
X144107329Y-104464030D01*
X144130428Y-104455765D01*
X144154227Y-104449804D01*
X144178495Y-104446204D01*
X144202999Y-104445000D01*
X145103001Y-104445000D01*
X145127505Y-104446204D01*
X145127505Y-104446204D01*
G37*
D12*
X144653000Y-105020000D03*
D11*
G36*
X147286505Y-106496204D02*
G01*
X147310773Y-106499804D01*
X147334572Y-106505765D01*
X147357671Y-106514030D01*
X147379850Y-106524520D01*
X147400893Y-106537132D01*
X147420599Y-106551747D01*
X147438777Y-106568223D01*
X147455253Y-106586401D01*
X147469868Y-106606107D01*
X147482480Y-106627150D01*
X147492970Y-106649329D01*
X147501235Y-106672428D01*
X147507196Y-106696227D01*
X147510796Y-106720495D01*
X147512000Y-106744999D01*
X147512000Y-107395001D01*
X147510796Y-107419505D01*
X147507196Y-107443773D01*
X147501235Y-107467572D01*
X147492970Y-107490671D01*
X147482480Y-107512850D01*
X147469868Y-107533893D01*
X147455253Y-107553599D01*
X147438777Y-107571777D01*
X147420599Y-107588253D01*
X147400893Y-107602868D01*
X147379850Y-107615480D01*
X147357671Y-107625970D01*
X147334572Y-107634235D01*
X147310773Y-107640196D01*
X147286505Y-107643796D01*
X147262001Y-107645000D01*
X146361999Y-107645000D01*
X146337495Y-107643796D01*
X146313227Y-107640196D01*
X146289428Y-107634235D01*
X146266329Y-107625970D01*
X146244150Y-107615480D01*
X146223107Y-107602868D01*
X146203401Y-107588253D01*
X146185223Y-107571777D01*
X146168747Y-107553599D01*
X146154132Y-107533893D01*
X146141520Y-107512850D01*
X146131030Y-107490671D01*
X146122765Y-107467572D01*
X146116804Y-107443773D01*
X146113204Y-107419505D01*
X146112000Y-107395001D01*
X146112000Y-106744999D01*
X146113204Y-106720495D01*
X146116804Y-106696227D01*
X146122765Y-106672428D01*
X146131030Y-106649329D01*
X146141520Y-106627150D01*
X146154132Y-106606107D01*
X146168747Y-106586401D01*
X146185223Y-106568223D01*
X146203401Y-106551747D01*
X146223107Y-106537132D01*
X146244150Y-106524520D01*
X146266329Y-106514030D01*
X146289428Y-106505765D01*
X146313227Y-106499804D01*
X146337495Y-106496204D01*
X146361999Y-106495000D01*
X147262001Y-106495000D01*
X147286505Y-106496204D01*
X147286505Y-106496204D01*
G37*
D12*
X146812000Y-107070000D03*
D11*
G36*
X147286505Y-104446204D02*
G01*
X147310773Y-104449804D01*
X147334572Y-104455765D01*
X147357671Y-104464030D01*
X147379850Y-104474520D01*
X147400893Y-104487132D01*
X147420599Y-104501747D01*
X147438777Y-104518223D01*
X147455253Y-104536401D01*
X147469868Y-104556107D01*
X147482480Y-104577150D01*
X147492970Y-104599329D01*
X147501235Y-104622428D01*
X147507196Y-104646227D01*
X147510796Y-104670495D01*
X147512000Y-104694999D01*
X147512000Y-105345001D01*
X147510796Y-105369505D01*
X147507196Y-105393773D01*
X147501235Y-105417572D01*
X147492970Y-105440671D01*
X147482480Y-105462850D01*
X147469868Y-105483893D01*
X147455253Y-105503599D01*
X147438777Y-105521777D01*
X147420599Y-105538253D01*
X147400893Y-105552868D01*
X147379850Y-105565480D01*
X147357671Y-105575970D01*
X147334572Y-105584235D01*
X147310773Y-105590196D01*
X147286505Y-105593796D01*
X147262001Y-105595000D01*
X146361999Y-105595000D01*
X146337495Y-105593796D01*
X146313227Y-105590196D01*
X146289428Y-105584235D01*
X146266329Y-105575970D01*
X146244150Y-105565480D01*
X146223107Y-105552868D01*
X146203401Y-105538253D01*
X146185223Y-105521777D01*
X146168747Y-105503599D01*
X146154132Y-105483893D01*
X146141520Y-105462850D01*
X146131030Y-105440671D01*
X146122765Y-105417572D01*
X146116804Y-105393773D01*
X146113204Y-105369505D01*
X146112000Y-105345001D01*
X146112000Y-104694999D01*
X146113204Y-104670495D01*
X146116804Y-104646227D01*
X146122765Y-104622428D01*
X146131030Y-104599329D01*
X146141520Y-104577150D01*
X146154132Y-104556107D01*
X146168747Y-104536401D01*
X146185223Y-104518223D01*
X146203401Y-104501747D01*
X146223107Y-104487132D01*
X146244150Y-104474520D01*
X146266329Y-104464030D01*
X146289428Y-104455765D01*
X146313227Y-104449804D01*
X146337495Y-104446204D01*
X146361999Y-104445000D01*
X147262001Y-104445000D01*
X147286505Y-104446204D01*
X147286505Y-104446204D01*
G37*
D12*
X146812000Y-105020000D03*
D11*
G36*
X155160505Y-99765204D02*
G01*
X155184773Y-99768804D01*
X155208572Y-99774765D01*
X155231671Y-99783030D01*
X155253850Y-99793520D01*
X155274893Y-99806132D01*
X155294599Y-99820747D01*
X155312777Y-99837223D01*
X155329253Y-99855401D01*
X155343868Y-99875107D01*
X155356480Y-99896150D01*
X155366970Y-99918329D01*
X155375235Y-99941428D01*
X155381196Y-99965227D01*
X155384796Y-99989495D01*
X155386000Y-100013999D01*
X155386000Y-100664001D01*
X155384796Y-100688505D01*
X155381196Y-100712773D01*
X155375235Y-100736572D01*
X155366970Y-100759671D01*
X155356480Y-100781850D01*
X155343868Y-100802893D01*
X155329253Y-100822599D01*
X155312777Y-100840777D01*
X155294599Y-100857253D01*
X155274893Y-100871868D01*
X155253850Y-100884480D01*
X155231671Y-100894970D01*
X155208572Y-100903235D01*
X155184773Y-100909196D01*
X155160505Y-100912796D01*
X155136001Y-100914000D01*
X154235999Y-100914000D01*
X154211495Y-100912796D01*
X154187227Y-100909196D01*
X154163428Y-100903235D01*
X154140329Y-100894970D01*
X154118150Y-100884480D01*
X154097107Y-100871868D01*
X154077401Y-100857253D01*
X154059223Y-100840777D01*
X154042747Y-100822599D01*
X154028132Y-100802893D01*
X154015520Y-100781850D01*
X154005030Y-100759671D01*
X153996765Y-100736572D01*
X153990804Y-100712773D01*
X153987204Y-100688505D01*
X153986000Y-100664001D01*
X153986000Y-100013999D01*
X153987204Y-99989495D01*
X153990804Y-99965227D01*
X153996765Y-99941428D01*
X154005030Y-99918329D01*
X154015520Y-99896150D01*
X154028132Y-99875107D01*
X154042747Y-99855401D01*
X154059223Y-99837223D01*
X154077401Y-99820747D01*
X154097107Y-99806132D01*
X154118150Y-99793520D01*
X154140329Y-99783030D01*
X154163428Y-99774765D01*
X154187227Y-99768804D01*
X154211495Y-99765204D01*
X154235999Y-99764000D01*
X155136001Y-99764000D01*
X155160505Y-99765204D01*
X155160505Y-99765204D01*
G37*
D12*
X154686000Y-100339000D03*
D11*
G36*
X155160505Y-97715204D02*
G01*
X155184773Y-97718804D01*
X155208572Y-97724765D01*
X155231671Y-97733030D01*
X155253850Y-97743520D01*
X155274893Y-97756132D01*
X155294599Y-97770747D01*
X155312777Y-97787223D01*
X155329253Y-97805401D01*
X155343868Y-97825107D01*
X155356480Y-97846150D01*
X155366970Y-97868329D01*
X155375235Y-97891428D01*
X155381196Y-97915227D01*
X155384796Y-97939495D01*
X155386000Y-97963999D01*
X155386000Y-98614001D01*
X155384796Y-98638505D01*
X155381196Y-98662773D01*
X155375235Y-98686572D01*
X155366970Y-98709671D01*
X155356480Y-98731850D01*
X155343868Y-98752893D01*
X155329253Y-98772599D01*
X155312777Y-98790777D01*
X155294599Y-98807253D01*
X155274893Y-98821868D01*
X155253850Y-98834480D01*
X155231671Y-98844970D01*
X155208572Y-98853235D01*
X155184773Y-98859196D01*
X155160505Y-98862796D01*
X155136001Y-98864000D01*
X154235999Y-98864000D01*
X154211495Y-98862796D01*
X154187227Y-98859196D01*
X154163428Y-98853235D01*
X154140329Y-98844970D01*
X154118150Y-98834480D01*
X154097107Y-98821868D01*
X154077401Y-98807253D01*
X154059223Y-98790777D01*
X154042747Y-98772599D01*
X154028132Y-98752893D01*
X154015520Y-98731850D01*
X154005030Y-98709671D01*
X153996765Y-98686572D01*
X153990804Y-98662773D01*
X153987204Y-98638505D01*
X153986000Y-98614001D01*
X153986000Y-97963999D01*
X153987204Y-97939495D01*
X153990804Y-97915227D01*
X153996765Y-97891428D01*
X154005030Y-97868329D01*
X154015520Y-97846150D01*
X154028132Y-97825107D01*
X154042747Y-97805401D01*
X154059223Y-97787223D01*
X154077401Y-97770747D01*
X154097107Y-97756132D01*
X154118150Y-97743520D01*
X154140329Y-97733030D01*
X154163428Y-97724765D01*
X154187227Y-97718804D01*
X154211495Y-97715204D01*
X154235999Y-97714000D01*
X155136001Y-97714000D01*
X155160505Y-97715204D01*
X155160505Y-97715204D01*
G37*
D12*
X154686000Y-98289000D03*
D11*
G36*
X155478005Y-95510704D02*
G01*
X155502273Y-95514304D01*
X155526072Y-95520265D01*
X155549171Y-95528530D01*
X155571350Y-95539020D01*
X155592393Y-95551632D01*
X155612099Y-95566247D01*
X155630277Y-95582723D01*
X155646753Y-95600901D01*
X155661368Y-95620607D01*
X155673980Y-95641650D01*
X155684470Y-95663829D01*
X155692735Y-95686928D01*
X155698696Y-95710727D01*
X155702296Y-95734995D01*
X155703500Y-95759499D01*
X155703500Y-96409501D01*
X155702296Y-96434005D01*
X155698696Y-96458273D01*
X155692735Y-96482072D01*
X155684470Y-96505171D01*
X155673980Y-96527350D01*
X155661368Y-96548393D01*
X155646753Y-96568099D01*
X155630277Y-96586277D01*
X155612099Y-96602753D01*
X155592393Y-96617368D01*
X155571350Y-96629980D01*
X155549171Y-96640470D01*
X155526072Y-96648735D01*
X155502273Y-96654696D01*
X155478005Y-96658296D01*
X155453501Y-96659500D01*
X154553499Y-96659500D01*
X154528995Y-96658296D01*
X154504727Y-96654696D01*
X154480928Y-96648735D01*
X154457829Y-96640470D01*
X154435650Y-96629980D01*
X154414607Y-96617368D01*
X154394901Y-96602753D01*
X154376723Y-96586277D01*
X154360247Y-96568099D01*
X154345632Y-96548393D01*
X154333020Y-96527350D01*
X154322530Y-96505171D01*
X154314265Y-96482072D01*
X154308304Y-96458273D01*
X154304704Y-96434005D01*
X154303500Y-96409501D01*
X154303500Y-95759499D01*
X154304704Y-95734995D01*
X154308304Y-95710727D01*
X154314265Y-95686928D01*
X154322530Y-95663829D01*
X154333020Y-95641650D01*
X154345632Y-95620607D01*
X154360247Y-95600901D01*
X154376723Y-95582723D01*
X154394901Y-95566247D01*
X154414607Y-95551632D01*
X154435650Y-95539020D01*
X154457829Y-95528530D01*
X154480928Y-95520265D01*
X154504727Y-95514304D01*
X154528995Y-95510704D01*
X154553499Y-95509500D01*
X155453501Y-95509500D01*
X155478005Y-95510704D01*
X155478005Y-95510704D01*
G37*
D12*
X155003500Y-96084500D03*
D11*
G36*
X155478005Y-93460704D02*
G01*
X155502273Y-93464304D01*
X155526072Y-93470265D01*
X155549171Y-93478530D01*
X155571350Y-93489020D01*
X155592393Y-93501632D01*
X155612099Y-93516247D01*
X155630277Y-93532723D01*
X155646753Y-93550901D01*
X155661368Y-93570607D01*
X155673980Y-93591650D01*
X155684470Y-93613829D01*
X155692735Y-93636928D01*
X155698696Y-93660727D01*
X155702296Y-93684995D01*
X155703500Y-93709499D01*
X155703500Y-94359501D01*
X155702296Y-94384005D01*
X155698696Y-94408273D01*
X155692735Y-94432072D01*
X155684470Y-94455171D01*
X155673980Y-94477350D01*
X155661368Y-94498393D01*
X155646753Y-94518099D01*
X155630277Y-94536277D01*
X155612099Y-94552753D01*
X155592393Y-94567368D01*
X155571350Y-94579980D01*
X155549171Y-94590470D01*
X155526072Y-94598735D01*
X155502273Y-94604696D01*
X155478005Y-94608296D01*
X155453501Y-94609500D01*
X154553499Y-94609500D01*
X154528995Y-94608296D01*
X154504727Y-94604696D01*
X154480928Y-94598735D01*
X154457829Y-94590470D01*
X154435650Y-94579980D01*
X154414607Y-94567368D01*
X154394901Y-94552753D01*
X154376723Y-94536277D01*
X154360247Y-94518099D01*
X154345632Y-94498393D01*
X154333020Y-94477350D01*
X154322530Y-94455171D01*
X154314265Y-94432072D01*
X154308304Y-94408273D01*
X154304704Y-94384005D01*
X154303500Y-94359501D01*
X154303500Y-93709499D01*
X154304704Y-93684995D01*
X154308304Y-93660727D01*
X154314265Y-93636928D01*
X154322530Y-93613829D01*
X154333020Y-93591650D01*
X154345632Y-93570607D01*
X154360247Y-93550901D01*
X154376723Y-93532723D01*
X154394901Y-93516247D01*
X154414607Y-93501632D01*
X154435650Y-93489020D01*
X154457829Y-93478530D01*
X154480928Y-93470265D01*
X154504727Y-93464304D01*
X154528995Y-93460704D01*
X154553499Y-93459500D01*
X155453501Y-93459500D01*
X155478005Y-93460704D01*
X155478005Y-93460704D01*
G37*
D12*
X155003500Y-94034500D03*
D11*
G36*
X154906505Y-106623204D02*
G01*
X154930773Y-106626804D01*
X154954572Y-106632765D01*
X154977671Y-106641030D01*
X154999850Y-106651520D01*
X155020893Y-106664132D01*
X155040599Y-106678747D01*
X155058777Y-106695223D01*
X155075253Y-106713401D01*
X155089868Y-106733107D01*
X155102480Y-106754150D01*
X155112970Y-106776329D01*
X155121235Y-106799428D01*
X155127196Y-106823227D01*
X155130796Y-106847495D01*
X155132000Y-106871999D01*
X155132000Y-107522001D01*
X155130796Y-107546505D01*
X155127196Y-107570773D01*
X155121235Y-107594572D01*
X155112970Y-107617671D01*
X155102480Y-107639850D01*
X155089868Y-107660893D01*
X155075253Y-107680599D01*
X155058777Y-107698777D01*
X155040599Y-107715253D01*
X155020893Y-107729868D01*
X154999850Y-107742480D01*
X154977671Y-107752970D01*
X154954572Y-107761235D01*
X154930773Y-107767196D01*
X154906505Y-107770796D01*
X154882001Y-107772000D01*
X153981999Y-107772000D01*
X153957495Y-107770796D01*
X153933227Y-107767196D01*
X153909428Y-107761235D01*
X153886329Y-107752970D01*
X153864150Y-107742480D01*
X153843107Y-107729868D01*
X153823401Y-107715253D01*
X153805223Y-107698777D01*
X153788747Y-107680599D01*
X153774132Y-107660893D01*
X153761520Y-107639850D01*
X153751030Y-107617671D01*
X153742765Y-107594572D01*
X153736804Y-107570773D01*
X153733204Y-107546505D01*
X153732000Y-107522001D01*
X153732000Y-106871999D01*
X153733204Y-106847495D01*
X153736804Y-106823227D01*
X153742765Y-106799428D01*
X153751030Y-106776329D01*
X153761520Y-106754150D01*
X153774132Y-106733107D01*
X153788747Y-106713401D01*
X153805223Y-106695223D01*
X153823401Y-106678747D01*
X153843107Y-106664132D01*
X153864150Y-106651520D01*
X153886329Y-106641030D01*
X153909428Y-106632765D01*
X153933227Y-106626804D01*
X153957495Y-106623204D01*
X153981999Y-106622000D01*
X154882001Y-106622000D01*
X154906505Y-106623204D01*
X154906505Y-106623204D01*
G37*
D12*
X154432000Y-107197000D03*
D11*
G36*
X154906505Y-104573204D02*
G01*
X154930773Y-104576804D01*
X154954572Y-104582765D01*
X154977671Y-104591030D01*
X154999850Y-104601520D01*
X155020893Y-104614132D01*
X155040599Y-104628747D01*
X155058777Y-104645223D01*
X155075253Y-104663401D01*
X155089868Y-104683107D01*
X155102480Y-104704150D01*
X155112970Y-104726329D01*
X155121235Y-104749428D01*
X155127196Y-104773227D01*
X155130796Y-104797495D01*
X155132000Y-104821999D01*
X155132000Y-105472001D01*
X155130796Y-105496505D01*
X155127196Y-105520773D01*
X155121235Y-105544572D01*
X155112970Y-105567671D01*
X155102480Y-105589850D01*
X155089868Y-105610893D01*
X155075253Y-105630599D01*
X155058777Y-105648777D01*
X155040599Y-105665253D01*
X155020893Y-105679868D01*
X154999850Y-105692480D01*
X154977671Y-105702970D01*
X154954572Y-105711235D01*
X154930773Y-105717196D01*
X154906505Y-105720796D01*
X154882001Y-105722000D01*
X153981999Y-105722000D01*
X153957495Y-105720796D01*
X153933227Y-105717196D01*
X153909428Y-105711235D01*
X153886329Y-105702970D01*
X153864150Y-105692480D01*
X153843107Y-105679868D01*
X153823401Y-105665253D01*
X153805223Y-105648777D01*
X153788747Y-105630599D01*
X153774132Y-105610893D01*
X153761520Y-105589850D01*
X153751030Y-105567671D01*
X153742765Y-105544572D01*
X153736804Y-105520773D01*
X153733204Y-105496505D01*
X153732000Y-105472001D01*
X153732000Y-104821999D01*
X153733204Y-104797495D01*
X153736804Y-104773227D01*
X153742765Y-104749428D01*
X153751030Y-104726329D01*
X153761520Y-104704150D01*
X153774132Y-104683107D01*
X153788747Y-104663401D01*
X153805223Y-104645223D01*
X153823401Y-104628747D01*
X153843107Y-104614132D01*
X153864150Y-104601520D01*
X153886329Y-104591030D01*
X153909428Y-104582765D01*
X153933227Y-104576804D01*
X153957495Y-104573204D01*
X153981999Y-104572000D01*
X154882001Y-104572000D01*
X154906505Y-104573204D01*
X154906505Y-104573204D01*
G37*
D12*
X154432000Y-105147000D03*
D11*
G36*
X111472505Y-95955204D02*
G01*
X111496773Y-95958804D01*
X111520572Y-95964765D01*
X111543671Y-95973030D01*
X111565850Y-95983520D01*
X111586893Y-95996132D01*
X111606599Y-96010747D01*
X111624777Y-96027223D01*
X111641253Y-96045401D01*
X111655868Y-96065107D01*
X111668480Y-96086150D01*
X111678970Y-96108329D01*
X111687235Y-96131428D01*
X111693196Y-96155227D01*
X111696796Y-96179495D01*
X111698000Y-96203999D01*
X111698000Y-96854001D01*
X111696796Y-96878505D01*
X111693196Y-96902773D01*
X111687235Y-96926572D01*
X111678970Y-96949671D01*
X111668480Y-96971850D01*
X111655868Y-96992893D01*
X111641253Y-97012599D01*
X111624777Y-97030777D01*
X111606599Y-97047253D01*
X111586893Y-97061868D01*
X111565850Y-97074480D01*
X111543671Y-97084970D01*
X111520572Y-97093235D01*
X111496773Y-97099196D01*
X111472505Y-97102796D01*
X111448001Y-97104000D01*
X110547999Y-97104000D01*
X110523495Y-97102796D01*
X110499227Y-97099196D01*
X110475428Y-97093235D01*
X110452329Y-97084970D01*
X110430150Y-97074480D01*
X110409107Y-97061868D01*
X110389401Y-97047253D01*
X110371223Y-97030777D01*
X110354747Y-97012599D01*
X110340132Y-96992893D01*
X110327520Y-96971850D01*
X110317030Y-96949671D01*
X110308765Y-96926572D01*
X110302804Y-96902773D01*
X110299204Y-96878505D01*
X110298000Y-96854001D01*
X110298000Y-96203999D01*
X110299204Y-96179495D01*
X110302804Y-96155227D01*
X110308765Y-96131428D01*
X110317030Y-96108329D01*
X110327520Y-96086150D01*
X110340132Y-96065107D01*
X110354747Y-96045401D01*
X110371223Y-96027223D01*
X110389401Y-96010747D01*
X110409107Y-95996132D01*
X110430150Y-95983520D01*
X110452329Y-95973030D01*
X110475428Y-95964765D01*
X110499227Y-95958804D01*
X110523495Y-95955204D01*
X110547999Y-95954000D01*
X111448001Y-95954000D01*
X111472505Y-95955204D01*
X111472505Y-95955204D01*
G37*
D12*
X110998000Y-96529000D03*
D11*
G36*
X111472505Y-93905204D02*
G01*
X111496773Y-93908804D01*
X111520572Y-93914765D01*
X111543671Y-93923030D01*
X111565850Y-93933520D01*
X111586893Y-93946132D01*
X111606599Y-93960747D01*
X111624777Y-93977223D01*
X111641253Y-93995401D01*
X111655868Y-94015107D01*
X111668480Y-94036150D01*
X111678970Y-94058329D01*
X111687235Y-94081428D01*
X111693196Y-94105227D01*
X111696796Y-94129495D01*
X111698000Y-94153999D01*
X111698000Y-94804001D01*
X111696796Y-94828505D01*
X111693196Y-94852773D01*
X111687235Y-94876572D01*
X111678970Y-94899671D01*
X111668480Y-94921850D01*
X111655868Y-94942893D01*
X111641253Y-94962599D01*
X111624777Y-94980777D01*
X111606599Y-94997253D01*
X111586893Y-95011868D01*
X111565850Y-95024480D01*
X111543671Y-95034970D01*
X111520572Y-95043235D01*
X111496773Y-95049196D01*
X111472505Y-95052796D01*
X111448001Y-95054000D01*
X110547999Y-95054000D01*
X110523495Y-95052796D01*
X110499227Y-95049196D01*
X110475428Y-95043235D01*
X110452329Y-95034970D01*
X110430150Y-95024480D01*
X110409107Y-95011868D01*
X110389401Y-94997253D01*
X110371223Y-94980777D01*
X110354747Y-94962599D01*
X110340132Y-94942893D01*
X110327520Y-94921850D01*
X110317030Y-94899671D01*
X110308765Y-94876572D01*
X110302804Y-94852773D01*
X110299204Y-94828505D01*
X110298000Y-94804001D01*
X110298000Y-94153999D01*
X110299204Y-94129495D01*
X110302804Y-94105227D01*
X110308765Y-94081428D01*
X110317030Y-94058329D01*
X110327520Y-94036150D01*
X110340132Y-94015107D01*
X110354747Y-93995401D01*
X110371223Y-93977223D01*
X110389401Y-93960747D01*
X110409107Y-93946132D01*
X110430150Y-93933520D01*
X110452329Y-93923030D01*
X110475428Y-93914765D01*
X110499227Y-93908804D01*
X110523495Y-93905204D01*
X110547999Y-93904000D01*
X111448001Y-93904000D01*
X111472505Y-93905204D01*
X111472505Y-93905204D01*
G37*
D12*
X110998000Y-94479000D03*
D11*
G36*
X131157505Y-86938204D02*
G01*
X131181773Y-86941804D01*
X131205572Y-86947765D01*
X131228671Y-86956030D01*
X131250850Y-86966520D01*
X131271893Y-86979132D01*
X131291599Y-86993747D01*
X131309777Y-87010223D01*
X131326253Y-87028401D01*
X131340868Y-87048107D01*
X131353480Y-87069150D01*
X131363970Y-87091329D01*
X131372235Y-87114428D01*
X131378196Y-87138227D01*
X131381796Y-87162495D01*
X131383000Y-87186999D01*
X131383000Y-87837001D01*
X131381796Y-87861505D01*
X131378196Y-87885773D01*
X131372235Y-87909572D01*
X131363970Y-87932671D01*
X131353480Y-87954850D01*
X131340868Y-87975893D01*
X131326253Y-87995599D01*
X131309777Y-88013777D01*
X131291599Y-88030253D01*
X131271893Y-88044868D01*
X131250850Y-88057480D01*
X131228671Y-88067970D01*
X131205572Y-88076235D01*
X131181773Y-88082196D01*
X131157505Y-88085796D01*
X131133001Y-88087000D01*
X130232999Y-88087000D01*
X130208495Y-88085796D01*
X130184227Y-88082196D01*
X130160428Y-88076235D01*
X130137329Y-88067970D01*
X130115150Y-88057480D01*
X130094107Y-88044868D01*
X130074401Y-88030253D01*
X130056223Y-88013777D01*
X130039747Y-87995599D01*
X130025132Y-87975893D01*
X130012520Y-87954850D01*
X130002030Y-87932671D01*
X129993765Y-87909572D01*
X129987804Y-87885773D01*
X129984204Y-87861505D01*
X129983000Y-87837001D01*
X129983000Y-87186999D01*
X129984204Y-87162495D01*
X129987804Y-87138227D01*
X129993765Y-87114428D01*
X130002030Y-87091329D01*
X130012520Y-87069150D01*
X130025132Y-87048107D01*
X130039747Y-87028401D01*
X130056223Y-87010223D01*
X130074401Y-86993747D01*
X130094107Y-86979132D01*
X130115150Y-86966520D01*
X130137329Y-86956030D01*
X130160428Y-86947765D01*
X130184227Y-86941804D01*
X130208495Y-86938204D01*
X130232999Y-86937000D01*
X131133001Y-86937000D01*
X131157505Y-86938204D01*
X131157505Y-86938204D01*
G37*
D12*
X130683000Y-87512000D03*
D11*
G36*
X131157505Y-84888204D02*
G01*
X131181773Y-84891804D01*
X131205572Y-84897765D01*
X131228671Y-84906030D01*
X131250850Y-84916520D01*
X131271893Y-84929132D01*
X131291599Y-84943747D01*
X131309777Y-84960223D01*
X131326253Y-84978401D01*
X131340868Y-84998107D01*
X131353480Y-85019150D01*
X131363970Y-85041329D01*
X131372235Y-85064428D01*
X131378196Y-85088227D01*
X131381796Y-85112495D01*
X131383000Y-85136999D01*
X131383000Y-85787001D01*
X131381796Y-85811505D01*
X131378196Y-85835773D01*
X131372235Y-85859572D01*
X131363970Y-85882671D01*
X131353480Y-85904850D01*
X131340868Y-85925893D01*
X131326253Y-85945599D01*
X131309777Y-85963777D01*
X131291599Y-85980253D01*
X131271893Y-85994868D01*
X131250850Y-86007480D01*
X131228671Y-86017970D01*
X131205572Y-86026235D01*
X131181773Y-86032196D01*
X131157505Y-86035796D01*
X131133001Y-86037000D01*
X130232999Y-86037000D01*
X130208495Y-86035796D01*
X130184227Y-86032196D01*
X130160428Y-86026235D01*
X130137329Y-86017970D01*
X130115150Y-86007480D01*
X130094107Y-85994868D01*
X130074401Y-85980253D01*
X130056223Y-85963777D01*
X130039747Y-85945599D01*
X130025132Y-85925893D01*
X130012520Y-85904850D01*
X130002030Y-85882671D01*
X129993765Y-85859572D01*
X129987804Y-85835773D01*
X129984204Y-85811505D01*
X129983000Y-85787001D01*
X129983000Y-85136999D01*
X129984204Y-85112495D01*
X129987804Y-85088227D01*
X129993765Y-85064428D01*
X130002030Y-85041329D01*
X130012520Y-85019150D01*
X130025132Y-84998107D01*
X130039747Y-84978401D01*
X130056223Y-84960223D01*
X130074401Y-84943747D01*
X130094107Y-84929132D01*
X130115150Y-84916520D01*
X130137329Y-84906030D01*
X130160428Y-84897765D01*
X130184227Y-84891804D01*
X130208495Y-84888204D01*
X130232999Y-84887000D01*
X131133001Y-84887000D01*
X131157505Y-84888204D01*
X131157505Y-84888204D01*
G37*
D12*
X130683000Y-85462000D03*
D11*
G36*
X133454505Y-74739204D02*
G01*
X133478773Y-74742804D01*
X133502572Y-74748765D01*
X133525671Y-74757030D01*
X133547850Y-74767520D01*
X133568893Y-74780132D01*
X133588599Y-74794747D01*
X133606777Y-74811223D01*
X133623253Y-74829401D01*
X133637868Y-74849107D01*
X133650480Y-74870150D01*
X133660970Y-74892329D01*
X133669235Y-74915428D01*
X133675196Y-74939227D01*
X133678796Y-74963495D01*
X133680000Y-74987999D01*
X133680000Y-75888001D01*
X133678796Y-75912505D01*
X133675196Y-75936773D01*
X133669235Y-75960572D01*
X133660970Y-75983671D01*
X133650480Y-76005850D01*
X133637868Y-76026893D01*
X133623253Y-76046599D01*
X133606777Y-76064777D01*
X133588599Y-76081253D01*
X133568893Y-76095868D01*
X133547850Y-76108480D01*
X133525671Y-76118970D01*
X133502572Y-76127235D01*
X133478773Y-76133196D01*
X133454505Y-76136796D01*
X133430001Y-76138000D01*
X132779999Y-76138000D01*
X132755495Y-76136796D01*
X132731227Y-76133196D01*
X132707428Y-76127235D01*
X132684329Y-76118970D01*
X132662150Y-76108480D01*
X132641107Y-76095868D01*
X132621401Y-76081253D01*
X132603223Y-76064777D01*
X132586747Y-76046599D01*
X132572132Y-76026893D01*
X132559520Y-76005850D01*
X132549030Y-75983671D01*
X132540765Y-75960572D01*
X132534804Y-75936773D01*
X132531204Y-75912505D01*
X132530000Y-75888001D01*
X132530000Y-74987999D01*
X132531204Y-74963495D01*
X132534804Y-74939227D01*
X132540765Y-74915428D01*
X132549030Y-74892329D01*
X132559520Y-74870150D01*
X132572132Y-74849107D01*
X132586747Y-74829401D01*
X132603223Y-74811223D01*
X132621401Y-74794747D01*
X132641107Y-74780132D01*
X132662150Y-74767520D01*
X132684329Y-74757030D01*
X132707428Y-74748765D01*
X132731227Y-74742804D01*
X132755495Y-74739204D01*
X132779999Y-74738000D01*
X133430001Y-74738000D01*
X133454505Y-74739204D01*
X133454505Y-74739204D01*
G37*
D12*
X133105000Y-75438000D03*
D11*
G36*
X131404505Y-74739204D02*
G01*
X131428773Y-74742804D01*
X131452572Y-74748765D01*
X131475671Y-74757030D01*
X131497850Y-74767520D01*
X131518893Y-74780132D01*
X131538599Y-74794747D01*
X131556777Y-74811223D01*
X131573253Y-74829401D01*
X131587868Y-74849107D01*
X131600480Y-74870150D01*
X131610970Y-74892329D01*
X131619235Y-74915428D01*
X131625196Y-74939227D01*
X131628796Y-74963495D01*
X131630000Y-74987999D01*
X131630000Y-75888001D01*
X131628796Y-75912505D01*
X131625196Y-75936773D01*
X131619235Y-75960572D01*
X131610970Y-75983671D01*
X131600480Y-76005850D01*
X131587868Y-76026893D01*
X131573253Y-76046599D01*
X131556777Y-76064777D01*
X131538599Y-76081253D01*
X131518893Y-76095868D01*
X131497850Y-76108480D01*
X131475671Y-76118970D01*
X131452572Y-76127235D01*
X131428773Y-76133196D01*
X131404505Y-76136796D01*
X131380001Y-76138000D01*
X130729999Y-76138000D01*
X130705495Y-76136796D01*
X130681227Y-76133196D01*
X130657428Y-76127235D01*
X130634329Y-76118970D01*
X130612150Y-76108480D01*
X130591107Y-76095868D01*
X130571401Y-76081253D01*
X130553223Y-76064777D01*
X130536747Y-76046599D01*
X130522132Y-76026893D01*
X130509520Y-76005850D01*
X130499030Y-75983671D01*
X130490765Y-75960572D01*
X130484804Y-75936773D01*
X130481204Y-75912505D01*
X130480000Y-75888001D01*
X130480000Y-74987999D01*
X130481204Y-74963495D01*
X130484804Y-74939227D01*
X130490765Y-74915428D01*
X130499030Y-74892329D01*
X130509520Y-74870150D01*
X130522132Y-74849107D01*
X130536747Y-74829401D01*
X130553223Y-74811223D01*
X130571401Y-74794747D01*
X130591107Y-74780132D01*
X130612150Y-74767520D01*
X130634329Y-74757030D01*
X130657428Y-74748765D01*
X130681227Y-74742804D01*
X130705495Y-74739204D01*
X130729999Y-74738000D01*
X131380001Y-74738000D01*
X131404505Y-74739204D01*
X131404505Y-74739204D01*
G37*
D12*
X131055000Y-75438000D03*
D11*
G36*
X157446505Y-67235204D02*
G01*
X157470773Y-67238804D01*
X157494572Y-67244765D01*
X157517671Y-67253030D01*
X157539850Y-67263520D01*
X157560893Y-67276132D01*
X157580599Y-67290747D01*
X157598777Y-67307223D01*
X157615253Y-67325401D01*
X157629868Y-67345107D01*
X157642480Y-67366150D01*
X157652970Y-67388329D01*
X157661235Y-67411428D01*
X157667196Y-67435227D01*
X157670796Y-67459495D01*
X157672000Y-67483999D01*
X157672000Y-68134001D01*
X157670796Y-68158505D01*
X157667196Y-68182773D01*
X157661235Y-68206572D01*
X157652970Y-68229671D01*
X157642480Y-68251850D01*
X157629868Y-68272893D01*
X157615253Y-68292599D01*
X157598777Y-68310777D01*
X157580599Y-68327253D01*
X157560893Y-68341868D01*
X157539850Y-68354480D01*
X157517671Y-68364970D01*
X157494572Y-68373235D01*
X157470773Y-68379196D01*
X157446505Y-68382796D01*
X157422001Y-68384000D01*
X156521999Y-68384000D01*
X156497495Y-68382796D01*
X156473227Y-68379196D01*
X156449428Y-68373235D01*
X156426329Y-68364970D01*
X156404150Y-68354480D01*
X156383107Y-68341868D01*
X156363401Y-68327253D01*
X156345223Y-68310777D01*
X156328747Y-68292599D01*
X156314132Y-68272893D01*
X156301520Y-68251850D01*
X156291030Y-68229671D01*
X156282765Y-68206572D01*
X156276804Y-68182773D01*
X156273204Y-68158505D01*
X156272000Y-68134001D01*
X156272000Y-67483999D01*
X156273204Y-67459495D01*
X156276804Y-67435227D01*
X156282765Y-67411428D01*
X156291030Y-67388329D01*
X156301520Y-67366150D01*
X156314132Y-67345107D01*
X156328747Y-67325401D01*
X156345223Y-67307223D01*
X156363401Y-67290747D01*
X156383107Y-67276132D01*
X156404150Y-67263520D01*
X156426329Y-67253030D01*
X156449428Y-67244765D01*
X156473227Y-67238804D01*
X156497495Y-67235204D01*
X156521999Y-67234000D01*
X157422001Y-67234000D01*
X157446505Y-67235204D01*
X157446505Y-67235204D01*
G37*
D12*
X156972000Y-67809000D03*
D11*
G36*
X157446505Y-69285204D02*
G01*
X157470773Y-69288804D01*
X157494572Y-69294765D01*
X157517671Y-69303030D01*
X157539850Y-69313520D01*
X157560893Y-69326132D01*
X157580599Y-69340747D01*
X157598777Y-69357223D01*
X157615253Y-69375401D01*
X157629868Y-69395107D01*
X157642480Y-69416150D01*
X157652970Y-69438329D01*
X157661235Y-69461428D01*
X157667196Y-69485227D01*
X157670796Y-69509495D01*
X157672000Y-69533999D01*
X157672000Y-70184001D01*
X157670796Y-70208505D01*
X157667196Y-70232773D01*
X157661235Y-70256572D01*
X157652970Y-70279671D01*
X157642480Y-70301850D01*
X157629868Y-70322893D01*
X157615253Y-70342599D01*
X157598777Y-70360777D01*
X157580599Y-70377253D01*
X157560893Y-70391868D01*
X157539850Y-70404480D01*
X157517671Y-70414970D01*
X157494572Y-70423235D01*
X157470773Y-70429196D01*
X157446505Y-70432796D01*
X157422001Y-70434000D01*
X156521999Y-70434000D01*
X156497495Y-70432796D01*
X156473227Y-70429196D01*
X156449428Y-70423235D01*
X156426329Y-70414970D01*
X156404150Y-70404480D01*
X156383107Y-70391868D01*
X156363401Y-70377253D01*
X156345223Y-70360777D01*
X156328747Y-70342599D01*
X156314132Y-70322893D01*
X156301520Y-70301850D01*
X156291030Y-70279671D01*
X156282765Y-70256572D01*
X156276804Y-70232773D01*
X156273204Y-70208505D01*
X156272000Y-70184001D01*
X156272000Y-69533999D01*
X156273204Y-69509495D01*
X156276804Y-69485227D01*
X156282765Y-69461428D01*
X156291030Y-69438329D01*
X156301520Y-69416150D01*
X156314132Y-69395107D01*
X156328747Y-69375401D01*
X156345223Y-69357223D01*
X156363401Y-69340747D01*
X156383107Y-69326132D01*
X156404150Y-69313520D01*
X156426329Y-69303030D01*
X156449428Y-69294765D01*
X156473227Y-69288804D01*
X156497495Y-69285204D01*
X156521999Y-69284000D01*
X157422001Y-69284000D01*
X157446505Y-69285204D01*
X157446505Y-69285204D01*
G37*
D12*
X156972000Y-69859000D03*
D11*
G36*
X113885505Y-88716204D02*
G01*
X113909773Y-88719804D01*
X113933572Y-88725765D01*
X113956671Y-88734030D01*
X113978850Y-88744520D01*
X113999893Y-88757132D01*
X114019599Y-88771747D01*
X114037777Y-88788223D01*
X114054253Y-88806401D01*
X114068868Y-88826107D01*
X114081480Y-88847150D01*
X114091970Y-88869329D01*
X114100235Y-88892428D01*
X114106196Y-88916227D01*
X114109796Y-88940495D01*
X114111000Y-88964999D01*
X114111000Y-89615001D01*
X114109796Y-89639505D01*
X114106196Y-89663773D01*
X114100235Y-89687572D01*
X114091970Y-89710671D01*
X114081480Y-89732850D01*
X114068868Y-89753893D01*
X114054253Y-89773599D01*
X114037777Y-89791777D01*
X114019599Y-89808253D01*
X113999893Y-89822868D01*
X113978850Y-89835480D01*
X113956671Y-89845970D01*
X113933572Y-89854235D01*
X113909773Y-89860196D01*
X113885505Y-89863796D01*
X113861001Y-89865000D01*
X112960999Y-89865000D01*
X112936495Y-89863796D01*
X112912227Y-89860196D01*
X112888428Y-89854235D01*
X112865329Y-89845970D01*
X112843150Y-89835480D01*
X112822107Y-89822868D01*
X112802401Y-89808253D01*
X112784223Y-89791777D01*
X112767747Y-89773599D01*
X112753132Y-89753893D01*
X112740520Y-89732850D01*
X112730030Y-89710671D01*
X112721765Y-89687572D01*
X112715804Y-89663773D01*
X112712204Y-89639505D01*
X112711000Y-89615001D01*
X112711000Y-88964999D01*
X112712204Y-88940495D01*
X112715804Y-88916227D01*
X112721765Y-88892428D01*
X112730030Y-88869329D01*
X112740520Y-88847150D01*
X112753132Y-88826107D01*
X112767747Y-88806401D01*
X112784223Y-88788223D01*
X112802401Y-88771747D01*
X112822107Y-88757132D01*
X112843150Y-88744520D01*
X112865329Y-88734030D01*
X112888428Y-88725765D01*
X112912227Y-88719804D01*
X112936495Y-88716204D01*
X112960999Y-88715000D01*
X113861001Y-88715000D01*
X113885505Y-88716204D01*
X113885505Y-88716204D01*
G37*
D12*
X113411000Y-89290000D03*
D11*
G36*
X113885505Y-86666204D02*
G01*
X113909773Y-86669804D01*
X113933572Y-86675765D01*
X113956671Y-86684030D01*
X113978850Y-86694520D01*
X113999893Y-86707132D01*
X114019599Y-86721747D01*
X114037777Y-86738223D01*
X114054253Y-86756401D01*
X114068868Y-86776107D01*
X114081480Y-86797150D01*
X114091970Y-86819329D01*
X114100235Y-86842428D01*
X114106196Y-86866227D01*
X114109796Y-86890495D01*
X114111000Y-86914999D01*
X114111000Y-87565001D01*
X114109796Y-87589505D01*
X114106196Y-87613773D01*
X114100235Y-87637572D01*
X114091970Y-87660671D01*
X114081480Y-87682850D01*
X114068868Y-87703893D01*
X114054253Y-87723599D01*
X114037777Y-87741777D01*
X114019599Y-87758253D01*
X113999893Y-87772868D01*
X113978850Y-87785480D01*
X113956671Y-87795970D01*
X113933572Y-87804235D01*
X113909773Y-87810196D01*
X113885505Y-87813796D01*
X113861001Y-87815000D01*
X112960999Y-87815000D01*
X112936495Y-87813796D01*
X112912227Y-87810196D01*
X112888428Y-87804235D01*
X112865329Y-87795970D01*
X112843150Y-87785480D01*
X112822107Y-87772868D01*
X112802401Y-87758253D01*
X112784223Y-87741777D01*
X112767747Y-87723599D01*
X112753132Y-87703893D01*
X112740520Y-87682850D01*
X112730030Y-87660671D01*
X112721765Y-87637572D01*
X112715804Y-87613773D01*
X112712204Y-87589505D01*
X112711000Y-87565001D01*
X112711000Y-86914999D01*
X112712204Y-86890495D01*
X112715804Y-86866227D01*
X112721765Y-86842428D01*
X112730030Y-86819329D01*
X112740520Y-86797150D01*
X112753132Y-86776107D01*
X112767747Y-86756401D01*
X112784223Y-86738223D01*
X112802401Y-86721747D01*
X112822107Y-86707132D01*
X112843150Y-86694520D01*
X112865329Y-86684030D01*
X112888428Y-86675765D01*
X112912227Y-86669804D01*
X112936495Y-86666204D01*
X112960999Y-86665000D01*
X113861001Y-86665000D01*
X113885505Y-86666204D01*
X113885505Y-86666204D01*
G37*
D12*
X113411000Y-87240000D03*
D13*
X163830000Y-87872000D03*
X165830000Y-87872000D03*
X167830000Y-87872000D03*
X169830000Y-87872000D03*
X171830000Y-87872000D03*
X173830000Y-87872000D03*
X175830000Y-87872000D03*
X177830000Y-87872000D03*
X177830000Y-107572000D03*
X175830000Y-107572000D03*
X173830000Y-107572000D03*
X171830000Y-107572000D03*
X169830000Y-107572000D03*
X167830000Y-107572000D03*
X165830000Y-107572000D03*
X163830000Y-107572000D03*
D14*
X151062000Y-95752000D03*
X151062000Y-96552000D03*
X151062000Y-97352000D03*
X151062000Y-98152000D03*
X151062000Y-98952000D03*
X151062000Y-99752000D03*
X151062000Y-100552000D03*
X151062000Y-101352000D03*
D15*
X149612000Y-102802000D03*
X148812000Y-102802000D03*
X148012000Y-102802000D03*
X147212000Y-102802000D03*
X146412000Y-102802000D03*
X145612000Y-102802000D03*
X144812000Y-102802000D03*
X144012000Y-102802000D03*
D14*
X142562000Y-101352000D03*
X142562000Y-100552000D03*
X142562000Y-99752000D03*
X142562000Y-98952000D03*
X142562000Y-98152000D03*
X142562000Y-97352000D03*
X142562000Y-96552000D03*
X142562000Y-95752000D03*
D15*
X144012000Y-94302000D03*
X144812000Y-94302000D03*
X145612000Y-94302000D03*
X146412000Y-94302000D03*
X147212000Y-94302000D03*
X148012000Y-94302000D03*
X148812000Y-94302000D03*
X149612000Y-94302000D03*
D11*
G36*
X127649504Y-87644204D02*
G01*
X127673773Y-87647804D01*
X127697571Y-87653765D01*
X127720671Y-87662030D01*
X127742849Y-87672520D01*
X127763893Y-87685133D01*
X127783598Y-87699747D01*
X127801777Y-87716223D01*
X127818253Y-87734402D01*
X127832867Y-87754107D01*
X127845480Y-87775151D01*
X127855970Y-87797329D01*
X127864235Y-87820429D01*
X127870196Y-87844227D01*
X127873796Y-87868496D01*
X127875000Y-87893000D01*
X127875000Y-88818000D01*
X127873796Y-88842504D01*
X127870196Y-88866773D01*
X127864235Y-88890571D01*
X127855970Y-88913671D01*
X127845480Y-88935849D01*
X127832867Y-88956893D01*
X127818253Y-88976598D01*
X127801777Y-88994777D01*
X127783598Y-89011253D01*
X127763893Y-89025867D01*
X127742849Y-89038480D01*
X127720671Y-89048970D01*
X127697571Y-89057235D01*
X127673773Y-89063196D01*
X127649504Y-89066796D01*
X127625000Y-89068000D01*
X126375000Y-89068000D01*
X126350496Y-89066796D01*
X126326227Y-89063196D01*
X126302429Y-89057235D01*
X126279329Y-89048970D01*
X126257151Y-89038480D01*
X126236107Y-89025867D01*
X126216402Y-89011253D01*
X126198223Y-88994777D01*
X126181747Y-88976598D01*
X126167133Y-88956893D01*
X126154520Y-88935849D01*
X126144030Y-88913671D01*
X126135765Y-88890571D01*
X126129804Y-88866773D01*
X126126204Y-88842504D01*
X126125000Y-88818000D01*
X126125000Y-87893000D01*
X126126204Y-87868496D01*
X126129804Y-87844227D01*
X126135765Y-87820429D01*
X126144030Y-87797329D01*
X126154520Y-87775151D01*
X126167133Y-87754107D01*
X126181747Y-87734402D01*
X126198223Y-87716223D01*
X126216402Y-87699747D01*
X126236107Y-87685133D01*
X126257151Y-87672520D01*
X126279329Y-87662030D01*
X126302429Y-87653765D01*
X126326227Y-87647804D01*
X126350496Y-87644204D01*
X126375000Y-87643000D01*
X127625000Y-87643000D01*
X127649504Y-87644204D01*
X127649504Y-87644204D01*
G37*
D16*
X127000000Y-88355500D03*
D11*
G36*
X127649504Y-84669204D02*
G01*
X127673773Y-84672804D01*
X127697571Y-84678765D01*
X127720671Y-84687030D01*
X127742849Y-84697520D01*
X127763893Y-84710133D01*
X127783598Y-84724747D01*
X127801777Y-84741223D01*
X127818253Y-84759402D01*
X127832867Y-84779107D01*
X127845480Y-84800151D01*
X127855970Y-84822329D01*
X127864235Y-84845429D01*
X127870196Y-84869227D01*
X127873796Y-84893496D01*
X127875000Y-84918000D01*
X127875000Y-85843000D01*
X127873796Y-85867504D01*
X127870196Y-85891773D01*
X127864235Y-85915571D01*
X127855970Y-85938671D01*
X127845480Y-85960849D01*
X127832867Y-85981893D01*
X127818253Y-86001598D01*
X127801777Y-86019777D01*
X127783598Y-86036253D01*
X127763893Y-86050867D01*
X127742849Y-86063480D01*
X127720671Y-86073970D01*
X127697571Y-86082235D01*
X127673773Y-86088196D01*
X127649504Y-86091796D01*
X127625000Y-86093000D01*
X126375000Y-86093000D01*
X126350496Y-86091796D01*
X126326227Y-86088196D01*
X126302429Y-86082235D01*
X126279329Y-86073970D01*
X126257151Y-86063480D01*
X126236107Y-86050867D01*
X126216402Y-86036253D01*
X126198223Y-86019777D01*
X126181747Y-86001598D01*
X126167133Y-85981893D01*
X126154520Y-85960849D01*
X126144030Y-85938671D01*
X126135765Y-85915571D01*
X126129804Y-85891773D01*
X126126204Y-85867504D01*
X126125000Y-85843000D01*
X126125000Y-84918000D01*
X126126204Y-84893496D01*
X126129804Y-84869227D01*
X126135765Y-84845429D01*
X126144030Y-84822329D01*
X126154520Y-84800151D01*
X126167133Y-84779107D01*
X126181747Y-84759402D01*
X126198223Y-84741223D01*
X126216402Y-84724747D01*
X126236107Y-84710133D01*
X126257151Y-84697520D01*
X126279329Y-84687030D01*
X126302429Y-84678765D01*
X126326227Y-84672804D01*
X126350496Y-84669204D01*
X126375000Y-84668000D01*
X127625000Y-84668000D01*
X127649504Y-84669204D01*
X127649504Y-84669204D01*
G37*
D16*
X127000000Y-85380500D03*
D11*
G36*
X106631504Y-72463204D02*
G01*
X106655773Y-72466804D01*
X106679571Y-72472765D01*
X106702671Y-72481030D01*
X106724849Y-72491520D01*
X106745893Y-72504133D01*
X106765598Y-72518747D01*
X106783777Y-72535223D01*
X106800253Y-72553402D01*
X106814867Y-72573107D01*
X106827480Y-72594151D01*
X106837970Y-72616329D01*
X106846235Y-72639429D01*
X106852196Y-72663227D01*
X106855796Y-72687496D01*
X106857000Y-72712000D01*
X106857000Y-74862000D01*
X106855796Y-74886504D01*
X106852196Y-74910773D01*
X106846235Y-74934571D01*
X106837970Y-74957671D01*
X106827480Y-74979849D01*
X106814867Y-75000893D01*
X106800253Y-75020598D01*
X106783777Y-75038777D01*
X106765598Y-75055253D01*
X106745893Y-75069867D01*
X106724849Y-75082480D01*
X106702671Y-75092970D01*
X106679571Y-75101235D01*
X106655773Y-75107196D01*
X106631504Y-75110796D01*
X106607000Y-75112000D01*
X105682000Y-75112000D01*
X105657496Y-75110796D01*
X105633227Y-75107196D01*
X105609429Y-75101235D01*
X105586329Y-75092970D01*
X105564151Y-75082480D01*
X105543107Y-75069867D01*
X105523402Y-75055253D01*
X105505223Y-75038777D01*
X105488747Y-75020598D01*
X105474133Y-75000893D01*
X105461520Y-74979849D01*
X105451030Y-74957671D01*
X105442765Y-74934571D01*
X105436804Y-74910773D01*
X105433204Y-74886504D01*
X105432000Y-74862000D01*
X105432000Y-72712000D01*
X105433204Y-72687496D01*
X105436804Y-72663227D01*
X105442765Y-72639429D01*
X105451030Y-72616329D01*
X105461520Y-72594151D01*
X105474133Y-72573107D01*
X105488747Y-72553402D01*
X105505223Y-72535223D01*
X105523402Y-72518747D01*
X105543107Y-72504133D01*
X105564151Y-72491520D01*
X105586329Y-72481030D01*
X105609429Y-72472765D01*
X105633227Y-72466804D01*
X105657496Y-72463204D01*
X105682000Y-72462000D01*
X106607000Y-72462000D01*
X106631504Y-72463204D01*
X106631504Y-72463204D01*
G37*
D16*
X106144500Y-73787000D03*
D11*
G36*
X109606504Y-72463204D02*
G01*
X109630773Y-72466804D01*
X109654571Y-72472765D01*
X109677671Y-72481030D01*
X109699849Y-72491520D01*
X109720893Y-72504133D01*
X109740598Y-72518747D01*
X109758777Y-72535223D01*
X109775253Y-72553402D01*
X109789867Y-72573107D01*
X109802480Y-72594151D01*
X109812970Y-72616329D01*
X109821235Y-72639429D01*
X109827196Y-72663227D01*
X109830796Y-72687496D01*
X109832000Y-72712000D01*
X109832000Y-74862000D01*
X109830796Y-74886504D01*
X109827196Y-74910773D01*
X109821235Y-74934571D01*
X109812970Y-74957671D01*
X109802480Y-74979849D01*
X109789867Y-75000893D01*
X109775253Y-75020598D01*
X109758777Y-75038777D01*
X109740598Y-75055253D01*
X109720893Y-75069867D01*
X109699849Y-75082480D01*
X109677671Y-75092970D01*
X109654571Y-75101235D01*
X109630773Y-75107196D01*
X109606504Y-75110796D01*
X109582000Y-75112000D01*
X108657000Y-75112000D01*
X108632496Y-75110796D01*
X108608227Y-75107196D01*
X108584429Y-75101235D01*
X108561329Y-75092970D01*
X108539151Y-75082480D01*
X108518107Y-75069867D01*
X108498402Y-75055253D01*
X108480223Y-75038777D01*
X108463747Y-75020598D01*
X108449133Y-75000893D01*
X108436520Y-74979849D01*
X108426030Y-74957671D01*
X108417765Y-74934571D01*
X108411804Y-74910773D01*
X108408204Y-74886504D01*
X108407000Y-74862000D01*
X108407000Y-72712000D01*
X108408204Y-72687496D01*
X108411804Y-72663227D01*
X108417765Y-72639429D01*
X108426030Y-72616329D01*
X108436520Y-72594151D01*
X108449133Y-72573107D01*
X108463747Y-72553402D01*
X108480223Y-72535223D01*
X108498402Y-72518747D01*
X108518107Y-72504133D01*
X108539151Y-72491520D01*
X108561329Y-72481030D01*
X108584429Y-72472765D01*
X108608227Y-72466804D01*
X108632496Y-72463204D01*
X108657000Y-72462000D01*
X109582000Y-72462000D01*
X109606504Y-72463204D01*
X109606504Y-72463204D01*
G37*
D16*
X109119500Y-73787000D03*
D11*
G36*
X126434504Y-74310204D02*
G01*
X126458773Y-74313804D01*
X126482571Y-74319765D01*
X126505671Y-74328030D01*
X126527849Y-74338520D01*
X126548893Y-74351133D01*
X126568598Y-74365747D01*
X126586777Y-74382223D01*
X126603253Y-74400402D01*
X126617867Y-74420107D01*
X126630480Y-74441151D01*
X126640970Y-74463329D01*
X126649235Y-74486429D01*
X126655196Y-74510227D01*
X126658796Y-74534496D01*
X126660000Y-74559000D01*
X126660000Y-75809000D01*
X126658796Y-75833504D01*
X126655196Y-75857773D01*
X126649235Y-75881571D01*
X126640970Y-75904671D01*
X126630480Y-75926849D01*
X126617867Y-75947893D01*
X126603253Y-75967598D01*
X126586777Y-75985777D01*
X126568598Y-76002253D01*
X126548893Y-76016867D01*
X126527849Y-76029480D01*
X126505671Y-76039970D01*
X126482571Y-76048235D01*
X126458773Y-76054196D01*
X126434504Y-76057796D01*
X126410000Y-76059000D01*
X125485000Y-76059000D01*
X125460496Y-76057796D01*
X125436227Y-76054196D01*
X125412429Y-76048235D01*
X125389329Y-76039970D01*
X125367151Y-76029480D01*
X125346107Y-76016867D01*
X125326402Y-76002253D01*
X125308223Y-75985777D01*
X125291747Y-75967598D01*
X125277133Y-75947893D01*
X125264520Y-75926849D01*
X125254030Y-75904671D01*
X125245765Y-75881571D01*
X125239804Y-75857773D01*
X125236204Y-75833504D01*
X125235000Y-75809000D01*
X125235000Y-74559000D01*
X125236204Y-74534496D01*
X125239804Y-74510227D01*
X125245765Y-74486429D01*
X125254030Y-74463329D01*
X125264520Y-74441151D01*
X125277133Y-74420107D01*
X125291747Y-74400402D01*
X125308223Y-74382223D01*
X125326402Y-74365747D01*
X125346107Y-74351133D01*
X125367151Y-74338520D01*
X125389329Y-74328030D01*
X125412429Y-74319765D01*
X125436227Y-74313804D01*
X125460496Y-74310204D01*
X125485000Y-74309000D01*
X126410000Y-74309000D01*
X126434504Y-74310204D01*
X126434504Y-74310204D01*
G37*
D16*
X125947500Y-75184000D03*
D11*
G36*
X123459504Y-74310204D02*
G01*
X123483773Y-74313804D01*
X123507571Y-74319765D01*
X123530671Y-74328030D01*
X123552849Y-74338520D01*
X123573893Y-74351133D01*
X123593598Y-74365747D01*
X123611777Y-74382223D01*
X123628253Y-74400402D01*
X123642867Y-74420107D01*
X123655480Y-74441151D01*
X123665970Y-74463329D01*
X123674235Y-74486429D01*
X123680196Y-74510227D01*
X123683796Y-74534496D01*
X123685000Y-74559000D01*
X123685000Y-75809000D01*
X123683796Y-75833504D01*
X123680196Y-75857773D01*
X123674235Y-75881571D01*
X123665970Y-75904671D01*
X123655480Y-75926849D01*
X123642867Y-75947893D01*
X123628253Y-75967598D01*
X123611777Y-75985777D01*
X123593598Y-76002253D01*
X123573893Y-76016867D01*
X123552849Y-76029480D01*
X123530671Y-76039970D01*
X123507571Y-76048235D01*
X123483773Y-76054196D01*
X123459504Y-76057796D01*
X123435000Y-76059000D01*
X122510000Y-76059000D01*
X122485496Y-76057796D01*
X122461227Y-76054196D01*
X122437429Y-76048235D01*
X122414329Y-76039970D01*
X122392151Y-76029480D01*
X122371107Y-76016867D01*
X122351402Y-76002253D01*
X122333223Y-75985777D01*
X122316747Y-75967598D01*
X122302133Y-75947893D01*
X122289520Y-75926849D01*
X122279030Y-75904671D01*
X122270765Y-75881571D01*
X122264804Y-75857773D01*
X122261204Y-75833504D01*
X122260000Y-75809000D01*
X122260000Y-74559000D01*
X122261204Y-74534496D01*
X122264804Y-74510227D01*
X122270765Y-74486429D01*
X122279030Y-74463329D01*
X122289520Y-74441151D01*
X122302133Y-74420107D01*
X122316747Y-74400402D01*
X122333223Y-74382223D01*
X122351402Y-74365747D01*
X122371107Y-74351133D01*
X122392151Y-74338520D01*
X122414329Y-74328030D01*
X122437429Y-74319765D01*
X122461227Y-74313804D01*
X122485496Y-74310204D01*
X122510000Y-74309000D01*
X123435000Y-74309000D01*
X123459504Y-74310204D01*
X123459504Y-74310204D01*
G37*
D16*
X122972500Y-75184000D03*
D11*
G36*
X110885504Y-77239704D02*
G01*
X110909773Y-77243304D01*
X110933571Y-77249265D01*
X110956671Y-77257530D01*
X110978849Y-77268020D01*
X110999893Y-77280633D01*
X111019598Y-77295247D01*
X111037777Y-77311723D01*
X111054253Y-77329902D01*
X111068867Y-77349607D01*
X111081480Y-77370651D01*
X111091970Y-77392829D01*
X111100235Y-77415929D01*
X111106196Y-77439727D01*
X111109796Y-77463996D01*
X111111000Y-77488500D01*
X111111000Y-78413500D01*
X111109796Y-78438004D01*
X111106196Y-78462273D01*
X111100235Y-78486071D01*
X111091970Y-78509171D01*
X111081480Y-78531349D01*
X111068867Y-78552393D01*
X111054253Y-78572098D01*
X111037777Y-78590277D01*
X111019598Y-78606753D01*
X110999893Y-78621367D01*
X110978849Y-78633980D01*
X110956671Y-78644470D01*
X110933571Y-78652735D01*
X110909773Y-78658696D01*
X110885504Y-78662296D01*
X110861000Y-78663500D01*
X109611000Y-78663500D01*
X109586496Y-78662296D01*
X109562227Y-78658696D01*
X109538429Y-78652735D01*
X109515329Y-78644470D01*
X109493151Y-78633980D01*
X109472107Y-78621367D01*
X109452402Y-78606753D01*
X109434223Y-78590277D01*
X109417747Y-78572098D01*
X109403133Y-78552393D01*
X109390520Y-78531349D01*
X109380030Y-78509171D01*
X109371765Y-78486071D01*
X109365804Y-78462273D01*
X109362204Y-78438004D01*
X109361000Y-78413500D01*
X109361000Y-77488500D01*
X109362204Y-77463996D01*
X109365804Y-77439727D01*
X109371765Y-77415929D01*
X109380030Y-77392829D01*
X109390520Y-77370651D01*
X109403133Y-77349607D01*
X109417747Y-77329902D01*
X109434223Y-77311723D01*
X109452402Y-77295247D01*
X109472107Y-77280633D01*
X109493151Y-77268020D01*
X109515329Y-77257530D01*
X109538429Y-77249265D01*
X109562227Y-77243304D01*
X109586496Y-77239704D01*
X109611000Y-77238500D01*
X110861000Y-77238500D01*
X110885504Y-77239704D01*
X110885504Y-77239704D01*
G37*
D16*
X110236000Y-77951000D03*
D11*
G36*
X110885504Y-80214704D02*
G01*
X110909773Y-80218304D01*
X110933571Y-80224265D01*
X110956671Y-80232530D01*
X110978849Y-80243020D01*
X110999893Y-80255633D01*
X111019598Y-80270247D01*
X111037777Y-80286723D01*
X111054253Y-80304902D01*
X111068867Y-80324607D01*
X111081480Y-80345651D01*
X111091970Y-80367829D01*
X111100235Y-80390929D01*
X111106196Y-80414727D01*
X111109796Y-80438996D01*
X111111000Y-80463500D01*
X111111000Y-81388500D01*
X111109796Y-81413004D01*
X111106196Y-81437273D01*
X111100235Y-81461071D01*
X111091970Y-81484171D01*
X111081480Y-81506349D01*
X111068867Y-81527393D01*
X111054253Y-81547098D01*
X111037777Y-81565277D01*
X111019598Y-81581753D01*
X110999893Y-81596367D01*
X110978849Y-81608980D01*
X110956671Y-81619470D01*
X110933571Y-81627735D01*
X110909773Y-81633696D01*
X110885504Y-81637296D01*
X110861000Y-81638500D01*
X109611000Y-81638500D01*
X109586496Y-81637296D01*
X109562227Y-81633696D01*
X109538429Y-81627735D01*
X109515329Y-81619470D01*
X109493151Y-81608980D01*
X109472107Y-81596367D01*
X109452402Y-81581753D01*
X109434223Y-81565277D01*
X109417747Y-81547098D01*
X109403133Y-81527393D01*
X109390520Y-81506349D01*
X109380030Y-81484171D01*
X109371765Y-81461071D01*
X109365804Y-81437273D01*
X109362204Y-81413004D01*
X109361000Y-81388500D01*
X109361000Y-80463500D01*
X109362204Y-80438996D01*
X109365804Y-80414727D01*
X109371765Y-80390929D01*
X109380030Y-80367829D01*
X109390520Y-80345651D01*
X109403133Y-80324607D01*
X109417747Y-80304902D01*
X109434223Y-80286723D01*
X109452402Y-80270247D01*
X109472107Y-80255633D01*
X109493151Y-80243020D01*
X109515329Y-80232530D01*
X109538429Y-80224265D01*
X109562227Y-80218304D01*
X109586496Y-80214704D01*
X109611000Y-80213500D01*
X110861000Y-80213500D01*
X110885504Y-80214704D01*
X110885504Y-80214704D01*
G37*
D16*
X110236000Y-80926000D03*
D11*
G36*
X137683504Y-74564204D02*
G01*
X137707773Y-74567804D01*
X137731571Y-74573765D01*
X137754671Y-74582030D01*
X137776849Y-74592520D01*
X137797893Y-74605133D01*
X137817598Y-74619747D01*
X137835777Y-74636223D01*
X137852253Y-74654402D01*
X137866867Y-74674107D01*
X137879480Y-74695151D01*
X137889970Y-74717329D01*
X137898235Y-74740429D01*
X137904196Y-74764227D01*
X137907796Y-74788496D01*
X137909000Y-74813000D01*
X137909000Y-76063000D01*
X137907796Y-76087504D01*
X137904196Y-76111773D01*
X137898235Y-76135571D01*
X137889970Y-76158671D01*
X137879480Y-76180849D01*
X137866867Y-76201893D01*
X137852253Y-76221598D01*
X137835777Y-76239777D01*
X137817598Y-76256253D01*
X137797893Y-76270867D01*
X137776849Y-76283480D01*
X137754671Y-76293970D01*
X137731571Y-76302235D01*
X137707773Y-76308196D01*
X137683504Y-76311796D01*
X137659000Y-76313000D01*
X136734000Y-76313000D01*
X136709496Y-76311796D01*
X136685227Y-76308196D01*
X136661429Y-76302235D01*
X136638329Y-76293970D01*
X136616151Y-76283480D01*
X136595107Y-76270867D01*
X136575402Y-76256253D01*
X136557223Y-76239777D01*
X136540747Y-76221598D01*
X136526133Y-76201893D01*
X136513520Y-76180849D01*
X136503030Y-76158671D01*
X136494765Y-76135571D01*
X136488804Y-76111773D01*
X136485204Y-76087504D01*
X136484000Y-76063000D01*
X136484000Y-74813000D01*
X136485204Y-74788496D01*
X136488804Y-74764227D01*
X136494765Y-74740429D01*
X136503030Y-74717329D01*
X136513520Y-74695151D01*
X136526133Y-74674107D01*
X136540747Y-74654402D01*
X136557223Y-74636223D01*
X136575402Y-74619747D01*
X136595107Y-74605133D01*
X136616151Y-74592520D01*
X136638329Y-74582030D01*
X136661429Y-74573765D01*
X136685227Y-74567804D01*
X136709496Y-74564204D01*
X136734000Y-74563000D01*
X137659000Y-74563000D01*
X137683504Y-74564204D01*
X137683504Y-74564204D01*
G37*
D16*
X137196500Y-75438000D03*
D11*
G36*
X140658504Y-74564204D02*
G01*
X140682773Y-74567804D01*
X140706571Y-74573765D01*
X140729671Y-74582030D01*
X140751849Y-74592520D01*
X140772893Y-74605133D01*
X140792598Y-74619747D01*
X140810777Y-74636223D01*
X140827253Y-74654402D01*
X140841867Y-74674107D01*
X140854480Y-74695151D01*
X140864970Y-74717329D01*
X140873235Y-74740429D01*
X140879196Y-74764227D01*
X140882796Y-74788496D01*
X140884000Y-74813000D01*
X140884000Y-76063000D01*
X140882796Y-76087504D01*
X140879196Y-76111773D01*
X140873235Y-76135571D01*
X140864970Y-76158671D01*
X140854480Y-76180849D01*
X140841867Y-76201893D01*
X140827253Y-76221598D01*
X140810777Y-76239777D01*
X140792598Y-76256253D01*
X140772893Y-76270867D01*
X140751849Y-76283480D01*
X140729671Y-76293970D01*
X140706571Y-76302235D01*
X140682773Y-76308196D01*
X140658504Y-76311796D01*
X140634000Y-76313000D01*
X139709000Y-76313000D01*
X139684496Y-76311796D01*
X139660227Y-76308196D01*
X139636429Y-76302235D01*
X139613329Y-76293970D01*
X139591151Y-76283480D01*
X139570107Y-76270867D01*
X139550402Y-76256253D01*
X139532223Y-76239777D01*
X139515747Y-76221598D01*
X139501133Y-76201893D01*
X139488520Y-76180849D01*
X139478030Y-76158671D01*
X139469765Y-76135571D01*
X139463804Y-76111773D01*
X139460204Y-76087504D01*
X139459000Y-76063000D01*
X139459000Y-74813000D01*
X139460204Y-74788496D01*
X139463804Y-74764227D01*
X139469765Y-74740429D01*
X139478030Y-74717329D01*
X139488520Y-74695151D01*
X139501133Y-74674107D01*
X139515747Y-74654402D01*
X139532223Y-74636223D01*
X139550402Y-74619747D01*
X139570107Y-74605133D01*
X139591151Y-74592520D01*
X139613329Y-74582030D01*
X139636429Y-74573765D01*
X139660227Y-74567804D01*
X139684496Y-74564204D01*
X139709000Y-74563000D01*
X140634000Y-74563000D01*
X140658504Y-74564204D01*
X140658504Y-74564204D01*
G37*
D16*
X140171500Y-75438000D03*
D11*
G36*
X151652504Y-107329204D02*
G01*
X151676773Y-107332804D01*
X151700571Y-107338765D01*
X151723671Y-107347030D01*
X151745849Y-107357520D01*
X151766893Y-107370133D01*
X151786598Y-107384747D01*
X151804777Y-107401223D01*
X151821253Y-107419402D01*
X151835867Y-107439107D01*
X151848480Y-107460151D01*
X151858970Y-107482329D01*
X151867235Y-107505429D01*
X151873196Y-107529227D01*
X151876796Y-107553496D01*
X151878000Y-107578000D01*
X151878000Y-108503000D01*
X151876796Y-108527504D01*
X151873196Y-108551773D01*
X151867235Y-108575571D01*
X151858970Y-108598671D01*
X151848480Y-108620849D01*
X151835867Y-108641893D01*
X151821253Y-108661598D01*
X151804777Y-108679777D01*
X151786598Y-108696253D01*
X151766893Y-108710867D01*
X151745849Y-108723480D01*
X151723671Y-108733970D01*
X151700571Y-108742235D01*
X151676773Y-108748196D01*
X151652504Y-108751796D01*
X151628000Y-108753000D01*
X150378000Y-108753000D01*
X150353496Y-108751796D01*
X150329227Y-108748196D01*
X150305429Y-108742235D01*
X150282329Y-108733970D01*
X150260151Y-108723480D01*
X150239107Y-108710867D01*
X150219402Y-108696253D01*
X150201223Y-108679777D01*
X150184747Y-108661598D01*
X150170133Y-108641893D01*
X150157520Y-108620849D01*
X150147030Y-108598671D01*
X150138765Y-108575571D01*
X150132804Y-108551773D01*
X150129204Y-108527504D01*
X150128000Y-108503000D01*
X150128000Y-107578000D01*
X150129204Y-107553496D01*
X150132804Y-107529227D01*
X150138765Y-107505429D01*
X150147030Y-107482329D01*
X150157520Y-107460151D01*
X150170133Y-107439107D01*
X150184747Y-107419402D01*
X150201223Y-107401223D01*
X150219402Y-107384747D01*
X150239107Y-107370133D01*
X150260151Y-107357520D01*
X150282329Y-107347030D01*
X150305429Y-107338765D01*
X150329227Y-107332804D01*
X150353496Y-107329204D01*
X150378000Y-107328000D01*
X151628000Y-107328000D01*
X151652504Y-107329204D01*
X151652504Y-107329204D01*
G37*
D16*
X151003000Y-108040500D03*
D11*
G36*
X151652504Y-104354204D02*
G01*
X151676773Y-104357804D01*
X151700571Y-104363765D01*
X151723671Y-104372030D01*
X151745849Y-104382520D01*
X151766893Y-104395133D01*
X151786598Y-104409747D01*
X151804777Y-104426223D01*
X151821253Y-104444402D01*
X151835867Y-104464107D01*
X151848480Y-104485151D01*
X151858970Y-104507329D01*
X151867235Y-104530429D01*
X151873196Y-104554227D01*
X151876796Y-104578496D01*
X151878000Y-104603000D01*
X151878000Y-105528000D01*
X151876796Y-105552504D01*
X151873196Y-105576773D01*
X151867235Y-105600571D01*
X151858970Y-105623671D01*
X151848480Y-105645849D01*
X151835867Y-105666893D01*
X151821253Y-105686598D01*
X151804777Y-105704777D01*
X151786598Y-105721253D01*
X151766893Y-105735867D01*
X151745849Y-105748480D01*
X151723671Y-105758970D01*
X151700571Y-105767235D01*
X151676773Y-105773196D01*
X151652504Y-105776796D01*
X151628000Y-105778000D01*
X150378000Y-105778000D01*
X150353496Y-105776796D01*
X150329227Y-105773196D01*
X150305429Y-105767235D01*
X150282329Y-105758970D01*
X150260151Y-105748480D01*
X150239107Y-105735867D01*
X150219402Y-105721253D01*
X150201223Y-105704777D01*
X150184747Y-105686598D01*
X150170133Y-105666893D01*
X150157520Y-105645849D01*
X150147030Y-105623671D01*
X150138765Y-105600571D01*
X150132804Y-105576773D01*
X150129204Y-105552504D01*
X150128000Y-105528000D01*
X150128000Y-104603000D01*
X150129204Y-104578496D01*
X150132804Y-104554227D01*
X150138765Y-104530429D01*
X150147030Y-104507329D01*
X150157520Y-104485151D01*
X150170133Y-104464107D01*
X150184747Y-104444402D01*
X150201223Y-104426223D01*
X150219402Y-104409747D01*
X150239107Y-104395133D01*
X150260151Y-104382520D01*
X150282329Y-104372030D01*
X150305429Y-104363765D01*
X150329227Y-104357804D01*
X150353496Y-104354204D01*
X150378000Y-104353000D01*
X151628000Y-104353000D01*
X151652504Y-104354204D01*
X151652504Y-104354204D01*
G37*
D16*
X151003000Y-105065500D03*
D11*
G36*
X123331504Y-106694204D02*
G01*
X123355773Y-106697804D01*
X123379571Y-106703765D01*
X123402671Y-106712030D01*
X123424849Y-106722520D01*
X123445893Y-106735133D01*
X123465598Y-106749747D01*
X123483777Y-106766223D01*
X123500253Y-106784402D01*
X123514867Y-106804107D01*
X123527480Y-106825151D01*
X123537970Y-106847329D01*
X123546235Y-106870429D01*
X123552196Y-106894227D01*
X123555796Y-106918496D01*
X123557000Y-106943000D01*
X123557000Y-107868000D01*
X123555796Y-107892504D01*
X123552196Y-107916773D01*
X123546235Y-107940571D01*
X123537970Y-107963671D01*
X123527480Y-107985849D01*
X123514867Y-108006893D01*
X123500253Y-108026598D01*
X123483777Y-108044777D01*
X123465598Y-108061253D01*
X123445893Y-108075867D01*
X123424849Y-108088480D01*
X123402671Y-108098970D01*
X123379571Y-108107235D01*
X123355773Y-108113196D01*
X123331504Y-108116796D01*
X123307000Y-108118000D01*
X122057000Y-108118000D01*
X122032496Y-108116796D01*
X122008227Y-108113196D01*
X121984429Y-108107235D01*
X121961329Y-108098970D01*
X121939151Y-108088480D01*
X121918107Y-108075867D01*
X121898402Y-108061253D01*
X121880223Y-108044777D01*
X121863747Y-108026598D01*
X121849133Y-108006893D01*
X121836520Y-107985849D01*
X121826030Y-107963671D01*
X121817765Y-107940571D01*
X121811804Y-107916773D01*
X121808204Y-107892504D01*
X121807000Y-107868000D01*
X121807000Y-106943000D01*
X121808204Y-106918496D01*
X121811804Y-106894227D01*
X121817765Y-106870429D01*
X121826030Y-106847329D01*
X121836520Y-106825151D01*
X121849133Y-106804107D01*
X121863747Y-106784402D01*
X121880223Y-106766223D01*
X121898402Y-106749747D01*
X121918107Y-106735133D01*
X121939151Y-106722520D01*
X121961329Y-106712030D01*
X121984429Y-106703765D01*
X122008227Y-106697804D01*
X122032496Y-106694204D01*
X122057000Y-106693000D01*
X123307000Y-106693000D01*
X123331504Y-106694204D01*
X123331504Y-106694204D01*
G37*
D16*
X122682000Y-107405500D03*
D11*
G36*
X123331504Y-103719204D02*
G01*
X123355773Y-103722804D01*
X123379571Y-103728765D01*
X123402671Y-103737030D01*
X123424849Y-103747520D01*
X123445893Y-103760133D01*
X123465598Y-103774747D01*
X123483777Y-103791223D01*
X123500253Y-103809402D01*
X123514867Y-103829107D01*
X123527480Y-103850151D01*
X123537970Y-103872329D01*
X123546235Y-103895429D01*
X123552196Y-103919227D01*
X123555796Y-103943496D01*
X123557000Y-103968000D01*
X123557000Y-104893000D01*
X123555796Y-104917504D01*
X123552196Y-104941773D01*
X123546235Y-104965571D01*
X123537970Y-104988671D01*
X123527480Y-105010849D01*
X123514867Y-105031893D01*
X123500253Y-105051598D01*
X123483777Y-105069777D01*
X123465598Y-105086253D01*
X123445893Y-105100867D01*
X123424849Y-105113480D01*
X123402671Y-105123970D01*
X123379571Y-105132235D01*
X123355773Y-105138196D01*
X123331504Y-105141796D01*
X123307000Y-105143000D01*
X122057000Y-105143000D01*
X122032496Y-105141796D01*
X122008227Y-105138196D01*
X121984429Y-105132235D01*
X121961329Y-105123970D01*
X121939151Y-105113480D01*
X121918107Y-105100867D01*
X121898402Y-105086253D01*
X121880223Y-105069777D01*
X121863747Y-105051598D01*
X121849133Y-105031893D01*
X121836520Y-105010849D01*
X121826030Y-104988671D01*
X121817765Y-104965571D01*
X121811804Y-104941773D01*
X121808204Y-104917504D01*
X121807000Y-104893000D01*
X121807000Y-103968000D01*
X121808204Y-103943496D01*
X121811804Y-103919227D01*
X121817765Y-103895429D01*
X121826030Y-103872329D01*
X121836520Y-103850151D01*
X121849133Y-103829107D01*
X121863747Y-103809402D01*
X121880223Y-103791223D01*
X121898402Y-103774747D01*
X121918107Y-103760133D01*
X121939151Y-103747520D01*
X121961329Y-103737030D01*
X121984429Y-103728765D01*
X122008227Y-103722804D01*
X122032496Y-103719204D01*
X122057000Y-103718000D01*
X123307000Y-103718000D01*
X123331504Y-103719204D01*
X123331504Y-103719204D01*
G37*
D16*
X122682000Y-104430500D03*
D17*
X121666000Y-101965000D03*
X120716000Y-99965000D03*
X122616000Y-99965000D03*
D11*
G36*
X117616504Y-87209204D02*
G01*
X117640773Y-87212804D01*
X117664571Y-87218765D01*
X117687671Y-87227030D01*
X117709849Y-87237520D01*
X117730893Y-87250133D01*
X117750598Y-87264747D01*
X117768777Y-87281223D01*
X117785253Y-87299402D01*
X117799867Y-87319107D01*
X117812480Y-87340151D01*
X117822970Y-87362329D01*
X117831235Y-87385429D01*
X117837196Y-87409227D01*
X117840796Y-87433496D01*
X117842000Y-87458000D01*
X117842000Y-88383000D01*
X117840796Y-88407504D01*
X117837196Y-88431773D01*
X117831235Y-88455571D01*
X117822970Y-88478671D01*
X117812480Y-88500849D01*
X117799867Y-88521893D01*
X117785253Y-88541598D01*
X117768777Y-88559777D01*
X117750598Y-88576253D01*
X117730893Y-88590867D01*
X117709849Y-88603480D01*
X117687671Y-88613970D01*
X117664571Y-88622235D01*
X117640773Y-88628196D01*
X117616504Y-88631796D01*
X117592000Y-88633000D01*
X116342000Y-88633000D01*
X116317496Y-88631796D01*
X116293227Y-88628196D01*
X116269429Y-88622235D01*
X116246329Y-88613970D01*
X116224151Y-88603480D01*
X116203107Y-88590867D01*
X116183402Y-88576253D01*
X116165223Y-88559777D01*
X116148747Y-88541598D01*
X116134133Y-88521893D01*
X116121520Y-88500849D01*
X116111030Y-88478671D01*
X116102765Y-88455571D01*
X116096804Y-88431773D01*
X116093204Y-88407504D01*
X116092000Y-88383000D01*
X116092000Y-87458000D01*
X116093204Y-87433496D01*
X116096804Y-87409227D01*
X116102765Y-87385429D01*
X116111030Y-87362329D01*
X116121520Y-87340151D01*
X116134133Y-87319107D01*
X116148747Y-87299402D01*
X116165223Y-87281223D01*
X116183402Y-87264747D01*
X116203107Y-87250133D01*
X116224151Y-87237520D01*
X116246329Y-87227030D01*
X116269429Y-87218765D01*
X116293227Y-87212804D01*
X116317496Y-87209204D01*
X116342000Y-87208000D01*
X117592000Y-87208000D01*
X117616504Y-87209204D01*
X117616504Y-87209204D01*
G37*
D16*
X116967000Y-87920500D03*
D11*
G36*
X117616504Y-90184204D02*
G01*
X117640773Y-90187804D01*
X117664571Y-90193765D01*
X117687671Y-90202030D01*
X117709849Y-90212520D01*
X117730893Y-90225133D01*
X117750598Y-90239747D01*
X117768777Y-90256223D01*
X117785253Y-90274402D01*
X117799867Y-90294107D01*
X117812480Y-90315151D01*
X117822970Y-90337329D01*
X117831235Y-90360429D01*
X117837196Y-90384227D01*
X117840796Y-90408496D01*
X117842000Y-90433000D01*
X117842000Y-91358000D01*
X117840796Y-91382504D01*
X117837196Y-91406773D01*
X117831235Y-91430571D01*
X117822970Y-91453671D01*
X117812480Y-91475849D01*
X117799867Y-91496893D01*
X117785253Y-91516598D01*
X117768777Y-91534777D01*
X117750598Y-91551253D01*
X117730893Y-91565867D01*
X117709849Y-91578480D01*
X117687671Y-91588970D01*
X117664571Y-91597235D01*
X117640773Y-91603196D01*
X117616504Y-91606796D01*
X117592000Y-91608000D01*
X116342000Y-91608000D01*
X116317496Y-91606796D01*
X116293227Y-91603196D01*
X116269429Y-91597235D01*
X116246329Y-91588970D01*
X116224151Y-91578480D01*
X116203107Y-91565867D01*
X116183402Y-91551253D01*
X116165223Y-91534777D01*
X116148747Y-91516598D01*
X116134133Y-91496893D01*
X116121520Y-91475849D01*
X116111030Y-91453671D01*
X116102765Y-91430571D01*
X116096804Y-91406773D01*
X116093204Y-91382504D01*
X116092000Y-91358000D01*
X116092000Y-90433000D01*
X116093204Y-90408496D01*
X116096804Y-90384227D01*
X116102765Y-90360429D01*
X116111030Y-90337329D01*
X116121520Y-90315151D01*
X116134133Y-90294107D01*
X116148747Y-90274402D01*
X116165223Y-90256223D01*
X116183402Y-90239747D01*
X116203107Y-90225133D01*
X116224151Y-90212520D01*
X116246329Y-90202030D01*
X116269429Y-90193765D01*
X116293227Y-90187804D01*
X116317496Y-90184204D01*
X116342000Y-90183000D01*
X117592000Y-90183000D01*
X117616504Y-90184204D01*
X117616504Y-90184204D01*
G37*
D16*
X116967000Y-90895500D03*
D11*
G36*
X114695504Y-72032704D02*
G01*
X114719773Y-72036304D01*
X114743571Y-72042265D01*
X114766671Y-72050530D01*
X114788849Y-72061020D01*
X114809893Y-72073633D01*
X114829598Y-72088247D01*
X114847777Y-72104723D01*
X114864253Y-72122902D01*
X114878867Y-72142607D01*
X114891480Y-72163651D01*
X114901970Y-72185829D01*
X114910235Y-72208929D01*
X114916196Y-72232727D01*
X114919796Y-72256996D01*
X114921000Y-72281500D01*
X114921000Y-73206500D01*
X114919796Y-73231004D01*
X114916196Y-73255273D01*
X114910235Y-73279071D01*
X114901970Y-73302171D01*
X114891480Y-73324349D01*
X114878867Y-73345393D01*
X114864253Y-73365098D01*
X114847777Y-73383277D01*
X114829598Y-73399753D01*
X114809893Y-73414367D01*
X114788849Y-73426980D01*
X114766671Y-73437470D01*
X114743571Y-73445735D01*
X114719773Y-73451696D01*
X114695504Y-73455296D01*
X114671000Y-73456500D01*
X113421000Y-73456500D01*
X113396496Y-73455296D01*
X113372227Y-73451696D01*
X113348429Y-73445735D01*
X113325329Y-73437470D01*
X113303151Y-73426980D01*
X113282107Y-73414367D01*
X113262402Y-73399753D01*
X113244223Y-73383277D01*
X113227747Y-73365098D01*
X113213133Y-73345393D01*
X113200520Y-73324349D01*
X113190030Y-73302171D01*
X113181765Y-73279071D01*
X113175804Y-73255273D01*
X113172204Y-73231004D01*
X113171000Y-73206500D01*
X113171000Y-72281500D01*
X113172204Y-72256996D01*
X113175804Y-72232727D01*
X113181765Y-72208929D01*
X113190030Y-72185829D01*
X113200520Y-72163651D01*
X113213133Y-72142607D01*
X113227747Y-72122902D01*
X113244223Y-72104723D01*
X113262402Y-72088247D01*
X113282107Y-72073633D01*
X113303151Y-72061020D01*
X113325329Y-72050530D01*
X113348429Y-72042265D01*
X113372227Y-72036304D01*
X113396496Y-72032704D01*
X113421000Y-72031500D01*
X114671000Y-72031500D01*
X114695504Y-72032704D01*
X114695504Y-72032704D01*
G37*
D16*
X114046000Y-72744000D03*
D11*
G36*
X114695504Y-75007704D02*
G01*
X114719773Y-75011304D01*
X114743571Y-75017265D01*
X114766671Y-75025530D01*
X114788849Y-75036020D01*
X114809893Y-75048633D01*
X114829598Y-75063247D01*
X114847777Y-75079723D01*
X114864253Y-75097902D01*
X114878867Y-75117607D01*
X114891480Y-75138651D01*
X114901970Y-75160829D01*
X114910235Y-75183929D01*
X114916196Y-75207727D01*
X114919796Y-75231996D01*
X114921000Y-75256500D01*
X114921000Y-76181500D01*
X114919796Y-76206004D01*
X114916196Y-76230273D01*
X114910235Y-76254071D01*
X114901970Y-76277171D01*
X114891480Y-76299349D01*
X114878867Y-76320393D01*
X114864253Y-76340098D01*
X114847777Y-76358277D01*
X114829598Y-76374753D01*
X114809893Y-76389367D01*
X114788849Y-76401980D01*
X114766671Y-76412470D01*
X114743571Y-76420735D01*
X114719773Y-76426696D01*
X114695504Y-76430296D01*
X114671000Y-76431500D01*
X113421000Y-76431500D01*
X113396496Y-76430296D01*
X113372227Y-76426696D01*
X113348429Y-76420735D01*
X113325329Y-76412470D01*
X113303151Y-76401980D01*
X113282107Y-76389367D01*
X113262402Y-76374753D01*
X113244223Y-76358277D01*
X113227747Y-76340098D01*
X113213133Y-76320393D01*
X113200520Y-76299349D01*
X113190030Y-76277171D01*
X113181765Y-76254071D01*
X113175804Y-76230273D01*
X113172204Y-76206004D01*
X113171000Y-76181500D01*
X113171000Y-75256500D01*
X113172204Y-75231996D01*
X113175804Y-75207727D01*
X113181765Y-75183929D01*
X113190030Y-75160829D01*
X113200520Y-75138651D01*
X113213133Y-75117607D01*
X113227747Y-75097902D01*
X113244223Y-75079723D01*
X113262402Y-75063247D01*
X113282107Y-75048633D01*
X113303151Y-75036020D01*
X113325329Y-75025530D01*
X113348429Y-75017265D01*
X113372227Y-75011304D01*
X113396496Y-75007704D01*
X113421000Y-75006500D01*
X114671000Y-75006500D01*
X114695504Y-75007704D01*
X114695504Y-75007704D01*
G37*
D16*
X114046000Y-75719000D03*
D11*
G36*
X137683504Y-83962204D02*
G01*
X137707773Y-83965804D01*
X137731571Y-83971765D01*
X137754671Y-83980030D01*
X137776849Y-83990520D01*
X137797893Y-84003133D01*
X137817598Y-84017747D01*
X137835777Y-84034223D01*
X137852253Y-84052402D01*
X137866867Y-84072107D01*
X137879480Y-84093151D01*
X137889970Y-84115329D01*
X137898235Y-84138429D01*
X137904196Y-84162227D01*
X137907796Y-84186496D01*
X137909000Y-84211000D01*
X137909000Y-85461000D01*
X137907796Y-85485504D01*
X137904196Y-85509773D01*
X137898235Y-85533571D01*
X137889970Y-85556671D01*
X137879480Y-85578849D01*
X137866867Y-85599893D01*
X137852253Y-85619598D01*
X137835777Y-85637777D01*
X137817598Y-85654253D01*
X137797893Y-85668867D01*
X137776849Y-85681480D01*
X137754671Y-85691970D01*
X137731571Y-85700235D01*
X137707773Y-85706196D01*
X137683504Y-85709796D01*
X137659000Y-85711000D01*
X136734000Y-85711000D01*
X136709496Y-85709796D01*
X136685227Y-85706196D01*
X136661429Y-85700235D01*
X136638329Y-85691970D01*
X136616151Y-85681480D01*
X136595107Y-85668867D01*
X136575402Y-85654253D01*
X136557223Y-85637777D01*
X136540747Y-85619598D01*
X136526133Y-85599893D01*
X136513520Y-85578849D01*
X136503030Y-85556671D01*
X136494765Y-85533571D01*
X136488804Y-85509773D01*
X136485204Y-85485504D01*
X136484000Y-85461000D01*
X136484000Y-84211000D01*
X136485204Y-84186496D01*
X136488804Y-84162227D01*
X136494765Y-84138429D01*
X136503030Y-84115329D01*
X136513520Y-84093151D01*
X136526133Y-84072107D01*
X136540747Y-84052402D01*
X136557223Y-84034223D01*
X136575402Y-84017747D01*
X136595107Y-84003133D01*
X136616151Y-83990520D01*
X136638329Y-83980030D01*
X136661429Y-83971765D01*
X136685227Y-83965804D01*
X136709496Y-83962204D01*
X136734000Y-83961000D01*
X137659000Y-83961000D01*
X137683504Y-83962204D01*
X137683504Y-83962204D01*
G37*
D16*
X137196500Y-84836000D03*
D11*
G36*
X140658504Y-83962204D02*
G01*
X140682773Y-83965804D01*
X140706571Y-83971765D01*
X140729671Y-83980030D01*
X140751849Y-83990520D01*
X140772893Y-84003133D01*
X140792598Y-84017747D01*
X140810777Y-84034223D01*
X140827253Y-84052402D01*
X140841867Y-84072107D01*
X140854480Y-84093151D01*
X140864970Y-84115329D01*
X140873235Y-84138429D01*
X140879196Y-84162227D01*
X140882796Y-84186496D01*
X140884000Y-84211000D01*
X140884000Y-85461000D01*
X140882796Y-85485504D01*
X140879196Y-85509773D01*
X140873235Y-85533571D01*
X140864970Y-85556671D01*
X140854480Y-85578849D01*
X140841867Y-85599893D01*
X140827253Y-85619598D01*
X140810777Y-85637777D01*
X140792598Y-85654253D01*
X140772893Y-85668867D01*
X140751849Y-85681480D01*
X140729671Y-85691970D01*
X140706571Y-85700235D01*
X140682773Y-85706196D01*
X140658504Y-85709796D01*
X140634000Y-85711000D01*
X139709000Y-85711000D01*
X139684496Y-85709796D01*
X139660227Y-85706196D01*
X139636429Y-85700235D01*
X139613329Y-85691970D01*
X139591151Y-85681480D01*
X139570107Y-85668867D01*
X139550402Y-85654253D01*
X139532223Y-85637777D01*
X139515747Y-85619598D01*
X139501133Y-85599893D01*
X139488520Y-85578849D01*
X139478030Y-85556671D01*
X139469765Y-85533571D01*
X139463804Y-85509773D01*
X139460204Y-85485504D01*
X139459000Y-85461000D01*
X139459000Y-84211000D01*
X139460204Y-84186496D01*
X139463804Y-84162227D01*
X139469765Y-84138429D01*
X139478030Y-84115329D01*
X139488520Y-84093151D01*
X139501133Y-84072107D01*
X139515747Y-84052402D01*
X139532223Y-84034223D01*
X139550402Y-84017747D01*
X139570107Y-84003133D01*
X139591151Y-83990520D01*
X139613329Y-83980030D01*
X139636429Y-83971765D01*
X139660227Y-83965804D01*
X139684496Y-83962204D01*
X139709000Y-83961000D01*
X140634000Y-83961000D01*
X140658504Y-83962204D01*
X140658504Y-83962204D01*
G37*
D16*
X140171500Y-84836000D03*
D18*
X130382000Y-80076000D03*
X130382000Y-81976000D03*
X127682000Y-81976000D03*
X127682000Y-81026000D03*
X127682000Y-80076000D03*
D11*
G36*
X118052504Y-94122204D02*
G01*
X118076773Y-94125804D01*
X118100571Y-94131765D01*
X118123671Y-94140030D01*
X118145849Y-94150520D01*
X118166893Y-94163133D01*
X118186598Y-94177747D01*
X118204777Y-94194223D01*
X118221253Y-94212402D01*
X118235867Y-94232107D01*
X118248480Y-94253151D01*
X118258970Y-94275329D01*
X118267235Y-94298429D01*
X118273196Y-94322227D01*
X118276796Y-94346496D01*
X118278000Y-94371000D01*
X118278000Y-95621000D01*
X118276796Y-95645504D01*
X118273196Y-95669773D01*
X118267235Y-95693571D01*
X118258970Y-95716671D01*
X118248480Y-95738849D01*
X118235867Y-95759893D01*
X118221253Y-95779598D01*
X118204777Y-95797777D01*
X118186598Y-95814253D01*
X118166893Y-95828867D01*
X118145849Y-95841480D01*
X118123671Y-95851970D01*
X118100571Y-95860235D01*
X118076773Y-95866196D01*
X118052504Y-95869796D01*
X118028000Y-95871000D01*
X117103000Y-95871000D01*
X117078496Y-95869796D01*
X117054227Y-95866196D01*
X117030429Y-95860235D01*
X117007329Y-95851970D01*
X116985151Y-95841480D01*
X116964107Y-95828867D01*
X116944402Y-95814253D01*
X116926223Y-95797777D01*
X116909747Y-95779598D01*
X116895133Y-95759893D01*
X116882520Y-95738849D01*
X116872030Y-95716671D01*
X116863765Y-95693571D01*
X116857804Y-95669773D01*
X116854204Y-95645504D01*
X116853000Y-95621000D01*
X116853000Y-94371000D01*
X116854204Y-94346496D01*
X116857804Y-94322227D01*
X116863765Y-94298429D01*
X116872030Y-94275329D01*
X116882520Y-94253151D01*
X116895133Y-94232107D01*
X116909747Y-94212402D01*
X116926223Y-94194223D01*
X116944402Y-94177747D01*
X116964107Y-94163133D01*
X116985151Y-94150520D01*
X117007329Y-94140030D01*
X117030429Y-94131765D01*
X117054227Y-94125804D01*
X117078496Y-94122204D01*
X117103000Y-94121000D01*
X118028000Y-94121000D01*
X118052504Y-94122204D01*
X118052504Y-94122204D01*
G37*
D16*
X117565500Y-94996000D03*
D11*
G36*
X115077504Y-94122204D02*
G01*
X115101773Y-94125804D01*
X115125571Y-94131765D01*
X115148671Y-94140030D01*
X115170849Y-94150520D01*
X115191893Y-94163133D01*
X115211598Y-94177747D01*
X115229777Y-94194223D01*
X115246253Y-94212402D01*
X115260867Y-94232107D01*
X115273480Y-94253151D01*
X115283970Y-94275329D01*
X115292235Y-94298429D01*
X115298196Y-94322227D01*
X115301796Y-94346496D01*
X115303000Y-94371000D01*
X115303000Y-95621000D01*
X115301796Y-95645504D01*
X115298196Y-95669773D01*
X115292235Y-95693571D01*
X115283970Y-95716671D01*
X115273480Y-95738849D01*
X115260867Y-95759893D01*
X115246253Y-95779598D01*
X115229777Y-95797777D01*
X115211598Y-95814253D01*
X115191893Y-95828867D01*
X115170849Y-95841480D01*
X115148671Y-95851970D01*
X115125571Y-95860235D01*
X115101773Y-95866196D01*
X115077504Y-95869796D01*
X115053000Y-95871000D01*
X114128000Y-95871000D01*
X114103496Y-95869796D01*
X114079227Y-95866196D01*
X114055429Y-95860235D01*
X114032329Y-95851970D01*
X114010151Y-95841480D01*
X113989107Y-95828867D01*
X113969402Y-95814253D01*
X113951223Y-95797777D01*
X113934747Y-95779598D01*
X113920133Y-95759893D01*
X113907520Y-95738849D01*
X113897030Y-95716671D01*
X113888765Y-95693571D01*
X113882804Y-95669773D01*
X113879204Y-95645504D01*
X113878000Y-95621000D01*
X113878000Y-94371000D01*
X113879204Y-94346496D01*
X113882804Y-94322227D01*
X113888765Y-94298429D01*
X113897030Y-94275329D01*
X113907520Y-94253151D01*
X113920133Y-94232107D01*
X113934747Y-94212402D01*
X113951223Y-94194223D01*
X113969402Y-94177747D01*
X113989107Y-94163133D01*
X114010151Y-94150520D01*
X114032329Y-94140030D01*
X114055429Y-94131765D01*
X114079227Y-94125804D01*
X114103496Y-94122204D01*
X114128000Y-94121000D01*
X115053000Y-94121000D01*
X115077504Y-94122204D01*
X115077504Y-94122204D01*
G37*
D16*
X114590500Y-94996000D03*
D11*
G36*
X146881504Y-83962204D02*
G01*
X146905773Y-83965804D01*
X146929571Y-83971765D01*
X146952671Y-83980030D01*
X146974849Y-83990520D01*
X146995893Y-84003133D01*
X147015598Y-84017747D01*
X147033777Y-84034223D01*
X147050253Y-84052402D01*
X147064867Y-84072107D01*
X147077480Y-84093151D01*
X147087970Y-84115329D01*
X147096235Y-84138429D01*
X147102196Y-84162227D01*
X147105796Y-84186496D01*
X147107000Y-84211000D01*
X147107000Y-85461000D01*
X147105796Y-85485504D01*
X147102196Y-85509773D01*
X147096235Y-85533571D01*
X147087970Y-85556671D01*
X147077480Y-85578849D01*
X147064867Y-85599893D01*
X147050253Y-85619598D01*
X147033777Y-85637777D01*
X147015598Y-85654253D01*
X146995893Y-85668867D01*
X146974849Y-85681480D01*
X146952671Y-85691970D01*
X146929571Y-85700235D01*
X146905773Y-85706196D01*
X146881504Y-85709796D01*
X146857000Y-85711000D01*
X145932000Y-85711000D01*
X145907496Y-85709796D01*
X145883227Y-85706196D01*
X145859429Y-85700235D01*
X145836329Y-85691970D01*
X145814151Y-85681480D01*
X145793107Y-85668867D01*
X145773402Y-85654253D01*
X145755223Y-85637777D01*
X145738747Y-85619598D01*
X145724133Y-85599893D01*
X145711520Y-85578849D01*
X145701030Y-85556671D01*
X145692765Y-85533571D01*
X145686804Y-85509773D01*
X145683204Y-85485504D01*
X145682000Y-85461000D01*
X145682000Y-84211000D01*
X145683204Y-84186496D01*
X145686804Y-84162227D01*
X145692765Y-84138429D01*
X145701030Y-84115329D01*
X145711520Y-84093151D01*
X145724133Y-84072107D01*
X145738747Y-84052402D01*
X145755223Y-84034223D01*
X145773402Y-84017747D01*
X145793107Y-84003133D01*
X145814151Y-83990520D01*
X145836329Y-83980030D01*
X145859429Y-83971765D01*
X145883227Y-83965804D01*
X145907496Y-83962204D01*
X145932000Y-83961000D01*
X146857000Y-83961000D01*
X146881504Y-83962204D01*
X146881504Y-83962204D01*
G37*
D16*
X146394500Y-84836000D03*
D11*
G36*
X143906504Y-83962204D02*
G01*
X143930773Y-83965804D01*
X143954571Y-83971765D01*
X143977671Y-83980030D01*
X143999849Y-83990520D01*
X144020893Y-84003133D01*
X144040598Y-84017747D01*
X144058777Y-84034223D01*
X144075253Y-84052402D01*
X144089867Y-84072107D01*
X144102480Y-84093151D01*
X144112970Y-84115329D01*
X144121235Y-84138429D01*
X144127196Y-84162227D01*
X144130796Y-84186496D01*
X144132000Y-84211000D01*
X144132000Y-85461000D01*
X144130796Y-85485504D01*
X144127196Y-85509773D01*
X144121235Y-85533571D01*
X144112970Y-85556671D01*
X144102480Y-85578849D01*
X144089867Y-85599893D01*
X144075253Y-85619598D01*
X144058777Y-85637777D01*
X144040598Y-85654253D01*
X144020893Y-85668867D01*
X143999849Y-85681480D01*
X143977671Y-85691970D01*
X143954571Y-85700235D01*
X143930773Y-85706196D01*
X143906504Y-85709796D01*
X143882000Y-85711000D01*
X142957000Y-85711000D01*
X142932496Y-85709796D01*
X142908227Y-85706196D01*
X142884429Y-85700235D01*
X142861329Y-85691970D01*
X142839151Y-85681480D01*
X142818107Y-85668867D01*
X142798402Y-85654253D01*
X142780223Y-85637777D01*
X142763747Y-85619598D01*
X142749133Y-85599893D01*
X142736520Y-85578849D01*
X142726030Y-85556671D01*
X142717765Y-85533571D01*
X142711804Y-85509773D01*
X142708204Y-85485504D01*
X142707000Y-85461000D01*
X142707000Y-84211000D01*
X142708204Y-84186496D01*
X142711804Y-84162227D01*
X142717765Y-84138429D01*
X142726030Y-84115329D01*
X142736520Y-84093151D01*
X142749133Y-84072107D01*
X142763747Y-84052402D01*
X142780223Y-84034223D01*
X142798402Y-84017747D01*
X142818107Y-84003133D01*
X142839151Y-83990520D01*
X142861329Y-83980030D01*
X142884429Y-83971765D01*
X142908227Y-83965804D01*
X142932496Y-83962204D01*
X142957000Y-83961000D01*
X143882000Y-83961000D01*
X143906504Y-83962204D01*
X143906504Y-83962204D01*
G37*
D16*
X143419500Y-84836000D03*
D19*
X106040000Y-83088000D03*
X106040000Y-80488000D03*
D11*
G36*
X126887504Y-106730204D02*
G01*
X126911773Y-106733804D01*
X126935571Y-106739765D01*
X126958671Y-106748030D01*
X126980849Y-106758520D01*
X127001893Y-106771133D01*
X127021598Y-106785747D01*
X127039777Y-106802223D01*
X127056253Y-106820402D01*
X127070867Y-106840107D01*
X127083480Y-106861151D01*
X127093970Y-106883329D01*
X127102235Y-106906429D01*
X127108196Y-106930227D01*
X127111796Y-106954496D01*
X127113000Y-106979000D01*
X127113000Y-107904000D01*
X127111796Y-107928504D01*
X127108196Y-107952773D01*
X127102235Y-107976571D01*
X127093970Y-107999671D01*
X127083480Y-108021849D01*
X127070867Y-108042893D01*
X127056253Y-108062598D01*
X127039777Y-108080777D01*
X127021598Y-108097253D01*
X127001893Y-108111867D01*
X126980849Y-108124480D01*
X126958671Y-108134970D01*
X126935571Y-108143235D01*
X126911773Y-108149196D01*
X126887504Y-108152796D01*
X126863000Y-108154000D01*
X125613000Y-108154000D01*
X125588496Y-108152796D01*
X125564227Y-108149196D01*
X125540429Y-108143235D01*
X125517329Y-108134970D01*
X125495151Y-108124480D01*
X125474107Y-108111867D01*
X125454402Y-108097253D01*
X125436223Y-108080777D01*
X125419747Y-108062598D01*
X125405133Y-108042893D01*
X125392520Y-108021849D01*
X125382030Y-107999671D01*
X125373765Y-107976571D01*
X125367804Y-107952773D01*
X125364204Y-107928504D01*
X125363000Y-107904000D01*
X125363000Y-106979000D01*
X125364204Y-106954496D01*
X125367804Y-106930227D01*
X125373765Y-106906429D01*
X125382030Y-106883329D01*
X125392520Y-106861151D01*
X125405133Y-106840107D01*
X125419747Y-106820402D01*
X125436223Y-106802223D01*
X125454402Y-106785747D01*
X125474107Y-106771133D01*
X125495151Y-106758520D01*
X125517329Y-106748030D01*
X125540429Y-106739765D01*
X125564227Y-106733804D01*
X125588496Y-106730204D01*
X125613000Y-106729000D01*
X126863000Y-106729000D01*
X126887504Y-106730204D01*
X126887504Y-106730204D01*
G37*
D16*
X126238000Y-107441500D03*
D11*
G36*
X126887504Y-103755204D02*
G01*
X126911773Y-103758804D01*
X126935571Y-103764765D01*
X126958671Y-103773030D01*
X126980849Y-103783520D01*
X127001893Y-103796133D01*
X127021598Y-103810747D01*
X127039777Y-103827223D01*
X127056253Y-103845402D01*
X127070867Y-103865107D01*
X127083480Y-103886151D01*
X127093970Y-103908329D01*
X127102235Y-103931429D01*
X127108196Y-103955227D01*
X127111796Y-103979496D01*
X127113000Y-104004000D01*
X127113000Y-104929000D01*
X127111796Y-104953504D01*
X127108196Y-104977773D01*
X127102235Y-105001571D01*
X127093970Y-105024671D01*
X127083480Y-105046849D01*
X127070867Y-105067893D01*
X127056253Y-105087598D01*
X127039777Y-105105777D01*
X127021598Y-105122253D01*
X127001893Y-105136867D01*
X126980849Y-105149480D01*
X126958671Y-105159970D01*
X126935571Y-105168235D01*
X126911773Y-105174196D01*
X126887504Y-105177796D01*
X126863000Y-105179000D01*
X125613000Y-105179000D01*
X125588496Y-105177796D01*
X125564227Y-105174196D01*
X125540429Y-105168235D01*
X125517329Y-105159970D01*
X125495151Y-105149480D01*
X125474107Y-105136867D01*
X125454402Y-105122253D01*
X125436223Y-105105777D01*
X125419747Y-105087598D01*
X125405133Y-105067893D01*
X125392520Y-105046849D01*
X125382030Y-105024671D01*
X125373765Y-105001571D01*
X125367804Y-104977773D01*
X125364204Y-104953504D01*
X125363000Y-104929000D01*
X125363000Y-104004000D01*
X125364204Y-103979496D01*
X125367804Y-103955227D01*
X125373765Y-103931429D01*
X125382030Y-103908329D01*
X125392520Y-103886151D01*
X125405133Y-103865107D01*
X125419747Y-103845402D01*
X125436223Y-103827223D01*
X125454402Y-103810747D01*
X125474107Y-103796133D01*
X125495151Y-103783520D01*
X125517329Y-103773030D01*
X125540429Y-103764765D01*
X125564227Y-103758804D01*
X125588496Y-103755204D01*
X125613000Y-103754000D01*
X126863000Y-103754000D01*
X126887504Y-103755204D01*
X126887504Y-103755204D01*
G37*
D16*
X126238000Y-104466500D03*
D11*
G36*
X140858504Y-80279204D02*
G01*
X140882773Y-80282804D01*
X140906571Y-80288765D01*
X140929671Y-80297030D01*
X140951849Y-80307520D01*
X140972893Y-80320133D01*
X140992598Y-80334747D01*
X141010777Y-80351223D01*
X141027253Y-80369402D01*
X141041867Y-80389107D01*
X141054480Y-80410151D01*
X141064970Y-80432329D01*
X141073235Y-80455429D01*
X141079196Y-80479227D01*
X141082796Y-80503496D01*
X141084000Y-80528000D01*
X141084000Y-81778000D01*
X141082796Y-81802504D01*
X141079196Y-81826773D01*
X141073235Y-81850571D01*
X141064970Y-81873671D01*
X141054480Y-81895849D01*
X141041867Y-81916893D01*
X141027253Y-81936598D01*
X141010777Y-81954777D01*
X140992598Y-81971253D01*
X140972893Y-81985867D01*
X140951849Y-81998480D01*
X140929671Y-82008970D01*
X140906571Y-82017235D01*
X140882773Y-82023196D01*
X140858504Y-82026796D01*
X140834000Y-82028000D01*
X139909000Y-82028000D01*
X139884496Y-82026796D01*
X139860227Y-82023196D01*
X139836429Y-82017235D01*
X139813329Y-82008970D01*
X139791151Y-81998480D01*
X139770107Y-81985867D01*
X139750402Y-81971253D01*
X139732223Y-81954777D01*
X139715747Y-81936598D01*
X139701133Y-81916893D01*
X139688520Y-81895849D01*
X139678030Y-81873671D01*
X139669765Y-81850571D01*
X139663804Y-81826773D01*
X139660204Y-81802504D01*
X139659000Y-81778000D01*
X139659000Y-80528000D01*
X139660204Y-80503496D01*
X139663804Y-80479227D01*
X139669765Y-80455429D01*
X139678030Y-80432329D01*
X139688520Y-80410151D01*
X139701133Y-80389107D01*
X139715747Y-80369402D01*
X139732223Y-80351223D01*
X139750402Y-80334747D01*
X139770107Y-80320133D01*
X139791151Y-80307520D01*
X139813329Y-80297030D01*
X139836429Y-80288765D01*
X139860227Y-80282804D01*
X139884496Y-80279204D01*
X139909000Y-80278000D01*
X140834000Y-80278000D01*
X140858504Y-80279204D01*
X140858504Y-80279204D01*
G37*
D16*
X140371500Y-81153000D03*
D11*
G36*
X143833504Y-80279204D02*
G01*
X143857773Y-80282804D01*
X143881571Y-80288765D01*
X143904671Y-80297030D01*
X143926849Y-80307520D01*
X143947893Y-80320133D01*
X143967598Y-80334747D01*
X143985777Y-80351223D01*
X144002253Y-80369402D01*
X144016867Y-80389107D01*
X144029480Y-80410151D01*
X144039970Y-80432329D01*
X144048235Y-80455429D01*
X144054196Y-80479227D01*
X144057796Y-80503496D01*
X144059000Y-80528000D01*
X144059000Y-81778000D01*
X144057796Y-81802504D01*
X144054196Y-81826773D01*
X144048235Y-81850571D01*
X144039970Y-81873671D01*
X144029480Y-81895849D01*
X144016867Y-81916893D01*
X144002253Y-81936598D01*
X143985777Y-81954777D01*
X143967598Y-81971253D01*
X143947893Y-81985867D01*
X143926849Y-81998480D01*
X143904671Y-82008970D01*
X143881571Y-82017235D01*
X143857773Y-82023196D01*
X143833504Y-82026796D01*
X143809000Y-82028000D01*
X142884000Y-82028000D01*
X142859496Y-82026796D01*
X142835227Y-82023196D01*
X142811429Y-82017235D01*
X142788329Y-82008970D01*
X142766151Y-81998480D01*
X142745107Y-81985867D01*
X142725402Y-81971253D01*
X142707223Y-81954777D01*
X142690747Y-81936598D01*
X142676133Y-81916893D01*
X142663520Y-81895849D01*
X142653030Y-81873671D01*
X142644765Y-81850571D01*
X142638804Y-81826773D01*
X142635204Y-81802504D01*
X142634000Y-81778000D01*
X142634000Y-80528000D01*
X142635204Y-80503496D01*
X142638804Y-80479227D01*
X142644765Y-80455429D01*
X142653030Y-80432329D01*
X142663520Y-80410151D01*
X142676133Y-80389107D01*
X142690747Y-80369402D01*
X142707223Y-80351223D01*
X142725402Y-80334747D01*
X142745107Y-80320133D01*
X142766151Y-80307520D01*
X142788329Y-80297030D01*
X142811429Y-80288765D01*
X142835227Y-80282804D01*
X142859496Y-80279204D01*
X142884000Y-80278000D01*
X143809000Y-80278000D01*
X143833504Y-80279204D01*
X143833504Y-80279204D01*
G37*
D16*
X143346500Y-81153000D03*
D11*
G36*
X153612504Y-77866204D02*
G01*
X153636773Y-77869804D01*
X153660571Y-77875765D01*
X153683671Y-77884030D01*
X153705849Y-77894520D01*
X153726893Y-77907133D01*
X153746598Y-77921747D01*
X153764777Y-77938223D01*
X153781253Y-77956402D01*
X153795867Y-77976107D01*
X153808480Y-77997151D01*
X153818970Y-78019329D01*
X153827235Y-78042429D01*
X153833196Y-78066227D01*
X153836796Y-78090496D01*
X153838000Y-78115000D01*
X153838000Y-79365000D01*
X153836796Y-79389504D01*
X153833196Y-79413773D01*
X153827235Y-79437571D01*
X153818970Y-79460671D01*
X153808480Y-79482849D01*
X153795867Y-79503893D01*
X153781253Y-79523598D01*
X153764777Y-79541777D01*
X153746598Y-79558253D01*
X153726893Y-79572867D01*
X153705849Y-79585480D01*
X153683671Y-79595970D01*
X153660571Y-79604235D01*
X153636773Y-79610196D01*
X153612504Y-79613796D01*
X153588000Y-79615000D01*
X152663000Y-79615000D01*
X152638496Y-79613796D01*
X152614227Y-79610196D01*
X152590429Y-79604235D01*
X152567329Y-79595970D01*
X152545151Y-79585480D01*
X152524107Y-79572867D01*
X152504402Y-79558253D01*
X152486223Y-79541777D01*
X152469747Y-79523598D01*
X152455133Y-79503893D01*
X152442520Y-79482849D01*
X152432030Y-79460671D01*
X152423765Y-79437571D01*
X152417804Y-79413773D01*
X152414204Y-79389504D01*
X152413000Y-79365000D01*
X152413000Y-78115000D01*
X152414204Y-78090496D01*
X152417804Y-78066227D01*
X152423765Y-78042429D01*
X152432030Y-78019329D01*
X152442520Y-77997151D01*
X152455133Y-77976107D01*
X152469747Y-77956402D01*
X152486223Y-77938223D01*
X152504402Y-77921747D01*
X152524107Y-77907133D01*
X152545151Y-77894520D01*
X152567329Y-77884030D01*
X152590429Y-77875765D01*
X152614227Y-77869804D01*
X152638496Y-77866204D01*
X152663000Y-77865000D01*
X153588000Y-77865000D01*
X153612504Y-77866204D01*
X153612504Y-77866204D01*
G37*
D16*
X153125500Y-78740000D03*
D11*
G36*
X150637504Y-77866204D02*
G01*
X150661773Y-77869804D01*
X150685571Y-77875765D01*
X150708671Y-77884030D01*
X150730849Y-77894520D01*
X150751893Y-77907133D01*
X150771598Y-77921747D01*
X150789777Y-77938223D01*
X150806253Y-77956402D01*
X150820867Y-77976107D01*
X150833480Y-77997151D01*
X150843970Y-78019329D01*
X150852235Y-78042429D01*
X150858196Y-78066227D01*
X150861796Y-78090496D01*
X150863000Y-78115000D01*
X150863000Y-79365000D01*
X150861796Y-79389504D01*
X150858196Y-79413773D01*
X150852235Y-79437571D01*
X150843970Y-79460671D01*
X150833480Y-79482849D01*
X150820867Y-79503893D01*
X150806253Y-79523598D01*
X150789777Y-79541777D01*
X150771598Y-79558253D01*
X150751893Y-79572867D01*
X150730849Y-79585480D01*
X150708671Y-79595970D01*
X150685571Y-79604235D01*
X150661773Y-79610196D01*
X150637504Y-79613796D01*
X150613000Y-79615000D01*
X149688000Y-79615000D01*
X149663496Y-79613796D01*
X149639227Y-79610196D01*
X149615429Y-79604235D01*
X149592329Y-79595970D01*
X149570151Y-79585480D01*
X149549107Y-79572867D01*
X149529402Y-79558253D01*
X149511223Y-79541777D01*
X149494747Y-79523598D01*
X149480133Y-79503893D01*
X149467520Y-79482849D01*
X149457030Y-79460671D01*
X149448765Y-79437571D01*
X149442804Y-79413773D01*
X149439204Y-79389504D01*
X149438000Y-79365000D01*
X149438000Y-78115000D01*
X149439204Y-78090496D01*
X149442804Y-78066227D01*
X149448765Y-78042429D01*
X149457030Y-78019329D01*
X149467520Y-77997151D01*
X149480133Y-77976107D01*
X149494747Y-77956402D01*
X149511223Y-77938223D01*
X149529402Y-77921747D01*
X149549107Y-77907133D01*
X149570151Y-77894520D01*
X149592329Y-77884030D01*
X149615429Y-77875765D01*
X149639227Y-77869804D01*
X149663496Y-77866204D01*
X149688000Y-77865000D01*
X150613000Y-77865000D01*
X150637504Y-77866204D01*
X150637504Y-77866204D01*
G37*
D16*
X150150500Y-78740000D03*
D11*
G36*
X123640504Y-94122204D02*
G01*
X123664773Y-94125804D01*
X123688571Y-94131765D01*
X123711671Y-94140030D01*
X123733849Y-94150520D01*
X123754893Y-94163133D01*
X123774598Y-94177747D01*
X123792777Y-94194223D01*
X123809253Y-94212402D01*
X123823867Y-94232107D01*
X123836480Y-94253151D01*
X123846970Y-94275329D01*
X123855235Y-94298429D01*
X123861196Y-94322227D01*
X123864796Y-94346496D01*
X123866000Y-94371000D01*
X123866000Y-95621000D01*
X123864796Y-95645504D01*
X123861196Y-95669773D01*
X123855235Y-95693571D01*
X123846970Y-95716671D01*
X123836480Y-95738849D01*
X123823867Y-95759893D01*
X123809253Y-95779598D01*
X123792777Y-95797777D01*
X123774598Y-95814253D01*
X123754893Y-95828867D01*
X123733849Y-95841480D01*
X123711671Y-95851970D01*
X123688571Y-95860235D01*
X123664773Y-95866196D01*
X123640504Y-95869796D01*
X123616000Y-95871000D01*
X122691000Y-95871000D01*
X122666496Y-95869796D01*
X122642227Y-95866196D01*
X122618429Y-95860235D01*
X122595329Y-95851970D01*
X122573151Y-95841480D01*
X122552107Y-95828867D01*
X122532402Y-95814253D01*
X122514223Y-95797777D01*
X122497747Y-95779598D01*
X122483133Y-95759893D01*
X122470520Y-95738849D01*
X122460030Y-95716671D01*
X122451765Y-95693571D01*
X122445804Y-95669773D01*
X122442204Y-95645504D01*
X122441000Y-95621000D01*
X122441000Y-94371000D01*
X122442204Y-94346496D01*
X122445804Y-94322227D01*
X122451765Y-94298429D01*
X122460030Y-94275329D01*
X122470520Y-94253151D01*
X122483133Y-94232107D01*
X122497747Y-94212402D01*
X122514223Y-94194223D01*
X122532402Y-94177747D01*
X122552107Y-94163133D01*
X122573151Y-94150520D01*
X122595329Y-94140030D01*
X122618429Y-94131765D01*
X122642227Y-94125804D01*
X122666496Y-94122204D01*
X122691000Y-94121000D01*
X123616000Y-94121000D01*
X123640504Y-94122204D01*
X123640504Y-94122204D01*
G37*
D16*
X123153500Y-94996000D03*
D11*
G36*
X120665504Y-94122204D02*
G01*
X120689773Y-94125804D01*
X120713571Y-94131765D01*
X120736671Y-94140030D01*
X120758849Y-94150520D01*
X120779893Y-94163133D01*
X120799598Y-94177747D01*
X120817777Y-94194223D01*
X120834253Y-94212402D01*
X120848867Y-94232107D01*
X120861480Y-94253151D01*
X120871970Y-94275329D01*
X120880235Y-94298429D01*
X120886196Y-94322227D01*
X120889796Y-94346496D01*
X120891000Y-94371000D01*
X120891000Y-95621000D01*
X120889796Y-95645504D01*
X120886196Y-95669773D01*
X120880235Y-95693571D01*
X120871970Y-95716671D01*
X120861480Y-95738849D01*
X120848867Y-95759893D01*
X120834253Y-95779598D01*
X120817777Y-95797777D01*
X120799598Y-95814253D01*
X120779893Y-95828867D01*
X120758849Y-95841480D01*
X120736671Y-95851970D01*
X120713571Y-95860235D01*
X120689773Y-95866196D01*
X120665504Y-95869796D01*
X120641000Y-95871000D01*
X119716000Y-95871000D01*
X119691496Y-95869796D01*
X119667227Y-95866196D01*
X119643429Y-95860235D01*
X119620329Y-95851970D01*
X119598151Y-95841480D01*
X119577107Y-95828867D01*
X119557402Y-95814253D01*
X119539223Y-95797777D01*
X119522747Y-95779598D01*
X119508133Y-95759893D01*
X119495520Y-95738849D01*
X119485030Y-95716671D01*
X119476765Y-95693571D01*
X119470804Y-95669773D01*
X119467204Y-95645504D01*
X119466000Y-95621000D01*
X119466000Y-94371000D01*
X119467204Y-94346496D01*
X119470804Y-94322227D01*
X119476765Y-94298429D01*
X119485030Y-94275329D01*
X119495520Y-94253151D01*
X119508133Y-94232107D01*
X119522747Y-94212402D01*
X119539223Y-94194223D01*
X119557402Y-94177747D01*
X119577107Y-94163133D01*
X119598151Y-94150520D01*
X119620329Y-94140030D01*
X119643429Y-94131765D01*
X119667227Y-94125804D01*
X119691496Y-94122204D01*
X119716000Y-94121000D01*
X120641000Y-94121000D01*
X120665504Y-94122204D01*
X120665504Y-94122204D01*
G37*
D16*
X120178500Y-94996000D03*
D11*
G36*
X113367504Y-66127204D02*
G01*
X113391773Y-66130804D01*
X113415571Y-66136765D01*
X113438671Y-66145030D01*
X113460849Y-66155520D01*
X113481893Y-66168133D01*
X113501598Y-66182747D01*
X113519777Y-66199223D01*
X113536253Y-66217402D01*
X113550867Y-66237107D01*
X113563480Y-66258151D01*
X113573970Y-66280329D01*
X113582235Y-66303429D01*
X113588196Y-66327227D01*
X113591796Y-66351496D01*
X113593000Y-66376000D01*
X113593000Y-67301000D01*
X113591796Y-67325504D01*
X113588196Y-67349773D01*
X113582235Y-67373571D01*
X113573970Y-67396671D01*
X113563480Y-67418849D01*
X113550867Y-67439893D01*
X113536253Y-67459598D01*
X113519777Y-67477777D01*
X113501598Y-67494253D01*
X113481893Y-67508867D01*
X113460849Y-67521480D01*
X113438671Y-67531970D01*
X113415571Y-67540235D01*
X113391773Y-67546196D01*
X113367504Y-67549796D01*
X113343000Y-67551000D01*
X111193000Y-67551000D01*
X111168496Y-67549796D01*
X111144227Y-67546196D01*
X111120429Y-67540235D01*
X111097329Y-67531970D01*
X111075151Y-67521480D01*
X111054107Y-67508867D01*
X111034402Y-67494253D01*
X111016223Y-67477777D01*
X110999747Y-67459598D01*
X110985133Y-67439893D01*
X110972520Y-67418849D01*
X110962030Y-67396671D01*
X110953765Y-67373571D01*
X110947804Y-67349773D01*
X110944204Y-67325504D01*
X110943000Y-67301000D01*
X110943000Y-66376000D01*
X110944204Y-66351496D01*
X110947804Y-66327227D01*
X110953765Y-66303429D01*
X110962030Y-66280329D01*
X110972520Y-66258151D01*
X110985133Y-66237107D01*
X110999747Y-66217402D01*
X111016223Y-66199223D01*
X111034402Y-66182747D01*
X111054107Y-66168133D01*
X111075151Y-66155520D01*
X111097329Y-66145030D01*
X111120429Y-66136765D01*
X111144227Y-66130804D01*
X111168496Y-66127204D01*
X111193000Y-66126000D01*
X113343000Y-66126000D01*
X113367504Y-66127204D01*
X113367504Y-66127204D01*
G37*
D16*
X112268000Y-66838500D03*
D11*
G36*
X113367504Y-69102204D02*
G01*
X113391773Y-69105804D01*
X113415571Y-69111765D01*
X113438671Y-69120030D01*
X113460849Y-69130520D01*
X113481893Y-69143133D01*
X113501598Y-69157747D01*
X113519777Y-69174223D01*
X113536253Y-69192402D01*
X113550867Y-69212107D01*
X113563480Y-69233151D01*
X113573970Y-69255329D01*
X113582235Y-69278429D01*
X113588196Y-69302227D01*
X113591796Y-69326496D01*
X113593000Y-69351000D01*
X113593000Y-70276000D01*
X113591796Y-70300504D01*
X113588196Y-70324773D01*
X113582235Y-70348571D01*
X113573970Y-70371671D01*
X113563480Y-70393849D01*
X113550867Y-70414893D01*
X113536253Y-70434598D01*
X113519777Y-70452777D01*
X113501598Y-70469253D01*
X113481893Y-70483867D01*
X113460849Y-70496480D01*
X113438671Y-70506970D01*
X113415571Y-70515235D01*
X113391773Y-70521196D01*
X113367504Y-70524796D01*
X113343000Y-70526000D01*
X111193000Y-70526000D01*
X111168496Y-70524796D01*
X111144227Y-70521196D01*
X111120429Y-70515235D01*
X111097329Y-70506970D01*
X111075151Y-70496480D01*
X111054107Y-70483867D01*
X111034402Y-70469253D01*
X111016223Y-70452777D01*
X110999747Y-70434598D01*
X110985133Y-70414893D01*
X110972520Y-70393849D01*
X110962030Y-70371671D01*
X110953765Y-70348571D01*
X110947804Y-70324773D01*
X110944204Y-70300504D01*
X110943000Y-70276000D01*
X110943000Y-69351000D01*
X110944204Y-69326496D01*
X110947804Y-69302227D01*
X110953765Y-69278429D01*
X110962030Y-69255329D01*
X110972520Y-69233151D01*
X110985133Y-69212107D01*
X110999747Y-69192402D01*
X111016223Y-69174223D01*
X111034402Y-69157747D01*
X111054107Y-69143133D01*
X111075151Y-69130520D01*
X111097329Y-69120030D01*
X111120429Y-69111765D01*
X111144227Y-69105804D01*
X111168496Y-69102204D01*
X111193000Y-69101000D01*
X113343000Y-69101000D01*
X113367504Y-69102204D01*
X113367504Y-69102204D01*
G37*
D16*
X112268000Y-69813500D03*
D11*
G36*
X117939504Y-66127204D02*
G01*
X117963773Y-66130804D01*
X117987571Y-66136765D01*
X118010671Y-66145030D01*
X118032849Y-66155520D01*
X118053893Y-66168133D01*
X118073598Y-66182747D01*
X118091777Y-66199223D01*
X118108253Y-66217402D01*
X118122867Y-66237107D01*
X118135480Y-66258151D01*
X118145970Y-66280329D01*
X118154235Y-66303429D01*
X118160196Y-66327227D01*
X118163796Y-66351496D01*
X118165000Y-66376000D01*
X118165000Y-67301000D01*
X118163796Y-67325504D01*
X118160196Y-67349773D01*
X118154235Y-67373571D01*
X118145970Y-67396671D01*
X118135480Y-67418849D01*
X118122867Y-67439893D01*
X118108253Y-67459598D01*
X118091777Y-67477777D01*
X118073598Y-67494253D01*
X118053893Y-67508867D01*
X118032849Y-67521480D01*
X118010671Y-67531970D01*
X117987571Y-67540235D01*
X117963773Y-67546196D01*
X117939504Y-67549796D01*
X117915000Y-67551000D01*
X115765000Y-67551000D01*
X115740496Y-67549796D01*
X115716227Y-67546196D01*
X115692429Y-67540235D01*
X115669329Y-67531970D01*
X115647151Y-67521480D01*
X115626107Y-67508867D01*
X115606402Y-67494253D01*
X115588223Y-67477777D01*
X115571747Y-67459598D01*
X115557133Y-67439893D01*
X115544520Y-67418849D01*
X115534030Y-67396671D01*
X115525765Y-67373571D01*
X115519804Y-67349773D01*
X115516204Y-67325504D01*
X115515000Y-67301000D01*
X115515000Y-66376000D01*
X115516204Y-66351496D01*
X115519804Y-66327227D01*
X115525765Y-66303429D01*
X115534030Y-66280329D01*
X115544520Y-66258151D01*
X115557133Y-66237107D01*
X115571747Y-66217402D01*
X115588223Y-66199223D01*
X115606402Y-66182747D01*
X115626107Y-66168133D01*
X115647151Y-66155520D01*
X115669329Y-66145030D01*
X115692429Y-66136765D01*
X115716227Y-66130804D01*
X115740496Y-66127204D01*
X115765000Y-66126000D01*
X117915000Y-66126000D01*
X117939504Y-66127204D01*
X117939504Y-66127204D01*
G37*
D16*
X116840000Y-66838500D03*
D11*
G36*
X117939504Y-69102204D02*
G01*
X117963773Y-69105804D01*
X117987571Y-69111765D01*
X118010671Y-69120030D01*
X118032849Y-69130520D01*
X118053893Y-69143133D01*
X118073598Y-69157747D01*
X118091777Y-69174223D01*
X118108253Y-69192402D01*
X118122867Y-69212107D01*
X118135480Y-69233151D01*
X118145970Y-69255329D01*
X118154235Y-69278429D01*
X118160196Y-69302227D01*
X118163796Y-69326496D01*
X118165000Y-69351000D01*
X118165000Y-70276000D01*
X118163796Y-70300504D01*
X118160196Y-70324773D01*
X118154235Y-70348571D01*
X118145970Y-70371671D01*
X118135480Y-70393849D01*
X118122867Y-70414893D01*
X118108253Y-70434598D01*
X118091777Y-70452777D01*
X118073598Y-70469253D01*
X118053893Y-70483867D01*
X118032849Y-70496480D01*
X118010671Y-70506970D01*
X117987571Y-70515235D01*
X117963773Y-70521196D01*
X117939504Y-70524796D01*
X117915000Y-70526000D01*
X115765000Y-70526000D01*
X115740496Y-70524796D01*
X115716227Y-70521196D01*
X115692429Y-70515235D01*
X115669329Y-70506970D01*
X115647151Y-70496480D01*
X115626107Y-70483867D01*
X115606402Y-70469253D01*
X115588223Y-70452777D01*
X115571747Y-70434598D01*
X115557133Y-70414893D01*
X115544520Y-70393849D01*
X115534030Y-70371671D01*
X115525765Y-70348571D01*
X115519804Y-70324773D01*
X115516204Y-70300504D01*
X115515000Y-70276000D01*
X115515000Y-69351000D01*
X115516204Y-69326496D01*
X115519804Y-69302227D01*
X115525765Y-69278429D01*
X115534030Y-69255329D01*
X115544520Y-69233151D01*
X115557133Y-69212107D01*
X115571747Y-69192402D01*
X115588223Y-69174223D01*
X115606402Y-69157747D01*
X115626107Y-69143133D01*
X115647151Y-69130520D01*
X115669329Y-69120030D01*
X115692429Y-69111765D01*
X115716227Y-69105804D01*
X115740496Y-69102204D01*
X115765000Y-69101000D01*
X117915000Y-69101000D01*
X117939504Y-69102204D01*
X117939504Y-69102204D01*
G37*
D16*
X116840000Y-69813500D03*
D11*
G36*
X121553504Y-82310204D02*
G01*
X121577773Y-82313804D01*
X121601571Y-82319765D01*
X121624671Y-82328030D01*
X121646849Y-82338520D01*
X121667893Y-82351133D01*
X121687598Y-82365747D01*
X121705777Y-82382223D01*
X121722253Y-82400402D01*
X121736867Y-82420107D01*
X121749480Y-82441151D01*
X121759970Y-82463329D01*
X121768235Y-82486429D01*
X121774196Y-82510227D01*
X121777796Y-82534496D01*
X121779000Y-82559000D01*
X121779000Y-83484000D01*
X121777796Y-83508504D01*
X121774196Y-83532773D01*
X121768235Y-83556571D01*
X121759970Y-83579671D01*
X121749480Y-83601849D01*
X121736867Y-83622893D01*
X121722253Y-83642598D01*
X121705777Y-83660777D01*
X121687598Y-83677253D01*
X121667893Y-83691867D01*
X121646849Y-83704480D01*
X121624671Y-83714970D01*
X121601571Y-83723235D01*
X121577773Y-83729196D01*
X121553504Y-83732796D01*
X121529000Y-83734000D01*
X120279000Y-83734000D01*
X120254496Y-83732796D01*
X120230227Y-83729196D01*
X120206429Y-83723235D01*
X120183329Y-83714970D01*
X120161151Y-83704480D01*
X120140107Y-83691867D01*
X120120402Y-83677253D01*
X120102223Y-83660777D01*
X120085747Y-83642598D01*
X120071133Y-83622893D01*
X120058520Y-83601849D01*
X120048030Y-83579671D01*
X120039765Y-83556571D01*
X120033804Y-83532773D01*
X120030204Y-83508504D01*
X120029000Y-83484000D01*
X120029000Y-82559000D01*
X120030204Y-82534496D01*
X120033804Y-82510227D01*
X120039765Y-82486429D01*
X120048030Y-82463329D01*
X120058520Y-82441151D01*
X120071133Y-82420107D01*
X120085747Y-82400402D01*
X120102223Y-82382223D01*
X120120402Y-82365747D01*
X120140107Y-82351133D01*
X120161151Y-82338520D01*
X120183329Y-82328030D01*
X120206429Y-82319765D01*
X120230227Y-82313804D01*
X120254496Y-82310204D01*
X120279000Y-82309000D01*
X121529000Y-82309000D01*
X121553504Y-82310204D01*
X121553504Y-82310204D01*
G37*
D16*
X120904000Y-83021500D03*
D11*
G36*
X121553504Y-79335204D02*
G01*
X121577773Y-79338804D01*
X121601571Y-79344765D01*
X121624671Y-79353030D01*
X121646849Y-79363520D01*
X121667893Y-79376133D01*
X121687598Y-79390747D01*
X121705777Y-79407223D01*
X121722253Y-79425402D01*
X121736867Y-79445107D01*
X121749480Y-79466151D01*
X121759970Y-79488329D01*
X121768235Y-79511429D01*
X121774196Y-79535227D01*
X121777796Y-79559496D01*
X121779000Y-79584000D01*
X121779000Y-80509000D01*
X121777796Y-80533504D01*
X121774196Y-80557773D01*
X121768235Y-80581571D01*
X121759970Y-80604671D01*
X121749480Y-80626849D01*
X121736867Y-80647893D01*
X121722253Y-80667598D01*
X121705777Y-80685777D01*
X121687598Y-80702253D01*
X121667893Y-80716867D01*
X121646849Y-80729480D01*
X121624671Y-80739970D01*
X121601571Y-80748235D01*
X121577773Y-80754196D01*
X121553504Y-80757796D01*
X121529000Y-80759000D01*
X120279000Y-80759000D01*
X120254496Y-80757796D01*
X120230227Y-80754196D01*
X120206429Y-80748235D01*
X120183329Y-80739970D01*
X120161151Y-80729480D01*
X120140107Y-80716867D01*
X120120402Y-80702253D01*
X120102223Y-80685777D01*
X120085747Y-80667598D01*
X120071133Y-80647893D01*
X120058520Y-80626849D01*
X120048030Y-80604671D01*
X120039765Y-80581571D01*
X120033804Y-80557773D01*
X120030204Y-80533504D01*
X120029000Y-80509000D01*
X120029000Y-79584000D01*
X120030204Y-79559496D01*
X120033804Y-79535227D01*
X120039765Y-79511429D01*
X120048030Y-79488329D01*
X120058520Y-79466151D01*
X120071133Y-79445107D01*
X120085747Y-79425402D01*
X120102223Y-79407223D01*
X120120402Y-79390747D01*
X120140107Y-79376133D01*
X120161151Y-79363520D01*
X120183329Y-79353030D01*
X120206429Y-79344765D01*
X120230227Y-79338804D01*
X120254496Y-79335204D01*
X120279000Y-79334000D01*
X121529000Y-79334000D01*
X121553504Y-79335204D01*
X121553504Y-79335204D01*
G37*
D16*
X120904000Y-80046500D03*
D20*
X118266000Y-107401000D03*
X118266000Y-106751000D03*
X118266000Y-106101000D03*
X118266000Y-105451000D03*
X112366000Y-105451000D03*
X112366000Y-106101000D03*
X112366000Y-106751000D03*
X112366000Y-107401000D03*
D11*
G36*
X110123504Y-102884204D02*
G01*
X110147773Y-102887804D01*
X110171571Y-102893765D01*
X110194671Y-102902030D01*
X110216849Y-102912520D01*
X110237893Y-102925133D01*
X110257598Y-102939747D01*
X110275777Y-102956223D01*
X110292253Y-102974402D01*
X110306867Y-102994107D01*
X110319480Y-103015151D01*
X110329970Y-103037329D01*
X110338235Y-103060429D01*
X110344196Y-103084227D01*
X110347796Y-103108496D01*
X110349000Y-103133000D01*
X110349000Y-104058000D01*
X110347796Y-104082504D01*
X110344196Y-104106773D01*
X110338235Y-104130571D01*
X110329970Y-104153671D01*
X110319480Y-104175849D01*
X110306867Y-104196893D01*
X110292253Y-104216598D01*
X110275777Y-104234777D01*
X110257598Y-104251253D01*
X110237893Y-104265867D01*
X110216849Y-104278480D01*
X110194671Y-104288970D01*
X110171571Y-104297235D01*
X110147773Y-104303196D01*
X110123504Y-104306796D01*
X110099000Y-104308000D01*
X108849000Y-104308000D01*
X108824496Y-104306796D01*
X108800227Y-104303196D01*
X108776429Y-104297235D01*
X108753329Y-104288970D01*
X108731151Y-104278480D01*
X108710107Y-104265867D01*
X108690402Y-104251253D01*
X108672223Y-104234777D01*
X108655747Y-104216598D01*
X108641133Y-104196893D01*
X108628520Y-104175849D01*
X108618030Y-104153671D01*
X108609765Y-104130571D01*
X108603804Y-104106773D01*
X108600204Y-104082504D01*
X108599000Y-104058000D01*
X108599000Y-103133000D01*
X108600204Y-103108496D01*
X108603804Y-103084227D01*
X108609765Y-103060429D01*
X108618030Y-103037329D01*
X108628520Y-103015151D01*
X108641133Y-102994107D01*
X108655747Y-102974402D01*
X108672223Y-102956223D01*
X108690402Y-102939747D01*
X108710107Y-102925133D01*
X108731151Y-102912520D01*
X108753329Y-102902030D01*
X108776429Y-102893765D01*
X108800227Y-102887804D01*
X108824496Y-102884204D01*
X108849000Y-102883000D01*
X110099000Y-102883000D01*
X110123504Y-102884204D01*
X110123504Y-102884204D01*
G37*
D16*
X109474000Y-103595500D03*
D11*
G36*
X110123504Y-99909204D02*
G01*
X110147773Y-99912804D01*
X110171571Y-99918765D01*
X110194671Y-99927030D01*
X110216849Y-99937520D01*
X110237893Y-99950133D01*
X110257598Y-99964747D01*
X110275777Y-99981223D01*
X110292253Y-99999402D01*
X110306867Y-100019107D01*
X110319480Y-100040151D01*
X110329970Y-100062329D01*
X110338235Y-100085429D01*
X110344196Y-100109227D01*
X110347796Y-100133496D01*
X110349000Y-100158000D01*
X110349000Y-101083000D01*
X110347796Y-101107504D01*
X110344196Y-101131773D01*
X110338235Y-101155571D01*
X110329970Y-101178671D01*
X110319480Y-101200849D01*
X110306867Y-101221893D01*
X110292253Y-101241598D01*
X110275777Y-101259777D01*
X110257598Y-101276253D01*
X110237893Y-101290867D01*
X110216849Y-101303480D01*
X110194671Y-101313970D01*
X110171571Y-101322235D01*
X110147773Y-101328196D01*
X110123504Y-101331796D01*
X110099000Y-101333000D01*
X108849000Y-101333000D01*
X108824496Y-101331796D01*
X108800227Y-101328196D01*
X108776429Y-101322235D01*
X108753329Y-101313970D01*
X108731151Y-101303480D01*
X108710107Y-101290867D01*
X108690402Y-101276253D01*
X108672223Y-101259777D01*
X108655747Y-101241598D01*
X108641133Y-101221893D01*
X108628520Y-101200849D01*
X108618030Y-101178671D01*
X108609765Y-101155571D01*
X108603804Y-101131773D01*
X108600204Y-101107504D01*
X108599000Y-101083000D01*
X108599000Y-100158000D01*
X108600204Y-100133496D01*
X108603804Y-100109227D01*
X108609765Y-100085429D01*
X108618030Y-100062329D01*
X108628520Y-100040151D01*
X108641133Y-100019107D01*
X108655747Y-99999402D01*
X108672223Y-99981223D01*
X108690402Y-99964747D01*
X108710107Y-99950133D01*
X108731151Y-99937520D01*
X108753329Y-99927030D01*
X108776429Y-99918765D01*
X108800227Y-99912804D01*
X108824496Y-99909204D01*
X108849000Y-99908000D01*
X110099000Y-99908000D01*
X110123504Y-99909204D01*
X110123504Y-99909204D01*
G37*
D16*
X109474000Y-100620500D03*
D11*
G36*
X118505504Y-72032704D02*
G01*
X118529773Y-72036304D01*
X118553571Y-72042265D01*
X118576671Y-72050530D01*
X118598849Y-72061020D01*
X118619893Y-72073633D01*
X118639598Y-72088247D01*
X118657777Y-72104723D01*
X118674253Y-72122902D01*
X118688867Y-72142607D01*
X118701480Y-72163651D01*
X118711970Y-72185829D01*
X118720235Y-72208929D01*
X118726196Y-72232727D01*
X118729796Y-72256996D01*
X118731000Y-72281500D01*
X118731000Y-73206500D01*
X118729796Y-73231004D01*
X118726196Y-73255273D01*
X118720235Y-73279071D01*
X118711970Y-73302171D01*
X118701480Y-73324349D01*
X118688867Y-73345393D01*
X118674253Y-73365098D01*
X118657777Y-73383277D01*
X118639598Y-73399753D01*
X118619893Y-73414367D01*
X118598849Y-73426980D01*
X118576671Y-73437470D01*
X118553571Y-73445735D01*
X118529773Y-73451696D01*
X118505504Y-73455296D01*
X118481000Y-73456500D01*
X117231000Y-73456500D01*
X117206496Y-73455296D01*
X117182227Y-73451696D01*
X117158429Y-73445735D01*
X117135329Y-73437470D01*
X117113151Y-73426980D01*
X117092107Y-73414367D01*
X117072402Y-73399753D01*
X117054223Y-73383277D01*
X117037747Y-73365098D01*
X117023133Y-73345393D01*
X117010520Y-73324349D01*
X117000030Y-73302171D01*
X116991765Y-73279071D01*
X116985804Y-73255273D01*
X116982204Y-73231004D01*
X116981000Y-73206500D01*
X116981000Y-72281500D01*
X116982204Y-72256996D01*
X116985804Y-72232727D01*
X116991765Y-72208929D01*
X117000030Y-72185829D01*
X117010520Y-72163651D01*
X117023133Y-72142607D01*
X117037747Y-72122902D01*
X117054223Y-72104723D01*
X117072402Y-72088247D01*
X117092107Y-72073633D01*
X117113151Y-72061020D01*
X117135329Y-72050530D01*
X117158429Y-72042265D01*
X117182227Y-72036304D01*
X117206496Y-72032704D01*
X117231000Y-72031500D01*
X118481000Y-72031500D01*
X118505504Y-72032704D01*
X118505504Y-72032704D01*
G37*
D16*
X117856000Y-72744000D03*
D11*
G36*
X118505504Y-75007704D02*
G01*
X118529773Y-75011304D01*
X118553571Y-75017265D01*
X118576671Y-75025530D01*
X118598849Y-75036020D01*
X118619893Y-75048633D01*
X118639598Y-75063247D01*
X118657777Y-75079723D01*
X118674253Y-75097902D01*
X118688867Y-75117607D01*
X118701480Y-75138651D01*
X118711970Y-75160829D01*
X118720235Y-75183929D01*
X118726196Y-75207727D01*
X118729796Y-75231996D01*
X118731000Y-75256500D01*
X118731000Y-76181500D01*
X118729796Y-76206004D01*
X118726196Y-76230273D01*
X118720235Y-76254071D01*
X118711970Y-76277171D01*
X118701480Y-76299349D01*
X118688867Y-76320393D01*
X118674253Y-76340098D01*
X118657777Y-76358277D01*
X118639598Y-76374753D01*
X118619893Y-76389367D01*
X118598849Y-76401980D01*
X118576671Y-76412470D01*
X118553571Y-76420735D01*
X118529773Y-76426696D01*
X118505504Y-76430296D01*
X118481000Y-76431500D01*
X117231000Y-76431500D01*
X117206496Y-76430296D01*
X117182227Y-76426696D01*
X117158429Y-76420735D01*
X117135329Y-76412470D01*
X117113151Y-76401980D01*
X117092107Y-76389367D01*
X117072402Y-76374753D01*
X117054223Y-76358277D01*
X117037747Y-76340098D01*
X117023133Y-76320393D01*
X117010520Y-76299349D01*
X117000030Y-76277171D01*
X116991765Y-76254071D01*
X116985804Y-76230273D01*
X116982204Y-76206004D01*
X116981000Y-76181500D01*
X116981000Y-75256500D01*
X116982204Y-75231996D01*
X116985804Y-75207727D01*
X116991765Y-75183929D01*
X117000030Y-75160829D01*
X117010520Y-75138651D01*
X117023133Y-75117607D01*
X117037747Y-75097902D01*
X117054223Y-75079723D01*
X117072402Y-75063247D01*
X117092107Y-75048633D01*
X117113151Y-75036020D01*
X117135329Y-75025530D01*
X117158429Y-75017265D01*
X117182227Y-75011304D01*
X117206496Y-75007704D01*
X117231000Y-75006500D01*
X118481000Y-75006500D01*
X118505504Y-75007704D01*
X118505504Y-75007704D01*
G37*
D16*
X117856000Y-75719000D03*
D11*
G36*
X110885504Y-87136204D02*
G01*
X110909773Y-87139804D01*
X110933571Y-87145765D01*
X110956671Y-87154030D01*
X110978849Y-87164520D01*
X110999893Y-87177133D01*
X111019598Y-87191747D01*
X111037777Y-87208223D01*
X111054253Y-87226402D01*
X111068867Y-87246107D01*
X111081480Y-87267151D01*
X111091970Y-87289329D01*
X111100235Y-87312429D01*
X111106196Y-87336227D01*
X111109796Y-87360496D01*
X111111000Y-87385000D01*
X111111000Y-88310000D01*
X111109796Y-88334504D01*
X111106196Y-88358773D01*
X111100235Y-88382571D01*
X111091970Y-88405671D01*
X111081480Y-88427849D01*
X111068867Y-88448893D01*
X111054253Y-88468598D01*
X111037777Y-88486777D01*
X111019598Y-88503253D01*
X110999893Y-88517867D01*
X110978849Y-88530480D01*
X110956671Y-88540970D01*
X110933571Y-88549235D01*
X110909773Y-88555196D01*
X110885504Y-88558796D01*
X110861000Y-88560000D01*
X109611000Y-88560000D01*
X109586496Y-88558796D01*
X109562227Y-88555196D01*
X109538429Y-88549235D01*
X109515329Y-88540970D01*
X109493151Y-88530480D01*
X109472107Y-88517867D01*
X109452402Y-88503253D01*
X109434223Y-88486777D01*
X109417747Y-88468598D01*
X109403133Y-88448893D01*
X109390520Y-88427849D01*
X109380030Y-88405671D01*
X109371765Y-88382571D01*
X109365804Y-88358773D01*
X109362204Y-88334504D01*
X109361000Y-88310000D01*
X109361000Y-87385000D01*
X109362204Y-87360496D01*
X109365804Y-87336227D01*
X109371765Y-87312429D01*
X109380030Y-87289329D01*
X109390520Y-87267151D01*
X109403133Y-87246107D01*
X109417747Y-87226402D01*
X109434223Y-87208223D01*
X109452402Y-87191747D01*
X109472107Y-87177133D01*
X109493151Y-87164520D01*
X109515329Y-87154030D01*
X109538429Y-87145765D01*
X109562227Y-87139804D01*
X109586496Y-87136204D01*
X109611000Y-87135000D01*
X110861000Y-87135000D01*
X110885504Y-87136204D01*
X110885504Y-87136204D01*
G37*
D16*
X110236000Y-87847500D03*
D11*
G36*
X110885504Y-84161204D02*
G01*
X110909773Y-84164804D01*
X110933571Y-84170765D01*
X110956671Y-84179030D01*
X110978849Y-84189520D01*
X110999893Y-84202133D01*
X111019598Y-84216747D01*
X111037777Y-84233223D01*
X111054253Y-84251402D01*
X111068867Y-84271107D01*
X111081480Y-84292151D01*
X111091970Y-84314329D01*
X111100235Y-84337429D01*
X111106196Y-84361227D01*
X111109796Y-84385496D01*
X111111000Y-84410000D01*
X111111000Y-85335000D01*
X111109796Y-85359504D01*
X111106196Y-85383773D01*
X111100235Y-85407571D01*
X111091970Y-85430671D01*
X111081480Y-85452849D01*
X111068867Y-85473893D01*
X111054253Y-85493598D01*
X111037777Y-85511777D01*
X111019598Y-85528253D01*
X110999893Y-85542867D01*
X110978849Y-85555480D01*
X110956671Y-85565970D01*
X110933571Y-85574235D01*
X110909773Y-85580196D01*
X110885504Y-85583796D01*
X110861000Y-85585000D01*
X109611000Y-85585000D01*
X109586496Y-85583796D01*
X109562227Y-85580196D01*
X109538429Y-85574235D01*
X109515329Y-85565970D01*
X109493151Y-85555480D01*
X109472107Y-85542867D01*
X109452402Y-85528253D01*
X109434223Y-85511777D01*
X109417747Y-85493598D01*
X109403133Y-85473893D01*
X109390520Y-85452849D01*
X109380030Y-85430671D01*
X109371765Y-85407571D01*
X109365804Y-85383773D01*
X109362204Y-85359504D01*
X109361000Y-85335000D01*
X109361000Y-84410000D01*
X109362204Y-84385496D01*
X109365804Y-84361227D01*
X109371765Y-84337429D01*
X109380030Y-84314329D01*
X109390520Y-84292151D01*
X109403133Y-84271107D01*
X109417747Y-84251402D01*
X109434223Y-84233223D01*
X109452402Y-84216747D01*
X109472107Y-84202133D01*
X109493151Y-84189520D01*
X109515329Y-84179030D01*
X109538429Y-84170765D01*
X109562227Y-84164804D01*
X109586496Y-84161204D01*
X109611000Y-84160000D01*
X110861000Y-84160000D01*
X110885504Y-84161204D01*
X110885504Y-84161204D01*
G37*
D16*
X110236000Y-84872500D03*
D11*
G36*
X113829703Y-78592722D02*
G01*
X113844264Y-78594882D01*
X113858543Y-78598459D01*
X113872403Y-78603418D01*
X113885710Y-78609712D01*
X113898336Y-78617280D01*
X113910159Y-78626048D01*
X113921066Y-78635934D01*
X113930952Y-78646841D01*
X113939720Y-78658664D01*
X113947288Y-78671290D01*
X113953582Y-78684597D01*
X113958541Y-78698457D01*
X113962118Y-78712736D01*
X113964278Y-78727297D01*
X113965000Y-78742000D01*
X113965000Y-80042000D01*
X113964278Y-80056703D01*
X113962118Y-80071264D01*
X113958541Y-80085543D01*
X113953582Y-80099403D01*
X113947288Y-80112710D01*
X113939720Y-80125336D01*
X113930952Y-80137159D01*
X113921066Y-80148066D01*
X113910159Y-80157952D01*
X113898336Y-80166720D01*
X113885710Y-80174288D01*
X113872403Y-80180582D01*
X113858543Y-80185541D01*
X113844264Y-80189118D01*
X113829703Y-80191278D01*
X113815000Y-80192000D01*
X113515000Y-80192000D01*
X113500297Y-80191278D01*
X113485736Y-80189118D01*
X113471457Y-80185541D01*
X113457597Y-80180582D01*
X113444290Y-80174288D01*
X113431664Y-80166720D01*
X113419841Y-80157952D01*
X113408934Y-80148066D01*
X113399048Y-80137159D01*
X113390280Y-80125336D01*
X113382712Y-80112710D01*
X113376418Y-80099403D01*
X113371459Y-80085543D01*
X113367882Y-80071264D01*
X113365722Y-80056703D01*
X113365000Y-80042000D01*
X113365000Y-78742000D01*
X113365722Y-78727297D01*
X113367882Y-78712736D01*
X113371459Y-78698457D01*
X113376418Y-78684597D01*
X113382712Y-78671290D01*
X113390280Y-78658664D01*
X113399048Y-78646841D01*
X113408934Y-78635934D01*
X113419841Y-78626048D01*
X113431664Y-78617280D01*
X113444290Y-78609712D01*
X113457597Y-78603418D01*
X113471457Y-78598459D01*
X113485736Y-78594882D01*
X113500297Y-78592722D01*
X113515000Y-78592000D01*
X113815000Y-78592000D01*
X113829703Y-78592722D01*
X113829703Y-78592722D01*
G37*
D21*
X113665000Y-79392000D03*
D11*
G36*
X115099703Y-78592722D02*
G01*
X115114264Y-78594882D01*
X115128543Y-78598459D01*
X115142403Y-78603418D01*
X115155710Y-78609712D01*
X115168336Y-78617280D01*
X115180159Y-78626048D01*
X115191066Y-78635934D01*
X115200952Y-78646841D01*
X115209720Y-78658664D01*
X115217288Y-78671290D01*
X115223582Y-78684597D01*
X115228541Y-78698457D01*
X115232118Y-78712736D01*
X115234278Y-78727297D01*
X115235000Y-78742000D01*
X115235000Y-80042000D01*
X115234278Y-80056703D01*
X115232118Y-80071264D01*
X115228541Y-80085543D01*
X115223582Y-80099403D01*
X115217288Y-80112710D01*
X115209720Y-80125336D01*
X115200952Y-80137159D01*
X115191066Y-80148066D01*
X115180159Y-80157952D01*
X115168336Y-80166720D01*
X115155710Y-80174288D01*
X115142403Y-80180582D01*
X115128543Y-80185541D01*
X115114264Y-80189118D01*
X115099703Y-80191278D01*
X115085000Y-80192000D01*
X114785000Y-80192000D01*
X114770297Y-80191278D01*
X114755736Y-80189118D01*
X114741457Y-80185541D01*
X114727597Y-80180582D01*
X114714290Y-80174288D01*
X114701664Y-80166720D01*
X114689841Y-80157952D01*
X114678934Y-80148066D01*
X114669048Y-80137159D01*
X114660280Y-80125336D01*
X114652712Y-80112710D01*
X114646418Y-80099403D01*
X114641459Y-80085543D01*
X114637882Y-80071264D01*
X114635722Y-80056703D01*
X114635000Y-80042000D01*
X114635000Y-78742000D01*
X114635722Y-78727297D01*
X114637882Y-78712736D01*
X114641459Y-78698457D01*
X114646418Y-78684597D01*
X114652712Y-78671290D01*
X114660280Y-78658664D01*
X114669048Y-78646841D01*
X114678934Y-78635934D01*
X114689841Y-78626048D01*
X114701664Y-78617280D01*
X114714290Y-78609712D01*
X114727597Y-78603418D01*
X114741457Y-78598459D01*
X114755736Y-78594882D01*
X114770297Y-78592722D01*
X114785000Y-78592000D01*
X115085000Y-78592000D01*
X115099703Y-78592722D01*
X115099703Y-78592722D01*
G37*
D21*
X114935000Y-79392000D03*
D11*
G36*
X116369703Y-78592722D02*
G01*
X116384264Y-78594882D01*
X116398543Y-78598459D01*
X116412403Y-78603418D01*
X116425710Y-78609712D01*
X116438336Y-78617280D01*
X116450159Y-78626048D01*
X116461066Y-78635934D01*
X116470952Y-78646841D01*
X116479720Y-78658664D01*
X116487288Y-78671290D01*
X116493582Y-78684597D01*
X116498541Y-78698457D01*
X116502118Y-78712736D01*
X116504278Y-78727297D01*
X116505000Y-78742000D01*
X116505000Y-80042000D01*
X116504278Y-80056703D01*
X116502118Y-80071264D01*
X116498541Y-80085543D01*
X116493582Y-80099403D01*
X116487288Y-80112710D01*
X116479720Y-80125336D01*
X116470952Y-80137159D01*
X116461066Y-80148066D01*
X116450159Y-80157952D01*
X116438336Y-80166720D01*
X116425710Y-80174288D01*
X116412403Y-80180582D01*
X116398543Y-80185541D01*
X116384264Y-80189118D01*
X116369703Y-80191278D01*
X116355000Y-80192000D01*
X116055000Y-80192000D01*
X116040297Y-80191278D01*
X116025736Y-80189118D01*
X116011457Y-80185541D01*
X115997597Y-80180582D01*
X115984290Y-80174288D01*
X115971664Y-80166720D01*
X115959841Y-80157952D01*
X115948934Y-80148066D01*
X115939048Y-80137159D01*
X115930280Y-80125336D01*
X115922712Y-80112710D01*
X115916418Y-80099403D01*
X115911459Y-80085543D01*
X115907882Y-80071264D01*
X115905722Y-80056703D01*
X115905000Y-80042000D01*
X115905000Y-78742000D01*
X115905722Y-78727297D01*
X115907882Y-78712736D01*
X115911459Y-78698457D01*
X115916418Y-78684597D01*
X115922712Y-78671290D01*
X115930280Y-78658664D01*
X115939048Y-78646841D01*
X115948934Y-78635934D01*
X115959841Y-78626048D01*
X115971664Y-78617280D01*
X115984290Y-78609712D01*
X115997597Y-78603418D01*
X116011457Y-78598459D01*
X116025736Y-78594882D01*
X116040297Y-78592722D01*
X116055000Y-78592000D01*
X116355000Y-78592000D01*
X116369703Y-78592722D01*
X116369703Y-78592722D01*
G37*
D21*
X116205000Y-79392000D03*
D11*
G36*
X117639703Y-78592722D02*
G01*
X117654264Y-78594882D01*
X117668543Y-78598459D01*
X117682403Y-78603418D01*
X117695710Y-78609712D01*
X117708336Y-78617280D01*
X117720159Y-78626048D01*
X117731066Y-78635934D01*
X117740952Y-78646841D01*
X117749720Y-78658664D01*
X117757288Y-78671290D01*
X117763582Y-78684597D01*
X117768541Y-78698457D01*
X117772118Y-78712736D01*
X117774278Y-78727297D01*
X117775000Y-78742000D01*
X117775000Y-80042000D01*
X117774278Y-80056703D01*
X117772118Y-80071264D01*
X117768541Y-80085543D01*
X117763582Y-80099403D01*
X117757288Y-80112710D01*
X117749720Y-80125336D01*
X117740952Y-80137159D01*
X117731066Y-80148066D01*
X117720159Y-80157952D01*
X117708336Y-80166720D01*
X117695710Y-80174288D01*
X117682403Y-80180582D01*
X117668543Y-80185541D01*
X117654264Y-80189118D01*
X117639703Y-80191278D01*
X117625000Y-80192000D01*
X117325000Y-80192000D01*
X117310297Y-80191278D01*
X117295736Y-80189118D01*
X117281457Y-80185541D01*
X117267597Y-80180582D01*
X117254290Y-80174288D01*
X117241664Y-80166720D01*
X117229841Y-80157952D01*
X117218934Y-80148066D01*
X117209048Y-80137159D01*
X117200280Y-80125336D01*
X117192712Y-80112710D01*
X117186418Y-80099403D01*
X117181459Y-80085543D01*
X117177882Y-80071264D01*
X117175722Y-80056703D01*
X117175000Y-80042000D01*
X117175000Y-78742000D01*
X117175722Y-78727297D01*
X117177882Y-78712736D01*
X117181459Y-78698457D01*
X117186418Y-78684597D01*
X117192712Y-78671290D01*
X117200280Y-78658664D01*
X117209048Y-78646841D01*
X117218934Y-78635934D01*
X117229841Y-78626048D01*
X117241664Y-78617280D01*
X117254290Y-78609712D01*
X117267597Y-78603418D01*
X117281457Y-78598459D01*
X117295736Y-78594882D01*
X117310297Y-78592722D01*
X117325000Y-78592000D01*
X117625000Y-78592000D01*
X117639703Y-78592722D01*
X117639703Y-78592722D01*
G37*
D21*
X117475000Y-79392000D03*
D11*
G36*
X117639703Y-83892722D02*
G01*
X117654264Y-83894882D01*
X117668543Y-83898459D01*
X117682403Y-83903418D01*
X117695710Y-83909712D01*
X117708336Y-83917280D01*
X117720159Y-83926048D01*
X117731066Y-83935934D01*
X117740952Y-83946841D01*
X117749720Y-83958664D01*
X117757288Y-83971290D01*
X117763582Y-83984597D01*
X117768541Y-83998457D01*
X117772118Y-84012736D01*
X117774278Y-84027297D01*
X117775000Y-84042000D01*
X117775000Y-85342000D01*
X117774278Y-85356703D01*
X117772118Y-85371264D01*
X117768541Y-85385543D01*
X117763582Y-85399403D01*
X117757288Y-85412710D01*
X117749720Y-85425336D01*
X117740952Y-85437159D01*
X117731066Y-85448066D01*
X117720159Y-85457952D01*
X117708336Y-85466720D01*
X117695710Y-85474288D01*
X117682403Y-85480582D01*
X117668543Y-85485541D01*
X117654264Y-85489118D01*
X117639703Y-85491278D01*
X117625000Y-85492000D01*
X117325000Y-85492000D01*
X117310297Y-85491278D01*
X117295736Y-85489118D01*
X117281457Y-85485541D01*
X117267597Y-85480582D01*
X117254290Y-85474288D01*
X117241664Y-85466720D01*
X117229841Y-85457952D01*
X117218934Y-85448066D01*
X117209048Y-85437159D01*
X117200280Y-85425336D01*
X117192712Y-85412710D01*
X117186418Y-85399403D01*
X117181459Y-85385543D01*
X117177882Y-85371264D01*
X117175722Y-85356703D01*
X117175000Y-85342000D01*
X117175000Y-84042000D01*
X117175722Y-84027297D01*
X117177882Y-84012736D01*
X117181459Y-83998457D01*
X117186418Y-83984597D01*
X117192712Y-83971290D01*
X117200280Y-83958664D01*
X117209048Y-83946841D01*
X117218934Y-83935934D01*
X117229841Y-83926048D01*
X117241664Y-83917280D01*
X117254290Y-83909712D01*
X117267597Y-83903418D01*
X117281457Y-83898459D01*
X117295736Y-83894882D01*
X117310297Y-83892722D01*
X117325000Y-83892000D01*
X117625000Y-83892000D01*
X117639703Y-83892722D01*
X117639703Y-83892722D01*
G37*
D21*
X117475000Y-84692000D03*
D11*
G36*
X116369703Y-83892722D02*
G01*
X116384264Y-83894882D01*
X116398543Y-83898459D01*
X116412403Y-83903418D01*
X116425710Y-83909712D01*
X116438336Y-83917280D01*
X116450159Y-83926048D01*
X116461066Y-83935934D01*
X116470952Y-83946841D01*
X116479720Y-83958664D01*
X116487288Y-83971290D01*
X116493582Y-83984597D01*
X116498541Y-83998457D01*
X116502118Y-84012736D01*
X116504278Y-84027297D01*
X116505000Y-84042000D01*
X116505000Y-85342000D01*
X116504278Y-85356703D01*
X116502118Y-85371264D01*
X116498541Y-85385543D01*
X116493582Y-85399403D01*
X116487288Y-85412710D01*
X116479720Y-85425336D01*
X116470952Y-85437159D01*
X116461066Y-85448066D01*
X116450159Y-85457952D01*
X116438336Y-85466720D01*
X116425710Y-85474288D01*
X116412403Y-85480582D01*
X116398543Y-85485541D01*
X116384264Y-85489118D01*
X116369703Y-85491278D01*
X116355000Y-85492000D01*
X116055000Y-85492000D01*
X116040297Y-85491278D01*
X116025736Y-85489118D01*
X116011457Y-85485541D01*
X115997597Y-85480582D01*
X115984290Y-85474288D01*
X115971664Y-85466720D01*
X115959841Y-85457952D01*
X115948934Y-85448066D01*
X115939048Y-85437159D01*
X115930280Y-85425336D01*
X115922712Y-85412710D01*
X115916418Y-85399403D01*
X115911459Y-85385543D01*
X115907882Y-85371264D01*
X115905722Y-85356703D01*
X115905000Y-85342000D01*
X115905000Y-84042000D01*
X115905722Y-84027297D01*
X115907882Y-84012736D01*
X115911459Y-83998457D01*
X115916418Y-83984597D01*
X115922712Y-83971290D01*
X115930280Y-83958664D01*
X115939048Y-83946841D01*
X115948934Y-83935934D01*
X115959841Y-83926048D01*
X115971664Y-83917280D01*
X115984290Y-83909712D01*
X115997597Y-83903418D01*
X116011457Y-83898459D01*
X116025736Y-83894882D01*
X116040297Y-83892722D01*
X116055000Y-83892000D01*
X116355000Y-83892000D01*
X116369703Y-83892722D01*
X116369703Y-83892722D01*
G37*
D21*
X116205000Y-84692000D03*
D11*
G36*
X115099703Y-83892722D02*
G01*
X115114264Y-83894882D01*
X115128543Y-83898459D01*
X115142403Y-83903418D01*
X115155710Y-83909712D01*
X115168336Y-83917280D01*
X115180159Y-83926048D01*
X115191066Y-83935934D01*
X115200952Y-83946841D01*
X115209720Y-83958664D01*
X115217288Y-83971290D01*
X115223582Y-83984597D01*
X115228541Y-83998457D01*
X115232118Y-84012736D01*
X115234278Y-84027297D01*
X115235000Y-84042000D01*
X115235000Y-85342000D01*
X115234278Y-85356703D01*
X115232118Y-85371264D01*
X115228541Y-85385543D01*
X115223582Y-85399403D01*
X115217288Y-85412710D01*
X115209720Y-85425336D01*
X115200952Y-85437159D01*
X115191066Y-85448066D01*
X115180159Y-85457952D01*
X115168336Y-85466720D01*
X115155710Y-85474288D01*
X115142403Y-85480582D01*
X115128543Y-85485541D01*
X115114264Y-85489118D01*
X115099703Y-85491278D01*
X115085000Y-85492000D01*
X114785000Y-85492000D01*
X114770297Y-85491278D01*
X114755736Y-85489118D01*
X114741457Y-85485541D01*
X114727597Y-85480582D01*
X114714290Y-85474288D01*
X114701664Y-85466720D01*
X114689841Y-85457952D01*
X114678934Y-85448066D01*
X114669048Y-85437159D01*
X114660280Y-85425336D01*
X114652712Y-85412710D01*
X114646418Y-85399403D01*
X114641459Y-85385543D01*
X114637882Y-85371264D01*
X114635722Y-85356703D01*
X114635000Y-85342000D01*
X114635000Y-84042000D01*
X114635722Y-84027297D01*
X114637882Y-84012736D01*
X114641459Y-83998457D01*
X114646418Y-83984597D01*
X114652712Y-83971290D01*
X114660280Y-83958664D01*
X114669048Y-83946841D01*
X114678934Y-83935934D01*
X114689841Y-83926048D01*
X114701664Y-83917280D01*
X114714290Y-83909712D01*
X114727597Y-83903418D01*
X114741457Y-83898459D01*
X114755736Y-83894882D01*
X114770297Y-83892722D01*
X114785000Y-83892000D01*
X115085000Y-83892000D01*
X115099703Y-83892722D01*
X115099703Y-83892722D01*
G37*
D21*
X114935000Y-84692000D03*
D11*
G36*
X113829703Y-83892722D02*
G01*
X113844264Y-83894882D01*
X113858543Y-83898459D01*
X113872403Y-83903418D01*
X113885710Y-83909712D01*
X113898336Y-83917280D01*
X113910159Y-83926048D01*
X113921066Y-83935934D01*
X113930952Y-83946841D01*
X113939720Y-83958664D01*
X113947288Y-83971290D01*
X113953582Y-83984597D01*
X113958541Y-83998457D01*
X113962118Y-84012736D01*
X113964278Y-84027297D01*
X113965000Y-84042000D01*
X113965000Y-85342000D01*
X113964278Y-85356703D01*
X113962118Y-85371264D01*
X113958541Y-85385543D01*
X113953582Y-85399403D01*
X113947288Y-85412710D01*
X113939720Y-85425336D01*
X113930952Y-85437159D01*
X113921066Y-85448066D01*
X113910159Y-85457952D01*
X113898336Y-85466720D01*
X113885710Y-85474288D01*
X113872403Y-85480582D01*
X113858543Y-85485541D01*
X113844264Y-85489118D01*
X113829703Y-85491278D01*
X113815000Y-85492000D01*
X113515000Y-85492000D01*
X113500297Y-85491278D01*
X113485736Y-85489118D01*
X113471457Y-85485541D01*
X113457597Y-85480582D01*
X113444290Y-85474288D01*
X113431664Y-85466720D01*
X113419841Y-85457952D01*
X113408934Y-85448066D01*
X113399048Y-85437159D01*
X113390280Y-85425336D01*
X113382712Y-85412710D01*
X113376418Y-85399403D01*
X113371459Y-85385543D01*
X113367882Y-85371264D01*
X113365722Y-85356703D01*
X113365000Y-85342000D01*
X113365000Y-84042000D01*
X113365722Y-84027297D01*
X113367882Y-84012736D01*
X113371459Y-83998457D01*
X113376418Y-83984597D01*
X113382712Y-83971290D01*
X113390280Y-83958664D01*
X113399048Y-83946841D01*
X113408934Y-83935934D01*
X113419841Y-83926048D01*
X113431664Y-83917280D01*
X113444290Y-83909712D01*
X113457597Y-83903418D01*
X113471457Y-83898459D01*
X113485736Y-83894882D01*
X113500297Y-83892722D01*
X113515000Y-83892000D01*
X113815000Y-83892000D01*
X113829703Y-83892722D01*
X113829703Y-83892722D01*
G37*
D21*
X113665000Y-84692000D03*
D11*
G36*
X116751269Y-80958168D02*
G01*
X116774809Y-80961660D01*
X116797894Y-80967442D01*
X116820301Y-80975459D01*
X116841814Y-80985634D01*
X116862226Y-80997869D01*
X116881340Y-81012045D01*
X116898973Y-81028027D01*
X116914955Y-81045660D01*
X116929131Y-81064774D01*
X116941366Y-81085186D01*
X116951541Y-81106699D01*
X116959558Y-81129106D01*
X116965340Y-81152191D01*
X116968832Y-81175731D01*
X116970000Y-81199500D01*
X116970000Y-81684500D01*
X116968832Y-81708269D01*
X116965340Y-81731809D01*
X116959558Y-81754894D01*
X116951541Y-81777301D01*
X116941366Y-81798814D01*
X116929131Y-81819226D01*
X116914955Y-81838340D01*
X116898973Y-81855973D01*
X116881340Y-81871955D01*
X116862226Y-81886131D01*
X116841814Y-81898366D01*
X116820301Y-81908541D01*
X116797894Y-81916558D01*
X116774809Y-81922340D01*
X116751269Y-81925832D01*
X116727500Y-81927000D01*
X115962500Y-81927000D01*
X115938731Y-81925832D01*
X115915191Y-81922340D01*
X115892106Y-81916558D01*
X115869699Y-81908541D01*
X115848186Y-81898366D01*
X115827774Y-81886131D01*
X115808660Y-81871955D01*
X115791027Y-81855973D01*
X115775045Y-81838340D01*
X115760869Y-81819226D01*
X115748634Y-81798814D01*
X115738459Y-81777301D01*
X115730442Y-81754894D01*
X115724660Y-81731809D01*
X115721168Y-81708269D01*
X115720000Y-81684500D01*
X115720000Y-81199500D01*
X115721168Y-81175731D01*
X115724660Y-81152191D01*
X115730442Y-81129106D01*
X115738459Y-81106699D01*
X115748634Y-81085186D01*
X115760869Y-81064774D01*
X115775045Y-81045660D01*
X115791027Y-81028027D01*
X115808660Y-81012045D01*
X115827774Y-80997869D01*
X115848186Y-80985634D01*
X115869699Y-80975459D01*
X115892106Y-80967442D01*
X115915191Y-80961660D01*
X115938731Y-80958168D01*
X115962500Y-80957000D01*
X116727500Y-80957000D01*
X116751269Y-80958168D01*
X116751269Y-80958168D01*
G37*
D22*
X116345000Y-81442000D03*
D11*
G36*
X115201269Y-80958168D02*
G01*
X115224809Y-80961660D01*
X115247894Y-80967442D01*
X115270301Y-80975459D01*
X115291814Y-80985634D01*
X115312226Y-80997869D01*
X115331340Y-81012045D01*
X115348973Y-81028027D01*
X115364955Y-81045660D01*
X115379131Y-81064774D01*
X115391366Y-81085186D01*
X115401541Y-81106699D01*
X115409558Y-81129106D01*
X115415340Y-81152191D01*
X115418832Y-81175731D01*
X115420000Y-81199500D01*
X115420000Y-81684500D01*
X115418832Y-81708269D01*
X115415340Y-81731809D01*
X115409558Y-81754894D01*
X115401541Y-81777301D01*
X115391366Y-81798814D01*
X115379131Y-81819226D01*
X115364955Y-81838340D01*
X115348973Y-81855973D01*
X115331340Y-81871955D01*
X115312226Y-81886131D01*
X115291814Y-81898366D01*
X115270301Y-81908541D01*
X115247894Y-81916558D01*
X115224809Y-81922340D01*
X115201269Y-81925832D01*
X115177500Y-81927000D01*
X114412500Y-81927000D01*
X114388731Y-81925832D01*
X114365191Y-81922340D01*
X114342106Y-81916558D01*
X114319699Y-81908541D01*
X114298186Y-81898366D01*
X114277774Y-81886131D01*
X114258660Y-81871955D01*
X114241027Y-81855973D01*
X114225045Y-81838340D01*
X114210869Y-81819226D01*
X114198634Y-81798814D01*
X114188459Y-81777301D01*
X114180442Y-81754894D01*
X114174660Y-81731809D01*
X114171168Y-81708269D01*
X114170000Y-81684500D01*
X114170000Y-81199500D01*
X114171168Y-81175731D01*
X114174660Y-81152191D01*
X114180442Y-81129106D01*
X114188459Y-81106699D01*
X114198634Y-81085186D01*
X114210869Y-81064774D01*
X114225045Y-81045660D01*
X114241027Y-81028027D01*
X114258660Y-81012045D01*
X114277774Y-80997869D01*
X114298186Y-80985634D01*
X114319699Y-80975459D01*
X114342106Y-80967442D01*
X114365191Y-80961660D01*
X114388731Y-80958168D01*
X114412500Y-80957000D01*
X115177500Y-80957000D01*
X115201269Y-80958168D01*
X115201269Y-80958168D01*
G37*
D22*
X114795000Y-81442000D03*
D11*
G36*
X116751269Y-82158168D02*
G01*
X116774809Y-82161660D01*
X116797894Y-82167442D01*
X116820301Y-82175459D01*
X116841814Y-82185634D01*
X116862226Y-82197869D01*
X116881340Y-82212045D01*
X116898973Y-82228027D01*
X116914955Y-82245660D01*
X116929131Y-82264774D01*
X116941366Y-82285186D01*
X116951541Y-82306699D01*
X116959558Y-82329106D01*
X116965340Y-82352191D01*
X116968832Y-82375731D01*
X116970000Y-82399500D01*
X116970000Y-82884500D01*
X116968832Y-82908269D01*
X116965340Y-82931809D01*
X116959558Y-82954894D01*
X116951541Y-82977301D01*
X116941366Y-82998814D01*
X116929131Y-83019226D01*
X116914955Y-83038340D01*
X116898973Y-83055973D01*
X116881340Y-83071955D01*
X116862226Y-83086131D01*
X116841814Y-83098366D01*
X116820301Y-83108541D01*
X116797894Y-83116558D01*
X116774809Y-83122340D01*
X116751269Y-83125832D01*
X116727500Y-83127000D01*
X115962500Y-83127000D01*
X115938731Y-83125832D01*
X115915191Y-83122340D01*
X115892106Y-83116558D01*
X115869699Y-83108541D01*
X115848186Y-83098366D01*
X115827774Y-83086131D01*
X115808660Y-83071955D01*
X115791027Y-83055973D01*
X115775045Y-83038340D01*
X115760869Y-83019226D01*
X115748634Y-82998814D01*
X115738459Y-82977301D01*
X115730442Y-82954894D01*
X115724660Y-82931809D01*
X115721168Y-82908269D01*
X115720000Y-82884500D01*
X115720000Y-82399500D01*
X115721168Y-82375731D01*
X115724660Y-82352191D01*
X115730442Y-82329106D01*
X115738459Y-82306699D01*
X115748634Y-82285186D01*
X115760869Y-82264774D01*
X115775045Y-82245660D01*
X115791027Y-82228027D01*
X115808660Y-82212045D01*
X115827774Y-82197869D01*
X115848186Y-82185634D01*
X115869699Y-82175459D01*
X115892106Y-82167442D01*
X115915191Y-82161660D01*
X115938731Y-82158168D01*
X115962500Y-82157000D01*
X116727500Y-82157000D01*
X116751269Y-82158168D01*
X116751269Y-82158168D01*
G37*
D22*
X116345000Y-82642000D03*
D11*
G36*
X115201269Y-82158168D02*
G01*
X115224809Y-82161660D01*
X115247894Y-82167442D01*
X115270301Y-82175459D01*
X115291814Y-82185634D01*
X115312226Y-82197869D01*
X115331340Y-82212045D01*
X115348973Y-82228027D01*
X115364955Y-82245660D01*
X115379131Y-82264774D01*
X115391366Y-82285186D01*
X115401541Y-82306699D01*
X115409558Y-82329106D01*
X115415340Y-82352191D01*
X115418832Y-82375731D01*
X115420000Y-82399500D01*
X115420000Y-82884500D01*
X115418832Y-82908269D01*
X115415340Y-82931809D01*
X115409558Y-82954894D01*
X115401541Y-82977301D01*
X115391366Y-82998814D01*
X115379131Y-83019226D01*
X115364955Y-83038340D01*
X115348973Y-83055973D01*
X115331340Y-83071955D01*
X115312226Y-83086131D01*
X115291814Y-83098366D01*
X115270301Y-83108541D01*
X115247894Y-83116558D01*
X115224809Y-83122340D01*
X115201269Y-83125832D01*
X115177500Y-83127000D01*
X114412500Y-83127000D01*
X114388731Y-83125832D01*
X114365191Y-83122340D01*
X114342106Y-83116558D01*
X114319699Y-83108541D01*
X114298186Y-83098366D01*
X114277774Y-83086131D01*
X114258660Y-83071955D01*
X114241027Y-83055973D01*
X114225045Y-83038340D01*
X114210869Y-83019226D01*
X114198634Y-82998814D01*
X114188459Y-82977301D01*
X114180442Y-82954894D01*
X114174660Y-82931809D01*
X114171168Y-82908269D01*
X114170000Y-82884500D01*
X114170000Y-82399500D01*
X114171168Y-82375731D01*
X114174660Y-82352191D01*
X114180442Y-82329106D01*
X114188459Y-82306699D01*
X114198634Y-82285186D01*
X114210869Y-82264774D01*
X114225045Y-82245660D01*
X114241027Y-82228027D01*
X114258660Y-82212045D01*
X114277774Y-82197869D01*
X114298186Y-82185634D01*
X114319699Y-82175459D01*
X114342106Y-82167442D01*
X114365191Y-82161660D01*
X114388731Y-82158168D01*
X114412500Y-82157000D01*
X115177500Y-82157000D01*
X115201269Y-82158168D01*
X115201269Y-82158168D01*
G37*
D22*
X114795000Y-82642000D03*
D23*
X113350000Y-101172000D03*
X114300000Y-101172000D03*
X115250000Y-101172000D03*
X115250000Y-98472000D03*
X113350000Y-98472000D03*
X114300000Y-98472000D03*
M02*
