G04 #@! TF.GenerationSoftware,KiCad,Pcbnew,(6.0.0-rc1-dev-1491-g0a4812be0)*
G04 #@! TF.CreationDate,2019-01-24T14:08:08+01:00
G04 #@! TF.ProjectId,mySensors_door_switch,6d795365-6e73-46f7-9273-5f646f6f725f,rev?*
G04 #@! TF.SameCoordinates,Original*
G04 #@! TF.FileFunction,Legend,Bot*
G04 #@! TF.FilePolarity,Positive*
%FSLAX46Y46*%
G04 Gerber Fmt 4.6, Leading zero omitted, Abs format (unit mm)*
G04 Created by KiCad (PCBNEW (6.0.0-rc1-dev-1491-g0a4812be0)) date 2019-01-24 14:08:08*
%MOMM*%
%LPD*%
G04 APERTURE LIST*
%ADD10C,0.120000*%
%ADD11C,0.150000*%
G04 APERTURE END LIST*
D10*
X99314000Y-71060000D02*
X98204000Y-71060000D01*
X98204000Y-71060000D02*
X98204000Y-72390000D01*
X109404000Y-71060000D02*
X109404000Y-76260000D01*
X109404000Y-76260000D02*
X100774000Y-76260000D01*
X100774000Y-71060000D02*
X100774000Y-76260000D01*
X109404000Y-71060000D02*
X100774000Y-71060000D01*
X109404000Y-73660000D02*
X100774000Y-73660000D01*
X100774000Y-75290000D02*
X100364000Y-75290000D01*
X100774000Y-74570000D02*
X100364000Y-74570000D01*
X100774000Y-72750000D02*
X100424000Y-72750000D01*
X100774000Y-72030000D02*
X100424000Y-72030000D01*
X109404000Y-73541900D02*
X100774000Y-73541900D01*
X109404000Y-73423805D02*
X100774000Y-73423805D01*
X109404000Y-73305710D02*
X100774000Y-73305710D01*
X109404000Y-73187615D02*
X100774000Y-73187615D01*
X109404000Y-73069520D02*
X100774000Y-73069520D01*
X109404000Y-72951425D02*
X100774000Y-72951425D01*
X109404000Y-72833330D02*
X100774000Y-72833330D01*
X109404000Y-72715235D02*
X100774000Y-72715235D01*
X109404000Y-72597140D02*
X100774000Y-72597140D01*
X109404000Y-72479045D02*
X100774000Y-72479045D01*
X109404000Y-72360950D02*
X100774000Y-72360950D01*
X109404000Y-72242855D02*
X100774000Y-72242855D01*
X109404000Y-72124760D02*
X100774000Y-72124760D01*
X109404000Y-72006665D02*
X100774000Y-72006665D01*
X109404000Y-71888570D02*
X100774000Y-71888570D01*
X109404000Y-71770475D02*
X100774000Y-71770475D01*
X109404000Y-71652380D02*
X100774000Y-71652380D01*
X109404000Y-71534285D02*
X100774000Y-71534285D01*
X109404000Y-71416190D02*
X100774000Y-71416190D01*
X109404000Y-71298095D02*
X100774000Y-71298095D01*
X109404000Y-71180000D02*
X100774000Y-71180000D01*
X97666000Y-91424936D02*
X97666000Y-92979064D01*
X102486000Y-91424936D02*
X102486000Y-92979064D01*
D11*
X104027333Y-69072380D02*
X104027333Y-69786666D01*
X104074952Y-69929523D01*
X104170190Y-70024761D01*
X104313047Y-70072380D01*
X104408285Y-70072380D01*
X103122571Y-69405714D02*
X103122571Y-70072380D01*
X103360666Y-69024761D02*
X103598761Y-69739047D01*
X102979714Y-69739047D01*
X101439714Y-94718380D02*
X100868285Y-94718380D01*
X101154000Y-95718380D02*
X101154000Y-94718380D01*
X100534952Y-95718380D02*
X100534952Y-94718380D01*
X100534952Y-95194571D02*
X99963523Y-95194571D01*
X99963523Y-95718380D02*
X99963523Y-94718380D01*
X98963523Y-95718380D02*
X99534952Y-95718380D01*
X99249238Y-95718380D02*
X99249238Y-94718380D01*
X99344476Y-94861238D01*
X99439714Y-94956476D01*
X99534952Y-95004095D01*
M02*
