G04 #@! TF.GenerationSoftware,KiCad,Pcbnew,(6.0.0-rc1-dev-1491-g0a4812be0)*
G04 #@! TF.CreationDate,2019-01-24T14:08:08+01:00
G04 #@! TF.ProjectId,mySensors_door_switch,6d795365-6e73-46f7-9273-5f646f6f725f,rev?*
G04 #@! TF.SameCoordinates,Original*
G04 #@! TF.FileFunction,Soldermask,Top*
G04 #@! TF.FilePolarity,Negative*
%FSLAX46Y46*%
G04 Gerber Fmt 4.6, Leading zero omitted, Abs format (unit mm)*
G04 Created by KiCad (PCBNEW (6.0.0-rc1-dev-1491-g0a4812be0)) date 2019-01-24 14:08:08*
%MOMM*%
%LPD*%
G04 APERTURE LIST*
%ADD10C,0.100000*%
G04 APERTURE END LIST*
D10*
X122364500Y-67564000D02*
G75*
G03X122364500Y-67564000I-444500J0D01*
G01*
X126864500Y-67564000D02*
G75*
G03X126864500Y-67564000I-444500J0D01*
G01*
X128305000Y-70064000D02*
G75*
G03X128305000Y-70064000I-635000J0D01*
G01*
X121305000Y-70064000D02*
G75*
G03X121305000Y-70064000I-635000J0D01*
G01*
G36*
X179272694Y-103487860D02*
G01*
X179538437Y-103540719D01*
X180039087Y-103748095D01*
X180219357Y-103868548D01*
X180489663Y-104049161D01*
X180872839Y-104432337D01*
X180872841Y-104432340D01*
X181173905Y-104882913D01*
X181307363Y-105205109D01*
X181381281Y-105383564D01*
X181487000Y-105915049D01*
X181487000Y-106456951D01*
X181451186Y-106637000D01*
X181381281Y-106988437D01*
X181173905Y-107489087D01*
X180883636Y-107923504D01*
X180872839Y-107939663D01*
X180489663Y-108322839D01*
X180489660Y-108322841D01*
X180039087Y-108623905D01*
X179538437Y-108831281D01*
X179272693Y-108884141D01*
X179006951Y-108937000D01*
X178465049Y-108937000D01*
X178199307Y-108884141D01*
X177933563Y-108831281D01*
X177432913Y-108623905D01*
X176982340Y-108322841D01*
X176982337Y-108322839D01*
X176599161Y-107939663D01*
X176588364Y-107923504D01*
X176298095Y-107489087D01*
X176090719Y-106988437D01*
X176020814Y-106637000D01*
X175985000Y-106456951D01*
X175985000Y-105915049D01*
X176090719Y-105383564D01*
X176164637Y-105205109D01*
X176298095Y-104882913D01*
X176599159Y-104432340D01*
X176599161Y-104432337D01*
X176982337Y-104049161D01*
X177252643Y-103868548D01*
X177432913Y-103748095D01*
X177933563Y-103540719D01*
X178199306Y-103487860D01*
X178465049Y-103435000D01*
X179006951Y-103435000D01*
X179272694Y-103487860D01*
X179272694Y-103487860D01*
G37*
G36*
X100272694Y-103487860D02*
G01*
X100538437Y-103540719D01*
X101039087Y-103748095D01*
X101219357Y-103868548D01*
X101489663Y-104049161D01*
X101872839Y-104432337D01*
X101872841Y-104432340D01*
X102173905Y-104882913D01*
X102307363Y-105205109D01*
X102381281Y-105383564D01*
X102487000Y-105915049D01*
X102487000Y-106456951D01*
X102451186Y-106637000D01*
X102381281Y-106988437D01*
X102173905Y-107489087D01*
X101883636Y-107923504D01*
X101872839Y-107939663D01*
X101489663Y-108322839D01*
X101489660Y-108322841D01*
X101039087Y-108623905D01*
X100538437Y-108831281D01*
X100272693Y-108884141D01*
X100006951Y-108937000D01*
X99465049Y-108937000D01*
X99199307Y-108884141D01*
X98933563Y-108831281D01*
X98432913Y-108623905D01*
X97982340Y-108322841D01*
X97982337Y-108322839D01*
X97599161Y-107939663D01*
X97588364Y-107923504D01*
X97298095Y-107489087D01*
X97090719Y-106988437D01*
X97020814Y-106637000D01*
X96985000Y-106456951D01*
X96985000Y-105915049D01*
X97090719Y-105383564D01*
X97164637Y-105205109D01*
X97298095Y-104882913D01*
X97599159Y-104432340D01*
X97599161Y-104432337D01*
X97982337Y-104049161D01*
X98252643Y-103868548D01*
X98432913Y-103748095D01*
X98933563Y-103540719D01*
X99199306Y-103487860D01*
X99465049Y-103435000D01*
X100006951Y-103435000D01*
X100272694Y-103487860D01*
X100272694Y-103487860D01*
G37*
G36*
X158582600Y-104350006D02*
G01*
X158585002Y-104374392D01*
X158592115Y-104397841D01*
X158603666Y-104419452D01*
X158619212Y-104438394D01*
X158638154Y-104453940D01*
X158659765Y-104465491D01*
X158683214Y-104472604D01*
X158707600Y-104475006D01*
X158731986Y-104472604D01*
X158755435Y-104465491D01*
X158777046Y-104453940D01*
X158795988Y-104438394D01*
X158811534Y-104419452D01*
X158823085Y-104397842D01*
X158832798Y-104374392D01*
X158857492Y-104314775D01*
X158957584Y-104164977D01*
X158957586Y-104164974D01*
X159084974Y-104037586D01*
X159139729Y-104001000D01*
X159234775Y-103937492D01*
X159401221Y-103868548D01*
X159401222Y-103868548D01*
X159401224Y-103868547D01*
X159577918Y-103833400D01*
X159758082Y-103833400D01*
X159934776Y-103868547D01*
X159934778Y-103868548D01*
X159934779Y-103868548D01*
X160101225Y-103937492D01*
X160196271Y-104001000D01*
X160251026Y-104037586D01*
X160378414Y-104164974D01*
X160378416Y-104164977D01*
X160478508Y-104314775D01*
X160533897Y-104448496D01*
X160551475Y-104490933D01*
X160552513Y-104494355D01*
X160564063Y-104515967D01*
X160579608Y-104534909D01*
X160598549Y-104550456D01*
X160620160Y-104562008D01*
X160643608Y-104569122D01*
X160667995Y-104571525D01*
X160692381Y-104569124D01*
X160715830Y-104562012D01*
X160737442Y-104550462D01*
X160756384Y-104534917D01*
X160771931Y-104515976D01*
X160783483Y-104494365D01*
X160784522Y-104490940D01*
X160808796Y-104432337D01*
X160857492Y-104314775D01*
X160957584Y-104164977D01*
X160957586Y-104164974D01*
X161084974Y-104037586D01*
X161139729Y-104001000D01*
X161234775Y-103937492D01*
X161401221Y-103868548D01*
X161401222Y-103868548D01*
X161401224Y-103868547D01*
X161577918Y-103833400D01*
X161758082Y-103833400D01*
X161934776Y-103868547D01*
X161934778Y-103868548D01*
X161934779Y-103868548D01*
X162101225Y-103937492D01*
X162196271Y-104001000D01*
X162251026Y-104037586D01*
X162378414Y-104164974D01*
X162378416Y-104164977D01*
X162478508Y-104314775D01*
X162533897Y-104448496D01*
X162551475Y-104490933D01*
X162552513Y-104494355D01*
X162564063Y-104515967D01*
X162579608Y-104534909D01*
X162598549Y-104550456D01*
X162620160Y-104562008D01*
X162643608Y-104569122D01*
X162667995Y-104571525D01*
X162692381Y-104569124D01*
X162715830Y-104562012D01*
X162737442Y-104550462D01*
X162756384Y-104534917D01*
X162771931Y-104515976D01*
X162783483Y-104494365D01*
X162784522Y-104490940D01*
X162808796Y-104432337D01*
X162857492Y-104314775D01*
X162957584Y-104164977D01*
X162957586Y-104164974D01*
X163084974Y-104037586D01*
X163139729Y-104001000D01*
X163234775Y-103937492D01*
X163401221Y-103868548D01*
X163401222Y-103868548D01*
X163401224Y-103868547D01*
X163577918Y-103833400D01*
X163758082Y-103833400D01*
X163934776Y-103868547D01*
X163934778Y-103868548D01*
X163934779Y-103868548D01*
X164101225Y-103937492D01*
X164196271Y-104001000D01*
X164251026Y-104037586D01*
X164378414Y-104164974D01*
X164378416Y-104164977D01*
X164478508Y-104314775D01*
X164533897Y-104448496D01*
X164551475Y-104490933D01*
X164552513Y-104494355D01*
X164564063Y-104515967D01*
X164579608Y-104534909D01*
X164598549Y-104550456D01*
X164620160Y-104562008D01*
X164643608Y-104569122D01*
X164667995Y-104571525D01*
X164692381Y-104569124D01*
X164715830Y-104562012D01*
X164737442Y-104550462D01*
X164756384Y-104534917D01*
X164771931Y-104515976D01*
X164783483Y-104494365D01*
X164784522Y-104490940D01*
X164808796Y-104432337D01*
X164857492Y-104314775D01*
X164957584Y-104164977D01*
X164957586Y-104164974D01*
X165084974Y-104037586D01*
X165139729Y-104001000D01*
X165234775Y-103937492D01*
X165401221Y-103868548D01*
X165401222Y-103868548D01*
X165401224Y-103868547D01*
X165577918Y-103833400D01*
X165758082Y-103833400D01*
X165934776Y-103868547D01*
X165934778Y-103868548D01*
X165934779Y-103868548D01*
X166101225Y-103937492D01*
X166196271Y-104001000D01*
X166251026Y-104037586D01*
X166378414Y-104164974D01*
X166378416Y-104164977D01*
X166478508Y-104314775D01*
X166533897Y-104448496D01*
X166551475Y-104490933D01*
X166552513Y-104494355D01*
X166564063Y-104515967D01*
X166579608Y-104534909D01*
X166598549Y-104550456D01*
X166620160Y-104562008D01*
X166643608Y-104569122D01*
X166667995Y-104571525D01*
X166692381Y-104569124D01*
X166715830Y-104562012D01*
X166737442Y-104550462D01*
X166756384Y-104534917D01*
X166771931Y-104515976D01*
X166783483Y-104494365D01*
X166784522Y-104490940D01*
X166808796Y-104432337D01*
X166857492Y-104314775D01*
X166957584Y-104164977D01*
X166957586Y-104164974D01*
X167084974Y-104037586D01*
X167139729Y-104001000D01*
X167234775Y-103937492D01*
X167401221Y-103868548D01*
X167401222Y-103868548D01*
X167401224Y-103868547D01*
X167577918Y-103833400D01*
X167758082Y-103833400D01*
X167934776Y-103868547D01*
X167934778Y-103868548D01*
X167934779Y-103868548D01*
X168101225Y-103937492D01*
X168196271Y-104001000D01*
X168251026Y-104037586D01*
X168378414Y-104164974D01*
X168378416Y-104164977D01*
X168478508Y-104314775D01*
X168533897Y-104448496D01*
X168551475Y-104490933D01*
X168552513Y-104494355D01*
X168564063Y-104515967D01*
X168579608Y-104534909D01*
X168598549Y-104550456D01*
X168620160Y-104562008D01*
X168643608Y-104569122D01*
X168667995Y-104571525D01*
X168692381Y-104569124D01*
X168715830Y-104562012D01*
X168737442Y-104550462D01*
X168756384Y-104534917D01*
X168771931Y-104515976D01*
X168783483Y-104494365D01*
X168784522Y-104490940D01*
X168808796Y-104432337D01*
X168857492Y-104314775D01*
X168957584Y-104164977D01*
X168957586Y-104164974D01*
X169084974Y-104037586D01*
X169139729Y-104001000D01*
X169234775Y-103937492D01*
X169401221Y-103868548D01*
X169401222Y-103868548D01*
X169401224Y-103868547D01*
X169577918Y-103833400D01*
X169758082Y-103833400D01*
X169934776Y-103868547D01*
X169934778Y-103868548D01*
X169934779Y-103868548D01*
X170101225Y-103937492D01*
X170196271Y-104001000D01*
X170251026Y-104037586D01*
X170378414Y-104164974D01*
X170378416Y-104164977D01*
X170478508Y-104314775D01*
X170533897Y-104448496D01*
X170551475Y-104490933D01*
X170552513Y-104494355D01*
X170564063Y-104515967D01*
X170579608Y-104534909D01*
X170598549Y-104550456D01*
X170620160Y-104562008D01*
X170643608Y-104569122D01*
X170667995Y-104571525D01*
X170692381Y-104569124D01*
X170715830Y-104562012D01*
X170737442Y-104550462D01*
X170756384Y-104534917D01*
X170771931Y-104515976D01*
X170783483Y-104494365D01*
X170784522Y-104490940D01*
X170808796Y-104432337D01*
X170857492Y-104314775D01*
X170957584Y-104164977D01*
X170957586Y-104164974D01*
X171084974Y-104037586D01*
X171139729Y-104001000D01*
X171234775Y-103937492D01*
X171401221Y-103868548D01*
X171401222Y-103868548D01*
X171401224Y-103868547D01*
X171577918Y-103833400D01*
X171758082Y-103833400D01*
X171934776Y-103868547D01*
X171934778Y-103868548D01*
X171934779Y-103868548D01*
X172101225Y-103937492D01*
X172196271Y-104001000D01*
X172251026Y-104037586D01*
X172378414Y-104164974D01*
X172378416Y-104164977D01*
X172478508Y-104314775D01*
X172547452Y-104481221D01*
X172547453Y-104481224D01*
X172582600Y-104657918D01*
X172582600Y-104838082D01*
X172549386Y-105005060D01*
X172547452Y-105014779D01*
X172478508Y-105181225D01*
X172478507Y-105181226D01*
X172378414Y-105331026D01*
X172355612Y-105353828D01*
X172340066Y-105372770D01*
X172328515Y-105394381D01*
X172321402Y-105417830D01*
X172319000Y-105442216D01*
X172319000Y-107599000D01*
X171017000Y-107599000D01*
X171017000Y-105442216D01*
X171014598Y-105417830D01*
X171007485Y-105394381D01*
X170995934Y-105372770D01*
X170980388Y-105353828D01*
X170957586Y-105331026D01*
X170857493Y-105181226D01*
X170857492Y-105181225D01*
X170792117Y-105023396D01*
X170784525Y-105005067D01*
X170783487Y-105001645D01*
X170771937Y-104980033D01*
X170756392Y-104961091D01*
X170737451Y-104945544D01*
X170715840Y-104933992D01*
X170692392Y-104926878D01*
X170668005Y-104924475D01*
X170643619Y-104926876D01*
X170620170Y-104933988D01*
X170598558Y-104945538D01*
X170579616Y-104961083D01*
X170564069Y-104980024D01*
X170552517Y-105001635D01*
X170551478Y-105005060D01*
X170536340Y-105041605D01*
X170478508Y-105181225D01*
X170478507Y-105181226D01*
X170378414Y-105331026D01*
X170355612Y-105353828D01*
X170340066Y-105372770D01*
X170328515Y-105394381D01*
X170321402Y-105417830D01*
X170319000Y-105442216D01*
X170319000Y-107599000D01*
X169017000Y-107599000D01*
X169017000Y-105442216D01*
X169014598Y-105417830D01*
X169007485Y-105394381D01*
X168995934Y-105372770D01*
X168980388Y-105353828D01*
X168957586Y-105331026D01*
X168857493Y-105181226D01*
X168857492Y-105181225D01*
X168792117Y-105023396D01*
X168784525Y-105005067D01*
X168783487Y-105001645D01*
X168771937Y-104980033D01*
X168756392Y-104961091D01*
X168737451Y-104945544D01*
X168715840Y-104933992D01*
X168692392Y-104926878D01*
X168668005Y-104924475D01*
X168643619Y-104926876D01*
X168620170Y-104933988D01*
X168598558Y-104945538D01*
X168579616Y-104961083D01*
X168564069Y-104980024D01*
X168552517Y-105001635D01*
X168551478Y-105005060D01*
X168536340Y-105041605D01*
X168478508Y-105181225D01*
X168478507Y-105181226D01*
X168378414Y-105331026D01*
X168355612Y-105353828D01*
X168340066Y-105372770D01*
X168328515Y-105394381D01*
X168321402Y-105417830D01*
X168319000Y-105442216D01*
X168319000Y-107599000D01*
X167017000Y-107599000D01*
X167017000Y-105442216D01*
X167014598Y-105417830D01*
X167007485Y-105394381D01*
X166995934Y-105372770D01*
X166980388Y-105353828D01*
X166957586Y-105331026D01*
X166857493Y-105181226D01*
X166857492Y-105181225D01*
X166792117Y-105023396D01*
X166784525Y-105005067D01*
X166783487Y-105001645D01*
X166771937Y-104980033D01*
X166756392Y-104961091D01*
X166737451Y-104945544D01*
X166715840Y-104933992D01*
X166692392Y-104926878D01*
X166668005Y-104924475D01*
X166643619Y-104926876D01*
X166620170Y-104933988D01*
X166598558Y-104945538D01*
X166579616Y-104961083D01*
X166564069Y-104980024D01*
X166552517Y-105001635D01*
X166551478Y-105005060D01*
X166536340Y-105041605D01*
X166478508Y-105181225D01*
X166478507Y-105181226D01*
X166378414Y-105331026D01*
X166355612Y-105353828D01*
X166340066Y-105372770D01*
X166328515Y-105394381D01*
X166321402Y-105417830D01*
X166319000Y-105442216D01*
X166319000Y-107599000D01*
X165017000Y-107599000D01*
X165017000Y-105442216D01*
X165014598Y-105417830D01*
X165007485Y-105394381D01*
X164995934Y-105372770D01*
X164980388Y-105353828D01*
X164957586Y-105331026D01*
X164857493Y-105181226D01*
X164857492Y-105181225D01*
X164792117Y-105023396D01*
X164784525Y-105005067D01*
X164783487Y-105001645D01*
X164771937Y-104980033D01*
X164756392Y-104961091D01*
X164737451Y-104945544D01*
X164715840Y-104933992D01*
X164692392Y-104926878D01*
X164668005Y-104924475D01*
X164643619Y-104926876D01*
X164620170Y-104933988D01*
X164598558Y-104945538D01*
X164579616Y-104961083D01*
X164564069Y-104980024D01*
X164552517Y-105001635D01*
X164551478Y-105005060D01*
X164536340Y-105041605D01*
X164478508Y-105181225D01*
X164478507Y-105181226D01*
X164378414Y-105331026D01*
X164355612Y-105353828D01*
X164340066Y-105372770D01*
X164328515Y-105394381D01*
X164321402Y-105417830D01*
X164319000Y-105442216D01*
X164319000Y-107599000D01*
X163017000Y-107599000D01*
X163017000Y-105442216D01*
X163014598Y-105417830D01*
X163007485Y-105394381D01*
X162995934Y-105372770D01*
X162980388Y-105353828D01*
X162957586Y-105331026D01*
X162857493Y-105181226D01*
X162857492Y-105181225D01*
X162792117Y-105023396D01*
X162784525Y-105005067D01*
X162783487Y-105001645D01*
X162771937Y-104980033D01*
X162756392Y-104961091D01*
X162737451Y-104945544D01*
X162715840Y-104933992D01*
X162692392Y-104926878D01*
X162668005Y-104924475D01*
X162643619Y-104926876D01*
X162620170Y-104933988D01*
X162598558Y-104945538D01*
X162579616Y-104961083D01*
X162564069Y-104980024D01*
X162552517Y-105001635D01*
X162551478Y-105005060D01*
X162536340Y-105041605D01*
X162478508Y-105181225D01*
X162478507Y-105181226D01*
X162378414Y-105331026D01*
X162355612Y-105353828D01*
X162340066Y-105372770D01*
X162328515Y-105394381D01*
X162321402Y-105417830D01*
X162319000Y-105442216D01*
X162319000Y-107599000D01*
X161017000Y-107599000D01*
X161017000Y-105442216D01*
X161014598Y-105417830D01*
X161007485Y-105394381D01*
X160995934Y-105372770D01*
X160980388Y-105353828D01*
X160957586Y-105331026D01*
X160857493Y-105181226D01*
X160857492Y-105181225D01*
X160792117Y-105023396D01*
X160784525Y-105005067D01*
X160783487Y-105001645D01*
X160771937Y-104980033D01*
X160756392Y-104961091D01*
X160737451Y-104945544D01*
X160715840Y-104933992D01*
X160692392Y-104926878D01*
X160668005Y-104924475D01*
X160643619Y-104926876D01*
X160620170Y-104933988D01*
X160598558Y-104945538D01*
X160579616Y-104961083D01*
X160564069Y-104980024D01*
X160552517Y-105001635D01*
X160551478Y-105005060D01*
X160536340Y-105041605D01*
X160478508Y-105181225D01*
X160478507Y-105181226D01*
X160378414Y-105331026D01*
X160355612Y-105353828D01*
X160340066Y-105372770D01*
X160328515Y-105394381D01*
X160321402Y-105417830D01*
X160319000Y-105442216D01*
X160319000Y-107599000D01*
X159017000Y-107599000D01*
X159017000Y-105442216D01*
X159014598Y-105417830D01*
X159007485Y-105394381D01*
X158995934Y-105372770D01*
X158980388Y-105353828D01*
X158957586Y-105331026D01*
X158857493Y-105181226D01*
X158857492Y-105181225D01*
X158823083Y-105098155D01*
X158811534Y-105076547D01*
X158795988Y-105057605D01*
X158777046Y-105042060D01*
X158755435Y-105030509D01*
X158731986Y-105023396D01*
X158707600Y-105020994D01*
X158683213Y-105023396D01*
X158659764Y-105030509D01*
X158638153Y-105042060D01*
X158619211Y-105057606D01*
X158603666Y-105076548D01*
X158592115Y-105098159D01*
X158585002Y-105121608D01*
X158582600Y-105145994D01*
X158582600Y-105799000D01*
X158444000Y-105799000D01*
X158419614Y-105801402D01*
X158396165Y-105808515D01*
X158374554Y-105820066D01*
X158355612Y-105835612D01*
X158340066Y-105854554D01*
X158328515Y-105876165D01*
X158321402Y-105899614D01*
X158319000Y-105924000D01*
X158319000Y-107599000D01*
X157017000Y-107599000D01*
X157017000Y-105924000D01*
X157014598Y-105899614D01*
X157007485Y-105876165D01*
X156995934Y-105854554D01*
X156980388Y-105835612D01*
X156961446Y-105820066D01*
X156939835Y-105808515D01*
X156916386Y-105801402D01*
X156892000Y-105799000D01*
X156753400Y-105799000D01*
X156753400Y-103697000D01*
X158582600Y-103697000D01*
X158582600Y-104350006D01*
X158582600Y-104350006D01*
G37*
G36*
X113142000Y-106153000D02*
G01*
X111590000Y-106153000D01*
X111590000Y-103651000D01*
X113142000Y-103651000D01*
X113142000Y-106153000D01*
X113142000Y-106153000D01*
G37*
G36*
X119042000Y-106153000D02*
G01*
X117490000Y-106153000D01*
X117490000Y-103651000D01*
X119042000Y-103651000D01*
X119042000Y-106153000D01*
X119042000Y-106153000D01*
G37*
G36*
X151831000Y-105803000D02*
G01*
X150029000Y-105803000D01*
X150029000Y-104001000D01*
X151831000Y-104001000D01*
X151831000Y-105803000D01*
X151831000Y-105803000D01*
G37*
G36*
X144404000Y-105431000D02*
G01*
X138152000Y-105431000D01*
X138152000Y-103729000D01*
X144404000Y-103729000D01*
X144404000Y-105431000D01*
X144404000Y-105431000D01*
G37*
G36*
X126806443Y-103291519D02*
G01*
X126872627Y-103298037D01*
X126985853Y-103332384D01*
X127042467Y-103349557D01*
X127181087Y-103423652D01*
X127198991Y-103433222D01*
X127201157Y-103435000D01*
X127336186Y-103545814D01*
X127419448Y-103647271D01*
X127448778Y-103683009D01*
X127448779Y-103683011D01*
X127532443Y-103839533D01*
X127532443Y-103839534D01*
X127583963Y-104009373D01*
X127601359Y-104186000D01*
X127583963Y-104362627D01*
X127552760Y-104465491D01*
X127532443Y-104532467D01*
X127499195Y-104594668D01*
X127448778Y-104688991D01*
X127431791Y-104709689D01*
X127336186Y-104826186D01*
X127263714Y-104885661D01*
X127198991Y-104938778D01*
X127198989Y-104938779D01*
X127042467Y-105022443D01*
X127015876Y-105030509D01*
X126872627Y-105073963D01*
X126806443Y-105080481D01*
X126740260Y-105087000D01*
X126651740Y-105087000D01*
X126585557Y-105080481D01*
X126519373Y-105073963D01*
X126376124Y-105030509D01*
X126349533Y-105022443D01*
X126193011Y-104938779D01*
X126193009Y-104938778D01*
X126128286Y-104885661D01*
X126055814Y-104826186D01*
X125960209Y-104709689D01*
X125943222Y-104688991D01*
X125892805Y-104594668D01*
X125859557Y-104532467D01*
X125839240Y-104465491D01*
X125808037Y-104362627D01*
X125790641Y-104186000D01*
X125808037Y-104009373D01*
X125859557Y-103839534D01*
X125859557Y-103839533D01*
X125943221Y-103683011D01*
X125943222Y-103683009D01*
X125972552Y-103647271D01*
X126055814Y-103545814D01*
X126190843Y-103435000D01*
X126193009Y-103433222D01*
X126210913Y-103423652D01*
X126349533Y-103349557D01*
X126406147Y-103332384D01*
X126519373Y-103298037D01*
X126585557Y-103291519D01*
X126651740Y-103285000D01*
X126740260Y-103285000D01*
X126806443Y-103291519D01*
X126806443Y-103291519D01*
G37*
G36*
X130137000Y-105087000D02*
G01*
X128335000Y-105087000D01*
X128335000Y-103285000D01*
X130137000Y-103285000D01*
X130137000Y-105087000D01*
X130137000Y-105087000D01*
G37*
G36*
X146379000Y-103456000D02*
G01*
X144677000Y-103456000D01*
X144677000Y-97204000D01*
X146379000Y-97204000D01*
X146379000Y-103456000D01*
X146379000Y-103456000D01*
G37*
G36*
X137879000Y-103456000D02*
G01*
X136177000Y-103456000D01*
X136177000Y-97204000D01*
X137879000Y-97204000D01*
X137879000Y-103456000D01*
X137879000Y-103456000D01*
G37*
G36*
X151040442Y-101467518D02*
G01*
X151106627Y-101474037D01*
X151219853Y-101508384D01*
X151276467Y-101525557D01*
X151415087Y-101599652D01*
X151432991Y-101609222D01*
X151468729Y-101638552D01*
X151570186Y-101721814D01*
X151653448Y-101823271D01*
X151682778Y-101859009D01*
X151682779Y-101859011D01*
X151766443Y-102015533D01*
X151766443Y-102015534D01*
X151817963Y-102185373D01*
X151835359Y-102362000D01*
X151817963Y-102538627D01*
X151783616Y-102651853D01*
X151766443Y-102708467D01*
X151715379Y-102804000D01*
X151682778Y-102864991D01*
X151653448Y-102900729D01*
X151570186Y-103002186D01*
X151468729Y-103085448D01*
X151432991Y-103114778D01*
X151432989Y-103114779D01*
X151276467Y-103198443D01*
X151219853Y-103215616D01*
X151106627Y-103249963D01*
X151040442Y-103256482D01*
X150974260Y-103263000D01*
X150885740Y-103263000D01*
X150819558Y-103256482D01*
X150753373Y-103249963D01*
X150640147Y-103215616D01*
X150583533Y-103198443D01*
X150427011Y-103114779D01*
X150427009Y-103114778D01*
X150391271Y-103085448D01*
X150289814Y-103002186D01*
X150206552Y-102900729D01*
X150177222Y-102864991D01*
X150144621Y-102804000D01*
X150093557Y-102708467D01*
X150076384Y-102651853D01*
X150042037Y-102538627D01*
X150024641Y-102362000D01*
X150042037Y-102185373D01*
X150093557Y-102015534D01*
X150093557Y-102015533D01*
X150177221Y-101859011D01*
X150177222Y-101859009D01*
X150206552Y-101823271D01*
X150289814Y-101721814D01*
X150391271Y-101638552D01*
X150427009Y-101609222D01*
X150444913Y-101599652D01*
X150583533Y-101525557D01*
X150640147Y-101508384D01*
X150753373Y-101474037D01*
X150819558Y-101467518D01*
X150885740Y-101461000D01*
X150974260Y-101461000D01*
X151040442Y-101467518D01*
X151040442Y-101467518D01*
G37*
G36*
X151040442Y-98927518D02*
G01*
X151106627Y-98934037D01*
X151219853Y-98968384D01*
X151276467Y-98985557D01*
X151415087Y-99059652D01*
X151432991Y-99069222D01*
X151468729Y-99098552D01*
X151570186Y-99181814D01*
X151653448Y-99283271D01*
X151682778Y-99319009D01*
X151682779Y-99319011D01*
X151766443Y-99475533D01*
X151766443Y-99475534D01*
X151817963Y-99645373D01*
X151835359Y-99822000D01*
X151817963Y-99998627D01*
X151783616Y-100111853D01*
X151766443Y-100168467D01*
X151719655Y-100256000D01*
X151682778Y-100324991D01*
X151653448Y-100360729D01*
X151570186Y-100462186D01*
X151468729Y-100545448D01*
X151432991Y-100574778D01*
X151432989Y-100574779D01*
X151276467Y-100658443D01*
X151219853Y-100675616D01*
X151106627Y-100709963D01*
X151040443Y-100716481D01*
X150974260Y-100723000D01*
X150885740Y-100723000D01*
X150819558Y-100716482D01*
X150753373Y-100709963D01*
X150640147Y-100675616D01*
X150583533Y-100658443D01*
X150427011Y-100574779D01*
X150427009Y-100574778D01*
X150391271Y-100545448D01*
X150289814Y-100462186D01*
X150206552Y-100360729D01*
X150177222Y-100324991D01*
X150140345Y-100256000D01*
X150093557Y-100168467D01*
X150076384Y-100111853D01*
X150042037Y-99998627D01*
X150024641Y-99822000D01*
X150042037Y-99645373D01*
X150093557Y-99475534D01*
X150093557Y-99475533D01*
X150177221Y-99319011D01*
X150177222Y-99319009D01*
X150206552Y-99283271D01*
X150289814Y-99181814D01*
X150391271Y-99098552D01*
X150427009Y-99069222D01*
X150444913Y-99059652D01*
X150583533Y-98985557D01*
X150640147Y-98968384D01*
X150753373Y-98934037D01*
X150819557Y-98927519D01*
X150885740Y-98921000D01*
X150974260Y-98921000D01*
X151040442Y-98927518D01*
X151040442Y-98927518D01*
G37*
G36*
X112417000Y-98608000D02*
G01*
X110755000Y-98608000D01*
X110755000Y-95956000D01*
X112417000Y-95956000D01*
X112417000Y-98608000D01*
X112417000Y-98608000D01*
G37*
G36*
X109717000Y-98608000D02*
G01*
X108055000Y-98608000D01*
X108055000Y-95956000D01*
X109717000Y-95956000D01*
X109717000Y-98608000D01*
X109717000Y-98608000D01*
G37*
G36*
X120464562Y-96360181D02*
G01*
X120499477Y-96370773D01*
X120531665Y-96387978D01*
X120559873Y-96411127D01*
X120583022Y-96439335D01*
X120600227Y-96471523D01*
X120610819Y-96506438D01*
X120615000Y-96548895D01*
X120615000Y-98015105D01*
X120610819Y-98057562D01*
X120600227Y-98092477D01*
X120583022Y-98124665D01*
X120559873Y-98152873D01*
X120531665Y-98176022D01*
X120499477Y-98193227D01*
X120464562Y-98203819D01*
X120422105Y-98208000D01*
X119280895Y-98208000D01*
X119238438Y-98203819D01*
X119203523Y-98193227D01*
X119171335Y-98176022D01*
X119143127Y-98152873D01*
X119119978Y-98124665D01*
X119102773Y-98092477D01*
X119092181Y-98057562D01*
X119088000Y-98015105D01*
X119088000Y-96548895D01*
X119092181Y-96506438D01*
X119102773Y-96471523D01*
X119119978Y-96439335D01*
X119143127Y-96411127D01*
X119171335Y-96387978D01*
X119203523Y-96370773D01*
X119238438Y-96360181D01*
X119280895Y-96356000D01*
X120422105Y-96356000D01*
X120464562Y-96360181D01*
X120464562Y-96360181D01*
G37*
G36*
X117489562Y-96360181D02*
G01*
X117524477Y-96370773D01*
X117556665Y-96387978D01*
X117584873Y-96411127D01*
X117608022Y-96439335D01*
X117625227Y-96471523D01*
X117635819Y-96506438D01*
X117640000Y-96548895D01*
X117640000Y-98015105D01*
X117635819Y-98057562D01*
X117625227Y-98092477D01*
X117608022Y-98124665D01*
X117584873Y-98152873D01*
X117556665Y-98176022D01*
X117524477Y-98193227D01*
X117489562Y-98203819D01*
X117447105Y-98208000D01*
X116305895Y-98208000D01*
X116263438Y-98203819D01*
X116228523Y-98193227D01*
X116196335Y-98176022D01*
X116168127Y-98152873D01*
X116144978Y-98124665D01*
X116127773Y-98092477D01*
X116117181Y-98057562D01*
X116113000Y-98015105D01*
X116113000Y-96548895D01*
X116117181Y-96506438D01*
X116127773Y-96471523D01*
X116144978Y-96439335D01*
X116168127Y-96411127D01*
X116196335Y-96387978D01*
X116228523Y-96370773D01*
X116263438Y-96360181D01*
X116305895Y-96356000D01*
X117447105Y-96356000D01*
X117489562Y-96360181D01*
X117489562Y-96360181D01*
G37*
G36*
X151040442Y-96387518D02*
G01*
X151106627Y-96394037D01*
X151219853Y-96428384D01*
X151276467Y-96445557D01*
X151415087Y-96519652D01*
X151432991Y-96529222D01*
X151456962Y-96548895D01*
X151570186Y-96641814D01*
X151653448Y-96743271D01*
X151682778Y-96779009D01*
X151682779Y-96779011D01*
X151766443Y-96935533D01*
X151766443Y-96935534D01*
X151817963Y-97105373D01*
X151835359Y-97282000D01*
X151817963Y-97458627D01*
X151790378Y-97549562D01*
X151766443Y-97628467D01*
X151730959Y-97694852D01*
X151682778Y-97784991D01*
X151653448Y-97820729D01*
X151570186Y-97922186D01*
X151470494Y-98004000D01*
X151432991Y-98034778D01*
X151432989Y-98034779D01*
X151276467Y-98118443D01*
X151255955Y-98124665D01*
X151106627Y-98169963D01*
X151045108Y-98176022D01*
X150974260Y-98183000D01*
X150885740Y-98183000D01*
X150814892Y-98176022D01*
X150753373Y-98169963D01*
X150604045Y-98124665D01*
X150583533Y-98118443D01*
X150427011Y-98034779D01*
X150427009Y-98034778D01*
X150389506Y-98004000D01*
X150289814Y-97922186D01*
X150206552Y-97820729D01*
X150177222Y-97784991D01*
X150129041Y-97694852D01*
X150093557Y-97628467D01*
X150069622Y-97549562D01*
X150042037Y-97458627D01*
X150024641Y-97282000D01*
X150042037Y-97105373D01*
X150093557Y-96935534D01*
X150093557Y-96935533D01*
X150177221Y-96779011D01*
X150177222Y-96779009D01*
X150206552Y-96743271D01*
X150289814Y-96641814D01*
X150403038Y-96548895D01*
X150427009Y-96529222D01*
X150444913Y-96519652D01*
X150583533Y-96445557D01*
X150640147Y-96428384D01*
X150753373Y-96394037D01*
X150819558Y-96387518D01*
X150885740Y-96381000D01*
X150974260Y-96381000D01*
X151040442Y-96387518D01*
X151040442Y-96387518D01*
G37*
G36*
X125617562Y-95852181D02*
G01*
X125652477Y-95862773D01*
X125684665Y-95879978D01*
X125712873Y-95903127D01*
X125736022Y-95931335D01*
X125753227Y-95963523D01*
X125763819Y-95998438D01*
X125768000Y-96040895D01*
X125768000Y-97507105D01*
X125763819Y-97549562D01*
X125753227Y-97584477D01*
X125736022Y-97616665D01*
X125712873Y-97644873D01*
X125684665Y-97668022D01*
X125652477Y-97685227D01*
X125617562Y-97695819D01*
X125575105Y-97700000D01*
X124433895Y-97700000D01*
X124391438Y-97695819D01*
X124356523Y-97685227D01*
X124324335Y-97668022D01*
X124296127Y-97644873D01*
X124272978Y-97616665D01*
X124255773Y-97584477D01*
X124245181Y-97549562D01*
X124241000Y-97507105D01*
X124241000Y-96040895D01*
X124245181Y-95998438D01*
X124255773Y-95963523D01*
X124272978Y-95931335D01*
X124296127Y-95903127D01*
X124324335Y-95879978D01*
X124356523Y-95862773D01*
X124391438Y-95852181D01*
X124433895Y-95848000D01*
X125575105Y-95848000D01*
X125617562Y-95852181D01*
X125617562Y-95852181D01*
G37*
G36*
X128592562Y-95852181D02*
G01*
X128627477Y-95862773D01*
X128659665Y-95879978D01*
X128687873Y-95903127D01*
X128711022Y-95931335D01*
X128728227Y-95963523D01*
X128738819Y-95998438D01*
X128743000Y-96040895D01*
X128743000Y-97507105D01*
X128738819Y-97549562D01*
X128728227Y-97584477D01*
X128711022Y-97616665D01*
X128687873Y-97644873D01*
X128659665Y-97668022D01*
X128627477Y-97685227D01*
X128592562Y-97695819D01*
X128550105Y-97700000D01*
X127408895Y-97700000D01*
X127366438Y-97695819D01*
X127331523Y-97685227D01*
X127299335Y-97668022D01*
X127271127Y-97644873D01*
X127247978Y-97616665D01*
X127230773Y-97584477D01*
X127220181Y-97549562D01*
X127216000Y-97507105D01*
X127216000Y-96040895D01*
X127220181Y-95998438D01*
X127230773Y-95963523D01*
X127247978Y-95931335D01*
X127271127Y-95903127D01*
X127299335Y-95879978D01*
X127331523Y-95862773D01*
X127366438Y-95852181D01*
X127408895Y-95848000D01*
X128550105Y-95848000D01*
X128592562Y-95852181D01*
X128592562Y-95852181D01*
G37*
G36*
X144404000Y-96931000D02*
G01*
X138152000Y-96931000D01*
X138152000Y-95229000D01*
X144404000Y-95229000D01*
X144404000Y-96931000D01*
X144404000Y-96931000D01*
G37*
G36*
X151040443Y-93847519D02*
G01*
X151106627Y-93854037D01*
X151219853Y-93888384D01*
X151276467Y-93905557D01*
X151415087Y-93979652D01*
X151432991Y-93989222D01*
X151468729Y-94018552D01*
X151570186Y-94101814D01*
X151653448Y-94203271D01*
X151682778Y-94239009D01*
X151682779Y-94239011D01*
X151766443Y-94395533D01*
X151766443Y-94395534D01*
X151817963Y-94565373D01*
X151835359Y-94742000D01*
X151817963Y-94918627D01*
X151783616Y-95031853D01*
X151766443Y-95088467D01*
X151692348Y-95227087D01*
X151682778Y-95244991D01*
X151653448Y-95280729D01*
X151570186Y-95382186D01*
X151468729Y-95465448D01*
X151432991Y-95494778D01*
X151432989Y-95494779D01*
X151276467Y-95578443D01*
X151219853Y-95595616D01*
X151106627Y-95629963D01*
X151040442Y-95636482D01*
X150974260Y-95643000D01*
X150885740Y-95643000D01*
X150819558Y-95636482D01*
X150753373Y-95629963D01*
X150640147Y-95595616D01*
X150583533Y-95578443D01*
X150427011Y-95494779D01*
X150427009Y-95494778D01*
X150391271Y-95465448D01*
X150289814Y-95382186D01*
X150206552Y-95280729D01*
X150177222Y-95244991D01*
X150167652Y-95227087D01*
X150093557Y-95088467D01*
X150076384Y-95031853D01*
X150042037Y-94918627D01*
X150024641Y-94742000D01*
X150042037Y-94565373D01*
X150093557Y-94395534D01*
X150093557Y-94395533D01*
X150177221Y-94239011D01*
X150177222Y-94239009D01*
X150206552Y-94203271D01*
X150289814Y-94101814D01*
X150391271Y-94018552D01*
X150427009Y-93989222D01*
X150444913Y-93979652D01*
X150583533Y-93905557D01*
X150640147Y-93888384D01*
X150753373Y-93854037D01*
X150819557Y-93847519D01*
X150885740Y-93841000D01*
X150974260Y-93841000D01*
X151040443Y-93847519D01*
X151040443Y-93847519D01*
G37*
G36*
X148095562Y-92422181D02*
G01*
X148130477Y-92432773D01*
X148162665Y-92449978D01*
X148190873Y-92473127D01*
X148214022Y-92501335D01*
X148231227Y-92533523D01*
X148241819Y-92568438D01*
X148246000Y-92610895D01*
X148246000Y-93752105D01*
X148241819Y-93794562D01*
X148231227Y-93829477D01*
X148214022Y-93861665D01*
X148190873Y-93889873D01*
X148162665Y-93913022D01*
X148130477Y-93930227D01*
X148095562Y-93940819D01*
X148053105Y-93945000D01*
X146586895Y-93945000D01*
X146544438Y-93940819D01*
X146509523Y-93930227D01*
X146477335Y-93913022D01*
X146449127Y-93889873D01*
X146425978Y-93861665D01*
X146408773Y-93829477D01*
X146398181Y-93794562D01*
X146394000Y-93752105D01*
X146394000Y-92610895D01*
X146398181Y-92568438D01*
X146408773Y-92533523D01*
X146425978Y-92501335D01*
X146449127Y-92473127D01*
X146477335Y-92449978D01*
X146509523Y-92432773D01*
X146544438Y-92422181D01*
X146586895Y-92418000D01*
X148053105Y-92418000D01*
X148095562Y-92422181D01*
X148095562Y-92422181D01*
G37*
G36*
X125743562Y-91914181D02*
G01*
X125778477Y-91924773D01*
X125810665Y-91941978D01*
X125838873Y-91965127D01*
X125862022Y-91993335D01*
X125879227Y-92025523D01*
X125889819Y-92060438D01*
X125894000Y-92102895D01*
X125894000Y-93244105D01*
X125889819Y-93286562D01*
X125879227Y-93321477D01*
X125862022Y-93353665D01*
X125838873Y-93381873D01*
X125810665Y-93405022D01*
X125778477Y-93422227D01*
X125743562Y-93432819D01*
X125701105Y-93437000D01*
X124234895Y-93437000D01*
X124192438Y-93432819D01*
X124157523Y-93422227D01*
X124125335Y-93405022D01*
X124097127Y-93381873D01*
X124073978Y-93353665D01*
X124056773Y-93321477D01*
X124046181Y-93286562D01*
X124042000Y-93244105D01*
X124042000Y-92102895D01*
X124046181Y-92060438D01*
X124056773Y-92025523D01*
X124073978Y-91993335D01*
X124097127Y-91965127D01*
X124125335Y-91941978D01*
X124157523Y-91924773D01*
X124192438Y-91914181D01*
X124234895Y-91910000D01*
X125701105Y-91910000D01*
X125743562Y-91914181D01*
X125743562Y-91914181D01*
G37*
G36*
X111901562Y-91280181D02*
G01*
X111936477Y-91290773D01*
X111968665Y-91307978D01*
X111996873Y-91331127D01*
X112020022Y-91359335D01*
X112037227Y-91391523D01*
X112047819Y-91426438D01*
X112052000Y-91468895D01*
X112052000Y-92935105D01*
X112047819Y-92977562D01*
X112037227Y-93012477D01*
X112020022Y-93044665D01*
X111996873Y-93072873D01*
X111968665Y-93096022D01*
X111936477Y-93113227D01*
X111901562Y-93123819D01*
X111859105Y-93128000D01*
X110717895Y-93128000D01*
X110675438Y-93123819D01*
X110640523Y-93113227D01*
X110608335Y-93096022D01*
X110580127Y-93072873D01*
X110556978Y-93044665D01*
X110539773Y-93012477D01*
X110529181Y-92977562D01*
X110525000Y-92935105D01*
X110525000Y-91468895D01*
X110529181Y-91426438D01*
X110539773Y-91391523D01*
X110556978Y-91359335D01*
X110580127Y-91331127D01*
X110608335Y-91307978D01*
X110640523Y-91290773D01*
X110675438Y-91280181D01*
X110717895Y-91276000D01*
X111859105Y-91276000D01*
X111901562Y-91280181D01*
X111901562Y-91280181D01*
G37*
G36*
X114876562Y-91280181D02*
G01*
X114911477Y-91290773D01*
X114943665Y-91307978D01*
X114971873Y-91331127D01*
X114995022Y-91359335D01*
X115012227Y-91391523D01*
X115022819Y-91426438D01*
X115027000Y-91468895D01*
X115027000Y-92935105D01*
X115022819Y-92977562D01*
X115012227Y-93012477D01*
X114995022Y-93044665D01*
X114971873Y-93072873D01*
X114943665Y-93096022D01*
X114911477Y-93113227D01*
X114876562Y-93123819D01*
X114834105Y-93128000D01*
X113692895Y-93128000D01*
X113650438Y-93123819D01*
X113615523Y-93113227D01*
X113583335Y-93096022D01*
X113555127Y-93072873D01*
X113531978Y-93044665D01*
X113514773Y-93012477D01*
X113504181Y-92977562D01*
X113500000Y-92935105D01*
X113500000Y-91468895D01*
X113504181Y-91426438D01*
X113514773Y-91391523D01*
X113531978Y-91359335D01*
X113555127Y-91331127D01*
X113583335Y-91307978D01*
X113615523Y-91290773D01*
X113650438Y-91280181D01*
X113692895Y-91276000D01*
X114834105Y-91276000D01*
X114876562Y-91280181D01*
X114876562Y-91280181D01*
G37*
G36*
X108272562Y-91280181D02*
G01*
X108307477Y-91290773D01*
X108339665Y-91307978D01*
X108367873Y-91331127D01*
X108391022Y-91359335D01*
X108408227Y-91391523D01*
X108418819Y-91426438D01*
X108423000Y-91468895D01*
X108423000Y-92935105D01*
X108418819Y-92977562D01*
X108408227Y-93012477D01*
X108391022Y-93044665D01*
X108367873Y-93072873D01*
X108339665Y-93096022D01*
X108307477Y-93113227D01*
X108272562Y-93123819D01*
X108230105Y-93128000D01*
X107088895Y-93128000D01*
X107046438Y-93123819D01*
X107011523Y-93113227D01*
X106979335Y-93096022D01*
X106951127Y-93072873D01*
X106927978Y-93044665D01*
X106910773Y-93012477D01*
X106900181Y-92977562D01*
X106896000Y-92935105D01*
X106896000Y-91468895D01*
X106900181Y-91426438D01*
X106910773Y-91391523D01*
X106927978Y-91359335D01*
X106951127Y-91331127D01*
X106979335Y-91307978D01*
X107011523Y-91290773D01*
X107046438Y-91280181D01*
X107088895Y-91276000D01*
X108230105Y-91276000D01*
X108272562Y-91280181D01*
X108272562Y-91280181D01*
G37*
G36*
X118505562Y-91280181D02*
G01*
X118540477Y-91290773D01*
X118572665Y-91307978D01*
X118600873Y-91331127D01*
X118624022Y-91359335D01*
X118641227Y-91391523D01*
X118651819Y-91426438D01*
X118656000Y-91468895D01*
X118656000Y-92935105D01*
X118651819Y-92977562D01*
X118641227Y-93012477D01*
X118624022Y-93044665D01*
X118600873Y-93072873D01*
X118572665Y-93096022D01*
X118540477Y-93113227D01*
X118505562Y-93123819D01*
X118463105Y-93128000D01*
X117321895Y-93128000D01*
X117279438Y-93123819D01*
X117244523Y-93113227D01*
X117212335Y-93096022D01*
X117184127Y-93072873D01*
X117160978Y-93044665D01*
X117143773Y-93012477D01*
X117133181Y-92977562D01*
X117129000Y-92935105D01*
X117129000Y-91468895D01*
X117133181Y-91426438D01*
X117143773Y-91391523D01*
X117160978Y-91359335D01*
X117184127Y-91331127D01*
X117212335Y-91307978D01*
X117244523Y-91290773D01*
X117279438Y-91280181D01*
X117321895Y-91276000D01*
X118463105Y-91276000D01*
X118505562Y-91280181D01*
X118505562Y-91280181D01*
G37*
G36*
X121480562Y-91280181D02*
G01*
X121515477Y-91290773D01*
X121547665Y-91307978D01*
X121575873Y-91331127D01*
X121599022Y-91359335D01*
X121616227Y-91391523D01*
X121626819Y-91426438D01*
X121631000Y-91468895D01*
X121631000Y-92935105D01*
X121626819Y-92977562D01*
X121616227Y-93012477D01*
X121599022Y-93044665D01*
X121575873Y-93072873D01*
X121547665Y-93096022D01*
X121515477Y-93113227D01*
X121480562Y-93123819D01*
X121438105Y-93128000D01*
X120296895Y-93128000D01*
X120254438Y-93123819D01*
X120219523Y-93113227D01*
X120187335Y-93096022D01*
X120159127Y-93072873D01*
X120135978Y-93044665D01*
X120118773Y-93012477D01*
X120108181Y-92977562D01*
X120104000Y-92935105D01*
X120104000Y-91468895D01*
X120108181Y-91426438D01*
X120118773Y-91391523D01*
X120135978Y-91359335D01*
X120159127Y-91331127D01*
X120187335Y-91307978D01*
X120219523Y-91290773D01*
X120254438Y-91280181D01*
X120296895Y-91276000D01*
X121438105Y-91276000D01*
X121480562Y-91280181D01*
X121480562Y-91280181D01*
G37*
G36*
X105297562Y-91280181D02*
G01*
X105332477Y-91290773D01*
X105364665Y-91307978D01*
X105392873Y-91331127D01*
X105416022Y-91359335D01*
X105433227Y-91391523D01*
X105443819Y-91426438D01*
X105448000Y-91468895D01*
X105448000Y-92935105D01*
X105443819Y-92977562D01*
X105433227Y-93012477D01*
X105416022Y-93044665D01*
X105392873Y-93072873D01*
X105364665Y-93096022D01*
X105332477Y-93113227D01*
X105297562Y-93123819D01*
X105255105Y-93128000D01*
X104113895Y-93128000D01*
X104071438Y-93123819D01*
X104036523Y-93113227D01*
X104004335Y-93096022D01*
X103976127Y-93072873D01*
X103952978Y-93044665D01*
X103935773Y-93012477D01*
X103925181Y-92977562D01*
X103921000Y-92935105D01*
X103921000Y-91468895D01*
X103925181Y-91426438D01*
X103935773Y-91391523D01*
X103952978Y-91359335D01*
X103976127Y-91331127D01*
X104004335Y-91307978D01*
X104036523Y-91290773D01*
X104071438Y-91280181D01*
X104113895Y-91276000D01*
X105255105Y-91276000D01*
X105297562Y-91280181D01*
X105297562Y-91280181D01*
G37*
G36*
X151040443Y-91307519D02*
G01*
X151106627Y-91314037D01*
X151219853Y-91348384D01*
X151276467Y-91365557D01*
X151415087Y-91439652D01*
X151432991Y-91449222D01*
X151456962Y-91468895D01*
X151570186Y-91561814D01*
X151653448Y-91663271D01*
X151682778Y-91699009D01*
X151682779Y-91699011D01*
X151766443Y-91855533D01*
X151766443Y-91855534D01*
X151817963Y-92025373D01*
X151835359Y-92202000D01*
X151817963Y-92378627D01*
X151796319Y-92449978D01*
X151766443Y-92548467D01*
X151755768Y-92568438D01*
X151682778Y-92704991D01*
X151679796Y-92708624D01*
X151570186Y-92842186D01*
X151468729Y-92925448D01*
X151432991Y-92954778D01*
X151432989Y-92954779D01*
X151276467Y-93038443D01*
X151255955Y-93044665D01*
X151106627Y-93089963D01*
X151045108Y-93096022D01*
X150974260Y-93103000D01*
X150885740Y-93103000D01*
X150814892Y-93096022D01*
X150753373Y-93089963D01*
X150604045Y-93044665D01*
X150583533Y-93038443D01*
X150427011Y-92954779D01*
X150427009Y-92954778D01*
X150391271Y-92925448D01*
X150289814Y-92842186D01*
X150180204Y-92708624D01*
X150177222Y-92704991D01*
X150104232Y-92568438D01*
X150093557Y-92548467D01*
X150063681Y-92449978D01*
X150042037Y-92378627D01*
X150024641Y-92202000D01*
X150042037Y-92025373D01*
X150093557Y-91855534D01*
X150093557Y-91855533D01*
X150177221Y-91699011D01*
X150177222Y-91699009D01*
X150206552Y-91663271D01*
X150289814Y-91561814D01*
X150403038Y-91468895D01*
X150427009Y-91449222D01*
X150444913Y-91439652D01*
X150583533Y-91365557D01*
X150640147Y-91348384D01*
X150753373Y-91314037D01*
X150819557Y-91307519D01*
X150885740Y-91301000D01*
X150974260Y-91301000D01*
X151040443Y-91307519D01*
X151040443Y-91307519D01*
G37*
G36*
X135831562Y-91026181D02*
G01*
X135866477Y-91036773D01*
X135898665Y-91053978D01*
X135926873Y-91077127D01*
X135950022Y-91105335D01*
X135967227Y-91137523D01*
X135977819Y-91172438D01*
X135982000Y-91214895D01*
X135982000Y-92681105D01*
X135977819Y-92723562D01*
X135967227Y-92758477D01*
X135950022Y-92790665D01*
X135926873Y-92818873D01*
X135898665Y-92842022D01*
X135866477Y-92859227D01*
X135831562Y-92869819D01*
X135789105Y-92874000D01*
X134647895Y-92874000D01*
X134605438Y-92869819D01*
X134570523Y-92859227D01*
X134538335Y-92842022D01*
X134510127Y-92818873D01*
X134486978Y-92790665D01*
X134469773Y-92758477D01*
X134459181Y-92723562D01*
X134455000Y-92681105D01*
X134455000Y-91214895D01*
X134459181Y-91172438D01*
X134469773Y-91137523D01*
X134486978Y-91105335D01*
X134510127Y-91077127D01*
X134538335Y-91053978D01*
X134570523Y-91036773D01*
X134605438Y-91026181D01*
X134647895Y-91022000D01*
X135789105Y-91022000D01*
X135831562Y-91026181D01*
X135831562Y-91026181D01*
G37*
G36*
X138806562Y-91026181D02*
G01*
X138841477Y-91036773D01*
X138873665Y-91053978D01*
X138901873Y-91077127D01*
X138925022Y-91105335D01*
X138942227Y-91137523D01*
X138952819Y-91172438D01*
X138957000Y-91214895D01*
X138957000Y-92681105D01*
X138952819Y-92723562D01*
X138942227Y-92758477D01*
X138925022Y-92790665D01*
X138901873Y-92818873D01*
X138873665Y-92842022D01*
X138841477Y-92859227D01*
X138806562Y-92869819D01*
X138764105Y-92874000D01*
X137622895Y-92874000D01*
X137580438Y-92869819D01*
X137545523Y-92859227D01*
X137513335Y-92842022D01*
X137485127Y-92818873D01*
X137461978Y-92790665D01*
X137444773Y-92758477D01*
X137434181Y-92723562D01*
X137430000Y-92681105D01*
X137430000Y-91214895D01*
X137434181Y-91172438D01*
X137444773Y-91137523D01*
X137461978Y-91105335D01*
X137485127Y-91077127D01*
X137513335Y-91053978D01*
X137545523Y-91036773D01*
X137580438Y-91026181D01*
X137622895Y-91022000D01*
X138764105Y-91022000D01*
X138806562Y-91026181D01*
X138806562Y-91026181D01*
G37*
G36*
X141419562Y-91026181D02*
G01*
X141454477Y-91036773D01*
X141486665Y-91053978D01*
X141514873Y-91077127D01*
X141538022Y-91105335D01*
X141555227Y-91137523D01*
X141565819Y-91172438D01*
X141570000Y-91214895D01*
X141570000Y-92681105D01*
X141565819Y-92723562D01*
X141555227Y-92758477D01*
X141538022Y-92790665D01*
X141514873Y-92818873D01*
X141486665Y-92842022D01*
X141454477Y-92859227D01*
X141419562Y-92869819D01*
X141377105Y-92874000D01*
X140235895Y-92874000D01*
X140193438Y-92869819D01*
X140158523Y-92859227D01*
X140126335Y-92842022D01*
X140098127Y-92818873D01*
X140074978Y-92790665D01*
X140057773Y-92758477D01*
X140047181Y-92723562D01*
X140043000Y-92681105D01*
X140043000Y-91214895D01*
X140047181Y-91172438D01*
X140057773Y-91137523D01*
X140074978Y-91105335D01*
X140098127Y-91077127D01*
X140126335Y-91053978D01*
X140158523Y-91036773D01*
X140193438Y-91026181D01*
X140235895Y-91022000D01*
X141377105Y-91022000D01*
X141419562Y-91026181D01*
X141419562Y-91026181D01*
G37*
G36*
X144394562Y-91026181D02*
G01*
X144429477Y-91036773D01*
X144461665Y-91053978D01*
X144489873Y-91077127D01*
X144513022Y-91105335D01*
X144530227Y-91137523D01*
X144540819Y-91172438D01*
X144545000Y-91214895D01*
X144545000Y-92681105D01*
X144540819Y-92723562D01*
X144530227Y-92758477D01*
X144513022Y-92790665D01*
X144489873Y-92818873D01*
X144461665Y-92842022D01*
X144429477Y-92859227D01*
X144394562Y-92869819D01*
X144352105Y-92874000D01*
X143210895Y-92874000D01*
X143168438Y-92869819D01*
X143133523Y-92859227D01*
X143101335Y-92842022D01*
X143073127Y-92818873D01*
X143049978Y-92790665D01*
X143032773Y-92758477D01*
X143022181Y-92723562D01*
X143018000Y-92681105D01*
X143018000Y-91214895D01*
X143022181Y-91172438D01*
X143032773Y-91137523D01*
X143049978Y-91105335D01*
X143073127Y-91077127D01*
X143101335Y-91053978D01*
X143133523Y-91036773D01*
X143168438Y-91026181D01*
X143210895Y-91022000D01*
X144352105Y-91022000D01*
X144394562Y-91026181D01*
X144394562Y-91026181D01*
G37*
G36*
X177010905Y-88886789D02*
G01*
X177309350Y-88946153D01*
X177637122Y-89081921D01*
X177932109Y-89279025D01*
X178182975Y-89529891D01*
X178380079Y-89824878D01*
X178515847Y-90152650D01*
X178585060Y-90500611D01*
X178585060Y-90855389D01*
X178515847Y-91203350D01*
X178380079Y-91531122D01*
X178182975Y-91826109D01*
X177932109Y-92076975D01*
X177637122Y-92274079D01*
X177309350Y-92409847D01*
X177010905Y-92469211D01*
X176961390Y-92479060D01*
X176606610Y-92479060D01*
X176557095Y-92469211D01*
X176258650Y-92409847D01*
X175930878Y-92274079D01*
X175635891Y-92076975D01*
X175385025Y-91826109D01*
X175187921Y-91531122D01*
X175052153Y-91203350D01*
X174982940Y-90855389D01*
X174982940Y-90500611D01*
X175052153Y-90152650D01*
X175187921Y-89824878D01*
X175385025Y-89529891D01*
X175635891Y-89279025D01*
X175930878Y-89081921D01*
X176258650Y-88946153D01*
X176557095Y-88886789D01*
X176606610Y-88876940D01*
X176961390Y-88876940D01*
X177010905Y-88886789D01*
X177010905Y-88886789D01*
G37*
G36*
X148095562Y-89447181D02*
G01*
X148130477Y-89457773D01*
X148162665Y-89474978D01*
X148190873Y-89498127D01*
X148214022Y-89526335D01*
X148231227Y-89558523D01*
X148241819Y-89593438D01*
X148246000Y-89635895D01*
X148246000Y-90777105D01*
X148241819Y-90819562D01*
X148231227Y-90854477D01*
X148214022Y-90886665D01*
X148190873Y-90914873D01*
X148162665Y-90938022D01*
X148130477Y-90955227D01*
X148095562Y-90965819D01*
X148053105Y-90970000D01*
X146586895Y-90970000D01*
X146544438Y-90965819D01*
X146509523Y-90955227D01*
X146477335Y-90938022D01*
X146449127Y-90914873D01*
X146425978Y-90886665D01*
X146408773Y-90854477D01*
X146398181Y-90819562D01*
X146394000Y-90777105D01*
X146394000Y-89635895D01*
X146398181Y-89593438D01*
X146408773Y-89558523D01*
X146425978Y-89526335D01*
X146449127Y-89498127D01*
X146477335Y-89474978D01*
X146509523Y-89457773D01*
X146544438Y-89447181D01*
X146586895Y-89443000D01*
X148053105Y-89443000D01*
X148095562Y-89447181D01*
X148095562Y-89447181D01*
G37*
G36*
X125743562Y-88939181D02*
G01*
X125778477Y-88949773D01*
X125810665Y-88966978D01*
X125838873Y-88990127D01*
X125862022Y-89018335D01*
X125879227Y-89050523D01*
X125889819Y-89085438D01*
X125894000Y-89127895D01*
X125894000Y-90269105D01*
X125889819Y-90311562D01*
X125879227Y-90346477D01*
X125862022Y-90378665D01*
X125838873Y-90406873D01*
X125810665Y-90430022D01*
X125778477Y-90447227D01*
X125743562Y-90457819D01*
X125701105Y-90462000D01*
X124234895Y-90462000D01*
X124192438Y-90457819D01*
X124157523Y-90447227D01*
X124125335Y-90430022D01*
X124097127Y-90406873D01*
X124073978Y-90378665D01*
X124056773Y-90346477D01*
X124046181Y-90311562D01*
X124042000Y-90269105D01*
X124042000Y-89127895D01*
X124046181Y-89085438D01*
X124056773Y-89050523D01*
X124073978Y-89018335D01*
X124097127Y-88990127D01*
X124125335Y-88966978D01*
X124157523Y-88949773D01*
X124192438Y-88939181D01*
X124234895Y-88935000D01*
X125701105Y-88935000D01*
X125743562Y-88939181D01*
X125743562Y-88939181D01*
G37*
G36*
X158319000Y-86953784D02*
G01*
X158321402Y-86978170D01*
X158328515Y-87001619D01*
X158340066Y-87023230D01*
X158355612Y-87042172D01*
X158378414Y-87064974D01*
X158378416Y-87064977D01*
X158478508Y-87214775D01*
X158517833Y-87309714D01*
X158551475Y-87390933D01*
X158552513Y-87394355D01*
X158564063Y-87415967D01*
X158579608Y-87434909D01*
X158598549Y-87450456D01*
X158620160Y-87462008D01*
X158643608Y-87469122D01*
X158667995Y-87471525D01*
X158692381Y-87469124D01*
X158715830Y-87462012D01*
X158737442Y-87450462D01*
X158756384Y-87434917D01*
X158771931Y-87415976D01*
X158783483Y-87394365D01*
X158784522Y-87390940D01*
X158818167Y-87309714D01*
X158857492Y-87214775D01*
X158957584Y-87064977D01*
X158957586Y-87064974D01*
X158980388Y-87042172D01*
X158995934Y-87023230D01*
X159007485Y-87001619D01*
X159014598Y-86978170D01*
X159017000Y-86953784D01*
X159017000Y-84797000D01*
X160319000Y-84797000D01*
X160319000Y-86953784D01*
X160321402Y-86978170D01*
X160328515Y-87001619D01*
X160340066Y-87023230D01*
X160355612Y-87042172D01*
X160378414Y-87064974D01*
X160378416Y-87064977D01*
X160478508Y-87214775D01*
X160517833Y-87309714D01*
X160551475Y-87390933D01*
X160552513Y-87394355D01*
X160564063Y-87415967D01*
X160579608Y-87434909D01*
X160598549Y-87450456D01*
X160620160Y-87462008D01*
X160643608Y-87469122D01*
X160667995Y-87471525D01*
X160692381Y-87469124D01*
X160715830Y-87462012D01*
X160737442Y-87450462D01*
X160756384Y-87434917D01*
X160771931Y-87415976D01*
X160783483Y-87394365D01*
X160784522Y-87390940D01*
X160818167Y-87309714D01*
X160857492Y-87214775D01*
X160957584Y-87064977D01*
X160957586Y-87064974D01*
X160980388Y-87042172D01*
X160995934Y-87023230D01*
X161007485Y-87001619D01*
X161014598Y-86978170D01*
X161017000Y-86953784D01*
X161017000Y-84797000D01*
X162319000Y-84797000D01*
X162319000Y-86953784D01*
X162321402Y-86978170D01*
X162328515Y-87001619D01*
X162340066Y-87023230D01*
X162355612Y-87042172D01*
X162378414Y-87064974D01*
X162378416Y-87064977D01*
X162478508Y-87214775D01*
X162517833Y-87309714D01*
X162551475Y-87390933D01*
X162552513Y-87394355D01*
X162564063Y-87415967D01*
X162579608Y-87434909D01*
X162598549Y-87450456D01*
X162620160Y-87462008D01*
X162643608Y-87469122D01*
X162667995Y-87471525D01*
X162692381Y-87469124D01*
X162715830Y-87462012D01*
X162737442Y-87450462D01*
X162756384Y-87434917D01*
X162771931Y-87415976D01*
X162783483Y-87394365D01*
X162784522Y-87390940D01*
X162818167Y-87309714D01*
X162857492Y-87214775D01*
X162957584Y-87064977D01*
X162957586Y-87064974D01*
X162980388Y-87042172D01*
X162995934Y-87023230D01*
X163007485Y-87001619D01*
X163014598Y-86978170D01*
X163017000Y-86953784D01*
X163017000Y-84797000D01*
X164319000Y-84797000D01*
X164319000Y-86953784D01*
X164321402Y-86978170D01*
X164328515Y-87001619D01*
X164340066Y-87023230D01*
X164355612Y-87042172D01*
X164378414Y-87064974D01*
X164378416Y-87064977D01*
X164478508Y-87214775D01*
X164517833Y-87309714D01*
X164551475Y-87390933D01*
X164552513Y-87394355D01*
X164564063Y-87415967D01*
X164579608Y-87434909D01*
X164598549Y-87450456D01*
X164620160Y-87462008D01*
X164643608Y-87469122D01*
X164667995Y-87471525D01*
X164692381Y-87469124D01*
X164715830Y-87462012D01*
X164737442Y-87450462D01*
X164756384Y-87434917D01*
X164771931Y-87415976D01*
X164783483Y-87394365D01*
X164784522Y-87390940D01*
X164818167Y-87309714D01*
X164857492Y-87214775D01*
X164957584Y-87064977D01*
X164957586Y-87064974D01*
X164980388Y-87042172D01*
X164995934Y-87023230D01*
X165007485Y-87001619D01*
X165014598Y-86978170D01*
X165017000Y-86953784D01*
X165017000Y-84797000D01*
X166319000Y-84797000D01*
X166319000Y-86953784D01*
X166321402Y-86978170D01*
X166328515Y-87001619D01*
X166340066Y-87023230D01*
X166355612Y-87042172D01*
X166378414Y-87064974D01*
X166378416Y-87064977D01*
X166478508Y-87214775D01*
X166517833Y-87309714D01*
X166551475Y-87390933D01*
X166552513Y-87394355D01*
X166564063Y-87415967D01*
X166579608Y-87434909D01*
X166598549Y-87450456D01*
X166620160Y-87462008D01*
X166643608Y-87469122D01*
X166667995Y-87471525D01*
X166692381Y-87469124D01*
X166715830Y-87462012D01*
X166737442Y-87450462D01*
X166756384Y-87434917D01*
X166771931Y-87415976D01*
X166783483Y-87394365D01*
X166784522Y-87390940D01*
X166818167Y-87309714D01*
X166857492Y-87214775D01*
X166957584Y-87064977D01*
X166957586Y-87064974D01*
X166980388Y-87042172D01*
X166995934Y-87023230D01*
X167007485Y-87001619D01*
X167014598Y-86978170D01*
X167017000Y-86953784D01*
X167017000Y-84797000D01*
X168319000Y-84797000D01*
X168319000Y-86953784D01*
X168321402Y-86978170D01*
X168328515Y-87001619D01*
X168340066Y-87023230D01*
X168355612Y-87042172D01*
X168378414Y-87064974D01*
X168378416Y-87064977D01*
X168478508Y-87214775D01*
X168517833Y-87309714D01*
X168551475Y-87390933D01*
X168552513Y-87394355D01*
X168564063Y-87415967D01*
X168579608Y-87434909D01*
X168598549Y-87450456D01*
X168620160Y-87462008D01*
X168643608Y-87469122D01*
X168667995Y-87471525D01*
X168692381Y-87469124D01*
X168715830Y-87462012D01*
X168737442Y-87450462D01*
X168756384Y-87434917D01*
X168771931Y-87415976D01*
X168783483Y-87394365D01*
X168784522Y-87390940D01*
X168818167Y-87309714D01*
X168857492Y-87214775D01*
X168957584Y-87064977D01*
X168957586Y-87064974D01*
X168980388Y-87042172D01*
X168995934Y-87023230D01*
X169007485Y-87001619D01*
X169014598Y-86978170D01*
X169017000Y-86953784D01*
X169017000Y-84797000D01*
X170319000Y-84797000D01*
X170319000Y-86953784D01*
X170321402Y-86978170D01*
X170328515Y-87001619D01*
X170340066Y-87023230D01*
X170355612Y-87042172D01*
X170378414Y-87064974D01*
X170378416Y-87064977D01*
X170478508Y-87214775D01*
X170517833Y-87309714D01*
X170551475Y-87390933D01*
X170552513Y-87394355D01*
X170564063Y-87415967D01*
X170579608Y-87434909D01*
X170598549Y-87450456D01*
X170620160Y-87462008D01*
X170643608Y-87469122D01*
X170667995Y-87471525D01*
X170692381Y-87469124D01*
X170715830Y-87462012D01*
X170737442Y-87450462D01*
X170756384Y-87434917D01*
X170771931Y-87415976D01*
X170783483Y-87394365D01*
X170784522Y-87390940D01*
X170818167Y-87309714D01*
X170857492Y-87214775D01*
X170957584Y-87064977D01*
X170957586Y-87064974D01*
X170980388Y-87042172D01*
X170995934Y-87023230D01*
X171007485Y-87001619D01*
X171014598Y-86978170D01*
X171017000Y-86953784D01*
X171017000Y-84797000D01*
X172319000Y-84797000D01*
X172319000Y-86953784D01*
X172321402Y-86978170D01*
X172328515Y-87001619D01*
X172340066Y-87023230D01*
X172355612Y-87042172D01*
X172378414Y-87064974D01*
X172378416Y-87064977D01*
X172478508Y-87214775D01*
X172544719Y-87374624D01*
X172547453Y-87381224D01*
X172582600Y-87557918D01*
X172582600Y-87738082D01*
X172549386Y-87905060D01*
X172547452Y-87914779D01*
X172478508Y-88081225D01*
X172478507Y-88081226D01*
X172378414Y-88231026D01*
X172251026Y-88358414D01*
X172251023Y-88358416D01*
X172101225Y-88458508D01*
X171934779Y-88527452D01*
X171934778Y-88527452D01*
X171934776Y-88527453D01*
X171758082Y-88562600D01*
X171577918Y-88562600D01*
X171401224Y-88527453D01*
X171401222Y-88527452D01*
X171401221Y-88527452D01*
X171234775Y-88458508D01*
X171084977Y-88358416D01*
X171084974Y-88358414D01*
X170957586Y-88231026D01*
X170857493Y-88081226D01*
X170857492Y-88081225D01*
X170788548Y-87914779D01*
X170788547Y-87914776D01*
X170784525Y-87905067D01*
X170783487Y-87901645D01*
X170771937Y-87880033D01*
X170756392Y-87861091D01*
X170737451Y-87845544D01*
X170715840Y-87833992D01*
X170692392Y-87826878D01*
X170668005Y-87824475D01*
X170643619Y-87826876D01*
X170620170Y-87833988D01*
X170598558Y-87845538D01*
X170579616Y-87861083D01*
X170564069Y-87880024D01*
X170552517Y-87901635D01*
X170551478Y-87905060D01*
X170547453Y-87914776D01*
X170547452Y-87914779D01*
X170478508Y-88081225D01*
X170478507Y-88081226D01*
X170378414Y-88231026D01*
X170251026Y-88358414D01*
X170251023Y-88358416D01*
X170101225Y-88458508D01*
X169934779Y-88527452D01*
X169934778Y-88527452D01*
X169934776Y-88527453D01*
X169758082Y-88562600D01*
X169577918Y-88562600D01*
X169401224Y-88527453D01*
X169401222Y-88527452D01*
X169401221Y-88527452D01*
X169234775Y-88458508D01*
X169084977Y-88358416D01*
X169084974Y-88358414D01*
X168957586Y-88231026D01*
X168857493Y-88081226D01*
X168857492Y-88081225D01*
X168788548Y-87914779D01*
X168788547Y-87914776D01*
X168784525Y-87905067D01*
X168783487Y-87901645D01*
X168771937Y-87880033D01*
X168756392Y-87861091D01*
X168737451Y-87845544D01*
X168715840Y-87833992D01*
X168692392Y-87826878D01*
X168668005Y-87824475D01*
X168643619Y-87826876D01*
X168620170Y-87833988D01*
X168598558Y-87845538D01*
X168579616Y-87861083D01*
X168564069Y-87880024D01*
X168552517Y-87901635D01*
X168551478Y-87905060D01*
X168547453Y-87914776D01*
X168547452Y-87914779D01*
X168478508Y-88081225D01*
X168478507Y-88081226D01*
X168378414Y-88231026D01*
X168251026Y-88358414D01*
X168251023Y-88358416D01*
X168101225Y-88458508D01*
X167934779Y-88527452D01*
X167934778Y-88527452D01*
X167934776Y-88527453D01*
X167758082Y-88562600D01*
X167577918Y-88562600D01*
X167401224Y-88527453D01*
X167401222Y-88527452D01*
X167401221Y-88527452D01*
X167234775Y-88458508D01*
X167084977Y-88358416D01*
X167084974Y-88358414D01*
X166957586Y-88231026D01*
X166857493Y-88081226D01*
X166857492Y-88081225D01*
X166788548Y-87914779D01*
X166788547Y-87914776D01*
X166784525Y-87905067D01*
X166783487Y-87901645D01*
X166771937Y-87880033D01*
X166756392Y-87861091D01*
X166737451Y-87845544D01*
X166715840Y-87833992D01*
X166692392Y-87826878D01*
X166668005Y-87824475D01*
X166643619Y-87826876D01*
X166620170Y-87833988D01*
X166598558Y-87845538D01*
X166579616Y-87861083D01*
X166564069Y-87880024D01*
X166552517Y-87901635D01*
X166551478Y-87905060D01*
X166547453Y-87914776D01*
X166547452Y-87914779D01*
X166478508Y-88081225D01*
X166478507Y-88081226D01*
X166378414Y-88231026D01*
X166251026Y-88358414D01*
X166251023Y-88358416D01*
X166101225Y-88458508D01*
X165934779Y-88527452D01*
X165934778Y-88527452D01*
X165934776Y-88527453D01*
X165758082Y-88562600D01*
X165577918Y-88562600D01*
X165401224Y-88527453D01*
X165401222Y-88527452D01*
X165401221Y-88527452D01*
X165234775Y-88458508D01*
X165084977Y-88358416D01*
X165084974Y-88358414D01*
X164957586Y-88231026D01*
X164857493Y-88081226D01*
X164857492Y-88081225D01*
X164788548Y-87914779D01*
X164788547Y-87914776D01*
X164784525Y-87905067D01*
X164783487Y-87901645D01*
X164771937Y-87880033D01*
X164756392Y-87861091D01*
X164737451Y-87845544D01*
X164715840Y-87833992D01*
X164692392Y-87826878D01*
X164668005Y-87824475D01*
X164643619Y-87826876D01*
X164620170Y-87833988D01*
X164598558Y-87845538D01*
X164579616Y-87861083D01*
X164564069Y-87880024D01*
X164552517Y-87901635D01*
X164551478Y-87905060D01*
X164547453Y-87914776D01*
X164547452Y-87914779D01*
X164478508Y-88081225D01*
X164478507Y-88081226D01*
X164378414Y-88231026D01*
X164251026Y-88358414D01*
X164251023Y-88358416D01*
X164101225Y-88458508D01*
X163934779Y-88527452D01*
X163934778Y-88527452D01*
X163934776Y-88527453D01*
X163758082Y-88562600D01*
X163577918Y-88562600D01*
X163401224Y-88527453D01*
X163401222Y-88527452D01*
X163401221Y-88527452D01*
X163234775Y-88458508D01*
X163084977Y-88358416D01*
X163084974Y-88358414D01*
X162957586Y-88231026D01*
X162857493Y-88081226D01*
X162857492Y-88081225D01*
X162788548Y-87914779D01*
X162788547Y-87914776D01*
X162784525Y-87905067D01*
X162783487Y-87901645D01*
X162771937Y-87880033D01*
X162756392Y-87861091D01*
X162737451Y-87845544D01*
X162715840Y-87833992D01*
X162692392Y-87826878D01*
X162668005Y-87824475D01*
X162643619Y-87826876D01*
X162620170Y-87833988D01*
X162598558Y-87845538D01*
X162579616Y-87861083D01*
X162564069Y-87880024D01*
X162552517Y-87901635D01*
X162551478Y-87905060D01*
X162547453Y-87914776D01*
X162547452Y-87914779D01*
X162478508Y-88081225D01*
X162478507Y-88081226D01*
X162378414Y-88231026D01*
X162251026Y-88358414D01*
X162251023Y-88358416D01*
X162101225Y-88458508D01*
X161934779Y-88527452D01*
X161934778Y-88527452D01*
X161934776Y-88527453D01*
X161758082Y-88562600D01*
X161577918Y-88562600D01*
X161401224Y-88527453D01*
X161401222Y-88527452D01*
X161401221Y-88527452D01*
X161234775Y-88458508D01*
X161084977Y-88358416D01*
X161084974Y-88358414D01*
X160957586Y-88231026D01*
X160857493Y-88081226D01*
X160857492Y-88081225D01*
X160788548Y-87914779D01*
X160788547Y-87914776D01*
X160784525Y-87905067D01*
X160783487Y-87901645D01*
X160771937Y-87880033D01*
X160756392Y-87861091D01*
X160737451Y-87845544D01*
X160715840Y-87833992D01*
X160692392Y-87826878D01*
X160668005Y-87824475D01*
X160643619Y-87826876D01*
X160620170Y-87833988D01*
X160598558Y-87845538D01*
X160579616Y-87861083D01*
X160564069Y-87880024D01*
X160552517Y-87901635D01*
X160551478Y-87905060D01*
X160547453Y-87914776D01*
X160547452Y-87914779D01*
X160478508Y-88081225D01*
X160478507Y-88081226D01*
X160378414Y-88231026D01*
X160251026Y-88358414D01*
X160251023Y-88358416D01*
X160101225Y-88458508D01*
X159934779Y-88527452D01*
X159934778Y-88527452D01*
X159934776Y-88527453D01*
X159758082Y-88562600D01*
X159577918Y-88562600D01*
X159401224Y-88527453D01*
X159401222Y-88527452D01*
X159401221Y-88527452D01*
X159234775Y-88458508D01*
X159084977Y-88358416D01*
X159084974Y-88358414D01*
X158957586Y-88231026D01*
X158857493Y-88081226D01*
X158857492Y-88081225D01*
X158788548Y-87914779D01*
X158788547Y-87914776D01*
X158784525Y-87905067D01*
X158783487Y-87901645D01*
X158771937Y-87880033D01*
X158756392Y-87861091D01*
X158737451Y-87845544D01*
X158715840Y-87833992D01*
X158692392Y-87826878D01*
X158668005Y-87824475D01*
X158643619Y-87826876D01*
X158620170Y-87833988D01*
X158598558Y-87845538D01*
X158579616Y-87861083D01*
X158564069Y-87880024D01*
X158552517Y-87901635D01*
X158551478Y-87905060D01*
X158547453Y-87914776D01*
X158547452Y-87914779D01*
X158478508Y-88081225D01*
X158478507Y-88081226D01*
X158378414Y-88231026D01*
X158251026Y-88358414D01*
X158251023Y-88358416D01*
X158101225Y-88458508D01*
X157934779Y-88527452D01*
X157934778Y-88527452D01*
X157934776Y-88527453D01*
X157758082Y-88562600D01*
X157577918Y-88562600D01*
X157401224Y-88527453D01*
X157401222Y-88527452D01*
X157401221Y-88527452D01*
X157234775Y-88458508D01*
X157084977Y-88358416D01*
X157084974Y-88358414D01*
X156957586Y-88231026D01*
X156857493Y-88081226D01*
X156857492Y-88081225D01*
X156788548Y-87914779D01*
X156786615Y-87905060D01*
X156753400Y-87738082D01*
X156753400Y-87557918D01*
X156788547Y-87381224D01*
X156791281Y-87374624D01*
X156857492Y-87214775D01*
X156957584Y-87064977D01*
X156957586Y-87064974D01*
X156980388Y-87042172D01*
X156995934Y-87023230D01*
X157007485Y-87001619D01*
X157014598Y-86978170D01*
X157017000Y-86953784D01*
X157017000Y-84797000D01*
X158319000Y-84797000D01*
X158319000Y-86953784D01*
X158319000Y-86953784D01*
G37*
G36*
X150744562Y-86708181D02*
G01*
X150779477Y-86718773D01*
X150811665Y-86735978D01*
X150839873Y-86759127D01*
X150863022Y-86787335D01*
X150880227Y-86819523D01*
X150890819Y-86854438D01*
X150895000Y-86896895D01*
X150895000Y-88363105D01*
X150890819Y-88405562D01*
X150880227Y-88440477D01*
X150863022Y-88472665D01*
X150839873Y-88500873D01*
X150811665Y-88524022D01*
X150779477Y-88541227D01*
X150744562Y-88551819D01*
X150702105Y-88556000D01*
X149560895Y-88556000D01*
X149518438Y-88551819D01*
X149483523Y-88541227D01*
X149451335Y-88524022D01*
X149423127Y-88500873D01*
X149399978Y-88472665D01*
X149382773Y-88440477D01*
X149372181Y-88405562D01*
X149368000Y-88363105D01*
X149368000Y-86896895D01*
X149372181Y-86854438D01*
X149382773Y-86819523D01*
X149399978Y-86787335D01*
X149423127Y-86759127D01*
X149451335Y-86735978D01*
X149483523Y-86718773D01*
X149518438Y-86708181D01*
X149560895Y-86704000D01*
X150702105Y-86704000D01*
X150744562Y-86708181D01*
X150744562Y-86708181D01*
G37*
G36*
X144394562Y-86708181D02*
G01*
X144429477Y-86718773D01*
X144461665Y-86735978D01*
X144489873Y-86759127D01*
X144513022Y-86787335D01*
X144530227Y-86819523D01*
X144540819Y-86854438D01*
X144545000Y-86896895D01*
X144545000Y-88363105D01*
X144540819Y-88405562D01*
X144530227Y-88440477D01*
X144513022Y-88472665D01*
X144489873Y-88500873D01*
X144461665Y-88524022D01*
X144429477Y-88541227D01*
X144394562Y-88551819D01*
X144352105Y-88556000D01*
X143210895Y-88556000D01*
X143168438Y-88551819D01*
X143133523Y-88541227D01*
X143101335Y-88524022D01*
X143073127Y-88500873D01*
X143049978Y-88472665D01*
X143032773Y-88440477D01*
X143022181Y-88405562D01*
X143018000Y-88363105D01*
X143018000Y-86896895D01*
X143022181Y-86854438D01*
X143032773Y-86819523D01*
X143049978Y-86787335D01*
X143073127Y-86759127D01*
X143101335Y-86735978D01*
X143133523Y-86718773D01*
X143168438Y-86708181D01*
X143210895Y-86704000D01*
X144352105Y-86704000D01*
X144394562Y-86708181D01*
X144394562Y-86708181D01*
G37*
G36*
X141419562Y-86708181D02*
G01*
X141454477Y-86718773D01*
X141486665Y-86735978D01*
X141514873Y-86759127D01*
X141538022Y-86787335D01*
X141555227Y-86819523D01*
X141565819Y-86854438D01*
X141570000Y-86896895D01*
X141570000Y-88363105D01*
X141565819Y-88405562D01*
X141555227Y-88440477D01*
X141538022Y-88472665D01*
X141514873Y-88500873D01*
X141486665Y-88524022D01*
X141454477Y-88541227D01*
X141419562Y-88551819D01*
X141377105Y-88556000D01*
X140235895Y-88556000D01*
X140193438Y-88551819D01*
X140158523Y-88541227D01*
X140126335Y-88524022D01*
X140098127Y-88500873D01*
X140074978Y-88472665D01*
X140057773Y-88440477D01*
X140047181Y-88405562D01*
X140043000Y-88363105D01*
X140043000Y-86896895D01*
X140047181Y-86854438D01*
X140057773Y-86819523D01*
X140074978Y-86787335D01*
X140098127Y-86759127D01*
X140126335Y-86735978D01*
X140158523Y-86718773D01*
X140193438Y-86708181D01*
X140235895Y-86704000D01*
X141377105Y-86704000D01*
X141419562Y-86708181D01*
X141419562Y-86708181D01*
G37*
G36*
X147769562Y-86708181D02*
G01*
X147804477Y-86718773D01*
X147836665Y-86735978D01*
X147864873Y-86759127D01*
X147888022Y-86787335D01*
X147905227Y-86819523D01*
X147915819Y-86854438D01*
X147920000Y-86896895D01*
X147920000Y-88363105D01*
X147915819Y-88405562D01*
X147905227Y-88440477D01*
X147888022Y-88472665D01*
X147864873Y-88500873D01*
X147836665Y-88524022D01*
X147804477Y-88541227D01*
X147769562Y-88551819D01*
X147727105Y-88556000D01*
X146585895Y-88556000D01*
X146543438Y-88551819D01*
X146508523Y-88541227D01*
X146476335Y-88524022D01*
X146448127Y-88500873D01*
X146424978Y-88472665D01*
X146407773Y-88440477D01*
X146397181Y-88405562D01*
X146393000Y-88363105D01*
X146393000Y-86896895D01*
X146397181Y-86854438D01*
X146407773Y-86819523D01*
X146424978Y-86787335D01*
X146448127Y-86759127D01*
X146476335Y-86735978D01*
X146508523Y-86718773D01*
X146543438Y-86708181D01*
X146585895Y-86704000D01*
X147727105Y-86704000D01*
X147769562Y-86708181D01*
X147769562Y-86708181D01*
G37*
G36*
X99233714Y-86570058D02*
G01*
X99233717Y-86570059D01*
X99351719Y-86605854D01*
X99351721Y-86605855D01*
X99460471Y-86663983D01*
X99555790Y-86742210D01*
X99634017Y-86837529D01*
X99692145Y-86946279D01*
X99727942Y-87064286D01*
X99740028Y-87187000D01*
X99727942Y-87309714D01*
X99727941Y-87309717D01*
X99694203Y-87420939D01*
X99692145Y-87427721D01*
X99634017Y-87536471D01*
X99555790Y-87631790D01*
X99460471Y-87710017D01*
X99460469Y-87710018D01*
X99351719Y-87768146D01*
X99255683Y-87797278D01*
X99233714Y-87803942D01*
X99141747Y-87813000D01*
X98430253Y-87813000D01*
X98338286Y-87803942D01*
X98316317Y-87797278D01*
X98220281Y-87768146D01*
X98111531Y-87710018D01*
X98111529Y-87710017D01*
X98016210Y-87631790D01*
X97937983Y-87536471D01*
X97879855Y-87427721D01*
X97877798Y-87420939D01*
X97844059Y-87309717D01*
X97844058Y-87309714D01*
X97831972Y-87187000D01*
X97844058Y-87064286D01*
X97879855Y-86946279D01*
X97937983Y-86837529D01*
X98016210Y-86742210D01*
X98111529Y-86663983D01*
X98220279Y-86605855D01*
X98220281Y-86605854D01*
X98338283Y-86570059D01*
X98338286Y-86570058D01*
X98430253Y-86561000D01*
X99141747Y-86561000D01*
X99233714Y-86570058D01*
X99233714Y-86570058D01*
G37*
G36*
X101624413Y-85367525D02*
G01*
X101699456Y-85390290D01*
X101709425Y-85393314D01*
X101787774Y-85435193D01*
X101856448Y-85491552D01*
X101912807Y-85560226D01*
X101954686Y-85638575D01*
X101954687Y-85638579D01*
X101980475Y-85723587D01*
X101989182Y-85812000D01*
X101980475Y-85900413D01*
X101963644Y-85955895D01*
X101954686Y-85985425D01*
X101926191Y-86038735D01*
X101912807Y-86063775D01*
X101887496Y-86094615D01*
X101863850Y-86123429D01*
X101850239Y-86143798D01*
X101840862Y-86166437D01*
X101836081Y-86190471D01*
X101836081Y-86214975D01*
X101840861Y-86239008D01*
X101850238Y-86261648D01*
X101863852Y-86282022D01*
X101881179Y-86299350D01*
X101901553Y-86312964D01*
X101924192Y-86322341D01*
X101948226Y-86327122D01*
X101972730Y-86327122D01*
X101996763Y-86322342D01*
X102005212Y-86318843D01*
X102012599Y-86316602D01*
X102012601Y-86316601D01*
X102158878Y-86272229D01*
X102158881Y-86272228D01*
X102272882Y-86261000D01*
X102899118Y-86261000D01*
X103013119Y-86272228D01*
X103013122Y-86272229D01*
X103159399Y-86316601D01*
X103159401Y-86316602D01*
X103294210Y-86388659D01*
X103412369Y-86485631D01*
X103509341Y-86603790D01*
X103509342Y-86603792D01*
X103581399Y-86738601D01*
X103584598Y-86749148D01*
X103625772Y-86884881D01*
X103640754Y-87037000D01*
X103625772Y-87189119D01*
X103581398Y-87335401D01*
X103509341Y-87470210D01*
X103412369Y-87588369D01*
X103294210Y-87685341D01*
X103248043Y-87710018D01*
X103159399Y-87757399D01*
X103040352Y-87793511D01*
X103013119Y-87801772D01*
X102899118Y-87813000D01*
X102272882Y-87813000D01*
X102158881Y-87801772D01*
X102131648Y-87793511D01*
X102012601Y-87757399D01*
X101923957Y-87710018D01*
X101877790Y-87685341D01*
X101759631Y-87588369D01*
X101662659Y-87470210D01*
X101590602Y-87335401D01*
X101546228Y-87189119D01*
X101531246Y-87037000D01*
X101546228Y-86884881D01*
X101587402Y-86749148D01*
X101590601Y-86738601D01*
X101662658Y-86603792D01*
X101662659Y-86603790D01*
X101759632Y-86485630D01*
X101796105Y-86455696D01*
X101813432Y-86438369D01*
X101827046Y-86417994D01*
X101836423Y-86395355D01*
X101841203Y-86371322D01*
X101841203Y-86346817D01*
X101836422Y-86322784D01*
X101827044Y-86300145D01*
X101813430Y-86279771D01*
X101796103Y-86262444D01*
X101775728Y-86248830D01*
X101753089Y-86239453D01*
X101729056Y-86234673D01*
X101704551Y-86234673D01*
X101680524Y-86239453D01*
X101659489Y-86245833D01*
X101624411Y-86256475D01*
X101558158Y-86263000D01*
X101513842Y-86263000D01*
X101447587Y-86256475D01*
X101372544Y-86233710D01*
X101362575Y-86230686D01*
X101284226Y-86188807D01*
X101215552Y-86132448D01*
X101159193Y-86063774D01*
X101117314Y-85985425D01*
X101108356Y-85955895D01*
X101091525Y-85900413D01*
X101082818Y-85812000D01*
X101091525Y-85723587D01*
X101117313Y-85638579D01*
X101117314Y-85638575D01*
X101159193Y-85560226D01*
X101215552Y-85491552D01*
X101284226Y-85435193D01*
X101362575Y-85393314D01*
X101372544Y-85390290D01*
X101447587Y-85367525D01*
X101513842Y-85361000D01*
X101558158Y-85361000D01*
X101624413Y-85367525D01*
X101624413Y-85367525D01*
G37*
G36*
X130866000Y-87779000D02*
G01*
X128214000Y-87779000D01*
X128214000Y-86117000D01*
X130866000Y-86117000D01*
X130866000Y-87779000D01*
X130866000Y-87779000D01*
G37*
G36*
X110812562Y-85692181D02*
G01*
X110847477Y-85702773D01*
X110879665Y-85719978D01*
X110907873Y-85743127D01*
X110931022Y-85771335D01*
X110948227Y-85803523D01*
X110958819Y-85838438D01*
X110963000Y-85880895D01*
X110963000Y-87347105D01*
X110958819Y-87389562D01*
X110948227Y-87424477D01*
X110931022Y-87456665D01*
X110907873Y-87484873D01*
X110879665Y-87508022D01*
X110847477Y-87525227D01*
X110812562Y-87535819D01*
X110770105Y-87540000D01*
X109628895Y-87540000D01*
X109586438Y-87535819D01*
X109551523Y-87525227D01*
X109519335Y-87508022D01*
X109491127Y-87484873D01*
X109467978Y-87456665D01*
X109450773Y-87424477D01*
X109440181Y-87389562D01*
X109436000Y-87347105D01*
X109436000Y-85880895D01*
X109440181Y-85838438D01*
X109450773Y-85803523D01*
X109467978Y-85771335D01*
X109491127Y-85743127D01*
X109519335Y-85719978D01*
X109551523Y-85702773D01*
X109586438Y-85692181D01*
X109628895Y-85688000D01*
X110770105Y-85688000D01*
X110812562Y-85692181D01*
X110812562Y-85692181D01*
G37*
G36*
X107837562Y-85692181D02*
G01*
X107872477Y-85702773D01*
X107904665Y-85719978D01*
X107932873Y-85743127D01*
X107956022Y-85771335D01*
X107973227Y-85803523D01*
X107983819Y-85838438D01*
X107988000Y-85880895D01*
X107988000Y-87347105D01*
X107983819Y-87389562D01*
X107973227Y-87424477D01*
X107956022Y-87456665D01*
X107932873Y-87484873D01*
X107904665Y-87508022D01*
X107872477Y-87525227D01*
X107837562Y-87535819D01*
X107795105Y-87540000D01*
X106653895Y-87540000D01*
X106611438Y-87535819D01*
X106576523Y-87525227D01*
X106544335Y-87508022D01*
X106516127Y-87484873D01*
X106492978Y-87456665D01*
X106475773Y-87424477D01*
X106465181Y-87389562D01*
X106461000Y-87347105D01*
X106461000Y-85880895D01*
X106465181Y-85838438D01*
X106475773Y-85803523D01*
X106492978Y-85771335D01*
X106516127Y-85743127D01*
X106544335Y-85719978D01*
X106576523Y-85702773D01*
X106611438Y-85692181D01*
X106653895Y-85688000D01*
X107795105Y-85688000D01*
X107837562Y-85692181D01*
X107837562Y-85692181D01*
G37*
G36*
X114940928Y-84097764D02*
G01*
X114962011Y-84104160D01*
X114981442Y-84114546D01*
X114998475Y-84128525D01*
X115012454Y-84145558D01*
X115022840Y-84164989D01*
X115029236Y-84186072D01*
X115032000Y-84214140D01*
X115032000Y-85677860D01*
X115029236Y-85705928D01*
X115022840Y-85727011D01*
X115012454Y-85746442D01*
X114998475Y-85763475D01*
X114981442Y-85777454D01*
X114962011Y-85787840D01*
X114940928Y-85794236D01*
X114912860Y-85797000D01*
X114449140Y-85797000D01*
X114421072Y-85794236D01*
X114399989Y-85787840D01*
X114380558Y-85777454D01*
X114363525Y-85763475D01*
X114349546Y-85746442D01*
X114339160Y-85727011D01*
X114332764Y-85705928D01*
X114330000Y-85677860D01*
X114330000Y-84214140D01*
X114332764Y-84186072D01*
X114339160Y-84164989D01*
X114349546Y-84145558D01*
X114363525Y-84128525D01*
X114380558Y-84114546D01*
X114399989Y-84104160D01*
X114421072Y-84097764D01*
X114449140Y-84095000D01*
X114912860Y-84095000D01*
X114940928Y-84097764D01*
X114940928Y-84097764D01*
G37*
G36*
X117480928Y-84097764D02*
G01*
X117502011Y-84104160D01*
X117521442Y-84114546D01*
X117538475Y-84128525D01*
X117552454Y-84145558D01*
X117562840Y-84164989D01*
X117569236Y-84186072D01*
X117572000Y-84214140D01*
X117572000Y-85677860D01*
X117569236Y-85705928D01*
X117562840Y-85727011D01*
X117552454Y-85746442D01*
X117538475Y-85763475D01*
X117521442Y-85777454D01*
X117502011Y-85787840D01*
X117480928Y-85794236D01*
X117452860Y-85797000D01*
X116989140Y-85797000D01*
X116961072Y-85794236D01*
X116939989Y-85787840D01*
X116920558Y-85777454D01*
X116903525Y-85763475D01*
X116889546Y-85746442D01*
X116879160Y-85727011D01*
X116872764Y-85705928D01*
X116870000Y-85677860D01*
X116870000Y-84214140D01*
X116872764Y-84186072D01*
X116879160Y-84164989D01*
X116889546Y-84145558D01*
X116903525Y-84128525D01*
X116920558Y-84114546D01*
X116939989Y-84104160D01*
X116961072Y-84097764D01*
X116989140Y-84095000D01*
X117452860Y-84095000D01*
X117480928Y-84097764D01*
X117480928Y-84097764D01*
G37*
G36*
X118750928Y-84097764D02*
G01*
X118772011Y-84104160D01*
X118791442Y-84114546D01*
X118808475Y-84128525D01*
X118822454Y-84145558D01*
X118832840Y-84164989D01*
X118839236Y-84186072D01*
X118842000Y-84214140D01*
X118842000Y-85677860D01*
X118839236Y-85705928D01*
X118832840Y-85727011D01*
X118822454Y-85746442D01*
X118808475Y-85763475D01*
X118791442Y-85777454D01*
X118772011Y-85787840D01*
X118750928Y-85794236D01*
X118722860Y-85797000D01*
X118259140Y-85797000D01*
X118231072Y-85794236D01*
X118209989Y-85787840D01*
X118190558Y-85777454D01*
X118173525Y-85763475D01*
X118159546Y-85746442D01*
X118149160Y-85727011D01*
X118142764Y-85705928D01*
X118140000Y-85677860D01*
X118140000Y-84214140D01*
X118142764Y-84186072D01*
X118149160Y-84164989D01*
X118159546Y-84145558D01*
X118173525Y-84128525D01*
X118190558Y-84114546D01*
X118209989Y-84104160D01*
X118231072Y-84097764D01*
X118259140Y-84095000D01*
X118722860Y-84095000D01*
X118750928Y-84097764D01*
X118750928Y-84097764D01*
G37*
G36*
X116210928Y-84097764D02*
G01*
X116232011Y-84104160D01*
X116251442Y-84114546D01*
X116268475Y-84128525D01*
X116282454Y-84145558D01*
X116292840Y-84164989D01*
X116299236Y-84186072D01*
X116302000Y-84214140D01*
X116302000Y-85677860D01*
X116299236Y-85705928D01*
X116292840Y-85727011D01*
X116282454Y-85746442D01*
X116268475Y-85763475D01*
X116251442Y-85777454D01*
X116232011Y-85787840D01*
X116210928Y-85794236D01*
X116182860Y-85797000D01*
X115719140Y-85797000D01*
X115691072Y-85794236D01*
X115669989Y-85787840D01*
X115650558Y-85777454D01*
X115633525Y-85763475D01*
X115619546Y-85746442D01*
X115609160Y-85727011D01*
X115602764Y-85705928D01*
X115600000Y-85677860D01*
X115600000Y-84214140D01*
X115602764Y-84186072D01*
X115609160Y-84164989D01*
X115619546Y-84145558D01*
X115633525Y-84128525D01*
X115650558Y-84114546D01*
X115669989Y-84104160D01*
X115691072Y-84097764D01*
X115719140Y-84095000D01*
X116182860Y-84095000D01*
X116210928Y-84097764D01*
X116210928Y-84097764D01*
G37*
G36*
X128966000Y-85079000D02*
G01*
X128214000Y-85079000D01*
X128214000Y-83417000D01*
X128966000Y-83417000D01*
X128966000Y-85079000D01*
X128966000Y-85079000D01*
G37*
G36*
X130866000Y-85079000D02*
G01*
X130114000Y-85079000D01*
X130114000Y-83417000D01*
X130866000Y-83417000D01*
X130866000Y-85079000D01*
X130866000Y-85079000D01*
G37*
G36*
X103337000Y-84888000D02*
G01*
X101935000Y-84888000D01*
X101935000Y-84336000D01*
X103337000Y-84336000D01*
X103337000Y-84888000D01*
X103337000Y-84888000D01*
G37*
G36*
X152103025Y-82776590D02*
G01*
X152254012Y-82822392D01*
X152393165Y-82896770D01*
X152515133Y-82996867D01*
X152615230Y-83118835D01*
X152689608Y-83257988D01*
X152735410Y-83408975D01*
X152750875Y-83566000D01*
X152735410Y-83723025D01*
X152689608Y-83874012D01*
X152615230Y-84013165D01*
X152515133Y-84135133D01*
X152393165Y-84235230D01*
X152254012Y-84309608D01*
X152103025Y-84355410D01*
X151985346Y-84367000D01*
X151906654Y-84367000D01*
X151788975Y-84355410D01*
X151637988Y-84309608D01*
X151498835Y-84235230D01*
X151376867Y-84135133D01*
X151276770Y-84013165D01*
X151202392Y-83874012D01*
X151156590Y-83723025D01*
X151141125Y-83566000D01*
X151156590Y-83408975D01*
X151202392Y-83257988D01*
X151276770Y-83118835D01*
X151376867Y-82996867D01*
X151498835Y-82896770D01*
X151637988Y-82822392D01*
X151788975Y-82776590D01*
X151906654Y-82765000D01*
X151985346Y-82765000D01*
X152103025Y-82776590D01*
X152103025Y-82776590D01*
G37*
G36*
X118056285Y-81043710D02*
G01*
X118086608Y-81052908D01*
X118114556Y-81067847D01*
X118139051Y-81087949D01*
X118159153Y-81112444D01*
X118174092Y-81140392D01*
X118183290Y-81170715D01*
X118187000Y-81208386D01*
X118187000Y-83383614D01*
X118183290Y-83421285D01*
X118174092Y-83451608D01*
X118159153Y-83479556D01*
X118139051Y-83504051D01*
X118114556Y-83524153D01*
X118086608Y-83539092D01*
X118056285Y-83548290D01*
X118018614Y-83552000D01*
X115153386Y-83552000D01*
X115115715Y-83548290D01*
X115085392Y-83539092D01*
X115057444Y-83524153D01*
X115032949Y-83504051D01*
X115012847Y-83479556D01*
X114997908Y-83451608D01*
X114988710Y-83421285D01*
X114985000Y-83383614D01*
X114985000Y-81208386D01*
X114988710Y-81170715D01*
X114997908Y-81140392D01*
X115012847Y-81112444D01*
X115032949Y-81087949D01*
X115057444Y-81067847D01*
X115085392Y-81052908D01*
X115115715Y-81043710D01*
X115153386Y-81040000D01*
X118018614Y-81040000D01*
X118056285Y-81043710D01*
X118056285Y-81043710D01*
G37*
G36*
X110812562Y-81628181D02*
G01*
X110847477Y-81638773D01*
X110879665Y-81655978D01*
X110907873Y-81679127D01*
X110931022Y-81707335D01*
X110948227Y-81739523D01*
X110958819Y-81774438D01*
X110963000Y-81816895D01*
X110963000Y-83283105D01*
X110958819Y-83325562D01*
X110948227Y-83360477D01*
X110931022Y-83392665D01*
X110907873Y-83420873D01*
X110879665Y-83444022D01*
X110847477Y-83461227D01*
X110812562Y-83471819D01*
X110770105Y-83476000D01*
X109628895Y-83476000D01*
X109586438Y-83471819D01*
X109551523Y-83461227D01*
X109519335Y-83444022D01*
X109491127Y-83420873D01*
X109467978Y-83392665D01*
X109450773Y-83360477D01*
X109440181Y-83325562D01*
X109436000Y-83283105D01*
X109436000Y-81816895D01*
X109440181Y-81774438D01*
X109450773Y-81739523D01*
X109467978Y-81707335D01*
X109491127Y-81679127D01*
X109519335Y-81655978D01*
X109551523Y-81638773D01*
X109586438Y-81628181D01*
X109628895Y-81624000D01*
X110770105Y-81624000D01*
X110812562Y-81628181D01*
X110812562Y-81628181D01*
G37*
G36*
X107837562Y-81628181D02*
G01*
X107872477Y-81638773D01*
X107904665Y-81655978D01*
X107932873Y-81679127D01*
X107956022Y-81707335D01*
X107973227Y-81739523D01*
X107983819Y-81774438D01*
X107988000Y-81816895D01*
X107988000Y-83283105D01*
X107983819Y-83325562D01*
X107973227Y-83360477D01*
X107956022Y-83392665D01*
X107932873Y-83420873D01*
X107904665Y-83444022D01*
X107872477Y-83461227D01*
X107837562Y-83471819D01*
X107795105Y-83476000D01*
X106653895Y-83476000D01*
X106611438Y-83471819D01*
X106576523Y-83461227D01*
X106544335Y-83444022D01*
X106516127Y-83420873D01*
X106492978Y-83392665D01*
X106475773Y-83360477D01*
X106465181Y-83325562D01*
X106461000Y-83283105D01*
X106461000Y-81816895D01*
X106465181Y-81774438D01*
X106475773Y-81739523D01*
X106492978Y-81707335D01*
X106516127Y-81679127D01*
X106544335Y-81655978D01*
X106576523Y-81638773D01*
X106611438Y-81628181D01*
X106653895Y-81624000D01*
X107795105Y-81624000D01*
X107837562Y-81628181D01*
X107837562Y-81628181D01*
G37*
G36*
X168065142Y-81768242D02*
G01*
X168213102Y-81829530D01*
X168346258Y-81918502D01*
X168459498Y-82031742D01*
X168548470Y-82164898D01*
X168609758Y-82312858D01*
X168641000Y-82469925D01*
X168641000Y-82630075D01*
X168609758Y-82787142D01*
X168564348Y-82896770D01*
X168548471Y-82935100D01*
X168460861Y-83066219D01*
X168459498Y-83068258D01*
X168346258Y-83181498D01*
X168213102Y-83270470D01*
X168065142Y-83331758D01*
X167908075Y-83363000D01*
X167747925Y-83363000D01*
X167590858Y-83331758D01*
X167442898Y-83270470D01*
X167309742Y-83181498D01*
X167196502Y-83068258D01*
X167195140Y-83066219D01*
X167107529Y-82935100D01*
X167091652Y-82896770D01*
X167046242Y-82787142D01*
X167015000Y-82630075D01*
X167015000Y-82469925D01*
X167046242Y-82312858D01*
X167107530Y-82164898D01*
X167196502Y-82031742D01*
X167309742Y-81918502D01*
X167442898Y-81829530D01*
X167590858Y-81768242D01*
X167747925Y-81737000D01*
X167908075Y-81737000D01*
X168065142Y-81768242D01*
X168065142Y-81768242D01*
G37*
G36*
X162985142Y-81768242D02*
G01*
X163133102Y-81829530D01*
X163266258Y-81918502D01*
X163379498Y-82031742D01*
X163468470Y-82164898D01*
X163529758Y-82312858D01*
X163561000Y-82469925D01*
X163561000Y-82630075D01*
X163529758Y-82787142D01*
X163484348Y-82896770D01*
X163468471Y-82935100D01*
X163380861Y-83066219D01*
X163379498Y-83068258D01*
X163266258Y-83181498D01*
X163133102Y-83270470D01*
X162985142Y-83331758D01*
X162828075Y-83363000D01*
X162667925Y-83363000D01*
X162510858Y-83331758D01*
X162362898Y-83270470D01*
X162229742Y-83181498D01*
X162116502Y-83068258D01*
X162115140Y-83066219D01*
X162027529Y-82935100D01*
X162011652Y-82896770D01*
X161966242Y-82787142D01*
X161935000Y-82630075D01*
X161935000Y-82469925D01*
X161966242Y-82312858D01*
X162027530Y-82164898D01*
X162116502Y-82031742D01*
X162229742Y-81918502D01*
X162362898Y-81829530D01*
X162510858Y-81768242D01*
X162667925Y-81737000D01*
X162828075Y-81737000D01*
X162985142Y-81768242D01*
X162985142Y-81768242D01*
G37*
G36*
X165525142Y-81768242D02*
G01*
X165673102Y-81829530D01*
X165806258Y-81918502D01*
X165919498Y-82031742D01*
X166008470Y-82164898D01*
X166069758Y-82312858D01*
X166101000Y-82469925D01*
X166101000Y-82630075D01*
X166069758Y-82787142D01*
X166024348Y-82896770D01*
X166008471Y-82935100D01*
X165920861Y-83066219D01*
X165919498Y-83068258D01*
X165806258Y-83181498D01*
X165673102Y-83270470D01*
X165525142Y-83331758D01*
X165368075Y-83363000D01*
X165207925Y-83363000D01*
X165050858Y-83331758D01*
X164902898Y-83270470D01*
X164769742Y-83181498D01*
X164656502Y-83068258D01*
X164655140Y-83066219D01*
X164567529Y-82935100D01*
X164551652Y-82896770D01*
X164506242Y-82787142D01*
X164475000Y-82630075D01*
X164475000Y-82469925D01*
X164506242Y-82312858D01*
X164567530Y-82164898D01*
X164656502Y-82031742D01*
X164769742Y-81918502D01*
X164902898Y-81829530D01*
X165050858Y-81768242D01*
X165207925Y-81737000D01*
X165368075Y-81737000D01*
X165525142Y-81768242D01*
X165525142Y-81768242D01*
G37*
G36*
X170605142Y-81768242D02*
G01*
X170753102Y-81829530D01*
X170886258Y-81918502D01*
X170999498Y-82031742D01*
X171088470Y-82164898D01*
X171149758Y-82312858D01*
X171181000Y-82469925D01*
X171181000Y-82630075D01*
X171149758Y-82787142D01*
X171104348Y-82896770D01*
X171088471Y-82935100D01*
X171000861Y-83066219D01*
X170999498Y-83068258D01*
X170886258Y-83181498D01*
X170753102Y-83270470D01*
X170605142Y-83331758D01*
X170448075Y-83363000D01*
X170287925Y-83363000D01*
X170130858Y-83331758D01*
X169982898Y-83270470D01*
X169849742Y-83181498D01*
X169736502Y-83068258D01*
X169735140Y-83066219D01*
X169647529Y-82935100D01*
X169631652Y-82896770D01*
X169586242Y-82787142D01*
X169555000Y-82630075D01*
X169555000Y-82469925D01*
X169586242Y-82312858D01*
X169647530Y-82164898D01*
X169736502Y-82031742D01*
X169849742Y-81918502D01*
X169982898Y-81829530D01*
X170130858Y-81768242D01*
X170287925Y-81737000D01*
X170448075Y-81737000D01*
X170605142Y-81768242D01*
X170605142Y-81768242D01*
G37*
G36*
X138717643Y-81525781D02*
G01*
X138863415Y-81586162D01*
X138994611Y-81673824D01*
X139106176Y-81785389D01*
X139193838Y-81916585D01*
X139254219Y-82062357D01*
X139285000Y-82217107D01*
X139285000Y-82374893D01*
X139254219Y-82529643D01*
X139193838Y-82675415D01*
X139106176Y-82806611D01*
X138994611Y-82918176D01*
X138863415Y-83005838D01*
X138717643Y-83066219D01*
X138562893Y-83097000D01*
X138405107Y-83097000D01*
X138250357Y-83066219D01*
X138104585Y-83005838D01*
X137973389Y-82918176D01*
X137861824Y-82806611D01*
X137774162Y-82675415D01*
X137713781Y-82529643D01*
X137683000Y-82374893D01*
X137683000Y-82217107D01*
X137713781Y-82062357D01*
X137774162Y-81916585D01*
X137861824Y-81785389D01*
X137973389Y-81673824D01*
X138104585Y-81586162D01*
X138250357Y-81525781D01*
X138405107Y-81495000D01*
X138562893Y-81495000D01*
X138717643Y-81525781D01*
X138717643Y-81525781D01*
G37*
G36*
X143597643Y-81525781D02*
G01*
X143743415Y-81586162D01*
X143874611Y-81673824D01*
X143986176Y-81785389D01*
X144073838Y-81916585D01*
X144134219Y-82062357D01*
X144165000Y-82217107D01*
X144165000Y-82374893D01*
X144134219Y-82529643D01*
X144073838Y-82675415D01*
X143986176Y-82806611D01*
X143874611Y-82918176D01*
X143743415Y-83005838D01*
X143597643Y-83066219D01*
X143442893Y-83097000D01*
X143285107Y-83097000D01*
X143130357Y-83066219D01*
X142984585Y-83005838D01*
X142853389Y-82918176D01*
X142741824Y-82806611D01*
X142654162Y-82675415D01*
X142593781Y-82529643D01*
X142563000Y-82374893D01*
X142563000Y-82217107D01*
X142593781Y-82062357D01*
X142654162Y-81916585D01*
X142741824Y-81785389D01*
X142853389Y-81673824D01*
X142984585Y-81586162D01*
X143130357Y-81525781D01*
X143285107Y-81495000D01*
X143442893Y-81495000D01*
X143597643Y-81525781D01*
X143597643Y-81525781D01*
G37*
G36*
X103337000Y-82288000D02*
G01*
X101935000Y-82288000D01*
X101935000Y-81736000D01*
X103337000Y-81736000D01*
X103337000Y-82288000D01*
X103337000Y-82288000D01*
G37*
G36*
X103013119Y-78822228D02*
G01*
X103040352Y-78830489D01*
X103159399Y-78866601D01*
X103159401Y-78866602D01*
X103294210Y-78938659D01*
X103412369Y-79035631D01*
X103509341Y-79153790D01*
X103509342Y-79153792D01*
X103581399Y-79288601D01*
X103582715Y-79292939D01*
X103625772Y-79434881D01*
X103640754Y-79587000D01*
X103625772Y-79739119D01*
X103625771Y-79739122D01*
X103582494Y-79881790D01*
X103581398Y-79885401D01*
X103509341Y-80020210D01*
X103412369Y-80138369D01*
X103294210Y-80235341D01*
X103294208Y-80235342D01*
X103159399Y-80307399D01*
X103102509Y-80324656D01*
X103013119Y-80351772D01*
X102899118Y-80363000D01*
X102272882Y-80363000D01*
X102158881Y-80351772D01*
X102069491Y-80324656D01*
X102012601Y-80307399D01*
X102012599Y-80307398D01*
X102005208Y-80305156D01*
X101996754Y-80301655D01*
X101972721Y-80296877D01*
X101948216Y-80296879D01*
X101924183Y-80301662D01*
X101901545Y-80311041D01*
X101881172Y-80324656D01*
X101863846Y-80341985D01*
X101850234Y-80362361D01*
X101840858Y-80385001D01*
X101836080Y-80409034D01*
X101836082Y-80433539D01*
X101840865Y-80457572D01*
X101850244Y-80480210D01*
X101863850Y-80500571D01*
X101886571Y-80528257D01*
X101912807Y-80560225D01*
X101926191Y-80585265D01*
X101954686Y-80638575D01*
X101954687Y-80638579D01*
X101980475Y-80723587D01*
X101989182Y-80812000D01*
X101980475Y-80900413D01*
X101957710Y-80975456D01*
X101954686Y-80985425D01*
X101912807Y-81063774D01*
X101856448Y-81132448D01*
X101787774Y-81188807D01*
X101709425Y-81230686D01*
X101699456Y-81233710D01*
X101624413Y-81256475D01*
X101558158Y-81263000D01*
X101513842Y-81263000D01*
X101447587Y-81256475D01*
X101372544Y-81233710D01*
X101362575Y-81230686D01*
X101284226Y-81188807D01*
X101215552Y-81132448D01*
X101159193Y-81063774D01*
X101117314Y-80985425D01*
X101114290Y-80975456D01*
X101091525Y-80900413D01*
X101082818Y-80812000D01*
X101091525Y-80723587D01*
X101117313Y-80638579D01*
X101117314Y-80638575D01*
X101159193Y-80560226D01*
X101215552Y-80491552D01*
X101284226Y-80435193D01*
X101362575Y-80393314D01*
X101377914Y-80388661D01*
X101447587Y-80367525D01*
X101513842Y-80361000D01*
X101558158Y-80361000D01*
X101624411Y-80367525D01*
X101658479Y-80377860D01*
X101680524Y-80384547D01*
X101704551Y-80389327D01*
X101729055Y-80389327D01*
X101753089Y-80384547D01*
X101775728Y-80375170D01*
X101796103Y-80361556D01*
X101813430Y-80344230D01*
X101827044Y-80323855D01*
X101836422Y-80301216D01*
X101841203Y-80277183D01*
X101841203Y-80252679D01*
X101836423Y-80228645D01*
X101827046Y-80206006D01*
X101813432Y-80185631D01*
X101796105Y-80168304D01*
X101759632Y-80138370D01*
X101662659Y-80020210D01*
X101590602Y-79885401D01*
X101589507Y-79881790D01*
X101546229Y-79739122D01*
X101546228Y-79739119D01*
X101531246Y-79587000D01*
X101546228Y-79434881D01*
X101589285Y-79292939D01*
X101590601Y-79288601D01*
X101662658Y-79153792D01*
X101662659Y-79153790D01*
X101759631Y-79035631D01*
X101877790Y-78938659D01*
X102012599Y-78866602D01*
X102012601Y-78866601D01*
X102131648Y-78830489D01*
X102158881Y-78822228D01*
X102272882Y-78811000D01*
X102899118Y-78811000D01*
X103013119Y-78822228D01*
X103013119Y-78822228D01*
G37*
G36*
X178143000Y-80861000D02*
G01*
X176441000Y-80861000D01*
X176441000Y-79159000D01*
X178143000Y-79159000D01*
X178143000Y-80861000D01*
X178143000Y-80861000D01*
G37*
G36*
X162985142Y-79228242D02*
G01*
X163029519Y-79246624D01*
X163130860Y-79288601D01*
X163133102Y-79289530D01*
X163266258Y-79378502D01*
X163379498Y-79491742D01*
X163468470Y-79624898D01*
X163529758Y-79772858D01*
X163561000Y-79929925D01*
X163561000Y-80090075D01*
X163529758Y-80247142D01*
X163498957Y-80321500D01*
X163468471Y-80395100D01*
X163406505Y-80487840D01*
X163379498Y-80528258D01*
X163266258Y-80641498D01*
X163133102Y-80730470D01*
X162985142Y-80791758D01*
X162828075Y-80823000D01*
X162667925Y-80823000D01*
X162510858Y-80791758D01*
X162362898Y-80730470D01*
X162229742Y-80641498D01*
X162116502Y-80528258D01*
X162089496Y-80487840D01*
X162027529Y-80395100D01*
X161997043Y-80321500D01*
X161966242Y-80247142D01*
X161935000Y-80090075D01*
X161935000Y-79929925D01*
X161966242Y-79772858D01*
X162027530Y-79624898D01*
X162116502Y-79491742D01*
X162229742Y-79378502D01*
X162362898Y-79289530D01*
X162365141Y-79288601D01*
X162466481Y-79246624D01*
X162510858Y-79228242D01*
X162667925Y-79197000D01*
X162828075Y-79197000D01*
X162985142Y-79228242D01*
X162985142Y-79228242D01*
G37*
G36*
X171181000Y-80823000D02*
G01*
X169555000Y-80823000D01*
X169555000Y-79197000D01*
X171181000Y-79197000D01*
X171181000Y-80823000D01*
X171181000Y-80823000D01*
G37*
G36*
X168065142Y-79228242D02*
G01*
X168109519Y-79246624D01*
X168210860Y-79288601D01*
X168213102Y-79289530D01*
X168346258Y-79378502D01*
X168459498Y-79491742D01*
X168548470Y-79624898D01*
X168609758Y-79772858D01*
X168641000Y-79929925D01*
X168641000Y-80090075D01*
X168609758Y-80247142D01*
X168578957Y-80321500D01*
X168548471Y-80395100D01*
X168486505Y-80487840D01*
X168459498Y-80528258D01*
X168346258Y-80641498D01*
X168213102Y-80730470D01*
X168065142Y-80791758D01*
X167908075Y-80823000D01*
X167747925Y-80823000D01*
X167590858Y-80791758D01*
X167442898Y-80730470D01*
X167309742Y-80641498D01*
X167196502Y-80528258D01*
X167169496Y-80487840D01*
X167107529Y-80395100D01*
X167077043Y-80321500D01*
X167046242Y-80247142D01*
X167015000Y-80090075D01*
X167015000Y-79929925D01*
X167046242Y-79772858D01*
X167107530Y-79624898D01*
X167196502Y-79491742D01*
X167309742Y-79378502D01*
X167442898Y-79289530D01*
X167445141Y-79288601D01*
X167546481Y-79246624D01*
X167590858Y-79228242D01*
X167747925Y-79197000D01*
X167908075Y-79197000D01*
X168065142Y-79228242D01*
X168065142Y-79228242D01*
G37*
G36*
X165525142Y-79228242D02*
G01*
X165569519Y-79246624D01*
X165670860Y-79288601D01*
X165673102Y-79289530D01*
X165806258Y-79378502D01*
X165919498Y-79491742D01*
X166008470Y-79624898D01*
X166069758Y-79772858D01*
X166101000Y-79929925D01*
X166101000Y-80090075D01*
X166069758Y-80247142D01*
X166038957Y-80321500D01*
X166008471Y-80395100D01*
X165946505Y-80487840D01*
X165919498Y-80528258D01*
X165806258Y-80641498D01*
X165673102Y-80730470D01*
X165525142Y-80791758D01*
X165368075Y-80823000D01*
X165207925Y-80823000D01*
X165050858Y-80791758D01*
X164902898Y-80730470D01*
X164769742Y-80641498D01*
X164656502Y-80528258D01*
X164629496Y-80487840D01*
X164567529Y-80395100D01*
X164537043Y-80321500D01*
X164506242Y-80247142D01*
X164475000Y-80090075D01*
X164475000Y-79929925D01*
X164506242Y-79772858D01*
X164567530Y-79624898D01*
X164656502Y-79491742D01*
X164769742Y-79378502D01*
X164902898Y-79289530D01*
X164905141Y-79288601D01*
X165006481Y-79246624D01*
X165050858Y-79228242D01*
X165207925Y-79197000D01*
X165368075Y-79197000D01*
X165525142Y-79228242D01*
X165525142Y-79228242D01*
G37*
G36*
X114940928Y-78797764D02*
G01*
X114962011Y-78804160D01*
X114981442Y-78814546D01*
X114998475Y-78828525D01*
X115012454Y-78845558D01*
X115022840Y-78864989D01*
X115029236Y-78886072D01*
X115032000Y-78914140D01*
X115032000Y-80377860D01*
X115029236Y-80405928D01*
X115022840Y-80427011D01*
X115012454Y-80446442D01*
X114998475Y-80463475D01*
X114981442Y-80477454D01*
X114962011Y-80487840D01*
X114940928Y-80494236D01*
X114912860Y-80497000D01*
X114449140Y-80497000D01*
X114421072Y-80494236D01*
X114399989Y-80487840D01*
X114380558Y-80477454D01*
X114363525Y-80463475D01*
X114349546Y-80446442D01*
X114339160Y-80427011D01*
X114332764Y-80405928D01*
X114330000Y-80377860D01*
X114330000Y-78914140D01*
X114332764Y-78886072D01*
X114339160Y-78864989D01*
X114349546Y-78845558D01*
X114363525Y-78828525D01*
X114380558Y-78814546D01*
X114399989Y-78804160D01*
X114421072Y-78797764D01*
X114449140Y-78795000D01*
X114912860Y-78795000D01*
X114940928Y-78797764D01*
X114940928Y-78797764D01*
G37*
G36*
X118750928Y-78797764D02*
G01*
X118772011Y-78804160D01*
X118791442Y-78814546D01*
X118808475Y-78828525D01*
X118822454Y-78845558D01*
X118832840Y-78864989D01*
X118839236Y-78886072D01*
X118842000Y-78914140D01*
X118842000Y-80377860D01*
X118839236Y-80405928D01*
X118832840Y-80427011D01*
X118822454Y-80446442D01*
X118808475Y-80463475D01*
X118791442Y-80477454D01*
X118772011Y-80487840D01*
X118750928Y-80494236D01*
X118722860Y-80497000D01*
X118259140Y-80497000D01*
X118231072Y-80494236D01*
X118209989Y-80487840D01*
X118190558Y-80477454D01*
X118173525Y-80463475D01*
X118159546Y-80446442D01*
X118149160Y-80427011D01*
X118142764Y-80405928D01*
X118140000Y-80377860D01*
X118140000Y-78914140D01*
X118142764Y-78886072D01*
X118149160Y-78864989D01*
X118159546Y-78845558D01*
X118173525Y-78828525D01*
X118190558Y-78814546D01*
X118209989Y-78804160D01*
X118231072Y-78797764D01*
X118259140Y-78795000D01*
X118722860Y-78795000D01*
X118750928Y-78797764D01*
X118750928Y-78797764D01*
G37*
G36*
X117480928Y-78797764D02*
G01*
X117502011Y-78804160D01*
X117521442Y-78814546D01*
X117538475Y-78828525D01*
X117552454Y-78845558D01*
X117562840Y-78864989D01*
X117569236Y-78886072D01*
X117572000Y-78914140D01*
X117572000Y-80377860D01*
X117569236Y-80405928D01*
X117562840Y-80427011D01*
X117552454Y-80446442D01*
X117538475Y-80463475D01*
X117521442Y-80477454D01*
X117502011Y-80487840D01*
X117480928Y-80494236D01*
X117452860Y-80497000D01*
X116989140Y-80497000D01*
X116961072Y-80494236D01*
X116939989Y-80487840D01*
X116920558Y-80477454D01*
X116903525Y-80463475D01*
X116889546Y-80446442D01*
X116879160Y-80427011D01*
X116872764Y-80405928D01*
X116870000Y-80377860D01*
X116870000Y-78914140D01*
X116872764Y-78886072D01*
X116879160Y-78864989D01*
X116889546Y-78845558D01*
X116903525Y-78828525D01*
X116920558Y-78814546D01*
X116939989Y-78804160D01*
X116961072Y-78797764D01*
X116989140Y-78795000D01*
X117452860Y-78795000D01*
X117480928Y-78797764D01*
X117480928Y-78797764D01*
G37*
G36*
X116210928Y-78797764D02*
G01*
X116232011Y-78804160D01*
X116251442Y-78814546D01*
X116268475Y-78828525D01*
X116282454Y-78845558D01*
X116292840Y-78864989D01*
X116299236Y-78886072D01*
X116302000Y-78914140D01*
X116302000Y-80377860D01*
X116299236Y-80405928D01*
X116292840Y-80427011D01*
X116282454Y-80446442D01*
X116268475Y-80463475D01*
X116251442Y-80477454D01*
X116232011Y-80487840D01*
X116210928Y-80494236D01*
X116182860Y-80497000D01*
X115719140Y-80497000D01*
X115691072Y-80494236D01*
X115669989Y-80487840D01*
X115650558Y-80477454D01*
X115633525Y-80463475D01*
X115619546Y-80446442D01*
X115609160Y-80427011D01*
X115602764Y-80405928D01*
X115600000Y-80377860D01*
X115600000Y-78914140D01*
X115602764Y-78886072D01*
X115609160Y-78864989D01*
X115619546Y-78845558D01*
X115633525Y-78828525D01*
X115650558Y-78814546D01*
X115669989Y-78804160D01*
X115691072Y-78797764D01*
X115719140Y-78795000D01*
X116182860Y-78795000D01*
X116210928Y-78797764D01*
X116210928Y-78797764D01*
G37*
G36*
X123711562Y-78706181D02*
G01*
X123746477Y-78716773D01*
X123778665Y-78733978D01*
X123806873Y-78757127D01*
X123830022Y-78785335D01*
X123847227Y-78817523D01*
X123857819Y-78852438D01*
X123862000Y-78894895D01*
X123862000Y-80036105D01*
X123857819Y-80078562D01*
X123847227Y-80113477D01*
X123830022Y-80145665D01*
X123806873Y-80173873D01*
X123778665Y-80197022D01*
X123746477Y-80214227D01*
X123711562Y-80224819D01*
X123669105Y-80229000D01*
X122202895Y-80229000D01*
X122160438Y-80224819D01*
X122125523Y-80214227D01*
X122093335Y-80197022D01*
X122065127Y-80173873D01*
X122041978Y-80145665D01*
X122024773Y-80113477D01*
X122014181Y-80078562D01*
X122010000Y-80036105D01*
X122010000Y-78894895D01*
X122014181Y-78852438D01*
X122024773Y-78817523D01*
X122041978Y-78785335D01*
X122065127Y-78757127D01*
X122093335Y-78733978D01*
X122125523Y-78716773D01*
X122160438Y-78706181D01*
X122202895Y-78702000D01*
X123669105Y-78702000D01*
X123711562Y-78706181D01*
X123711562Y-78706181D01*
G37*
G36*
X127775562Y-78706181D02*
G01*
X127810477Y-78716773D01*
X127842665Y-78733978D01*
X127870873Y-78757127D01*
X127894022Y-78785335D01*
X127911227Y-78817523D01*
X127921819Y-78852438D01*
X127926000Y-78894895D01*
X127926000Y-80036105D01*
X127921819Y-80078562D01*
X127911227Y-80113477D01*
X127894022Y-80145665D01*
X127870873Y-80173873D01*
X127842665Y-80197022D01*
X127810477Y-80214227D01*
X127775562Y-80224819D01*
X127733105Y-80229000D01*
X126266895Y-80229000D01*
X126224438Y-80224819D01*
X126189523Y-80214227D01*
X126157335Y-80197022D01*
X126129127Y-80173873D01*
X126105978Y-80145665D01*
X126088773Y-80113477D01*
X126078181Y-80078562D01*
X126074000Y-80036105D01*
X126074000Y-78894895D01*
X126078181Y-78852438D01*
X126088773Y-78817523D01*
X126105978Y-78785335D01*
X126129127Y-78757127D01*
X126157335Y-78733978D01*
X126189523Y-78716773D01*
X126224438Y-78706181D01*
X126266895Y-78702000D01*
X127733105Y-78702000D01*
X127775562Y-78706181D01*
X127775562Y-78706181D01*
G37*
G36*
X131839562Y-78706181D02*
G01*
X131874477Y-78716773D01*
X131906665Y-78733978D01*
X131934873Y-78757127D01*
X131958022Y-78785335D01*
X131975227Y-78817523D01*
X131985819Y-78852438D01*
X131990000Y-78894895D01*
X131990000Y-80036105D01*
X131985819Y-80078562D01*
X131975227Y-80113477D01*
X131958022Y-80145665D01*
X131934873Y-80173873D01*
X131906665Y-80197022D01*
X131874477Y-80214227D01*
X131839562Y-80224819D01*
X131797105Y-80229000D01*
X130330895Y-80229000D01*
X130288438Y-80224819D01*
X130253523Y-80214227D01*
X130221335Y-80197022D01*
X130193127Y-80173873D01*
X130169978Y-80145665D01*
X130152773Y-80113477D01*
X130142181Y-80078562D01*
X130138000Y-80036105D01*
X130138000Y-78894895D01*
X130142181Y-78852438D01*
X130152773Y-78817523D01*
X130169978Y-78785335D01*
X130193127Y-78757127D01*
X130221335Y-78733978D01*
X130253523Y-78716773D01*
X130288438Y-78706181D01*
X130330895Y-78702000D01*
X131797105Y-78702000D01*
X131839562Y-78706181D01*
X131839562Y-78706181D01*
G37*
G36*
X99233714Y-78820058D02*
G01*
X99240871Y-78822229D01*
X99351719Y-78855854D01*
X99351721Y-78855855D01*
X99460471Y-78913983D01*
X99555790Y-78992210D01*
X99634017Y-79087529D01*
X99634018Y-79087531D01*
X99692146Y-79196281D01*
X99692364Y-79197000D01*
X99727942Y-79314286D01*
X99740028Y-79437000D01*
X99727942Y-79559714D01*
X99692145Y-79677721D01*
X99634017Y-79786471D01*
X99555790Y-79881790D01*
X99460471Y-79960017D01*
X99460469Y-79960018D01*
X99351719Y-80018146D01*
X99292515Y-80036105D01*
X99233714Y-80053942D01*
X99141747Y-80063000D01*
X98430253Y-80063000D01*
X98338286Y-80053942D01*
X98279485Y-80036105D01*
X98220281Y-80018146D01*
X98111531Y-79960018D01*
X98111529Y-79960017D01*
X98016210Y-79881790D01*
X97937983Y-79786471D01*
X97879855Y-79677721D01*
X97844058Y-79559714D01*
X97831972Y-79437000D01*
X97844058Y-79314286D01*
X97879636Y-79197000D01*
X97879854Y-79196281D01*
X97937982Y-79087531D01*
X97937983Y-79087529D01*
X98016210Y-78992210D01*
X98111529Y-78913983D01*
X98220279Y-78855855D01*
X98220281Y-78855854D01*
X98331129Y-78822229D01*
X98338286Y-78820058D01*
X98430253Y-78811000D01*
X99141747Y-78811000D01*
X99233714Y-78820058D01*
X99233714Y-78820058D01*
G37*
G36*
X106821562Y-77564181D02*
G01*
X106856477Y-77574773D01*
X106888665Y-77591978D01*
X106916873Y-77615127D01*
X106940022Y-77643335D01*
X106957227Y-77675523D01*
X106967819Y-77710438D01*
X106972000Y-77752895D01*
X106972000Y-79219105D01*
X106967819Y-79261562D01*
X106957227Y-79296477D01*
X106940022Y-79328665D01*
X106916873Y-79356873D01*
X106888665Y-79380022D01*
X106856477Y-79397227D01*
X106821562Y-79407819D01*
X106779105Y-79412000D01*
X105637895Y-79412000D01*
X105595438Y-79407819D01*
X105560523Y-79397227D01*
X105528335Y-79380022D01*
X105500127Y-79356873D01*
X105476978Y-79328665D01*
X105459773Y-79296477D01*
X105449181Y-79261562D01*
X105445000Y-79219105D01*
X105445000Y-77752895D01*
X105449181Y-77710438D01*
X105459773Y-77675523D01*
X105476978Y-77643335D01*
X105500127Y-77615127D01*
X105528335Y-77591978D01*
X105560523Y-77574773D01*
X105595438Y-77564181D01*
X105637895Y-77560000D01*
X106779105Y-77560000D01*
X106821562Y-77564181D01*
X106821562Y-77564181D01*
G37*
G36*
X109796562Y-77564181D02*
G01*
X109831477Y-77574773D01*
X109863665Y-77591978D01*
X109891873Y-77615127D01*
X109915022Y-77643335D01*
X109932227Y-77675523D01*
X109942819Y-77710438D01*
X109947000Y-77752895D01*
X109947000Y-79219105D01*
X109942819Y-79261562D01*
X109932227Y-79296477D01*
X109915022Y-79328665D01*
X109891873Y-79356873D01*
X109863665Y-79380022D01*
X109831477Y-79397227D01*
X109796562Y-79407819D01*
X109754105Y-79412000D01*
X108612895Y-79412000D01*
X108570438Y-79407819D01*
X108535523Y-79397227D01*
X108503335Y-79380022D01*
X108475127Y-79356873D01*
X108451978Y-79328665D01*
X108434773Y-79296477D01*
X108424181Y-79261562D01*
X108420000Y-79219105D01*
X108420000Y-77752895D01*
X108424181Y-77710438D01*
X108434773Y-77675523D01*
X108451978Y-77643335D01*
X108475127Y-77615127D01*
X108503335Y-77591978D01*
X108535523Y-77574773D01*
X108570438Y-77564181D01*
X108612895Y-77560000D01*
X109754105Y-77560000D01*
X109796562Y-77564181D01*
X109796562Y-77564181D01*
G37*
G36*
X177540228Y-76691703D02*
G01*
X177695100Y-76755853D01*
X177834481Y-76848985D01*
X177953015Y-76967519D01*
X178046147Y-77106900D01*
X178110297Y-77261772D01*
X178143000Y-77426184D01*
X178143000Y-77593816D01*
X178110297Y-77758228D01*
X178046147Y-77913100D01*
X177953015Y-78052481D01*
X177834481Y-78171015D01*
X177695100Y-78264147D01*
X177540228Y-78328297D01*
X177375816Y-78361000D01*
X177208184Y-78361000D01*
X177043772Y-78328297D01*
X176888900Y-78264147D01*
X176749519Y-78171015D01*
X176630985Y-78052481D01*
X176537853Y-77913100D01*
X176473703Y-77758228D01*
X176441000Y-77593816D01*
X176441000Y-77426184D01*
X176473703Y-77261772D01*
X176537853Y-77106900D01*
X176630985Y-76967519D01*
X176749519Y-76848985D01*
X176888900Y-76755853D01*
X177043772Y-76691703D01*
X177208184Y-76659000D01*
X177375816Y-76659000D01*
X177540228Y-76691703D01*
X177540228Y-76691703D01*
G37*
G36*
X141291562Y-75912181D02*
G01*
X141326477Y-75922773D01*
X141358665Y-75939978D01*
X141386873Y-75963127D01*
X141410022Y-75991335D01*
X141427227Y-76023523D01*
X141437819Y-76058438D01*
X141442000Y-76100895D01*
X141442000Y-77242105D01*
X141437819Y-77284562D01*
X141427227Y-77319477D01*
X141410022Y-77351665D01*
X141386873Y-77379873D01*
X141358665Y-77403022D01*
X141326477Y-77420227D01*
X141291562Y-77430819D01*
X141249105Y-77435000D01*
X139782895Y-77435000D01*
X139740438Y-77430819D01*
X139705523Y-77420227D01*
X139673335Y-77403022D01*
X139645127Y-77379873D01*
X139621978Y-77351665D01*
X139604773Y-77319477D01*
X139594181Y-77284562D01*
X139590000Y-77242105D01*
X139590000Y-76100895D01*
X139594181Y-76058438D01*
X139604773Y-76023523D01*
X139621978Y-75991335D01*
X139645127Y-75963127D01*
X139673335Y-75939978D01*
X139705523Y-75922773D01*
X139740438Y-75912181D01*
X139782895Y-75908000D01*
X141249105Y-75908000D01*
X141291562Y-75912181D01*
X141291562Y-75912181D01*
G37*
G36*
X148657562Y-75912181D02*
G01*
X148692477Y-75922773D01*
X148724665Y-75939978D01*
X148752873Y-75963127D01*
X148776022Y-75991335D01*
X148793227Y-76023523D01*
X148803819Y-76058438D01*
X148808000Y-76100895D01*
X148808000Y-77242105D01*
X148803819Y-77284562D01*
X148793227Y-77319477D01*
X148776022Y-77351665D01*
X148752873Y-77379873D01*
X148724665Y-77403022D01*
X148692477Y-77420227D01*
X148657562Y-77430819D01*
X148615105Y-77435000D01*
X147148895Y-77435000D01*
X147106438Y-77430819D01*
X147071523Y-77420227D01*
X147039335Y-77403022D01*
X147011127Y-77379873D01*
X146987978Y-77351665D01*
X146970773Y-77319477D01*
X146960181Y-77284562D01*
X146956000Y-77242105D01*
X146956000Y-76100895D01*
X146960181Y-76058438D01*
X146970773Y-76023523D01*
X146987978Y-75991335D01*
X147011127Y-75963127D01*
X147039335Y-75939978D01*
X147071523Y-75922773D01*
X147106438Y-75912181D01*
X147148895Y-75908000D01*
X148615105Y-75908000D01*
X148657562Y-75912181D01*
X148657562Y-75912181D01*
G37*
G36*
X136465562Y-75912181D02*
G01*
X136500477Y-75922773D01*
X136532665Y-75939978D01*
X136560873Y-75963127D01*
X136584022Y-75991335D01*
X136601227Y-76023523D01*
X136611819Y-76058438D01*
X136616000Y-76100895D01*
X136616000Y-77242105D01*
X136611819Y-77284562D01*
X136601227Y-77319477D01*
X136584022Y-77351665D01*
X136560873Y-77379873D01*
X136532665Y-77403022D01*
X136500477Y-77420227D01*
X136465562Y-77430819D01*
X136423105Y-77435000D01*
X134956895Y-77435000D01*
X134914438Y-77430819D01*
X134879523Y-77420227D01*
X134847335Y-77403022D01*
X134819127Y-77379873D01*
X134795978Y-77351665D01*
X134778773Y-77319477D01*
X134768181Y-77284562D01*
X134764000Y-77242105D01*
X134764000Y-76100895D01*
X134768181Y-76058438D01*
X134778773Y-76023523D01*
X134795978Y-75991335D01*
X134819127Y-75963127D01*
X134847335Y-75939978D01*
X134879523Y-75922773D01*
X134914438Y-75912181D01*
X134956895Y-75908000D01*
X136423105Y-75908000D01*
X136465562Y-75912181D01*
X136465562Y-75912181D01*
G37*
G36*
X144847562Y-75876181D02*
G01*
X144882477Y-75886773D01*
X144914665Y-75903978D01*
X144942873Y-75927127D01*
X144966022Y-75955335D01*
X144983227Y-75987523D01*
X144993819Y-76022438D01*
X144998000Y-76064895D01*
X144998000Y-77206105D01*
X144993819Y-77248562D01*
X144983227Y-77283477D01*
X144966022Y-77315665D01*
X144942873Y-77343873D01*
X144914665Y-77367022D01*
X144882477Y-77384227D01*
X144847562Y-77394819D01*
X144805105Y-77399000D01*
X143338895Y-77399000D01*
X143296438Y-77394819D01*
X143261523Y-77384227D01*
X143229335Y-77367022D01*
X143201127Y-77343873D01*
X143177978Y-77315665D01*
X143160773Y-77283477D01*
X143150181Y-77248562D01*
X143146000Y-77206105D01*
X143146000Y-76064895D01*
X143150181Y-76022438D01*
X143160773Y-75987523D01*
X143177978Y-75955335D01*
X143201127Y-75927127D01*
X143229335Y-75903978D01*
X143261523Y-75886773D01*
X143296438Y-75876181D01*
X143338895Y-75872000D01*
X144805105Y-75872000D01*
X144847562Y-75876181D01*
X144847562Y-75876181D01*
G37*
G36*
X131839562Y-75731181D02*
G01*
X131874477Y-75741773D01*
X131906665Y-75758978D01*
X131934873Y-75782127D01*
X131958022Y-75810335D01*
X131975227Y-75842523D01*
X131985819Y-75877438D01*
X131990000Y-75919895D01*
X131990000Y-77061105D01*
X131985819Y-77103562D01*
X131975227Y-77138477D01*
X131958022Y-77170665D01*
X131934873Y-77198873D01*
X131906665Y-77222022D01*
X131874477Y-77239227D01*
X131839562Y-77249819D01*
X131797105Y-77254000D01*
X130330895Y-77254000D01*
X130288438Y-77249819D01*
X130253523Y-77239227D01*
X130221335Y-77222022D01*
X130193127Y-77198873D01*
X130169978Y-77170665D01*
X130152773Y-77138477D01*
X130142181Y-77103562D01*
X130138000Y-77061105D01*
X130138000Y-75919895D01*
X130142181Y-75877438D01*
X130152773Y-75842523D01*
X130169978Y-75810335D01*
X130193127Y-75782127D01*
X130221335Y-75758978D01*
X130253523Y-75741773D01*
X130288438Y-75731181D01*
X130330895Y-75727000D01*
X131797105Y-75727000D01*
X131839562Y-75731181D01*
X131839562Y-75731181D01*
G37*
G36*
X123711562Y-75731181D02*
G01*
X123746477Y-75741773D01*
X123778665Y-75758978D01*
X123806873Y-75782127D01*
X123830022Y-75810335D01*
X123847227Y-75842523D01*
X123857819Y-75877438D01*
X123862000Y-75919895D01*
X123862000Y-77061105D01*
X123857819Y-77103562D01*
X123847227Y-77138477D01*
X123830022Y-77170665D01*
X123806873Y-77198873D01*
X123778665Y-77222022D01*
X123746477Y-77239227D01*
X123711562Y-77249819D01*
X123669105Y-77254000D01*
X122202895Y-77254000D01*
X122160438Y-77249819D01*
X122125523Y-77239227D01*
X122093335Y-77222022D01*
X122065127Y-77198873D01*
X122041978Y-77170665D01*
X122024773Y-77138477D01*
X122014181Y-77103562D01*
X122010000Y-77061105D01*
X122010000Y-75919895D01*
X122014181Y-75877438D01*
X122024773Y-75842523D01*
X122041978Y-75810335D01*
X122065127Y-75782127D01*
X122093335Y-75758978D01*
X122125523Y-75741773D01*
X122160438Y-75731181D01*
X122202895Y-75727000D01*
X123669105Y-75727000D01*
X123711562Y-75731181D01*
X123711562Y-75731181D01*
G37*
G36*
X127775562Y-75731181D02*
G01*
X127810477Y-75741773D01*
X127842665Y-75758978D01*
X127870873Y-75782127D01*
X127894022Y-75810335D01*
X127911227Y-75842523D01*
X127921819Y-75877438D01*
X127926000Y-75919895D01*
X127926000Y-77061105D01*
X127921819Y-77103562D01*
X127911227Y-77138477D01*
X127894022Y-77170665D01*
X127870873Y-77198873D01*
X127842665Y-77222022D01*
X127810477Y-77239227D01*
X127775562Y-77249819D01*
X127733105Y-77254000D01*
X126266895Y-77254000D01*
X126224438Y-77249819D01*
X126189523Y-77239227D01*
X126157335Y-77222022D01*
X126129127Y-77198873D01*
X126105978Y-77170665D01*
X126088773Y-77138477D01*
X126078181Y-77103562D01*
X126074000Y-77061105D01*
X126074000Y-75919895D01*
X126078181Y-75877438D01*
X126088773Y-75842523D01*
X126105978Y-75810335D01*
X126129127Y-75782127D01*
X126157335Y-75758978D01*
X126189523Y-75741773D01*
X126224438Y-75731181D01*
X126266895Y-75727000D01*
X127733105Y-75727000D01*
X127775562Y-75731181D01*
X127775562Y-75731181D01*
G37*
G36*
X152747000Y-76747000D02*
G01*
X151145000Y-76747000D01*
X151145000Y-75145000D01*
X152747000Y-75145000D01*
X152747000Y-76747000D01*
X152747000Y-76747000D01*
G37*
G36*
X117615562Y-75150181D02*
G01*
X117650477Y-75160773D01*
X117682665Y-75177978D01*
X117710873Y-75201127D01*
X117734022Y-75229335D01*
X117751227Y-75261523D01*
X117761819Y-75296438D01*
X117766000Y-75338895D01*
X117766000Y-76480105D01*
X117761819Y-76522562D01*
X117751227Y-76557477D01*
X117734022Y-76589665D01*
X117710873Y-76617873D01*
X117682665Y-76641022D01*
X117650477Y-76658227D01*
X117615562Y-76668819D01*
X117573105Y-76673000D01*
X116106895Y-76673000D01*
X116064438Y-76668819D01*
X116029523Y-76658227D01*
X115997335Y-76641022D01*
X115969127Y-76617873D01*
X115945978Y-76589665D01*
X115928773Y-76557477D01*
X115918181Y-76522562D01*
X115914000Y-76480105D01*
X115914000Y-75338895D01*
X115918181Y-75296438D01*
X115928773Y-75261523D01*
X115945978Y-75229335D01*
X115969127Y-75201127D01*
X115997335Y-75177978D01*
X116029523Y-75160773D01*
X116064438Y-75150181D01*
X116106895Y-75146000D01*
X117573105Y-75146000D01*
X117615562Y-75150181D01*
X117615562Y-75150181D01*
G37*
G36*
X113551562Y-75150181D02*
G01*
X113586477Y-75160773D01*
X113618665Y-75177978D01*
X113646873Y-75201127D01*
X113670022Y-75229335D01*
X113687227Y-75261523D01*
X113697819Y-75296438D01*
X113702000Y-75338895D01*
X113702000Y-76480105D01*
X113697819Y-76522562D01*
X113687227Y-76557477D01*
X113670022Y-76589665D01*
X113646873Y-76617873D01*
X113618665Y-76641022D01*
X113586477Y-76658227D01*
X113551562Y-76668819D01*
X113509105Y-76673000D01*
X112042895Y-76673000D01*
X112000438Y-76668819D01*
X111965523Y-76658227D01*
X111933335Y-76641022D01*
X111905127Y-76617873D01*
X111881978Y-76589665D01*
X111864773Y-76557477D01*
X111854181Y-76522562D01*
X111850000Y-76480105D01*
X111850000Y-75338895D01*
X111854181Y-75296438D01*
X111864773Y-75261523D01*
X111881978Y-75229335D01*
X111905127Y-75201127D01*
X111933335Y-75177978D01*
X111965523Y-75160773D01*
X112000438Y-75150181D01*
X112042895Y-75146000D01*
X113509105Y-75146000D01*
X113551562Y-75150181D01*
X113551562Y-75150181D01*
G37*
G36*
X99424442Y-74035518D02*
G01*
X99490627Y-74042037D01*
X99603853Y-74076384D01*
X99660467Y-74093557D01*
X99777484Y-74156105D01*
X99816991Y-74177222D01*
X99852729Y-74206552D01*
X99954186Y-74289814D01*
X100029458Y-74381535D01*
X100066778Y-74427009D01*
X100066779Y-74427011D01*
X100150443Y-74583533D01*
X100150443Y-74583534D01*
X100201963Y-74753373D01*
X100219359Y-74930000D01*
X100201963Y-75106627D01*
X100180319Y-75177978D01*
X100150443Y-75276467D01*
X100139768Y-75296438D01*
X100066778Y-75432991D01*
X100037448Y-75468729D01*
X99954186Y-75570186D01*
X99852729Y-75653448D01*
X99816991Y-75682778D01*
X99816989Y-75682779D01*
X99660467Y-75766443D01*
X99608763Y-75782127D01*
X99490627Y-75817963D01*
X99424442Y-75824482D01*
X99358260Y-75831000D01*
X99269740Y-75831000D01*
X99203558Y-75824482D01*
X99137373Y-75817963D01*
X99019237Y-75782127D01*
X98967533Y-75766443D01*
X98811011Y-75682779D01*
X98811009Y-75682778D01*
X98775271Y-75653448D01*
X98673814Y-75570186D01*
X98590552Y-75468729D01*
X98561222Y-75432991D01*
X98488232Y-75296438D01*
X98477557Y-75276467D01*
X98447681Y-75177978D01*
X98426037Y-75106627D01*
X98408641Y-74930000D01*
X98426037Y-74753373D01*
X98477557Y-74583534D01*
X98477557Y-74583533D01*
X98561221Y-74427011D01*
X98561222Y-74427009D01*
X98598542Y-74381535D01*
X98673814Y-74289814D01*
X98775271Y-74206552D01*
X98811009Y-74177222D01*
X98850516Y-74156105D01*
X98967533Y-74093557D01*
X99024147Y-74076384D01*
X99137373Y-74042037D01*
X99203558Y-74035518D01*
X99269740Y-74029000D01*
X99358260Y-74029000D01*
X99424442Y-74035518D01*
X99424442Y-74035518D01*
G37*
G36*
X141291562Y-72937181D02*
G01*
X141326477Y-72947773D01*
X141358665Y-72964978D01*
X141386873Y-72988127D01*
X141410022Y-73016335D01*
X141427227Y-73048523D01*
X141437819Y-73083438D01*
X141442000Y-73125895D01*
X141442000Y-74267105D01*
X141437819Y-74309562D01*
X141427227Y-74344477D01*
X141410022Y-74376665D01*
X141386873Y-74404873D01*
X141358665Y-74428022D01*
X141326477Y-74445227D01*
X141291562Y-74455819D01*
X141249105Y-74460000D01*
X139782895Y-74460000D01*
X139740438Y-74455819D01*
X139705523Y-74445227D01*
X139673335Y-74428022D01*
X139645127Y-74404873D01*
X139621978Y-74376665D01*
X139604773Y-74344477D01*
X139594181Y-74309562D01*
X139590000Y-74267105D01*
X139590000Y-73125895D01*
X139594181Y-73083438D01*
X139604773Y-73048523D01*
X139621978Y-73016335D01*
X139645127Y-72988127D01*
X139673335Y-72964978D01*
X139705523Y-72947773D01*
X139740438Y-72937181D01*
X139782895Y-72933000D01*
X141249105Y-72933000D01*
X141291562Y-72937181D01*
X141291562Y-72937181D01*
G37*
G36*
X148657562Y-72937181D02*
G01*
X148692477Y-72947773D01*
X148724665Y-72964978D01*
X148752873Y-72988127D01*
X148776022Y-73016335D01*
X148793227Y-73048523D01*
X148803819Y-73083438D01*
X148808000Y-73125895D01*
X148808000Y-74267105D01*
X148803819Y-74309562D01*
X148793227Y-74344477D01*
X148776022Y-74376665D01*
X148752873Y-74404873D01*
X148724665Y-74428022D01*
X148692477Y-74445227D01*
X148657562Y-74455819D01*
X148615105Y-74460000D01*
X147148895Y-74460000D01*
X147106438Y-74455819D01*
X147071523Y-74445227D01*
X147039335Y-74428022D01*
X147011127Y-74404873D01*
X146987978Y-74376665D01*
X146970773Y-74344477D01*
X146960181Y-74309562D01*
X146956000Y-74267105D01*
X146956000Y-73125895D01*
X146960181Y-73083438D01*
X146970773Y-73048523D01*
X146987978Y-73016335D01*
X147011127Y-72988127D01*
X147039335Y-72964978D01*
X147071523Y-72947773D01*
X147106438Y-72937181D01*
X147148895Y-72933000D01*
X148615105Y-72933000D01*
X148657562Y-72937181D01*
X148657562Y-72937181D01*
G37*
G36*
X136465562Y-72937181D02*
G01*
X136500477Y-72947773D01*
X136532665Y-72964978D01*
X136560873Y-72988127D01*
X136584022Y-73016335D01*
X136601227Y-73048523D01*
X136611819Y-73083438D01*
X136616000Y-73125895D01*
X136616000Y-74267105D01*
X136611819Y-74309562D01*
X136601227Y-74344477D01*
X136584022Y-74376665D01*
X136560873Y-74404873D01*
X136532665Y-74428022D01*
X136500477Y-74445227D01*
X136465562Y-74455819D01*
X136423105Y-74460000D01*
X134956895Y-74460000D01*
X134914438Y-74455819D01*
X134879523Y-74445227D01*
X134847335Y-74428022D01*
X134819127Y-74404873D01*
X134795978Y-74376665D01*
X134778773Y-74344477D01*
X134768181Y-74309562D01*
X134764000Y-74267105D01*
X134764000Y-73125895D01*
X134768181Y-73083438D01*
X134778773Y-73048523D01*
X134795978Y-73016335D01*
X134819127Y-72988127D01*
X134847335Y-72964978D01*
X134879523Y-72947773D01*
X134914438Y-72937181D01*
X134956895Y-72933000D01*
X136423105Y-72933000D01*
X136465562Y-72937181D01*
X136465562Y-72937181D01*
G37*
G36*
X144847562Y-72901181D02*
G01*
X144882477Y-72911773D01*
X144914665Y-72928978D01*
X144942873Y-72952127D01*
X144966022Y-72980335D01*
X144983227Y-73012523D01*
X144993819Y-73047438D01*
X144998000Y-73089895D01*
X144998000Y-74231105D01*
X144993819Y-74273562D01*
X144983227Y-74308477D01*
X144966022Y-74340665D01*
X144942873Y-74368873D01*
X144914665Y-74392022D01*
X144882477Y-74409227D01*
X144847562Y-74419819D01*
X144805105Y-74424000D01*
X143338895Y-74424000D01*
X143296438Y-74419819D01*
X143261523Y-74409227D01*
X143229335Y-74392022D01*
X143201127Y-74368873D01*
X143177978Y-74340665D01*
X143160773Y-74308477D01*
X143150181Y-74273562D01*
X143146000Y-74231105D01*
X143146000Y-73089895D01*
X143150181Y-73047438D01*
X143160773Y-73012523D01*
X143177978Y-72980335D01*
X143201127Y-72952127D01*
X143229335Y-72928978D01*
X143261523Y-72911773D01*
X143296438Y-72901181D01*
X143338895Y-72897000D01*
X144805105Y-72897000D01*
X144847562Y-72901181D01*
X144847562Y-72901181D01*
G37*
G36*
X113551562Y-72175181D02*
G01*
X113586477Y-72185773D01*
X113618665Y-72202978D01*
X113646873Y-72226127D01*
X113670022Y-72254335D01*
X113687227Y-72286523D01*
X113697819Y-72321438D01*
X113702000Y-72363895D01*
X113702000Y-73505105D01*
X113697819Y-73547562D01*
X113687227Y-73582477D01*
X113670022Y-73614665D01*
X113646873Y-73642873D01*
X113618665Y-73666022D01*
X113586477Y-73683227D01*
X113551562Y-73693819D01*
X113509105Y-73698000D01*
X112042895Y-73698000D01*
X112000438Y-73693819D01*
X111965523Y-73683227D01*
X111933335Y-73666022D01*
X111905127Y-73642873D01*
X111881978Y-73614665D01*
X111864773Y-73582477D01*
X111854181Y-73547562D01*
X111850000Y-73505105D01*
X111850000Y-72363895D01*
X111854181Y-72321438D01*
X111864773Y-72286523D01*
X111881978Y-72254335D01*
X111905127Y-72226127D01*
X111933335Y-72202978D01*
X111965523Y-72185773D01*
X112000438Y-72175181D01*
X112042895Y-72171000D01*
X113509105Y-72171000D01*
X113551562Y-72175181D01*
X113551562Y-72175181D01*
G37*
G36*
X117615562Y-72175181D02*
G01*
X117650477Y-72185773D01*
X117682665Y-72202978D01*
X117710873Y-72226127D01*
X117734022Y-72254335D01*
X117751227Y-72286523D01*
X117761819Y-72321438D01*
X117766000Y-72363895D01*
X117766000Y-73505105D01*
X117761819Y-73547562D01*
X117751227Y-73582477D01*
X117734022Y-73614665D01*
X117710873Y-73642873D01*
X117682665Y-73666022D01*
X117650477Y-73683227D01*
X117615562Y-73693819D01*
X117573105Y-73698000D01*
X116106895Y-73698000D01*
X116064438Y-73693819D01*
X116029523Y-73683227D01*
X115997335Y-73666022D01*
X115969127Y-73642873D01*
X115945978Y-73614665D01*
X115928773Y-73582477D01*
X115918181Y-73547562D01*
X115914000Y-73505105D01*
X115914000Y-72363895D01*
X115918181Y-72321438D01*
X115928773Y-72286523D01*
X115945978Y-72254335D01*
X115969127Y-72226127D01*
X115997335Y-72202978D01*
X116029523Y-72185773D01*
X116064438Y-72175181D01*
X116106895Y-72171000D01*
X117573105Y-72171000D01*
X117615562Y-72175181D01*
X117615562Y-72175181D01*
G37*
G36*
X100215000Y-73291000D02*
G01*
X98413000Y-73291000D01*
X98413000Y-71489000D01*
X100215000Y-71489000D01*
X100215000Y-73291000D01*
X100215000Y-73291000D01*
G37*
G36*
X164998600Y-72034600D02*
G01*
X163169400Y-72034600D01*
X163169400Y-70205400D01*
X164998600Y-70205400D01*
X164998600Y-72034600D01*
X164998600Y-72034600D01*
G37*
G36*
X169343294Y-70218633D02*
G01*
X169515694Y-70270931D01*
X169515696Y-70270932D01*
X169674583Y-70355859D01*
X169813849Y-70470151D01*
X169927965Y-70609202D01*
X169928140Y-70609416D01*
X170013069Y-70768306D01*
X170065367Y-70940706D01*
X170083025Y-71120000D01*
X170065367Y-71299294D01*
X170013069Y-71471694D01*
X170013068Y-71471696D01*
X169928141Y-71630583D01*
X169813849Y-71769849D01*
X169674583Y-71884141D01*
X169515696Y-71969068D01*
X169515694Y-71969069D01*
X169343294Y-72021367D01*
X169208931Y-72034600D01*
X169119069Y-72034600D01*
X168984706Y-72021367D01*
X168812306Y-71969069D01*
X168812304Y-71969068D01*
X168653417Y-71884141D01*
X168514151Y-71769849D01*
X168399859Y-71630583D01*
X168314932Y-71471696D01*
X168314931Y-71471694D01*
X168262633Y-71299294D01*
X168244975Y-71120000D01*
X168262633Y-70940706D01*
X168314931Y-70768306D01*
X168399860Y-70609416D01*
X168400036Y-70609202D01*
X168514151Y-70470151D01*
X168653417Y-70355859D01*
X168812304Y-70270932D01*
X168812306Y-70270931D01*
X168984706Y-70218633D01*
X169119069Y-70205400D01*
X169208931Y-70205400D01*
X169343294Y-70218633D01*
X169343294Y-70218633D01*
G37*
G36*
X166803294Y-70218633D02*
G01*
X166975694Y-70270931D01*
X166975696Y-70270932D01*
X167134583Y-70355859D01*
X167273849Y-70470151D01*
X167387965Y-70609202D01*
X167388140Y-70609416D01*
X167473069Y-70768306D01*
X167525367Y-70940706D01*
X167543025Y-71120000D01*
X167525367Y-71299294D01*
X167473069Y-71471694D01*
X167473068Y-71471696D01*
X167388141Y-71630583D01*
X167273849Y-71769849D01*
X167134583Y-71884141D01*
X166975696Y-71969068D01*
X166975694Y-71969069D01*
X166803294Y-72021367D01*
X166668931Y-72034600D01*
X166579069Y-72034600D01*
X166444706Y-72021367D01*
X166272306Y-71969069D01*
X166272304Y-71969068D01*
X166113417Y-71884141D01*
X165974151Y-71769849D01*
X165859859Y-71630583D01*
X165774932Y-71471696D01*
X165774931Y-71471694D01*
X165722633Y-71299294D01*
X165704975Y-71120000D01*
X165722633Y-70940706D01*
X165774931Y-70768306D01*
X165859860Y-70609416D01*
X165860036Y-70609202D01*
X165974151Y-70470151D01*
X166113417Y-70355859D01*
X166272304Y-70270932D01*
X166272306Y-70270931D01*
X166444706Y-70218633D01*
X166579069Y-70205400D01*
X166668931Y-70205400D01*
X166803294Y-70218633D01*
X166803294Y-70218633D01*
G37*
G36*
X128005734Y-68957232D02*
G01*
X128215202Y-69043996D01*
X128403723Y-69169962D01*
X128564038Y-69330277D01*
X128690004Y-69518798D01*
X128776768Y-69728266D01*
X128821000Y-69950635D01*
X128821000Y-70177365D01*
X128776768Y-70399734D01*
X128690004Y-70609202D01*
X128564038Y-70797723D01*
X128403723Y-70958038D01*
X128215202Y-71084004D01*
X128005734Y-71170768D01*
X127783365Y-71215000D01*
X127556635Y-71215000D01*
X127334266Y-71170768D01*
X127124798Y-71084004D01*
X126936277Y-70958038D01*
X126775962Y-70797723D01*
X126649996Y-70609202D01*
X126563232Y-70399734D01*
X126519000Y-70177365D01*
X126519000Y-69950635D01*
X126563232Y-69728266D01*
X126649996Y-69518798D01*
X126775962Y-69330277D01*
X126936277Y-69169962D01*
X127124798Y-69043996D01*
X127334266Y-68957232D01*
X127556635Y-68913000D01*
X127783365Y-68913000D01*
X128005734Y-68957232D01*
X128005734Y-68957232D01*
G37*
G36*
X121005734Y-68957232D02*
G01*
X121215202Y-69043996D01*
X121403723Y-69169962D01*
X121564038Y-69330277D01*
X121690004Y-69518798D01*
X121776768Y-69728266D01*
X121821000Y-69950635D01*
X121821000Y-70177365D01*
X121776768Y-70399734D01*
X121690004Y-70609202D01*
X121564038Y-70797723D01*
X121403723Y-70958038D01*
X121215202Y-71084004D01*
X121005734Y-71170768D01*
X120783365Y-71215000D01*
X120556635Y-71215000D01*
X120334266Y-71170768D01*
X120124798Y-71084004D01*
X119936277Y-70958038D01*
X119775962Y-70797723D01*
X119649996Y-70609202D01*
X119563232Y-70399734D01*
X119519000Y-70177365D01*
X119519000Y-69950635D01*
X119563232Y-69728266D01*
X119649996Y-69518798D01*
X119775962Y-69330277D01*
X119936277Y-69169962D01*
X120124798Y-69043996D01*
X120334266Y-68957232D01*
X120556635Y-68913000D01*
X120783365Y-68913000D01*
X121005734Y-68957232D01*
X121005734Y-68957232D01*
G37*
G36*
X131839562Y-68800181D02*
G01*
X131874477Y-68810773D01*
X131906665Y-68827978D01*
X131934873Y-68851127D01*
X131958022Y-68879335D01*
X131975227Y-68911523D01*
X131985819Y-68946438D01*
X131990000Y-68988895D01*
X131990000Y-70130105D01*
X131985819Y-70172562D01*
X131975227Y-70207477D01*
X131958022Y-70239665D01*
X131934873Y-70267873D01*
X131906665Y-70291022D01*
X131874477Y-70308227D01*
X131839562Y-70318819D01*
X131797105Y-70323000D01*
X130330895Y-70323000D01*
X130288438Y-70318819D01*
X130253523Y-70308227D01*
X130221335Y-70291022D01*
X130193127Y-70267873D01*
X130169978Y-70239665D01*
X130152773Y-70207477D01*
X130142181Y-70172562D01*
X130138000Y-70130105D01*
X130138000Y-68988895D01*
X130142181Y-68946438D01*
X130152773Y-68911523D01*
X130169978Y-68879335D01*
X130193127Y-68851127D01*
X130221335Y-68827978D01*
X130253523Y-68810773D01*
X130288438Y-68800181D01*
X130330895Y-68796000D01*
X131797105Y-68796000D01*
X131839562Y-68800181D01*
X131839562Y-68800181D01*
G37*
G36*
X138165000Y-70293000D02*
G01*
X136263000Y-70293000D01*
X136263000Y-68391000D01*
X138165000Y-68391000D01*
X138165000Y-70293000D01*
X138165000Y-70293000D01*
G37*
G36*
X146293000Y-70293000D02*
G01*
X144391000Y-70293000D01*
X144391000Y-68391000D01*
X146293000Y-68391000D01*
X146293000Y-70293000D01*
X146293000Y-70293000D01*
G37*
G36*
X154167000Y-70293000D02*
G01*
X152265000Y-70293000D01*
X152265000Y-68391000D01*
X154167000Y-68391000D01*
X154167000Y-70293000D01*
X154167000Y-70293000D01*
G37*
G36*
X179272694Y-64487860D02*
G01*
X179538437Y-64540719D01*
X180039087Y-64748095D01*
X180226774Y-64873504D01*
X180489663Y-65049161D01*
X180872839Y-65432337D01*
X180872841Y-65432340D01*
X181173905Y-65882913D01*
X181381281Y-66383563D01*
X181381281Y-66383564D01*
X181487000Y-66915049D01*
X181487000Y-67456951D01*
X181451186Y-67637000D01*
X181381281Y-67988437D01*
X181173905Y-68489087D01*
X180891642Y-68911523D01*
X180872839Y-68939663D01*
X180489663Y-69322839D01*
X180489660Y-69322841D01*
X180039087Y-69623905D01*
X179538437Y-69831281D01*
X179272694Y-69884140D01*
X179006951Y-69937000D01*
X178465049Y-69937000D01*
X178199306Y-69884140D01*
X177933563Y-69831281D01*
X177432913Y-69623905D01*
X176982340Y-69322841D01*
X176982337Y-69322839D01*
X176599161Y-68939663D01*
X176580358Y-68911523D01*
X176298095Y-68489087D01*
X176090719Y-67988437D01*
X176020814Y-67637000D01*
X175985000Y-67456951D01*
X175985000Y-66915049D01*
X176090719Y-66383564D01*
X176090719Y-66383563D01*
X176298095Y-65882913D01*
X176599159Y-65432340D01*
X176599161Y-65432337D01*
X176982337Y-65049161D01*
X177245226Y-64873504D01*
X177432913Y-64748095D01*
X177933563Y-64540719D01*
X178199306Y-64487860D01*
X178465049Y-64435000D01*
X179006951Y-64435000D01*
X179272694Y-64487860D01*
X179272694Y-64487860D01*
G37*
G36*
X100272694Y-64487860D02*
G01*
X100538437Y-64540719D01*
X101039087Y-64748095D01*
X101226774Y-64873504D01*
X101489663Y-65049161D01*
X101872839Y-65432337D01*
X101872841Y-65432340D01*
X102173905Y-65882913D01*
X102381281Y-66383563D01*
X102381281Y-66383564D01*
X102487000Y-66915049D01*
X102487000Y-67456951D01*
X102451186Y-67637000D01*
X102381281Y-67988437D01*
X102173905Y-68489087D01*
X101891642Y-68911523D01*
X101872839Y-68939663D01*
X101489663Y-69322839D01*
X101489660Y-69322841D01*
X101039087Y-69623905D01*
X100538437Y-69831281D01*
X100272694Y-69884140D01*
X100006951Y-69937000D01*
X99465049Y-69937000D01*
X99199306Y-69884140D01*
X98933563Y-69831281D01*
X98432913Y-69623905D01*
X97982340Y-69322841D01*
X97982337Y-69322839D01*
X97599161Y-68939663D01*
X97580358Y-68911523D01*
X97298095Y-68489087D01*
X97090719Y-67988437D01*
X97020814Y-67637000D01*
X96985000Y-67456951D01*
X96985000Y-66915049D01*
X97090719Y-66383564D01*
X97090719Y-66383563D01*
X97298095Y-65882913D01*
X97599159Y-65432340D01*
X97599161Y-65432337D01*
X97982337Y-65049161D01*
X98245226Y-64873504D01*
X98432913Y-64748095D01*
X98933563Y-64540719D01*
X99199306Y-64487860D01*
X99465049Y-64435000D01*
X100006951Y-64435000D01*
X100272694Y-64487860D01*
X100272694Y-64487860D01*
G37*
G36*
X108667562Y-68038181D02*
G01*
X108702477Y-68048773D01*
X108734665Y-68065978D01*
X108762873Y-68089127D01*
X108786022Y-68117335D01*
X108803227Y-68149523D01*
X108813819Y-68184438D01*
X108818000Y-68226895D01*
X108818000Y-69368105D01*
X108813819Y-69410562D01*
X108803227Y-69445477D01*
X108786022Y-69477665D01*
X108762873Y-69505873D01*
X108734665Y-69529022D01*
X108702477Y-69546227D01*
X108667562Y-69556819D01*
X108625105Y-69561000D01*
X106258895Y-69561000D01*
X106216438Y-69556819D01*
X106181523Y-69546227D01*
X106149335Y-69529022D01*
X106121127Y-69505873D01*
X106097978Y-69477665D01*
X106080773Y-69445477D01*
X106070181Y-69410562D01*
X106066000Y-69368105D01*
X106066000Y-68226895D01*
X106070181Y-68184438D01*
X106080773Y-68149523D01*
X106097978Y-68117335D01*
X106121127Y-68089127D01*
X106149335Y-68065978D01*
X106181523Y-68048773D01*
X106216438Y-68038181D01*
X106258895Y-68034000D01*
X108625105Y-68034000D01*
X108667562Y-68038181D01*
X108667562Y-68038181D01*
G37*
G36*
X113239562Y-68038181D02*
G01*
X113274477Y-68048773D01*
X113306665Y-68065978D01*
X113334873Y-68089127D01*
X113358022Y-68117335D01*
X113375227Y-68149523D01*
X113385819Y-68184438D01*
X113390000Y-68226895D01*
X113390000Y-69368105D01*
X113385819Y-69410562D01*
X113375227Y-69445477D01*
X113358022Y-69477665D01*
X113334873Y-69505873D01*
X113306665Y-69529022D01*
X113274477Y-69546227D01*
X113239562Y-69556819D01*
X113197105Y-69561000D01*
X110830895Y-69561000D01*
X110788438Y-69556819D01*
X110753523Y-69546227D01*
X110721335Y-69529022D01*
X110693127Y-69505873D01*
X110669978Y-69477665D01*
X110652773Y-69445477D01*
X110642181Y-69410562D01*
X110638000Y-69368105D01*
X110638000Y-68226895D01*
X110642181Y-68184438D01*
X110652773Y-68149523D01*
X110669978Y-68117335D01*
X110693127Y-68089127D01*
X110721335Y-68065978D01*
X110753523Y-68048773D01*
X110788438Y-68038181D01*
X110830895Y-68034000D01*
X113197105Y-68034000D01*
X113239562Y-68038181D01*
X113239562Y-68038181D01*
G37*
G36*
X117811562Y-68038181D02*
G01*
X117846477Y-68048773D01*
X117878665Y-68065978D01*
X117906873Y-68089127D01*
X117930022Y-68117335D01*
X117947227Y-68149523D01*
X117957819Y-68184438D01*
X117962000Y-68226895D01*
X117962000Y-69368105D01*
X117957819Y-69410562D01*
X117947227Y-69445477D01*
X117930022Y-69477665D01*
X117906873Y-69505873D01*
X117878665Y-69529022D01*
X117846477Y-69546227D01*
X117811562Y-69556819D01*
X117769105Y-69561000D01*
X115402895Y-69561000D01*
X115360438Y-69556819D01*
X115325523Y-69546227D01*
X115293335Y-69529022D01*
X115265127Y-69505873D01*
X115241978Y-69477665D01*
X115224773Y-69445477D01*
X115214181Y-69410562D01*
X115210000Y-69368105D01*
X115210000Y-68226895D01*
X115214181Y-68184438D01*
X115224773Y-68149523D01*
X115241978Y-68117335D01*
X115265127Y-68089127D01*
X115293335Y-68065978D01*
X115325523Y-68048773D01*
X115360438Y-68038181D01*
X115402895Y-68034000D01*
X117769105Y-68034000D01*
X117811562Y-68038181D01*
X117811562Y-68038181D01*
G37*
G36*
X164263294Y-67678633D02*
G01*
X164435694Y-67730931D01*
X164435696Y-67730932D01*
X164594583Y-67815859D01*
X164733849Y-67930151D01*
X164848141Y-68069417D01*
X164927678Y-68218220D01*
X164933069Y-68228306D01*
X164985367Y-68400706D01*
X165003025Y-68580000D01*
X164985367Y-68759294D01*
X164935553Y-68923504D01*
X164933068Y-68931696D01*
X164848141Y-69090583D01*
X164733849Y-69229849D01*
X164594583Y-69344141D01*
X164498265Y-69395624D01*
X164435694Y-69429069D01*
X164263294Y-69481367D01*
X164128931Y-69494600D01*
X164039069Y-69494600D01*
X163904706Y-69481367D01*
X163732306Y-69429069D01*
X163669735Y-69395624D01*
X163573417Y-69344141D01*
X163434151Y-69229849D01*
X163319859Y-69090583D01*
X163234932Y-68931696D01*
X163232447Y-68923504D01*
X163182633Y-68759294D01*
X163164975Y-68580000D01*
X163182633Y-68400706D01*
X163234931Y-68228306D01*
X163240322Y-68218220D01*
X163319859Y-68069417D01*
X163434151Y-67930151D01*
X163573417Y-67815859D01*
X163732304Y-67730932D01*
X163732306Y-67730931D01*
X163904706Y-67678633D01*
X164039069Y-67665400D01*
X164128931Y-67665400D01*
X164263294Y-67678633D01*
X164263294Y-67678633D01*
G37*
G36*
X166803294Y-67678633D02*
G01*
X166975694Y-67730931D01*
X166975696Y-67730932D01*
X167134583Y-67815859D01*
X167273849Y-67930151D01*
X167388141Y-68069417D01*
X167467678Y-68218220D01*
X167473069Y-68228306D01*
X167525367Y-68400706D01*
X167543025Y-68580000D01*
X167525367Y-68759294D01*
X167475553Y-68923504D01*
X167473068Y-68931696D01*
X167388141Y-69090583D01*
X167273849Y-69229849D01*
X167134583Y-69344141D01*
X167038265Y-69395624D01*
X166975694Y-69429069D01*
X166803294Y-69481367D01*
X166668931Y-69494600D01*
X166579069Y-69494600D01*
X166444706Y-69481367D01*
X166272306Y-69429069D01*
X166209735Y-69395624D01*
X166113417Y-69344141D01*
X165974151Y-69229849D01*
X165859859Y-69090583D01*
X165774932Y-68931696D01*
X165772447Y-68923504D01*
X165722633Y-68759294D01*
X165704975Y-68580000D01*
X165722633Y-68400706D01*
X165774931Y-68228306D01*
X165780322Y-68218220D01*
X165859859Y-68069417D01*
X165974151Y-67930151D01*
X166113417Y-67815859D01*
X166272304Y-67730932D01*
X166272306Y-67730931D01*
X166444706Y-67678633D01*
X166579069Y-67665400D01*
X166668931Y-67665400D01*
X166803294Y-67678633D01*
X166803294Y-67678633D01*
G37*
G36*
X169343294Y-67678633D02*
G01*
X169515694Y-67730931D01*
X169515696Y-67730932D01*
X169674583Y-67815859D01*
X169813849Y-67930151D01*
X169928141Y-68069417D01*
X170007678Y-68218220D01*
X170013069Y-68228306D01*
X170065367Y-68400706D01*
X170083025Y-68580000D01*
X170065367Y-68759294D01*
X170015553Y-68923504D01*
X170013068Y-68931696D01*
X169928141Y-69090583D01*
X169813849Y-69229849D01*
X169674583Y-69344141D01*
X169578265Y-69395624D01*
X169515694Y-69429069D01*
X169343294Y-69481367D01*
X169208931Y-69494600D01*
X169119069Y-69494600D01*
X168984706Y-69481367D01*
X168812306Y-69429069D01*
X168749735Y-69395624D01*
X168653417Y-69344141D01*
X168514151Y-69229849D01*
X168399859Y-69090583D01*
X168314932Y-68931696D01*
X168312447Y-68923504D01*
X168262633Y-68759294D01*
X168244975Y-68580000D01*
X168262633Y-68400706D01*
X168314931Y-68228306D01*
X168320322Y-68218220D01*
X168399859Y-68069417D01*
X168514151Y-67930151D01*
X168653417Y-67815859D01*
X168812304Y-67730932D01*
X168812306Y-67730931D01*
X168984706Y-67678633D01*
X169119069Y-67665400D01*
X169208931Y-67665400D01*
X169343294Y-67678633D01*
X169343294Y-67678633D01*
G37*
G36*
X126682812Y-66697624D02*
G01*
X126846784Y-66765544D01*
X126994354Y-66864147D01*
X127119853Y-66989646D01*
X127218456Y-67137216D01*
X127286376Y-67301188D01*
X127321000Y-67475259D01*
X127321000Y-67652741D01*
X127286376Y-67826812D01*
X127218456Y-67990784D01*
X127119853Y-68138354D01*
X126994354Y-68263853D01*
X126846784Y-68362456D01*
X126682812Y-68430376D01*
X126508741Y-68465000D01*
X126331259Y-68465000D01*
X126157188Y-68430376D01*
X125993216Y-68362456D01*
X125845646Y-68263853D01*
X125720147Y-68138354D01*
X125621544Y-67990784D01*
X125553624Y-67826812D01*
X125519000Y-67652741D01*
X125519000Y-67475259D01*
X125553624Y-67301188D01*
X125621544Y-67137216D01*
X125720147Y-66989646D01*
X125845646Y-66864147D01*
X125993216Y-66765544D01*
X126157188Y-66697624D01*
X126331259Y-66663000D01*
X126508741Y-66663000D01*
X126682812Y-66697624D01*
X126682812Y-66697624D01*
G37*
G36*
X122182812Y-66697624D02*
G01*
X122346784Y-66765544D01*
X122494354Y-66864147D01*
X122619853Y-66989646D01*
X122718456Y-67137216D01*
X122786376Y-67301188D01*
X122821000Y-67475259D01*
X122821000Y-67652741D01*
X122786376Y-67826812D01*
X122718456Y-67990784D01*
X122619853Y-68138354D01*
X122494354Y-68263853D01*
X122346784Y-68362456D01*
X122182812Y-68430376D01*
X122008741Y-68465000D01*
X121831259Y-68465000D01*
X121657188Y-68430376D01*
X121493216Y-68362456D01*
X121345646Y-68263853D01*
X121220147Y-68138354D01*
X121121544Y-67990784D01*
X121053624Y-67826812D01*
X121019000Y-67652741D01*
X121019000Y-67475259D01*
X121053624Y-67301188D01*
X121121544Y-67137216D01*
X121220147Y-66989646D01*
X121345646Y-66864147D01*
X121493216Y-66765544D01*
X121657188Y-66697624D01*
X121831259Y-66663000D01*
X122008741Y-66663000D01*
X122182812Y-66697624D01*
X122182812Y-66697624D01*
G37*
G36*
X145619396Y-65887546D02*
G01*
X145792466Y-65959234D01*
X145948230Y-66063312D01*
X146080688Y-66195770D01*
X146184766Y-66351534D01*
X146256454Y-66524604D01*
X146293000Y-66708333D01*
X146293000Y-66895667D01*
X146256454Y-67079396D01*
X146184766Y-67252466D01*
X146080688Y-67408230D01*
X145948230Y-67540688D01*
X145792466Y-67644766D01*
X145619396Y-67716454D01*
X145435667Y-67753000D01*
X145248333Y-67753000D01*
X145064604Y-67716454D01*
X144891534Y-67644766D01*
X144735770Y-67540688D01*
X144603312Y-67408230D01*
X144499234Y-67252466D01*
X144427546Y-67079396D01*
X144391000Y-66895667D01*
X144391000Y-66708333D01*
X144427546Y-66524604D01*
X144499234Y-66351534D01*
X144603312Y-66195770D01*
X144735770Y-66063312D01*
X144891534Y-65959234D01*
X145064604Y-65887546D01*
X145248333Y-65851000D01*
X145435667Y-65851000D01*
X145619396Y-65887546D01*
X145619396Y-65887546D01*
G37*
G36*
X153493396Y-65887546D02*
G01*
X153666466Y-65959234D01*
X153822230Y-66063312D01*
X153954688Y-66195770D01*
X154058766Y-66351534D01*
X154130454Y-66524604D01*
X154167000Y-66708333D01*
X154167000Y-66895667D01*
X154130454Y-67079396D01*
X154058766Y-67252466D01*
X153954688Y-67408230D01*
X153822230Y-67540688D01*
X153666466Y-67644766D01*
X153493396Y-67716454D01*
X153309667Y-67753000D01*
X153122333Y-67753000D01*
X152938604Y-67716454D01*
X152765534Y-67644766D01*
X152609770Y-67540688D01*
X152477312Y-67408230D01*
X152373234Y-67252466D01*
X152301546Y-67079396D01*
X152265000Y-66895667D01*
X152265000Y-66708333D01*
X152301546Y-66524604D01*
X152373234Y-66351534D01*
X152477312Y-66195770D01*
X152609770Y-66063312D01*
X152765534Y-65959234D01*
X152938604Y-65887546D01*
X153122333Y-65851000D01*
X153309667Y-65851000D01*
X153493396Y-65887546D01*
X153493396Y-65887546D01*
G37*
G36*
X137491396Y-65887546D02*
G01*
X137664466Y-65959234D01*
X137820230Y-66063312D01*
X137952688Y-66195770D01*
X138056766Y-66351534D01*
X138128454Y-66524604D01*
X138165000Y-66708333D01*
X138165000Y-66895667D01*
X138128454Y-67079396D01*
X138056766Y-67252466D01*
X137952688Y-67408230D01*
X137820230Y-67540688D01*
X137664466Y-67644766D01*
X137491396Y-67716454D01*
X137307667Y-67753000D01*
X137120333Y-67753000D01*
X136936604Y-67716454D01*
X136763534Y-67644766D01*
X136607770Y-67540688D01*
X136475312Y-67408230D01*
X136371234Y-67252466D01*
X136299546Y-67079396D01*
X136263000Y-66895667D01*
X136263000Y-66708333D01*
X136299546Y-66524604D01*
X136371234Y-66351534D01*
X136475312Y-66195770D01*
X136607770Y-66063312D01*
X136763534Y-65959234D01*
X136936604Y-65887546D01*
X137120333Y-65851000D01*
X137307667Y-65851000D01*
X137491396Y-65887546D01*
X137491396Y-65887546D01*
G37*
G36*
X131839562Y-65825181D02*
G01*
X131874477Y-65835773D01*
X131906665Y-65852978D01*
X131934873Y-65876127D01*
X131958022Y-65904335D01*
X131975227Y-65936523D01*
X131985819Y-65971438D01*
X131990000Y-66013895D01*
X131990000Y-67155105D01*
X131985819Y-67197562D01*
X131975227Y-67232477D01*
X131958022Y-67264665D01*
X131934873Y-67292873D01*
X131906665Y-67316022D01*
X131874477Y-67333227D01*
X131839562Y-67343819D01*
X131797105Y-67348000D01*
X130330895Y-67348000D01*
X130288438Y-67343819D01*
X130253523Y-67333227D01*
X130221335Y-67316022D01*
X130193127Y-67292873D01*
X130169978Y-67264665D01*
X130152773Y-67232477D01*
X130142181Y-67197562D01*
X130138000Y-67155105D01*
X130138000Y-66013895D01*
X130142181Y-65971438D01*
X130152773Y-65936523D01*
X130169978Y-65904335D01*
X130193127Y-65876127D01*
X130221335Y-65852978D01*
X130253523Y-65835773D01*
X130288438Y-65825181D01*
X130330895Y-65821000D01*
X131797105Y-65821000D01*
X131839562Y-65825181D01*
X131839562Y-65825181D01*
G37*
G36*
X117811562Y-65063181D02*
G01*
X117846477Y-65073773D01*
X117878665Y-65090978D01*
X117906873Y-65114127D01*
X117930022Y-65142335D01*
X117947227Y-65174523D01*
X117957819Y-65209438D01*
X117962000Y-65251895D01*
X117962000Y-66393105D01*
X117957819Y-66435562D01*
X117947227Y-66470477D01*
X117930022Y-66502665D01*
X117906873Y-66530873D01*
X117878665Y-66554022D01*
X117846477Y-66571227D01*
X117811562Y-66581819D01*
X117769105Y-66586000D01*
X115402895Y-66586000D01*
X115360438Y-66581819D01*
X115325523Y-66571227D01*
X115293335Y-66554022D01*
X115265127Y-66530873D01*
X115241978Y-66502665D01*
X115224773Y-66470477D01*
X115214181Y-66435562D01*
X115210000Y-66393105D01*
X115210000Y-65251895D01*
X115214181Y-65209438D01*
X115224773Y-65174523D01*
X115241978Y-65142335D01*
X115265127Y-65114127D01*
X115293335Y-65090978D01*
X115325523Y-65073773D01*
X115360438Y-65063181D01*
X115402895Y-65059000D01*
X117769105Y-65059000D01*
X117811562Y-65063181D01*
X117811562Y-65063181D01*
G37*
G36*
X113239562Y-65063181D02*
G01*
X113274477Y-65073773D01*
X113306665Y-65090978D01*
X113334873Y-65114127D01*
X113358022Y-65142335D01*
X113375227Y-65174523D01*
X113385819Y-65209438D01*
X113390000Y-65251895D01*
X113390000Y-66393105D01*
X113385819Y-66435562D01*
X113375227Y-66470477D01*
X113358022Y-66502665D01*
X113334873Y-66530873D01*
X113306665Y-66554022D01*
X113274477Y-66571227D01*
X113239562Y-66581819D01*
X113197105Y-66586000D01*
X110830895Y-66586000D01*
X110788438Y-66581819D01*
X110753523Y-66571227D01*
X110721335Y-66554022D01*
X110693127Y-66530873D01*
X110669978Y-66502665D01*
X110652773Y-66470477D01*
X110642181Y-66435562D01*
X110638000Y-66393105D01*
X110638000Y-65251895D01*
X110642181Y-65209438D01*
X110652773Y-65174523D01*
X110669978Y-65142335D01*
X110693127Y-65114127D01*
X110721335Y-65090978D01*
X110753523Y-65073773D01*
X110788438Y-65063181D01*
X110830895Y-65059000D01*
X113197105Y-65059000D01*
X113239562Y-65063181D01*
X113239562Y-65063181D01*
G37*
G36*
X108667562Y-65063181D02*
G01*
X108702477Y-65073773D01*
X108734665Y-65090978D01*
X108762873Y-65114127D01*
X108786022Y-65142335D01*
X108803227Y-65174523D01*
X108813819Y-65209438D01*
X108818000Y-65251895D01*
X108818000Y-66393105D01*
X108813819Y-66435562D01*
X108803227Y-66470477D01*
X108786022Y-66502665D01*
X108762873Y-66530873D01*
X108734665Y-66554022D01*
X108702477Y-66571227D01*
X108667562Y-66581819D01*
X108625105Y-66586000D01*
X106258895Y-66586000D01*
X106216438Y-66581819D01*
X106181523Y-66571227D01*
X106149335Y-66554022D01*
X106121127Y-66530873D01*
X106097978Y-66502665D01*
X106080773Y-66470477D01*
X106070181Y-66435562D01*
X106066000Y-66393105D01*
X106066000Y-65251895D01*
X106070181Y-65209438D01*
X106080773Y-65174523D01*
X106097978Y-65142335D01*
X106121127Y-65114127D01*
X106149335Y-65090978D01*
X106181523Y-65073773D01*
X106216438Y-65063181D01*
X106258895Y-65059000D01*
X108625105Y-65059000D01*
X108667562Y-65063181D01*
X108667562Y-65063181D01*
G37*
M02*
