G04 #@! TF.GenerationSoftware,KiCad,Pcbnew,(6.0.0-rc1-dev-1491-g0a4812be0)*
G04 #@! TF.CreationDate,2019-01-24T14:08:07+01:00
G04 #@! TF.ProjectId,mySensors_door_switch,6d795365-6e73-46f7-9273-5f646f6f725f,rev?*
G04 #@! TF.SameCoordinates,Original*
G04 #@! TF.FileFunction,Paste,Bot*
G04 #@! TF.FilePolarity,Positive*
%FSLAX46Y46*%
G04 Gerber Fmt 4.6, Leading zero omitted, Abs format (unit mm)*
G04 Created by KiCad (PCBNEW (6.0.0-rc1-dev-1491-g0a4812be0)) date 2019-01-24 14:08:07*
%MOMM*%
%LPD*%
G04 APERTURE LIST*
%ADD10C,0.100000*%
%ADD11C,1.225000*%
G04 APERTURE END LIST*
D10*
G36*
X102225504Y-90028204D02*
G01*
X102249773Y-90031804D01*
X102273571Y-90037765D01*
X102296671Y-90046030D01*
X102318849Y-90056520D01*
X102339893Y-90069133D01*
X102359598Y-90083747D01*
X102377777Y-90100223D01*
X102394253Y-90118402D01*
X102408867Y-90138107D01*
X102421480Y-90159151D01*
X102431970Y-90181329D01*
X102440235Y-90204429D01*
X102446196Y-90228227D01*
X102449796Y-90252496D01*
X102451000Y-90277000D01*
X102451000Y-91002000D01*
X102449796Y-91026504D01*
X102446196Y-91050773D01*
X102440235Y-91074571D01*
X102431970Y-91097671D01*
X102421480Y-91119849D01*
X102408867Y-91140893D01*
X102394253Y-91160598D01*
X102377777Y-91178777D01*
X102359598Y-91195253D01*
X102339893Y-91209867D01*
X102318849Y-91222480D01*
X102296671Y-91232970D01*
X102273571Y-91241235D01*
X102249773Y-91247196D01*
X102225504Y-91250796D01*
X102201000Y-91252000D01*
X97951000Y-91252000D01*
X97926496Y-91250796D01*
X97902227Y-91247196D01*
X97878429Y-91241235D01*
X97855329Y-91232970D01*
X97833151Y-91222480D01*
X97812107Y-91209867D01*
X97792402Y-91195253D01*
X97774223Y-91178777D01*
X97757747Y-91160598D01*
X97743133Y-91140893D01*
X97730520Y-91119849D01*
X97720030Y-91097671D01*
X97711765Y-91074571D01*
X97705804Y-91050773D01*
X97702204Y-91026504D01*
X97701000Y-91002000D01*
X97701000Y-90277000D01*
X97702204Y-90252496D01*
X97705804Y-90228227D01*
X97711765Y-90204429D01*
X97720030Y-90181329D01*
X97730520Y-90159151D01*
X97743133Y-90138107D01*
X97757747Y-90118402D01*
X97774223Y-90100223D01*
X97792402Y-90083747D01*
X97812107Y-90069133D01*
X97833151Y-90056520D01*
X97855329Y-90046030D01*
X97878429Y-90037765D01*
X97902227Y-90031804D01*
X97926496Y-90028204D01*
X97951000Y-90027000D01*
X102201000Y-90027000D01*
X102225504Y-90028204D01*
X102225504Y-90028204D01*
G37*
D11*
X100076000Y-90639500D03*
D10*
G36*
X102225504Y-93153204D02*
G01*
X102249773Y-93156804D01*
X102273571Y-93162765D01*
X102296671Y-93171030D01*
X102318849Y-93181520D01*
X102339893Y-93194133D01*
X102359598Y-93208747D01*
X102377777Y-93225223D01*
X102394253Y-93243402D01*
X102408867Y-93263107D01*
X102421480Y-93284151D01*
X102431970Y-93306329D01*
X102440235Y-93329429D01*
X102446196Y-93353227D01*
X102449796Y-93377496D01*
X102451000Y-93402000D01*
X102451000Y-94127000D01*
X102449796Y-94151504D01*
X102446196Y-94175773D01*
X102440235Y-94199571D01*
X102431970Y-94222671D01*
X102421480Y-94244849D01*
X102408867Y-94265893D01*
X102394253Y-94285598D01*
X102377777Y-94303777D01*
X102359598Y-94320253D01*
X102339893Y-94334867D01*
X102318849Y-94347480D01*
X102296671Y-94357970D01*
X102273571Y-94366235D01*
X102249773Y-94372196D01*
X102225504Y-94375796D01*
X102201000Y-94377000D01*
X97951000Y-94377000D01*
X97926496Y-94375796D01*
X97902227Y-94372196D01*
X97878429Y-94366235D01*
X97855329Y-94357970D01*
X97833151Y-94347480D01*
X97812107Y-94334867D01*
X97792402Y-94320253D01*
X97774223Y-94303777D01*
X97757747Y-94285598D01*
X97743133Y-94265893D01*
X97730520Y-94244849D01*
X97720030Y-94222671D01*
X97711765Y-94199571D01*
X97705804Y-94175773D01*
X97702204Y-94151504D01*
X97701000Y-94127000D01*
X97701000Y-93402000D01*
X97702204Y-93377496D01*
X97705804Y-93353227D01*
X97711765Y-93329429D01*
X97720030Y-93306329D01*
X97730520Y-93284151D01*
X97743133Y-93263107D01*
X97757747Y-93243402D01*
X97774223Y-93225223D01*
X97792402Y-93208747D01*
X97812107Y-93194133D01*
X97833151Y-93181520D01*
X97855329Y-93171030D01*
X97878429Y-93162765D01*
X97902227Y-93156804D01*
X97926496Y-93153204D01*
X97951000Y-93152000D01*
X102201000Y-93152000D01*
X102225504Y-93153204D01*
X102225504Y-93153204D01*
G37*
D11*
X100076000Y-93764500D03*
M02*
