G04 #@! TF.GenerationSoftware,KiCad,Pcbnew,(6.0.0-rc1-dev-1491-g0a4812be0)*
G04 #@! TF.CreationDate,2019-04-29T14:54:42+02:00
G04 #@! TF.ProjectId,mySensors_door_switch,6d795365-6e73-46f7-9273-5f646f6f725f,1.2*
G04 #@! TF.SameCoordinates,Original*
G04 #@! TF.FileFunction,Soldermask,Bot*
G04 #@! TF.FilePolarity,Negative*
%FSLAX46Y46*%
G04 Gerber Fmt 4.6, Leading zero omitted, Abs format (unit mm)*
G04 Created by KiCad (PCBNEW (6.0.0-rc1-dev-1491-g0a4812be0)) date 2019-04-29 14:54:42*
%MOMM*%
%LPD*%
G04 APERTURE LIST*
%ADD10C,0.100000*%
G04 APERTURE END LIST*
D10*
X155067000Y-70866000D02*
G75*
G03X155067000Y-70866000I-1143000J0D01*
G01*
X149063000Y-68366000D02*
G75*
G03X149063000Y-68366000I-889000J0D01*
G01*
X153563000Y-68366000D02*
G75*
G03X153563000Y-68366000I-889000J0D01*
G01*
X148067000Y-70866000D02*
G75*
G03X148067000Y-70866000I-1143000J0D01*
G01*
G36*
X182410611Y-104279366D02*
G01*
X182789437Y-104354719D01*
X183290087Y-104562095D01*
X183477774Y-104687504D01*
X183740663Y-104863161D01*
X184123839Y-105246337D01*
X184123841Y-105246340D01*
X184424905Y-105696913D01*
X184625801Y-106181920D01*
X184632281Y-106197564D01*
X184738000Y-106729049D01*
X184738000Y-107270951D01*
X184702186Y-107451000D01*
X184632281Y-107802437D01*
X184424905Y-108303087D01*
X184134636Y-108737504D01*
X184123839Y-108753663D01*
X183740663Y-109136839D01*
X183740660Y-109136841D01*
X183290087Y-109437905D01*
X182789437Y-109645281D01*
X182523693Y-109698141D01*
X182257951Y-109751000D01*
X181716049Y-109751000D01*
X181450307Y-109698141D01*
X181184563Y-109645281D01*
X180683913Y-109437905D01*
X180233340Y-109136841D01*
X180233337Y-109136839D01*
X179850161Y-108753663D01*
X179839364Y-108737504D01*
X179549095Y-108303087D01*
X179341719Y-107802437D01*
X179271814Y-107451000D01*
X179236000Y-107270951D01*
X179236000Y-106729049D01*
X179341719Y-106197564D01*
X179348199Y-106181920D01*
X179549095Y-105696913D01*
X179850159Y-105246340D01*
X179850161Y-105246337D01*
X180233337Y-104863161D01*
X180496226Y-104687504D01*
X180683913Y-104562095D01*
X181184563Y-104354719D01*
X181563389Y-104279366D01*
X181716049Y-104249000D01*
X182257951Y-104249000D01*
X182410611Y-104279366D01*
X182410611Y-104279366D01*
G37*
G36*
X103410611Y-104279366D02*
G01*
X103789437Y-104354719D01*
X104290087Y-104562095D01*
X104477774Y-104687504D01*
X104740663Y-104863161D01*
X105123839Y-105246337D01*
X105123841Y-105246340D01*
X105424905Y-105696913D01*
X105625801Y-106181920D01*
X105632281Y-106197564D01*
X105738000Y-106729049D01*
X105738000Y-107270951D01*
X105702186Y-107451000D01*
X105632281Y-107802437D01*
X105424905Y-108303087D01*
X105134636Y-108737504D01*
X105123839Y-108753663D01*
X104740663Y-109136839D01*
X104740660Y-109136841D01*
X104290087Y-109437905D01*
X103789437Y-109645281D01*
X103523693Y-109698141D01*
X103257951Y-109751000D01*
X102716049Y-109751000D01*
X102450307Y-109698141D01*
X102184563Y-109645281D01*
X101683913Y-109437905D01*
X101233340Y-109136841D01*
X101233337Y-109136839D01*
X100850161Y-108753663D01*
X100839364Y-108737504D01*
X100549095Y-108303087D01*
X100341719Y-107802437D01*
X100271814Y-107451000D01*
X100236000Y-107270951D01*
X100236000Y-106729049D01*
X100341719Y-106197564D01*
X100348199Y-106181920D01*
X100549095Y-105696913D01*
X100850159Y-105246340D01*
X100850161Y-105246337D01*
X101233337Y-104863161D01*
X101496226Y-104687504D01*
X101683913Y-104562095D01*
X102184563Y-104354719D01*
X102563389Y-104279366D01*
X102716049Y-104249000D01*
X103257951Y-104249000D01*
X103410611Y-104279366D01*
X103410611Y-104279366D01*
G37*
G36*
X159651000Y-107581000D02*
G01*
X157849000Y-107581000D01*
X157849000Y-105779000D01*
X159651000Y-105779000D01*
X159651000Y-107581000D01*
X159651000Y-107581000D01*
G37*
G36*
X164744600Y-105874006D02*
G01*
X164747002Y-105898392D01*
X164754115Y-105921841D01*
X164765666Y-105943452D01*
X164781212Y-105962394D01*
X164800154Y-105977940D01*
X164821765Y-105989491D01*
X164845214Y-105996604D01*
X164869600Y-105999006D01*
X164893986Y-105996604D01*
X164917435Y-105989491D01*
X164939046Y-105977940D01*
X164957988Y-105962394D01*
X164973534Y-105943452D01*
X164985085Y-105921842D01*
X165012521Y-105855605D01*
X165019492Y-105838775D01*
X165119584Y-105688977D01*
X165119586Y-105688974D01*
X165246974Y-105561586D01*
X165396774Y-105461493D01*
X165396775Y-105461492D01*
X165563221Y-105392548D01*
X165563222Y-105392548D01*
X165563224Y-105392547D01*
X165739918Y-105357400D01*
X165920082Y-105357400D01*
X166096776Y-105392547D01*
X166096778Y-105392548D01*
X166096779Y-105392548D01*
X166263225Y-105461492D01*
X166263226Y-105461493D01*
X166413026Y-105561586D01*
X166540414Y-105688974D01*
X166540416Y-105688977D01*
X166640508Y-105838775D01*
X166693943Y-105967780D01*
X166713475Y-106014933D01*
X166714513Y-106018355D01*
X166726063Y-106039967D01*
X166741608Y-106058909D01*
X166760549Y-106074456D01*
X166782160Y-106086008D01*
X166805608Y-106093122D01*
X166829995Y-106095525D01*
X166854381Y-106093124D01*
X166877830Y-106086012D01*
X166899442Y-106074462D01*
X166918384Y-106058917D01*
X166933931Y-106039976D01*
X166945483Y-106018365D01*
X166946522Y-106014940D01*
X166969516Y-105959428D01*
X167019492Y-105838775D01*
X167119584Y-105688977D01*
X167119586Y-105688974D01*
X167246974Y-105561586D01*
X167396774Y-105461493D01*
X167396775Y-105461492D01*
X167563221Y-105392548D01*
X167563222Y-105392548D01*
X167563224Y-105392547D01*
X167739918Y-105357400D01*
X167920082Y-105357400D01*
X168096776Y-105392547D01*
X168096778Y-105392548D01*
X168096779Y-105392548D01*
X168263225Y-105461492D01*
X168263226Y-105461493D01*
X168413026Y-105561586D01*
X168540414Y-105688974D01*
X168540416Y-105688977D01*
X168640508Y-105838775D01*
X168693943Y-105967780D01*
X168713475Y-106014933D01*
X168714513Y-106018355D01*
X168726063Y-106039967D01*
X168741608Y-106058909D01*
X168760549Y-106074456D01*
X168782160Y-106086008D01*
X168805608Y-106093122D01*
X168829995Y-106095525D01*
X168854381Y-106093124D01*
X168877830Y-106086012D01*
X168899442Y-106074462D01*
X168918384Y-106058917D01*
X168933931Y-106039976D01*
X168945483Y-106018365D01*
X168946522Y-106014940D01*
X168969516Y-105959428D01*
X169019492Y-105838775D01*
X169119584Y-105688977D01*
X169119586Y-105688974D01*
X169246974Y-105561586D01*
X169396774Y-105461493D01*
X169396775Y-105461492D01*
X169563221Y-105392548D01*
X169563222Y-105392548D01*
X169563224Y-105392547D01*
X169739918Y-105357400D01*
X169920082Y-105357400D01*
X170096776Y-105392547D01*
X170096778Y-105392548D01*
X170096779Y-105392548D01*
X170263225Y-105461492D01*
X170263226Y-105461493D01*
X170413026Y-105561586D01*
X170540414Y-105688974D01*
X170540416Y-105688977D01*
X170640508Y-105838775D01*
X170693943Y-105967780D01*
X170713475Y-106014933D01*
X170714513Y-106018355D01*
X170726063Y-106039967D01*
X170741608Y-106058909D01*
X170760549Y-106074456D01*
X170782160Y-106086008D01*
X170805608Y-106093122D01*
X170829995Y-106095525D01*
X170854381Y-106093124D01*
X170877830Y-106086012D01*
X170899442Y-106074462D01*
X170918384Y-106058917D01*
X170933931Y-106039976D01*
X170945483Y-106018365D01*
X170946522Y-106014940D01*
X170969516Y-105959428D01*
X171019492Y-105838775D01*
X171119584Y-105688977D01*
X171119586Y-105688974D01*
X171246974Y-105561586D01*
X171396774Y-105461493D01*
X171396775Y-105461492D01*
X171563221Y-105392548D01*
X171563222Y-105392548D01*
X171563224Y-105392547D01*
X171739918Y-105357400D01*
X171920082Y-105357400D01*
X172096776Y-105392547D01*
X172096778Y-105392548D01*
X172096779Y-105392548D01*
X172263225Y-105461492D01*
X172263226Y-105461493D01*
X172413026Y-105561586D01*
X172540414Y-105688974D01*
X172540416Y-105688977D01*
X172640508Y-105838775D01*
X172693943Y-105967780D01*
X172713475Y-106014933D01*
X172714513Y-106018355D01*
X172726063Y-106039967D01*
X172741608Y-106058909D01*
X172760549Y-106074456D01*
X172782160Y-106086008D01*
X172805608Y-106093122D01*
X172829995Y-106095525D01*
X172854381Y-106093124D01*
X172877830Y-106086012D01*
X172899442Y-106074462D01*
X172918384Y-106058917D01*
X172933931Y-106039976D01*
X172945483Y-106018365D01*
X172946522Y-106014940D01*
X172969516Y-105959428D01*
X173019492Y-105838775D01*
X173119584Y-105688977D01*
X173119586Y-105688974D01*
X173246974Y-105561586D01*
X173396774Y-105461493D01*
X173396775Y-105461492D01*
X173563221Y-105392548D01*
X173563222Y-105392548D01*
X173563224Y-105392547D01*
X173739918Y-105357400D01*
X173920082Y-105357400D01*
X174096776Y-105392547D01*
X174096778Y-105392548D01*
X174096779Y-105392548D01*
X174263225Y-105461492D01*
X174263226Y-105461493D01*
X174413026Y-105561586D01*
X174540414Y-105688974D01*
X174540416Y-105688977D01*
X174640508Y-105838775D01*
X174693943Y-105967780D01*
X174713475Y-106014933D01*
X174714513Y-106018355D01*
X174726063Y-106039967D01*
X174741608Y-106058909D01*
X174760549Y-106074456D01*
X174782160Y-106086008D01*
X174805608Y-106093122D01*
X174829995Y-106095525D01*
X174854381Y-106093124D01*
X174877830Y-106086012D01*
X174899442Y-106074462D01*
X174918384Y-106058917D01*
X174933931Y-106039976D01*
X174945483Y-106018365D01*
X174946522Y-106014940D01*
X174969516Y-105959428D01*
X175019492Y-105838775D01*
X175119584Y-105688977D01*
X175119586Y-105688974D01*
X175246974Y-105561586D01*
X175396774Y-105461493D01*
X175396775Y-105461492D01*
X175563221Y-105392548D01*
X175563222Y-105392548D01*
X175563224Y-105392547D01*
X175739918Y-105357400D01*
X175920082Y-105357400D01*
X176096776Y-105392547D01*
X176096778Y-105392548D01*
X176096779Y-105392548D01*
X176263225Y-105461492D01*
X176263226Y-105461493D01*
X176413026Y-105561586D01*
X176540414Y-105688974D01*
X176540416Y-105688977D01*
X176640508Y-105838775D01*
X176693943Y-105967780D01*
X176713475Y-106014933D01*
X176714513Y-106018355D01*
X176726063Y-106039967D01*
X176741608Y-106058909D01*
X176760549Y-106074456D01*
X176782160Y-106086008D01*
X176805608Y-106093122D01*
X176829995Y-106095525D01*
X176854381Y-106093124D01*
X176877830Y-106086012D01*
X176899442Y-106074462D01*
X176918384Y-106058917D01*
X176933931Y-106039976D01*
X176945483Y-106018365D01*
X176946522Y-106014940D01*
X176969516Y-105959428D01*
X177019492Y-105838775D01*
X177119584Y-105688977D01*
X177119586Y-105688974D01*
X177246974Y-105561586D01*
X177396774Y-105461493D01*
X177396775Y-105461492D01*
X177563221Y-105392548D01*
X177563222Y-105392548D01*
X177563224Y-105392547D01*
X177739918Y-105357400D01*
X177920082Y-105357400D01*
X178096776Y-105392547D01*
X178096778Y-105392548D01*
X178096779Y-105392548D01*
X178263225Y-105461492D01*
X178263226Y-105461493D01*
X178413026Y-105561586D01*
X178540414Y-105688974D01*
X178540416Y-105688977D01*
X178640508Y-105838775D01*
X178708025Y-106001777D01*
X178709453Y-106005224D01*
X178744600Y-106181918D01*
X178744600Y-106362082D01*
X178711386Y-106529060D01*
X178709452Y-106538779D01*
X178640508Y-106705225D01*
X178586288Y-106786371D01*
X178540414Y-106855026D01*
X178413026Y-106982414D01*
X178413023Y-106982416D01*
X178263225Y-107082508D01*
X178096779Y-107151452D01*
X178096778Y-107151452D01*
X178096776Y-107151453D01*
X177920082Y-107186600D01*
X177739918Y-107186600D01*
X177563224Y-107151453D01*
X177563222Y-107151452D01*
X177563221Y-107151452D01*
X177396775Y-107082508D01*
X177246977Y-106982416D01*
X177246974Y-106982414D01*
X177119586Y-106855026D01*
X177073712Y-106786371D01*
X177019492Y-106705225D01*
X176950548Y-106538779D01*
X176950547Y-106538776D01*
X176946525Y-106529067D01*
X176945487Y-106525645D01*
X176933937Y-106504033D01*
X176918392Y-106485091D01*
X176899451Y-106469544D01*
X176877840Y-106457992D01*
X176854392Y-106450878D01*
X176830005Y-106448475D01*
X176805619Y-106450876D01*
X176782170Y-106457988D01*
X176760558Y-106469538D01*
X176741616Y-106485083D01*
X176726069Y-106504024D01*
X176714517Y-106525635D01*
X176713478Y-106529060D01*
X176698152Y-106566060D01*
X176640508Y-106705225D01*
X176586288Y-106786371D01*
X176540414Y-106855026D01*
X176413026Y-106982414D01*
X176413023Y-106982416D01*
X176263225Y-107082508D01*
X176096779Y-107151452D01*
X176096778Y-107151452D01*
X176096776Y-107151453D01*
X175920082Y-107186600D01*
X175739918Y-107186600D01*
X175563224Y-107151453D01*
X175563222Y-107151452D01*
X175563221Y-107151452D01*
X175396775Y-107082508D01*
X175246977Y-106982416D01*
X175246974Y-106982414D01*
X175119586Y-106855026D01*
X175073712Y-106786371D01*
X175019492Y-106705225D01*
X174950548Y-106538779D01*
X174950547Y-106538776D01*
X174946525Y-106529067D01*
X174945487Y-106525645D01*
X174933937Y-106504033D01*
X174918392Y-106485091D01*
X174899451Y-106469544D01*
X174877840Y-106457992D01*
X174854392Y-106450878D01*
X174830005Y-106448475D01*
X174805619Y-106450876D01*
X174782170Y-106457988D01*
X174760558Y-106469538D01*
X174741616Y-106485083D01*
X174726069Y-106504024D01*
X174714517Y-106525635D01*
X174713478Y-106529060D01*
X174698152Y-106566060D01*
X174640508Y-106705225D01*
X174586288Y-106786371D01*
X174540414Y-106855026D01*
X174413026Y-106982414D01*
X174413023Y-106982416D01*
X174263225Y-107082508D01*
X174096779Y-107151452D01*
X174096778Y-107151452D01*
X174096776Y-107151453D01*
X173920082Y-107186600D01*
X173739918Y-107186600D01*
X173563224Y-107151453D01*
X173563222Y-107151452D01*
X173563221Y-107151452D01*
X173396775Y-107082508D01*
X173246977Y-106982416D01*
X173246974Y-106982414D01*
X173119586Y-106855026D01*
X173073712Y-106786371D01*
X173019492Y-106705225D01*
X172950548Y-106538779D01*
X172950547Y-106538776D01*
X172946525Y-106529067D01*
X172945487Y-106525645D01*
X172933937Y-106504033D01*
X172918392Y-106485091D01*
X172899451Y-106469544D01*
X172877840Y-106457992D01*
X172854392Y-106450878D01*
X172830005Y-106448475D01*
X172805619Y-106450876D01*
X172782170Y-106457988D01*
X172760558Y-106469538D01*
X172741616Y-106485083D01*
X172726069Y-106504024D01*
X172714517Y-106525635D01*
X172713478Y-106529060D01*
X172698152Y-106566060D01*
X172640508Y-106705225D01*
X172586288Y-106786371D01*
X172540414Y-106855026D01*
X172413026Y-106982414D01*
X172413023Y-106982416D01*
X172263225Y-107082508D01*
X172096779Y-107151452D01*
X172096778Y-107151452D01*
X172096776Y-107151453D01*
X171920082Y-107186600D01*
X171739918Y-107186600D01*
X171563224Y-107151453D01*
X171563222Y-107151452D01*
X171563221Y-107151452D01*
X171396775Y-107082508D01*
X171246977Y-106982416D01*
X171246974Y-106982414D01*
X171119586Y-106855026D01*
X171073712Y-106786371D01*
X171019492Y-106705225D01*
X170950548Y-106538779D01*
X170950547Y-106538776D01*
X170946525Y-106529067D01*
X170945487Y-106525645D01*
X170933937Y-106504033D01*
X170918392Y-106485091D01*
X170899451Y-106469544D01*
X170877840Y-106457992D01*
X170854392Y-106450878D01*
X170830005Y-106448475D01*
X170805619Y-106450876D01*
X170782170Y-106457988D01*
X170760558Y-106469538D01*
X170741616Y-106485083D01*
X170726069Y-106504024D01*
X170714517Y-106525635D01*
X170713478Y-106529060D01*
X170698152Y-106566060D01*
X170640508Y-106705225D01*
X170586288Y-106786371D01*
X170540414Y-106855026D01*
X170413026Y-106982414D01*
X170413023Y-106982416D01*
X170263225Y-107082508D01*
X170096779Y-107151452D01*
X170096778Y-107151452D01*
X170096776Y-107151453D01*
X169920082Y-107186600D01*
X169739918Y-107186600D01*
X169563224Y-107151453D01*
X169563222Y-107151452D01*
X169563221Y-107151452D01*
X169396775Y-107082508D01*
X169246977Y-106982416D01*
X169246974Y-106982414D01*
X169119586Y-106855026D01*
X169073712Y-106786371D01*
X169019492Y-106705225D01*
X168950548Y-106538779D01*
X168950547Y-106538776D01*
X168946525Y-106529067D01*
X168945487Y-106525645D01*
X168933937Y-106504033D01*
X168918392Y-106485091D01*
X168899451Y-106469544D01*
X168877840Y-106457992D01*
X168854392Y-106450878D01*
X168830005Y-106448475D01*
X168805619Y-106450876D01*
X168782170Y-106457988D01*
X168760558Y-106469538D01*
X168741616Y-106485083D01*
X168726069Y-106504024D01*
X168714517Y-106525635D01*
X168713478Y-106529060D01*
X168698152Y-106566060D01*
X168640508Y-106705225D01*
X168586288Y-106786371D01*
X168540414Y-106855026D01*
X168413026Y-106982414D01*
X168413023Y-106982416D01*
X168263225Y-107082508D01*
X168096779Y-107151452D01*
X168096778Y-107151452D01*
X168096776Y-107151453D01*
X167920082Y-107186600D01*
X167739918Y-107186600D01*
X167563224Y-107151453D01*
X167563222Y-107151452D01*
X167563221Y-107151452D01*
X167396775Y-107082508D01*
X167246977Y-106982416D01*
X167246974Y-106982414D01*
X167119586Y-106855026D01*
X167073712Y-106786371D01*
X167019492Y-106705225D01*
X166950548Y-106538779D01*
X166950547Y-106538776D01*
X166946525Y-106529067D01*
X166945487Y-106525645D01*
X166933937Y-106504033D01*
X166918392Y-106485091D01*
X166899451Y-106469544D01*
X166877840Y-106457992D01*
X166854392Y-106450878D01*
X166830005Y-106448475D01*
X166805619Y-106450876D01*
X166782170Y-106457988D01*
X166760558Y-106469538D01*
X166741616Y-106485083D01*
X166726069Y-106504024D01*
X166714517Y-106525635D01*
X166713478Y-106529060D01*
X166698152Y-106566060D01*
X166640508Y-106705225D01*
X166586288Y-106786371D01*
X166540414Y-106855026D01*
X166413026Y-106982414D01*
X166413023Y-106982416D01*
X166263225Y-107082508D01*
X166096779Y-107151452D01*
X166096778Y-107151452D01*
X166096776Y-107151453D01*
X165920082Y-107186600D01*
X165739918Y-107186600D01*
X165563224Y-107151453D01*
X165563222Y-107151452D01*
X165563221Y-107151452D01*
X165396775Y-107082508D01*
X165246977Y-106982416D01*
X165246974Y-106982414D01*
X165119586Y-106855026D01*
X165073712Y-106786371D01*
X165019492Y-106705225D01*
X164985083Y-106622155D01*
X164973534Y-106600547D01*
X164957988Y-106581605D01*
X164939046Y-106566060D01*
X164917435Y-106554509D01*
X164893986Y-106547396D01*
X164869600Y-106544994D01*
X164845213Y-106547396D01*
X164821764Y-106554509D01*
X164800153Y-106566060D01*
X164781211Y-106581606D01*
X164765666Y-106600548D01*
X164754115Y-106622159D01*
X164747002Y-106645608D01*
X164744600Y-106669994D01*
X164744600Y-107323000D01*
X162915400Y-107323000D01*
X162915400Y-105221000D01*
X164744600Y-105221000D01*
X164744600Y-105874006D01*
X164744600Y-105874006D01*
G37*
G36*
X158860443Y-103245519D02*
G01*
X158926627Y-103252037D01*
X159039853Y-103286384D01*
X159096467Y-103303557D01*
X159235087Y-103377652D01*
X159252991Y-103387222D01*
X159288729Y-103416552D01*
X159390186Y-103499814D01*
X159473448Y-103601271D01*
X159502778Y-103637009D01*
X159502779Y-103637011D01*
X159586443Y-103793533D01*
X159586443Y-103793534D01*
X159637963Y-103963373D01*
X159655359Y-104140000D01*
X159637963Y-104316627D01*
X159626408Y-104354719D01*
X159586443Y-104486467D01*
X159512562Y-104624686D01*
X159502778Y-104642991D01*
X159473448Y-104678729D01*
X159390186Y-104780186D01*
X159289082Y-104863159D01*
X159252991Y-104892778D01*
X159252989Y-104892779D01*
X159096467Y-104976443D01*
X159039853Y-104993616D01*
X158926627Y-105027963D01*
X158860442Y-105034482D01*
X158794260Y-105041000D01*
X158705740Y-105041000D01*
X158639557Y-105034481D01*
X158573373Y-105027963D01*
X158460147Y-104993616D01*
X158403533Y-104976443D01*
X158247011Y-104892779D01*
X158247009Y-104892778D01*
X158210918Y-104863159D01*
X158109814Y-104780186D01*
X158026552Y-104678729D01*
X157997222Y-104642991D01*
X157987438Y-104624686D01*
X157913557Y-104486467D01*
X157873592Y-104354719D01*
X157862037Y-104316627D01*
X157844641Y-104140000D01*
X157862037Y-103963373D01*
X157913557Y-103793534D01*
X157913557Y-103793533D01*
X157997221Y-103637011D01*
X157997222Y-103637009D01*
X158026552Y-103601271D01*
X158109814Y-103499814D01*
X158211271Y-103416552D01*
X158247009Y-103387222D01*
X158264913Y-103377652D01*
X158403533Y-103303557D01*
X158460147Y-103286384D01*
X158573373Y-103252037D01*
X158639558Y-103245518D01*
X158705740Y-103239000D01*
X158794260Y-103239000D01*
X158860443Y-103245519D01*
X158860443Y-103245519D01*
G37*
G36*
X133021294Y-102476633D02*
G01*
X133193694Y-102528931D01*
X133193696Y-102528932D01*
X133352583Y-102613859D01*
X133352585Y-102613860D01*
X133352584Y-102613860D01*
X133491849Y-102728151D01*
X133606140Y-102867416D01*
X133691069Y-103026306D01*
X133743367Y-103198706D01*
X133761025Y-103378000D01*
X133743367Y-103557294D01*
X133691069Y-103729694D01*
X133691068Y-103729696D01*
X133606141Y-103888583D01*
X133491849Y-104027849D01*
X133352583Y-104142141D01*
X133193696Y-104227068D01*
X133193694Y-104227069D01*
X133021294Y-104279367D01*
X132886931Y-104292600D01*
X132797069Y-104292600D01*
X132662706Y-104279367D01*
X132490306Y-104227069D01*
X132490304Y-104227068D01*
X132331417Y-104142141D01*
X132192151Y-104027849D01*
X132077859Y-103888583D01*
X131992932Y-103729696D01*
X131992931Y-103729694D01*
X131940633Y-103557294D01*
X131922975Y-103378000D01*
X131940633Y-103198706D01*
X131992931Y-103026306D01*
X132077860Y-102867416D01*
X132192151Y-102728151D01*
X132331416Y-102613860D01*
X132331415Y-102613860D01*
X132331417Y-102613859D01*
X132490304Y-102528932D01*
X132490306Y-102528931D01*
X132662706Y-102476633D01*
X132797069Y-102463400D01*
X132886931Y-102463400D01*
X133021294Y-102476633D01*
X133021294Y-102476633D01*
G37*
G36*
X136296600Y-104292600D02*
G01*
X134467400Y-104292600D01*
X134467400Y-102463400D01*
X136296600Y-102463400D01*
X136296600Y-104292600D01*
X136296600Y-104292600D01*
G37*
G36*
X158860443Y-100705519D02*
G01*
X158926627Y-100712037D01*
X159039853Y-100746384D01*
X159096467Y-100763557D01*
X159235087Y-100837652D01*
X159252991Y-100847222D01*
X159288729Y-100876552D01*
X159390186Y-100959814D01*
X159473448Y-101061271D01*
X159502778Y-101097009D01*
X159502779Y-101097011D01*
X159586443Y-101253533D01*
X159586443Y-101253534D01*
X159637963Y-101423373D01*
X159655359Y-101600000D01*
X159637963Y-101776627D01*
X159603616Y-101889853D01*
X159586443Y-101946467D01*
X159512348Y-102085087D01*
X159502778Y-102102991D01*
X159473448Y-102138729D01*
X159390186Y-102240186D01*
X159288729Y-102323448D01*
X159252991Y-102352778D01*
X159252989Y-102352779D01*
X159096467Y-102436443D01*
X159039853Y-102453616D01*
X158926627Y-102487963D01*
X158860442Y-102494482D01*
X158794260Y-102501000D01*
X158705740Y-102501000D01*
X158639558Y-102494482D01*
X158573373Y-102487963D01*
X158460147Y-102453616D01*
X158403533Y-102436443D01*
X158247011Y-102352779D01*
X158247009Y-102352778D01*
X158211271Y-102323448D01*
X158109814Y-102240186D01*
X158026552Y-102138729D01*
X157997222Y-102102991D01*
X157987652Y-102085087D01*
X157913557Y-101946467D01*
X157896384Y-101889853D01*
X157862037Y-101776627D01*
X157844641Y-101600000D01*
X157862037Y-101423373D01*
X157913557Y-101253534D01*
X157913557Y-101253533D01*
X157997221Y-101097011D01*
X157997222Y-101097009D01*
X158026552Y-101061271D01*
X158109814Y-100959814D01*
X158211271Y-100876552D01*
X158247009Y-100847222D01*
X158264913Y-100837652D01*
X158403533Y-100763557D01*
X158460147Y-100746384D01*
X158573373Y-100712037D01*
X158639557Y-100705519D01*
X158705740Y-100699000D01*
X158794260Y-100699000D01*
X158860443Y-100705519D01*
X158860443Y-100705519D01*
G37*
G36*
X133021294Y-99936633D02*
G01*
X133193694Y-99988931D01*
X133193696Y-99988932D01*
X133352583Y-100073859D01*
X133352585Y-100073860D01*
X133352584Y-100073860D01*
X133491849Y-100188151D01*
X133606140Y-100327416D01*
X133691069Y-100486306D01*
X133743367Y-100658706D01*
X133761025Y-100838000D01*
X133743367Y-101017294D01*
X133691069Y-101189694D01*
X133691068Y-101189696D01*
X133606141Y-101348583D01*
X133491849Y-101487849D01*
X133352583Y-101602141D01*
X133193696Y-101687068D01*
X133193694Y-101687069D01*
X133021294Y-101739367D01*
X132886931Y-101752600D01*
X132797069Y-101752600D01*
X132662706Y-101739367D01*
X132490306Y-101687069D01*
X132490304Y-101687068D01*
X132331417Y-101602141D01*
X132192151Y-101487849D01*
X132077859Y-101348583D01*
X131992932Y-101189696D01*
X131992931Y-101189694D01*
X131940633Y-101017294D01*
X131922975Y-100838000D01*
X131940633Y-100658706D01*
X131992931Y-100486306D01*
X132077860Y-100327416D01*
X132192151Y-100188151D01*
X132331416Y-100073860D01*
X132331415Y-100073860D01*
X132331417Y-100073859D01*
X132490304Y-99988932D01*
X132490306Y-99988931D01*
X132662706Y-99936633D01*
X132797069Y-99923400D01*
X132886931Y-99923400D01*
X133021294Y-99936633D01*
X133021294Y-99936633D01*
G37*
G36*
X135561294Y-99936633D02*
G01*
X135733694Y-99988931D01*
X135733696Y-99988932D01*
X135892583Y-100073859D01*
X135892585Y-100073860D01*
X135892584Y-100073860D01*
X136031849Y-100188151D01*
X136146140Y-100327416D01*
X136231069Y-100486306D01*
X136283367Y-100658706D01*
X136301025Y-100838000D01*
X136283367Y-101017294D01*
X136231069Y-101189694D01*
X136231068Y-101189696D01*
X136146141Y-101348583D01*
X136031849Y-101487849D01*
X135892583Y-101602141D01*
X135733696Y-101687068D01*
X135733694Y-101687069D01*
X135561294Y-101739367D01*
X135426931Y-101752600D01*
X135337069Y-101752600D01*
X135202706Y-101739367D01*
X135030306Y-101687069D01*
X135030304Y-101687068D01*
X134871417Y-101602141D01*
X134732151Y-101487849D01*
X134617859Y-101348583D01*
X134532932Y-101189696D01*
X134532931Y-101189694D01*
X134480633Y-101017294D01*
X134462975Y-100838000D01*
X134480633Y-100658706D01*
X134532931Y-100486306D01*
X134617860Y-100327416D01*
X134732151Y-100188151D01*
X134871416Y-100073860D01*
X134871415Y-100073860D01*
X134871417Y-100073859D01*
X135030304Y-99988932D01*
X135030306Y-99988931D01*
X135202706Y-99936633D01*
X135337069Y-99923400D01*
X135426931Y-99923400D01*
X135561294Y-99936633D01*
X135561294Y-99936633D01*
G37*
G36*
X158860443Y-98165519D02*
G01*
X158926627Y-98172037D01*
X159039853Y-98206384D01*
X159096467Y-98223557D01*
X159235087Y-98297652D01*
X159252991Y-98307222D01*
X159288729Y-98336552D01*
X159390186Y-98419814D01*
X159473448Y-98521271D01*
X159502778Y-98557009D01*
X159502779Y-98557011D01*
X159586443Y-98713533D01*
X159586443Y-98713534D01*
X159637963Y-98883373D01*
X159655359Y-99060000D01*
X159637963Y-99236627D01*
X159603616Y-99349853D01*
X159586443Y-99406467D01*
X159512348Y-99545087D01*
X159502778Y-99562991D01*
X159473448Y-99598729D01*
X159390186Y-99700186D01*
X159288729Y-99783448D01*
X159252991Y-99812778D01*
X159252989Y-99812779D01*
X159096467Y-99896443D01*
X159039853Y-99913616D01*
X158926627Y-99947963D01*
X158860443Y-99954481D01*
X158794260Y-99961000D01*
X158705740Y-99961000D01*
X158639557Y-99954481D01*
X158573373Y-99947963D01*
X158460147Y-99913616D01*
X158403533Y-99896443D01*
X158247011Y-99812779D01*
X158247009Y-99812778D01*
X158211271Y-99783448D01*
X158109814Y-99700186D01*
X158026552Y-99598729D01*
X157997222Y-99562991D01*
X157987652Y-99545087D01*
X157913557Y-99406467D01*
X157896384Y-99349853D01*
X157862037Y-99236627D01*
X157844641Y-99060000D01*
X157862037Y-98883373D01*
X157913557Y-98713534D01*
X157913557Y-98713533D01*
X157997221Y-98557011D01*
X157997222Y-98557009D01*
X158026552Y-98521271D01*
X158109814Y-98419814D01*
X158211271Y-98336552D01*
X158247009Y-98307222D01*
X158264913Y-98297652D01*
X158403533Y-98223557D01*
X158460147Y-98206384D01*
X158573373Y-98172037D01*
X158639557Y-98165519D01*
X158705740Y-98159000D01*
X158794260Y-98159000D01*
X158860443Y-98165519D01*
X158860443Y-98165519D01*
G37*
G36*
X133021294Y-97396633D02*
G01*
X133193694Y-97448931D01*
X133193696Y-97448932D01*
X133352583Y-97533859D01*
X133352585Y-97533860D01*
X133352584Y-97533860D01*
X133491849Y-97648151D01*
X133606140Y-97787416D01*
X133691069Y-97946306D01*
X133743367Y-98118706D01*
X133761025Y-98298000D01*
X133743367Y-98477294D01*
X133691069Y-98649694D01*
X133691068Y-98649696D01*
X133606141Y-98808583D01*
X133491849Y-98947849D01*
X133352583Y-99062141D01*
X133193696Y-99147068D01*
X133193694Y-99147069D01*
X133021294Y-99199367D01*
X132886931Y-99212600D01*
X132797069Y-99212600D01*
X132662706Y-99199367D01*
X132490306Y-99147069D01*
X132490304Y-99147068D01*
X132331417Y-99062141D01*
X132192151Y-98947849D01*
X132077859Y-98808583D01*
X131992932Y-98649696D01*
X131992931Y-98649694D01*
X131940633Y-98477294D01*
X131922975Y-98298000D01*
X131940633Y-98118706D01*
X131992931Y-97946306D01*
X132077860Y-97787416D01*
X132192151Y-97648151D01*
X132331416Y-97533860D01*
X132331415Y-97533860D01*
X132331417Y-97533859D01*
X132490304Y-97448932D01*
X132490306Y-97448931D01*
X132662706Y-97396633D01*
X132797069Y-97383400D01*
X132886931Y-97383400D01*
X133021294Y-97396633D01*
X133021294Y-97396633D01*
G37*
G36*
X135561294Y-97396633D02*
G01*
X135733694Y-97448931D01*
X135733696Y-97448932D01*
X135892583Y-97533859D01*
X135892585Y-97533860D01*
X135892584Y-97533860D01*
X136031849Y-97648151D01*
X136146140Y-97787416D01*
X136231069Y-97946306D01*
X136283367Y-98118706D01*
X136301025Y-98298000D01*
X136283367Y-98477294D01*
X136231069Y-98649694D01*
X136231068Y-98649696D01*
X136146141Y-98808583D01*
X136031849Y-98947849D01*
X135892583Y-99062141D01*
X135733696Y-99147068D01*
X135733694Y-99147069D01*
X135561294Y-99199367D01*
X135426931Y-99212600D01*
X135337069Y-99212600D01*
X135202706Y-99199367D01*
X135030306Y-99147069D01*
X135030304Y-99147068D01*
X134871417Y-99062141D01*
X134732151Y-98947849D01*
X134617859Y-98808583D01*
X134532932Y-98649696D01*
X134532931Y-98649694D01*
X134480633Y-98477294D01*
X134462975Y-98298000D01*
X134480633Y-98118706D01*
X134532931Y-97946306D01*
X134617860Y-97787416D01*
X134732151Y-97648151D01*
X134871416Y-97533860D01*
X134871415Y-97533860D01*
X134871417Y-97533859D01*
X135030304Y-97448932D01*
X135030306Y-97448931D01*
X135202706Y-97396633D01*
X135337069Y-97383400D01*
X135426931Y-97383400D01*
X135561294Y-97396633D01*
X135561294Y-97396633D01*
G37*
G36*
X158860442Y-95625518D02*
G01*
X158926627Y-95632037D01*
X159039853Y-95666384D01*
X159096467Y-95683557D01*
X159235087Y-95757652D01*
X159252991Y-95767222D01*
X159288729Y-95796552D01*
X159390186Y-95879814D01*
X159461729Y-95966991D01*
X159502778Y-96017009D01*
X159502779Y-96017011D01*
X159586443Y-96173533D01*
X159586443Y-96173534D01*
X159637963Y-96343373D01*
X159655359Y-96520000D01*
X159637963Y-96696627D01*
X159603616Y-96809853D01*
X159586443Y-96866467D01*
X159512348Y-97005087D01*
X159502778Y-97022991D01*
X159473448Y-97058729D01*
X159390186Y-97160186D01*
X159288729Y-97243448D01*
X159252991Y-97272778D01*
X159252989Y-97272779D01*
X159096467Y-97356443D01*
X159039853Y-97373616D01*
X158926627Y-97407963D01*
X158860442Y-97414482D01*
X158794260Y-97421000D01*
X158705740Y-97421000D01*
X158639558Y-97414482D01*
X158573373Y-97407963D01*
X158460147Y-97373616D01*
X158403533Y-97356443D01*
X158247011Y-97272779D01*
X158247009Y-97272778D01*
X158211271Y-97243448D01*
X158109814Y-97160186D01*
X158026552Y-97058729D01*
X157997222Y-97022991D01*
X157987652Y-97005087D01*
X157913557Y-96866467D01*
X157896384Y-96809853D01*
X157862037Y-96696627D01*
X157844641Y-96520000D01*
X157862037Y-96343373D01*
X157913557Y-96173534D01*
X157913557Y-96173533D01*
X157997221Y-96017011D01*
X157997222Y-96017009D01*
X158038271Y-95966991D01*
X158109814Y-95879814D01*
X158211271Y-95796552D01*
X158247009Y-95767222D01*
X158264913Y-95757652D01*
X158403533Y-95683557D01*
X158460147Y-95666384D01*
X158573373Y-95632037D01*
X158639558Y-95625518D01*
X158705740Y-95619000D01*
X158794260Y-95619000D01*
X158860442Y-95625518D01*
X158860442Y-95625518D01*
G37*
G36*
X106686442Y-94569518D02*
G01*
X106752627Y-94576037D01*
X106865853Y-94610384D01*
X106922467Y-94627557D01*
X107061087Y-94701652D01*
X107078991Y-94711222D01*
X107105257Y-94732778D01*
X107216186Y-94823814D01*
X107299448Y-94925271D01*
X107328778Y-94961009D01*
X107328779Y-94961011D01*
X107412443Y-95117533D01*
X107412443Y-95117534D01*
X107463963Y-95287373D01*
X107481359Y-95464000D01*
X107463963Y-95640627D01*
X107450940Y-95683557D01*
X107412443Y-95810467D01*
X107375375Y-95879815D01*
X107328778Y-95966991D01*
X107299448Y-96002729D01*
X107216186Y-96104186D01*
X107131685Y-96173533D01*
X107078991Y-96216778D01*
X107078989Y-96216779D01*
X106922467Y-96300443D01*
X106865853Y-96317616D01*
X106752627Y-96351963D01*
X106686443Y-96358481D01*
X106620260Y-96365000D01*
X106231740Y-96365000D01*
X106165557Y-96358481D01*
X106099373Y-96351963D01*
X105986147Y-96317616D01*
X105929533Y-96300443D01*
X105773011Y-96216779D01*
X105773009Y-96216778D01*
X105720315Y-96173533D01*
X105635814Y-96104186D01*
X105552552Y-96002729D01*
X105523222Y-95966991D01*
X105476625Y-95879815D01*
X105439557Y-95810467D01*
X105401060Y-95683557D01*
X105388037Y-95640627D01*
X105370641Y-95464000D01*
X105388037Y-95287373D01*
X105439557Y-95117534D01*
X105439557Y-95117533D01*
X105523221Y-94961011D01*
X105523222Y-94961009D01*
X105552552Y-94925271D01*
X105635814Y-94823814D01*
X105746743Y-94732778D01*
X105773009Y-94711222D01*
X105790913Y-94701652D01*
X105929533Y-94627557D01*
X105986147Y-94610384D01*
X106099373Y-94576037D01*
X106165558Y-94569518D01*
X106231740Y-94563000D01*
X106620260Y-94563000D01*
X106686442Y-94569518D01*
X106686442Y-94569518D01*
G37*
G36*
X158860443Y-93085519D02*
G01*
X158926627Y-93092037D01*
X159039853Y-93126384D01*
X159096467Y-93143557D01*
X159235087Y-93217652D01*
X159252991Y-93227222D01*
X159288729Y-93256552D01*
X159390186Y-93339814D01*
X159473448Y-93441271D01*
X159502778Y-93477009D01*
X159502779Y-93477011D01*
X159586443Y-93633533D01*
X159586443Y-93633534D01*
X159637963Y-93803373D01*
X159655359Y-93980000D01*
X159637963Y-94156627D01*
X159603616Y-94269853D01*
X159586443Y-94326467D01*
X159512348Y-94465087D01*
X159502778Y-94482991D01*
X159473448Y-94518729D01*
X159390186Y-94620186D01*
X159288729Y-94703448D01*
X159252991Y-94732778D01*
X159252989Y-94732779D01*
X159096467Y-94816443D01*
X159072164Y-94823815D01*
X158926627Y-94867963D01*
X158860443Y-94874481D01*
X158794260Y-94881000D01*
X158705740Y-94881000D01*
X158639557Y-94874481D01*
X158573373Y-94867963D01*
X158427836Y-94823815D01*
X158403533Y-94816443D01*
X158247011Y-94732779D01*
X158247009Y-94732778D01*
X158211271Y-94703448D01*
X158109814Y-94620186D01*
X158026552Y-94518729D01*
X157997222Y-94482991D01*
X157987652Y-94465087D01*
X157913557Y-94326467D01*
X157896384Y-94269853D01*
X157862037Y-94156627D01*
X157844641Y-93980000D01*
X157862037Y-93803373D01*
X157913557Y-93633534D01*
X157913557Y-93633533D01*
X157997221Y-93477011D01*
X157997222Y-93477009D01*
X158026552Y-93441271D01*
X158109814Y-93339814D01*
X158211271Y-93256552D01*
X158247009Y-93227222D01*
X158264913Y-93217652D01*
X158403533Y-93143557D01*
X158460147Y-93126384D01*
X158573373Y-93092037D01*
X158639557Y-93085519D01*
X158705740Y-93079000D01*
X158794260Y-93079000D01*
X158860443Y-93085519D01*
X158860443Y-93085519D01*
G37*
G36*
X107334600Y-92066989D02*
G01*
X107367649Y-92077014D01*
X107398106Y-92093294D01*
X107424799Y-92115201D01*
X107446706Y-92141894D01*
X107462986Y-92172351D01*
X107473011Y-92205400D01*
X107477000Y-92245904D01*
X107477000Y-93682096D01*
X107473011Y-93722600D01*
X107462986Y-93755649D01*
X107446706Y-93786106D01*
X107424799Y-93812799D01*
X107398106Y-93834706D01*
X107367649Y-93850986D01*
X107334600Y-93861011D01*
X107294096Y-93865000D01*
X105557904Y-93865000D01*
X105517400Y-93861011D01*
X105484351Y-93850986D01*
X105453894Y-93834706D01*
X105427201Y-93812799D01*
X105405294Y-93786106D01*
X105389014Y-93755649D01*
X105378989Y-93722600D01*
X105375000Y-93682096D01*
X105375000Y-92245904D01*
X105378989Y-92205400D01*
X105389014Y-92172351D01*
X105405294Y-92141894D01*
X105427201Y-92115201D01*
X105453894Y-92093294D01*
X105484351Y-92077014D01*
X105517400Y-92066989D01*
X105557904Y-92063000D01*
X107294096Y-92063000D01*
X107334600Y-92066989D01*
X107334600Y-92066989D01*
G37*
G36*
X124949444Y-90057375D02*
G01*
X124986259Y-90068542D01*
X125020182Y-90086675D01*
X125049920Y-90111080D01*
X125074325Y-90140818D01*
X125092458Y-90174741D01*
X125103625Y-90211556D01*
X125108000Y-90255977D01*
X125108000Y-91177023D01*
X125103625Y-91221444D01*
X125092458Y-91258259D01*
X125074325Y-91292182D01*
X125049920Y-91321920D01*
X125020182Y-91346325D01*
X124986259Y-91364458D01*
X124949444Y-91375625D01*
X124905023Y-91380000D01*
X120458977Y-91380000D01*
X120414556Y-91375625D01*
X120377741Y-91364458D01*
X120343818Y-91346325D01*
X120314080Y-91321920D01*
X120289675Y-91292182D01*
X120271542Y-91258259D01*
X120260375Y-91221444D01*
X120256000Y-91177023D01*
X120256000Y-90255977D01*
X120260375Y-90211556D01*
X120271542Y-90174741D01*
X120289675Y-90140818D01*
X120314080Y-90111080D01*
X120343818Y-90086675D01*
X120377741Y-90068542D01*
X120414556Y-90057375D01*
X120458977Y-90053000D01*
X124905023Y-90053000D01*
X124949444Y-90057375D01*
X124949444Y-90057375D01*
G37*
G36*
X137901643Y-88637781D02*
G01*
X138047415Y-88698162D01*
X138178611Y-88785824D01*
X138290176Y-88897389D01*
X138377838Y-89028585D01*
X138438219Y-89174357D01*
X138469000Y-89329107D01*
X138469000Y-89486893D01*
X138438219Y-89641643D01*
X138377838Y-89787415D01*
X138290176Y-89918611D01*
X138178611Y-90030176D01*
X138047415Y-90117838D01*
X137901643Y-90178219D01*
X137746893Y-90209000D01*
X137589107Y-90209000D01*
X137434357Y-90178219D01*
X137288585Y-90117838D01*
X137157389Y-90030176D01*
X137045824Y-89918611D01*
X136958162Y-89787415D01*
X136897781Y-89641643D01*
X136867000Y-89486893D01*
X136867000Y-89329107D01*
X136897781Y-89174357D01*
X136958162Y-89028585D01*
X137045824Y-88897389D01*
X137157389Y-88785824D01*
X137288585Y-88698162D01*
X137434357Y-88637781D01*
X137589107Y-88607000D01*
X137746893Y-88607000D01*
X137901643Y-88637781D01*
X137901643Y-88637781D01*
G37*
G36*
X142781643Y-88637781D02*
G01*
X142927415Y-88698162D01*
X143058611Y-88785824D01*
X143170176Y-88897389D01*
X143257838Y-89028585D01*
X143318219Y-89174357D01*
X143349000Y-89329107D01*
X143349000Y-89486893D01*
X143318219Y-89641643D01*
X143257838Y-89787415D01*
X143170176Y-89918611D01*
X143058611Y-90030176D01*
X142927415Y-90117838D01*
X142781643Y-90178219D01*
X142626893Y-90209000D01*
X142469107Y-90209000D01*
X142314357Y-90178219D01*
X142168585Y-90117838D01*
X142037389Y-90030176D01*
X141925824Y-89918611D01*
X141838162Y-89787415D01*
X141777781Y-89641643D01*
X141747000Y-89486893D01*
X141747000Y-89329107D01*
X141777781Y-89174357D01*
X141838162Y-89028585D01*
X141925824Y-88897389D01*
X142037389Y-88785824D01*
X142168585Y-88698162D01*
X142314357Y-88637781D01*
X142469107Y-88607000D01*
X142626893Y-88607000D01*
X142781643Y-88637781D01*
X142781643Y-88637781D01*
G37*
G36*
X164096776Y-88292547D02*
G01*
X164096778Y-88292548D01*
X164096779Y-88292548D01*
X164263225Y-88361492D01*
X164263226Y-88361493D01*
X164413026Y-88461586D01*
X164540414Y-88588974D01*
X164540416Y-88588977D01*
X164640508Y-88738775D01*
X164659995Y-88785822D01*
X164713475Y-88914933D01*
X164714513Y-88918355D01*
X164726063Y-88939967D01*
X164741608Y-88958909D01*
X164760549Y-88974456D01*
X164782160Y-88986008D01*
X164805608Y-88993122D01*
X164829995Y-88995525D01*
X164854381Y-88993124D01*
X164877830Y-88986012D01*
X164899442Y-88974462D01*
X164918384Y-88958917D01*
X164933931Y-88939976D01*
X164945483Y-88918365D01*
X164946522Y-88914940D01*
X165000005Y-88785822D01*
X165019492Y-88738775D01*
X165119584Y-88588977D01*
X165119586Y-88588974D01*
X165246974Y-88461586D01*
X165396774Y-88361493D01*
X165396775Y-88361492D01*
X165563221Y-88292548D01*
X165563222Y-88292548D01*
X165563224Y-88292547D01*
X165739918Y-88257400D01*
X165920082Y-88257400D01*
X166096776Y-88292547D01*
X166096778Y-88292548D01*
X166096779Y-88292548D01*
X166263225Y-88361492D01*
X166263226Y-88361493D01*
X166413026Y-88461586D01*
X166540414Y-88588974D01*
X166540416Y-88588977D01*
X166640508Y-88738775D01*
X166659995Y-88785822D01*
X166713475Y-88914933D01*
X166714513Y-88918355D01*
X166726063Y-88939967D01*
X166741608Y-88958909D01*
X166760549Y-88974456D01*
X166782160Y-88986008D01*
X166805608Y-88993122D01*
X166829995Y-88995525D01*
X166854381Y-88993124D01*
X166877830Y-88986012D01*
X166899442Y-88974462D01*
X166918384Y-88958917D01*
X166933931Y-88939976D01*
X166945483Y-88918365D01*
X166946522Y-88914940D01*
X167000005Y-88785822D01*
X167019492Y-88738775D01*
X167119584Y-88588977D01*
X167119586Y-88588974D01*
X167246974Y-88461586D01*
X167396774Y-88361493D01*
X167396775Y-88361492D01*
X167563221Y-88292548D01*
X167563222Y-88292548D01*
X167563224Y-88292547D01*
X167739918Y-88257400D01*
X167920082Y-88257400D01*
X168096776Y-88292547D01*
X168096778Y-88292548D01*
X168096779Y-88292548D01*
X168263225Y-88361492D01*
X168263226Y-88361493D01*
X168413026Y-88461586D01*
X168540414Y-88588974D01*
X168540416Y-88588977D01*
X168640508Y-88738775D01*
X168659995Y-88785822D01*
X168713475Y-88914933D01*
X168714513Y-88918355D01*
X168726063Y-88939967D01*
X168741608Y-88958909D01*
X168760549Y-88974456D01*
X168782160Y-88986008D01*
X168805608Y-88993122D01*
X168829995Y-88995525D01*
X168854381Y-88993124D01*
X168877830Y-88986012D01*
X168899442Y-88974462D01*
X168918384Y-88958917D01*
X168933931Y-88939976D01*
X168945483Y-88918365D01*
X168946522Y-88914940D01*
X169000005Y-88785822D01*
X169019492Y-88738775D01*
X169119584Y-88588977D01*
X169119586Y-88588974D01*
X169246974Y-88461586D01*
X169396774Y-88361493D01*
X169396775Y-88361492D01*
X169563221Y-88292548D01*
X169563222Y-88292548D01*
X169563224Y-88292547D01*
X169739918Y-88257400D01*
X169920082Y-88257400D01*
X170096776Y-88292547D01*
X170096778Y-88292548D01*
X170096779Y-88292548D01*
X170263225Y-88361492D01*
X170263226Y-88361493D01*
X170413026Y-88461586D01*
X170540414Y-88588974D01*
X170540416Y-88588977D01*
X170640508Y-88738775D01*
X170659995Y-88785822D01*
X170713475Y-88914933D01*
X170714513Y-88918355D01*
X170726063Y-88939967D01*
X170741608Y-88958909D01*
X170760549Y-88974456D01*
X170782160Y-88986008D01*
X170805608Y-88993122D01*
X170829995Y-88995525D01*
X170854381Y-88993124D01*
X170877830Y-88986012D01*
X170899442Y-88974462D01*
X170918384Y-88958917D01*
X170933931Y-88939976D01*
X170945483Y-88918365D01*
X170946522Y-88914940D01*
X171000005Y-88785822D01*
X171019492Y-88738775D01*
X171119584Y-88588977D01*
X171119586Y-88588974D01*
X171246974Y-88461586D01*
X171396774Y-88361493D01*
X171396775Y-88361492D01*
X171563221Y-88292548D01*
X171563222Y-88292548D01*
X171563224Y-88292547D01*
X171739918Y-88257400D01*
X171920082Y-88257400D01*
X172096776Y-88292547D01*
X172096778Y-88292548D01*
X172096779Y-88292548D01*
X172263225Y-88361492D01*
X172263226Y-88361493D01*
X172413026Y-88461586D01*
X172540414Y-88588974D01*
X172540416Y-88588977D01*
X172640508Y-88738775D01*
X172659995Y-88785822D01*
X172713475Y-88914933D01*
X172714513Y-88918355D01*
X172726063Y-88939967D01*
X172741608Y-88958909D01*
X172760549Y-88974456D01*
X172782160Y-88986008D01*
X172805608Y-88993122D01*
X172829995Y-88995525D01*
X172854381Y-88993124D01*
X172877830Y-88986012D01*
X172899442Y-88974462D01*
X172918384Y-88958917D01*
X172933931Y-88939976D01*
X172945483Y-88918365D01*
X172946522Y-88914940D01*
X173000005Y-88785822D01*
X173019492Y-88738775D01*
X173119584Y-88588977D01*
X173119586Y-88588974D01*
X173246974Y-88461586D01*
X173396774Y-88361493D01*
X173396775Y-88361492D01*
X173563221Y-88292548D01*
X173563222Y-88292548D01*
X173563224Y-88292547D01*
X173739918Y-88257400D01*
X173920082Y-88257400D01*
X174096776Y-88292547D01*
X174096778Y-88292548D01*
X174096779Y-88292548D01*
X174263225Y-88361492D01*
X174263226Y-88361493D01*
X174413026Y-88461586D01*
X174540414Y-88588974D01*
X174540416Y-88588977D01*
X174640508Y-88738775D01*
X174659995Y-88785822D01*
X174713475Y-88914933D01*
X174714513Y-88918355D01*
X174726063Y-88939967D01*
X174741608Y-88958909D01*
X174760549Y-88974456D01*
X174782160Y-88986008D01*
X174805608Y-88993122D01*
X174829995Y-88995525D01*
X174854381Y-88993124D01*
X174877830Y-88986012D01*
X174899442Y-88974462D01*
X174918384Y-88958917D01*
X174933931Y-88939976D01*
X174945483Y-88918365D01*
X174946522Y-88914940D01*
X175000005Y-88785822D01*
X175019492Y-88738775D01*
X175119584Y-88588977D01*
X175119586Y-88588974D01*
X175246974Y-88461586D01*
X175396774Y-88361493D01*
X175396775Y-88361492D01*
X175563221Y-88292548D01*
X175563222Y-88292548D01*
X175563224Y-88292547D01*
X175739918Y-88257400D01*
X175920082Y-88257400D01*
X176096776Y-88292547D01*
X176096778Y-88292548D01*
X176096779Y-88292548D01*
X176263225Y-88361492D01*
X176263226Y-88361493D01*
X176413026Y-88461586D01*
X176540414Y-88588974D01*
X176540416Y-88588977D01*
X176640508Y-88738775D01*
X176659995Y-88785822D01*
X176713475Y-88914933D01*
X176714513Y-88918355D01*
X176726063Y-88939967D01*
X176741608Y-88958909D01*
X176760549Y-88974456D01*
X176782160Y-88986008D01*
X176805608Y-88993122D01*
X176829995Y-88995525D01*
X176854381Y-88993124D01*
X176877830Y-88986012D01*
X176899442Y-88974462D01*
X176918384Y-88958917D01*
X176933931Y-88939976D01*
X176945483Y-88918365D01*
X176946522Y-88914940D01*
X177000005Y-88785822D01*
X177019492Y-88738775D01*
X177119584Y-88588977D01*
X177119586Y-88588974D01*
X177246974Y-88461586D01*
X177396774Y-88361493D01*
X177396775Y-88361492D01*
X177563221Y-88292548D01*
X177563222Y-88292548D01*
X177563224Y-88292547D01*
X177739918Y-88257400D01*
X177920082Y-88257400D01*
X178096776Y-88292547D01*
X178096778Y-88292548D01*
X178096779Y-88292548D01*
X178263225Y-88361492D01*
X178263226Y-88361493D01*
X178413026Y-88461586D01*
X178540414Y-88588974D01*
X178540416Y-88588977D01*
X178640508Y-88738775D01*
X178659995Y-88785822D01*
X178709453Y-88905224D01*
X178744600Y-89081918D01*
X178744600Y-89262082D01*
X178711386Y-89429060D01*
X178709452Y-89438779D01*
X178640508Y-89605225D01*
X178640507Y-89605226D01*
X178540414Y-89755026D01*
X178413026Y-89882414D01*
X178413023Y-89882416D01*
X178263225Y-89982508D01*
X178096779Y-90051452D01*
X178096778Y-90051452D01*
X178096776Y-90051453D01*
X177920082Y-90086600D01*
X177739918Y-90086600D01*
X177563224Y-90051453D01*
X177563222Y-90051452D01*
X177563221Y-90051452D01*
X177396775Y-89982508D01*
X177246977Y-89882416D01*
X177246974Y-89882414D01*
X177119586Y-89755026D01*
X177019493Y-89605226D01*
X177019492Y-89605225D01*
X176950548Y-89438779D01*
X176950547Y-89438776D01*
X176946525Y-89429067D01*
X176945487Y-89425645D01*
X176933937Y-89404033D01*
X176918392Y-89385091D01*
X176899451Y-89369544D01*
X176877840Y-89357992D01*
X176854392Y-89350878D01*
X176830005Y-89348475D01*
X176805619Y-89350876D01*
X176782170Y-89357988D01*
X176760558Y-89369538D01*
X176741616Y-89385083D01*
X176726069Y-89404024D01*
X176714517Y-89425635D01*
X176713478Y-89429060D01*
X176709453Y-89438776D01*
X176709452Y-89438779D01*
X176640508Y-89605225D01*
X176640507Y-89605226D01*
X176540414Y-89755026D01*
X176413026Y-89882414D01*
X176413023Y-89882416D01*
X176263225Y-89982508D01*
X176096779Y-90051452D01*
X176096778Y-90051452D01*
X176096776Y-90051453D01*
X175920082Y-90086600D01*
X175739918Y-90086600D01*
X175563224Y-90051453D01*
X175563222Y-90051452D01*
X175563221Y-90051452D01*
X175396775Y-89982508D01*
X175246977Y-89882416D01*
X175246974Y-89882414D01*
X175119586Y-89755026D01*
X175019493Y-89605226D01*
X175019492Y-89605225D01*
X174950548Y-89438779D01*
X174950547Y-89438776D01*
X174946525Y-89429067D01*
X174945487Y-89425645D01*
X174933937Y-89404033D01*
X174918392Y-89385091D01*
X174899451Y-89369544D01*
X174877840Y-89357992D01*
X174854392Y-89350878D01*
X174830005Y-89348475D01*
X174805619Y-89350876D01*
X174782170Y-89357988D01*
X174760558Y-89369538D01*
X174741616Y-89385083D01*
X174726069Y-89404024D01*
X174714517Y-89425635D01*
X174713478Y-89429060D01*
X174709453Y-89438776D01*
X174709452Y-89438779D01*
X174640508Y-89605225D01*
X174640507Y-89605226D01*
X174540414Y-89755026D01*
X174413026Y-89882414D01*
X174413023Y-89882416D01*
X174263225Y-89982508D01*
X174096779Y-90051452D01*
X174096778Y-90051452D01*
X174096776Y-90051453D01*
X173920082Y-90086600D01*
X173739918Y-90086600D01*
X173563224Y-90051453D01*
X173563222Y-90051452D01*
X173563221Y-90051452D01*
X173396775Y-89982508D01*
X173246977Y-89882416D01*
X173246974Y-89882414D01*
X173119586Y-89755026D01*
X173019493Y-89605226D01*
X173019492Y-89605225D01*
X172950548Y-89438779D01*
X172950547Y-89438776D01*
X172946525Y-89429067D01*
X172945487Y-89425645D01*
X172933937Y-89404033D01*
X172918392Y-89385091D01*
X172899451Y-89369544D01*
X172877840Y-89357992D01*
X172854392Y-89350878D01*
X172830005Y-89348475D01*
X172805619Y-89350876D01*
X172782170Y-89357988D01*
X172760558Y-89369538D01*
X172741616Y-89385083D01*
X172726069Y-89404024D01*
X172714517Y-89425635D01*
X172713478Y-89429060D01*
X172709453Y-89438776D01*
X172709452Y-89438779D01*
X172640508Y-89605225D01*
X172640507Y-89605226D01*
X172540414Y-89755026D01*
X172413026Y-89882414D01*
X172413023Y-89882416D01*
X172263225Y-89982508D01*
X172096779Y-90051452D01*
X172096778Y-90051452D01*
X172096776Y-90051453D01*
X171920082Y-90086600D01*
X171739918Y-90086600D01*
X171563224Y-90051453D01*
X171563222Y-90051452D01*
X171563221Y-90051452D01*
X171396775Y-89982508D01*
X171246977Y-89882416D01*
X171246974Y-89882414D01*
X171119586Y-89755026D01*
X171019493Y-89605226D01*
X171019492Y-89605225D01*
X170950548Y-89438779D01*
X170950547Y-89438776D01*
X170946525Y-89429067D01*
X170945487Y-89425645D01*
X170933937Y-89404033D01*
X170918392Y-89385091D01*
X170899451Y-89369544D01*
X170877840Y-89357992D01*
X170854392Y-89350878D01*
X170830005Y-89348475D01*
X170805619Y-89350876D01*
X170782170Y-89357988D01*
X170760558Y-89369538D01*
X170741616Y-89385083D01*
X170726069Y-89404024D01*
X170714517Y-89425635D01*
X170713478Y-89429060D01*
X170709453Y-89438776D01*
X170709452Y-89438779D01*
X170640508Y-89605225D01*
X170640507Y-89605226D01*
X170540414Y-89755026D01*
X170413026Y-89882414D01*
X170413023Y-89882416D01*
X170263225Y-89982508D01*
X170096779Y-90051452D01*
X170096778Y-90051452D01*
X170096776Y-90051453D01*
X169920082Y-90086600D01*
X169739918Y-90086600D01*
X169563224Y-90051453D01*
X169563222Y-90051452D01*
X169563221Y-90051452D01*
X169396775Y-89982508D01*
X169246977Y-89882416D01*
X169246974Y-89882414D01*
X169119586Y-89755026D01*
X169019493Y-89605226D01*
X169019492Y-89605225D01*
X168950548Y-89438779D01*
X168950547Y-89438776D01*
X168946525Y-89429067D01*
X168945487Y-89425645D01*
X168933937Y-89404033D01*
X168918392Y-89385091D01*
X168899451Y-89369544D01*
X168877840Y-89357992D01*
X168854392Y-89350878D01*
X168830005Y-89348475D01*
X168805619Y-89350876D01*
X168782170Y-89357988D01*
X168760558Y-89369538D01*
X168741616Y-89385083D01*
X168726069Y-89404024D01*
X168714517Y-89425635D01*
X168713478Y-89429060D01*
X168709453Y-89438776D01*
X168709452Y-89438779D01*
X168640508Y-89605225D01*
X168640507Y-89605226D01*
X168540414Y-89755026D01*
X168413026Y-89882414D01*
X168413023Y-89882416D01*
X168263225Y-89982508D01*
X168096779Y-90051452D01*
X168096778Y-90051452D01*
X168096776Y-90051453D01*
X167920082Y-90086600D01*
X167739918Y-90086600D01*
X167563224Y-90051453D01*
X167563222Y-90051452D01*
X167563221Y-90051452D01*
X167396775Y-89982508D01*
X167246977Y-89882416D01*
X167246974Y-89882414D01*
X167119586Y-89755026D01*
X167019493Y-89605226D01*
X167019492Y-89605225D01*
X166950548Y-89438779D01*
X166950547Y-89438776D01*
X166946525Y-89429067D01*
X166945487Y-89425645D01*
X166933937Y-89404033D01*
X166918392Y-89385091D01*
X166899451Y-89369544D01*
X166877840Y-89357992D01*
X166854392Y-89350878D01*
X166830005Y-89348475D01*
X166805619Y-89350876D01*
X166782170Y-89357988D01*
X166760558Y-89369538D01*
X166741616Y-89385083D01*
X166726069Y-89404024D01*
X166714517Y-89425635D01*
X166713478Y-89429060D01*
X166709453Y-89438776D01*
X166709452Y-89438779D01*
X166640508Y-89605225D01*
X166640507Y-89605226D01*
X166540414Y-89755026D01*
X166413026Y-89882414D01*
X166413023Y-89882416D01*
X166263225Y-89982508D01*
X166096779Y-90051452D01*
X166096778Y-90051452D01*
X166096776Y-90051453D01*
X165920082Y-90086600D01*
X165739918Y-90086600D01*
X165563224Y-90051453D01*
X165563222Y-90051452D01*
X165563221Y-90051452D01*
X165396775Y-89982508D01*
X165246977Y-89882416D01*
X165246974Y-89882414D01*
X165119586Y-89755026D01*
X165019493Y-89605226D01*
X165019492Y-89605225D01*
X164950548Y-89438779D01*
X164950547Y-89438776D01*
X164946525Y-89429067D01*
X164945487Y-89425645D01*
X164933937Y-89404033D01*
X164918392Y-89385091D01*
X164899451Y-89369544D01*
X164877840Y-89357992D01*
X164854392Y-89350878D01*
X164830005Y-89348475D01*
X164805619Y-89350876D01*
X164782170Y-89357988D01*
X164760558Y-89369538D01*
X164741616Y-89385083D01*
X164726069Y-89404024D01*
X164714517Y-89425635D01*
X164713478Y-89429060D01*
X164709453Y-89438776D01*
X164709452Y-89438779D01*
X164640508Y-89605225D01*
X164640507Y-89605226D01*
X164540414Y-89755026D01*
X164413026Y-89882414D01*
X164413023Y-89882416D01*
X164263225Y-89982508D01*
X164096779Y-90051452D01*
X164096778Y-90051452D01*
X164096776Y-90051453D01*
X163920082Y-90086600D01*
X163739918Y-90086600D01*
X163563224Y-90051453D01*
X163563222Y-90051452D01*
X163563221Y-90051452D01*
X163396775Y-89982508D01*
X163246977Y-89882416D01*
X163246974Y-89882414D01*
X163119586Y-89755026D01*
X163019493Y-89605226D01*
X163019492Y-89605225D01*
X162950548Y-89438779D01*
X162948615Y-89429060D01*
X162915400Y-89262082D01*
X162915400Y-89081918D01*
X162950547Y-88905224D01*
X163000005Y-88785822D01*
X163019492Y-88738775D01*
X163119584Y-88588977D01*
X163119586Y-88588974D01*
X163246974Y-88461586D01*
X163396774Y-88361493D01*
X163396775Y-88361492D01*
X163563221Y-88292548D01*
X163563222Y-88292548D01*
X163563224Y-88292547D01*
X163739918Y-88257400D01*
X163920082Y-88257400D01*
X164096776Y-88292547D01*
X164096776Y-88292547D01*
G37*
G36*
X124949444Y-86932375D02*
G01*
X124986259Y-86943542D01*
X125020182Y-86961675D01*
X125049920Y-86986080D01*
X125074325Y-87015818D01*
X125092458Y-87049741D01*
X125103625Y-87086556D01*
X125108000Y-87130977D01*
X125108000Y-88052023D01*
X125103625Y-88096444D01*
X125092458Y-88133259D01*
X125074325Y-88167182D01*
X125049920Y-88196920D01*
X125020182Y-88221325D01*
X124986259Y-88239458D01*
X124949444Y-88250625D01*
X124905023Y-88255000D01*
X120458977Y-88255000D01*
X120414556Y-88250625D01*
X120377741Y-88239458D01*
X120343818Y-88221325D01*
X120314080Y-88196920D01*
X120289675Y-88167182D01*
X120271542Y-88133259D01*
X120260375Y-88096444D01*
X120256000Y-88052023D01*
X120256000Y-87130977D01*
X120260375Y-87086556D01*
X120271542Y-87049741D01*
X120289675Y-87015818D01*
X120314080Y-86986080D01*
X120343818Y-86961675D01*
X120377741Y-86943542D01*
X120414556Y-86932375D01*
X120458977Y-86928000D01*
X124905023Y-86928000D01*
X124949444Y-86932375D01*
X124949444Y-86932375D01*
G37*
G36*
X182090905Y-82790789D02*
G01*
X182389350Y-82850153D01*
X182717122Y-82985921D01*
X183012109Y-83183025D01*
X183262975Y-83433891D01*
X183460079Y-83728878D01*
X183595847Y-84056650D01*
X183634246Y-84249698D01*
X183664135Y-84399958D01*
X183665060Y-84404611D01*
X183665060Y-84759389D01*
X183595847Y-85107350D01*
X183460079Y-85435122D01*
X183262975Y-85730109D01*
X183012109Y-85980975D01*
X182717122Y-86178079D01*
X182389350Y-86313847D01*
X182090905Y-86373211D01*
X182041390Y-86383060D01*
X181686610Y-86383060D01*
X181637095Y-86373211D01*
X181338650Y-86313847D01*
X181010878Y-86178079D01*
X180715891Y-85980975D01*
X180465025Y-85730109D01*
X180267921Y-85435122D01*
X180132153Y-85107350D01*
X180062940Y-84759389D01*
X180062940Y-84404611D01*
X180063866Y-84399958D01*
X180093754Y-84249698D01*
X180132153Y-84056650D01*
X180267921Y-83728878D01*
X180465025Y-83433891D01*
X180715891Y-83183025D01*
X181010878Y-82985921D01*
X181338650Y-82850153D01*
X181637095Y-82790789D01*
X181686610Y-82780940D01*
X182041390Y-82780940D01*
X182090905Y-82790789D01*
X182090905Y-82790789D01*
G37*
G36*
X105028413Y-83843525D02*
G01*
X105103456Y-83866290D01*
X105113425Y-83869314D01*
X105191774Y-83911193D01*
X105260448Y-83967552D01*
X105316807Y-84036226D01*
X105358686Y-84114575D01*
X105358687Y-84114579D01*
X105384475Y-84199587D01*
X105393182Y-84288000D01*
X105384475Y-84376413D01*
X105361710Y-84451456D01*
X105358686Y-84461425D01*
X105330191Y-84514735D01*
X105316807Y-84539775D01*
X105291496Y-84570615D01*
X105267850Y-84599429D01*
X105254239Y-84619798D01*
X105244862Y-84642437D01*
X105240081Y-84666471D01*
X105240081Y-84690975D01*
X105244861Y-84715008D01*
X105254238Y-84737648D01*
X105267852Y-84758022D01*
X105285179Y-84775350D01*
X105305553Y-84788964D01*
X105328192Y-84798341D01*
X105352226Y-84803122D01*
X105376730Y-84803122D01*
X105400763Y-84798342D01*
X105409212Y-84794843D01*
X105416599Y-84792602D01*
X105416601Y-84792601D01*
X105562878Y-84748229D01*
X105562881Y-84748228D01*
X105676882Y-84737000D01*
X106303118Y-84737000D01*
X106417119Y-84748228D01*
X106417122Y-84748229D01*
X106563399Y-84792601D01*
X106563401Y-84792602D01*
X106698210Y-84864659D01*
X106816369Y-84961631D01*
X106913341Y-85079790D01*
X106913342Y-85079792D01*
X106985399Y-85214601D01*
X107015408Y-85313529D01*
X107029772Y-85360881D01*
X107044754Y-85513000D01*
X107029772Y-85665119D01*
X106985398Y-85811401D01*
X106913341Y-85946210D01*
X106816369Y-86064369D01*
X106698210Y-86161341D01*
X106652043Y-86186018D01*
X106563399Y-86233399D01*
X106444352Y-86269511D01*
X106417119Y-86277772D01*
X106303118Y-86289000D01*
X105676882Y-86289000D01*
X105562881Y-86277772D01*
X105535648Y-86269511D01*
X105416601Y-86233399D01*
X105327957Y-86186018D01*
X105281790Y-86161341D01*
X105163631Y-86064369D01*
X105066659Y-85946210D01*
X104994602Y-85811401D01*
X104950228Y-85665119D01*
X104935246Y-85513000D01*
X104950228Y-85360881D01*
X104964592Y-85313529D01*
X104994601Y-85214601D01*
X105066658Y-85079792D01*
X105066659Y-85079790D01*
X105163632Y-84961630D01*
X105200105Y-84931696D01*
X105217432Y-84914369D01*
X105231046Y-84893994D01*
X105240423Y-84871355D01*
X105245203Y-84847322D01*
X105245203Y-84822817D01*
X105240422Y-84798784D01*
X105231044Y-84776145D01*
X105217430Y-84755771D01*
X105200103Y-84738444D01*
X105179728Y-84724830D01*
X105157089Y-84715453D01*
X105133056Y-84710673D01*
X105108551Y-84710673D01*
X105084524Y-84715453D01*
X105063489Y-84721833D01*
X105028411Y-84732475D01*
X104962158Y-84739000D01*
X104917842Y-84739000D01*
X104851587Y-84732475D01*
X104776544Y-84709710D01*
X104766575Y-84706686D01*
X104688226Y-84664807D01*
X104619552Y-84608448D01*
X104563193Y-84539774D01*
X104521314Y-84461425D01*
X104518290Y-84451456D01*
X104495525Y-84376413D01*
X104486818Y-84288000D01*
X104495525Y-84199587D01*
X104521313Y-84114579D01*
X104521314Y-84114575D01*
X104563193Y-84036226D01*
X104619552Y-83967552D01*
X104688226Y-83911193D01*
X104766575Y-83869314D01*
X104776544Y-83866290D01*
X104851587Y-83843525D01*
X104917842Y-83837000D01*
X104962158Y-83837000D01*
X105028413Y-83843525D01*
X105028413Y-83843525D01*
G37*
G36*
X102637714Y-85046058D02*
G01*
X102637717Y-85046059D01*
X102755719Y-85081854D01*
X102755721Y-85081855D01*
X102864471Y-85139983D01*
X102959790Y-85218210D01*
X103038017Y-85313529D01*
X103063327Y-85360881D01*
X103096146Y-85422281D01*
X103100041Y-85435122D01*
X103131942Y-85540286D01*
X103144028Y-85663000D01*
X103131942Y-85785714D01*
X103096145Y-85903721D01*
X103038017Y-86012471D01*
X102959790Y-86107790D01*
X102864471Y-86186017D01*
X102864469Y-86186018D01*
X102755719Y-86244146D01*
X102659683Y-86273278D01*
X102637714Y-86279942D01*
X102545747Y-86289000D01*
X101834253Y-86289000D01*
X101742286Y-86279942D01*
X101720317Y-86273278D01*
X101624281Y-86244146D01*
X101515531Y-86186018D01*
X101515529Y-86186017D01*
X101420210Y-86107790D01*
X101341983Y-86012471D01*
X101283855Y-85903721D01*
X101248058Y-85785714D01*
X101235972Y-85663000D01*
X101248058Y-85540286D01*
X101279959Y-85435122D01*
X101283854Y-85422281D01*
X101316673Y-85360881D01*
X101341983Y-85313529D01*
X101420210Y-85218210D01*
X101515529Y-85139983D01*
X101624279Y-85081855D01*
X101624281Y-85081854D01*
X101742283Y-85046059D01*
X101742286Y-85046058D01*
X101834253Y-85037000D01*
X102545747Y-85037000D01*
X102637714Y-85046058D01*
X102637714Y-85046058D01*
G37*
G36*
X171570142Y-82836442D02*
G01*
X171718102Y-82897730D01*
X171785130Y-82942517D01*
X171850090Y-82985921D01*
X171851258Y-82986702D01*
X171964498Y-83099942D01*
X172053470Y-83233098D01*
X172114758Y-83381058D01*
X172146000Y-83538125D01*
X172146000Y-83698275D01*
X172114758Y-83855342D01*
X172053470Y-84003302D01*
X171964498Y-84136458D01*
X171851258Y-84249698D01*
X171718102Y-84338670D01*
X171570142Y-84399958D01*
X171413075Y-84431200D01*
X171252925Y-84431200D01*
X171095858Y-84399958D01*
X170947898Y-84338670D01*
X170814742Y-84249698D01*
X170701502Y-84136458D01*
X170612530Y-84003302D01*
X170551242Y-83855342D01*
X170520000Y-83698275D01*
X170520000Y-83538125D01*
X170551242Y-83381058D01*
X170612530Y-83233098D01*
X170701502Y-83099942D01*
X170814742Y-82986702D01*
X170815911Y-82985921D01*
X170880870Y-82942517D01*
X170947898Y-82897730D01*
X171095858Y-82836442D01*
X171252925Y-82805200D01*
X171413075Y-82805200D01*
X171570142Y-82836442D01*
X171570142Y-82836442D01*
G37*
G36*
X169030142Y-82836442D02*
G01*
X169178102Y-82897730D01*
X169245130Y-82942517D01*
X169310090Y-82985921D01*
X169311258Y-82986702D01*
X169424498Y-83099942D01*
X169513470Y-83233098D01*
X169574758Y-83381058D01*
X169606000Y-83538125D01*
X169606000Y-83698275D01*
X169574758Y-83855342D01*
X169513470Y-84003302D01*
X169424498Y-84136458D01*
X169311258Y-84249698D01*
X169178102Y-84338670D01*
X169030142Y-84399958D01*
X168873075Y-84431200D01*
X168712925Y-84431200D01*
X168555858Y-84399958D01*
X168407898Y-84338670D01*
X168274742Y-84249698D01*
X168161502Y-84136458D01*
X168072530Y-84003302D01*
X168011242Y-83855342D01*
X167980000Y-83698275D01*
X167980000Y-83538125D01*
X168011242Y-83381058D01*
X168072530Y-83233098D01*
X168161502Y-83099942D01*
X168274742Y-82986702D01*
X168275911Y-82985921D01*
X168340870Y-82942517D01*
X168407898Y-82897730D01*
X168555858Y-82836442D01*
X168712925Y-82805200D01*
X168873075Y-82805200D01*
X169030142Y-82836442D01*
X169030142Y-82836442D01*
G37*
G36*
X174110142Y-82836442D02*
G01*
X174258102Y-82897730D01*
X174325130Y-82942517D01*
X174390090Y-82985921D01*
X174391258Y-82986702D01*
X174504498Y-83099942D01*
X174593470Y-83233098D01*
X174654758Y-83381058D01*
X174686000Y-83538125D01*
X174686000Y-83698275D01*
X174654758Y-83855342D01*
X174593470Y-84003302D01*
X174504498Y-84136458D01*
X174391258Y-84249698D01*
X174258102Y-84338670D01*
X174110142Y-84399958D01*
X173953075Y-84431200D01*
X173792925Y-84431200D01*
X173635858Y-84399958D01*
X173487898Y-84338670D01*
X173354742Y-84249698D01*
X173241502Y-84136458D01*
X173152530Y-84003302D01*
X173091242Y-83855342D01*
X173060000Y-83698275D01*
X173060000Y-83538125D01*
X173091242Y-83381058D01*
X173152530Y-83233098D01*
X173241502Y-83099942D01*
X173354742Y-82986702D01*
X173355911Y-82985921D01*
X173420870Y-82942517D01*
X173487898Y-82897730D01*
X173635858Y-82836442D01*
X173792925Y-82805200D01*
X173953075Y-82805200D01*
X174110142Y-82836442D01*
X174110142Y-82836442D01*
G37*
G36*
X176650142Y-82836442D02*
G01*
X176798102Y-82897730D01*
X176865130Y-82942517D01*
X176930090Y-82985921D01*
X176931258Y-82986702D01*
X177044498Y-83099942D01*
X177133470Y-83233098D01*
X177194758Y-83381058D01*
X177226000Y-83538125D01*
X177226000Y-83698275D01*
X177194758Y-83855342D01*
X177133470Y-84003302D01*
X177044498Y-84136458D01*
X176931258Y-84249698D01*
X176798102Y-84338670D01*
X176650142Y-84399958D01*
X176493075Y-84431200D01*
X176332925Y-84431200D01*
X176175858Y-84399958D01*
X176027898Y-84338670D01*
X175894742Y-84249698D01*
X175781502Y-84136458D01*
X175692530Y-84003302D01*
X175631242Y-83855342D01*
X175600000Y-83698275D01*
X175600000Y-83538125D01*
X175631242Y-83381058D01*
X175692530Y-83233098D01*
X175781502Y-83099942D01*
X175894742Y-82986702D01*
X175895911Y-82985921D01*
X175960870Y-82942517D01*
X176027898Y-82897730D01*
X176175858Y-82836442D01*
X176332925Y-82805200D01*
X176493075Y-82805200D01*
X176650142Y-82836442D01*
X176650142Y-82836442D01*
G37*
G36*
X174110142Y-80296442D02*
G01*
X174258102Y-80357730D01*
X174391258Y-80446702D01*
X174504498Y-80559942D01*
X174593470Y-80693098D01*
X174654758Y-80841058D01*
X174686000Y-80998125D01*
X174686000Y-81158275D01*
X174654758Y-81315342D01*
X174593470Y-81463302D01*
X174504498Y-81596458D01*
X174391258Y-81709698D01*
X174258102Y-81798670D01*
X174110142Y-81859958D01*
X173953075Y-81891200D01*
X173792925Y-81891200D01*
X173635858Y-81859958D01*
X173487898Y-81798670D01*
X173354742Y-81709698D01*
X173241502Y-81596458D01*
X173152530Y-81463302D01*
X173091242Y-81315342D01*
X173060000Y-81158275D01*
X173060000Y-80998125D01*
X173091242Y-80841058D01*
X173152530Y-80693098D01*
X173241502Y-80559942D01*
X173354742Y-80446702D01*
X173487898Y-80357730D01*
X173635858Y-80296442D01*
X173792925Y-80265200D01*
X173953075Y-80265200D01*
X174110142Y-80296442D01*
X174110142Y-80296442D01*
G37*
G36*
X177226000Y-81891200D02*
G01*
X175600000Y-81891200D01*
X175600000Y-80265200D01*
X177226000Y-80265200D01*
X177226000Y-81891200D01*
X177226000Y-81891200D01*
G37*
G36*
X171570142Y-80296442D02*
G01*
X171718102Y-80357730D01*
X171851258Y-80446702D01*
X171964498Y-80559942D01*
X172053470Y-80693098D01*
X172114758Y-80841058D01*
X172146000Y-80998125D01*
X172146000Y-81158275D01*
X172114758Y-81315342D01*
X172053470Y-81463302D01*
X171964498Y-81596458D01*
X171851258Y-81709698D01*
X171718102Y-81798670D01*
X171570142Y-81859958D01*
X171413075Y-81891200D01*
X171252925Y-81891200D01*
X171095858Y-81859958D01*
X170947898Y-81798670D01*
X170814742Y-81709698D01*
X170701502Y-81596458D01*
X170612530Y-81463302D01*
X170551242Y-81315342D01*
X170520000Y-81158275D01*
X170520000Y-80998125D01*
X170551242Y-80841058D01*
X170612530Y-80693098D01*
X170701502Y-80559942D01*
X170814742Y-80446702D01*
X170947898Y-80357730D01*
X171095858Y-80296442D01*
X171252925Y-80265200D01*
X171413075Y-80265200D01*
X171570142Y-80296442D01*
X171570142Y-80296442D01*
G37*
G36*
X169030142Y-80296442D02*
G01*
X169178102Y-80357730D01*
X169311258Y-80446702D01*
X169424498Y-80559942D01*
X169513470Y-80693098D01*
X169574758Y-80841058D01*
X169606000Y-80998125D01*
X169606000Y-81158275D01*
X169574758Y-81315342D01*
X169513470Y-81463302D01*
X169424498Y-81596458D01*
X169311258Y-81709698D01*
X169178102Y-81798670D01*
X169030142Y-81859958D01*
X168873075Y-81891200D01*
X168712925Y-81891200D01*
X168555858Y-81859958D01*
X168407898Y-81798670D01*
X168274742Y-81709698D01*
X168161502Y-81596458D01*
X168072530Y-81463302D01*
X168011242Y-81315342D01*
X167980000Y-81158275D01*
X167980000Y-80998125D01*
X168011242Y-80841058D01*
X168072530Y-80693098D01*
X168161502Y-80559942D01*
X168274742Y-80446702D01*
X168407898Y-80357730D01*
X168555858Y-80296442D01*
X168712925Y-80265200D01*
X168873075Y-80265200D01*
X169030142Y-80296442D01*
X169030142Y-80296442D01*
G37*
G36*
X106417119Y-77298228D02*
G01*
X106417122Y-77298229D01*
X106563399Y-77342601D01*
X106563401Y-77342602D01*
X106698210Y-77414659D01*
X106816369Y-77511631D01*
X106913341Y-77629790D01*
X106985398Y-77764599D01*
X107029772Y-77910881D01*
X107044754Y-78063000D01*
X107029772Y-78215119D01*
X107029771Y-78215122D01*
X106986494Y-78357790D01*
X106985398Y-78361401D01*
X106913341Y-78496210D01*
X106816369Y-78614369D01*
X106698210Y-78711341D01*
X106698208Y-78711342D01*
X106563399Y-78783399D01*
X106506509Y-78800656D01*
X106417119Y-78827772D01*
X106303118Y-78839000D01*
X105676882Y-78839000D01*
X105562881Y-78827772D01*
X105473491Y-78800656D01*
X105416601Y-78783399D01*
X105416599Y-78783398D01*
X105409208Y-78781156D01*
X105400754Y-78777655D01*
X105376721Y-78772877D01*
X105352216Y-78772879D01*
X105328183Y-78777662D01*
X105305545Y-78787041D01*
X105285172Y-78800656D01*
X105267846Y-78817985D01*
X105254234Y-78838361D01*
X105244858Y-78861001D01*
X105240080Y-78885034D01*
X105240082Y-78909539D01*
X105244865Y-78933572D01*
X105254244Y-78956210D01*
X105267850Y-78976571D01*
X105291496Y-79005385D01*
X105316807Y-79036225D01*
X105330191Y-79061265D01*
X105358686Y-79114575D01*
X105358687Y-79114579D01*
X105384475Y-79199587D01*
X105393182Y-79288000D01*
X105384475Y-79376413D01*
X105361710Y-79451456D01*
X105358686Y-79461425D01*
X105316807Y-79539774D01*
X105260448Y-79608448D01*
X105191774Y-79664807D01*
X105113425Y-79706686D01*
X105103456Y-79709710D01*
X105028413Y-79732475D01*
X104962158Y-79739000D01*
X104917842Y-79739000D01*
X104851587Y-79732475D01*
X104776544Y-79709710D01*
X104766575Y-79706686D01*
X104688226Y-79664807D01*
X104619552Y-79608448D01*
X104563193Y-79539774D01*
X104521314Y-79461425D01*
X104518290Y-79451456D01*
X104495525Y-79376413D01*
X104486818Y-79288000D01*
X104495525Y-79199587D01*
X104521313Y-79114579D01*
X104521314Y-79114575D01*
X104563193Y-79036226D01*
X104619552Y-78967552D01*
X104688226Y-78911193D01*
X104766575Y-78869314D01*
X104779719Y-78865327D01*
X104851587Y-78843525D01*
X104917842Y-78837000D01*
X104962158Y-78837000D01*
X105028411Y-78843525D01*
X105063489Y-78854167D01*
X105084524Y-78860547D01*
X105108551Y-78865327D01*
X105133055Y-78865327D01*
X105157089Y-78860547D01*
X105179728Y-78851170D01*
X105200103Y-78837556D01*
X105217430Y-78820230D01*
X105231044Y-78799855D01*
X105240422Y-78777216D01*
X105245203Y-78753183D01*
X105245203Y-78728679D01*
X105240423Y-78704645D01*
X105231046Y-78682006D01*
X105217432Y-78661631D01*
X105200105Y-78644304D01*
X105163632Y-78614370D01*
X105066659Y-78496210D01*
X104994602Y-78361401D01*
X104993507Y-78357790D01*
X104950229Y-78215122D01*
X104950228Y-78215119D01*
X104935246Y-78063000D01*
X104950228Y-77910881D01*
X104994602Y-77764599D01*
X105066659Y-77629790D01*
X105163631Y-77511631D01*
X105281790Y-77414659D01*
X105416599Y-77342602D01*
X105416601Y-77342601D01*
X105562878Y-77298229D01*
X105562881Y-77298228D01*
X105676882Y-77287000D01*
X106303118Y-77287000D01*
X106417119Y-77298228D01*
X106417119Y-77298228D01*
G37*
G36*
X102637714Y-77296058D02*
G01*
X102644871Y-77298229D01*
X102755719Y-77331854D01*
X102755721Y-77331855D01*
X102864471Y-77389983D01*
X102959790Y-77468210D01*
X103038017Y-77563529D01*
X103096145Y-77672279D01*
X103131942Y-77790286D01*
X103144028Y-77913000D01*
X103131942Y-78035714D01*
X103096145Y-78153721D01*
X103038017Y-78262471D01*
X102959790Y-78357790D01*
X102864471Y-78436017D01*
X102864469Y-78436018D01*
X102755719Y-78494146D01*
X102659683Y-78523278D01*
X102637714Y-78529942D01*
X102545747Y-78539000D01*
X101834253Y-78539000D01*
X101742286Y-78529942D01*
X101720317Y-78523278D01*
X101624281Y-78494146D01*
X101515531Y-78436018D01*
X101515529Y-78436017D01*
X101420210Y-78357790D01*
X101341983Y-78262471D01*
X101283855Y-78153721D01*
X101248058Y-78035714D01*
X101235972Y-77913000D01*
X101248058Y-77790286D01*
X101283855Y-77672279D01*
X101341983Y-77563529D01*
X101420210Y-77468210D01*
X101515529Y-77389983D01*
X101624279Y-77331855D01*
X101624281Y-77331854D01*
X101735129Y-77298229D01*
X101742286Y-77296058D01*
X101834253Y-77287000D01*
X102545747Y-77287000D01*
X102637714Y-77296058D01*
X102637714Y-77296058D01*
G37*
G36*
X181445000Y-78067000D02*
G01*
X179743000Y-78067000D01*
X179743000Y-76365000D01*
X181445000Y-76365000D01*
X181445000Y-78067000D01*
X181445000Y-78067000D01*
G37*
G36*
X146318000Y-75985000D02*
G01*
X144716000Y-75985000D01*
X144716000Y-74383000D01*
X146318000Y-74383000D01*
X146318000Y-75985000D01*
X146318000Y-75985000D01*
G37*
G36*
X153294025Y-74394590D02*
G01*
X153445012Y-74440392D01*
X153584165Y-74514770D01*
X153706133Y-74614867D01*
X153806230Y-74736835D01*
X153880608Y-74875988D01*
X153926410Y-75026975D01*
X153941875Y-75184000D01*
X153926410Y-75341025D01*
X153880608Y-75492012D01*
X153806230Y-75631165D01*
X153706133Y-75753133D01*
X153584165Y-75853230D01*
X153445012Y-75927608D01*
X153294025Y-75973410D01*
X153176346Y-75985000D01*
X153097654Y-75985000D01*
X152979975Y-75973410D01*
X152828988Y-75927608D01*
X152689835Y-75853230D01*
X152567867Y-75753133D01*
X152467770Y-75631165D01*
X152393392Y-75492012D01*
X152347590Y-75341025D01*
X152332125Y-75184000D01*
X152347590Y-75026975D01*
X152393392Y-74875988D01*
X152467770Y-74736835D01*
X152567867Y-74614867D01*
X152689835Y-74514770D01*
X152828988Y-74440392D01*
X152979975Y-74394590D01*
X153097654Y-74383000D01*
X153176346Y-74383000D01*
X153294025Y-74394590D01*
X153294025Y-74394590D01*
G37*
G36*
X180842228Y-73897703D02*
G01*
X180997100Y-73961853D01*
X181136481Y-74054985D01*
X181255015Y-74173519D01*
X181348147Y-74312900D01*
X181412297Y-74467772D01*
X181445000Y-74632184D01*
X181445000Y-74799816D01*
X181412297Y-74964228D01*
X181348147Y-75119100D01*
X181255015Y-75258481D01*
X181136481Y-75377015D01*
X180997100Y-75470147D01*
X180842228Y-75534297D01*
X180677816Y-75567000D01*
X180510184Y-75567000D01*
X180345772Y-75534297D01*
X180190900Y-75470147D01*
X180051519Y-75377015D01*
X179932985Y-75258481D01*
X179839853Y-75119100D01*
X179775703Y-74964228D01*
X179743000Y-74799816D01*
X179743000Y-74632184D01*
X179775703Y-74467772D01*
X179839853Y-74312900D01*
X179932985Y-74173519D01*
X180051519Y-74054985D01*
X180190900Y-73961853D01*
X180345772Y-73897703D01*
X180510184Y-73865000D01*
X180677816Y-73865000D01*
X180842228Y-73897703D01*
X180842228Y-73897703D01*
G37*
G36*
X166001000Y-74815000D02*
G01*
X164199000Y-74815000D01*
X164199000Y-73013000D01*
X166001000Y-73013000D01*
X166001000Y-74815000D01*
X166001000Y-74815000D01*
G37*
G36*
X167750442Y-73019518D02*
G01*
X167816627Y-73026037D01*
X167929853Y-73060384D01*
X167986467Y-73077557D01*
X168125087Y-73151652D01*
X168142991Y-73161222D01*
X168178729Y-73190552D01*
X168280186Y-73273814D01*
X168363448Y-73375271D01*
X168392778Y-73411009D01*
X168392779Y-73411011D01*
X168476443Y-73567533D01*
X168476443Y-73567534D01*
X168527963Y-73737373D01*
X168545359Y-73914000D01*
X168527963Y-74090627D01*
X168502818Y-74173519D01*
X168476443Y-74260467D01*
X168410947Y-74383000D01*
X168392778Y-74416991D01*
X168373573Y-74440392D01*
X168280186Y-74554186D01*
X168185144Y-74632184D01*
X168142991Y-74666778D01*
X168142989Y-74666779D01*
X167986467Y-74750443D01*
X167929853Y-74767616D01*
X167816627Y-74801963D01*
X167750442Y-74808482D01*
X167684260Y-74815000D01*
X167595740Y-74815000D01*
X167529558Y-74808482D01*
X167463373Y-74801963D01*
X167350147Y-74767616D01*
X167293533Y-74750443D01*
X167137011Y-74666779D01*
X167137009Y-74666778D01*
X167094856Y-74632184D01*
X166999814Y-74554186D01*
X166906427Y-74440392D01*
X166887222Y-74416991D01*
X166869053Y-74383000D01*
X166803557Y-74260467D01*
X166777182Y-74173519D01*
X166752037Y-74090627D01*
X166734641Y-73914000D01*
X166752037Y-73737373D01*
X166803557Y-73567534D01*
X166803557Y-73567533D01*
X166887221Y-73411011D01*
X166887222Y-73411009D01*
X166916552Y-73375271D01*
X166999814Y-73273814D01*
X167101271Y-73190552D01*
X167137009Y-73161222D01*
X167154913Y-73151652D01*
X167293533Y-73077557D01*
X167350147Y-73060384D01*
X167463373Y-73026037D01*
X167529558Y-73019518D01*
X167595740Y-73013000D01*
X167684260Y-73013000D01*
X167750442Y-73019518D01*
X167750442Y-73019518D01*
G37*
G36*
X154259734Y-69759232D02*
G01*
X154469202Y-69845996D01*
X154657723Y-69971962D01*
X154818038Y-70132277D01*
X154944004Y-70320798D01*
X155030768Y-70530266D01*
X155075000Y-70752635D01*
X155075000Y-70979365D01*
X155030768Y-71201734D01*
X154944004Y-71411202D01*
X154818038Y-71599723D01*
X154657723Y-71760038D01*
X154469202Y-71886004D01*
X154259734Y-71972768D01*
X154037365Y-72017000D01*
X153810635Y-72017000D01*
X153588266Y-71972768D01*
X153378798Y-71886004D01*
X153190277Y-71760038D01*
X153029962Y-71599723D01*
X152903996Y-71411202D01*
X152817232Y-71201734D01*
X152773000Y-70979365D01*
X152773000Y-70752635D01*
X152817232Y-70530266D01*
X152903996Y-70320798D01*
X153029962Y-70132277D01*
X153190277Y-69971962D01*
X153378798Y-69845996D01*
X153588266Y-69759232D01*
X153810635Y-69715000D01*
X154037365Y-69715000D01*
X154259734Y-69759232D01*
X154259734Y-69759232D01*
G37*
G36*
X147259734Y-69759232D02*
G01*
X147469202Y-69845996D01*
X147657723Y-69971962D01*
X147818038Y-70132277D01*
X147944004Y-70320798D01*
X148030768Y-70530266D01*
X148075000Y-70752635D01*
X148075000Y-70979365D01*
X148030768Y-71201734D01*
X147944004Y-71411202D01*
X147818038Y-71599723D01*
X147657723Y-71760038D01*
X147469202Y-71886004D01*
X147259734Y-71972768D01*
X147037365Y-72017000D01*
X146810635Y-72017000D01*
X146588266Y-71972768D01*
X146378798Y-71886004D01*
X146190277Y-71760038D01*
X146029962Y-71599723D01*
X145903996Y-71411202D01*
X145817232Y-71201734D01*
X145773000Y-70979365D01*
X145773000Y-70752635D01*
X145817232Y-70530266D01*
X145903996Y-70320798D01*
X146029962Y-70132277D01*
X146190277Y-69971962D01*
X146378798Y-69845996D01*
X146588266Y-69759232D01*
X146810635Y-69715000D01*
X147037365Y-69715000D01*
X147259734Y-69759232D01*
X147259734Y-69759232D01*
G37*
G36*
X134174000Y-71107200D02*
G01*
X132272000Y-71107200D01*
X132272000Y-69205200D01*
X134174000Y-69205200D01*
X134174000Y-71107200D01*
X134174000Y-71107200D01*
G37*
G36*
X142178000Y-71107200D02*
G01*
X140276000Y-71107200D01*
X140276000Y-69205200D01*
X142178000Y-69205200D01*
X142178000Y-71107200D01*
X142178000Y-71107200D01*
G37*
G36*
X126176000Y-71107200D02*
G01*
X124274000Y-71107200D01*
X124274000Y-69205200D01*
X126176000Y-69205200D01*
X126176000Y-71107200D01*
X126176000Y-71107200D01*
G37*
G36*
X182305473Y-65354919D02*
G01*
X182666437Y-65426719D01*
X183167087Y-65634095D01*
X183465324Y-65833371D01*
X183617663Y-65935161D01*
X184000839Y-66318337D01*
X184000841Y-66318340D01*
X184301905Y-66768913D01*
X184509281Y-67269563D01*
X184509281Y-67269564D01*
X184615000Y-67801049D01*
X184615000Y-68342951D01*
X184570394Y-68567200D01*
X184509281Y-68874437D01*
X184301905Y-69375087D01*
X184011636Y-69809504D01*
X184000839Y-69825663D01*
X183617663Y-70208839D01*
X183617660Y-70208841D01*
X183167087Y-70509905D01*
X182666437Y-70717281D01*
X182495914Y-70751200D01*
X182134951Y-70823000D01*
X181593049Y-70823000D01*
X181232086Y-70751200D01*
X181061563Y-70717281D01*
X180560913Y-70509905D01*
X180110340Y-70208841D01*
X180110337Y-70208839D01*
X179727161Y-69825663D01*
X179716364Y-69809504D01*
X179426095Y-69375087D01*
X179218719Y-68874437D01*
X179157606Y-68567200D01*
X179113000Y-68342951D01*
X179113000Y-67801049D01*
X179218719Y-67269564D01*
X179218719Y-67269563D01*
X179426095Y-66768913D01*
X179727159Y-66318340D01*
X179727161Y-66318337D01*
X180110337Y-65935161D01*
X180262676Y-65833371D01*
X180560913Y-65634095D01*
X181061563Y-65426719D01*
X181422527Y-65354919D01*
X181593049Y-65321000D01*
X182134951Y-65321000D01*
X182305473Y-65354919D01*
X182305473Y-65354919D01*
G37*
G36*
X103523694Y-65302060D02*
G01*
X103789437Y-65354919D01*
X104290087Y-65562295D01*
X104585230Y-65759504D01*
X104740663Y-65863361D01*
X105123839Y-66246537D01*
X105123841Y-66246540D01*
X105424905Y-66697113D01*
X105619014Y-67165734D01*
X105632281Y-67197764D01*
X105738000Y-67729249D01*
X105738000Y-68271151D01*
X105702859Y-68447815D01*
X105632281Y-68802637D01*
X105424905Y-69303287D01*
X105140996Y-69728186D01*
X105123839Y-69753863D01*
X104740663Y-70137039D01*
X104740660Y-70137041D01*
X104290087Y-70438105D01*
X103789437Y-70645481D01*
X103523694Y-70698340D01*
X103257951Y-70751200D01*
X102716049Y-70751200D01*
X102450306Y-70698340D01*
X102184563Y-70645481D01*
X101683913Y-70438105D01*
X101233340Y-70137041D01*
X101233337Y-70137039D01*
X100850161Y-69753863D01*
X100833004Y-69728186D01*
X100549095Y-69303287D01*
X100341719Y-68802637D01*
X100271141Y-68447815D01*
X100236000Y-68271151D01*
X100236000Y-67729249D01*
X100341719Y-67197764D01*
X100354986Y-67165734D01*
X100549095Y-66697113D01*
X100850159Y-66246540D01*
X100850161Y-66246537D01*
X101233337Y-65863361D01*
X101388770Y-65759504D01*
X101683913Y-65562295D01*
X102184563Y-65354919D01*
X102450306Y-65302060D01*
X102716049Y-65249200D01*
X103257951Y-65249200D01*
X103523694Y-65302060D01*
X103523694Y-65302060D01*
G37*
G36*
X167750443Y-68193519D02*
G01*
X167816627Y-68200037D01*
X167929853Y-68234384D01*
X167986467Y-68251557D01*
X168023122Y-68271150D01*
X168142991Y-68335222D01*
X168161624Y-68350514D01*
X168280186Y-68447814D01*
X168348169Y-68530653D01*
X168392778Y-68585009D01*
X168392779Y-68585011D01*
X168476443Y-68741533D01*
X168493616Y-68798147D01*
X168527963Y-68911373D01*
X168545359Y-69088000D01*
X168527963Y-69264627D01*
X168495289Y-69372339D01*
X168476443Y-69434467D01*
X168415591Y-69548311D01*
X168392778Y-69590991D01*
X168364433Y-69625529D01*
X168280186Y-69728186D01*
X168203174Y-69791387D01*
X168142991Y-69840778D01*
X168142989Y-69840779D01*
X167986467Y-69924443D01*
X167943228Y-69937559D01*
X167816627Y-69975963D01*
X167767718Y-69980780D01*
X167684260Y-69989000D01*
X167595740Y-69989000D01*
X167512282Y-69980780D01*
X167463373Y-69975963D01*
X167336772Y-69937559D01*
X167293533Y-69924443D01*
X167137011Y-69840779D01*
X167137009Y-69840778D01*
X167076826Y-69791387D01*
X166999814Y-69728186D01*
X166915567Y-69625529D01*
X166887222Y-69590991D01*
X166864409Y-69548311D01*
X166803557Y-69434467D01*
X166784711Y-69372339D01*
X166752037Y-69264627D01*
X166734641Y-69088000D01*
X166752037Y-68911373D01*
X166786384Y-68798147D01*
X166803557Y-68741533D01*
X166887221Y-68585011D01*
X166887222Y-68585009D01*
X166931831Y-68530653D01*
X166999814Y-68447814D01*
X167118376Y-68350514D01*
X167137009Y-68335222D01*
X167256878Y-68271150D01*
X167293533Y-68251557D01*
X167350147Y-68234384D01*
X167463373Y-68200037D01*
X167529557Y-68193519D01*
X167595740Y-68187000D01*
X167684260Y-68187000D01*
X167750443Y-68193519D01*
X167750443Y-68193519D01*
G37*
G36*
X166001000Y-69989000D02*
G01*
X164199000Y-69989000D01*
X164199000Y-68187000D01*
X166001000Y-68187000D01*
X166001000Y-69989000D01*
X166001000Y-69989000D01*
G37*
G36*
X148436812Y-67499624D02*
G01*
X148600784Y-67567544D01*
X148748354Y-67666147D01*
X148873853Y-67791646D01*
X148972456Y-67939216D01*
X149040376Y-68103188D01*
X149075000Y-68277259D01*
X149075000Y-68454741D01*
X149040376Y-68628812D01*
X148972456Y-68792784D01*
X148873853Y-68940354D01*
X148748354Y-69065853D01*
X148600784Y-69164456D01*
X148436812Y-69232376D01*
X148262741Y-69267000D01*
X148085259Y-69267000D01*
X147911188Y-69232376D01*
X147747216Y-69164456D01*
X147599646Y-69065853D01*
X147474147Y-68940354D01*
X147375544Y-68792784D01*
X147307624Y-68628812D01*
X147273000Y-68454741D01*
X147273000Y-68277259D01*
X147307624Y-68103188D01*
X147375544Y-67939216D01*
X147474147Y-67791646D01*
X147599646Y-67666147D01*
X147747216Y-67567544D01*
X147911188Y-67499624D01*
X148085259Y-67465000D01*
X148262741Y-67465000D01*
X148436812Y-67499624D01*
X148436812Y-67499624D01*
G37*
G36*
X152936812Y-67499624D02*
G01*
X153100784Y-67567544D01*
X153248354Y-67666147D01*
X153373853Y-67791646D01*
X153472456Y-67939216D01*
X153540376Y-68103188D01*
X153575000Y-68277259D01*
X153575000Y-68454741D01*
X153540376Y-68628812D01*
X153472456Y-68792784D01*
X153373853Y-68940354D01*
X153248354Y-69065853D01*
X153100784Y-69164456D01*
X152936812Y-69232376D01*
X152762741Y-69267000D01*
X152585259Y-69267000D01*
X152411188Y-69232376D01*
X152247216Y-69164456D01*
X152099646Y-69065853D01*
X151974147Y-68940354D01*
X151875544Y-68792784D01*
X151807624Y-68628812D01*
X151773000Y-68454741D01*
X151773000Y-68277259D01*
X151807624Y-68103188D01*
X151875544Y-67939216D01*
X151974147Y-67791646D01*
X152099646Y-67666147D01*
X152247216Y-67567544D01*
X152411188Y-67499624D01*
X152585259Y-67465000D01*
X152762741Y-67465000D01*
X152936812Y-67499624D01*
X152936812Y-67499624D01*
G37*
G36*
X133500396Y-66701746D02*
G01*
X133673466Y-66773434D01*
X133829230Y-66877512D01*
X133961688Y-67009970D01*
X134065766Y-67165734D01*
X134137454Y-67338804D01*
X134174000Y-67522533D01*
X134174000Y-67709867D01*
X134137454Y-67893596D01*
X134065766Y-68066666D01*
X133961688Y-68222430D01*
X133829230Y-68354888D01*
X133673466Y-68458966D01*
X133500396Y-68530654D01*
X133316667Y-68567200D01*
X133129333Y-68567200D01*
X132945604Y-68530654D01*
X132772534Y-68458966D01*
X132616770Y-68354888D01*
X132484312Y-68222430D01*
X132380234Y-68066666D01*
X132308546Y-67893596D01*
X132272000Y-67709867D01*
X132272000Y-67522533D01*
X132308546Y-67338804D01*
X132380234Y-67165734D01*
X132484312Y-67009970D01*
X132616770Y-66877512D01*
X132772534Y-66773434D01*
X132945604Y-66701746D01*
X133129333Y-66665200D01*
X133316667Y-66665200D01*
X133500396Y-66701746D01*
X133500396Y-66701746D01*
G37*
G36*
X125502396Y-66701746D02*
G01*
X125675466Y-66773434D01*
X125831230Y-66877512D01*
X125963688Y-67009970D01*
X126067766Y-67165734D01*
X126139454Y-67338804D01*
X126176000Y-67522533D01*
X126176000Y-67709867D01*
X126139454Y-67893596D01*
X126067766Y-68066666D01*
X125963688Y-68222430D01*
X125831230Y-68354888D01*
X125675466Y-68458966D01*
X125502396Y-68530654D01*
X125318667Y-68567200D01*
X125131333Y-68567200D01*
X124947604Y-68530654D01*
X124774534Y-68458966D01*
X124618770Y-68354888D01*
X124486312Y-68222430D01*
X124382234Y-68066666D01*
X124310546Y-67893596D01*
X124274000Y-67709867D01*
X124274000Y-67522533D01*
X124310546Y-67338804D01*
X124382234Y-67165734D01*
X124486312Y-67009970D01*
X124618770Y-66877512D01*
X124774534Y-66773434D01*
X124947604Y-66701746D01*
X125131333Y-66665200D01*
X125318667Y-66665200D01*
X125502396Y-66701746D01*
X125502396Y-66701746D01*
G37*
G36*
X141504396Y-66701746D02*
G01*
X141677466Y-66773434D01*
X141833230Y-66877512D01*
X141965688Y-67009970D01*
X142069766Y-67165734D01*
X142141454Y-67338804D01*
X142178000Y-67522533D01*
X142178000Y-67709867D01*
X142141454Y-67893596D01*
X142069766Y-68066666D01*
X141965688Y-68222430D01*
X141833230Y-68354888D01*
X141677466Y-68458966D01*
X141504396Y-68530654D01*
X141320667Y-68567200D01*
X141133333Y-68567200D01*
X140949604Y-68530654D01*
X140776534Y-68458966D01*
X140620770Y-68354888D01*
X140488312Y-68222430D01*
X140384234Y-68066666D01*
X140312546Y-67893596D01*
X140276000Y-67709867D01*
X140276000Y-67522533D01*
X140312546Y-67338804D01*
X140384234Y-67165734D01*
X140488312Y-67009970D01*
X140620770Y-66877512D01*
X140776534Y-66773434D01*
X140949604Y-66701746D01*
X141133333Y-66665200D01*
X141320667Y-66665200D01*
X141504396Y-66701746D01*
X141504396Y-66701746D01*
G37*
M02*
