M48
; DRILL file {KiCad (6.0.0-rc1-dev-1491-g0a4812be0)} date 2019-01-28 15:12:48
; FORMAT={-:-/ absolute / inch / decimal}
; #@! TF.CreationDate,2019-01-28T15:12:48+01:00
; #@! TF.GenerationSoftware,Kicad,Pcbnew,(6.0.0-rc1-dev-1491-g0a4812be0)
; #@! TF.FileFunction,Plated,1,2,PTH
FMAT,2
INCH
T1C0.0079
T2C0.0157
T3C0.0197
T4C0.0217
T5C0.0236
T6C0.0295
T7C0.0300
T8C0.0315
T9C0.0335
T10C0.0354
T11C0.0394
T12C0.0400
T13C0.0472
T14C0.0512
T15C0.1063
%
G90
G05
T1
X4.6668Y-3.2345
X4.6668Y-3.3097
X4.718Y-3.2345
X4.718Y-3.3097
X4.7692Y-3.2345
X4.7692Y-3.3097
T2
X4.2029Y-3.5321
X5.4858Y-4.0577
X5.497Y-3.828
X5.5075Y-3.5087
X5.5614Y-3.0199
X5.564Y-4.1298
X5.5901Y-3.7457
X5.6328Y-3.8678
X5.6379Y-4.0299
X5.6457Y-3.9869
X5.6477Y-3.9397
X5.7467Y-3.8865
T3
X7.0851Y-4.2126
X7.1085Y-4.1562
X7.1085Y-4.269
X7.1648Y-4.1329
X7.1648Y-4.2923
X7.2212Y-4.1562
X7.2212Y-4.269
X7.2446Y-4.2126
X3.9749Y-4.2126
X3.9982Y-4.1562
X3.9982Y-4.269
X4.0546Y-4.1329
X4.0546Y-4.2923
X4.111Y-4.1562
X4.111Y-4.269
X4.1343Y-4.2126
X3.9749Y-2.6772
X3.9982Y-2.6208
X3.9982Y-2.7335
X4.0546Y-2.5974
X4.0546Y-2.7569
X4.111Y-2.6208
X4.111Y-2.7335
X4.1343Y-2.6772
X7.0851Y-2.6772
X7.1085Y-2.6208
X7.1085Y-2.7335
X7.1648Y-2.5974
X7.1648Y-2.7569
X7.2212Y-2.6208
X7.2212Y-2.7335
X7.2446Y-2.6772
T5
X4.8118Y-3.0994
X5.0945Y-3.4052
T6
X5.43Y-2.92
X5.43Y-3.22
T7
X6.5354Y-3.1821
X6.5354Y-3.2821
X6.6354Y-3.1821
X6.6354Y-3.2821
X6.7354Y-3.1821
X6.7354Y-3.2821
X6.8354Y-3.1821
X6.8354Y-3.2821
T8
X7.108Y-3.0836
X7.108Y-3.1821
X6.3354Y-3.4828
X6.3354Y-4.156
X6.4141Y-3.4828
X6.4141Y-4.156
X6.4929Y-3.4828
X6.4929Y-4.156
X6.5716Y-3.4828
X6.5716Y-4.156
X6.6504Y-3.4828
X6.6504Y-4.156
X6.7291Y-3.4828
X6.7291Y-4.156
X6.8078Y-3.4828
X6.8078Y-4.156
X6.8866Y-3.4828
X6.8866Y-4.156
X5.78Y-3.18
X5.9721Y-3.18
T10
X6.1601Y-2.6621
X6.1601Y-2.7621
X5.8501Y-2.6621
X5.8501Y-2.7621
X5.5301Y-2.6621
X5.5301Y-2.7621
T11
X4.108Y-3.8821
X4.108Y-3.9821
X4.038Y-2.8821
X4.038Y-2.9821
X6.0701Y-3.662
X6.0701Y-3.762
X6.0701Y-3.862
X6.0701Y-3.962
X6.0701Y-4.062
X6.0701Y-4.162
X4.928Y-2.6921
X5.1052Y-2.6921
T12
X6.588Y-2.7321
X6.588Y-2.8321
X6.688Y-2.7321
X6.688Y-2.8321
X6.788Y-2.7321
X6.788Y-2.8321
T13
X7.088Y-3.6021
T14
X4.8788Y-2.7905
X5.1544Y-2.7905
T15
X7.1648Y-4.2126
X4.0546Y-4.2126
X4.0546Y-2.6772
X7.1648Y-2.6772
T4
G00X4.03Y-3.1595
M15
G01X4.0044Y-3.1595
M16
G05
G00X4.03Y-3.4646
M15
G01X4.0044Y-3.4646
M16
G05
T9
G00X4.1776Y-3.1654
M15
G01X4.156Y-3.1654
M16
G05
G00X4.1776Y-3.4587
M15
G01X4.156Y-3.4587
M16
G05
T0
M30
